<svg width="59" height="50" viewBox="0 0 59 50" fill="none" xmlns="http://www.w3.org/2000/svg">
<circle cx="34" cy="25" r="25" fill="#F1EBFF"/>
<path d="M12.9554 28.0712L9.82857 24.9444L7.90039 26.8726L12.9554 31.9276L22.1013 22.7817L20.1731 20.8535L12.9554 28.0712Z" fill="#C560D6"/>
<path d="M25.9091 15.6355V10.9091C25.9091 8.01582 24.7597 5.24105 22.7139 3.1952C20.668 1.14935 17.8933 0 15 0C12.1067 0 9.33196 1.14935 7.28611 3.1952C5.24026 5.24105 4.09091 8.01582 4.09091 10.9091V15.6368C1.46305 18.4113 -0.00106708 22.0877 5.83511e-07 25.9091C5.83511e-07 34.1918 6.71727 40.9091 15 40.9091C23.2855 40.9091 30 34.1918 30 25.9091C30 21.9286 28.4386 18.3218 25.9091 15.6355ZM6.81818 10.9091C6.81818 6.39682 10.4877 2.72727 15 2.72727C19.5123 2.72727 23.1818 6.39682 23.1818 10.9091V13.3473C20.7503 11.7549 17.9066 10.9074 15 10.9091C12.0934 10.9074 9.2497 11.7549 6.81818 13.3473V10.9091ZM15 38.1818C8.22136 38.1818 2.72727 32.6877 2.72727 25.9091C2.72727 19.1305 8.22136 13.6364 15 13.6364C21.7786 13.6364 27.2727 19.1305 27.2727 25.9091C27.2727 32.6877 21.7786 38.1818 15 38.1818Z" fill="#C560D6"/>
</svg>
