<svg width="18" height="24" viewBox="0 0 18 24" fill="none" xmlns="http://www.w3.org/2000/svg">
<path d="M8.36763 0.0116162C6.11465 0.222832 4.25595 1.07708 2.73989 2.59315C0.641809 4.69123 -0.282848 7.70458 0.317944 10.4551C0.552629 11.5065 0.90935 12.4546 1.44443 13.4215C1.75891 13.9894 7.94989 23.3956 8.14702 23.6068C8.63517 24.1278 9.36738 24.1278 9.85553 23.6068C9.97287 23.4801 15.3941 15.3037 16.1451 14.1115C17.3279 12.2434 17.9287 10.2814 17.8536 8.54944C17.7926 7.1695 17.5203 6.07587 16.9383 4.92122C16.4783 4.00595 15.9761 3.30659 15.2627 2.59315C13.925 1.26014 12.2493 0.401193 10.3859 0.100796C9.94001 0.030391 8.73373 -0.0259333 8.36763 0.0116162ZM10.2216 1.1381C12.7093 1.49952 15.028 3.23618 16.07 5.51262C16.5957 6.65788 16.8069 7.60601 16.8069 8.83106C16.8069 9.40839 16.7881 9.63838 16.6848 10.1218C16.4502 11.2436 16.0653 12.2105 15.4082 13.3042C14.8261 14.2804 9.06699 22.9591 9.00127 22.9591C8.93556 22.9591 3.1764 14.2804 2.59438 13.3042C1.97951 12.2762 1.6181 11.4126 1.37402 10.38C0.993836 8.77005 1.17689 7.15542 1.93257 5.51262C2.99804 3.18455 5.40591 1.42442 7.94519 1.11463C8.78067 1.01137 9.40493 1.01607 10.2216 1.1381Z" fill="#FDBE0C"/>
<path d="M8.20383 4.23129C6.61736 4.5176 5.30782 5.57368 4.66948 7.07097C4.07807 8.465 4.23297 10.136 5.06375 11.4079C5.73495 12.4265 6.67838 13.0977 7.92221 13.4403C8.35403 13.5577 9.64949 13.5577 10.0813 13.4403C11.3251 13.0977 12.2686 12.4265 12.9398 11.4079C13.5969 10.4082 13.841 9.12212 13.6016 7.96277C13.2589 6.29182 12.0761 4.94942 10.4709 4.40026C9.7903 4.17027 8.90788 4.10456 8.20383 4.23129ZM9.45705 5.24513C10.2456 5.35308 10.9215 5.67225 11.4894 6.20733C12.6675 7.31974 12.982 8.99539 12.2873 10.4364C11.8274 11.3845 10.9825 12.0885 9.95458 12.3842C9.43358 12.5344 8.56994 12.5344 8.04894 12.3842C6.23248 11.8632 5.08722 10.0796 5.40639 8.26317C5.67862 6.70017 6.93184 5.47042 8.48545 5.24982C8.91258 5.1888 9.03931 5.1888 9.45705 5.24513Z" fill="#FDBE0C"/>
</svg>
