<svg width="59" height="50" viewBox="0 0 59 50" fill="none" xmlns="http://www.w3.org/2000/svg">
<circle cx="34" cy="25" r="25" fill="#FFF3E6"/>
<path d="M14.625 43H4.5C3.30653 43 2.16193 42.5259 1.31802 41.682C0.474106 40.8381 0 39.6935 0 38.5V18.25C0 17.0565 0.474106 15.9119 1.31802 15.068C2.16193 14.2241 3.30653 13.75 4.5 13.75H14.625C15.8185 13.75 16.9631 14.2241 17.807 15.068C18.6509 15.9119 19.125 17.0565 19.125 18.25V38.5C19.125 39.6935 18.6509 40.8381 17.807 41.682C16.9631 42.5259 15.8185 43 14.625 43ZM4.5 16C3.90326 16 3.33097 16.2371 2.90901 16.659C2.48705 17.081 2.25 17.6533 2.25 18.25V38.5C2.25 39.0967 2.48705 39.669 2.90901 40.091C3.33097 40.5129 3.90326 40.75 4.5 40.75H14.625C15.2217 40.75 15.794 40.5129 16.216 40.091C16.6379 39.669 16.875 39.0967 16.875 38.5V18.25C16.875 17.6533 16.6379 17.081 16.216 16.659C15.794 16.2371 15.2217 16 14.625 16H4.5Z" fill="#F98B26"/>
<path d="M9.56242 39.625C9.3406 39.6241 9.12401 39.5576 8.93987 39.4339C8.75573 39.3102 8.61227 39.1349 8.52751 38.9299C8.44275 38.7249 8.42048 38.4994 8.4635 38.2818C8.50652 38.0642 8.61291 37.8642 8.76929 37.7069C8.98007 37.4973 9.26521 37.3797 9.56242 37.3797C9.85962 37.3797 10.1448 37.4973 10.3555 37.7069C10.5119 37.8642 10.6183 38.0642 10.6613 38.2818C10.7044 38.4994 10.6821 38.7249 10.5973 38.9299C10.5126 39.1349 10.3691 39.3102 10.185 39.4339C10.0008 39.5576 9.78423 39.6241 9.56242 39.625ZM31.4999 38.5H17.9999V36.25H31.4999C32.0966 36.25 32.6689 36.0129 33.0909 35.591C33.5128 35.169 33.7499 34.5967 33.7499 34V11.5C33.7499 10.9033 33.5128 10.331 33.0909 9.90901C32.6689 9.48705 32.0966 9.25 31.4999 9.25H14.0624C13.4657 9.25 12.8934 9.48705 12.4714 9.90901C12.0495 10.331 11.8124 10.9033 11.8124 11.5V14.875H9.56242V11.5C9.56242 10.3065 10.0365 9.16193 10.8804 8.31802C11.7243 7.47411 12.8689 7 14.0624 7H31.4999C32.6934 7 33.838 7.47411 34.6819 8.31802C35.5258 9.16193 35.9999 10.3065 35.9999 11.5V34C35.9999 35.1935 35.5258 36.3381 34.6819 37.182C33.838 38.0259 32.6934 38.5 31.4999 38.5Z" fill="#F98B26"/>
<path d="M22.7812 35.125C22.4829 35.125 22.1967 35.0065 21.9858 34.7955C21.7748 34.5845 21.6562 34.2984 21.6562 34C21.6479 33.9271 21.6479 33.8535 21.6562 33.7806C21.6708 33.7096 21.6915 33.6399 21.7181 33.5725C21.7471 33.5035 21.7829 33.4375 21.825 33.3756C21.8638 33.3131 21.9111 33.2563 21.9656 33.2069C22.1764 32.9973 22.4615 32.8797 22.7587 32.8797C23.056 32.8797 23.3411 32.9973 23.5519 33.2069C23.707 33.3628 23.813 33.5608 23.8568 33.7764C23.9006 33.9919 23.8802 34.2156 23.7982 34.4197C23.7162 34.6238 23.5762 34.7994 23.3954 34.9248C23.2147 35.0501 23.0012 35.1197 22.7812 35.125ZM25.3125 22.75C25.0141 22.75 24.728 22.6315 24.517 22.4205C24.306 22.2095 24.1875 21.9234 24.1875 21.625V18.8125H21.375C21.0766 18.8125 20.7905 18.694 20.5795 18.483C20.3685 18.272 20.25 17.9859 20.25 17.6875C20.25 17.3891 20.3685 17.103 20.5795 16.892C20.7905 16.681 21.0766 16.5625 21.375 16.5625H25.3125C25.6109 16.5625 25.897 16.681 26.108 16.892C26.319 17.103 26.4375 17.3891 26.4375 17.6875V21.625C26.4375 21.9234 26.319 22.2095 26.108 22.4205C25.897 22.6315 25.6109 22.75 25.3125 22.75ZM14.625 33.4375H10.6875C10.3891 33.4375 10.103 33.319 9.89201 33.108C9.68103 32.897 9.5625 32.6109 9.5625 32.3125V28.375C9.5625 28.0766 9.68103 27.7905 9.89201 27.5795C10.103 27.3685 10.3891 27.25 10.6875 27.25C10.9859 27.25 11.272 27.3685 11.483 27.5795C11.694 27.7905 11.8125 28.0766 11.8125 28.375V31.1875H14.625C14.9234 31.1875 15.2095 31.306 15.4205 31.517C15.6315 31.728 15.75 32.0141 15.75 32.3125C15.75 32.6109 15.6315 32.897 15.4205 33.108C15.2095 33.319 14.9234 33.4375 14.625 33.4375Z" fill="#F98B26"/>
<path d="M10.4663 30.9466L24.5243 17.1648L26.0993 18.7713L12.0419 32.5531L10.4663 30.9466Z" fill="#F98B26"/>
</svg>
