<svg width="41" height="39" viewBox="0 0 41 39" fill="none" xmlns="http://www.w3.org/2000/svg">
<path d="M10.8284 0.0760612C10.7598 0.114147 10.6608 0.251255 10.6075 0.373131C10.5313 0.571178 10.5313 0.639732 10.6532 0.830162C10.737 0.959656 12.4051 2.42215 14.378 4.0827C18.476 7.53329 18.4532 7.51805 18.4532 7.73133C18.4532 7.87606 18.3846 7.90653 17.8667 7.9827C17.1278 8.09696 16.5793 8.36356 16.1299 8.82059C15.4825 9.47567 15.254 10.146 15.1321 11.7837C15.1092 12.1722 15.0635 12.4921 15.0483 12.4921C15.0254 12.4921 14.5379 12.2102 13.959 11.8599L12.9002 11.2352L12.8926 8.99579C12.8926 6.82489 12.885 6.75633 12.725 6.45926C12.5651 6.17743 12.3975 6.0784 10.0362 4.89774C7.25591 3.5038 7.21782 3.48856 6.97407 3.99891C6.73794 4.49403 6.78364 4.5245 9.3811 5.82704L11.7424 7.0077L11.7653 9.27001C11.7881 11.3952 11.7958 11.5552 11.9405 11.8065C12.0624 12.0122 12.4127 12.2636 13.4792 12.911C14.2409 13.3681 14.8883 13.7718 14.9112 13.8022C14.9417 13.8327 14.9417 14.0231 14.9112 14.2364C14.8579 14.6097 14.8502 14.6249 14.5836 14.6706C13.8905 14.7849 13.5401 14.9524 13.1059 15.3866L12.6717 15.8284L11.7348 15.8589C10.6227 15.8893 10.3409 16.0112 10.0819 16.5597C9.92954 16.8643 9.92192 17.0167 9.92192 18.9743L9.91431 21.0614L7.88052 22.5087C6.72271 23.339 5.80103 24.0474 5.73247 24.1692C5.63345 24.352 5.63345 24.3977 5.73247 24.5806C5.89243 24.87 6.15903 24.9919 6.4104 24.9005C6.73794 24.771 10.7522 21.8688 10.8969 21.6556C11.0112 21.4727 11.034 21.1757 11.0645 19.2333L11.1026 17.0243L11.7348 17.0015L12.3594 16.9786V21.1909V25.4032L10.9122 26.8505C9.83052 27.9245 9.44204 28.3663 9.38872 28.5643C9.34302 28.7167 9.31255 29.9583 9.31255 31.3979V33.9573L7.59106 35.9683C6.64653 37.0727 5.81626 38.0477 5.75532 38.1468C5.49634 38.52 5.90767 39.0837 6.35708 38.977C6.57798 38.9161 10.0819 34.9018 10.318 34.4296C10.4399 34.1934 10.4551 33.904 10.4551 31.535V28.9071L11.392 27.9702L12.3366 27.0257L12.3823 28.3511C12.4356 29.8212 12.5042 30.3011 12.7784 31.2684C13.5249 33.8431 15.551 36.0749 18.0799 37.1032C20.2204 37.9792 22.7797 37.9792 24.9202 37.1032C27.4491 36.0749 29.4752 33.8431 30.2217 31.2684C30.4959 30.3011 30.5645 29.8212 30.6178 28.3511L30.6635 27.0257L31.6081 27.9702L32.545 28.9071V31.535C32.545 33.904 32.5602 34.1934 32.6821 34.4296C32.9182 34.9018 36.4221 38.9161 36.643 38.977C37.0924 39.0837 37.5038 38.52 37.2448 38.1468C37.1838 38.0477 36.3536 37.0727 35.409 35.9683L33.6875 33.9573V31.4208C33.6875 30.0268 33.6647 28.77 33.6342 28.6329C33.5961 28.4272 33.2762 28.0616 32.1108 26.8809L30.6407 25.3956V21.1909V16.9786L31.2729 17.0015L31.8975 17.0243L31.9356 19.2333C31.9661 21.1757 31.9889 21.4727 32.1032 21.6556C32.2479 21.8688 36.2622 24.771 36.5897 24.9005C36.8411 24.9919 37.1077 24.87 37.2676 24.5806C37.3667 24.3977 37.3667 24.352 37.2676 24.1692C37.1991 24.0474 36.2774 23.339 35.1196 22.5087L33.0858 21.0614L33.0782 18.9743C33.0782 17.0167 33.0706 16.8643 32.9182 16.5597C32.6592 16.0112 32.3774 15.8893 31.2653 15.8589L30.3284 15.8284L29.8942 15.3866C29.46 14.9524 29.1096 14.7849 28.4165 14.6706C28.1499 14.6249 28.1422 14.6097 28.0889 14.2364C28.0584 14.0231 28.0584 13.8327 28.0889 13.8022C28.1118 13.7718 28.7592 13.3681 29.5209 12.911C30.5874 12.2636 30.9377 12.0122 31.0596 11.8065C31.2043 11.5628 31.212 11.38 31.25 9.26239L31.2881 6.99247L33.6495 5.79657C35.6071 4.81395 36.026 4.57782 36.0793 4.41024C36.1708 4.14364 35.9956 3.79325 35.7213 3.70184C35.5309 3.63329 35.2643 3.74754 33.1391 4.79872C31.8366 5.44618 30.6711 6.06317 30.5493 6.16219C30.1151 6.5202 30.1075 6.57352 30.1075 9.00341L30.0999 11.2352L29.0411 11.8599C28.4622 12.2102 27.9747 12.4921 27.9518 12.4921C27.9366 12.4921 27.8909 12.1722 27.868 11.7837C27.7461 10.146 27.5176 9.47567 26.8702 8.82059C26.4208 8.36356 25.8723 8.09696 25.1411 7.9827C24.6155 7.90653 24.5469 7.87606 24.5469 7.73133C24.5469 7.51805 24.5241 7.53329 28.6221 4.0827C30.595 2.42215 32.2708 0.959656 32.3469 0.830162C32.484 0.609264 32.484 0.578796 32.3698 0.335045C32.2327 0.0455933 31.9508 -0.0686646 31.6766 0.0608253C31.4938 0.136997 24.6993 5.86512 24.0594 6.46688C23.6481 6.85536 23.412 7.30477 23.4043 7.6704V7.92177H21.5H19.5958V7.69325C19.5958 7.38094 19.4053 6.93915 19.154 6.67255C18.9331 6.43641 11.7577 0.342663 11.4454 0.129379C11.2397 -0.0153465 11.0112 -0.0305786 10.8284 0.0760612ZM25.301 9.18622C25.5219 9.24716 25.8266 9.41473 25.9942 9.56708C26.5122 10.0393 26.5807 10.2755 26.7559 12.1874C26.8397 13.1319 26.9235 14.0612 26.9463 14.2593L26.992 14.6249H21.5H16.0081L16.0461 14.2974C16.0766 14.1222 16.1604 13.1852 16.2518 12.2255C16.4194 10.3059 16.4879 10.0622 16.9602 9.60516C17.4934 9.0872 17.6305 9.07196 21.4696 9.06434C24.3565 9.06434 24.9659 9.07958 25.301 9.18622ZM20.8983 16.0493C20.9059 16.7501 21.2334 17.1081 21.7133 16.9405C21.9495 16.8567 22.1018 16.514 22.1018 16.0493L22.1094 15.7599L25.3315 15.7827C28.2108 15.8056 28.5688 15.8208 28.7897 15.935C29.102 16.1102 29.3229 16.3997 29.4219 16.7729C29.5438 17.2071 29.4752 29.5089 29.3534 30.1259C28.8659 32.571 27.251 34.6809 25.042 35.7854C24.1584 36.2272 23.5262 36.41 22.3227 36.5852L22.1094 36.6157L22.0942 27.6503C22.0713 18.9515 22.0637 18.6696 21.9266 18.5173C21.8276 18.4106 21.6905 18.3573 21.5 18.3573C21.3096 18.3573 21.1725 18.4106 21.0735 18.5173C20.9364 18.6696 20.9288 18.9515 20.9059 27.6503L20.8907 36.6157L20.6774 36.5852C19.4739 36.41 18.8417 36.2272 17.9581 35.7854C16.0461 34.8333 14.6446 33.2108 13.9362 31.1466C13.5477 30.0192 13.5401 29.905 13.5401 23.08C13.5401 16.8567 13.5401 16.712 13.6924 16.4606C13.8829 16.1407 14.1647 15.9198 14.4999 15.8436C14.6446 15.8132 16.1375 15.7827 17.8286 15.7751L20.8907 15.7675L20.8983 16.0493Z" fill="#FF3F33"/>
<path d="M1 35.0001L40 8.50012" stroke="#FF3F33"/>
</svg>
