<svg width="17" height="25" viewBox="0 0 17 25" fill="none" xmlns="http://www.w3.org/2000/svg">
<path d="M8.43945 18.1875C10.6061 16.4375 12.2415 14.7552 13.3457 13.1406C14.4499 11.526 15.002 10.0208 15.002 8.625C15.002 7.39583 14.778 6.35417 14.3301 5.5C13.8822 4.64583 13.3301 3.94792 12.6738 3.40625C12.0176 2.86458 11.304 2.47396 10.5332 2.23437C9.76237 1.99479 9.06445 1.875 8.43945 1.875C7.81445 1.875 7.11654 1.99479 6.3457 2.23437C5.57487 2.47396 4.86133 2.86458 4.20508 3.40625C3.54883 3.94792 2.99674 4.64583 2.54883 5.5C2.10091 6.35417 1.87695 7.39583 1.87695 8.625C1.87695 10.0208 2.42904 11.526 3.5332 13.1406C4.63737 14.7552 6.27279 16.4375 8.43945 18.1875ZM8.43945 20.5625C5.58529 18.4167 3.46549 16.3646 2.08008 14.4062C0.694661 12.4479 0.00195312 10.5208 0.00195312 8.625C0.00195312 7.20833 0.257162 5.96354 0.767578 4.89062C1.278 3.81771 1.93945 2.91667 2.75195 2.1875C3.56445 1.45833 4.4707 0.911458 5.4707 0.546875C6.4707 0.182292 7.46029 0 8.43945 0C9.41862 0 10.4082 0.182292 11.4082 0.546875C12.4082 0.911458 13.3145 1.45833 14.127 2.1875C14.9395 2.91667 15.6009 3.81771 16.1113 4.89062C16.6217 5.96354 16.877 7.20833 16.877 8.625C16.877 10.5208 16.1842 12.4479 14.7988 14.4062C13.4134 16.3646 11.2936 18.4167 8.43945 20.5625ZM8.43945 10.625C9.04362 10.625 9.55925 10.4115 9.98633 9.98438C10.4134 9.55729 10.627 9.04167 10.627 8.4375C10.627 7.83333 10.4134 7.31771 9.98633 6.89062C9.55925 6.46354 9.04362 6.25 8.43945 6.25C7.83529 6.25 7.31966 6.46354 6.89258 6.89062C6.46549 7.31771 6.25195 7.83333 6.25195 8.4375C6.25195 9.04167 6.46549 9.55729 6.89258 9.98438C7.31966 10.4115 7.83529 10.625 8.43945 10.625ZM0.00195312 25V23.125H16.877V25H0.00195312Z" fill="#FF3F33"/>
</svg>
