<svg width="38" height="28" viewBox="0 0 38 28" fill="none" xmlns="http://www.w3.org/2000/svg">
<path d="M8.56738 0.0402241C6.53291 0.324612 4.70992 1.82676 4.05364 3.76643C3.42653 5.604 3.76925 7.55825 4.98701 9.07499L5.38807 9.57084L4.97243 9.79689C2.24523 11.2553 0.480571 13.8294 0.0722203 16.9284C-0.0298674 17.7451 -0.0225754 21.8287 0.0868043 22.0328C0.269104 22.3756 0.225352 22.3683 3.63071 22.3756H6.85376V24.9788C6.86105 27.7279 6.86105 27.7279 7.19648 27.9029C7.42253 28.0268 29.911 28.0268 30.1371 27.9029C30.4725 27.7279 30.4725 27.7279 30.4798 24.9788V22.3756H33.7101C37.1082 22.3683 37.0644 22.3756 37.2467 22.0328C37.3561 21.8287 37.3634 17.7743 37.2613 16.9212C36.8821 13.9242 35.081 11.2699 32.4632 9.84794L31.9455 9.57084L32.3465 9.07499C34.0893 6.90198 33.9872 3.83935 32.1059 1.80488C30.5819 0.164188 28.3141 -0.411879 26.1994 0.310028C25.2295 0.638166 24.792 0.966307 24.792 1.35278C24.792 1.57154 25.1639 1.95802 25.3754 1.95802C25.4556 1.95802 25.6525 1.89239 25.8129 1.81218C27.2276 1.09027 28.6203 1.05381 29.9329 1.71009C32.1205 2.7893 32.9736 5.46546 31.8215 7.65305C31.3402 8.56455 30.4069 9.35208 29.4006 9.7021C28.9922 9.84064 28.7662 9.86981 28.037 9.86981C27.5557 9.86981 26.9942 9.84064 26.7827 9.80418C26.4327 9.74585 26.3963 9.75314 26.2213 9.92815C26.09 10.0594 26.0317 10.198 26.0317 10.3803C26.0317 10.8469 26.3963 11.0365 27.4755 11.1386C28.4672 11.2334 29.2183 11.1022 30.4944 10.599L30.8298 10.4605L31.3038 10.6646C32.4632 11.1532 33.8122 12.2616 34.5852 13.3408C34.9862 13.9096 35.4383 14.7919 35.6498 15.4336C35.9998 16.4618 36.0363 16.7826 36.0727 19.0067L36.1092 21.1359H33.258C31.6902 21.1359 30.4069 21.1068 30.4069 21.0703C30.4069 20.9099 30.1662 19.6702 30.0714 19.3129C29.4662 17.1691 28.4161 15.4117 26.8119 13.8658C26.0462 13.1293 24.792 12.2251 23.9826 11.8314L23.567 11.6345L24.0337 11.0511C25.864 8.73226 25.9879 5.46546 24.3326 3.01535C23.5232 1.81947 22.2836 0.856926 20.9419 0.39024C17.2886 -0.885857 13.3145 1.09756 12.1477 4.78001C11.4769 6.91656 11.9144 9.29375 13.2999 11.0511L13.7666 11.6345L13.4968 11.7584C13.3509 11.8314 12.9571 12.0574 12.6144 12.2543C10.5654 13.4866 9.01219 15.193 7.98402 17.3733C7.51004 18.365 7.26211 19.1379 7.05794 20.2682L6.89751 21.1359H4.06822H1.23894V19.3275C1.23894 16.6805 1.40665 15.8055 2.20877 14.2669C3.05464 12.6335 4.61512 11.2042 6.21207 10.599L6.55479 10.475L7.19648 10.7303C8.01319 11.0584 8.50904 11.1532 9.33303 11.1532C10.3393 11.1532 11.1487 10.949 11.2581 10.6719C11.3529 10.4094 11.3019 10.1177 11.1123 9.92815C10.9373 9.75314 10.9008 9.74585 10.5508 9.80418C10.3393 9.84064 9.77784 9.86981 9.29657 9.86981C8.23195 9.86981 7.71421 9.71668 6.88293 9.16249C5.66517 8.34579 5.0016 7.06969 5.00889 5.53108C5.01618 3.89768 5.93497 2.43199 7.40066 1.71009C8.71322 1.05381 10.106 1.09027 11.5206 1.81218C11.9071 2.00906 12.0748 1.99447 12.33 1.74655C12.8405 1.22882 12.403 0.718378 11.0831 0.295444C10.2664 0.0329323 9.33303 -0.0618629 8.56738 0.0402241ZM19.5345 1.30903C20.7158 1.49862 21.7659 2.04552 22.6409 2.93514C23.3336 3.64246 23.7566 4.34978 24.0337 5.27587C24.2962 6.16549 24.3181 7.40512 24.0774 8.25099C23.618 9.86981 22.5826 11.124 21.1096 11.8386C20.2564 12.2543 19.6293 12.4001 18.6668 12.4001C17.7042 12.4001 17.0771 12.2543 16.224 11.8386C14.751 11.124 13.7155 9.86981 13.2561 8.25099C13.0155 7.40512 13.0374 6.16549 13.2999 5.27587C13.577 4.34978 13.9999 3.64246 14.6926 2.93514C16.0052 1.608 17.7626 1.01735 19.5345 1.30903ZM15.5531 12.896C16.5886 13.4429 17.4198 13.6398 18.6668 13.6398C19.9064 13.6398 20.745 13.4429 21.7804 12.9033L22.4732 12.5387L22.8815 12.7064C24.0628 13.2022 25.091 13.9169 26.1483 14.9742C27.4974 16.3159 28.4307 17.9493 28.8828 19.7286C29.1964 20.9682 29.2401 21.537 29.2401 24.2496V26.7507H18.6668H8.0934V24.2496C8.0934 22.8641 8.12986 21.4714 8.17361 21.1286C8.49446 18.6348 9.56638 16.4982 11.3456 14.7919C12.1842 13.9825 12.8113 13.5523 13.9197 12.9908C14.4155 12.7356 14.8239 12.5314 14.8385 12.5314C14.8458 12.5314 15.1666 12.6991 15.5531 12.896Z" fill="#DC66AD"/>
</svg>
