<svg width="32" height="28" viewBox="0 0 32 28" fill="none" xmlns="http://www.w3.org/2000/svg">
<path d="M0.167888 0.381756L0 0.542927V13.6449V26.7469L0.167888 26.908L0.32906 27.0759H15.58H30.8309L30.9921 26.908L31.16 26.7469V13.6449V0.542927L30.9921 0.381756L30.8309 0.213867H15.58H0.32906L0.167888 0.381756ZM7.52138 13.6449V26.0014H4.29793H1.07448V13.6449V1.28835H4.29793H7.52138V13.6449ZM30.0855 13.6449V26.0014H19.3407H8.59586V13.6449V1.28835H19.3407H30.0855V13.6449Z" fill="#DC66AD"/>
<path d="M2.31633 3.60525C2.20888 3.70598 2.14844 3.847 2.14844 3.9746C2.14844 4.10219 2.20888 4.24322 2.31633 4.34395L2.4775 4.51184H4.2974H6.11731L6.27848 4.34395C6.50009 4.12906 6.50009 3.82014 6.27848 3.60525L6.11731 3.43736H4.2974H2.4775L2.31633 3.60525Z" fill="#DC66AD"/>
<path d="M2.31633 6.82876C2.20888 6.92949 2.14844 7.07052 2.14844 7.19811C2.14844 7.32571 2.20888 7.46673 2.31633 7.56746L2.4775 7.73535H4.2974H6.11731L6.27848 7.56746C6.50009 7.35257 6.50009 7.04365 6.27848 6.82876L6.11731 6.66087H4.2974H2.4775L2.31633 6.82876Z" fill="#DC66AD"/>
<path d="M2.31633 10.052C2.20888 10.1528 2.14844 10.2938 2.14844 10.4214C2.14844 10.549 2.20888 10.69 2.31633 10.7907L2.4775 10.9586H4.2974H6.11731L6.27848 10.7907C6.50009 10.5758 6.50009 10.2669 6.27848 10.052L6.11731 9.88414H4.2974H2.4775L2.31633 10.052Z" fill="#DC66AD"/>
<path d="M14.458 11.8653C13.491 12.6779 12.6986 13.383 12.665 13.477C12.6247 13.5844 12.6247 13.7053 12.665 13.8128C12.6986 13.9068 13.491 14.6119 14.458 15.4245C16.3384 16.9959 16.419 17.0429 16.7547 16.7004C16.9562 16.5057 16.9763 16.2035 16.8085 16.0087C16.7413 15.9282 16.0966 15.3775 15.3781 14.7798C14.6595 14.1821 14.0685 13.6717 14.0685 13.6449C14.0685 13.618 14.6595 13.1076 15.3781 12.51C16.0966 11.9123 16.7413 11.3616 16.8085 11.281C16.9763 11.0863 16.9562 10.7841 16.7547 10.5893C16.419 10.2468 16.3384 10.2938 14.458 11.8653Z" fill="#DC66AD"/>
<path d="M20.0924 10.5356C19.9379 10.6699 17.7285 16.1296 17.7285 16.3848C17.7285 16.7676 18.2926 17.0026 18.5881 16.7474C18.7426 16.6198 20.952 11.1601 20.952 10.9049C20.952 10.5222 20.3879 10.2871 20.0924 10.5356Z" fill="#DC66AD"/>
<path d="M21.9271 10.5893C21.7458 10.7639 21.7055 11.0661 21.8465 11.2407C21.8868 11.3012 22.5315 11.8519 23.2702 12.4697C24.0089 13.0808 24.6133 13.6113 24.6133 13.6449C24.6133 13.6785 24.0089 14.209 23.2702 14.8201C22.5315 15.4379 21.8868 15.9886 21.8465 16.0491C21.7055 16.2237 21.7458 16.5259 21.9271 16.7005C22.2629 17.0429 22.3368 16.9959 24.244 15.4111C25.352 14.4911 26.0101 13.9001 26.0303 13.7994C26.0571 13.7188 26.0571 13.571 26.0303 13.4904C26.0101 13.3897 25.352 12.7987 24.244 11.8787C22.3368 10.2939 22.2629 10.2468 21.9271 10.5893Z" fill="#DC66AD"/>
</svg>
