<svg width="20" height="20" viewBox="0 0 20 20" fill="none" xmlns="http://www.w3.org/2000/svg">
<path d="M3.12812 0.174909C2.9875 0.315534 2.96875 0.367096 2.96875 0.568659C2.96875 0.999909 3.20781 1.15928 3.8125 1.13585C4.15937 1.1171 4.19687 1.10303 4.33281 0.971784C4.6 0.704596 4.55312 0.249909 4.23437 0.0858461C4.14531 0.0389711 3.9625 0.0155336 3.69062 0.0155336C3.29219 0.0155336 3.28281 0.0202211 3.12812 0.174909Z" fill="#53DA14"/>
<path d="M6.12813 0.1749C5.99688 0.30615 5.96875 0.371775 5.96875 0.526463C5.96875 0.7749 6.07188 0.98115 6.25 1.07021C6.44219 1.16865 7.06094 1.16396 7.23438 1.06553C7.49688 0.90615 7.59063 0.573338 7.44531 0.296775C7.33281 0.0811503 7.15469 0.0155252 6.69063 0.0155252C6.29219 0.0155252 6.28281 0.0202128 6.12813 0.1749Z" fill="#53DA14"/>
<path d="M9.24138 0.0905247C8.90857 0.26865 8.88513 0.878027 9.20388 1.04678C9.29763 1.09834 9.29763 1.1499 9.29763 5.19521V9.29678H5.20545H1.11326L1.01013 9.16084C0.794508 8.87021 0.377321 8.8749 0.133571 9.16553C0.0116959 9.31084 0.0116959 9.31553 0.0257584 10.0093L0.0398209 10.7124L0.222633 10.8765C0.391383 11.0312 0.419508 11.0405 0.639821 11.0171C0.832008 11.003 0.902321 10.9702 1.01013 10.8483C1.08045 10.7687 1.14138 10.6515 1.14138 10.5858V10.4687H5.21951H9.29763V14.5327C9.29763 17.8655 9.3117 18.6249 9.36326 18.7233C9.4242 18.8405 9.41951 18.8499 9.26482 18.9296C8.98826 19.0796 8.88982 19.4124 9.03982 19.703C9.19451 19.9983 8.91795 19.9843 14.1867 19.9843C19.5867 19.9843 19.2539 20.0077 19.6289 19.628C20.0086 19.253 19.9851 19.6093 19.9851 13.9937V9.00615L19.8258 8.84678C19.7367 8.75771 19.6148 8.6874 19.5586 8.68271C19.3711 8.67334 19.2164 8.69678 19.1273 8.74365C19.0148 8.80459 18.8601 9.0624 18.8601 9.18896V9.29678H14.6648H10.4695V5.17178C10.4695 2.41553 10.4836 1.04678 10.5164 1.04678C10.6101 1.04678 10.7508 0.742088 10.7508 0.535837C10.7508 0.367088 10.7226 0.30615 10.5914 0.1749L10.432 0.0155258H9.90232C9.52263 0.0202122 9.33045 0.0389633 9.24138 0.0905247ZM18.8367 14.6405V18.8358L14.5898 18.8499L10.3383 18.8593L10.4039 18.6858C10.4554 18.5405 10.4648 17.7249 10.4695 14.4905V10.4687L13.8117 10.4546C15.6445 10.4499 17.5289 10.4452 17.9929 10.4452H18.8367V14.6405Z" fill="#53DA14"/>
<path d="M12.4565 0.104596C12.1612 0.287408 12.1284 0.709283 12.3909 0.976471C12.5221 1.10772 12.5596 1.1171 12.9253 1.13116C13.5628 1.15928 13.7784 0.981158 13.7549 0.442096C13.7503 0.385846 13.6799 0.263971 13.5909 0.174908C13.4315 0.0155333 13.4268 0.0155333 13.019 0.0155333C12.6956 0.0155333 12.569 0.0342833 12.4565 0.104596Z" fill="#53DA14"/>
<path d="M15.475 0.0999084C15.3297 0.188971 15.2031 0.413971 15.2031 0.592096C15.2031 0.737408 15.3813 1.0046 15.5312 1.0796C15.5969 1.11241 15.8078 1.14053 16 1.14053C16.4219 1.14053 16.6234 1.0421 16.7359 0.779596C16.8297 0.554596 16.7594 0.306158 16.5578 0.137408C16.4266 0.0249084 16.3797 0.0155334 16.0094 0.0155334C15.7094 0.0155334 15.5688 0.0389709 15.475 0.0999084Z" fill="#53DA14"/>
<path d="M18.4183 0.156147C18.3292 0.235835 18.2401 0.362398 18.2261 0.437398C18.1886 0.615523 18.2683 0.86396 18.4042 0.985835C18.5167 1.08427 18.8776 1.22959 19.1308 1.26709C19.4589 1.31865 19.7495 1.05146 19.7495 0.69521C19.7495 0.549898 19.712 0.484273 19.5479 0.32021C19.337 0.104585 19.1073 0.0155225 18.7792 0.0155225C18.6245 0.0155225 18.5448 0.0483351 18.4183 0.156147Z" fill="#53DA14"/>
<path d="M0.690223 0.128018C0.493348 0.217081 0.207411 0.507706 0.123036 0.709268C-0.055089 1.13583 0.324598 1.59052 0.769911 1.49208C0.948036 1.44989 1.4496 0.967081 1.49647 0.793643C1.61366 0.324893 1.13085 -0.0735441 0.690223 0.128018Z" fill="#53DA14"/>
<path d="M19.2109 2.70615C18.925 2.83271 18.8828 2.93115 18.8828 3.4374C18.8828 3.86396 18.8922 3.90615 18.9953 4.01865C19.2531 4.29521 19.6234 4.28115 19.8672 3.99052C19.975 3.86396 19.9844 3.8124 19.9844 3.43271C19.9844 3.0249 19.9797 3.01084 19.8344 2.85146C19.6563 2.65927 19.4266 2.60302 19.2109 2.70615Z" fill="#53DA14"/>
<path d="M0.315625 2.99209C0.0859375 3.10927 0.015625 3.27802 0.015625 3.73271C0.015625 4.09365 0.0296875 4.1499 0.132813 4.27646C0.390625 4.57646 0.817188 4.55771 1.0375 4.23427C1.13594 4.08896 1.14531 4.02802 1.13125 3.6624C1.11719 3.27334 1.10781 3.24521 0.971875 3.10459C0.79375 2.93115 0.53125 2.88427 0.315625 2.99209Z" fill="#53DA14"/>
<path d="M19.2016 5.71083C18.9578 5.81396 18.8594 6.02489 18.8594 6.43739C18.8594 6.84052 18.9156 6.97646 19.1359 7.12646C19.3234 7.25302 19.4688 7.26239 19.675 7.16396C19.9141 7.05146 19.9844 6.88271 19.9844 6.42333C19.9844 5.97333 19.9094 5.82333 19.6281 5.70615C19.4359 5.62646 19.3938 5.62646 19.2016 5.71083Z" fill="#53DA14"/>
<path d="M0.3625 5.96866C0.310938 5.98741 0.207813 6.07178 0.142188 6.15616C0.025 6.29209 0.015625 6.33897 0.015625 6.72803C0.015625 7.14522 0.015625 7.14991 0.170313 7.30459C0.367188 7.50147 0.53125 7.54834 0.75625 7.45928C1.03281 7.35616 1.14062 7.14991 1.14062 6.72334C1.14062 6.31553 1.08438 6.17959 0.864063 6.02959C0.7 5.91709 0.535938 5.89834 0.3625 5.96866Z" fill="#53DA14"/>
<path d="M0.211725 12.6437C0.0429754 12.7983 0.0382879 12.8171 0.0242254 13.178C-0.00389958 13.764 0.1836 14.0312 0.624225 14.0312C1.01798 14.0312 1.25235 13.5952 1.16329 13.0374C1.11641 12.7702 1.06954 12.6858 0.891413 12.578C0.65235 12.4327 0.417975 12.4562 0.211725 12.6437Z" fill="#53DA14"/>
<path d="M0.34375 15.5452C0.123437 15.6577 0.015625 15.8874 0.015625 16.2437C0.015625 16.7968 0.189062 17.0312 0.60625 17.0312C0.910937 17.0312 1.1125 16.8296 1.16406 16.478C1.19687 16.2249 1.16406 15.8968 1.08437 15.7515C0.967187 15.5312 0.582812 15.4233 0.34375 15.5452Z" fill="#53DA14"/>
<path d="M0.357813 18.578C0.165625 18.6905 0.109375 18.803 0.109375 19.0608C0.109375 19.5296 0.709375 20.0265 1.1125 19.8905C1.375 19.8062 1.49219 19.6421 1.49219 19.3468C1.49219 19.0983 1.4875 19.089 1.17813 18.789C0.90625 18.5218 0.845313 18.4843 0.685938 18.4843C0.5875 18.4843 0.442188 18.5265 0.357813 18.578Z" fill="#53DA14"/>
<path d="M3.21719 18.9483C3.025 19.0702 2.96875 19.178 2.96875 19.4452C2.96875 19.6327 2.99219 19.689 3.12812 19.8249C3.28281 19.9796 3.29219 19.9843 3.69062 19.9843C3.9625 19.9843 4.14531 19.9608 4.23437 19.914C4.55312 19.7499 4.6 19.2952 4.33281 19.028C4.19219 18.8921 4.16406 18.8827 3.775 18.8687C3.43281 18.8593 3.34375 18.8687 3.21719 18.9483Z" fill="#53DA14"/>
<path d="M6.24063 18.9343C6.07188 19.0233 5.96875 19.2296 5.96875 19.4733C5.96875 19.628 5.99688 19.6937 6.12813 19.8249C6.28281 19.9796 6.29219 19.9843 6.69063 19.9843C7.15469 19.9843 7.33281 19.9187 7.44531 19.703C7.59063 19.4265 7.49688 19.0937 7.23438 18.9343C7.06094 18.8358 6.42344 18.8312 6.24063 18.9343Z" fill="#53DA14"/>
</svg>
