<svg width="62" height="57" viewBox="0 0 62 57" fill="none" xmlns="http://www.w3.org/2000/svg">
<path d="M5.14608 9.79946C-1.8374 16.2844 -0.221348 23.0111 1.43015 27.1399C7.62336 35.8101 13.8164 31.475 20.6288 35.8102C27.4412 40.1454 21.8675 51.2933 30.5379 55.0092C39.2082 58.725 50.9752 53.7705 57.7876 45.1002C64.6 36.4298 63.9805 18.4697 49.7365 7.94137C31.8837 -5.25441 13.8164 1.7481 5.14608 9.79946Z" fill="#EDFFDF"/>
<path d="M20.85 12.1617C20.7023 12.3164 20.6953 12.3867 20.6953 13.7648V15.1992L20.0484 15.368C18.9094 15.6562 17.1375 16.4086 16.1602 17.0203L15.8789 17.1961L14.8523 16.1766C13.9383 15.2766 13.8047 15.1641 13.5938 15.1641C13.3687 15.1641 13.1789 15.3398 11.2594 17.2594C9.31875 19.2 9.16406 19.3688 9.16406 19.5938C9.16406 19.8188 9.2625 19.9383 10.1766 20.8523L11.1961 21.8719L11.0203 22.1531C10.3945 23.1586 9.53672 25.2188 9.29766 26.2875L9.21328 26.6953H7.75781C6.33047 26.6953 6.30234 26.6953 6.15469 26.857C6 27.0188 6 27.0398 6 30.007V33.0023L6.16172 33.15C6.31641 33.2977 6.38672 33.3047 7.76484 33.3047H9.19922L9.36797 33.9516C9.65625 35.0906 10.3945 36.8273 11.0203 37.8469L11.1961 38.1281L10.1766 39.1477C9.2625 40.0617 9.16406 40.1813 9.16406 40.4062C9.16406 40.6313 9.31875 40.8 11.2594 42.7406C13.1789 44.6602 13.3687 44.8359 13.5938 44.8359C13.8047 44.8359 13.9383 44.7234 14.8523 43.8234L15.8789 42.8039L16.1602 42.9797C17.1375 43.5914 18.9094 44.3438 20.0695 44.6391L20.6953 44.8008V46.2492C20.6953 47.6695 20.6953 47.6977 20.857 47.8453C21.0187 48 21.0398 48 24.007 48H27.0023L27.15 47.8383C27.2977 47.6836 27.3047 47.6133 27.3047 46.2352V44.8008L27.9305 44.6391C29.0906 44.3438 30.8625 43.5914 31.8398 42.9797L32.1211 42.8039L33.1477 43.8234C34.0617 44.7234 34.1953 44.8359 34.4062 44.8359C34.6312 44.8359 34.8211 44.6602 36.7406 42.7406C38.6602 40.8211 38.8359 40.6313 38.8359 40.4062C38.8359 40.1953 38.7234 40.0617 37.8234 39.1477L36.8039 38.1211L36.9797 37.8398C37.5914 36.8625 38.3438 35.0906 38.6391 33.9305L38.8008 33.3047H40.2492C41.6695 33.3047 41.6977 33.3047 41.8453 33.143C42 32.9813 42 32.9602 42 29.993V26.9977L41.8383 26.85C41.6836 26.7023 41.6133 26.6953 40.2352 26.6953H38.8008L38.632 26.0414C38.3438 24.9094 37.5914 23.1375 36.9797 22.1602L36.8039 21.8789L37.8234 20.8523C38.7234 19.9383 38.8359 19.8047 38.8359 19.5938C38.8359 19.3688 38.6602 19.1789 36.7406 17.2594C34.8 15.3188 34.6312 15.1641 34.4062 15.1641C34.1812 15.1641 34.0617 15.2625 33.1477 16.1766L32.1281 17.1961L31.8469 17.0203C30.8414 16.3945 28.7812 15.5367 27.7125 15.2977L27.3047 15.2133V13.7578C27.3047 12.3305 27.3047 12.3023 27.143 12.1547C26.9812 12 26.9602 12 23.993 12H20.9977L20.85 12.1617ZM26.3203 14.3695C26.3273 15.4453 26.3484 15.7898 26.4187 15.8883C26.482 15.9727 26.8055 16.0922 27.3188 16.2188C28.8375 16.6055 30.4547 17.2805 31.5586 18.0047C31.8328 18.1805 32.1281 18.3281 32.2195 18.3281C32.3461 18.3281 32.6555 18.068 33.4008 17.3297L34.4062 16.3242L36.0375 17.9625L37.6758 19.5938L36.6703 20.5992C35.932 21.3445 35.6719 21.6539 35.6719 21.7805C35.6719 21.8719 35.8195 22.1672 35.9953 22.4414C36.382 23.032 37.0641 24.4242 37.3242 25.1484C37.4297 25.4367 37.6195 26.0836 37.7461 26.5758C37.9008 27.1594 38.0273 27.518 38.1117 27.5813C38.2102 27.6516 38.5617 27.6727 39.6305 27.6797H41.0156V30V32.3203H39.6305C38.5617 32.3273 38.2102 32.3484 38.1117 32.4188C38.0273 32.482 37.9008 32.8406 37.7461 33.4242C37.6195 33.9164 37.4297 34.5633 37.3242 34.8516C37.0641 35.5758 36.382 36.968 35.9953 37.5586C35.8195 37.8258 35.6719 38.1281 35.6719 38.2195C35.6719 38.3461 35.932 38.6555 36.6703 39.4008L37.6758 40.4062L36.0375 42.0375L34.4062 43.6758L33.4008 42.6703C32.6555 41.932 32.3461 41.6719 32.2195 41.6719C32.1281 41.6719 31.8328 41.8195 31.5586 41.9953C30.968 42.382 29.5758 43.0641 28.8516 43.3242C28.5633 43.4297 27.9164 43.6195 27.4242 43.7461C26.8406 43.9008 26.482 44.0273 26.4187 44.1117C26.3484 44.2102 26.3273 44.5617 26.3203 45.6234V47.0156H24H21.6797V45.6234C21.6727 44.5617 21.6516 44.2102 21.5812 44.1117C21.518 44.0273 21.1594 43.9008 20.5758 43.7461C20.0836 43.6195 19.3945 43.4086 19.043 43.282C18.3187 43.0219 16.9055 42.3117 16.3359 41.932C16.125 41.7914 15.8719 41.6719 15.7805 41.6719C15.6539 41.6719 15.3445 41.932 14.5992 42.6703L13.5938 43.6758L11.9625 42.0375L10.3242 40.4062L11.3297 39.4008C12.068 38.6555 12.3281 38.3461 12.3281 38.2195C12.3281 38.1281 12.1805 37.8258 12.0047 37.5586C11.2805 36.4547 10.6055 34.8375 10.2188 33.3188C10.0922 32.8055 9.97266 32.482 9.88828 32.4188C9.78984 32.3484 9.44531 32.3273 8.37656 32.3203H6.98438V30V27.6797H8.37656C9.44531 27.6727 9.78984 27.6516 9.88828 27.5813C9.97266 27.518 10.0922 27.1945 10.2188 26.6812C10.6055 25.1625 11.2805 23.5453 12.0047 22.4414C12.1805 22.1672 12.3281 21.8719 12.3281 21.7805C12.3281 21.6539 12.068 21.3445 11.3297 20.5992L10.3242 19.5938L11.9625 17.9625L13.5938 16.3242L14.5992 17.3297C15.3445 18.068 15.6539 18.3281 15.7805 18.3281C15.8719 18.3281 16.1742 18.1805 16.4414 18.0047C17.5805 17.2664 19.1625 16.6055 20.6812 16.2188C21.1945 16.0922 21.518 15.9727 21.5812 15.8883C21.6516 15.7898 21.6727 15.4453 21.6797 14.3695V12.9844H24H26.3203V14.3695Z" fill="#95E158"/>
<path d="M22.91 18.968C19.4155 19.3125 16.3007 21.2953 14.4725 24.3399C13.0804 26.6602 12.5882 29.5992 13.1436 32.25C14.4725 38.557 20.8921 42.4313 27.0585 40.6524C28.9358 40.111 30.56 39.1266 31.9522 37.6852C35.6436 33.8531 36.1218 28.1508 33.1194 23.707C32.5499 22.8703 31.1225 21.443 30.2788 20.8735C28.078 19.3828 25.4835 18.7078 22.91 18.968ZM25.7155 20.0508C27.1569 20.3039 28.6686 20.9367 29.871 21.7805C30.6374 22.3289 31.6288 23.3133 32.1772 24.0727C35.0811 28.1297 34.6452 33.6211 31.1296 37.1297C30.3843 37.875 29.6179 38.4445 28.7038 38.9227C28.0429 39.2742 27.1639 39.6328 26.9811 39.6328C26.8968 39.6328 26.8827 38.543 26.8827 32.6508L26.8757 25.6758L25.61 23.8969C24.7944 22.7508 24.2811 22.0969 24.1757 22.0547C24.0632 22.0125 23.9366 22.0125 23.8311 22.0547C23.7186 22.0969 23.2054 22.7508 22.3897 23.8969L21.1171 25.6758V32.6508C21.1171 38.7539 21.103 39.6328 21.0116 39.6328C20.9554 39.6328 20.6671 39.5344 20.3647 39.4149C17.0811 38.1211 14.81 35.4 14.0788 31.8985C13.9663 31.3289 13.9241 30.907 13.9241 30.0703C13.9171 28.3617 14.2054 27.075 14.9225 25.6055C16.2655 22.8563 18.6983 20.8945 21.6233 20.1914C22.9663 19.868 24.3866 19.8188 25.7155 20.0508ZM24.9772 24.7125L25.8983 25.9992V26.4141V26.836H23.9999H22.1014V26.4141V25.9992L23.0296 24.6914C23.5429 23.9742 23.9858 23.3977 24.0139 23.4047C24.0421 23.4188 24.478 24.0024 24.9772 24.7125ZM23.5077 33.9445V40.0758L22.9171 40.0266C22.5936 40.0055 22.2772 39.9633 22.2139 39.9422C22.1155 39.9 22.1014 39.3024 22.1014 33.8602V27.8203H22.8046H23.5077V33.9445ZM25.8983 33.8602C25.8983 39.3024 25.8843 39.9 25.7858 39.9422C25.7225 39.9633 25.4061 40.0055 25.0827 40.0266L24.4921 40.0758V33.9445V27.8203H25.1952H25.8983V33.8602Z" fill="#95E158"/>
</svg>
