<svg width="65" height="59" viewBox="0 0 65 59" fill="none" xmlns="http://www.w3.org/2000/svg">
<rect x="6" width="59" height="59" rx="29.5" fill="#FFEDE8"/>
<path d="M17.143 13.0447C16.1259 13.1568 15.4051 13.2769 14.7404 13.4451C12.2979 14.0538 10.1115 15.2951 8.29362 17.121C5.83502 19.5796 4.42553 22.6949 4.2013 26.1946C4.14524 26.9954 4.13723 27.0195 3.93702 27.0595C2.35134 27.4039 1.31825 28.1326 0.765664 29.2939C0.285156 30.319 0.285156 30.3029 0.285156 35.3002C0.285156 39.4086 0.301173 39.9131 0.429309 40.3776C0.877783 42.0033 1.99897 43.0845 3.6327 43.4609C4.03312 43.557 4.60973 43.589 5.84303 43.589H7.50879L7.70901 43.3888C7.82112 43.2767 7.93324 43.0764 7.96528 42.9403C8.02934 42.612 8.02934 27.9885 7.96528 27.6601C7.93324 27.524 7.82112 27.3238 7.71701 27.2117C7.53282 27.0275 7.45273 27.0115 6.61985 26.9954L5.73091 26.9714L5.75494 26.3307C5.85104 24.0323 6.68392 21.6458 8.06939 19.6997C9.00638 18.3863 10.6962 16.8808 12.1537 16.0639C13.8515 15.1189 16.19 14.5183 18.1841 14.5183C20.1782 14.5183 22.5167 15.1189 24.2145 16.0639C25.672 16.8808 27.3618 18.3863 28.2988 19.6997C29.6842 21.6458 30.5171 24.0323 30.6132 26.3307L30.6372 26.9714L29.7483 26.9954C28.9074 27.0115 28.8353 27.0275 28.6511 27.2197C28.523 27.3478 28.4269 27.556 28.3949 27.7563C28.3709 27.9404 28.3548 31.4722 28.3709 35.6045L28.3949 43.1245L28.6592 43.3567C28.9154 43.581 28.9395 43.589 29.7964 43.589H30.6693L30.6292 44.0054C30.405 46.3199 29.8604 47.7294 28.8033 48.6984C27.7622 49.6434 25.9923 50.212 23.6218 50.3642L22.7729 50.4202L22.7249 49.9237C22.6608 49.3311 22.5327 49.0588 22.1563 48.7304C21.7158 48.346 21.3074 48.298 18.4404 48.33C16.1419 48.354 15.8776 48.37 15.6214 48.5062C15.229 48.7144 15.0688 48.8746 14.8926 49.2109C14.7565 49.4752 14.7404 49.6995 14.7404 51.149C14.7404 52.8868 14.7725 53.095 15.1248 53.4714C15.6054 53.984 15.6934 54 18.7447 54C21.4595 54 21.5236 54 21.868 53.8158C22.3725 53.5675 22.6688 53.1111 22.7249 52.4944L22.7729 52.0059L23.1814 51.9658C23.4056 51.9418 24.0062 51.8858 24.5108 51.8377C27.9624 51.5094 30.0767 50.3161 31.1978 48.0737C31.7024 47.0647 31.9747 46.0316 32.1428 44.4779L32.2389 43.557L32.8075 43.4208C34.4253 43.0204 35.4984 41.9793 35.9469 40.3696C36.067 39.9131 36.083 39.3926 36.083 35.2602C36.083 31.0397 36.067 30.6153 35.9389 30.1348C35.4583 28.453 34.3532 27.476 32.4311 27.0595C32.2309 27.0195 32.2229 26.9954 32.1669 26.1946C31.7424 19.6036 26.9213 14.262 20.4265 13.1888C19.7457 13.0767 17.6635 12.9806 17.143 13.0447ZM6.41163 35.2602V42.0674H5.63481C3.24829 42.0594 2.16715 41.3787 1.85482 39.7049C1.73469 39.0642 1.73469 31.4562 1.85482 30.8155C2.031 29.8545 2.53554 29.1657 3.33638 28.7974C3.84892 28.5651 4.43354 28.477 5.55473 28.461L6.41163 28.453V35.2602ZM32.7595 28.7253C33.5764 29.0296 34.177 29.6462 34.4172 30.4391C34.5454 30.8555 34.5614 31.288 34.5454 35.2602C34.5294 39.4246 34.5214 39.6488 34.3612 40.1694C34.217 40.6259 34.1129 40.802 33.7365 41.1865C33.0718 41.8592 32.6474 42.0033 31.1418 42.0514L29.9565 42.0834V35.3002V28.5171L31.1818 28.5571C32.0387 28.5811 32.5032 28.6292 32.7595 28.7253ZM21.1472 51.197V52.4784H18.7046H16.262V51.197V49.9157H18.7046H21.1472V51.197Z" fill="#FF4E43"/>
</svg>
