<svg width="62" height="57" viewBox="0 0 62 57" fill="none" xmlns="http://www.w3.org/2000/svg">
<path d="M5.14608 9.79946C-1.8374 16.2844 -0.221348 23.0111 1.43015 27.1399C7.62336 35.8101 13.8164 31.475 20.6288 35.8102C27.4412 40.1454 21.8675 51.2933 30.5379 55.0092C39.2082 58.725 50.9752 53.7705 57.7876 45.1002C64.6 36.4298 63.9805 18.4697 49.7365 7.94137C31.8837 -5.25441 13.8164 1.7481 5.14608 9.79946Z" fill="#FF33C6" fill-opacity="0.08"/>
<path d="M10.1516 12.0773C9.71562 12.1828 9.07578 12.5555 8.76641 12.893C8.61172 13.0617 8.37969 13.4133 8.26016 13.6734L8.03516 14.1445V22.6945V31.2375L8.29531 31.7719C8.61172 32.4117 9.01953 32.8055 9.67344 33.1148L10.1445 33.3398H16.4375H22.7305L23.2016 33.1148C23.8555 32.8055 24.2633 32.4117 24.5797 31.7719L24.8398 31.2375V22.6875V14.1375L24.5797 13.6031C24.2633 12.9633 23.8555 12.5695 23.2016 12.2602L22.7305 12.0352L16.5781 12.0211C13.0062 12.0141 10.3133 12.0422 10.1516 12.0773ZM22.5828 13.2094C22.9695 13.3219 23.5531 13.9055 23.6656 14.2922C23.7852 14.7141 23.7852 30.6609 23.6656 31.0828C23.5531 31.4695 22.9695 32.0531 22.5828 32.1656C22.168 32.2852 10.707 32.2852 10.2922 32.1656C9.90547 32.0531 9.32187 31.4695 9.20938 31.0828C9.08984 30.6609 9.08984 14.7141 9.20938 14.2922C9.31484 13.9336 9.90547 13.3289 10.25 13.2164C10.6156 13.1039 22.1891 13.0969 22.5828 13.2094Z" fill="#FF75D8" fill-opacity="0.98"/>
<path d="M29.2766 12.0773C28.8406 12.1828 28.2008 12.5555 27.8914 12.893C27.7367 13.0617 27.5047 13.4133 27.3852 13.6734L27.1602 14.1445V18.1875V22.2305L27.3852 22.7016C27.6945 23.3555 28.0883 23.7633 28.7281 24.0797L29.2625 24.3398H35.5555H41.8555L42.3266 24.1148C42.9805 23.8055 43.3883 23.4117 43.7047 22.7719L43.9648 22.2375V18.1875V14.1375L43.7047 13.6031C43.3883 12.9633 42.9805 12.5695 42.3266 12.2602L41.8555 12.0352L35.7031 12.0211C32.1312 12.0141 29.4383 12.0422 29.2766 12.0773ZM41.7078 13.2094C42.0945 13.3219 42.6781 13.9055 42.7906 14.2922C42.9102 14.707 42.9102 21.668 42.7906 22.0828C42.6781 22.4695 42.0945 23.0531 41.7078 23.1656C41.293 23.2852 29.832 23.2852 29.4172 23.1656C29.0305 23.0531 28.4469 22.4695 28.3344 22.0828C28.2711 21.8719 28.25 20.8102 28.25 18.1875C28.25 15.5648 28.2711 14.5031 28.3344 14.2922C28.4398 13.9336 29.0305 13.3289 29.375 13.2164C29.7406 13.1039 41.3141 13.0969 41.7078 13.2094Z" fill="#FF75D8" fill-opacity="0.98"/>
<path d="M29.2766 26.7023C28.8406 26.8078 28.2008 27.1805 27.8914 27.518C27.7367 27.6867 27.5047 28.0383 27.3852 28.2984L27.1602 28.7695V37.3195V45.8625L27.4203 46.3969C27.7367 47.0367 28.1445 47.4305 28.7984 47.7398L29.2695 47.9648H35.5625H41.8555L42.3266 47.7398C42.9805 47.4305 43.3883 47.0367 43.7047 46.3969L43.9648 45.8625V37.3125V28.7625L43.7047 28.2281C43.3883 27.5883 42.9805 27.1945 42.3266 26.8852L41.8555 26.6602L35.7031 26.6461C32.1312 26.6391 29.4383 26.6672 29.2766 26.7023ZM41.7078 27.8344C42.0945 27.9469 42.6781 28.5305 42.7906 28.9172C42.9102 29.3391 42.9102 45.2859 42.7906 45.7078C42.6781 46.0945 42.0945 46.6781 41.7078 46.7906C41.293 46.9102 29.832 46.9102 29.4172 46.7906C29.0305 46.6781 28.4469 46.0945 28.3344 45.7078C28.2148 45.2859 28.2148 29.3391 28.3344 28.9172C28.4398 28.5586 29.0305 27.9539 29.375 27.8414C29.7406 27.7289 41.3141 27.7219 41.7078 27.8344Z" fill="#FF75D8" fill-opacity="0.98"/>
<path d="M10.1516 35.7023C9.71562 35.8078 9.07578 36.1805 8.76641 36.518C8.61172 36.6867 8.37969 37.0383 8.26016 37.2984L8.03516 37.7695V41.8125V45.8555L8.26016 46.3266C8.56953 46.9805 8.96328 47.3883 9.60312 47.7047L10.1375 47.9648H16.4305H22.7305L23.2016 47.7398C23.8555 47.4305 24.2633 47.0367 24.5797 46.3969L24.8398 45.8625V41.8125V37.7625L24.5797 37.2281C24.2633 36.5883 23.8555 36.1945 23.2016 35.8852L22.7305 35.6602L16.5781 35.6461C13.0062 35.6391 10.3133 35.6672 10.1516 35.7023ZM22.5828 36.8344C22.9695 36.9469 23.5531 37.5305 23.6656 37.9172C23.7852 38.332 23.7852 45.293 23.6656 45.7078C23.5531 46.0945 22.9695 46.6781 22.5828 46.7906C22.168 46.9102 10.707 46.9102 10.2922 46.7906C9.90547 46.6781 9.32187 46.0945 9.20938 45.7078C9.08984 45.293 9.08984 38.332 9.20938 37.9172C9.31484 37.5586 9.90547 36.9539 10.25 36.8414C10.6156 36.7289 22.1891 36.7219 22.5828 36.8344Z" fill="#FF75D8" fill-opacity="0.98"/>
</svg>
