<svg width="36" height="35" viewBox="0 0 36 35" fill="none" xmlns="http://www.w3.org/2000/svg">
<path d="M21.7969 0.0645256C17.8664 0.345776 14.8219 1.19656 13.5703 2.35671C12.8953 2.97546 12.9094 2.93328 12.8672 5.36609L12.832 7.47546L10.7578 7.51765C8.64844 7.56687 7.90312 7.62312 6.32109 7.86218C2.98125 8.36843 0.73125 9.35984 0.16875 10.5692L0 10.9208L0.00703125 20.9403C0.00703125 31.7052 -0.0140625 31.1848 0.358594 31.7403C0.569531 32.0567 1.2375 32.563 1.82812 32.8583C3.83203 33.8637 7.37578 34.4403 11.5805 34.4403C17.7328 34.4403 22.1484 33.2591 22.9992 31.3887C23.1187 31.1286 23.1328 30.9036 23.1328 29.0544V27.0083L25.0523 26.9661C27.682 26.9028 29.5805 26.6919 31.5 26.2419C33.2789 25.827 34.6781 25.2083 35.3672 24.5333C36.0211 23.8864 36 24.0622 36 19.6044C36 15.8145 36 15.7512 35.8523 15.5684C35.7469 15.4348 35.6414 15.3856 35.4727 15.3856C35.0859 15.3856 34.9453 15.6317 34.9453 16.3348C34.9453 16.8903 34.9383 16.9184 34.6922 17.1997C34.3828 17.5583 33.3281 18.1067 32.3578 18.4091C30.3047 19.0419 27.5414 19.3934 24.6305 19.3934H23.1328L23.1469 16.6723L23.168 13.9512L23.8008 13.9653C24.6656 13.9934 27.3234 13.8598 28.4414 13.7262C31.3242 13.3958 33.6797 12.7559 34.7555 11.9966L34.9453 11.863V12.7137C34.9453 13.1848 34.9734 13.6208 35.0156 13.6911C35.0508 13.7614 35.1703 13.8598 35.2898 13.902C35.4586 13.9723 35.5289 13.9723 35.7047 13.8809C35.8172 13.8247 35.9297 13.7192 35.9578 13.663C35.9789 13.5997 36 11.2934 36 8.53718C36 2.76452 36.0352 3.10203 35.3742 2.44812C34.5164 1.60437 33.0891 1.02077 30.7195 0.549683C28.8773 0.184055 25.6078 -0.111256 25.3758 0.0715561C25.0664 0.32468 25.0805 0.795776 25.4039 0.957493C25.4883 0.99968 26.0789 1.06999 26.7188 1.11218C30.9094 1.37937 34.425 2.40593 34.875 3.50281C35.325 4.58562 32.1187 5.80202 27.5977 6.25906C26.4094 6.37859 22.4859 6.37859 21.2695 6.25203C17.7047 5.90046 15.0047 5.11296 14.1609 4.18484C13.8516 3.84734 13.8445 3.59421 14.1328 3.26374C15.0609 2.20906 18.1898 1.36531 22.1484 1.11218C23.4773 1.02077 23.6461 0.957493 23.6812 0.535618C23.6953 0.331711 23.6672 0.254368 23.5125 0.134838C23.3016 -0.0268822 23.182 -0.0339127 21.7969 0.0645256ZM16.1508 6.37156C17.5992 6.82859 18.9914 7.08874 21.1992 7.31374C22.5703 7.44734 26.5922 7.42624 28.0195 7.27859C29.7914 7.08874 31.3102 6.80749 32.5195 6.44187C33.1805 6.24499 34.2211 5.80906 34.5797 5.58406C34.7414 5.48562 34.8891 5.40124 34.9102 5.40124C34.9312 5.40124 34.9453 6.52624 34.9453 7.89734V10.3934L34.6641 10.7028C33.8133 11.6239 31.1625 12.4044 27.7383 12.7419C26.4305 12.8684 23.8992 12.9598 23.4562 12.8966L23.1328 12.8473V11.8419C23.1328 10.9067 23.1187 10.8223 22.95 10.4778C22.4859 9.53562 21.0234 8.76921 18.6539 8.22078C17.3813 7.92546 15.4547 7.63718 14.2383 7.55984L13.957 7.54577L13.9359 6.48406L13.9148 5.42234L14.5898 5.75281C14.9555 5.94265 15.6586 6.21687 16.1508 6.37156ZM14.3086 8.64265C18.5484 8.94499 22.0781 10.1192 22.0781 11.2302C22.0781 11.8419 20.8195 12.545 18.8086 13.0653C14.2102 14.2536 7.51641 14.1411 3.41016 12.8052C1.98984 12.3411 1.05469 11.6942 1.05469 11.1739C1.05469 11.0966 1.16719 10.8997 1.30781 10.745C2.52422 9.40203 7.29844 8.43874 12.2695 8.54421C12.8109 8.55828 13.732 8.60046 14.3086 8.64265ZM2.00391 13.3887C5.21016 14.8723 11.8055 15.3575 17.1562 14.4997C19.1039 14.1903 20.3625 13.7895 22.0289 12.9387C22.057 12.9247 22.0781 14.0427 22.0781 15.4137V17.9169L21.7969 18.2262C20.6367 19.4848 16.4109 20.3778 11.5945 20.3778C6.77812 20.3778 2.66484 19.52 1.39219 18.2544L1.05469 17.9239V15.3856V12.8473L1.26562 12.995C1.37812 13.0794 1.71562 13.2551 2.00391 13.3887ZM34.8117 23.57C34.3477 24.3153 32.4141 25.0606 29.7773 25.5036C28.1953 25.7708 26.8875 25.8762 24.9961 25.8833L23.168 25.8973L23.1469 23.1692L23.1328 20.4481H24.6937C28.6031 20.4481 32.175 19.8223 34.2703 18.7677L34.9102 18.4442L34.9312 20.8981C34.9453 23.2325 34.9383 23.3591 34.8117 23.57ZM3.20625 20.3637C4.51406 20.7786 5.83594 21.0458 7.73438 21.2708C9.21797 21.4466 13.95 21.4466 15.3984 21.2708C18.3937 20.9052 20.6227 20.3145 21.7898 19.5762L22.0781 19.3934V21.9387V24.477L21.7617 24.7864C20.7984 25.7075 18.1617 26.4528 14.6953 26.7833C13.2961 26.9239 9.52734 26.9028 8.13516 26.7552C5.11875 26.4317 2.91094 25.8481 1.74375 25.0677C1.02656 24.5895 1.05469 24.7302 1.05469 21.8825V19.4145L1.77891 19.7802C2.17969 19.977 2.81953 20.2442 3.20625 20.3637ZM1.48359 26.1505C4.54219 27.9505 12.6141 28.52 18.2812 27.3317C19.3078 27.1137 20.6789 26.6567 21.4172 26.2841L22.0781 25.9466V28.4708V31.002L21.7617 31.3044C20.8195 32.2255 18.2391 32.9497 14.7305 33.2872C13.2047 33.4348 9.97734 33.4348 8.40234 33.2872C4.88672 32.9567 2.20781 32.1762 1.33594 31.2341L1.05469 30.9247V28.4286C1.05469 27.0575 1.06875 25.9325 1.08984 25.9325C1.10391 25.9325 1.28672 26.0309 1.48359 26.1505Z" fill="#DC66AD"/>
</svg>
