<svg width="22" height="19" viewBox="0 0 22 19" fill="none" xmlns="http://www.w3.org/2000/svg">
<path d="M0.611493 0.0568447C0.356006 0.144798 0.242922 0.249506 0.117273 0.496616L0 0.722786V7.31937C0 11.4742 0.0167532 13.9746 0.0418831 14.0667C0.0963311 14.272 0.318312 14.5233 0.51935 14.6154C0.682695 14.6908 0.887922 14.695 4.53594 14.695H8.37662V15.9934V17.2876L6.68454 17.3001C5.1223 17.3127 4.98828 17.3169 4.9087 17.3881C4.73698 17.543 4.79562 17.8823 5.00503 17.9619C5.07623 17.987 7.12432 18.0038 10.7472 18.0038H16.3847L16.5061 17.8823C16.6946 17.6938 16.6611 17.4635 16.4307 17.342C16.3679 17.3043 15.8276 17.2917 14.5376 17.2917H12.7325V15.9934V14.695H16.7281H20.7238L20.9457 14.5777C21.1091 14.4939 21.2054 14.406 21.2976 14.2552L21.4232 14.0542L21.4358 7.49528C21.4441 2.84207 21.4358 0.873564 21.4023 0.722786C21.352 0.484051 21.1426 0.207623 20.9248 0.0861626C20.8033 0.0191498 20.1709 0.0149612 10.7849 0.00658417C2.26169 -0.00179291 0.749708 0.00658417 0.611493 0.0568447ZM20.6819 0.756292C20.7196 0.793987 20.7321 2.02116 20.7321 6.01262V11.2187H10.7221H0.712013V6.01262C0.712013 2.02116 0.724578 0.793987 0.762272 0.756292C0.833474 0.685091 20.6107 0.685091 20.6819 0.756292ZM20.7321 12.9108C20.7321 13.6814 20.7196 13.8992 20.6735 13.9369C20.6316 13.9704 17.9888 13.9788 10.676 13.9746L0.732954 13.962L0.720389 12.9443L0.712013 11.9307H10.7221H20.7321V12.9108ZM12.0205 15.9934V17.2917H10.5336H9.04675V15.9934V14.695H10.5336H12.0205V15.9934Z" fill="url(#paint0_linear_544_372)"/>
<path d="M15.5884 1.27134C15.3078 1.35092 15.2366 1.38861 15.0272 1.57709C14.5497 2.00848 14.4115 2.66605 14.6754 3.24403L14.7759 3.46183L13.645 4.94449C12.7068 6.17166 12.5016 6.41877 12.4262 6.4104C11.9906 6.35176 11.7352 6.35595 11.509 6.43134L11.2703 6.51092L10.7132 5.94549C9.93837 5.15809 9.98026 5.22092 10.0892 5.06595C10.3446 4.70994 10.4284 4.28692 10.3279 3.88066C10.1645 3.25241 9.68289 2.84614 9.04626 2.80845C8.48084 2.77913 8.0285 3.03881 7.7437 3.56235C7.60967 3.80527 7.6013 3.85134 7.6013 4.20316C7.6013 4.52985 7.61805 4.61361 7.71438 4.81046C7.77721 4.93611 7.87354 5.09946 7.93217 5.17066L8.04107 5.29631L7.06101 6.61562C6.13958 7.85118 6.07256 7.93075 5.96367 7.91819C5.89666 7.90981 5.69143 7.90143 5.50714 7.89725C5.22234 7.88887 5.13857 7.90562 4.94172 7.99777C4.64854 8.13598 4.38886 8.39566 4.24227 8.69721C4.14175 8.90244 4.125 8.98621 4.125 9.29195C4.125 9.58514 4.14594 9.68984 4.23808 9.88251C4.37211 10.1715 4.61503 10.4228 4.90821 10.5778C5.09669 10.6741 5.18045 10.6908 5.4862 10.695C5.78776 10.695 5.8799 10.6783 6.08094 10.582C6.36993 10.4479 6.62123 10.1966 6.77201 9.88669C6.87253 9.68147 6.88928 9.5977 6.88928 9.29195C6.88928 8.97364 6.87253 8.90663 6.75107 8.65952L6.61286 8.38309L7.6348 7.00514L8.65675 5.62718L8.86617 5.63975C8.98344 5.64812 9.1426 5.63556 9.22636 5.61462L9.37295 5.57273L9.90906 6.12559C10.2064 6.42715 10.5205 6.74965 10.6085 6.84179L10.7635 7.01351L10.6713 7.23968C10.5373 7.57893 10.5457 8.0229 10.6881 8.33702C10.9352 8.87731 11.4043 9.18306 11.9781 9.18306C12.3634 9.18306 12.6608 9.0616 12.9372 8.78517C13.4021 8.32027 13.4942 7.51192 13.1382 7.01351C13.067 6.90881 13.0629 6.88368 13.1089 6.8041C13.1843 6.68264 15.2868 3.93092 15.3036 3.93092C15.312 3.93092 15.3999 3.96023 15.4963 3.99374C15.7517 4.0817 16.158 4.07332 16.4344 3.9728C16.9077 3.7927 17.2679 3.31105 17.3224 2.77494C17.3433 2.5739 17.3307 2.44825 17.2554 2.20952C17.1758 1.94566 17.1297 1.87027 16.9077 1.64829C16.5308 1.27134 16.0617 1.13731 15.5884 1.27134ZM16.225 1.97916C16.5894 2.12994 16.7444 2.65767 16.5266 3.02624C16.4093 3.22728 16.1496 3.38644 15.936 3.38644C15.7224 3.38644 15.4628 3.22728 15.3455 3.02624C15.2533 2.86709 15.2366 2.80007 15.2533 2.59485C15.291 2.07968 15.7559 1.78231 16.225 1.97916ZM9.23474 3.54978C9.63682 3.73407 9.79178 4.16965 9.59074 4.55916C9.47347 4.78952 9.28919 4.90679 9.00857 4.92773C8.81591 4.9403 8.74889 4.92773 8.63162 4.84397C8.21698 4.56335 8.14997 4.03144 8.48922 3.69637C8.7112 3.47439 8.9625 3.42413 9.23474 3.54978ZM12.2545 7.10984C12.4514 7.20199 12.577 7.35695 12.644 7.59569C12.7236 7.90143 12.598 8.20718 12.309 8.40403C12.1205 8.53387 11.7687 8.5213 11.5676 8.37471C11.1949 8.11085 11.1655 7.54543 11.5048 7.22712C11.7226 7.02608 11.9781 6.98419 12.2545 7.10984ZM5.86315 8.67208C6.11026 8.8438 6.17727 8.97364 6.17727 9.29195C6.17727 9.51812 6.16052 9.60608 6.08932 9.69403C5.76263 10.1338 5.21815 10.1212 4.9124 9.6689C4.77838 9.47624 4.77838 9.10767 4.9124 8.91082C5.13438 8.57994 5.56578 8.47105 5.86315 8.67208Z" fill="url(#paint1_linear_544_372)"/>
<defs>
<linearGradient id="paint0_linear_544_372" x1="10.7194" y1="18.0038" x2="10.7194" y2="0.00375366" gradientUnits="userSpaceOnUse">
<stop stop-color="#DE67A6"/>
<stop offset="1" stop-color="#EC6D7D"/>
</linearGradient>
<linearGradient id="paint1_linear_544_372" x1="10.7282" y1="10.695" x2="10.7282" y2="1.22068" gradientUnits="userSpaceOnUse">
<stop stop-color="#DE67A6"/>
<stop offset="1" stop-color="#EC6D7D"/>
</linearGradient>
</defs>
</svg>
