<svg width="65" height="59" viewBox="0 0 65 59" fill="none" xmlns="http://www.w3.org/2000/svg">
<rect x="6" width="59" height="59" rx="29.5" fill="#EEF9FF"/>
<path d="M4.08218 13.1397C2.12273 13.5569 0.444504 15.2715 0.0997866 17.2037C0.0272145 17.5756 0 22.7192 0 33.5324C0 46.7315 0.0272145 49.4257 0.127001 49.9246C0.453575 51.4305 1.53308 52.8003 2.92103 53.4444C3.33832 53.6439 3.91889 53.8435 4.20918 53.8979C4.97119 54.034 41.4749 54.034 42.2369 53.8979C44.1964 53.5442 45.9018 51.8841 46.3191 49.9246C46.4189 49.4257 46.4461 46.7315 46.4461 33.5324C46.4461 22.7192 46.4189 17.5756 46.3463 17.2037C46.0833 15.7522 44.9584 14.2464 43.6249 13.5932C42.3277 12.9582 43.6793 12.9945 23.1777 13.0036C7.66542 13.0036 4.57204 13.0308 4.08218 13.1397ZM41.9104 14.6274C43.0897 14.8542 44.0512 15.598 44.5683 16.6957L44.8586 17.3035L44.8858 20.542L44.913 23.7896H23.2231H1.53308L1.5603 20.542L1.58751 17.3035L1.8778 16.6957C2.37674 15.6343 3.35646 14.8542 4.46318 14.6365C5.03469 14.5185 41.3207 14.5185 41.9104 14.6274ZM44.904 37.288C44.904 50.4871 44.9312 49.8158 44.3325 50.7592C43.9333 51.3761 43.4616 51.7843 42.7268 52.129L42.1372 52.4102H23.2231H4.30897L3.71932 52.129C2.98453 51.7843 2.51281 51.3761 2.11366 50.7592C1.51494 49.8158 1.54216 50.4871 1.54216 37.288V25.3318H23.2231H44.904V37.288Z" fill="#24ABF5"/>
<path d="M5.17998 16.8135C3.65597 17.1038 2.81232 18.7911 3.48361 20.2063C4.20026 21.7212 6.20506 22.0478 7.37529 20.8413C7.75629 20.4512 8.07379 19.6801 8.07379 19.163C8.07379 18.5734 7.75629 17.8658 7.29364 17.4395C6.66771 16.8589 5.98735 16.6593 5.17998 16.8135ZM6.2867 18.6278C6.54978 18.909 6.59514 19.1993 6.43185 19.5622C6.29578 19.8615 5.78777 20.0974 5.45213 20.0248C4.68105 19.8525 4.54498 18.773 5.25255 18.4192C5.6517 18.2196 5.96013 18.2831 6.2867 18.6278Z" fill="#24ABF5"/>
<path d="M12.156 16.9951C11.258 17.3942 10.7046 18.2469 10.7046 19.2085C10.7137 21.3494 13.2809 22.4017 14.7958 20.8867C16.3108 19.3718 15.2494 16.8046 13.1085 16.8046C12.7548 16.8046 12.4191 16.8771 12.156 16.9951ZM13.7345 18.6279C14.061 19.018 14.052 19.4534 13.7073 19.8072C13.5077 19.9977 13.3535 20.0703 13.1085 20.0703C12.3556 20.0703 11.9565 19.1178 12.4826 18.5826C12.8455 18.2288 13.417 18.2469 13.7345 18.6279Z" fill="#24ABF5"/>
<path d="M19.6941 16.9589C19.4583 17.0405 19.1045 17.2854 18.8686 17.5213C17.3537 19.0362 18.406 21.6035 20.5469 21.6125C21.8894 21.6125 22.9508 20.5512 22.9508 19.2086C22.9508 17.5304 21.2907 16.3964 19.6941 16.9589ZM21.1456 18.6099C21.4994 18.9727 21.5175 19.4898 21.1728 19.8345C20.6376 20.3607 19.6851 19.9615 19.6851 19.2086C19.6851 18.746 20.0842 18.3468 20.5469 18.3468C20.7918 18.3468 20.946 18.4194 21.1456 18.6099Z" fill="#24ABF5"/>
<path d="M24.0848 29.9763C23.8671 30.1759 23.7491 30.6658 22.2614 37.7325C20.819 44.5815 20.683 45.3072 20.7918 45.534C21.0458 46.0601 21.7171 46.1236 22.0527 45.6428C22.1616 45.5067 22.7513 42.8488 23.7582 38.0681C24.6109 34.0222 25.3094 30.6476 25.3094 30.566C25.3094 30.3029 25.1098 29.9763 24.8831 29.8765C24.5565 29.7314 24.3478 29.7586 24.0848 29.9763Z" fill="#24ABF5"/>
<path d="M17.8705 33.0153C17.3716 33.3691 12.7814 37.3334 12.6998 37.4876C12.5274 37.8051 12.6 38.1044 12.9084 38.4129C13.3983 38.9027 17.7798 42.6039 18.0247 42.7309C18.2969 42.8761 18.823 42.7309 18.9591 42.4769C19.1224 42.1685 19.0589 41.7693 18.8049 41.4881C18.6597 41.343 17.671 40.4812 16.6005 39.574C15.5301 38.6578 14.6411 37.8867 14.6229 37.8504C14.6139 37.8142 15.521 36.9977 16.6459 36.0452C17.7707 35.0836 18.7777 34.2128 18.8684 34.1039C19.1224 33.8318 19.1043 33.36 18.823 33.0879C18.56 32.8248 18.188 32.7976 17.8705 33.0153Z" fill="#24ABF5"/>
<path d="M27.6225 33.0879C27.3413 33.36 27.3232 33.8318 27.5772 34.1039C27.6679 34.2128 28.6748 35.0836 29.7997 36.0452C30.9246 36.9977 31.8317 37.8142 31.8226 37.8504C31.8045 37.8867 30.9155 38.6578 29.8451 39.574C28.7746 40.4812 27.7858 41.343 27.6497 41.4881C27.3867 41.7693 27.3232 42.1685 27.4865 42.4769C27.6225 42.7309 28.1487 42.8761 28.4208 42.7309C28.6658 42.6039 33.0473 38.9027 33.5372 38.4129C33.8456 38.1044 33.9182 37.8051 33.7458 37.4876C33.6642 37.3334 29.074 33.3691 28.575 33.0153C28.2575 32.7976 27.8856 32.8248 27.6225 33.0879Z" fill="#24ABF5"/>
</svg>
