<svg width="65" height="59" viewBox="0 0 65 59" fill="none" xmlns="http://www.w3.org/2000/svg">
<rect x="6" width="59" height="59" rx="29.5" fill="#FFF0C6"/>
<path d="M18.1778 13.0881C15.0787 13.4325 11.8115 14.6416 9.17697 16.3953C7.8717 17.2682 7.11896 17.8848 6.00588 19.0059C2.53049 22.4733 0.520524 26.8295 0.0720863 31.8264C-0.200179 34.8694 0.336344 38.3528 1.49748 41.1875C2.58654 43.8381 3.93986 45.8561 6.04592 47.9541C7.90373 49.82 9.36916 50.861 11.6434 51.966C15.7354 53.936 20.1557 54.4725 24.7281 53.5516C27.8752 52.919 31.3506 51.2293 33.7369 49.1793C34.2094 48.7629 34.3295 48.5387 34.2334 48.2184C34.1694 48.0022 26.0094 39.7862 25.6891 39.618C25.3608 39.4418 25.2406 39.4739 24.544 39.8983C23.2627 40.683 22.0295 41.0354 20.532 41.0434C18.442 41.0514 16.6483 40.3067 15.1668 38.8332C13.6694 37.3358 12.9487 35.542 12.9567 33.3799C12.9647 31.7143 13.4772 30.2088 14.4862 28.8715C15.6393 27.35 17.0086 26.5172 19.2748 25.9727C19.8914 25.8205 19.8594 26.1809 19.8594 19.4463V13.4645L19.6272 13.2323C19.3709 12.976 19.2668 12.968 18.1778 13.0881ZM18.4981 19.5985V24.7555L17.8414 24.9637C14.6223 26.0047 12.3 28.6793 11.7235 32.0106C11.6274 32.5391 11.6033 33.0356 11.6354 33.8203C11.6834 35.2057 11.9237 36.1746 12.5242 37.3838C13.4531 39.2577 14.7504 40.5549 16.6162 41.4758C17.8254 42.0684 18.8024 42.3086 20.1797 42.3647C21.8373 42.4287 23.0865 42.1645 24.56 41.4278L25.2967 41.0594L28.9483 44.711L32.5998 48.3625L32.2555 48.6508C30.9582 49.7159 28.5238 51.0131 26.6901 51.6217C24.3358 52.4065 23.1186 52.5987 20.5 52.5987C17.9135 52.5987 16.4 52.3504 14.1738 51.5817C8.84865 49.7399 4.35627 45.2955 2.49045 40.0264C1.73771 37.9043 1.44943 36.3108 1.38537 34.0205C1.28127 30.2008 2.17814 26.7334 4.06799 23.6264C6.62248 19.4223 10.6424 16.3473 15.2949 15.026C16.1358 14.7858 17.7934 14.4575 18.2018 14.4494L18.4981 14.4414V19.5985Z" fill="#FDBE0C"/>
<path d="M21.4291 13.1842L21.2209 13.3924V19.5104C21.2209 26.5893 21.1008 25.7965 22.2379 26.0848C23.7514 26.4771 24.8245 27.0777 25.8655 28.1268C26.9305 29.1998 27.4991 30.2088 27.8995 31.7543C28.0356 32.2588 28.1477 32.5391 28.2678 32.6352C28.436 32.7713 28.8284 32.7793 34.4899 32.7793H40.5358L40.768 32.5471C41.0403 32.2748 41.0403 32.2508 40.8801 30.9375C40.4397 27.358 39.1104 24.0828 36.9483 21.2C36.5879 20.7115 36.0914 20.1029 35.8592 19.8547C35.4909 19.4783 35.3868 19.4063 35.1465 19.4063C34.7782 19.4063 34.5139 19.6705 34.5139 20.0549C34.5139 20.2871 34.618 20.4553 35.1625 21.0879C37.3727 23.6664 38.8381 26.8215 39.4387 30.2969C39.5028 30.6732 39.5588 31.0736 39.5588 31.2018V31.418L34.3938 31.402L29.2207 31.3779L28.9885 30.6813C28.5161 29.2799 27.8514 28.1988 26.8264 27.1738C25.7774 26.1248 24.5842 25.4041 23.1989 24.9717L22.5022 24.7555V19.5984V14.4414H22.7664C22.9026 14.4414 23.351 14.4975 23.7434 14.5695C26.3219 15.01 28.7883 15.9789 30.9825 17.4043C31.535 17.7566 32.0315 18.0449 32.0875 18.0449C32.2717 18.0449 32.6481 17.8207 32.7041 17.6846C32.7762 17.4924 32.7602 17.1721 32.6721 17.0119C32.4879 16.6596 29.9975 15.1861 28.5881 14.5936C26.6342 13.7768 24.3039 13.2002 22.326 13.04C21.6534 12.984 21.6293 12.992 21.4291 13.1842Z" fill="#FDBE0C"/>
<path d="M28.2754 34.2769C28.1552 34.381 28.0431 34.6613 27.907 35.1978C27.7148 35.9986 27.2824 37.0075 26.842 37.6962C26.3695 38.4409 26.0892 38.0806 30.8058 42.8052C33.1281 45.1275 35.13 47.0734 35.2582 47.1214C35.6265 47.2736 35.8508 47.1374 36.4593 46.3927C38.9097 43.3978 40.4873 39.6181 40.9117 35.7263C41.0318 34.6452 41.0238 34.5572 40.7996 34.3409L40.6074 34.1407H34.5295C28.8519 34.1407 28.4355 34.1488 28.2754 34.2769ZM39.5263 35.9825C39.2701 38.7853 37.8447 42.3087 35.9468 44.8792L35.4584 45.5359L31.7908 41.8683L28.1232 38.2007L28.4756 37.488C28.6758 37.0956 28.932 36.471 29.0521 36.1027L29.2603 35.422H34.4254H39.5824L39.5263 35.9825Z" fill="#FDBE0C"/>
</svg>
