<svg width="50" height="50" viewBox="0 0 50 50" fill="none" xmlns="http://www.w3.org/2000/svg">
<circle cx="25" cy="25" r="25" fill="url(#paint0_linear_544_109)"/>
<path d="M24.7858 9.15142C24.5981 9.327 24.58 9.50864 24.6042 11.1979L24.6223 12.7358L24.7919 12.8811C25.0038 13.0627 25.1491 13.0627 25.361 12.8811L25.5306 12.7358L25.5487 11.1979C25.5608 10.3563 25.5548 9.57524 25.5306 9.47231C25.4579 9.07271 25.0583 8.90317 24.7858 9.15142Z" fill="white"/>
<path d="M14.4199 13.4501C14.3473 13.5228 14.2988 13.6499 14.2988 13.771C14.2988 13.9466 14.432 14.0979 15.5037 15.1696C16.5572 16.2231 16.7328 16.3745 16.9023 16.3745C17.1506 16.3745 17.3443 16.1808 17.3443 15.9325C17.3443 15.763 17.199 15.5935 16.1395 14.5339C15.0678 13.4683 14.9043 13.329 14.7348 13.329C14.6197 13.329 14.4926 13.3774 14.4199 13.4501Z" fill="white"/>
<path d="M34.0135 14.5339C32.9539 15.5935 32.8086 15.763 32.8086 15.9325C32.8086 16.1808 33.0023 16.3745 33.2506 16.3745C33.4201 16.3745 33.5957 16.2231 34.6492 15.1696C35.7209 14.0979 35.8541 13.9466 35.8541 13.771C35.8541 13.5106 35.6725 13.329 35.4182 13.329C35.2486 13.329 35.0852 13.4683 34.0135 14.5339Z" fill="white"/>
<path d="M24.0892 14.1223C23.5201 14.1828 22.515 14.4189 21.9882 14.6187C19.9417 15.3877 18.0708 17.0527 17.1081 18.9721C16.866 19.4504 16.8599 19.5533 17.0294 19.7713C17.1808 19.959 17.5017 19.9893 17.641 19.8197C17.6894 19.7652 17.8589 19.4807 18.0163 19.1961C18.979 17.4584 20.5835 16.0961 22.4605 15.424C24.065 14.8488 26.0812 14.8488 27.6917 15.424C29.6656 16.1264 31.2822 17.5492 32.2388 19.4262C32.8624 20.6553 33.1288 21.7754 33.1288 23.2043C33.1288 24.5484 32.8685 25.6928 32.2933 26.8613C31.924 27.6061 31.4699 28.2418 30.6646 29.1379C29.7322 30.1793 29.3992 30.7061 29.1872 31.4629L29.0904 31.8262H25.1367H21.189L21.0497 31.4266C20.7954 30.6637 20.4564 30.1854 19.2394 28.8473C18.3433 27.8604 17.8105 26.9582 17.4169 25.7836C17.09 24.7967 16.9992 24.0943 17.0476 22.9076C17.0658 22.3506 17.1021 21.7693 17.1203 21.6119C17.1505 21.3758 17.1324 21.3092 17.0234 21.2002C16.8478 21.0246 16.5027 21.0549 16.3513 21.2607C16.097 21.6119 16.0304 23.5979 16.2302 24.7846C16.5208 26.4678 17.2716 28.0178 18.4099 29.2893C19.6208 30.6395 19.7661 30.8211 19.9902 31.2631C20.1173 31.5234 20.2384 31.8504 20.2626 31.9896C20.2808 32.135 20.3171 33.0553 20.3413 34.0361L20.3837 35.8283L20.5835 36.2279C20.7107 36.4943 20.8984 36.7365 21.1345 36.9545L21.4857 37.2814L21.516 37.7961C21.5644 38.7164 22.0306 39.4309 22.8359 39.8123L23.2294 40H25.1669H27.1044L27.498 39.8123C28.3033 39.4309 28.7695 38.7164 28.8179 37.7961L28.8482 37.2814L29.1994 36.9545C29.4355 36.7365 29.6232 36.4943 29.7503 36.2279L29.9501 35.8283L29.9804 33.7939C30.0107 31.8746 30.0228 31.7475 30.1499 31.4266C30.3255 30.9846 30.7736 30.3549 31.3245 29.7555C32.8443 28.1268 33.5951 26.6736 33.9281 24.7422C34.031 24.1246 34.0431 23.8521 34.0189 22.8955C33.9704 21.3213 33.7525 20.4373 33.0683 19.0508C31.4093 15.7025 27.8189 13.7287 24.0892 14.1223ZM29.0722 33.5215V34.2783H28.4365C27.8794 34.2783 27.7826 34.2965 27.6796 34.3994C27.498 34.5811 27.5161 34.902 27.716 35.0594C27.8552 35.1684 27.9642 35.1865 28.4728 35.1865H29.0722V35.35C29.0661 35.574 28.8603 36.0221 28.6605 36.234C28.5697 36.3309 28.388 36.4701 28.2548 36.5367C28.0187 36.6699 27.9642 36.6699 25.1669 36.6699C22.3697 36.6699 22.3152 36.6699 22.079 36.5367C21.9458 36.4701 21.7642 36.3309 21.6734 36.234C21.4736 36.0221 21.2677 35.574 21.2617 35.35V35.1865H23.6169H25.9783L26.1296 35.0533C26.3476 34.8535 26.3658 34.5992 26.166 34.3994C26.0509 34.2844 25.9661 34.2783 23.6533 34.2783H21.2617V33.5215V32.7646H25.1669H29.0722V33.5215ZM27.9218 37.8324C27.9158 38.3289 27.4677 38.898 26.9591 39.0494C26.6443 39.1463 23.6896 39.1463 23.3747 39.0494C22.8661 38.898 22.4181 38.3289 22.412 37.8324V37.6084H25.1669H27.9218V37.8324Z" fill="white"/>
<path d="M28.0917 20.3464C27.6921 20.4796 27.462 20.7218 25.9847 22.623C25.1431 23.7068 24.4347 24.5908 24.4104 24.5908C24.3862 24.5908 24.0169 24.2033 23.5931 23.7249C22.6061 22.629 22.4548 22.4898 22.0552 22.3747C20.8442 22.0115 19.7786 23.2829 20.3538 24.4091C20.4143 24.5242 20.9169 25.1236 21.4739 25.7412C23.8716 28.3931 23.8171 28.3447 24.5013 28.3447C24.9311 28.3447 25.2702 28.2054 25.5366 27.9148C25.9362 27.4849 27.4983 25.4203 27.5347 25.2749C27.6194 24.9419 27.0987 24.6271 26.8263 24.8451C26.7718 24.8874 26.3056 25.4747 25.7849 26.1408C25.2641 26.8128 24.7979 27.3759 24.7434 27.4001C24.5981 27.4546 24.3559 27.4425 24.2409 27.382C24.0895 27.2972 21.1772 24.0579 21.1227 23.9126C21.0138 23.6099 21.3286 23.1982 21.6737 23.1982C21.8554 23.1982 22.037 23.3677 23.139 24.5908C24.1985 25.7593 24.3438 25.8804 24.6224 25.7533C24.695 25.7169 25.5003 24.7361 26.4024 23.5675C27.3106 22.399 28.122 21.3939 28.2067 21.3212C28.6245 20.9943 29.1997 21.4544 28.9878 21.9449C28.9454 22.0538 28.7032 22.399 28.455 22.7138C27.9282 23.3798 27.8798 23.4888 28.013 23.737C28.122 23.949 28.346 24.0337 28.5518 23.9369C28.7032 23.8703 29.6538 22.6956 29.8173 22.3808C30.1503 21.7329 29.8839 20.8853 29.2239 20.4978C28.9272 20.3283 28.3823 20.2556 28.0917 20.3464Z" fill="white"/>
<path d="M10.1216 23.8157C9.86729 24.0882 10.0308 24.4878 10.4364 24.5605C10.5454 24.5786 11.3265 24.5907 12.1681 24.5786L13.706 24.5605L13.8513 24.3909C14.0269 24.1851 14.0329 24.0519 13.8694 23.8399L13.7483 23.6825H11.9985C10.273 23.6825 10.2427 23.6825 10.1216 23.8157Z" fill="white"/>
<path d="M36.2842 23.8399C36.1208 24.0519 36.1268 24.1851 36.3024 24.3909L36.4477 24.5605L37.9856 24.5786C38.8272 24.5907 39.6083 24.5786 39.7173 24.5605C40.1108 24.4878 40.2803 24.0821 40.0321 23.8157C39.911 23.6825 39.8807 23.6825 38.1551 23.6825H36.4053L36.2842 23.8399Z" fill="white"/>
<path d="M16.751 31.8564C16.6844 31.8807 16.1031 32.4316 15.4674 33.0795C14.4381 34.1148 14.2988 34.2783 14.2988 34.4479C14.2988 34.7021 14.4865 34.8838 14.7408 34.8838C14.9164 34.8838 15.0678 34.7506 16.1395 33.6789C17.193 32.6254 17.3443 32.4498 17.3443 32.2803C17.3443 31.9775 17.0174 31.7414 16.751 31.8564Z" fill="white"/>
<path d="M33.0992 31.8564C32.9115 31.9291 32.8086 32.0865 32.8086 32.2863C32.8086 32.4437 32.9781 32.6436 34.0135 33.6789C35.0852 34.7506 35.2365 34.8838 35.4121 34.8838C35.6725 34.8838 35.8541 34.7021 35.8541 34.4479C35.8541 34.2783 35.7148 34.1148 34.6613 33.0613C34.0014 32.4014 33.408 31.8504 33.3414 31.8383C33.2748 31.8201 33.1658 31.8262 33.0992 31.8564Z" fill="white"/>
<defs>
<linearGradient id="paint0_linear_544_109" x1="50" y1="50" x2="5" y2="-5.96046e-07" gradientUnits="userSpaceOnUse">
<stop stop-color="#F57163"/>
<stop offset="1" stop-color="#D764BB"/>
</linearGradient>
</defs>
</svg>
