<svg width="32" height="33" viewBox="0 0 32 33" fill="none" xmlns="http://www.w3.org/2000/svg">
<path d="M15.4033 0.0508137C14.0519 0.394917 13.2511 1.82138 13.664 3.16026C13.883 3.89226 14.5274 4.54919 15.2031 4.74939L15.4847 4.83072V7.49596V10.1549H14.5963C13.5639 10.1612 13.0572 10.2738 12.175 10.6993L11.6495 10.9495L10.0478 9.34787L8.45244 7.75248L8.58382 7.47719C9.17193 6.2697 8.65264 4.79944 7.43264 4.19883C7.10731 4.04242 7.0072 4.02365 6.41284 4.02365C5.82474 4.02365 5.71838 4.04242 5.38053 4.19883C4.88627 4.43031 4.40453 4.91206 4.1793 5.3938C4.02288 5.73791 4.00412 5.84426 4.00412 6.43237C4.00412 7.02673 4.02288 7.12683 4.1793 7.45217C4.77991 8.67217 6.25017 9.19146 7.45766 8.60335L7.73295 8.47197L9.2908 10.0298L10.8486 11.5877L10.5483 11.9318C9.76003 12.8452 9.47224 13.5209 9.1907 15.0975C9.17193 15.1914 9.05931 15.2539 8.70269 15.3603C8.271 15.4917 8.12085 15.5042 6.52546 15.5042H4.81119L4.72986 15.2227C4.68607 15.0725 4.54217 14.7972 4.41704 14.6158C3.34093 13.0704 1.00729 13.2769 0.200206 14.9912C0.0187693 15.3728 0 15.4667 0 16.0047C0 16.5428 0.0187693 16.6366 0.200206 17.0182C1.00729 18.7325 3.34093 18.939 4.41704 17.3936C4.54217 17.2122 4.68607 16.9369 4.72986 16.7868L4.81119 16.5052H5.89356H6.96966L6.72566 16.9619C6.08125 18.1569 6.16258 19.5083 6.95089 20.6094C7.3951 21.2413 8.28977 21.8232 8.95921 21.9233C9.10936 21.9421 9.22824 21.9796 9.22824 22.0046C9.22824 22.0234 8.89039 22.38 8.47746 22.7929L7.72669 23.5374L7.45141 23.3998C5.69335 22.5489 3.67878 24.0442 3.97909 25.9649C4.18555 27.2976 5.40556 28.1985 6.74443 28.0171C8.06454 27.8294 9.03429 26.5093 8.79654 25.2267C8.759 25.0015 8.66516 24.6949 8.59008 24.5385L8.45244 24.2569L9.57234 23.137L10.6985 22.0109H13.0885H15.4847V24.5948V27.1787L15.1593 27.2851C13.8392 27.7105 13.176 29.3059 13.7829 30.601C14.4148 31.9523 16.0665 32.4278 17.3303 31.6208C18.1874 31.0702 18.6129 29.9378 18.3376 28.9367C18.1311 28.1797 17.5055 27.504 16.8173 27.2851L16.4857 27.1787V24.5948V22.0109H18.8819H21.2719L22.3918 23.1308L23.5054 24.2507L23.349 24.6448C23.1488 25.1641 23.105 25.5207 23.1801 25.9775C23.3052 26.7533 23.812 27.4352 24.5377 27.8043C24.8756 27.9733 24.9506 27.9858 25.5888 27.9858C26.2207 27.9858 26.3083 27.9733 26.6399 27.8106C27.6159 27.3288 28.179 26.2465 27.9975 25.2079C27.8536 24.3821 27.3594 23.7377 26.5711 23.3685C26.1957 23.1871 26.0893 23.1683 25.5888 23.1683C25.1008 23.1683 24.9694 23.1933 24.6316 23.3498L24.2374 23.5312L23.4866 22.7867L22.7421 22.0422L23.1988 21.9483C23.8495 21.8107 24.3375 21.5479 24.7817 21.1037C25.3886 20.5031 25.6826 19.7961 25.6826 18.9452C25.6826 18.1382 25.4199 17.4625 24.8693 16.8556L24.544 16.5052H25.8641C26.9402 16.5052 27.1842 16.524 27.1842 16.5928C27.1842 16.7868 27.6409 17.5751 27.8787 17.7878C28.0226 17.9192 28.3229 18.1069 28.5543 18.2195C28.9297 18.3947 29.0236 18.4134 29.5679 18.4134C30.131 18.4134 30.1873 18.4009 30.6377 18.1819C31.1946 17.9004 31.5011 17.5876 31.7702 17.0182C32.3895 15.6981 31.7076 14.1278 30.3187 13.6898C29.3489 13.3833 28.2916 13.6898 27.6597 14.4594C27.4219 14.7472 27.1904 15.2164 27.1842 15.3916C27.1842 15.4979 27.0528 15.5042 25.3198 15.5042H23.4554L23.374 15.035C23.1613 13.7712 22.2041 12.7076 20.9528 12.3447L20.4961 12.2133L22.3667 10.3426L24.2374 8.47197L24.519 8.60961C26.277 9.46048 28.2853 7.9652 27.985 6.0257C27.741 4.40529 25.983 3.49811 24.5002 4.22385C23.5492 4.68683 22.9799 5.80047 23.1738 6.80776C23.2176 7.02047 23.3115 7.32078 23.3865 7.47719L23.5179 7.75248L21.2281 10.0423L18.9382 12.3322L18.7318 12.0882C18.1874 11.4625 17.4179 10.8682 16.8048 10.6117L16.4857 10.4803V7.65863V4.83072L16.7672 4.74939C16.9174 4.7056 17.1927 4.5617 17.3741 4.43657C18.9132 3.36672 18.713 1.02056 17.0112 0.225992C16.567 0.0195312 15.8475 -0.0618019 15.4033 0.0508137ZM16.5858 1.13943C17.468 1.5461 17.7057 2.666 17.0613 3.37923C16.7672 3.70457 16.4231 3.86724 15.9977 3.86724C15.0029 3.86724 14.3272 2.9538 14.615 1.98405C14.7777 1.446 15.4033 0.989277 15.9852 0.989277C16.1478 0.989277 16.3981 1.05184 16.5858 1.13943ZM6.96341 5.0935C8.18341 5.60027 8.07705 7.41463 6.80074 7.78376C5.84976 8.05904 4.97386 7.39586 4.97386 6.40109C4.97386 5.81924 5.24289 5.36878 5.7434 5.12478C6.06248 4.96837 6.62556 4.9496 6.96341 5.0935ZM26.3583 5.19985C26.7525 5.45637 26.9527 5.80673 26.984 6.27596C27.0153 6.75145 26.9214 7.05801 26.6649 7.34581C26.1143 7.97771 25.251 8.0215 24.6191 7.45217C24.1123 7.00171 23.9934 6.35104 24.3 5.75668C24.5753 5.21862 25.007 4.98088 25.6576 5.00591C26.0205 5.02468 26.1456 5.05596 26.3583 5.19985ZM15.8913 11.3374C16.7923 11.6252 17.5618 12.182 18.1499 12.9766C18.3564 13.2581 18.5503 13.4521 18.6442 13.4771C18.7318 13.4959 18.9382 13.4583 19.1572 13.3708C19.664 13.1768 20.4398 13.1705 20.9403 13.3708C21.4408 13.5647 21.935 14.0339 22.1916 14.5532C22.3793 14.9286 22.398 15.0224 22.3918 15.5042C22.3918 15.7982 22.3793 16.1611 22.373 16.3113C22.348 16.6679 22.4794 16.8055 22.9611 16.8806C24.0372 17.0558 24.7567 17.8691 24.7567 18.9014C24.7567 19.6397 24.4439 20.2591 23.8871 20.6282C23.2864 21.0286 23.6368 21.0099 16.2042 21.0099C8.72146 21.0099 9.10936 21.0286 8.44618 20.6094C8.03951 20.3467 7.82054 20.0839 7.57654 19.5709C7.40761 19.208 7.38259 19.1016 7.38259 18.6011C7.38259 18.1006 7.40761 17.9943 7.58279 17.6189C7.95192 16.8431 8.69644 16.305 9.52229 16.2174C10.0916 16.1549 10.1667 16.0548 10.2293 15.2414C10.3043 14.2779 10.5171 13.6898 11.0801 12.8953C11.662 12.0757 12.6693 11.4375 13.7329 11.2123C14.3335 11.0872 15.2719 11.1435 15.8913 11.3374ZM2.95929 14.6658C3.49109 14.8848 3.8477 15.4166 3.8477 16.0047C3.8477 17.5375 1.76431 17.9943 1.1199 16.6053C0.850875 16.0297 0.950977 15.4541 1.4077 15.0037C1.56411 14.8473 1.78934 14.6846 1.90821 14.6471C2.23355 14.547 2.69027 14.5532 2.95929 14.6658ZM30.1247 14.6971C30.644 14.9286 30.9193 15.3228 30.9818 15.9046C31.0069 16.1549 30.9818 16.305 30.8755 16.5553C30.4813 17.475 29.3364 17.7377 28.6107 17.0808C28.2791 16.7805 28.1227 16.4427 28.1227 16.0047C28.1227 14.9599 29.1862 14.2717 30.1247 14.6971ZM6.83202 24.2319C7.45766 24.4196 7.91438 25.1141 7.82679 25.7397C7.72044 26.5155 7.1511 27.016 6.36279 27.016C4.97386 27.016 4.44832 25.1203 5.63704 24.3821C6.03746 24.1381 6.36905 24.0943 6.83202 24.2319ZM26.2395 24.3258C26.8526 24.6386 27.1592 25.3268 26.9715 25.9712C26.5648 27.3726 24.6191 27.3852 24.2124 25.9837C23.862 24.795 25.1321 23.7502 26.2395 24.3258ZM16.5357 28.2423C17.274 28.5489 17.6244 29.4185 17.2928 30.1442C17.1238 30.5196 16.9549 30.6948 16.5795 30.87C16.0102 31.139 15.4346 31.0389 14.9842 30.5822C14.2584 29.8627 14.4649 28.6927 15.3908 28.2611C15.6974 28.1172 16.2229 28.1109 16.5357 28.2423Z" fill="#DC66AD"/>
</svg>
