<svg width="62" height="57" viewBox="0 0 62 57" fill="none" xmlns="http://www.w3.org/2000/svg">
<path d="M5.14608 9.79946C-1.8374 16.2844 -0.221348 23.0111 1.43015 27.1399C7.62336 35.8101 13.8164 31.475 20.6288 35.8102C27.4412 40.1454 21.8675 51.2933 30.5379 55.0092C39.2082 58.725 50.9752 53.7705 57.7876 45.1002C64.6 36.4298 63.9805 18.4697 49.7365 7.94137C31.8837 -5.25441 13.8164 1.7481 5.14608 9.79946Z" fill="#DFDFFF" fill-opacity="0.49"/>
<path d="M25.9905 12.9C23.3483 15.7352 20.3499 17.3012 16.8245 17.6871C16.3569 17.7391 15.5331 17.7539 14.7389 17.7316L13.4178 17.6871L13.2694 17.8875C13.1135 18.0805 13.1135 18.0953 13.1432 24.1738C13.1729 30.4602 13.1729 30.475 13.4995 32.1523C14.4495 36.9766 17.5741 41.6152 22.2128 45.1035C23.7936 46.291 26.5917 47.9609 26.9999 47.9609C27.5268 47.9609 30.5401 46.098 32.3436 44.6582C34.2288 43.1516 36.819 40.4129 36.819 39.9305C36.819 39.5371 36.3366 39.2773 36.0471 39.5223C35.9803 39.5668 35.6686 39.9305 35.3421 40.3164C34.2288 41.6598 32.5885 43.2035 31.0448 44.3762C29.835 45.2816 27.2967 46.8477 27.0073 46.8477C26.7921 46.8477 24.5729 45.5191 23.3854 44.6805C21.6635 43.4559 19.5928 41.541 18.435 40.0938C16.6538 37.8598 15.1991 34.9652 14.6202 32.4863C14.212 30.7348 14.212 30.7496 14.1823 24.5449L14.1526 18.7559L15.1323 18.7781C18.0639 18.8449 21.0104 18.0063 23.4374 16.418C24.4839 15.7277 25.0034 15.3047 26.0499 14.2805L26.985 13.3602L27.7717 14.0652C29.2413 15.3937 30.5624 16.2547 32.262 17.0191C34.3475 17.9469 36.8784 18.5258 39.4686 18.6668L39.8026 18.6816L39.8397 22.7859L39.8768 26.8977L40.055 27.0387C40.285 27.2316 40.478 27.2168 40.6932 26.9941L40.8788 26.816V22.4371V18.0582L40.7081 17.8801C40.5522 17.7094 40.4706 17.6945 39.3202 17.6129C36.5741 17.4273 34.3253 16.8781 32.2323 15.8688C30.6292 15.0969 29.4565 14.2656 28.0686 12.9148C27.4007 12.2617 27.126 12.0391 26.985 12.0391C26.8366 12.0391 26.6139 12.2395 25.9905 12.9Z" fill="#A0A0FF"/>
<path d="M26.7325 16.2844C26.6137 16.3809 26.25 16.6852 25.9235 16.9598C23.6153 18.9488 20.3942 20.2773 17.2028 20.5668C16.5125 20.6336 16.327 20.6781 16.2008 20.7969C16.0524 20.9453 16.0524 21.0418 16.0301 24.6785C16.0079 28.7828 16.0672 30.141 16.3493 31.5363C16.8614 34.0523 18.1231 36.6574 19.9192 38.9062C20.6168 39.7746 22.1977 41.3332 23.1774 42.1273C24.068 42.8398 25.8938 44.0793 26.5766 44.4355L26.9997 44.6582L27.4301 44.4355C28.1055 44.0793 29.9313 42.8398 30.8219 42.1273C31.2747 41.7637 32.0614 41.0512 32.5735 40.5391C34.2137 38.8988 35.3715 37.3105 36.3141 35.3809C37.2493 33.4809 37.754 31.6551 37.9098 29.6289C38.0137 28.2039 38.0063 20.9305 37.9024 20.693C37.7985 20.4777 37.5536 20.3813 36.8708 20.3145C36.2622 20.2551 34.8223 19.9656 34.1098 19.7578C31.8684 19.1121 29.7532 18.0434 27.8383 16.6035C27.4895 16.3363 27.1407 16.1211 27.0739 16.1211C26.9997 16.1211 26.8512 16.1953 26.7325 16.2844ZM27.6454 17.7465C29.5379 19.1195 32.0614 20.307 34.3102 20.8711C34.6813 20.9676 35.4161 21.116 35.943 21.2051L36.9079 21.3684L36.9301 25.109C36.9598 30.0297 36.8708 30.9797 36.1879 33.0355C35.0079 36.5832 32.2915 39.975 28.6325 42.4613C28.1575 42.7879 27.6008 43.1516 27.3856 43.2777L26.9997 43.5004L26.6286 43.2852C24.595 42.0828 22.3684 40.2125 20.8989 38.4609C19.1547 36.3828 17.8411 33.748 17.3586 31.373C17.1063 30.1113 17.0543 29.1316 17.0543 25.3242V21.643L18.0192 21.5168C21.129 21.0938 24.1422 19.7875 26.4356 17.8727C26.7547 17.6055 27.0516 17.3828 27.0813 17.3828C27.1184 17.3828 27.3708 17.5461 27.6454 17.7465Z" fill="#A0A0FF"/>
<path d="M31.9726 26.1926C31.9133 26.2149 30.2582 27.8328 28.2988 29.7848L24.7363 33.3399L23.4004 32.0039C21.9679 30.5641 21.8492 30.4899 21.5226 30.8387C21.1961 31.1801 21.2554 31.2617 22.9847 32.9985C24.5062 34.5199 24.625 34.6164 24.8254 34.5719C24.9664 34.5348 26.191 33.3621 28.8406 30.7199C32.8707 26.6899 32.8262 26.7418 32.5144 26.3781C32.366 26.2074 32.1433 26.1332 31.9726 26.1926Z" fill="#A0A0FF"/>
<path d="M39.9287 30.1262C39.8025 30.2301 39.7357 30.4602 39.617 31.2172C39.4834 32.0633 39.476 32.1895 39.5724 32.3379C39.7357 32.5828 40.0474 32.6422 40.2775 32.4641C40.4408 32.3453 40.4928 32.2117 40.5967 31.6254C40.7748 30.6235 40.7674 30.2598 40.567 30.1188C40.3517 29.9629 40.1142 29.9703 39.9287 30.1262Z" fill="#A0A0FF"/>
<path d="M38.7637 35.0469C38.5485 35.1285 38.4966 35.2102 38.0958 36.0637C37.7692 36.7688 37.7469 36.843 37.836 37.0508C37.9399 37.2957 38.17 37.3922 38.4743 37.318C38.6227 37.2809 38.7341 37.1176 39.0309 36.509C39.2313 36.0934 39.3946 35.648 39.3946 35.5219C39.3946 35.1879 39.0606 34.9355 38.7637 35.0469Z" fill="#A0A0FF"/>
</svg>
