<svg width="35" height="35" viewBox="0 0 35 35" fill="none" xmlns="http://www.w3.org/2000/svg">
<rect x="0.5" y="0.5" width="34" height="34" rx="17" stroke="#9999E0" stroke-dasharray="2 2"/>
<path d="M17.554 17.79C18.37 17.79 19.084 17.646 19.696 17.358C20.308 17.07 20.788 16.68 21.136 16.188C21.484 15.696 21.658 15.156 21.658 14.568C21.658 13.968 21.514 13.416 21.226 12.912C20.95 12.408 20.548 12 20.02 11.688C19.504 11.376 18.886 11.22 18.166 11.22C17.482 11.22 16.87 11.364 16.33 11.652C15.802 11.928 15.382 12.312 15.07 12.804C14.77 13.296 14.62 13.872 14.62 14.532H16.078C16.078 13.98 16.282 13.524 16.69 13.164C17.098 12.792 17.596 12.606 18.184 12.606C18.604 12.606 18.952 12.69 19.228 12.858C19.516 13.026 19.732 13.266 19.876 13.578C20.02 13.878 20.092 14.226 20.092 14.622C20.092 14.922 20.032 15.204 19.912 15.468C19.804 15.732 19.642 15.966 19.426 16.17C19.21 16.362 18.946 16.518 18.634 16.638C18.322 16.746 17.962 16.8 17.554 16.8V17.79ZM18.094 24.18C18.85 24.18 19.522 24.036 20.11 23.748C20.698 23.46 21.16 23.052 21.496 22.524C21.844 21.996 22.018 21.378 22.018 20.67C22.018 20.046 21.898 19.512 21.658 19.068C21.43 18.624 21.106 18.264 20.686 17.988C20.278 17.7 19.804 17.49 19.264 17.358C18.736 17.226 18.166 17.16 17.554 17.16V18.15C17.962 18.15 18.34 18.198 18.688 18.294C19.036 18.39 19.342 18.54 19.606 18.744C19.87 18.936 20.074 19.182 20.218 19.482C20.374 19.77 20.452 20.106 20.452 20.49C20.452 20.946 20.356 21.342 20.164 21.678C19.972 22.014 19.696 22.278 19.336 22.47C18.988 22.65 18.574 22.74 18.094 22.74C17.614 22.74 17.188 22.65 16.816 22.47C16.444 22.29 16.15 22.044 15.934 21.732C15.73 21.42 15.628 21.066 15.628 20.67H14.08C14.08 21.162 14.176 21.624 14.368 22.056C14.56 22.476 14.83 22.848 15.178 23.172C15.526 23.484 15.946 23.73 16.438 23.91C16.93 24.09 17.482 24.18 18.094 24.18Z" fill="#FE574C"/>
</svg>
