<svg width="50" height="50" viewBox="0 0 50 50" fill="none" xmlns="http://www.w3.org/2000/svg">
<circle cx="25" cy="25" r="25" fill="url(#paint0_linear_544_141)"/>
<path d="M13.1024 11.0921C11.812 11.3669 10.7068 12.496 10.4798 13.7684C10.432 14.0134 10.4141 17.4006 10.4141 24.5216C10.4141 33.2138 10.432 34.9881 10.4977 35.3167C10.7128 36.3084 11.4237 37.2104 12.3377 37.6346C12.6125 37.766 12.9948 37.8974 13.186 37.9333C13.6878 38.0229 37.7272 38.0229 38.229 37.9333C39.5194 37.7003 40.6425 36.6071 40.9173 35.3167C40.9831 34.9881 41.001 33.2138 41.001 24.5216C41.001 17.4006 40.9831 14.0134 40.9353 13.7684C40.762 12.8126 40.0212 11.8209 39.1431 11.3908C38.2888 10.9726 39.1789 10.9965 25.6776 11.0025C15.4621 11.0025 13.425 11.0204 13.1024 11.0921ZM38.014 12.0718C38.7906 12.2212 39.4238 12.711 39.7644 13.4339L39.9555 13.8341L39.9734 15.9669L39.9914 18.1056H25.7075H11.4237L11.4416 15.9669L11.4595 13.8341L11.6507 13.4339C11.9793 12.7349 12.6244 12.2212 13.3533 12.0778C13.7296 12.0001 37.6257 12.0001 38.014 12.0718ZM39.9854 26.9949C39.9854 35.6871 40.0033 35.245 39.609 35.8663C39.3462 36.2725 39.0355 36.5413 38.5516 36.7683L38.1633 36.9535H25.7075H13.2517L12.8634 36.7683C12.3795 36.5413 12.0689 36.2725 11.806 35.8663C11.4117 35.245 11.4296 35.6871 11.4296 26.9949V19.1211H25.7075H39.9854V26.9949Z" fill="white"/>
<path d="M13.8253 13.5117C12.8217 13.7029 12.2661 14.814 12.7082 15.746C13.1802 16.7436 14.5004 16.9587 15.2711 16.1641C15.522 15.9073 15.7311 15.3995 15.7311 15.059C15.7311 14.6706 15.522 14.2047 15.2173 13.9239C14.8051 13.5416 14.357 13.4101 13.8253 13.5117ZM14.5542 14.7065C14.7274 14.8917 14.7573 15.0828 14.6498 15.3218C14.5601 15.5189 14.2256 15.6743 14.0046 15.6265C13.4968 15.513 13.4072 14.8021 13.8731 14.5691C14.136 14.4377 14.3391 14.4795 14.5542 14.7065Z" fill="white"/>
<path d="M18.4187 13.631C17.8273 13.8939 17.4629 14.4554 17.4629 15.0887C17.4689 16.4986 19.1595 17.1915 20.1572 16.1939C21.1548 15.1962 20.4559 13.5056 19.046 13.5056C18.813 13.5056 18.592 13.5534 18.4187 13.631ZM19.4582 14.7064C19.6733 14.9632 19.6673 15.25 19.4403 15.483C19.3089 15.6084 19.2073 15.6562 19.046 15.6562C18.5502 15.6562 18.2873 15.029 18.6338 14.6765C18.8728 14.4435 19.2491 14.4554 19.4582 14.7064Z" fill="white"/>
<path d="M23.3832 13.6072C23.2279 13.661 22.9949 13.8223 22.8396 13.9776C21.8419 14.9753 22.5349 16.6659 23.9448 16.6719C24.8289 16.6719 25.5279 15.9729 25.5279 15.0888C25.5279 13.9836 24.4346 13.2368 23.3832 13.6072ZM24.339 14.6945C24.572 14.9334 24.584 15.274 24.357 15.501C24.0045 15.8475 23.3772 15.5846 23.3772 15.0888C23.3772 14.7841 23.6401 14.5212 23.9448 14.5212C24.1061 14.5212 24.2076 14.569 24.339 14.6945Z" fill="white"/>
<path d="M26.2756 22.1799C26.1323 22.3113 26.0546 22.6339 25.0749 27.2877C24.125 31.7981 24.0354 32.276 24.1071 32.4253C24.2743 32.7718 24.7164 32.8137 24.9375 32.497C25.0091 32.4074 25.3974 30.657 26.0606 27.5087C26.6221 24.8443 27.0821 22.622 27.0821 22.5682C27.0821 22.395 26.9507 22.1799 26.8013 22.1142C26.5863 22.0186 26.4489 22.0365 26.2756 22.1799Z" fill="white"/>
<path d="M22.1841 24.1811C21.8555 24.414 18.8327 27.0247 18.7789 27.1262C18.6654 27.3353 18.7132 27.5325 18.9163 27.7356C19.2389 28.0582 22.1244 30.4956 22.2857 30.5792C22.4649 30.6748 22.8114 30.5792 22.901 30.4119C23.0085 30.2088 22.9667 29.946 22.7994 29.7608C22.7038 29.6652 22.0527 29.0977 21.3477 28.5003C20.6428 27.8969 20.0574 27.3891 20.0454 27.3652C20.0394 27.3413 20.6368 26.8036 21.3776 26.1764C22.1184 25.5431 22.7815 24.9696 22.8412 24.8979C23.0085 24.7187 22.9966 24.4081 22.8114 24.2288C22.6381 24.0556 22.3932 24.0377 22.1841 24.1811Z" fill="white"/>
<path d="M28.6056 24.2288C28.4204 24.4081 28.4084 24.7187 28.5757 24.8979C28.6354 24.9696 29.2986 25.5431 30.0393 26.1764C30.7801 26.8036 31.3775 27.3413 31.3715 27.3652C31.3596 27.3891 30.7741 27.8969 30.0692 28.5003C29.3643 29.0977 28.7131 29.6652 28.6235 29.7608C28.4502 29.946 28.4084 30.2088 28.516 30.4119C28.6056 30.5792 28.9521 30.6748 29.1313 30.5792C29.2926 30.4956 32.178 28.0582 32.5006 27.7356C32.7037 27.5325 32.7515 27.3353 32.638 27.1262C32.5843 27.0247 29.5614 24.414 29.2328 24.1811C29.0238 24.0377 28.7788 24.0556 28.6056 24.2288Z" fill="white"/>
<defs>
<linearGradient id="paint0_linear_544_141" x1="50" y1="50" x2="5" y2="-5.96046e-07" gradientUnits="userSpaceOnUse">
<stop stop-color="#F57163"/>
<stop offset="1" stop-color="#D764BB"/>
</linearGradient>
</defs>
</svg>
