<svg width="35" height="35" viewBox="0 0 35 35" fill="none" xmlns="http://www.w3.org/2000/svg">
<rect x="0.5" y="0.5" width="34" height="34" rx="17" stroke="#9999E0" stroke-dasharray="2 2"/>
<path d="M12.36 23H21.252V21.56H15.51L19.524 17.474C20.016 16.97 20.418 16.4 20.73 15.764C21.042 15.128 21.198 14.486 21.198 13.838C21.198 13.454 21.12 13.052 20.964 12.632C20.808 12.212 20.568 11.822 20.244 11.462C19.92 11.09 19.506 10.79 19.002 10.562C18.498 10.322 17.898 10.202 17.202 10.202C16.338 10.202 15.594 10.394 14.97 10.778C14.358 11.15 13.89 11.678 13.566 12.362C13.242 13.034 13.08 13.82 13.08 14.72H14.61C14.61 14.084 14.712 13.538 14.916 13.082C15.12 12.614 15.414 12.26 15.798 12.02C16.194 11.768 16.662 11.642 17.202 11.642C17.586 11.642 17.928 11.708 18.228 11.84C18.528 11.972 18.78 12.146 18.984 12.362C19.2 12.578 19.362 12.818 19.47 13.082C19.578 13.346 19.632 13.616 19.632 13.892C19.632 14.228 19.578 14.552 19.47 14.864C19.374 15.164 19.224 15.464 19.02 15.764C18.828 16.052 18.594 16.346 18.318 16.646L12.36 23Z" fill="#FE574C"/>
</svg>
