<svg width="62" height="57" viewBox="0 0 62 57" fill="none" xmlns="http://www.w3.org/2000/svg">
<path d="M5.14608 9.79946C-1.8374 16.2844 -0.221348 23.0111 1.43015 27.1399C7.62336 35.8101 13.8164 31.475 20.6288 35.8102C27.4412 40.1454 21.8675 51.2933 30.5379 55.0092C39.2082 58.725 50.9752 53.7705 57.7876 45.1002C64.6 36.4298 63.9805 18.4697 49.7365 7.94137C31.8837 -5.25441 13.8164 1.7481 5.14608 9.79946Z" fill="#FFF9E8"/>
<path d="M17.109 14.1766C13.0789 15.943 12.3961 16.2695 12.2996 16.4402C12.218 16.6035 12.2031 17.0043 12.218 18.5406C12.2402 20.4332 12.2402 20.4406 12.4184 20.5816C12.6484 20.7746 12.9602 20.7598 13.1531 20.552C13.3016 20.3961 13.3164 20.2996 13.3313 18.9637L13.3535 17.5461L17.3242 19.2902C19.5063 20.2477 21.3172 21.0492 21.3543 21.0863C21.384 21.116 21.3988 23.3797 21.3914 26.1258L21.3691 31.1059L17.3613 29.3766L13.3535 27.6547L13.3313 25.7547L13.3164 23.8473L13.116 23.6988C12.8043 23.4465 12.4852 23.5059 12.3145 23.8473C12.2254 24.0105 12.2031 24.4188 12.2031 25.8586V27.6621L7.70547 29.6289C4.98906 30.8164 3.16328 31.6551 3.10391 31.7441C3.01484 31.8629 3 32.8648 3 37.7262C3 43.1813 3.00742 43.5746 3.13359 43.7156C3.28203 43.8937 12.5223 47.8867 12.7746 47.8867C12.8711 47.8867 14.9641 47.0184 17.4281 45.957C19.8922 44.8957 21.948 44.0273 22 44.0273C22.052 44.0273 22.5938 44.2426 23.2098 44.5098C23.8258 44.777 24.3973 44.9922 24.4715 44.9922C24.8574 44.9922 25.1172 44.5988 24.9688 44.2426C24.8797 44.0273 24.7461 43.9531 23.3582 43.3594L22.5938 43.0328V37.9934C22.5938 33.1469 22.6012 32.9613 22.7273 32.9984C22.8016 33.0281 24.6199 33.8148 26.7574 34.75L30.6465 36.4496L30.6687 41.4668C30.6762 44.2203 30.6687 46.4766 30.6391 46.4766C30.6168 46.4766 30.0527 46.2465 29.3848 45.957C28.7168 45.675 28.1082 45.4375 28.034 45.4375C27.6852 45.4449 27.4551 45.868 27.6035 46.2168C27.6852 46.4172 27.8781 46.5211 29.3699 47.1668C30.2902 47.5602 31.1215 47.8867 31.218 47.8867C31.4777 47.8867 40.718 43.8937 40.8664 43.7156C40.9926 43.5746 41 43.1813 41 37.7262C41 32.8648 40.9852 31.8629 40.8961 31.7441C40.8367 31.6551 39.0109 30.8164 36.2945 29.6289L31.7969 27.6621V22.1328C31.7895 17.6277 31.7746 16.5664 31.693 16.4254C31.6113 16.277 30.6168 15.8168 26.891 14.1766C24.3008 13.041 22.1039 12.1133 22 12.1133C21.8961 12.1133 19.6992 13.041 17.109 14.1766ZM25.9484 14.9855C28.0637 15.9133 29.7781 16.6852 29.7559 16.7C29.741 16.7223 27.982 17.4941 25.8594 18.4293L22 20.1141L18.1406 18.4293C16.018 17.4941 14.259 16.7223 14.2441 16.7C14.1996 16.6555 21.7848 13.3156 21.9629 13.3082C22.0445 13.3008 23.8332 14.0578 25.9484 14.9855ZM30.6316 27.6324C30.5945 27.6621 28.7836 28.4563 26.6016 29.3988L22.6309 31.1059L22.6086 26.1258C22.6012 23.3797 22.616 21.116 22.6457 21.0863C22.6828 21.0492 24.4937 20.2477 26.6758 19.2902L30.6465 17.5461L30.6687 22.5633C30.6762 25.3242 30.6613 27.6027 30.6316 27.6324ZM16.7824 30.3785C19.3281 31.4918 20.5453 32.0633 20.4711 32.1004C20.4191 32.1301 18.6602 32.9094 16.5746 33.8223L12.782 35.4848L8.94492 33.8074C6.83711 32.8871 5.09297 32.1152 5.05586 32.0855C4.97422 32.0039 12.5816 28.6715 12.7969 28.6938C12.9008 28.7012 14.6895 29.4582 16.7824 30.3785ZM35.159 30.3488C37.2668 31.2766 38.9738 32.0559 38.9441 32.0855C38.907 32.1152 37.1629 32.8871 35.0551 33.8074L31.218 35.4848L27.4254 33.8223C25.3398 32.9094 23.5809 32.1301 23.5289 32.1004C23.4547 32.0633 24.6793 31.4844 27.2547 30.3563C29.3625 29.4285 31.1437 28.6715 31.2031 28.6641C31.2625 28.6641 33.0437 29.4211 35.159 30.3488ZM9.04883 35.0691L12.166 36.4348L12.1883 41.4594C12.1957 44.532 12.1809 46.4766 12.1363 46.4617C12.0992 46.4543 10.2809 45.6676 8.09141 44.7324L4.11328 43.0254V37.9637V32.902L5.02617 33.3027C5.52344 33.5254 7.33437 34.3195 9.04883 35.0691ZM39.8867 37.9563V43.0254L35.9086 44.7324C33.7191 45.6676 31.9008 46.4543 31.8637 46.4617C31.8191 46.4766 31.8043 44.532 31.8117 41.4594L31.834 36.4348L35.8418 34.6684C38.0461 33.7035 39.857 32.902 39.8719 32.902C39.8793 32.8945 39.8867 35.173 39.8867 37.9563ZM21.4062 38.0008V43.0328L17.4949 44.7176C15.3352 45.6379 13.5168 46.4172 13.4426 46.4469C13.3238 46.4914 13.3164 46.2316 13.3313 41.4742L13.3535 36.4496L17.3242 34.7129C19.5063 33.7555 21.3172 32.9688 21.3543 32.9688C21.384 32.9688 21.4062 35.2324 21.4062 38.0008Z" fill="#FDBE0C"/>
</svg>
