<svg width="64" height="59" viewBox="0 0 64 59" fill="none" xmlns="http://www.w3.org/2000/svg">
<rect x="5" width="59" height="59" rx="29.5" fill="#E7FFD5"/>
<path d="M16.0381 12.8818C15.8281 13.0834 15.8281 13.1086 15.8281 14.5615C15.8281 16.0145 15.8281 16.0396 16.0381 16.2412C16.1641 16.3756 16.3404 16.4512 16.5 16.4512C16.6596 16.4512 16.8359 16.3756 16.9619 16.2412C17.1719 16.0396 17.1719 16.0145 17.1719 14.5615C17.1719 13.1086 17.1719 13.0834 16.9619 12.8818C16.8359 12.7475 16.6596 12.6719 16.5 12.6719C16.3404 12.6719 16.1641 12.7475 16.0381 12.8818Z" fill="#95E158"/>
<path d="M7.07701 15.225C6.99302 15.2837 6.89224 15.4349 6.84185 15.5693C6.74107 15.8464 6.84185 16.0732 7.70689 17.5429C8.26119 18.4668 8.45435 18.6263 8.88267 18.5171C9.15142 18.45 9.39498 18.0216 9.32779 17.7445C9.2606 17.5009 8.13521 15.5441 7.90845 15.2921C7.71529 15.0822 7.30377 15.0486 7.07701 15.225Z" fill="#95E158"/>
<path d="M25.0916 15.2923C24.9993 15.4015 24.6465 15.9558 24.3106 16.5353C23.6135 17.7195 23.5211 18.1058 23.8823 18.3913C24.0922 18.5677 24.403 18.5929 24.6381 18.4669C24.7809 18.3997 26.0491 16.3001 26.1834 15.9222C26.2506 15.7374 26.1163 15.3679 25.9231 15.2251C25.6963 15.0488 25.2848 15.0823 25.0916 15.2923Z" fill="#95E158"/>
<path d="M14.6607 18.7692C13.1742 19.0295 11.377 19.777 10.1172 20.6588C9.22695 21.2803 7.97559 22.5737 7.3625 23.4807C6.07754 25.4291 5.49805 27.3524 5.49805 29.7207C5.49805 31.9463 5.85918 33.1473 7.22813 35.5157C8.9582 38.5139 9.4873 40.3952 9.60488 43.9561C9.65527 45.3502 9.70566 45.8793 9.80645 46.1145C9.99121 46.5512 10.5707 47.1475 10.999 47.3575L11.3602 47.5338L11.3938 48.3905C11.4189 49.054 11.4693 49.3227 11.6121 49.5915C11.8893 50.129 12.1748 50.4229 12.6787 50.6832L13.1406 50.9268V51.7247C13.1406 52.6905 13.3338 53.1776 13.9133 53.7067C14.518 54.2694 14.8875 54.345 16.7268 54.3114C18.1629 54.2862 18.3393 54.2694 18.65 54.1014C19.599 53.5975 19.9518 52.976 20.0105 51.7163L20.0525 50.8764L20.3213 50.7672C20.7076 50.6077 21.1779 50.1625 21.4383 49.7174C21.6398 49.3731 21.665 49.2303 21.6986 48.3905C21.7238 47.5002 21.7322 47.4498 21.917 47.4079C22.2277 47.3323 22.9416 46.6268 23.1432 46.1985C23.3195 45.8373 23.3447 45.6358 23.3951 43.9561C23.4791 41.5541 23.6975 40.244 24.3189 38.4803C24.6297 37.5985 24.9488 36.9518 25.8223 35.4317C26.7965 33.7268 27.1576 32.8282 27.376 31.5768C27.5439 30.6362 27.5355 28.7801 27.3676 27.7807C26.6033 23.3547 23.2188 19.8442 18.7256 18.8364C17.8857 18.6516 15.5678 18.6096 14.6607 18.7692ZM18.8516 20.2557C20.5229 20.7008 21.9758 21.5071 23.1684 22.6577C24.5793 24.0266 25.4107 25.4459 25.923 27.3692C26.1666 28.2846 26.2254 30.4262 26.0406 31.4256C25.8307 32.5258 25.5787 33.1221 24.5121 35.0202C23.118 37.5061 22.5721 39.043 22.2529 41.3694C22.1773 41.9153 22.0934 42.4864 22.0766 42.6291L22.0346 42.9063H20.7832H19.5234L19.5066 37.2541L19.4814 31.6104L18.2805 29.5528C17.617 28.419 17.0039 27.428 16.9031 27.344C16.8107 27.2684 16.626 27.2012 16.5 27.2012C16.374 27.2012 16.1893 27.2684 16.0969 27.344C15.9961 27.428 15.383 28.419 14.7195 29.5528L13.5186 31.6104L13.4934 37.2541L13.4766 42.9063H12.2168H10.9654L10.9234 42.6291C10.9066 42.4864 10.8227 41.9153 10.7471 41.3694C10.4279 39.043 9.88203 37.5061 8.48789 35.0202C7.42129 33.1221 7.16934 32.5258 6.95938 31.4256C6.77461 30.4262 6.8334 28.2846 7.07695 27.3692C7.59766 25.4291 8.4291 24.0014 9.85684 22.6409C11.2342 21.3223 12.9223 20.4657 14.8203 20.1045C15.8197 19.9114 17.8438 19.987 18.8516 20.2557ZM17.0795 30.1911C17.365 30.6782 17.5918 31.1149 17.5918 31.1569C17.5918 31.1989 17.1047 31.2325 16.5 31.2325C15.9037 31.2325 15.4082 31.1989 15.4082 31.1569C15.4082 31.0309 16.4244 29.3008 16.5 29.3008C16.542 29.3008 16.8023 29.704 17.0795 30.1911ZM18.1629 37.7161L18.1377 42.8643H16.5H14.8623L14.8371 37.7161L14.8203 32.5762H16.5H18.1797L18.1629 37.7161ZM22.043 44.8127C22.043 45.5182 21.8666 45.9129 21.4551 46.1145C21.1863 46.2489 20.7664 46.2657 16.5 46.2657C12.2336 46.2657 11.8137 46.2489 11.5449 46.1145C11.1334 45.9129 10.957 45.5182 10.957 44.8127V44.25H16.5H22.043V44.8127ZM20.3633 48.2477C20.3633 48.7012 20.3213 48.9532 20.2205 49.1295C19.935 49.6082 19.8342 49.625 16.5252 49.625C13.6949 49.625 13.5018 49.6166 13.2498 49.4571C12.8635 49.2219 12.7207 48.8944 12.7207 48.1973V47.6094H16.542H20.3633V48.2477ZM18.6836 51.5147C18.6836 52.195 18.524 52.5981 18.1629 52.8165C17.9193 52.9676 17.743 52.9844 16.5588 52.9844C14.6943 52.9844 14.4844 52.8416 14.4844 51.5987V50.9688H16.584H18.6836V51.5147Z" fill="#95E158"/>
<path d="M0.375061 21.9102C0.156701 22.1285 0.148303 22.6072 0.366662 22.8256C0.643811 23.1027 2.76862 24.2617 3.00377 24.2617C3.27252 24.2617 3.54127 24.0182 3.61686 23.7074C3.70924 23.3547 3.43209 23.0943 2.21432 22.3973C1.00494 21.6918 0.677404 21.6078 0.375061 21.9102Z" fill="#95E158"/>
<path d="M30.7856 22.3973C29.5678 23.0943 29.2907 23.3547 29.383 23.7074C29.4586 24.0182 29.7274 24.2617 29.9961 24.2617C30.2313 24.2617 32.3561 23.1027 32.6332 22.8256C32.8516 22.6072 32.8432 22.1285 32.6248 21.9102C32.3225 21.6078 31.995 21.7002 30.7856 22.3973Z" fill="#95E158"/>
</svg>
