<svg width="20" height="20" viewBox="0 0 20 20" fill="none" xmlns="http://www.w3.org/2000/svg">
<path d="M8.47992 0.0835629C8.29398 0.199261 8.24026 0.33975 8.08324 1.09178L7.95102 1.75291L7.31882 1.96777C6.96759 2.08347 6.44282 2.30247 6.14945 2.45535L5.62055 2.72394L4.99661 2.31487C4.33135 1.87274 4.19086 1.82315 3.93467 1.95951C3.80245 2.03389 2.01328 3.82719 1.94716 3.95529C1.92237 4.00487 1.90171 4.12057 1.90171 4.21147C1.90171 4.35196 1.96369 4.46766 2.31491 4.99656L2.72399 5.61637L2.45127 6.1494C2.30252 6.44277 2.08352 6.96754 1.96782 7.31877L1.75296 7.95097L1.05051 8.09972C0.66623 8.18236 0.310875 8.27327 0.257158 8.30219C0.203441 8.33112 0.124933 8.41376 0.0836123 8.484C0.00510349 8.60796 0.000971451 8.703 0.000971451 10.0005C0.000971451 11.8062 -0.0734053 11.6781 1.07943 11.9053L1.76122 12.0417L1.95543 12.6408C2.12071 13.1532 2.48846 13.9755 2.68267 14.2813C2.73225 14.3556 2.70333 14.4176 2.33971 14.963C1.93477 15.5705 1.86452 15.7481 1.91824 15.9795C1.95129 16.1076 3.74047 17.9381 3.93467 18.0414C4.19086 18.1736 4.33135 18.1282 4.99661 17.6861L5.62055 17.277L6.14945 17.5456C6.44696 17.6985 6.96759 17.9175 7.31882 18.0331L7.95515 18.248L8.09977 18.9505C8.18241 19.3347 8.26919 19.6901 8.30224 19.7438C8.33117 19.7975 8.41381 19.876 8.48405 19.9174C8.60801 19.9959 8.70305 20 10.0005 20C11.298 20 11.393 19.9959 11.517 19.9174C11.5872 19.876 11.6699 19.7975 11.6988 19.7438C11.7318 19.6901 11.8186 19.3347 11.9012 18.9505L12.0459 18.248L12.6822 18.0331C13.0334 17.9175 13.5582 17.6985 13.8516 17.5497L14.3846 17.277L15.0044 17.6861C15.6697 18.1282 15.8102 18.1736 16.0663 18.0414C16.1986 17.967 17.9877 16.1737 18.0539 16.0456C18.0786 15.9961 18.0993 15.8804 18.0993 15.7895C18.0993 15.649 18.0373 15.5333 17.6861 15.0044L17.277 14.3846L17.5497 13.8515C17.6985 13.5581 17.9175 13.0334 18.0332 12.6822L18.2481 12.05L18.9092 11.9177C19.6612 11.7607 19.8017 11.707 19.9174 11.5211C19.9959 11.393 20 11.3103 20 10.0005C20 8.6906 19.9959 8.60796 19.9174 8.47987C19.8017 8.29393 19.6612 8.24021 18.9092 8.08319L18.2481 7.95097L18.0332 7.31877C17.9175 6.96754 17.6985 6.44277 17.5456 6.1494L17.277 5.6205L17.6861 4.99656C18.0373 4.46766 18.0993 4.35196 18.0993 4.21147C18.0993 4.12057 18.0786 4.00487 18.0539 3.95529C17.9877 3.82719 16.1986 2.03389 16.0663 1.95951C15.8102 1.82728 15.6697 1.87274 15.0044 2.31487L14.3846 2.72394L13.8516 2.45122C13.5582 2.30247 13.0334 2.08347 12.6822 1.96777L12.0459 1.75291L11.9012 1.05046C11.8186 0.666182 11.7318 0.310825 11.6988 0.257109C11.6699 0.203392 11.5872 0.124884 11.517 0.0835629C11.393 0.00505447 11.298 0.000923157 10.0005 0.000923157C8.69065 0.000923157 8.60801 0.00505447 8.47992 0.0835629ZM11.3847 1.3645C11.488 1.87687 11.5624 2.16611 11.6079 2.20743C11.6451 2.23636 11.8599 2.31487 12.0872 2.37685C12.7607 2.55866 13.4549 2.85203 14.0334 3.19912C14.1656 3.28176 14.3226 3.34788 14.3805 3.34788C14.4425 3.34788 14.7441 3.17433 15.1408 2.90988L15.7978 2.47188L16.6614 3.33961L17.5291 4.20321L17.0911 4.8602C16.8514 5.22382 16.6531 5.55852 16.6531 5.61223C16.6531 5.66595 16.7647 5.90561 16.8969 6.1494C17.1985 6.6907 17.4754 7.36422 17.6241 7.91378C17.6861 8.14104 17.7646 8.35591 17.7935 8.3931C17.8349 8.43855 18.1241 8.51293 18.6365 8.61623L19.4216 8.77324V10.0005V11.2277L18.6489 11.3806C18.2191 11.4673 17.839 11.5665 17.8018 11.5996C17.7646 11.6326 17.7109 11.7566 17.682 11.8723C17.5415 12.4797 17.1944 13.3433 16.8556 13.93C16.744 14.1284 16.6531 14.3308 16.6531 14.3846C16.6531 14.4424 16.839 14.7647 17.0911 15.1407L17.5291 15.7977L16.6614 16.6613L15.7978 17.529L15.1408 17.091C14.7771 16.8514 14.4425 16.653 14.3887 16.653C14.335 16.653 14.0954 16.7646 13.8516 16.901C13.302 17.2067 12.7194 17.4464 12.1285 17.6117C11.8806 17.6819 11.6451 17.7646 11.6079 17.7976C11.5624 17.8348 11.488 18.1241 11.3847 18.6364L11.2277 19.4215H10.0005H8.77329L8.61628 18.6364C8.51711 18.1282 8.4386 17.8348 8.39315 17.7935C8.35596 17.7604 8.2072 17.7026 8.05845 17.6654C7.41385 17.5001 6.71967 17.2191 6.11639 16.8803C5.89326 16.7563 5.666 16.653 5.61228 16.653C5.55857 16.653 5.23214 16.8431 4.86025 17.091L4.20326 17.529L3.33966 16.6613L2.47193 15.7977L2.90993 15.1407C3.14959 14.7771 3.34792 14.4424 3.34792 14.3887C3.34792 14.335 3.23636 14.0953 3.1 13.8515C2.81076 13.3268 2.52152 12.6284 2.37276 12.0747C2.31491 11.8557 2.23641 11.645 2.20748 11.6078C2.16616 11.5624 1.87692 11.488 1.36454 11.3847L0.579457 11.2277V10.0005V8.77324L1.36454 8.61623C1.87692 8.51293 2.16616 8.43855 2.20748 8.3931C2.23641 8.35591 2.31491 8.14104 2.37689 7.91378C2.52565 7.36422 2.8025 6.6907 3.10413 6.1494C3.23636 5.90561 3.34792 5.66595 3.34792 5.61223C3.34792 5.55852 3.14959 5.22382 2.90993 4.8602L2.47193 4.20321L3.33966 3.33961L4.20326 2.47188L4.86025 2.90988C5.23627 3.16193 5.55857 3.34788 5.61642 3.34788C5.67013 3.34788 5.8726 3.25697 6.07094 3.1454C6.65356 2.81071 7.32708 2.53386 7.99647 2.35205C8.17828 2.3066 8.35596 2.23636 8.39315 2.20743C8.4386 2.16611 8.51298 1.87687 8.61628 1.3645L8.77329 0.579409H10.0005H11.2277L11.3847 1.3645Z" fill="#1C4DF9"/>
<path d="M9.16324 4.05033C6.62617 4.45113 4.67998 6.26923 4.12629 8.76085C4.04365 9.13274 4.03125 9.30628 4.03125 10.0005C4.03125 10.6946 4.04365 10.8682 4.12629 11.2401C4.64279 13.554 6.38238 15.3184 8.6798 15.8556C9.20043 15.9754 10.2541 16.0374 10.4111 15.9547C10.5475 15.8804 10.5929 15.7233 10.5186 15.5829C10.4442 15.4341 10.3657 15.4134 9.85743 15.4134C8.54344 15.4134 7.25837 14.8721 6.24189 13.9011C5.40309 13.0912 4.84939 12.0582 4.65106 10.9219C4.56842 10.4591 4.57255 9.53354 4.65106 9.06662C4.84939 7.94271 5.39482 6.9221 6.23776 6.10395C7.03524 5.33539 8.00214 4.83541 9.06821 4.64947C9.53513 4.57096 10.4607 4.56683 10.9235 4.64947C12.002 4.83541 12.9689 5.33126 13.7663 6.10395C14.8283 7.13283 15.415 8.47987 15.415 9.9013C15.415 10.4095 15.4522 10.5087 15.6712 10.5624C15.758 10.5831 15.8076 10.5624 15.8943 10.4756L16.0059 10.3641L15.9811 9.74015C15.9646 9.28975 15.9274 8.98811 15.8572 8.67821C15.3241 6.40559 13.6011 4.68253 11.3243 4.14536C10.9689 4.06272 10.7582 4.04206 10.1467 4.02967C9.7376 4.0214 9.29547 4.02967 9.16324 4.05033Z" fill="#1C4DF9"/>
<path d="M10.8319 7.16122C10.7451 7.20254 10.5839 7.60748 9.74928 9.85531C9.20798 11.3098 8.76585 12.5494 8.76172 12.6114C8.76172 12.6816 8.79891 12.7519 8.86915 12.8056C9.00551 12.913 9.09641 12.913 9.20798 12.818C9.30302 12.7395 11.2409 7.54964 11.2409 7.38022C11.2409 7.31824 11.1955 7.24386 11.1335 7.19428C11.0054 7.09511 10.9682 7.09098 10.8319 7.16122Z" fill="#1C4DF9"/>
<path d="M7.94857 8.78934C6.63871 9.89259 6.65524 9.87606 6.71309 10.0909C6.72549 10.1446 6.94449 10.3636 7.20067 10.5785C8.30806 11.5165 8.22129 11.4504 8.38244 11.438C8.55598 11.4214 8.66755 11.2768 8.62623 11.1115C8.6097 11.0496 8.3783 10.8223 8.01882 10.5207C7.70065 10.2521 7.44033 10.0166 7.44033 10C7.44033 9.97936 7.70065 9.74797 8.01882 9.47939C8.38657 9.16948 8.6097 8.95462 8.62623 8.8885C8.66755 8.72322 8.56011 8.5786 8.38244 8.56207C8.25434 8.54968 8.19649 8.5786 7.94857 8.78934Z" fill="#1C4DF9"/>
<path d="M11.4315 8.64451C11.3406 8.77674 11.3488 8.9131 11.4604 9.02053C11.51 9.07011 11.7786 9.30564 12.0595 9.54117C12.3364 9.77669 12.5637 9.98329 12.5637 9.99982C12.5637 10.0205 12.3033 10.2519 11.9852 10.5246C11.6257 10.8221 11.3943 11.0494 11.3778 11.1113C11.3364 11.2766 11.448 11.4212 11.6215 11.4378C11.7786 11.4502 11.7579 11.4667 12.9273 10.475C13.4314 10.0494 13.4314 9.95024 12.9273 9.52464C11.8034 8.57014 11.7827 8.55361 11.6339 8.55361C11.5348 8.55361 11.4728 8.58253 11.4315 8.64451Z" fill="#1C4DF9"/>
<path d="M15.0139 12.2729C14.9643 12.2936 14.8817 12.3886 14.8321 12.4878C14.7825 12.5869 14.6709 12.777 14.5842 12.9175C14.3982 13.2109 14.3776 13.3927 14.5139 13.4877C14.6503 13.5828 14.7866 13.5662 14.9023 13.4423C15.0511 13.2811 15.4147 12.6365 15.4147 12.5374C15.4147 12.3473 15.1916 12.2027 15.0139 12.2729Z" fill="#1C4DF9"/>
<path d="M12.7902 14.6491C12.3564 14.9052 12.2324 15.0085 12.2324 15.116C12.2324 15.2482 12.3894 15.4135 12.5134 15.4135C12.6332 15.4135 13.2654 15.0623 13.4431 14.9011C13.5753 14.7771 13.5877 14.6201 13.472 14.5044C13.3439 14.3763 13.1952 14.4094 12.7902 14.6491Z" fill="#1C4DF9"/>
</svg>
