<svg width="62" height="57" viewBox="0 0 62 57" fill="none" xmlns="http://www.w3.org/2000/svg">
<path d="M5.14608 9.79946C-1.8374 16.2844 -0.221348 23.0111 1.43015 27.1399C7.62336 35.8101 13.8164 31.475 20.6288 35.8102C27.4412 40.1454 21.8675 51.2933 30.5379 55.0092C39.2082 58.725 50.9752 53.7705 57.7876 45.1002C64.6 36.4298 63.9805 18.4697 49.7365 7.94137C31.8837 -5.25441 13.8164 1.7481 5.14608 9.79946Z" fill="#FF3F33" fill-opacity="0.08"/>
<path d="M35.7054 14.1237C35.2157 14.2492 34.9896 14.356 34.5564 14.6448C34.2802 14.8268 19.9721 29.0596 19.7335 29.3924C19.6017 29.5744 17.668 36.4365 17.668 36.7253C17.668 37.0769 18.0761 37.4787 18.4339 37.4787C18.7102 37.4787 25.5786 35.5388 25.7543 35.4132C25.8485 35.3441 29.1634 32.048 33.125 28.0802C38.3799 22.819 40.3889 20.766 40.5773 20.471C41.0419 19.7427 41.2365 18.7758 41.0921 17.9157C41.0481 17.6709 40.9037 17.2565 40.7593 16.9489C40.5333 16.4717 40.414 16.3273 39.6167 15.53C38.8194 14.7327 38.675 14.6196 38.1978 14.3874C37.3503 13.9793 36.5655 13.8976 35.7054 14.1237ZM37.5261 15.8313C37.8714 16.0009 39.1458 17.2816 39.3342 17.6395C39.4597 17.8781 39.4849 18.0162 39.4849 18.5184C39.4849 19.2781 39.3719 19.523 38.6561 20.2701L38.1413 20.81L36.239 18.9077L34.3367 17.0054L34.8892 16.478C35.1968 16.1892 35.5672 15.8941 35.7179 15.8188C36.2641 15.5551 36.9924 15.5614 37.5261 15.8313ZM35.1215 20.0566L36.9736 21.9087L31.116 27.76L25.2646 33.6176L23.4126 31.7655C22.3955 30.7485 21.5605 29.8883 21.5605 29.8507C21.5605 29.769 33.125 18.2045 33.2066 18.2045C33.2443 18.2045 34.1044 19.0395 35.1215 20.0566ZM23.6825 34.3961C23.4502 34.4715 19.6456 35.5199 19.6331 35.5136C19.6268 35.5074 19.8214 34.7916 20.06 33.9315C20.2986 33.0651 20.556 32.1422 20.6313 31.866L20.7631 31.3763L22.2574 32.8705C23.0861 33.6992 23.7202 34.3836 23.6825 34.3961Z" fill="#FF4E43"/>
<path d="M12.0173 17.2377C10.7052 17.5892 9.69437 18.531 9.22978 19.8369L9.03516 20.3705V31.5144C9.03516 42.1435 9.04143 42.6771 9.14816 43.0287C9.38046 43.7821 9.63159 44.2027 10.1966 44.7678C10.5922 45.1633 10.8496 45.3642 11.1823 45.5274C12.0989 45.9857 11.2011 45.9606 24.4482 45.9418L36.3455 45.923L36.7661 45.7597C38.003 45.2763 38.8756 44.3911 39.2837 43.1919C39.4218 42.7901 39.4218 42.7273 39.4407 38.7344C39.4595 35.0993 39.4532 34.6661 39.3591 34.4903C39.2272 34.2391 38.9573 34.0885 38.6433 34.0885C38.4362 34.0885 38.3357 34.1324 38.1474 34.3019L37.9151 34.5154L37.8837 38.4958C37.8523 42.4574 37.8523 42.4699 37.7079 42.8278C37.4505 43.4682 36.9671 43.9516 36.3267 44.209L35.9688 44.3534L24.4545 44.3722C16.8516 44.3785 12.8209 44.366 12.5886 44.322C11.8353 44.1839 11.1635 43.6691 10.8496 42.9847L10.6675 42.5955V31.5458V20.4961L10.8496 20.1005C11.0819 19.5983 11.6155 19.0897 12.1241 18.8826L12.4882 18.7382L16.4435 18.7068C20.8634 18.6691 20.6122 18.7005 20.8383 18.2233C20.9826 17.922 20.9199 17.6269 20.6436 17.357L20.4239 17.1372L16.3933 17.1435C13.047 17.1435 12.3061 17.1623 12.0173 17.2377Z" fill="#FF4E43"/>
</svg>
