<svg width="62" height="57" viewBox="0 0 62 57" fill="none" xmlns="http://www.w3.org/2000/svg">
<path d="M5.14608 9.79946C-1.8374 16.2844 -0.221348 23.0111 1.43015 27.1399C7.62336 35.8101 13.8164 31.475 20.6288 35.8102C27.4412 40.1454 21.8675 51.2933 30.5379 55.0092C39.2082 58.725 50.9752 53.7705 57.7876 45.1002C64.6 36.4298 63.9805 18.4697 49.7365 7.94137C31.8837 -5.25441 13.8164 1.7481 5.14608 9.79946Z" fill="#EBF8FF"/>
<path d="M24.2557 12.2691C22.0217 12.4769 19.4166 13.2933 17.4276 14.3918C12.2323 17.2789 8.81078 22.5039 8.26898 28.3672C7.95726 31.7441 8.69945 35.3957 10.31 38.357L10.6366 38.9507L9.38968 42.6765C8.19476 46.2687 8.15765 46.4097 8.26156 46.6101C8.32835 46.7214 8.46937 46.855 8.5807 46.907C8.76625 46.9961 9.0557 46.9144 12.351 45.816L15.9284 44.6285L16.344 44.9105C17.5018 45.6972 19.1494 46.4691 20.76 46.9886C25.7994 48.5992 31.3584 47.805 35.8709 44.8214C37.2069 43.9308 38.7729 42.5207 39.7748 41.2812C45.5713 34.134 45.0592 23.914 38.5799 17.4125C34.8319 13.6496 29.592 11.7718 24.2557 12.2691ZM27.5213 13.4492C31.4772 13.8129 35.1733 15.5941 37.9565 18.4738C40.3537 20.9601 41.8159 23.8769 42.417 27.4023C42.5506 28.1668 42.5803 28.6269 42.5803 30C42.5803 31.8035 42.469 32.7238 42.0682 34.2601C40.7248 39.4183 36.7764 43.7453 31.7073 45.6156C28.9092 46.6472 25.703 46.8847 22.7342 46.2836C20.8194 45.8976 18.5037 44.9476 16.908 43.8937C16.5444 43.6488 16.1733 43.4336 16.0916 43.4039C15.9952 43.3742 14.8151 43.7379 12.8409 44.391C11.1412 44.9625 9.74593 45.4004 9.74593 45.3781C9.74593 45.3484 10.2284 43.8714 10.8221 42.0976L11.8983 38.8765L11.2452 37.5777C9.88695 34.8613 9.28578 32.1894 9.40453 29.3691C9.58265 25.005 11.3491 21.064 14.4737 18.0433C17.9694 14.6738 22.6971 13.0039 27.5213 13.4492Z" fill="#24ABF5"/>
<path d="M19.4094 28.3523C18.734 28.6269 18.2812 29.28 18.2812 29.9999C18.2812 31.2617 19.6023 32.1374 20.7305 31.6253C21.443 31.3062 21.7992 30.757 21.7992 29.9999C21.7992 28.7457 20.5672 27.8921 19.4094 28.3523ZM20.3223 29.4507C20.3816 29.4804 20.493 29.5992 20.5523 29.7179C20.8641 30.3191 20.1219 30.8832 19.6543 30.4082C19.1867 29.948 19.6988 29.2132 20.3223 29.4507Z" fill="#24ABF5"/>
<path d="M25.4061 28.3152C25.0424 28.434 24.419 29.0722 24.3077 29.4508C24.0998 30.1484 24.2483 30.705 24.7752 31.2246C25.2948 31.7515 25.8514 31.9 26.5491 31.6922C26.9573 31.5734 27.5733 30.9574 27.692 30.5492C27.8998 29.8515 27.7514 29.2949 27.2245 28.7754C26.7049 28.2484 26.0963 28.1 25.4061 28.3152ZM26.408 29.5918C26.7791 29.9554 26.5194 30.5937 25.9998 30.5937C25.8588 30.5937 25.703 30.5269 25.5916 30.4082C25.2205 30.0445 25.4803 29.4062 25.9998 29.4062C26.1409 29.4062 26.2967 29.473 26.408 29.5918Z" fill="#24ABF5"/>
<path d="M31.2844 28.3523C30.609 28.6269 30.1562 29.28 30.1562 29.9999C30.1562 31.2617 31.4773 32.1374 32.6055 31.6253C33.318 31.3062 33.6742 30.757 33.6742 29.9999C33.6742 28.7457 32.4422 27.8921 31.2844 28.3523ZM32.2418 29.5027C32.5684 29.755 32.5906 30.1632 32.2938 30.4453C31.9449 30.7718 31.3438 30.4898 31.3438 29.9999C31.3438 29.5546 31.9078 29.2429 32.2418 29.5027Z" fill="#24ABF5"/>
</svg>
