<svg width="39" height="39" viewBox="0 0 39 39" fill="none" xmlns="http://www.w3.org/2000/svg">
<mask id="path-1-inside-1_74_626" fill="white">
<path d="M12.3517 0.131855C10.6027 0.424976 8.96126 1.00145 7.47611 1.82219C6.40134 2.42797 6.19615 2.62338 6.19615 3.06306C6.19615 3.84472 6.87033 4.01082 7.79855 3.44412C9.95787 2.14462 12.0781 1.54861 14.5989 1.53883C16.2893 1.52906 17.5399 1.71471 18.9762 2.19347C23.4414 3.66885 26.6951 7.25469 27.7308 11.8274C28.444 14.9442 27.9262 18.5105 26.3726 21.2268C25.8548 22.1452 25.8255 22.4286 26.2261 22.878C26.441 23.1223 26.5192 23.3177 26.5192 23.5815C26.5192 23.9137 26.4215 24.0407 25.2588 25.2034C24.0961 26.3662 23.969 26.4639 23.6368 26.4639C23.373 26.4639 23.1776 26.3857 22.9333 26.1707C22.4839 25.7701 22.2005 25.7995 21.2821 26.3173C19.2205 27.4996 17.0123 27.9979 14.3254 27.9002C12.2051 27.822 10.8372 27.4898 8.96126 26.6104C6.13753 25.2816 3.90004 22.966 2.64939 20.0836C1.06654 16.4196 1.22287 11.9251 3.06953 8.51511C3.50921 7.6846 3.5483 7.4501 3.25517 7.07882C2.99137 6.73684 2.47352 6.72707 2.14132 7.05927C1.82865 7.37194 1.08608 8.92548 0.744107 10.0003C-0.692184 14.4068 -0.0277774 19.2238 2.55169 23.1321C3.27472 24.2264 5.28748 26.2391 6.36225 26.9524L7.16345 27.48L6.93873 27.8806C6.81171 28.0956 6.52836 28.633 6.30363 29.0629L5.89326 29.8641L5.48289 29.7664C3.90981 29.4048 1.98499 30.421 1.22287 32.0332C0.998145 32.5022 0.968833 32.6976 0.968833 33.5965C0.968833 34.5051 0.998145 34.6908 1.23264 35.1793C1.53553 35.834 2.23902 36.6156 2.81549 36.9576C4.75986 38.1008 7.26116 37.3289 8.26754 35.277C8.57043 34.6712 8.58997 34.5638 8.58997 33.5965C8.58997 32.6878 8.56066 32.5022 8.32616 32.0136C8.18937 31.7107 7.88648 31.2613 7.67153 31.0268L7.27093 30.5871L7.86694 29.4537C8.18937 28.8284 8.49227 28.3008 8.53135 28.2812C8.57043 28.2519 8.92218 28.3594 9.30323 28.5157C11.3551 29.3462 14.0322 29.7273 16.2111 29.5026C18.1066 29.2974 20.178 28.7014 21.6241 27.9295L22.1712 27.6364L22.5621 27.8318C22.992 28.0565 24.0472 28.1053 24.3892 27.9197C24.5651 27.822 24.6725 27.8904 25.3272 28.545C26.0502 29.2681 26.06 29.2778 25.9427 29.5905C25.6105 30.5676 25.9427 31.4469 27.0859 32.551C27.9359 33.3717 28.2388 33.4792 28.6492 33.1079C29.1573 32.6389 29.0205 32.2188 28.0434 31.2515C27.0761 30.3038 27.0859 30.2744 28.7078 28.6525C29.8705 27.4898 30.0562 27.3432 30.3493 27.3432C30.6522 27.3432 30.9355 27.607 33.9645 30.636C37.1497 33.8505 37.2474 33.9482 37.3647 34.4563C37.7262 36.0001 36.6709 37.3484 35.1174 37.3484C34.4139 37.3484 33.8765 37.1335 33.4564 36.6742C33.1828 36.3811 32.7627 36.1369 32.5282 36.1369C32.2741 36.1369 31.7954 36.6742 31.7954 36.9674C31.7954 37.3191 32.5379 38.091 33.2414 38.4623C34.4237 39.0974 35.8111 39.0974 36.9934 38.4623C38.8107 37.495 39.5142 35.1696 38.5665 33.2643C38.2049 32.5315 32.0494 26.3466 31.3557 26.0144C30.8183 25.7604 30.1637 25.7115 29.6458 25.8874C29.3331 26.0046 29.3234 25.9949 28.6003 25.2718C27.9457 24.6172 27.8773 24.5097 27.975 24.3339C28.1509 23.9919 28.1118 22.9366 27.8871 22.5165L27.7014 22.1355L28.1314 21.2463C29.2843 18.8427 29.7826 16.146 29.5579 13.547C29.4895 12.8435 29.4309 12.228 29.4211 12.1693C29.4113 12.1205 29.8803 11.9642 30.4665 11.8274L31.5316 11.5733L31.6879 11.7981C33.2317 14.0453 35.9088 14.4557 37.7457 12.736C38.3613 12.1596 38.6837 11.6124 38.8889 10.8112C39.3286 9.10135 38.4297 7.21561 36.7882 6.40464C36.1922 6.11152 36.0847 6.09198 35.1174 6.09198C34.1892 6.09198 34.0329 6.12129 33.5345 6.36555C32.3034 6.97134 31.3948 8.20245 31.2482 9.46287L31.1896 10.0296L30.1148 10.2934C29.5286 10.4399 29.04 10.5474 29.0205 10.5279C29.0009 10.5083 28.8935 10.1761 28.7664 9.80484C27.6819 6.43395 24.8582 3.20962 21.5361 1.54861C20.1292 0.854885 18.6147 0.366352 17.0416 0.131855C15.918 -0.0440178 13.3776 -0.0440178 12.3517 0.131855ZM36.1629 7.8507C37.3647 8.45648 37.7946 9.93186 37.1204 11.0848C36.2215 12.6188 34.0133 12.6188 33.1144 11.0848C31.9517 9.10135 34.0915 6.82478 36.1629 7.8507ZM27.6233 27.5582L27.0663 28.1249L26.4508 27.5191L25.8352 26.9133L26.3922 26.3466L26.9491 25.7799L27.5647 26.3857L28.1802 26.9915L27.6233 27.5582ZM5.42427 31.3688C6.02028 31.5642 6.53813 31.9941 6.82148 32.5217C7.06574 32.9711 7.09506 33.0982 7.05597 33.743C7.02666 34.3488 6.97781 34.5247 6.73354 34.8862C6.56744 35.1109 6.21569 35.4334 5.95189 35.5995C5.54152 35.8535 5.38519 35.8926 4.7794 35.8926C4.17362 35.8926 4.01729 35.8535 3.59715 35.5995C2.54191 34.9448 2.16086 33.5769 2.7471 32.5119C3.28449 31.5251 4.43743 31.0268 5.42427 31.3688Z"/>
</mask>
<path d="M12.3517 0.131855C10.6027 0.424976 8.96126 1.00145 7.47611 1.82219C6.40134 2.42797 6.19615 2.62338 6.19615 3.06306C6.19615 3.84472 6.87033 4.01082 7.79855 3.44412C9.95787 2.14462 12.0781 1.54861 14.5989 1.53883C16.2893 1.52906 17.5399 1.71471 18.9762 2.19347C23.4414 3.66885 26.6951 7.25469 27.7308 11.8274C28.444 14.9442 27.9262 18.5105 26.3726 21.2268C25.8548 22.1452 25.8255 22.4286 26.2261 22.878C26.441 23.1223 26.5192 23.3177 26.5192 23.5815C26.5192 23.9137 26.4215 24.0407 25.2588 25.2034C24.0961 26.3662 23.969 26.4639 23.6368 26.4639C23.373 26.4639 23.1776 26.3857 22.9333 26.1707C22.4839 25.7701 22.2005 25.7995 21.2821 26.3173C19.2205 27.4996 17.0123 27.9979 14.3254 27.9002C12.2051 27.822 10.8372 27.4898 8.96126 26.6104C6.13753 25.2816 3.90004 22.966 2.64939 20.0836C1.06654 16.4196 1.22287 11.9251 3.06953 8.51511C3.50921 7.6846 3.5483 7.4501 3.25517 7.07882C2.99137 6.73684 2.47352 6.72707 2.14132 7.05927C1.82865 7.37194 1.08608 8.92548 0.744107 10.0003C-0.692184 14.4068 -0.0277774 19.2238 2.55169 23.1321C3.27472 24.2264 5.28748 26.2391 6.36225 26.9524L7.16345 27.48L6.93873 27.8806C6.81171 28.0956 6.52836 28.633 6.30363 29.0629L5.89326 29.8641L5.48289 29.7664C3.90981 29.4048 1.98499 30.421 1.22287 32.0332C0.998145 32.5022 0.968833 32.6976 0.968833 33.5965C0.968833 34.5051 0.998145 34.6908 1.23264 35.1793C1.53553 35.834 2.23902 36.6156 2.81549 36.9576C4.75986 38.1008 7.26116 37.3289 8.26754 35.277C8.57043 34.6712 8.58997 34.5638 8.58997 33.5965C8.58997 32.6878 8.56066 32.5022 8.32616 32.0136C8.18937 31.7107 7.88648 31.2613 7.67153 31.0268L7.27093 30.5871L7.86694 29.4537C8.18937 28.8284 8.49227 28.3008 8.53135 28.2812C8.57043 28.2519 8.92218 28.3594 9.30323 28.5157C11.3551 29.3462 14.0322 29.7273 16.2111 29.5026C18.1066 29.2974 20.178 28.7014 21.6241 27.9295L22.1712 27.6364L22.5621 27.8318C22.992 28.0565 24.0472 28.1053 24.3892 27.9197C24.5651 27.822 24.6725 27.8904 25.3272 28.545C26.0502 29.2681 26.06 29.2778 25.9427 29.5905C25.6105 30.5676 25.9427 31.4469 27.0859 32.551C27.9359 33.3717 28.2388 33.4792 28.6492 33.1079C29.1573 32.6389 29.0205 32.2188 28.0434 31.2515C27.0761 30.3038 27.0859 30.2744 28.7078 28.6525C29.8705 27.4898 30.0562 27.3432 30.3493 27.3432C30.6522 27.3432 30.9355 27.607 33.9645 30.636C37.1497 33.8505 37.2474 33.9482 37.3647 34.4563C37.7262 36.0001 36.6709 37.3484 35.1174 37.3484C34.4139 37.3484 33.8765 37.1335 33.4564 36.6742C33.1828 36.3811 32.7627 36.1369 32.5282 36.1369C32.2741 36.1369 31.7954 36.6742 31.7954 36.9674C31.7954 37.3191 32.5379 38.091 33.2414 38.4623C34.4237 39.0974 35.8111 39.0974 36.9934 38.4623C38.8107 37.495 39.5142 35.1696 38.5665 33.2643C38.2049 32.5315 32.0494 26.3466 31.3557 26.0144C30.8183 25.7604 30.1637 25.7115 29.6458 25.8874C29.3331 26.0046 29.3234 25.9949 28.6003 25.2718C27.9457 24.6172 27.8773 24.5097 27.975 24.3339C28.1509 23.9919 28.1118 22.9366 27.8871 22.5165L27.7014 22.1355L28.1314 21.2463C29.2843 18.8427 29.7826 16.146 29.5579 13.547C29.4895 12.8435 29.4309 12.228 29.4211 12.1693C29.4113 12.1205 29.8803 11.9642 30.4665 11.8274L31.5316 11.5733L31.6879 11.7981C33.2317 14.0453 35.9088 14.4557 37.7457 12.736C38.3613 12.1596 38.6837 11.6124 38.8889 10.8112C39.3286 9.10135 38.4297 7.21561 36.7882 6.40464C36.1922 6.11152 36.0847 6.09198 35.1174 6.09198C34.1892 6.09198 34.0329 6.12129 33.5345 6.36555C32.3034 6.97134 31.3948 8.20245 31.2482 9.46287L31.1896 10.0296L30.1148 10.2934C29.5286 10.4399 29.04 10.5474 29.0205 10.5279C29.0009 10.5083 28.8935 10.1761 28.7664 9.80484C27.6819 6.43395 24.8582 3.20962 21.5361 1.54861C20.1292 0.854885 18.6147 0.366352 17.0416 0.131855C15.918 -0.0440178 13.3776 -0.0440178 12.3517 0.131855ZM36.1629 7.8507C37.3647 8.45648 37.7946 9.93186 37.1204 11.0848C36.2215 12.6188 34.0133 12.6188 33.1144 11.0848C31.9517 9.10135 34.0915 6.82478 36.1629 7.8507ZM27.6233 27.5582L27.0663 28.1249L26.4508 27.5191L25.8352 26.9133L26.3922 26.3466L26.9491 25.7799L27.5647 26.3857L28.1802 26.9915L27.6233 27.5582ZM5.42427 31.3688C6.02028 31.5642 6.53813 31.9941 6.82148 32.5217C7.06574 32.9711 7.09506 33.0982 7.05597 33.743C7.02666 34.3488 6.97781 34.5247 6.73354 34.8862C6.56744 35.1109 6.21569 35.4334 5.95189 35.5995C5.54152 35.8535 5.38519 35.8926 4.7794 35.8926C4.17362 35.8926 4.01729 35.8535 3.59715 35.5995C2.54191 34.9448 2.16086 33.5769 2.7471 32.5119C3.28449 31.5251 4.43743 31.0268 5.42427 31.3688Z" fill="#FF3F33" stroke="white" stroke-width="0.4" mask="url(#path-1-inside-1_74_626)"/>
<path d="M4.49759 9.45856L4.49754 9.45866C3.86842 10.7169 3.40265 12.4046 3.27664 13.8778C2.98603 17.3653 4.29402 20.8037 6.81157 23.1566L6.81161 23.1567C12.0729 28.0789 20.4034 27.1669 24.3647 21.2493C27.5334 16.5107 26.9811 10.6622 22.9799 6.64138C21.0994 4.76087 18.638 3.53079 16.1016 3.22091C15.2666 3.12384 14.103 3.1049 13.488 3.18172C9.58214 3.68573 6.20174 6.04058 4.49759 9.45856ZM18.1834 13.0115L18.1831 13.0118L18.1781 13.0039C18.1527 12.9633 18.0867 12.8685 18.0049 12.7512C17.9332 12.6483 17.8495 12.5282 17.7704 12.4119C17.604 12.1765 17.29 11.8939 16.9352 11.644C16.5814 11.395 16.1988 11.1867 15.9002 11.093C15.6856 11.0376 15.1505 10.9796 14.6973 10.9795C14.3313 10.9844 14.1135 10.9967 13.9146 11.0407C13.7164 11.0845 13.5322 11.1607 13.2353 11.3019C11.603 12.0943 10.7206 13.809 11.0816 15.4997L11.0816 15.5001C11.1426 15.7906 11.2896 16.1601 11.4765 16.5146C11.6633 16.869 11.8855 17.1998 12.0917 17.4154L12.0927 17.4165C12.1577 17.4864 12.2186 17.5574 12.2639 17.6169C12.2864 17.6465 12.3064 17.6751 12.3213 17.7003C12.3287 17.7129 12.3359 17.7264 12.3416 17.7401C12.3464 17.7518 12.354 17.7727 12.354 17.7972C12.354 17.8157 12.3489 17.8318 12.3475 17.8362C12.3451 17.8441 12.342 17.8524 12.3389 17.8605C12.3325 17.8767 12.3236 17.8971 12.3129 17.9207C12.2913 17.9681 12.26 18.0329 12.2208 18.112C12.1422 18.2703 12.0302 18.489 11.8958 18.7473C11.627 19.264 11.268 19.9407 10.907 20.6133C10.546 21.2858 10.1827 21.9546 9.90533 22.4554C9.76669 22.7057 9.64924 22.9146 9.56416 23.0611C9.52172 23.1341 9.4868 23.1926 9.46111 23.2332C9.44843 23.2532 9.43699 23.2705 9.42746 23.2835C9.42295 23.2896 9.41708 23.2972 9.41054 23.3042C9.40746 23.3075 9.40177 23.3132 9.39405 23.3189L9.39373 23.3192C9.38947 23.3223 9.36651 23.3395 9.33252 23.3395C9.29335 23.3395 9.25315 23.3278 9.21695 23.3135C9.17919 23.2987 9.1378 23.2777 9.09404 23.2526C9.00647 23.2021 8.90234 23.1306 8.78754 23.0439C8.55755 22.8702 8.27734 22.6302 7.9883 22.3627C7.41137 21.8286 6.79 21.1759 6.45675 20.7084C3.86035 17.0852 4.01003 11.9951 6.82035 8.35637C7.3054 7.7229 8.38749 6.68997 9.01145 6.25418L9.01257 6.25342C10.119 5.50262 11.9307 4.78382 13.2645 4.57634L13.265 4.57626C13.7634 4.5015 14.4747 4.49209 15.1912 4.53503C15.9078 4.57798 16.6378 4.67381 17.1739 4.81279C19.4438 5.38531 21.5537 6.80555 23.0031 8.71827C23.2624 9.05736 23.627 9.67394 23.9255 10.238C24.0752 10.5208 24.2095 10.7926 24.3066 11.0124C24.3551 11.1222 24.3949 11.2203 24.4228 11.3009C24.4492 11.3773 24.4696 11.4507 24.4696 11.5049C24.4696 11.5599 24.4317 11.5947 24.4183 11.6065C24.3989 11.6233 24.3748 11.6383 24.3505 11.6515C24.3008 11.6785 24.2317 11.7079 24.1489 11.7391C23.9822 11.8019 23.7463 11.877 23.4654 11.9587C22.9029 12.1224 22.1524 12.3152 21.3979 12.4938C20.6434 12.6723 19.8832 12.837 19.3012 12.9442C19.0105 12.9978 18.7624 13.0374 18.581 13.0571C18.4908 13.0669 18.414 13.0722 18.3555 13.0712C18.3267 13.0707 18.2983 13.0686 18.2735 13.0634C18.2552 13.0595 18.212 13.049 18.1834 13.0115ZM15.7147 12.508L15.715 12.5081C17.6861 13.4022 17.7203 16.0331 15.7651 16.9399C15.1034 17.2554 14.4758 17.2557 13.8231 16.9397C11.8808 16.0241 11.8809 13.4534 13.8235 12.538L13.8238 12.5379C14.4547 12.2428 15.1008 12.2317 15.7147 12.508ZM25.0161 13.8182L25.0163 13.82L24.0374 18.8817L24.1282 18.9236C24.1282 18.9236 24.1282 18.9237 24.1282 18.9237C22.6686 22.0892 19.7883 24.3096 16.4228 24.8526C15.3175 25.0401 14.5056 25.0399 13.3432 24.8626C12.8779 24.7933 12.2309 24.6381 11.701 24.4848C11.4359 24.4081 11.1978 24.3312 11.0249 24.2649C10.939 24.2319 10.8661 24.2004 10.8134 24.1717C10.7875 24.1577 10.7623 24.1421 10.7422 24.1249C10.7322 24.1164 10.7204 24.1049 10.7104 24.0903C10.7008 24.0761 10.6884 24.0522 10.6884 24.0211C10.6884 24.0069 10.6914 23.9956 10.6921 23.9929C10.6934 23.9881 10.6949 23.9838 10.696 23.9806C10.6982 23.9742 10.701 23.9673 10.7039 23.9606C10.7096 23.947 10.7177 23.9294 10.7276 23.9084C10.7476 23.8662 10.7767 23.8071 10.8136 23.7334C10.8877 23.5858 10.9945 23.3774 11.1258 23.1238C11.3886 22.6166 11.7502 21.9275 12.146 21.1799L12.1461 21.1798C12.8241 19.9018 13.1928 19.2159 13.4201 18.8564C13.5324 18.6787 13.6174 18.5687 13.6956 18.5082C13.7371 18.4761 13.7796 18.4554 13.8256 18.4471C13.8706 18.439 13.9111 18.4443 13.9454 18.4517C14.1476 18.4929 14.5348 18.5033 14.9296 18.4875C15.3243 18.4716 15.7066 18.4304 15.8996 18.3754C16.1931 18.2868 16.5712 18.0833 16.9256 17.835C17.2803 17.5864 17.6003 17.3006 17.7818 17.054L17.7823 17.0532C18.1821 16.5202 18.4885 15.7644 18.584 15.0868C18.584 15.0867 18.584 15.0866 18.5841 15.0865L18.6524 14.5886L18.6617 14.5209L18.7281 14.5049L21.6591 13.8015C22.4653 13.6061 23.2106 13.4277 23.763 13.2981C24.0391 13.2334 24.2673 13.1808 24.4309 13.1443C24.5126 13.1261 24.5787 13.1118 24.6267 13.102C24.6506 13.0972 24.6707 13.0933 24.6863 13.0906C24.6961 13.0889 24.7104 13.0865 24.7234 13.0857C24.7638 13.0819 24.7969 13.098 24.8191 13.1157C24.8411 13.1333 24.8569 13.1556 24.8684 13.1752C24.8917 13.2149 24.9109 13.2679 24.9275 13.3268C24.9613 13.4464 24.9914 13.6159 25.0161 13.8182Z" fill="#FF3F33" stroke="white" stroke-width="0.2"/>
<path d="M3.95919 5.34176L3.95919 5.34176L3.95953 5.34241C4.07541 5.56526 4.24115 5.69137 4.41812 5.72922C4.59518 5.76709 4.80014 5.72016 5.00128 5.56378C5.2138 5.397 5.26936 5.14385 5.19922 4.91324C5.12884 4.68186 4.93243 4.47799 4.6436 4.42179C4.51776 4.39852 4.44968 4.40005 4.38661 4.42424C4.31859 4.45033 4.2438 4.50733 4.11726 4.62891C3.96354 4.78761 3.89385 4.89451 3.87334 4.99052C3.85381 5.08195 3.87516 5.18303 3.95919 5.34176Z" fill="#FF3F33" stroke="white" stroke-width="0.2"/>
<path d="M29.9121 34.2533C29.4873 34.6781 29.783 35.3918 30.3886 35.3918C30.5845 35.3918 30.7377 35.3249 30.8423 35.2143C30.9474 35.1031 31.0116 34.9388 31.0116 34.7297C31.0116 34.4599 30.8355 34.2449 30.602 34.145C30.3684 34.0451 30.097 34.0684 29.9121 34.2533Z" fill="#FF3F33" stroke="white" stroke-width="0.2"/>
</svg>
