<svg width="35" height="39" viewBox="0 0 35 39" fill="none" xmlns="http://www.w3.org/2000/svg">
<path d="M18.541 0.297197C18.3488 0.401299 18.0766 0.61751 17.9484 0.785673L17.7002 1.09798L17.6762 2.59544L17.6441 4.10091L16.8754 4.14895C12.407 4.44524 7.89863 6.72747 4.8877 10.2269C2.13301 13.43 0.603516 17.49 0.603516 21.614C0.603516 22.7271 0.611523 22.7591 0.835742 23.1195C1.24414 23.7681 2.14902 24.0163 2.8377 23.672C3.22207 23.4718 3.2541 23.4318 3.82266 22.3988C5.89668 18.6671 9.21992 15.9365 13.2559 14.6472C14.457 14.2628 16.491 13.8945 17.4199 13.8945H17.6602V15.2718C17.6602 16.8654 17.7482 17.1857 18.3168 17.562C18.7412 17.8423 19.4939 17.8984 19.8783 17.6822C20.2146 17.498 28.1264 10.1949 28.3826 9.8345C28.6469 9.46614 28.7029 8.75345 28.5027 8.32903C28.3346 7.96868 20.4068 0.585478 19.8863 0.297197C19.6941 0.193096 19.4219 0.121025 19.2297 0.121025C19.0375 0.121025 18.7412 0.201103 18.541 0.297197ZM22.1525 3.94075C23.7141 5.37415 25.5398 7.0638 26.2125 7.6804C27.0453 8.45716 27.4297 8.86556 27.4297 8.97766C27.4297 9.10579 26.3086 10.1868 23.4578 12.8214C21.2797 14.8474 19.4059 16.529 19.3018 16.5691C19.1656 16.6251 19.0695 16.6171 18.9895 16.537C18.8773 16.457 18.8613 16.1847 18.8613 14.7513C18.8613 12.6132 18.9094 12.6933 17.6682 12.6933C16.1787 12.7013 14.3049 13.0216 12.7113 13.5501C10.0207 14.439 7.79453 15.8163 5.76855 17.8503C4.40723 19.2116 3.75859 20.0845 2.58145 22.1425C2.31719 22.5909 2.125 22.7111 1.9248 22.5429C1.66055 22.3267 1.83672 19.6601 2.21309 18.0585C3.15 14.0306 5.68848 10.379 9.13184 8.07278C11.5021 6.48724 14.5131 5.48626 17.2598 5.35813C18.3809 5.31009 18.501 5.28606 18.7012 5.08587C18.8533 4.93372 18.8613 4.8136 18.8613 3.22005C18.8613 1.46634 18.8854 1.3222 19.1896 1.3222C19.2617 1.3222 20.599 2.49935 22.1525 3.94075Z" fill="#FF3F33"/>
<path d="M32.1941 15.3037C31.8098 15.5039 31.6977 15.6401 31.2973 16.3688C28.5586 21.4217 23.6658 24.6328 18.0443 25.0733L17.3396 25.1293V23.744C17.3396 22.1264 17.2516 21.8141 16.683 21.4377C16.2586 21.1575 15.5059 21.1014 15.1215 21.3176C14.7771 21.5018 6.84941 28.8289 6.60918 29.1733C6.35293 29.5416 6.29687 30.2543 6.48906 30.6707C6.65722 31.0231 14.601 38.4143 15.1135 38.6946C15.8822 39.119 16.8592 38.7426 17.2195 37.9018C17.3076 37.6696 17.3396 37.2932 17.3396 36.2522V34.8989L18.1244 34.8428C20.3186 34.6907 22.4166 34.1061 24.5867 33.041C30.5766 30.0942 34.3963 23.9682 34.3963 17.3137C34.3963 16.2727 34.3883 16.2407 34.1641 15.8803C33.7637 15.2557 32.8187 14.9754 32.1941 15.3037ZM33.099 16.4729C33.2352 16.609 33.2191 18.1625 33.075 19.3157C32.6986 22.1905 31.5535 24.9692 29.7598 27.3075C29.2152 28.0282 27.7978 29.4535 27.0291 30.0621C24.2424 32.2723 21.1113 33.4575 17.5478 33.6576C16.0424 33.7457 16.1385 33.6016 16.1385 35.7877C16.1385 37.5334 16.1145 37.6776 15.8102 37.6776C15.7381 37.6776 14.1365 36.2522 12.2467 34.4985C10.3568 32.7528 8.53105 31.0711 8.19472 30.7668C7.77832 30.3905 7.57012 30.1422 7.57012 30.0221C7.57012 29.902 8.00254 29.4535 9.03555 28.5006C9.83633 27.7559 11.6541 26.0743 13.0715 24.769C14.5449 23.3996 15.7061 22.3827 15.7941 22.3827C16.1145 22.3827 16.1385 22.5108 16.1385 24.2645V25.9621L16.3387 26.1463C16.5309 26.3305 16.5549 26.3305 17.716 26.2825C20.751 26.1623 23.826 25.1694 26.4285 23.4717C28.5506 22.0864 30.6727 19.8762 31.8898 17.7621C32.098 17.3938 32.3703 16.9373 32.4904 16.7371C32.7146 16.3768 32.9148 16.2887 33.099 16.4729Z" fill="#FF3F33"/>
</svg>
