<svg width="87" height="62" viewBox="0 0 87 62" fill="none" xmlns="http://www.w3.org/2000/svg">
<rect x="25" width="62" height="62" rx="31" fill="#E3F5FF"/>
<path d="M69.5391 5.5H9.49219C8.83973 5.50074 8.21422 5.76026 7.75286 6.22161C7.29151 6.68297 7.03199 7.30848 7.03125 7.96094V23.7812H2.46094C1.80848 23.782 1.18297 24.0415 0.721614 24.5029C0.26026 24.9642 0.000744385 25.5897 0 26.2422L0 54.3672C0.000744385 55.0196 0.26026 55.6452 0.721614 56.1065C1.18297 56.5679 1.80848 56.8274 2.46094 56.8281H17.7188C18.3712 56.8274 18.9967 56.5679 19.4581 56.1065C19.9194 55.6452 20.1789 55.0196 20.1797 54.3672V49.7969H69.5391C70.1915 49.7961 70.817 49.5366 71.2784 49.0753C71.7397 48.6139 71.9993 47.9884 72 47.3359V7.96094C71.9993 7.30848 71.7397 6.68297 71.2784 6.22161C70.817 5.76026 70.1915 5.50074 69.5391 5.5ZM9.49219 7.60938H69.5391C69.6323 7.60938 69.7217 7.64641 69.7877 7.71235C69.8536 7.77828 69.8906 7.8677 69.8906 7.96094V11.125H9.14062V7.96094C9.14062 7.8677 9.17766 7.77828 9.2436 7.71235C9.30953 7.64641 9.39895 7.60938 9.49219 7.60938ZM18.0703 54.3672C18.0703 54.4604 18.0333 54.5498 17.9673 54.6158C17.9014 54.6817 17.812 54.7188 17.7188 54.7188H2.46094C2.3677 54.7188 2.27828 54.6817 2.21235 54.6158C2.14641 54.5498 2.10938 54.4604 2.10938 54.3672V26.2422C2.10938 26.1489 2.14641 26.0595 2.21235 25.9936C2.27828 25.9277 2.3677 25.8906 2.46094 25.8906H17.7188C17.812 25.8906 17.9014 25.9277 17.9673 25.9936C18.0333 26.0595 18.0703 26.1489 18.0703 26.2422V54.3672ZM69.5391 47.6875H20.1797V26.2422C20.1789 25.5897 19.9194 24.9642 19.4581 24.5029C18.9967 24.0415 18.3712 23.782 17.7188 23.7812H9.14062V13.2344H69.8906V47.3359C69.8906 47.4292 69.8536 47.5186 69.7877 47.5845C69.7217 47.6505 69.6323 47.6875 69.5391 47.6875Z" fill="#06BDF7"/>
<path d="M15.0117 50.5H5.16797C4.88825 50.5 4.61998 50.6111 4.42219 50.8089C4.2244 51.0067 4.11328 51.275 4.11328 51.5547C4.11328 51.8344 4.2244 52.1027 4.42219 52.3005C4.61998 52.4983 4.88825 52.6094 5.16797 52.6094H15.0117C15.2914 52.6094 15.5597 52.4983 15.7575 52.3005C15.9553 52.1027 16.0664 51.8344 16.0664 51.5547C16.0664 51.275 15.9553 51.0067 15.7575 50.8089C15.5597 50.6111 15.2914 50.5 15.0117 50.5ZM15.0117 40.6562H5.16797C4.88825 40.6562 4.61998 40.7674 4.42219 40.9652C4.2244 41.163 4.11328 41.4312 4.11328 41.7109C4.11328 41.9907 4.2244 42.2589 4.42219 42.4567C4.61998 42.6545 4.88825 42.7656 5.16797 42.7656H15.0117C15.2914 42.7656 15.5597 42.6545 15.7575 42.4567C15.9553 42.2589 16.0664 41.9907 16.0664 41.7109C16.0664 41.4312 15.9553 41.163 15.7575 40.9652C15.5597 40.7674 15.2914 40.6562 15.0117 40.6562ZM15.0117 45.5781H9.38672C9.107 45.5781 8.83873 45.6892 8.64094 45.887C8.44315 46.0848 8.33203 46.3531 8.33203 46.6328C8.33203 46.9125 8.44315 47.1808 8.64094 47.3786C8.83873 47.5764 9.107 47.6875 9.38672 47.6875H15.0117C15.2914 47.6875 15.5597 47.5764 15.7575 47.3786C15.9553 47.1808 16.0664 46.9125 16.0664 46.6328C16.0664 46.3531 15.9553 46.0848 15.7575 45.887C15.5597 45.6892 15.2914 45.5781 15.0117 45.5781ZM15.0117 28H5.16797C4.88825 28 4.61998 28.1111 4.42219 28.3089C4.2244 28.5067 4.11328 28.775 4.11328 29.0547V36.0859C4.11328 36.3657 4.2244 36.6339 4.42219 36.8317C4.61998 37.0295 4.88825 37.1406 5.16797 37.1406H15.0117C15.2914 37.1406 15.5597 37.0295 15.7575 36.8317C15.9553 36.6339 16.0664 36.3657 16.0664 36.0859V29.0547C16.0664 28.775 15.9553 28.5067 15.7575 28.3089C15.5597 28.1111 15.2914 28 15.0117 28ZM13.957 35.0312H6.22266V30.1094H13.957V35.0312ZM5.16797 47.6875H5.83594C6.11566 47.6875 6.38392 47.5764 6.58171 47.3786C6.77951 47.1808 6.89062 46.9125 6.89062 46.6328C6.89062 46.3531 6.77951 46.0848 6.58171 45.887C6.38392 45.6892 6.11566 45.5781 5.83594 45.5781H5.16797C4.88825 45.5781 4.61998 45.6892 4.42219 45.887C4.2244 46.0848 4.11328 46.3531 4.11328 46.6328C4.11328 46.9125 4.2244 47.1808 4.42219 47.3786C4.61998 47.5764 4.88825 47.6875 5.16797 47.6875ZM33.082 36.4375H28.8633C28.2108 36.4382 27.5853 36.6978 27.124 37.1591C26.6626 37.6205 26.4031 38.246 26.4023 38.8984V41.7109C26.4031 42.3634 26.6626 42.9889 27.124 43.4503C27.5853 43.9116 28.2108 44.1711 28.8633 44.1719H33.082C33.7345 44.1711 34.36 43.9116 34.8214 43.4503C35.2827 42.9889 35.5422 42.3634 35.543 41.7109V38.8984C35.5422 38.246 35.2827 37.6205 34.8214 37.1591C34.36 36.6978 33.7345 36.4382 33.082 36.4375ZM33.4336 41.7109C33.4336 41.8042 33.3966 41.8936 33.3306 41.9595C33.2647 42.0255 33.1753 42.0625 33.082 42.0625H28.8633C28.77 42.0625 28.6806 42.0255 28.6147 41.9595C28.5488 41.8936 28.5117 41.8042 28.5117 41.7109V38.8984C28.5117 38.8052 28.5488 38.7158 28.6147 38.6498C28.6806 38.5839 28.77 38.5469 28.8633 38.5469H33.082C33.1753 38.5469 33.2647 38.5839 33.3306 38.6498C33.3966 38.7158 33.4336 38.8052 33.4336 38.8984V41.7109ZM47.1445 36.4375H42.9258C42.2733 36.4382 41.6478 36.6978 41.1865 37.1591C40.7251 37.6205 40.4656 38.246 40.4648 38.8984V41.7109C40.4656 42.3634 40.7251 42.9889 41.1865 43.4503C41.6478 43.9116 42.2733 44.1711 42.9258 44.1719H47.1445C47.797 44.1711 48.4225 43.9116 48.8839 43.4503C49.3452 42.9889 49.6047 42.3634 49.6055 41.7109V38.8984C49.6047 38.246 49.3452 37.6205 48.8839 37.1591C48.4225 36.6978 47.797 36.4382 47.1445 36.4375ZM47.4961 41.7109C47.4961 41.8042 47.4591 41.8936 47.3931 41.9595C47.3272 42.0255 47.2378 42.0625 47.1445 42.0625H42.9258C42.8325 42.0625 42.7431 42.0255 42.6772 41.9595C42.6113 41.8936 42.5742 41.8042 42.5742 41.7109V38.8984C42.5742 38.8052 42.6113 38.7158 42.6772 38.6498C42.7431 38.5839 42.8325 38.5469 42.9258 38.5469H47.1445C47.2378 38.5469 47.3272 38.5839 47.3931 38.6498C47.4591 38.7158 47.4961 38.8052 47.4961 38.8984V41.7109ZM61.207 36.4375H56.9883C56.3358 36.4382 55.7103 36.6978 55.249 37.1591C54.7876 37.6205 54.5281 38.246 54.5273 38.8984V41.7109C54.5281 42.3634 54.7876 42.9889 55.249 43.4503C55.7103 43.9116 56.3358 44.1711 56.9883 44.1719H61.207C61.8595 44.1711 62.485 43.9116 62.9464 43.4503C63.4077 42.9889 63.6672 42.3634 63.668 41.7109V38.8984C63.6672 38.246 63.4077 37.6205 62.9464 37.1591C62.485 36.6978 61.8595 36.4382 61.207 36.4375ZM61.5586 41.7109C61.5586 41.8042 61.5216 41.8936 61.4556 41.9595C61.3897 42.0255 61.3003 42.0625 61.207 42.0625H56.9883C56.895 42.0625 56.8056 42.0255 56.7397 41.9595C56.6738 41.8936 56.6367 41.8042 56.6367 41.7109V38.8984C56.6367 38.8052 56.6738 38.7158 56.7397 38.6498C56.8056 38.5839 56.895 38.5469 56.9883 38.5469H61.207C61.3003 38.5469 61.3897 38.5839 61.4556 38.6498C61.5216 38.7158 61.5586 38.8052 61.5586 38.8984V41.7109ZM50.6602 16.75H39.4102C38.7577 16.7507 38.1322 17.0103 37.6708 17.4716C37.2095 17.933 36.95 18.5585 36.9492 19.2109V30.4609C36.95 31.1134 37.2095 31.7389 37.6708 32.2003C38.1322 32.6616 38.7577 32.9211 39.4102 32.9219H50.6602C51.3126 32.9211 51.9381 32.6616 52.3995 32.2003C52.8608 31.7389 53.1203 31.1134 53.1211 30.4609V19.2109C53.1203 18.5585 52.8608 17.933 52.3995 17.4716C51.9381 17.0103 51.3126 16.7507 50.6602 16.75ZM51.0117 30.4609C51.0117 30.5542 50.9747 30.6436 50.9087 30.7095C50.8428 30.7755 50.7534 30.8125 50.6602 30.8125H39.4102C39.3169 30.8125 39.2275 30.7755 39.1616 30.7095C39.0956 30.6436 39.0586 30.5542 39.0586 30.4609V19.2109C39.0586 19.1177 39.0956 19.0283 39.1616 18.9623C39.2275 18.8964 39.3169 18.8594 39.4102 18.8594H50.6602C50.7534 18.8594 50.8428 18.8964 50.9087 18.9623C50.9747 19.0283 51.0117 19.1177 51.0117 19.2109V30.4609ZM59.843 19.8719C59.6408 19.6996 59.3811 19.6099 59.1156 19.6207C58.8502 19.6316 58.5987 19.7423 58.4113 19.9305C58.2239 20.1188 58.1144 20.3709 58.1048 20.6364C58.0952 20.9018 58.1861 21.1611 58.3594 21.3625L61.8244 24.8359L58.3594 28.3094C58.2558 28.4059 58.1726 28.5224 58.115 28.6517C58.0573 28.7811 58.0264 28.9208 58.0239 29.0624C58.0214 29.204 58.0474 29.3447 58.1005 29.476C58.1535 29.6073 58.2325 29.7266 58.3326 29.8268C58.4328 29.9269 58.5521 30.0059 58.6834 30.0589C58.8147 30.112 58.9554 30.138 59.097 30.1355C59.2386 30.133 59.3783 30.102 59.5076 30.0444C59.637 29.9867 59.7534 29.9036 59.85 29.8L64.0688 25.5813C64.1667 25.4834 64.2444 25.3672 64.2975 25.2394C64.3505 25.1115 64.3778 24.9744 64.3778 24.8359C64.3778 24.6975 64.3505 24.5604 64.2975 24.4325C64.2444 24.3046 64.1667 24.1885 64.0688 24.0906L59.843 19.8719ZM30.9727 30.1094C31.1811 30.1092 31.3849 30.0472 31.5581 29.9313C31.7314 29.8154 31.8664 29.6508 31.9462 29.4582C32.0259 29.2656 32.0468 29.0537 32.0062 28.8492C31.9656 28.6447 31.8653 28.4569 31.718 28.3094L28.2459 24.8359L31.718 21.3625C31.8912 21.1611 31.9822 20.9018 31.9725 20.6364C31.9629 20.3709 31.8535 20.1188 31.6661 19.9305C31.4787 19.7423 31.2271 19.6316 30.9617 19.6207C30.6963 19.6099 30.4365 19.6996 30.2344 19.8719L26.0156 24.0906C25.9177 24.1885 25.8399 24.3046 25.7869 24.4325C25.7339 24.5604 25.7066 24.6975 25.7066 24.8359C25.7066 24.9744 25.7339 25.1115 25.7869 25.2394C25.8399 25.3672 25.9177 25.4834 26.0156 25.5813L30.2344 29.8C30.4297 29.9969 30.6953 30.1082 30.9727 30.1094Z" fill="#06BDF7"/>
</svg>
