<svg width="180" height="52" viewBox="0 0 180 52" fill="none" xmlns="http://www.w3.org/2000/svg">
<rect width="180" height="52" rx="26" fill="#FF3F33"/>
<path d="M45.1424 19.3455C45.1634 19.3455 45.1844 19.3455 45.2054 19.3455C46.0982 19.3455 46.9384 19.6822 47.6841 19.9768C48.2408 20.1977 48.7187 20.3871 49.0915 20.3871C49.4224 20.3871 49.895 20.1977 50.4517 19.982C51.2499 19.6664 52.2477 19.2719 53.2875 19.2719C53.4241 19.2719 53.5554 19.2771 53.6814 19.2929C54.5689 19.3297 56.7693 19.6454 58.2083 21.7497C58.2345 21.797 58.2503 21.8496 58.2398 21.9022C58.224 21.9548 58.1925 22.0022 58.1505 22.0285L58.1295 22.0443C57.7146 22.302 55.635 23.7277 55.6612 26.4212C55.6875 29.7354 58.4236 30.9559 58.7387 31.0822L58.7544 31.0874C58.8437 31.1295 58.891 31.2347 58.8594 31.3347L58.8542 31.3557C58.6809 31.8976 58.182 33.3232 57.1789 34.791C56.2179 36.1956 55.1308 37.7843 53.3558 37.8211C52.5313 37.8369 51.9694 37.5897 51.4232 37.3529C50.8718 37.1162 50.2994 36.869 49.4066 36.869C48.4666 36.869 47.8679 37.1215 47.285 37.3687C46.7704 37.5897 46.2347 37.8211 45.4942 37.8475C45.4662 37.851 45.4365 37.8527 45.4049 37.8527C43.8347 37.8527 42.6846 36.3745 41.5503 34.7331C39.2764 31.4452 37.9687 26.0214 40.0273 22.4493C41.1092 20.566 43.068 19.3771 45.1424 19.3455Z" fill="white"/>
<path d="M53.8912 13.6746C54.0382 15.0056 53.5551 16.4891 52.6045 17.6464C51.696 18.7459 50.3726 19.4246 49.1437 19.4246C49.0562 19.4246 48.9704 19.4211 48.8864 19.414C48.7919 19.4088 48.7184 19.3351 48.7026 19.2404C48.5083 17.7517 49.254 16.2681 50.0208 15.3791C50.9188 14.3217 52.4312 13.5483 53.6863 13.4957C53.7861 13.4905 53.8806 13.5694 53.8912 13.6746Z" fill="white"/>
<path fill-rule="evenodd" clip-rule="evenodd" d="M68.144 13.3958H70.523C71.1497 13.3958 71.7046 13.5238 72.1877 13.7798C72.6744 14.0393 73.0525 14.397 73.3221 14.853C73.5917 15.3089 73.7265 15.828 73.7265 16.4101C73.7265 16.9888 73.5917 17.5079 73.3221 17.9673C73.0525 18.4232 72.6744 18.7792 72.1877 19.0352C71.7046 19.2948 71.1497 19.4245 70.523 19.4245H68.144V13.3958ZM70.4915 19.03C71.0482 19.03 71.5383 18.9195 71.9619 18.6986C72.3856 18.4776 72.7129 18.169 72.944 17.7727C73.1715 17.3764 73.2853 16.9222 73.2853 16.4101C73.2853 15.9016 73.1715 15.4492 72.944 15.0529C72.7129 14.6566 72.3856 14.3479 71.9619 14.127C71.5383 13.906 71.0482 13.7956 70.4915 13.7956H68.5799V19.03H70.4915Z" fill="white"/>
<path fill-rule="evenodd" clip-rule="evenodd" d="M75.7167 19.1667C75.3736 18.9703 75.1058 18.6985 74.9132 18.3513C74.7172 18.0041 74.6191 17.6131 74.6191 17.1782C74.6191 16.7398 74.7172 16.347 74.9132 15.9998C75.1058 15.6526 75.3736 15.3808 75.7167 15.1844C76.0563 14.9915 76.4379 14.895 76.8616 14.895C77.2887 14.895 77.672 14.9915 78.0116 15.1844C78.3547 15.3808 78.6226 15.6526 78.8151 15.9998C79.0112 16.347 79.1092 16.7398 79.1092 17.1782C79.1092 17.6131 79.0112 18.0041 78.8151 18.3513C78.6226 18.6985 78.3547 18.9703 78.0116 19.1667C77.672 19.3631 77.2887 19.4613 76.8616 19.4613C76.4379 19.4613 76.0563 19.3631 75.7167 19.1667ZM77.7911 18.83C78.0607 18.6687 78.2742 18.4443 78.4318 18.1567C78.5893 17.8726 78.6681 17.5464 78.6681 17.1782C78.6681 16.8099 78.5893 16.482 78.4318 16.1944C78.2742 15.9068 78.0607 15.6824 77.7911 15.521C77.518 15.3597 77.2082 15.2791 76.8616 15.2791C76.5185 15.2791 76.2104 15.3597 75.9373 15.521C75.6677 15.6824 75.4541 15.9068 75.2966 16.1944C75.139 16.482 75.0603 16.8099 75.0603 17.1782C75.0603 17.5464 75.139 17.8726 75.2966 18.1567C75.4541 18.4443 75.6677 18.6687 75.9373 18.83C76.2104 18.9914 76.5185 19.072 76.8616 19.072C77.2082 19.072 77.518 18.9914 77.7911 18.83Z" fill="white"/>
<path d="M86.7297 14.9265L85.0282 19.4244H84.6238L83.1114 15.521L81.5884 19.4244H81.1893L79.4878 14.9265H79.9027L81.3994 18.9404L82.9276 14.9265H83.3004L84.8234 18.9352L86.3358 14.9265H86.7297Z" fill="white"/>
<path d="M91.2561 15.3843C91.5817 15.7104 91.7445 16.1821 91.7445 16.7994V19.4245H91.3139V16.831C91.3139 16.3259 91.1861 15.9419 90.9305 15.6789C90.6749 15.4123 90.3178 15.2791 89.8592 15.2791C89.334 15.2791 88.9192 15.4369 88.6146 15.7525C88.31 16.0717 88.1577 16.4978 88.1577 17.0309V19.4245H87.7271V14.9266H88.1419V15.8998C88.296 15.5842 88.527 15.3369 88.8351 15.1581C89.1397 14.9827 89.5021 14.895 89.9222 14.895C90.4824 14.895 90.927 15.0581 91.2561 15.3843Z" fill="white"/>
<path d="M93.5146 13.0327H93.9453V19.4245H93.5146V13.0327Z" fill="white"/>
<path fill-rule="evenodd" clip-rule="evenodd" d="M96.3663 19.1667C96.0267 18.9703 95.7588 18.6985 95.5628 18.3513C95.3702 18.0041 95.2739 17.6131 95.2739 17.1782C95.2739 16.7398 95.3702 16.347 95.5628 15.9998C95.7588 15.6526 96.0267 15.3808 96.3663 15.1844C96.7094 14.9915 97.0927 14.895 97.5163 14.895C97.94 14.895 98.3233 14.9915 98.6664 15.1844C99.006 15.3808 99.2739 15.6526 99.4699 15.9998C99.666 16.347 99.764 16.7398 99.764 17.1782C99.764 17.6131 99.666 18.0041 99.4699 18.3513C99.2739 18.6985 99.006 18.9703 98.6664 19.1667C98.3233 19.3631 97.94 19.4613 97.5163 19.4613C97.0927 19.4613 96.7094 19.3631 96.3663 19.1667ZM98.4406 18.83C98.7137 18.6687 98.929 18.4443 99.0866 18.1567C99.2441 17.8726 99.3229 17.5464 99.3229 17.1782C99.3229 16.8099 99.2441 16.482 99.0866 16.1944C98.929 15.9068 98.7137 15.6824 98.4406 15.521C98.1675 15.3597 97.8594 15.2791 97.5163 15.2791C97.1732 15.2791 96.8651 15.3597 96.5921 15.521C96.319 15.6824 96.1037 15.9068 95.9461 16.1944C95.7886 16.482 95.7098 16.8099 95.7098 17.1782C95.7098 17.5464 95.7886 17.8726 95.9461 18.1567C96.1037 18.4443 96.319 18.6687 96.5921 18.83C96.8651 18.9914 97.1732 19.072 97.5163 19.072C97.8594 19.072 98.1675 18.9914 98.4406 18.83Z" fill="white"/>
<path fill-rule="evenodd" clip-rule="evenodd" d="M103.876 15.3211C104.173 15.6052 104.322 16.0226 104.322 16.5732V19.4245H103.907V18.6249C103.764 18.8879 103.555 19.0931 103.282 19.2404C103.006 19.3877 102.675 19.4613 102.29 19.4613C101.793 19.4613 101.399 19.3438 101.108 19.1089C100.818 18.8704 100.672 18.56 100.672 18.1777C100.672 17.8024 100.805 17.4991 101.071 17.2676C101.341 17.0361 101.768 16.9204 102.353 16.9204H103.892V16.5574C103.892 16.1365 103.778 15.8174 103.55 15.6C103.323 15.3825 102.992 15.2738 102.558 15.2738C102.26 15.2738 101.975 15.3246 101.702 15.4264C101.429 15.5316 101.198 15.6701 101.008 15.8419L100.793 15.5316C101.017 15.3317 101.287 15.1756 101.602 15.0634C101.917 14.9511 102.246 14.895 102.589 14.895C103.146 14.895 103.575 15.0371 103.876 15.3211ZM103.303 18.8458C103.562 18.674 103.759 18.425 103.892 18.0988V17.2518H102.358C101.917 17.2518 101.598 17.3325 101.402 17.4938C101.203 17.6551 101.103 17.8761 101.103 18.1567C101.103 18.4513 101.212 18.6827 101.429 18.8511C101.649 19.0229 101.957 19.1089 102.353 19.1089C102.724 19.1089 103.041 19.0212 103.303 18.8458Z" fill="white"/>
<path fill-rule="evenodd" clip-rule="evenodd" d="M110.094 13.0327V19.4245H109.668V18.3671C109.493 18.7178 109.245 18.9879 108.923 19.1772C108.601 19.3666 108.236 19.4613 107.83 19.4613C107.41 19.4613 107.032 19.3631 106.696 19.1667C106.356 18.9703 106.09 18.7003 105.898 18.3566C105.705 18.0129 105.609 17.6201 105.609 17.1782C105.609 16.7363 105.705 16.34 105.898 15.9892C106.09 15.642 106.356 15.3737 106.696 15.1843C107.032 14.9915 107.41 14.895 107.83 14.895C108.233 14.895 108.592 14.9897 108.907 15.1791C109.225 15.3685 109.478 15.6315 109.663 15.9682V13.0327H110.094ZM108.781 18.83C109.054 18.6687 109.269 18.4442 109.427 18.1567C109.584 17.8726 109.663 17.5464 109.663 17.1782C109.663 16.8099 109.584 16.482 109.427 16.1944C109.269 15.9068 109.054 15.6824 108.781 15.521C108.508 15.3597 108.2 15.279 107.857 15.279C107.513 15.279 107.205 15.3597 106.932 15.521C106.659 15.6824 106.444 15.9068 106.286 16.1944C106.129 16.482 106.05 16.8099 106.05 17.1782C106.05 17.5464 106.129 17.8726 106.286 18.1567C106.444 18.4442 106.659 18.6687 106.932 18.83C107.205 18.9914 107.513 19.072 107.857 19.072C108.2 19.072 108.508 18.9914 108.781 18.83Z" fill="white"/>
<path fill-rule="evenodd" clip-rule="evenodd" d="M114.726 19.1667C114.382 18.9703 114.115 18.6985 113.922 18.3513C113.726 18.0041 113.628 17.6131 113.628 17.1782C113.628 16.7398 113.726 16.347 113.922 15.9998C114.115 15.6526 114.382 15.3808 114.726 15.1844C115.065 14.9915 115.447 14.895 115.87 14.895C116.297 14.895 116.681 14.9915 117.02 15.1844C117.36 15.3808 117.628 15.6526 117.824 15.9998C118.02 16.347 118.118 16.7398 118.118 17.1782C118.118 17.6131 118.02 18.0041 117.824 18.3513C117.628 18.6985 117.36 18.9703 117.02 19.1667C116.681 19.3631 116.297 19.4613 115.87 19.4613C115.447 19.4613 115.065 19.3631 114.726 19.1667ZM116.795 18.83C117.068 18.6687 117.283 18.4443 117.441 18.1567C117.598 17.8726 117.677 17.5464 117.677 17.1782C117.677 16.8099 117.598 16.482 117.441 16.1944C117.283 15.9068 117.068 15.6824 116.795 15.521C116.525 15.3597 116.217 15.2791 115.87 15.2791C115.527 15.2791 115.219 15.3597 114.946 15.521C114.673 15.6824 114.458 15.9068 114.3 16.1944C114.143 16.482 114.064 16.8099 114.064 17.1782C114.064 17.5464 114.143 17.8726 114.3 18.1567C114.458 18.4443 114.673 18.6687 114.946 18.83C115.219 18.9914 115.527 19.072 115.87 19.072C116.217 19.072 116.525 18.9914 116.795 18.83Z" fill="white"/>
<path d="M122.976 15.3843C123.305 15.7104 123.47 16.1821 123.47 16.7994V19.4245H123.039V16.831C123.039 16.3259 122.911 15.9419 122.656 15.6789C122.4 15.4123 122.043 15.2791 121.584 15.2791C121.056 15.2791 120.639 15.4369 120.334 15.7525C120.033 16.0717 119.883 16.4978 119.883 17.0309V19.4245H119.452V14.9266H119.862V15.8998C120.019 15.5842 120.25 15.3369 120.555 15.1581C120.863 14.9827 121.225 14.895 121.642 14.895C122.206 14.895 122.65 15.0581 122.976 15.3843Z" fill="white"/>
<path d="M129.677 19.1403C129.568 19.2456 129.432 19.3245 129.267 19.3771C129.106 19.4332 128.936 19.4612 128.758 19.4612C128.369 19.4612 128.068 19.3525 127.854 19.1351C127.641 18.9211 127.534 18.6213 127.534 18.2355V15.3H126.709V14.9265H127.534V13.9427H127.965V14.9265H129.393V15.3H127.965V18.1934C127.965 18.488 128.035 18.7107 128.175 18.8615C128.315 19.0123 128.523 19.0877 128.8 19.0877C129.08 19.0877 129.312 19.0053 129.498 18.8405L129.677 19.1403Z" fill="white"/>
<path d="M134.398 15.3843C134.727 15.7104 134.891 16.1821 134.891 16.7994V19.4245H134.461V16.831C134.461 16.3259 134.333 15.9419 134.077 15.6789C133.822 15.4123 133.465 15.279 133.006 15.279C132.477 15.279 132.063 15.4369 131.762 15.7525C131.457 16.0717 131.305 16.4978 131.305 17.0309V19.4245H130.874V13.0327H131.305V15.8682C131.459 15.5561 131.688 15.3159 131.993 15.1475C132.297 14.9792 132.656 14.895 133.069 14.895C133.629 14.895 134.072 15.0581 134.398 15.3843Z" fill="white"/>
<path fill-rule="evenodd" clip-rule="evenodd" d="M140.463 17.2781H136.604C136.614 17.6288 136.702 17.941 136.866 18.2145C137.034 18.4881 137.26 18.6985 137.544 18.8458C137.827 18.9966 138.148 19.072 138.505 19.072C138.795 19.072 139.065 19.0194 139.313 18.9142C139.565 18.8055 139.774 18.6477 139.938 18.4407L140.19 18.7301C139.994 18.9651 139.749 19.1457 139.455 19.2719C139.158 19.3982 138.837 19.4613 138.494 19.4613C138.046 19.4613 137.647 19.3631 137.297 19.1667C136.947 18.9703 136.674 18.7003 136.478 18.3566C136.278 18.0129 136.178 17.6201 136.178 17.1782C136.178 16.7398 136.273 16.347 136.462 15.9998C136.647 15.6526 136.903 15.3808 137.229 15.1844C137.558 14.9915 137.925 14.895 138.331 14.895C138.737 14.895 139.103 14.9915 139.429 15.1844C139.751 15.3737 140.007 15.642 140.196 15.9892C140.381 16.3329 140.474 16.7222 140.474 17.1571L140.463 17.2781ZM137.475 15.4842C137.223 15.6245 137.022 15.8227 136.871 16.0787C136.717 16.3347 136.63 16.624 136.609 16.9467H140.049C140.031 16.624 139.945 16.3365 139.791 16.0839C139.637 15.8314 139.434 15.6333 139.182 15.4895C138.93 15.3457 138.646 15.2738 138.331 15.2738C138.013 15.2738 137.727 15.3439 137.475 15.4842Z" fill="white"/>
<path fill-rule="evenodd" clip-rule="evenodd" d="M74.5093 32.7605H69.368L68.3492 35.1436H66.3799L71.0118 24.8379H72.8918L77.5395 35.1436H75.5386L74.5093 32.7605ZM73.8791 31.2612L71.936 26.7528L70.014 31.2612H73.8791Z" fill="white"/>
<path fill-rule="evenodd" clip-rule="evenodd" d="M85.0701 27.6942C85.6758 28.0274 86.1502 28.4991 86.4933 29.1094C86.8329 29.7161 87.0027 30.4175 87.0027 31.2136C87.0027 32.0098 86.8329 32.7147 86.4933 33.3285C86.1502 33.9422 85.6758 34.4157 85.0701 34.7489C84.4679 35.082 83.7852 35.2486 83.022 35.2486C81.9647 35.2486 81.1262 34.8944 80.5065 34.186V38H78.6685V27.2839H80.4172V28.315C80.7218 27.9397 81.0982 27.6592 81.5463 27.4733C81.9909 27.2874 82.4828 27.1945 83.022 27.1945C83.7852 27.1945 84.4679 27.361 85.0701 27.6942ZM84.4819 32.997C84.9196 32.5446 85.1384 31.9502 85.1384 31.2136C85.1384 30.4771 84.9196 29.8827 84.4819 29.4303C84.0478 28.9813 83.4929 28.7569 82.8172 28.7569C82.3761 28.7569 81.9787 28.8568 81.6251 29.0568C81.2715 29.2567 80.9914 29.5442 80.7848 29.9195C80.5818 30.2913 80.4802 30.7226 80.4802 31.2136C80.4802 31.7047 80.5818 32.136 80.7848 32.5078C80.9914 32.8831 81.2715 33.1706 81.6251 33.3705C81.9787 33.5705 82.3761 33.6704 82.8172 33.6704C83.4929 33.6704 84.0478 33.4459 84.4819 32.997Z" fill="white"/>
<path fill-rule="evenodd" clip-rule="evenodd" d="M95.158 27.6942C95.7602 28.0274 96.2328 28.4991 96.5759 29.1094C96.919 29.7161 97.0906 30.4175 97.0906 31.2136C97.0906 32.0098 96.919 32.7147 96.5759 33.3285C96.2328 33.9422 95.7602 34.4157 95.158 34.7489C94.5523 35.082 93.8679 35.2486 93.1046 35.2486C92.0473 35.2486 91.2088 34.8944 90.5891 34.186V38H88.7563V27.2839H90.5051V28.315C90.8062 27.9397 91.1808 27.6592 91.6289 27.4733C92.0736 27.2874 92.5655 27.1945 93.1046 27.1945C93.8679 27.1945 94.5523 27.361 95.158 27.6942ZM94.5698 32.997C95.004 32.5446 95.221 31.9502 95.221 31.2136C95.221 30.4771 95.004 29.8827 94.5698 29.4303C94.1322 28.9813 93.5755 28.7569 92.8998 28.7569C92.4587 28.7569 92.0613 28.8568 91.7077 29.0568C91.3541 29.2567 91.0758 29.5442 90.8727 29.9195C90.6662 30.2913 90.5629 30.7226 90.5629 31.2136C90.5629 31.7047 90.6662 32.136 90.8727 32.5078C91.0758 32.8831 91.3541 33.1706 91.7077 33.3705C92.0613 33.5705 92.4587 33.6704 92.8998 33.6704C93.5755 33.6704 94.1322 33.4459 94.5698 32.997Z" fill="white"/>
<path d="M103.96 34.9545C103.221 34.73 102.637 34.4301 102.206 34.0549L102.868 32.5661C103.288 32.9028 103.804 33.1763 104.417 33.3868C105.03 33.5972 105.644 33.7024 106.26 33.7024C107.023 33.7024 107.594 33.5797 107.972 33.3342C108.35 33.0887 108.539 32.7642 108.539 32.3609C108.539 32.0663 108.434 31.8243 108.224 31.6349C108.014 31.4421 107.746 31.2912 107.421 31.1825C107.099 31.0773 106.658 30.9546 106.097 30.8143C105.313 30.6284 104.68 30.4425 104.196 30.2566C103.71 30.0708 103.293 29.7779 102.947 29.3781C102.6 28.9818 102.427 28.4452 102.427 27.7683C102.427 27.2002 102.581 26.6829 102.889 26.2164C103.197 25.75 103.662 25.3782 104.286 25.1011C104.905 24.8276 105.667 24.6908 106.57 24.6908C107.197 24.6908 107.815 24.7697 108.424 24.9275C109.03 25.0853 109.553 25.3116 109.994 25.6062L109.39 27.0897C108.942 26.8266 108.473 26.625 107.983 26.4847C107.493 26.3479 107.016 26.2795 106.554 26.2795C105.802 26.2795 105.241 26.4075 104.874 26.6636C104.506 26.9196 104.322 27.258 104.322 27.6789C104.322 27.9735 104.427 28.2137 104.638 28.3996C104.848 28.589 105.114 28.7363 105.436 28.8415C105.761 28.9502 106.202 29.073 106.759 29.2098C107.526 29.3886 108.154 29.5727 108.644 29.7621C109.135 29.955 109.553 30.2479 109.9 30.6407C110.246 31.0335 110.419 31.5631 110.419 32.2294C110.419 32.7976 110.265 33.3131 109.957 33.7761C109.649 34.239 109.182 34.6073 108.555 34.8808C107.929 35.1544 107.164 35.2911 106.26 35.2911C105.466 35.2911 104.699 35.1789 103.96 34.9545Z" fill="white"/>
<path d="M116.858 34.7175C116.644 34.8964 116.381 35.0297 116.07 35.1174C115.762 35.205 115.436 35.2489 115.093 35.2489C114.232 35.2489 113.567 35.0227 113.098 34.5702C112.625 34.1178 112.389 33.4602 112.389 32.5975V28.815H111.097V27.342H112.389V25.5428H114.227V27.342H116.327V28.815H114.227V32.5554C114.227 32.9377 114.319 33.2288 114.505 33.4287C114.694 33.6321 114.964 33.7338 115.314 33.7338C115.727 33.7338 116.07 33.6251 116.343 33.4076L116.858 34.7175Z" fill="white"/>
<path fill-rule="evenodd" clip-rule="evenodd" d="M119.489 34.7331C118.851 34.3894 118.354 33.9106 117.997 33.2969C117.64 32.6831 117.461 31.9887 117.461 31.2136C117.461 30.4386 117.64 29.7459 117.997 29.1357C118.354 28.5289 118.851 28.0537 119.489 27.71C120.126 27.3663 120.842 27.1945 121.636 27.1945C122.438 27.1945 123.158 27.3663 123.795 27.71C124.432 28.0537 124.931 28.5289 125.292 29.1357C125.649 29.7459 125.827 30.4386 125.827 31.2136C125.827 31.9887 125.649 32.6831 125.292 33.2969C124.931 33.9106 124.432 34.3894 123.795 34.7331C123.158 35.0768 122.438 35.2486 121.636 35.2486C120.842 35.2486 120.126 35.0768 119.489 34.7331ZM123.312 32.997C123.753 32.5446 123.973 31.9502 123.973 31.2136C123.973 30.4771 123.753 29.8827 123.312 29.4303C122.871 28.9813 122.312 28.7569 121.636 28.7569C120.961 28.7569 120.404 28.9813 119.966 29.4303C119.532 29.8827 119.315 30.4771 119.315 31.2136C119.315 31.9502 119.532 32.5446 119.966 32.997C120.404 33.4459 120.961 33.6704 121.636 33.6704C122.312 33.6704 122.871 33.4459 123.312 32.997Z" fill="white"/>
<path d="M132.129 27.1945V28.9463C131.975 28.9182 131.833 28.9042 131.704 28.9042C130.99 28.9042 130.431 29.1111 130.029 29.525C129.626 29.9423 129.425 30.5438 129.425 31.3294V35.1434H127.592V27.2839H129.341V28.4307C129.869 27.6065 130.799 27.1945 132.129 27.1945Z" fill="white"/>
<path fill-rule="evenodd" clip-rule="evenodd" d="M140.967 31.8028H134.807C134.916 32.3815 135.198 32.841 135.653 33.1812C136.108 33.5178 136.673 33.6862 137.349 33.6862C138.21 33.6862 138.921 33.4021 139.481 32.834L140.468 33.965C140.115 34.3894 139.668 34.7085 139.129 34.9225C138.59 35.1399 137.983 35.2486 137.307 35.2486C136.442 35.2486 135.683 35.0768 135.028 34.7331C134.37 34.3894 133.862 33.9106 133.505 33.2969C133.148 32.6831 132.969 31.9887 132.969 31.2136C132.969 30.4491 133.143 29.7599 133.489 29.1462C133.839 28.5324 134.322 28.0537 134.939 27.71C135.555 27.3663 136.251 27.1945 137.029 27.1945C137.792 27.1945 138.475 27.3628 139.077 27.6995C139.679 28.0397 140.15 28.5167 140.489 29.1304C140.826 29.7442 140.994 30.4526 140.994 31.2557C140.994 31.3855 140.985 31.5679 140.967 31.8028ZM135.532 29.1883C135.126 29.5355 134.879 30.0002 134.792 30.5824H139.245C139.168 30.0107 138.928 29.5478 138.525 29.1935C138.123 28.8428 137.624 28.6675 137.029 28.6675C136.441 28.6675 135.942 28.8411 135.532 29.1883Z" fill="white"/>
</svg>
