<svg width="169" height="52" viewBox="0 0 169 52" fill="none" xmlns="http://www.w3.org/2000/svg">
<rect x="0.5" y="0.5" width="168" height="51" rx="25.5" stroke="white"/>
<path d="M40.1424 19.3454C40.1634 19.3454 40.1844 19.3454 40.2054 19.3454C41.0982 19.3454 41.9384 19.6821 42.6841 19.9767C43.2408 20.1976 43.7187 20.387 44.0915 20.387C44.4224 20.387 44.895 20.1976 45.4517 19.9819C46.2499 19.6663 47.2477 19.2717 48.2875 19.2717C48.4241 19.2717 48.5554 19.277 48.6814 19.2928C49.5689 19.3296 51.7693 19.6452 53.2083 21.7495C53.2345 21.7969 53.2503 21.8495 53.2398 21.9021C53.224 21.9547 53.1925 22.002 53.1505 22.0283L53.1295 22.0441C52.7146 22.3019 50.635 23.7276 50.6612 26.421C50.6875 29.7353 53.4236 30.9558 53.7387 31.082L53.7544 31.0873C53.8437 31.1294 53.891 31.2346 53.8594 31.3346L53.8542 31.3556C53.6809 31.8975 53.182 33.3231 52.1789 34.7909C51.2179 36.1955 50.1308 37.7842 48.3558 37.821C47.5313 37.8368 46.9694 37.5896 46.4232 37.3528C45.8718 37.1161 45.2994 36.8688 44.4066 36.8688C43.4666 36.8688 42.8679 37.1214 42.285 37.3686C41.7704 37.5896 41.2347 37.821 40.4942 37.8473C40.4662 37.8508 40.4365 37.8526 40.4049 37.8526C38.8347 37.8526 37.6846 36.3743 36.5503 34.733C34.2764 31.445 32.9687 26.0212 35.0273 22.4492C36.1092 20.5659 38.068 19.3769 40.1424 19.3454Z" fill="white"/>
<path d="M48.8914 13.6745C49.0384 15.0054 48.5553 16.489 47.6048 17.6463C46.6962 18.7458 45.3729 19.4244 44.144 19.4244C44.0565 19.4244 43.9707 19.4209 43.8867 19.4139C43.7921 19.4087 43.7186 19.335 43.7029 19.2403C43.5085 17.7515 44.2543 16.268 45.021 15.3789C45.919 14.3215 47.4315 13.5482 48.6866 13.4956C48.7864 13.4903 48.8809 13.5693 48.8914 13.6745Z" fill="white"/>
<path fill-rule="evenodd" clip-rule="evenodd" d="M63.1442 13.3958H65.5231C66.1498 13.3958 66.7047 13.5238 67.1879 13.7798C67.6745 14.0393 68.0526 14.397 68.3222 14.853C68.5918 15.3089 68.7266 15.828 68.7266 16.4101C68.7266 16.9888 68.5918 17.5079 68.3222 17.9673C68.0526 18.4232 67.6745 18.7792 67.1879 19.0352C66.7047 19.2948 66.1498 19.4245 65.5231 19.4245H63.1442V13.3958ZM65.4916 19.03C66.0483 19.03 66.5384 18.9195 66.962 18.6986C67.3857 18.4776 67.713 18.169 67.9441 17.7727C68.1717 17.3764 68.2854 16.9222 68.2854 16.4101C68.2854 15.9016 68.1717 15.4492 67.9441 15.0529C67.713 14.6566 67.3857 14.3479 66.962 14.127C66.5384 13.906 66.0483 13.7956 65.4916 13.7956H63.58V19.03H65.4916Z" fill="white"/>
<path fill-rule="evenodd" clip-rule="evenodd" d="M70.7169 19.1667C70.3738 18.9703 70.106 18.6985 69.9134 18.3513C69.7174 18.0041 69.6193 17.6131 69.6193 17.1782C69.6193 16.7398 69.7174 16.347 69.9134 15.9998C70.106 15.6526 70.3738 15.3808 70.7169 15.1844C71.0565 14.9915 71.4381 14.895 71.8617 14.895C72.2889 14.895 72.6722 14.9915 73.0118 15.1844C73.3549 15.3808 73.6228 15.6526 73.8153 15.9998C74.0114 16.347 74.1094 16.7398 74.1094 17.1782C74.1094 17.6131 74.0114 18.0041 73.8153 18.3513C73.6228 18.6985 73.3549 18.9703 73.0118 19.1667C72.6722 19.3631 72.2889 19.4613 71.8617 19.4613C71.4381 19.4613 71.0565 19.3631 70.7169 19.1667ZM72.7913 18.83C73.0608 18.6687 73.2744 18.4443 73.432 18.1567C73.5895 17.8726 73.6683 17.5464 73.6683 17.1782C73.6683 16.8099 73.5895 16.482 73.432 16.1944C73.2744 15.9068 73.0608 15.6824 72.7913 15.521C72.5182 15.3597 72.2083 15.2791 71.8617 15.2791C71.5186 15.2791 71.2105 15.3597 70.9375 15.521C70.6679 15.6824 70.4543 15.9068 70.2968 16.1944C70.1392 16.482 70.0605 16.8099 70.0605 17.1782C70.0605 17.5464 70.1392 17.8726 70.2968 18.1567C70.4543 18.4443 70.6679 18.6687 70.9375 18.83C71.2105 18.9914 71.5186 19.072 71.8617 19.072C72.2083 19.072 72.5182 18.9914 72.7913 18.83Z" fill="white"/>
<path d="M81.7294 14.9265L80.0279 19.4244H79.6236L78.1111 15.521L76.5882 19.4244H76.1891L74.4875 14.9265H74.9024L76.3991 18.9404L77.9273 14.9265H78.3002L79.8231 18.9352L81.3356 14.9265H81.7294Z" fill="white"/>
<path d="M86.2563 15.3843C86.5819 15.7104 86.7447 16.1821 86.7447 16.7994V19.4245H86.314V16.831C86.314 16.3259 86.1863 15.9419 85.9307 15.6789C85.6751 15.4123 85.318 15.2791 84.8594 15.2791C84.3342 15.2791 83.9193 15.4369 83.6147 15.7525C83.3102 16.0717 83.1579 16.4978 83.1579 17.0309V19.4245H82.7272V14.9266H83.1421V15.8998C83.2962 15.5842 83.5272 15.3369 83.8353 15.1581C84.1399 14.9827 84.5023 14.895 84.9224 14.895C85.4826 14.895 85.9272 15.0581 86.2563 15.3843Z" fill="white"/>
<path d="M88.5145 13.0327H88.9451V19.4245H88.5145V13.0327Z" fill="white"/>
<path fill-rule="evenodd" clip-rule="evenodd" d="M91.3661 19.1667C91.0265 18.9703 90.7587 18.6985 90.5626 18.3513C90.3701 18.0041 90.2738 17.6131 90.2738 17.1782C90.2738 16.7398 90.3701 16.347 90.5626 15.9998C90.7587 15.6526 91.0265 15.3808 91.3661 15.1844C91.7092 14.9915 92.0926 14.895 92.5162 14.895C92.9398 14.895 93.3232 14.9915 93.6663 15.1844C94.0059 15.3808 94.2737 15.6526 94.4698 15.9998C94.6659 16.347 94.7639 16.7398 94.7639 17.1782C94.7639 17.6131 94.6659 18.0041 94.4698 18.3513C94.2737 18.6985 94.0059 18.9703 93.6663 19.1667C93.3232 19.3631 92.9398 19.4613 92.5162 19.4613C92.0926 19.4613 91.7092 19.3631 91.3661 19.1667ZM93.4405 18.83C93.7136 18.6687 93.9289 18.4443 94.0864 18.1567C94.244 17.8726 94.3228 17.5464 94.3228 17.1782C94.3228 16.8099 94.244 16.482 94.0864 16.1944C93.9289 15.9068 93.7136 15.6824 93.4405 15.521C93.1674 15.3597 92.8593 15.2791 92.5162 15.2791C92.1731 15.2791 91.865 15.3597 91.5919 15.521C91.3189 15.6824 91.1036 15.9068 90.946 16.1944C90.7885 16.482 90.7097 16.8099 90.7097 17.1782C90.7097 17.5464 90.7885 17.8726 90.946 18.1567C91.1036 18.4443 91.3189 18.6687 91.5919 18.83C91.865 18.9914 92.1731 19.072 92.5162 19.072C92.8593 19.072 93.1674 18.9914 93.4405 18.83Z" fill="white"/>
<path fill-rule="evenodd" clip-rule="evenodd" d="M98.8758 15.3211C99.1734 15.6052 99.3222 16.0226 99.3222 16.5732V19.4245H98.9073V18.6249C98.7638 18.8879 98.5555 19.0931 98.2824 19.2404C98.0058 19.3877 97.675 19.4613 97.2898 19.4613C96.7927 19.4613 96.3988 19.3438 96.1082 19.1089C95.8177 18.8704 95.6724 18.56 95.6724 18.1777C95.6724 17.8024 95.8054 17.4991 96.0715 17.2676C96.3411 17.0361 96.7682 16.9204 97.3529 16.9204H98.8916V16.5574C98.8916 16.1365 98.7778 15.8174 98.5502 15.6C98.3226 15.3825 97.9918 15.2738 97.5577 15.2738C97.2601 15.2738 96.9747 15.3246 96.7017 15.4264C96.4286 15.5316 96.1975 15.6701 96.0085 15.8419L95.7931 15.5316C96.0172 15.3317 96.2868 15.1756 96.6019 15.0634C96.917 14.9511 97.2461 14.895 97.5892 14.895C98.1458 14.895 98.5747 15.0371 98.8758 15.3211ZM98.3034 18.8458C98.5625 18.674 98.7585 18.425 98.8916 18.0988V17.2518H97.3581C96.917 17.2518 96.5984 17.3325 96.4023 17.4938C96.2028 17.6551 96.103 17.8761 96.103 18.1567C96.103 18.4513 96.2115 18.6827 96.4286 18.8511C96.6491 19.0229 96.9572 19.1089 97.3529 19.1089C97.724 19.1089 98.0408 19.0212 98.3034 18.8458Z" fill="white"/>
<path fill-rule="evenodd" clip-rule="evenodd" d="M105.094 13.0327V19.4245H104.668V18.3671C104.493 18.7178 104.245 18.9879 103.923 19.1772C103.6 19.3666 103.236 19.4613 102.83 19.4613C102.41 19.4613 102.032 19.3631 101.696 19.1667C101.356 18.9703 101.09 18.7003 100.898 18.3566C100.705 18.0129 100.609 17.6201 100.609 17.1782C100.609 16.7363 100.705 16.34 100.898 15.9892C101.09 15.642 101.356 15.3737 101.696 15.1843C102.032 14.9915 102.41 14.895 102.83 14.895C103.233 14.895 103.592 14.9897 103.907 15.1791C104.225 15.3685 104.477 15.6315 104.663 15.9682V13.0327H105.094ZM103.781 18.83C104.054 18.6687 104.269 18.4442 104.427 18.1567C104.584 17.8726 104.663 17.5464 104.663 17.1782C104.663 16.8099 104.584 16.482 104.427 16.1944C104.269 15.9068 104.054 15.6824 103.781 15.521C103.508 15.3597 103.2 15.279 102.856 15.279C102.513 15.279 102.205 15.3597 101.932 15.521C101.659 15.6824 101.444 15.9068 101.286 16.1944C101.129 16.482 101.05 16.8099 101.05 17.1782C101.05 17.5464 101.129 17.8726 101.286 18.1567C101.444 18.4442 101.659 18.6687 101.932 18.83C102.205 18.9914 102.513 19.072 102.856 19.072C103.2 19.072 103.508 18.9914 103.781 18.83Z" fill="white"/>
<path fill-rule="evenodd" clip-rule="evenodd" d="M109.725 19.1667C109.382 18.9703 109.115 18.6985 108.922 18.3513C108.726 18.0041 108.628 17.6131 108.628 17.1782C108.628 16.7398 108.726 16.347 108.922 15.9998C109.115 15.6526 109.382 15.3808 109.725 15.1844C110.065 14.9915 110.447 14.895 110.87 14.895C111.297 14.895 111.681 14.9915 112.02 15.1844C112.36 15.3808 112.628 15.6526 112.824 15.9998C113.02 16.347 113.118 16.7398 113.118 17.1782C113.118 17.6131 113.02 18.0041 112.824 18.3513C112.628 18.6985 112.36 18.9703 112.02 19.1667C111.681 19.3631 111.297 19.4613 110.87 19.4613C110.447 19.4613 110.065 19.3631 109.725 19.1667ZM111.795 18.83C112.068 18.6687 112.283 18.4443 112.441 18.1567C112.598 17.8726 112.677 17.5464 112.677 17.1782C112.677 16.8099 112.598 16.482 112.441 16.1944C112.283 15.9068 112.068 15.6824 111.795 15.521C111.525 15.3597 111.217 15.2791 110.87 15.2791C110.527 15.2791 110.219 15.3597 109.946 15.521C109.673 15.6824 109.458 15.9068 109.3 16.1944C109.143 16.482 109.064 16.8099 109.064 17.1782C109.064 17.5464 109.143 17.8726 109.3 18.1567C109.458 18.4443 109.673 18.6687 109.946 18.83C110.219 18.9914 110.527 19.072 110.87 19.072C111.217 19.072 111.525 18.9914 111.795 18.83Z" fill="white"/>
<path d="M117.976 15.3843C118.305 15.7104 118.469 16.1821 118.469 16.7994V19.4245H118.039V16.831C118.039 16.3259 117.911 15.9419 117.655 15.6789C117.4 15.4123 117.043 15.2791 116.584 15.2791C116.055 15.2791 115.639 15.4369 115.334 15.7525C115.033 16.0717 114.883 16.4978 114.883 17.0309V19.4245H114.452V14.9266H114.862V15.8998C115.019 15.5842 115.25 15.3369 115.555 15.1581C115.863 14.9827 116.225 14.895 116.642 14.895C117.206 14.895 117.65 15.0581 117.976 15.3843Z" fill="white"/>
<path d="M124.677 19.1402C124.568 19.2454 124.432 19.3243 124.267 19.377C124.106 19.4331 123.936 19.4611 123.758 19.4611C123.369 19.4611 123.068 19.3524 122.854 19.135C122.641 18.921 122.534 18.6212 122.534 18.2354V15.2999H121.71V14.9264H122.534V13.9426H122.965V14.9264H124.393V15.2999H122.965V18.1933C122.965 18.4879 123.035 18.7106 123.175 18.8614C123.315 19.0122 123.523 19.0876 123.8 19.0876C124.08 19.0876 124.313 19.0052 124.498 18.8404L124.677 19.1402Z" fill="white"/>
<path d="M129.398 15.3843C129.727 15.7104 129.891 16.1821 129.891 16.7994V19.4245H129.461V16.831C129.461 16.3259 129.333 15.9419 129.077 15.6789C128.822 15.4123 128.465 15.279 128.006 15.279C127.477 15.279 127.063 15.4369 126.762 15.7525C126.457 16.0717 126.305 16.4978 126.305 17.0309V19.4245H125.874V13.0327H126.305V15.8682C126.459 15.5561 126.688 15.3159 126.993 15.1475C127.297 14.9792 127.656 14.895 128.069 14.895C128.629 14.895 129.072 15.0581 129.398 15.3843Z" fill="white"/>
<path fill-rule="evenodd" clip-rule="evenodd" d="M135.463 17.2781H131.603C131.614 17.6288 131.702 17.941 131.866 18.2145C132.034 18.4881 132.26 18.6985 132.544 18.8458C132.827 18.9966 133.147 19.072 133.505 19.072C133.795 19.072 134.065 19.0194 134.313 18.9142C134.565 18.8055 134.774 18.6477 134.938 18.4407L135.19 18.7301C134.994 18.9651 134.749 19.1457 134.455 19.2719C134.157 19.3982 133.837 19.4613 133.494 19.4613C133.046 19.4613 132.647 19.3631 132.297 19.1667C131.947 18.9703 131.673 18.7003 131.477 18.3566C131.278 18.0129 131.178 17.6201 131.178 17.1782C131.178 16.7398 131.273 16.347 131.462 15.9998C131.647 15.6526 131.903 15.3808 132.228 15.1844C132.558 14.9915 132.925 14.895 133.331 14.895C133.737 14.895 134.103 14.9915 134.429 15.1844C134.751 15.3737 135.006 15.642 135.196 15.9892C135.381 16.3329 135.474 16.7222 135.474 17.1571L135.463 17.2781ZM132.475 15.4842C132.223 15.6245 132.022 15.8227 131.871 16.0787C131.717 16.3347 131.63 16.624 131.609 16.9467H135.048C135.031 16.624 134.945 16.3365 134.791 16.0839C134.637 15.8314 134.434 15.6333 134.182 15.4895C133.93 15.3457 133.646 15.2738 133.331 15.2738C133.013 15.2738 132.727 15.3439 132.475 15.4842Z" fill="white"/>
<path fill-rule="evenodd" clip-rule="evenodd" d="M69.5091 32.7605H64.3678L63.349 35.1436H61.3797L66.0116 24.8379H67.8916L72.5393 35.1436H70.5384L69.5091 32.7605ZM68.8789 31.2612L66.9359 26.7528L65.0138 31.2612H68.8789Z" fill="white"/>
<path fill-rule="evenodd" clip-rule="evenodd" d="M80.0699 27.6943C80.6755 28.0275 81.1499 28.4992 81.493 29.1095C81.8326 29.7162 82.0024 30.4176 82.0024 31.2138C82.0024 32.0099 81.8326 32.7148 81.493 33.3286C81.1499 33.9423 80.6755 34.4158 80.0699 34.749C79.4677 35.0822 78.785 35.2487 78.0218 35.2487C76.9644 35.2487 76.1259 34.8945 75.5063 34.1861V38.0001H73.6682V27.284H75.417V28.3151C75.7216 27.9398 76.0979 27.6593 76.5461 27.4734C76.9907 27.2875 77.4826 27.1946 78.0218 27.1946C78.785 27.1946 79.4677 27.3612 80.0699 27.6943ZM79.4817 32.9972C79.9193 32.5447 80.1381 31.9503 80.1381 31.2138C80.1381 30.4773 79.9193 29.8828 79.4817 29.4304C79.0476 28.9815 78.4926 28.757 77.8169 28.757C77.3758 28.757 76.9784 28.857 76.6248 29.0569C76.2712 29.2568 75.9912 29.5444 75.7846 29.9196C75.5815 30.2914 75.48 30.7228 75.48 31.2138C75.48 31.7048 75.5815 32.1362 75.7846 32.5079C75.9912 32.8832 76.2712 33.1708 76.6248 33.3707C76.9784 33.5706 77.3758 33.6705 77.8169 33.6705C78.4926 33.6705 79.0476 33.4461 79.4817 32.9972Z" fill="white"/>
<path fill-rule="evenodd" clip-rule="evenodd" d="M90.1582 27.6943C90.7604 28.0275 91.233 28.4992 91.5761 29.1095C91.9192 29.7162 92.0908 30.4176 92.0908 31.2138C92.0908 32.0099 91.9192 32.7148 91.5761 33.3286C91.233 33.9423 90.7604 34.4158 90.1582 34.749C89.5525 35.0822 88.868 35.2487 88.1048 35.2487C87.0475 35.2487 86.209 34.8945 85.5893 34.1861V38.0001H83.7565V27.284H85.5053V28.3151C85.8064 27.9398 86.181 27.6593 86.6291 27.4734C87.0738 27.2875 87.5657 27.1946 88.1048 27.1946C88.868 27.1946 89.5525 27.3612 90.1582 27.6943ZM89.57 32.9972C90.0041 32.5447 90.2212 31.9503 90.2212 31.2138C90.2212 30.4773 90.0041 29.8828 89.57 29.4304C89.1324 28.9815 88.5757 28.757 87.9 28.757C87.4589 28.757 87.0615 28.857 86.7079 29.0569C86.3543 29.2568 86.076 29.5444 85.8729 29.9196C85.6663 30.2914 85.5631 30.7228 85.5631 31.2138C85.5631 31.7048 85.6663 32.1362 85.8729 32.5079C86.076 32.8832 86.3543 33.1708 86.7079 33.3707C87.0615 33.5706 87.4589 33.6705 87.9 33.6705C88.5757 33.6705 89.1324 33.4461 89.57 32.9972Z" fill="white"/>
<path d="M98.9598 34.9543C98.2211 34.7299 97.6364 34.43 97.2058 34.0548L97.8675 32.566C98.2876 32.9027 98.804 33.1762 99.4167 33.3866C100.029 33.5971 100.644 33.7023 101.26 33.7023C102.023 33.7023 102.594 33.5795 102.972 33.334C103.35 33.0885 103.539 32.7641 103.539 32.3608C103.539 32.0662 103.434 31.8242 103.224 31.6348C103.014 31.4419 102.746 31.2911 102.421 31.1824C102.099 31.0772 101.657 30.9544 101.097 30.8142C100.313 30.6283 99.6793 30.4424 99.1962 30.2565C98.7095 30.0706 98.2929 29.7778 97.9463 29.378C97.5997 28.9817 97.4264 28.4451 97.4264 27.7682C97.4264 27.2 97.5804 26.6827 97.8885 26.2163C98.1966 25.7498 98.6622 25.3781 99.2854 25.101C99.9051 24.8275 100.667 24.6907 101.57 24.6907C102.197 24.6907 102.814 24.7696 103.424 24.9274C104.029 25.0852 104.553 25.3114 104.994 25.606L104.39 27.0896C103.942 26.8265 103.473 26.6249 102.983 26.4846C102.492 26.3478 102.016 26.2794 101.554 26.2794C100.801 26.2794 100.241 26.4074 99.8736 26.6634C99.506 26.9195 99.3222 27.2579 99.3222 27.6788C99.3222 27.9734 99.4272 28.2136 99.6373 28.3995C99.8473 28.5889 100.113 28.7362 100.436 28.8414C100.761 28.9501 101.202 29.0729 101.759 29.2096C102.526 29.3885 103.154 29.5726 103.644 29.762C104.134 29.9549 104.553 30.2477 104.899 30.6405C105.246 31.0333 105.419 31.5629 105.419 32.2293C105.419 32.7974 105.265 33.313 104.957 33.7759C104.649 34.2389 104.182 34.6071 103.555 34.8807C102.928 35.1542 102.163 35.291 101.26 35.291C100.465 35.291 99.6986 35.1788 98.9598 34.9543Z" fill="white"/>
<path d="M111.858 34.7177C111.644 34.8965 111.381 35.0298 111.07 35.1175C110.762 35.2052 110.436 35.249 110.093 35.249C109.232 35.249 108.567 35.0228 108.098 34.5704C107.625 34.1179 107.389 33.4604 107.389 32.5976V28.8151H106.097V27.3421H107.389V25.543H109.227V27.3421H111.327V28.8151H109.227V32.5555C109.227 32.9378 109.319 33.2289 109.505 33.4288C109.694 33.6322 109.964 33.7339 110.314 33.7339C110.727 33.7339 111.07 33.6252 111.343 33.4077L111.858 34.7177Z" fill="white"/>
<path fill-rule="evenodd" clip-rule="evenodd" d="M114.489 34.7332C113.851 34.3895 113.354 33.9108 112.997 33.297C112.64 32.6833 112.462 31.9889 112.462 31.2138C112.462 30.4387 112.64 29.746 112.997 29.1358C113.354 28.5291 113.851 28.0538 114.489 27.7101C115.126 27.3664 115.842 27.1946 116.637 27.1946C117.438 27.1946 118.158 27.3664 118.795 27.7101C119.432 28.0538 119.931 28.5291 120.292 29.1358C120.649 29.746 120.827 30.4387 120.827 31.2138C120.827 31.9889 120.649 32.6833 120.292 33.297C119.931 33.9108 119.432 34.3895 118.795 34.7332C118.158 35.0769 117.438 35.2487 116.637 35.2487C115.842 35.2487 115.126 35.0769 114.489 34.7332ZM118.312 32.9972C118.753 32.5447 118.973 31.9503 118.973 31.2138C118.973 30.4773 118.753 29.8828 118.312 29.4304C117.871 28.9815 117.312 28.757 116.637 28.757C115.961 28.757 115.404 28.9815 114.967 29.4304C114.532 29.8828 114.315 30.4773 114.315 31.2138C114.315 31.9503 114.532 32.5447 114.967 32.9972C115.404 33.4461 115.961 33.6705 116.637 33.6705C117.312 33.6705 117.871 33.4461 118.312 32.9972Z" fill="white"/>
<path d="M127.129 27.1946V28.9464C126.975 28.9183 126.833 28.9043 126.704 28.9043C125.99 28.9043 125.431 29.1112 125.029 29.5251C124.626 29.9424 124.425 30.5439 124.425 31.3295V35.1435H122.592V27.284H124.341V28.4308C124.869 27.6067 125.799 27.1946 127.129 27.1946Z" fill="white"/>
<path fill-rule="evenodd" clip-rule="evenodd" d="M135.968 31.803H129.808C129.916 32.3817 130.198 32.8411 130.653 33.1813C131.108 33.518 131.674 33.6863 132.349 33.6863C133.211 33.6863 133.921 33.4022 134.481 32.8341L135.469 33.9651C135.115 34.3895 134.669 34.7086 134.13 34.9226C133.59 35.14 132.983 35.2487 132.307 35.2487C131.443 35.2487 130.683 35.0769 130.028 34.7332C129.37 34.3895 128.862 33.9108 128.505 33.297C128.148 32.6833 127.969 31.9889 127.969 31.2138C127.969 30.4492 128.143 29.7601 128.489 29.1463C128.839 28.5326 129.323 28.0538 129.939 27.7101C130.555 27.3664 131.252 27.1946 132.029 27.1946C132.792 27.1946 133.475 27.3629 134.077 27.6996C134.679 28.0398 135.15 28.5168 135.49 29.1305C135.826 29.7443 135.994 30.4527 135.994 31.2559C135.994 31.3856 135.985 31.568 135.968 31.803ZM130.532 29.1884C130.126 29.5356 129.879 30.0003 129.792 30.5825H134.245C134.168 30.0108 133.928 29.5479 133.526 29.1937C133.123 28.8429 132.624 28.6676 132.029 28.6676C131.441 28.6676 130.942 28.8412 130.532 29.1884Z" fill="white"/>
</svg>
