<svg width="19" height="14" viewBox="0 0 19 14" fill="none" xmlns="http://www.w3.org/2000/svg">
<path d="M18.5543 6.78168C18.5895 6.74645 18.6175 6.70393 18.637 6.65721C18.6757 6.56338 18.6757 6.45806 18.637 6.36461C18.6175 6.31788 18.5895 6.27537 18.5543 6.24013L12.4265 0.112311C12.2767 -0.0374375 12.0347 -0.0374375 11.8849 0.112311C11.8102 0.186994 11.7727 0.285039 11.7727 0.383084C11.7727 0.481129 11.8102 0.579175 11.8849 0.653857L17.359 6.12792L1.049 6.12792C0.837594 6.12792 0.666015 6.2995 0.666015 6.51091C0.666015 6.72232 0.837594 6.8939 1.049 6.8939L17.359 6.8939L11.8849 12.368C11.8102 12.4426 11.7727 12.5407 11.7727 12.6387C11.7727 12.7368 11.8102 12.8348 11.8849 12.9095C12.0347 13.0593 12.2767 13.0593 12.4265 12.9095L18.5543 6.78168Z" fill="white"/>
</svg>
