<svg width="144" height="99" viewBox="0 0 144 99" fill="none" xmlns="http://www.w3.org/2000/svg">
<path d="M142.844 32.2916C143.117 32.3277 143.369 32.135 143.405 31.8613L143.993 27.3999C144.029 27.1261 143.837 26.8749 143.563 26.8388C143.289 26.8027 143.038 26.9954 143.002 27.2691L142.479 31.2348L138.513 30.7117C138.239 30.6756 137.988 30.8683 137.952 31.142C137.916 31.4158 138.108 31.667 138.382 31.7031L142.844 32.2916ZM52.3664 17.8945L52.02 17.5339L52.3664 17.8945ZM45.6829 94.0771L45.4061 94.4935L45.6829 94.0771ZM70.6566 45.4312L70.987 45.0559L70.987 45.0559L70.6566 45.4312ZM1.26671 71.5627C1.43769 71.0346 1.66927 70.4471 1.96016 69.8079L1.04997 69.3937C0.746866 70.0598 0.500364 70.6831 0.315326 71.2547L1.26671 71.5627ZM3.7974 66.3878C4.42278 65.3575 5.14214 64.2662 5.94851 63.1337L5.1339 62.5537C4.31466 63.7043 3.5817 64.8159 2.94256 65.8689L3.7974 66.3878ZM8.31239 60.0144C9.10274 59.0305 9.94781 58.0309 10.8435 57.027L10.0973 56.3613C9.19018 57.378 8.33395 58.3907 7.53275 59.3882L8.31239 60.0144ZM13.5193 54.1743C14.4204 53.2601 15.3602 52.3513 16.3356 51.4562L15.6595 50.7194C14.6714 51.6261 13.7196 52.5466 12.8071 53.4723L13.5193 54.1743ZM19.2872 48.8855C20.2855 48.0613 21.3136 47.2574 22.3686 46.4814L21.776 45.6758C20.7054 46.4634 19.6626 47.2788 18.6505 48.1143L19.2872 48.8855ZM25.5848 44.2612C26.6784 43.5554 27.7955 42.884 28.9333 42.2543L28.4491 41.3793C27.2904 42.0206 26.154 42.7036 25.0425 43.421L25.5848 44.2612ZM32.413 40.4939C33.5971 39.9513 34.7993 39.4581 36.0169 39.0214L35.6793 38.0801C34.4334 38.5269 33.2049 39.031 31.9964 39.5848L32.413 40.4939ZM39.735 37.8827C40.9924 37.5641 42.2625 37.3104 43.5428 37.129L43.4025 36.1389C42.085 36.3256 40.7797 36.5864 39.4894 36.9133L39.735 37.8827ZM47.4065 36.8089C48.6882 36.7793 49.9775 36.8274 51.2716 36.96L51.3736 35.9652C50.0367 35.8282 48.7057 35.7787 47.3835 35.8091L47.4065 36.8089ZM55.0882 37.6003C56.3242 37.8902 57.563 38.2627 58.8025 38.7243L59.1515 37.7872C57.8726 37.3109 56.5934 36.9262 55.3165 36.6267L55.0882 37.6003ZM62.3362 40.2867C63.452 40.8598 64.5671 41.5103 65.6799 42.2427L66.2297 41.4074C65.0877 40.6558 63.9416 39.9871 62.7931 39.3971L62.3362 40.2867ZM68.8155 44.5338C69.32 44.9399 69.8236 45.364 70.3262 45.8065L70.987 45.0559C70.4735 44.6039 69.9587 44.1703 69.4427 43.7549L68.8155 44.5338ZM70.3262 45.8065C70.8319 46.2516 71.3226 46.6972 71.7985 47.143L72.4822 46.4132C71.9986 45.9602 71.5002 45.5077 70.987 45.0559L70.3262 45.8065ZM74.5537 49.8997C75.4704 50.8823 76.3183 51.8646 77.1002 52.8448L77.882 52.2212C77.0834 51.2201 76.2186 50.2183 75.2849 49.2175L74.5537 49.8997ZM79.3896 55.9862C80.1287 57.1042 80.7849 58.2171 81.3624 59.3224L82.2487 58.8593C81.6548 57.7226 80.9811 56.5803 80.2238 55.4347L79.3896 55.9862ZM82.9512 62.8393C83.428 64.0887 83.8069 65.3247 84.0945 66.5434L85.0678 66.3137C84.7698 65.0509 84.3777 63.7726 83.8855 62.4827L82.9512 62.8393ZM84.7086 70.351C84.8215 71.6619 84.83 72.9472 84.7425 74.2018L85.74 74.2714C85.8312 72.965 85.8223 71.6277 85.7049 70.2651L84.7086 70.351ZM84.1682 78.009C83.8718 79.2739 83.4761 80.4983 82.9914 81.6761L83.9161 82.0567C84.4209 80.8304 84.833 79.555 85.1418 78.2372L84.1682 78.009ZM81.2501 85.1116C80.579 86.2138 79.8251 87.2604 78.9994 88.2443L79.7653 88.8871C80.6229 87.8653 81.4064 86.7778 82.1042 85.6316L81.2501 85.1116ZM76.3077 91.0095C75.3438 91.8649 74.3186 92.6498 73.2431 93.3571L73.7926 94.1926C74.908 93.459 75.9715 92.6449 76.9715 91.7574L76.3077 91.0095ZM69.8733 95.2411C68.7065 95.7869 67.5009 96.2477 66.2678 96.6164L66.5543 97.5745C67.835 97.1915 69.0865 96.7132 70.297 96.1469L69.8733 95.2411ZM62.5003 97.4391C61.2311 97.6159 59.946 97.6949 58.6559 97.6695L58.6361 98.6693C59.9802 98.6958 61.3181 98.6135 62.6383 98.4295L62.5003 97.4391ZM54.8252 97.2809C53.5796 97.0503 52.3391 96.7159 51.1134 96.2713L50.7724 97.2114C52.0504 97.6749 53.3441 98.0237 54.6431 98.2642L54.8252 97.2809ZM47.6134 94.6703C47.0567 94.3596 46.5051 94.0233 45.9597 93.6607L45.4061 94.4935C45.9729 94.8703 46.5466 95.2201 47.1261 95.5435L47.6134 94.6703ZM45.9597 93.6607C45.5982 93.4204 45.0604 93.0296 44.3956 92.4917L43.7665 93.269C44.4502 93.8223 45.0134 94.2324 45.4061 94.4935L45.9597 93.6607ZM41.4265 89.8126C40.5639 88.9547 39.6442 87.9687 38.7115 86.8585L37.9458 87.5018C38.8991 88.6364 39.8391 89.6443 40.7213 90.5217L41.4265 89.8126ZM36.2756 83.6811C35.5425 82.6294 34.8255 81.502 34.1465 80.3008L33.276 80.7928C33.9714 82.0232 34.7054 83.1772 35.4553 84.2529L36.2756 83.6811ZM32.3563 76.7323C31.8331 75.5434 31.3563 74.2979 30.941 72.997L29.9884 73.3011C30.4148 74.6371 30.9043 75.9156 31.441 77.1351L32.3563 76.7323ZM29.9359 69.1337C29.6789 67.8634 29.4842 66.5488 29.3631 65.1908L28.3671 65.2796C28.4915 66.6753 28.6916 68.0264 28.9557 69.332L29.9359 69.1337ZM29.2271 61.2009C29.2532 59.9074 29.3476 58.5793 29.5185 57.2172L28.5262 57.0927C28.351 58.4894 28.2542 59.8523 28.2273 61.1806L29.2271 61.2009ZM30.2089 53.292C30.4934 52.0325 30.8438 50.7468 31.266 49.4353L30.3141 49.1289C29.8829 50.4682 29.5246 51.7827 29.2335 53.0716L30.2089 53.292ZM32.6496 45.6741C33.1443 44.4777 33.6989 43.2615 34.3174 42.026L33.4232 41.5783C32.7942 42.8348 32.2296 44.0728 31.7255 45.292L32.6496 45.6741ZM36.2293 38.4994C36.8829 37.3793 37.5889 36.2445 38.3502 35.0951L37.5165 34.5429C36.745 35.7076 36.029 36.8586 35.3656 37.9955L36.2293 38.4994ZM40.6516 31.8075C41.4252 30.7586 42.2448 29.6984 43.1123 28.627L42.3351 27.9977C41.4584 29.0805 40.6296 30.1526 39.8468 31.2139L40.6516 31.8075ZM45.7178 25.5413C46.5861 24.5535 47.495 23.5566 48.446 22.551L47.7194 21.8639C46.7603 22.8781 45.8432 23.8839 44.9667 24.8811L45.7178 25.5413ZM51.2384 19.6937C51.7204 19.216 52.2118 18.7365 52.7129 18.255L52.02 17.5339C51.5153 18.0189 51.0202 18.5021 50.5345 18.9835L51.2384 19.6937ZM52.7129 18.255C53.2085 17.7787 53.7044 17.3145 54.2005 16.8621L53.5267 16.1232C53.024 16.5815 52.5218 17.0517 52.02 17.5339L52.7129 18.255ZM57.2342 14.2428C58.2933 13.3791 59.3529 12.5671 60.4123 11.8051L59.8284 10.9933C58.7522 11.7674 57.6766 12.5917 56.6022 13.4679L57.2342 14.2428ZM63.7379 9.57397C64.8961 8.85214 66.0534 8.18768 67.209 7.57815L66.7425 6.69365C65.5653 7.31456 64.3872 7.99099 63.209 8.72529L63.7379 9.57397ZM70.818 5.84753C72.0656 5.3082 73.3102 4.83032 74.551 4.41082L74.2307 3.4635C72.9639 3.89183 71.6937 4.37953 70.4212 4.92963L70.818 5.84753ZM78.3881 3.29284C79.6995 2.97123 81.0055 2.71213 82.3049 2.51189L82.1526 1.52355C80.8245 1.72822 79.4899 1.99301 78.1499 2.32162L78.3881 3.29284ZM86.2736 2.07798C87.6141 1.99076 88.9462 1.96354 90.2685 1.99222L90.2902 0.99245C88.9396 0.96316 87.5786 0.990955 86.2087 1.08009L86.2736 2.07798ZM94.2606 2.24771C95.5921 2.38878 96.912 2.58403 98.2187 2.82911L98.403 1.84625C97.071 1.59642 95.7248 1.39723 94.366 1.25328L94.2606 2.24771ZM102.122 3.71571C103.414 4.0603 104.692 4.45129 105.953 4.88416L106.278 3.93833C104.995 3.49816 103.695 3.10029 102.379 2.74946L102.122 3.71571ZM109.7 6.31028C110.937 6.82697 112.154 7.38161 113.352 7.96951L113.793 7.07182C112.578 6.47539 111.341 5.91238 110.086 5.3876L109.7 6.31028ZM116.902 9.83909C118.074 10.4985 119.224 11.1873 120.349 11.9005L120.885 11.0559C119.745 10.3337 118.581 9.63587 117.393 8.96756L116.902 9.83909ZM123.689 14.136C124.793 14.9145 125.869 15.7135 126.916 16.5277L127.53 15.7383C126.471 14.9148 125.382 14.1065 124.266 13.3188L123.689 14.136ZM130.032 19.0665C131.069 19.9504 132.071 20.8451 133.036 21.7443L133.718 21.0126C132.742 20.1037 131.729 19.1992 130.681 18.3055L130.032 19.0665ZM135.909 24.5417C136.877 25.5265 137.798 26.5088 138.669 27.4804L139.414 26.8128C138.532 25.8299 137.601 24.8365 136.623 23.8408L135.909 24.5417ZM141.274 30.5307C141.703 31.0606 142.117 31.5842 142.512 32.1002L143.306 31.4916C142.904 30.9683 142.486 30.4375 142.05 29.9007L141.274 30.5307Z" fill="#FF5F55"/>
</svg>
