<svg width="61" height="50" viewBox="0 0 61 50" fill="none" xmlns="http://www.w3.org/2000/svg">
<circle cx="36" cy="25" r="25" fill="#E4F2FF"/>
<path d="M0 35V7.1C0 6.63333 0.216667 6.16667 0.65 5.7C1.08333 5.23333 1.53333 5 2 5H27.95C28.45 5 28.9167 5.225 29.35 5.675C29.7833 6.125 30 6.6 30 7.1V24.9C30 25.3667 29.7833 25.8333 29.35 26.3C28.9167 26.7667 28.45 27 27.95 27H8L0 35ZM10.05 37C9.58333 37 9.125 36.7667 8.675 36.3C8.225 35.8333 8 35.3667 8 34.9V30H33V13H38C38.4667 13 38.9167 13.2333 39.35 13.7C39.7833 14.1667 40 14.65 40 15.15V44.95L32.05 37H10.05ZM27 8H3V27.75L6.75 24H27V8Z" fill="#439EF1"/>
</svg>
