<svg width="82" height="72" viewBox="0 0 82 72" fill="none" xmlns="http://www.w3.org/2000/svg">
<path d="M51.9887 52.7981C51.9887 51.2201 50.7143 49.8207 49.2772 49.8207H29.483C28.0459 49.8207 26.7715 51.2201 26.7715 52.7981V68.5783C26.7715 70.1563 28.0459 71.5557 29.483 71.5557H49.2772C50.7143 71.5557 51.9887 70.1563 51.9887 68.5783V52.7981ZM81.0022 52.7981C81.0022 51.2201 79.7277 49.8207 78.2906 49.8207H58.4964C57.0593 49.8207 55.7849 51.2201 55.7849 52.7981V68.5783C55.7849 70.1563 57.0593 71.5557 58.4964 71.5557H78.2906C79.7277 71.5557 81.0022 70.1563 81.0022 68.5783V52.7981ZM81.0022 26.8949C81.0022 25.3169 79.7277 23.9175 78.2906 23.9175H58.4964C57.0593 23.9175 55.7849 25.3169 55.7849 26.8949V42.675C55.7849 44.253 57.0593 45.6524 58.4964 45.6524H78.2906C79.7277 45.6524 81.0022 44.253 81.0022 42.675V26.8949ZM51.9887 26.8949C51.9887 25.3169 50.7143 23.9175 49.2772 23.9175H29.483C28.0459 23.9175 26.7715 25.3169 26.7715 26.8949V42.675C26.7715 44.253 28.0459 45.6524 29.483 45.6524H49.2772C50.7143 45.6524 51.9887 44.253 51.9887 42.675V26.8949Z" fill="#D0DAD6"/>
<path d="M36.3342 19.9304L52.3431 50.3712M23.4496 19.9304H55.4674M17.0064 32.1799L33.0152 1.73909M23.4489 44.4297L7.44003 13.9889M36.3347 44.43H4.31692M42.7768 32.1802L26.7679 62.621M57.7821 32.1802C57.7821 49.0937 45.2953 62.8048 29.892 62.8048C14.4888 62.8048 2.00195 49.0937 2.00195 32.1802C2.00195 15.2667 14.4888 1.55566 29.892 1.55566C45.2953 1.55566 57.7821 15.2667 57.7821 32.1802Z" stroke="#E33700" stroke-width="3" stroke-linecap="round" stroke-linejoin="round"/>
</svg>
