<svg width="87" height="65" viewBox="0 0 87 65" fill="none" xmlns="http://www.w3.org/2000/svg">
<rect x="25" y="3" width="62" height="62" rx="31" fill="#EEFFE7"/>
<path d="M1.5 58.9799H15.06C15.89 58.9799 16.56 58.3099 16.56 57.4799V35.2799C16.56 34.4499 15.89 33.7799 15.06 33.7799H1.5C0.67 33.7799 0 34.4499 0 35.2799V57.4799C0 58.3099 0.67 58.9799 1.5 58.9799ZM3 36.7799H13.56V55.9799H3V36.7799ZM36.28 58.9799C37.11 58.9799 37.78 58.3099 37.78 57.4799V27.8599C37.78 27.0299 37.11 26.3599 36.28 26.3599H22.72C21.89 26.3599 21.22 27.0299 21.22 27.8599V57.4799C21.22 58.3099 21.89 58.9799 22.72 58.9799H36.28ZM24.22 29.3599H34.78V55.9799H24.22V29.3599ZM57.5 18.9399H43.94C43.11 18.9399 42.44 19.6099 42.44 20.4399V57.4799C42.44 58.3099 43.11 58.9799 43.94 58.9799H57.5C58.33 58.9799 59 58.3099 59 57.4799V20.4399C59 19.6099 58.33 18.9399 57.5 18.9399ZM56 55.9799H45.44V21.9399H56V55.9799Z" fill="#3FAE2D"/>
<path d="M58.8904 0.93C58.8204 0.75 58.7104 0.59 58.5804 0.45C58.5804 0.45 58.5804 0.44 58.5704 0.44H58.5604C58.4291 0.30132 58.2709 0.190798 58.0956 0.115156C57.9202 0.0395148 57.7313 0.000334965 57.5404 0H46.2204C45.3904 0 44.7204 0.67 44.7204 1.5C44.7204 2.33 45.3904 3 46.2204 3H53.6604C30.1804 23.8 1.68035 26.34 1.38035 26.37C0.550352 26.44 -0.0596484 27.16 0.0103516 27.99C0.0703516 28.77 0.730352 29.37 1.50035 29.37H1.62035C1.93035 29.35 31.6804 26.73 56.0004 4.94V12.78C56.0004 13.61 56.6704 14.28 57.5004 14.28C58.3304 14.28 59.0004 13.61 59.0004 12.78V1.48C59.0004 1.3 58.9604 1.13 58.9004 0.97C58.9004 0.95 58.9004 0.94 58.8904 0.93Z" fill="#3FAE2D"/>
</svg>
