<svg width="52" height="52" viewBox="0 0 52 52" fill="none" xmlns="http://www.w3.org/2000/svg">
<circle cx="26" cy="26" r="26" fill="#FFD53F"/>
<path fill-rule="evenodd" clip-rule="evenodd" d="M17.6055 16.6054C17.9375 16.3203 18.2617 16.1406 18.5781 16.0586C18.8789 15.9844 19.3633 16.0078 19.6563 16.1133C20.0781 16.2578 20.3047 16.4531 21.7813 17.9297C23.2734 19.4258 23.4219 19.5976 23.5742 20.0508C23.7266 20.4961 23.6836 21.0351 23.4648 21.4609C23.2891 21.7969 22.9805 22.1523 22.1992 22.914C21.8281 23.2773 21.5234 23.5976 21.5234 23.625C21.5273 23.7695 22.1758 24.8359 22.6172 25.414C23.2266 26.2109 24.3281 27.3476 25.1172 27.9961C25.8867 28.6289 26.4023 28.9765 27.1016 29.3398L27.3867 29.4883L28.2734 28.6133C28.7617 28.1289 29.2461 27.6875 29.3477 27.625C29.7891 27.3711 30.2461 27.289 30.6953 27.3828C31.2617 27.5 31.3164 27.5429 33.0313 29.2578C34.7305 30.9609 34.7734 31.0117 34.9063 31.5703C35.0234 32.0703 34.9063 32.6601 34.6016 33.1015C34.4375 33.3398 32.6719 35.1523 32.4063 35.3515C32.1445 35.5508 31.5742 35.8164 31.2305 35.8984C28.9141 36.4609 24.4141 34.457 21.0547 31.3594C18.6172 29.1133 16.6914 26.3476 15.6641 23.6172C14.8203 21.3828 14.8359 19.6523 15.707 18.539C15.9219 18.2617 17.2383 16.9219 17.6055 16.6054Z" fill="white"/>
</svg>
