<svg width="48" height="48" viewBox="0 0 48 48" fill="none" xmlns="http://www.w3.org/2000/svg">
<path d="M25.972 0.168746C25.0549 0.627292 24.9707 1.92807 25.8317 2.48955C25.9627 2.57377 26.599 2.76093 27.2634 2.91066C29.2661 3.35049 30.258 3.67803 32.0548 4.49218C34.6283 5.66194 36.9116 7.28089 39.0359 9.46132C42.1054 12.615 44.1174 16.3957 45.0532 20.7846C45.3058 21.9731 45.3713 22.1228 45.7363 22.3942C46.3259 22.8247 47.0464 22.7872 47.5237 22.2913C47.9542 21.8421 47.9822 21.552 47.7202 20.2793C45.8486 11.0709 38.8768 3.45343 29.8556 0.758305C28.8262 0.449488 26.8423 0.000300134 26.5148 0.000300134C26.3931 0.000300134 26.1498 0.0751648 25.972 0.168746Z" fill="#FDBE0C"/>
<path d="M7.90137 2.98508C6.70354 3.36876 5.70222 4.20163 2.8948 7.1775C0.882811 9.30179 0.340042 10.378 0.15288 12.521C-0.118504 15.5717 0.910885 19.4366 3.1849 23.9098C4.13942 25.8001 4.5699 26.5394 5.78645 28.3548C10.3719 35.2237 16.3892 40.6982 23.4919 44.4788C27.5159 46.6218 30.9223 47.7167 34.0198 47.8758C36.2096 47.9975 38.1561 47.3798 39.6159 46.1165C39.7937 45.9668 40.8699 44.8906 42.0116 43.7115C43.9019 41.7743 44.1172 41.5123 44.4821 40.7917C45.184 39.388 45.1933 38.1247 44.4915 36.6835C44.1078 35.9068 44.0142 35.8039 40.6266 32.4162C37.3419 29.1222 37.1173 28.9163 36.4435 28.5982C35.0117 27.9244 33.5425 27.9899 32.1482 28.7947C31.9142 28.935 30.8568 29.8989 29.7899 30.9564L27.8528 32.8654L26.9264 32.3695C22.8088 30.1984 17.3998 24.752 15.3972 20.7654L15.0322 20.0542L16.829 18.2388C18.7474 16.3016 19.2153 15.7214 19.5241 14.8418C19.9359 13.6439 19.8516 12.5022 19.2621 11.2951C18.9533 10.6774 18.6351 10.3312 15.4533 7.14943C11.8318 3.52785 11.5417 3.28454 10.4374 2.95701C9.76363 2.76049 8.5658 2.76984 7.90137 2.98508ZM9.99758 5.70828C10.5778 5.97967 16.6325 12.0624 16.8851 12.6333C17.3718 13.7094 17.1659 14.065 14.6018 16.6104C13.4507 17.7428 12.4494 18.8096 12.3558 18.9874C12.0938 19.5115 12.2061 20.4566 12.6366 21.3737C13.8438 23.9378 15.7902 26.5207 18.7567 29.4778C21.1992 31.9203 23.7072 33.8012 26.2432 35.102C27.3007 35.6541 27.4411 35.7009 27.9745 35.6916C28.3394 35.6916 28.667 35.6261 28.8728 35.5231C29.0506 35.4296 30.1455 34.4095 31.3059 33.2678C32.4663 32.1261 33.5519 31.1155 33.7297 31.0219C34.1976 30.7879 35.0211 30.8628 35.489 31.1903C36.1534 31.6489 41.8431 37.4509 42.0677 37.8907C42.3391 38.4335 42.3391 39.0511 42.0677 39.5939C41.8619 39.9869 38.8486 43.15 37.8098 44.0483C36.3125 45.3585 34.2069 45.5176 30.7445 44.5818C28.2178 43.8986 24.3155 42.0083 21.1056 39.9121C14.2742 35.4389 8.02303 28.2051 4.86 21.1023C2.82929 16.5356 2.33331 13.0357 3.40014 10.8552C3.5873 10.4622 4.15814 9.82584 5.80516 8.1601C7.16208 6.7751 8.11661 5.88609 8.37864 5.75507C8.90269 5.47433 9.47353 5.46497 9.99758 5.70828Z" fill="#FDBE0C"/>
<path d="M25.5247 8.89144C24.8884 9.28448 24.6638 10.1267 25.0381 10.735C25.3001 11.1655 25.5247 11.2778 26.657 11.5585C29.2492 12.1948 31.3361 13.3833 33.1048 15.2456C34.7799 16.9955 35.9122 19.1105 36.4082 21.3845C36.6047 22.2641 36.7357 22.5636 37.0726 22.8256C37.8306 23.4245 39.0471 22.9847 39.2156 22.0489C39.356 21.3377 38.6541 18.8952 37.8399 17.2763C35.7531 13.0651 31.9724 10.0331 27.4244 8.92887C26.2921 8.65749 25.9271 8.64813 25.5247 8.89144Z" fill="#FDBE0C"/>
</svg>
