<svg width="20" height="22" viewBox="0 0 20 22" fill="none" xmlns="http://www.w3.org/2000/svg">
<path d="M10.8252 1.02424C10.4413 1.21619 10.4061 1.7607 10.7665 1.99574C10.8213 2.031 11.0877 2.10934 11.3658 2.17202C12.2041 2.35613 12.6194 2.49324 13.3715 2.83405C14.4488 3.32372 15.4046 4.00142 16.2938 4.91416C17.5787 6.2343 18.4209 7.8169 18.8127 9.65413C18.9184 10.1516 18.9459 10.2143 19.0986 10.3279C19.3454 10.5081 19.6471 10.4924 19.8469 10.2848C20.0271 10.0968 20.0388 9.97536 19.9291 9.4426C19.1457 5.58794 16.2272 2.39923 12.4509 1.27103C12.02 1.14176 11.1895 0.953728 11.0524 0.953728C11.0015 0.953728 10.8997 0.985066 10.8252 1.02424Z" fill="#FF5F55"/>
<path d="M3.26136 2.20369C2.75994 2.3643 2.34078 2.71294 1.16558 3.95865C0.323355 4.84789 0.0961495 5.29838 0.0178027 6.19545C-0.0958 7.47251 0.335107 9.09037 1.28702 10.9629C1.68659 11.7542 1.86679 12.0636 2.37604 12.8236C4.29554 15.6989 6.81438 17.9906 9.78764 19.5732C11.4721 20.4702 12.898 20.9286 14.1946 20.9952C15.1113 21.0461 15.9261 20.7875 16.5372 20.2587C16.6116 20.196 17.0621 19.7455 17.5401 19.2519C18.3314 18.4411 18.4215 18.3314 18.5742 18.0297C18.868 17.4421 18.8719 16.9133 18.5781 16.31C18.4175 15.9849 18.3784 15.9418 16.9603 14.5237C15.5853 13.1448 15.4913 13.0586 15.2092 12.9254C14.6099 12.6434 13.9949 12.6708 13.4112 13.0077C13.3132 13.0665 12.8706 13.47 12.424 13.9126L11.6131 14.7117L11.2253 14.5041C9.50168 13.5953 7.23746 11.3154 6.39915 9.64663L6.24637 9.34891L6.9985 8.58895C7.80155 7.77806 7.99742 7.53518 8.12669 7.16695C8.29906 6.66553 8.2638 6.18762 8.01701 5.68228C7.88773 5.42374 7.75454 5.2788 6.42265 3.9469C4.90664 2.43089 4.7852 2.32904 4.32296 2.19193C4.04091 2.10967 3.53949 2.11359 3.26136 2.20369ZM4.13884 3.34363C4.38172 3.45723 6.91623 6.0035 7.022 6.24246C7.2257 6.69296 7.13952 6.84181 6.06617 7.90733C5.58434 8.38133 5.16518 8.8279 5.12601 8.90233C5.01633 9.12171 5.06333 9.51736 5.24353 9.90126C5.74887 10.9746 6.56367 12.0558 7.80547 13.2937C8.8279 14.3161 9.87774 15.1035 10.9393 15.648C11.382 15.8791 11.4408 15.8987 11.664 15.8948C11.8168 15.8948 11.9539 15.8674 12.0401 15.8243C12.1145 15.7851 12.5729 15.3581 13.0586 14.8802C13.5444 14.4023 13.9988 13.9792 14.0732 13.94C14.2691 13.8421 14.6138 13.8734 14.8097 14.0105C15.0878 14.2025 17.4695 16.6312 17.5636 16.8154C17.6772 17.0426 17.6772 17.3011 17.5636 17.5283C17.4774 17.6928 16.216 19.0169 15.7812 19.393C15.1544 19.9414 14.273 20.008 12.8236 19.6163C11.7659 19.3303 10.1324 18.539 8.78872 17.6615C5.92907 15.789 3.31228 12.7609 1.98822 9.78765C1.13816 7.87599 0.930543 6.41091 1.37712 5.49817C1.45547 5.33364 1.69442 5.06726 2.38387 4.36997C2.95189 3.79021 3.35146 3.41806 3.46114 3.36322C3.68051 3.2457 3.91947 3.24178 4.13884 3.34363Z" fill="#FF5F55"/>
<path d="M10.6391 4.67506C10.3727 4.83958 10.2787 5.19214 10.4354 5.44677C10.5451 5.62697 10.6391 5.67398 11.1131 5.7915C12.1982 6.05788 13.0718 6.55538 13.8122 7.33493C14.5134 8.06747 14.9874 8.95279 15.195 9.9047C15.2772 10.2729 15.3321 10.3983 15.4731 10.508C15.7904 10.7587 16.2997 10.5746 16.3702 10.1828C16.4289 9.88512 16.1351 8.86269 15.7943 8.18499C14.9208 6.42219 13.3382 5.15297 11.4343 4.69072C10.9603 4.57712 10.8076 4.5732 10.6391 4.67506Z" fill="#FF5F55"/>
</svg>
