<svg width="37" height="37" viewBox="0 0 37 37" fill="none" xmlns="http://www.w3.org/2000/svg">
<circle cx="18.5" cy="18.5" r="18.5" fill="#1962F2"/>
<path d="M12.1858 9.03887C11.9007 9.11278 11.6086 9.27468 11.3095 9.53161C10.9786 9.8167 9.79252 11.0239 9.59894 11.2738C8.81407 12.2769 8.79999 13.8361 9.56022 15.8493C10.4859 18.3095 12.221 20.8013 14.4173 22.8251C17.4441 25.6161 21.4987 27.4217 23.5858 26.9149C23.8955 26.8409 24.4094 26.6016 24.6452 26.4221C24.8845 26.2426 26.4754 24.6095 26.6232 24.3948C26.8977 23.9971 27.0033 23.4657 26.8977 23.0151C26.778 22.5118 26.7393 22.4661 25.2083 20.9316C23.6632 19.3865 23.6139 19.3477 23.1036 19.2422C22.6988 19.1577 22.2871 19.2316 21.8893 19.4604C21.7978 19.5167 21.3614 19.9144 20.9215 20.3508L20.1225 21.1392L19.8656 21.0055C19.2356 20.6781 18.771 20.3649 18.0776 19.7947C17.3667 19.2105 16.3741 18.1863 15.8251 17.4683C15.4274 16.9474 14.8431 15.9865 14.8396 15.8563C14.8396 15.8317 15.1141 15.5431 15.4485 15.2157C16.1524 14.5294 16.4305 14.2091 16.5888 13.9065C16.7859 13.5228 16.8247 13.0371 16.6874 12.6359C16.5501 12.2276 16.4164 12.0728 15.0719 10.7248C13.7415 9.39435 13.5374 9.21837 13.1572 9.08814C12.8933 8.99311 12.4568 8.972 12.1858 9.03887ZM13.0024 10.0279C13.1009 10.0842 13.6641 10.6156 14.4208 11.3759C15.7899 12.7485 15.8427 12.8119 15.8392 13.1744C15.8392 13.4947 15.7547 13.6073 14.8361 14.5259C14.3715 14.987 13.9667 15.4128 13.9386 15.4727C13.8964 15.5466 13.8858 15.6487 13.8964 15.8211C13.9069 16.0323 13.9351 16.1132 14.1498 16.5391C14.6355 17.5035 15.276 18.3517 16.3354 19.4357C17.3878 20.5127 18.4366 21.3152 19.5171 21.8713C19.9008 22.0684 19.9747 22.0965 20.1507 22.093C20.2703 22.093 20.397 22.0684 20.4709 22.0297C20.5378 21.9945 20.9742 21.5862 21.4388 21.1251C22.0372 20.5303 22.3293 20.2664 22.4419 20.2171C22.6531 20.122 22.9276 20.122 23.1212 20.2171C23.3324 20.3227 25.8207 22.8075 25.9298 23.0257C25.9897 23.1419 26.0143 23.2474 26.0143 23.3988C26.0143 23.7613 25.9404 23.8599 24.9408 24.8629C23.9518 25.8555 23.8603 25.9223 23.3324 26.042C22.822 26.1546 21.9668 26.0631 21.101 25.8062C19.7811 25.4155 18.0072 24.4793 16.5466 23.4023C13.7345 21.3328 11.32 18.1687 10.3169 15.2439C9.83827 13.8537 9.78548 12.8576 10.1515 12.1185C10.2641 11.8827 10.3697 11.763 11.1018 11.0204C11.5523 10.5628 11.9852 10.1475 12.0591 10.0947C12.3759 9.87653 12.6997 9.85189 13.0024 10.0279Z" fill="white"/>
</svg>
