<svg width="26" height="25" viewBox="0 0 26 25" fill="none" xmlns="http://www.w3.org/2000/svg">
<path d="M8.24592 25C5.94476 25 3.99547 24.2013 2.39807 22.6039C0.800657 21.0065 0.00195312 19.0572 0.00195312 16.756V8.24397C0.00195312 5.94281 0.800657 3.99352 2.39807 2.39611C3.99547 0.798704 5.94476 0 8.24592 0H16.758C19.0591 0 21.0084 0.798704 22.6058 2.39611C24.2032 3.99352 25.002 5.94281 25.002 8.24397V16.756C25.002 19.0572 24.2032 21.0065 22.6058 22.6039C21.0084 24.2013 19.0591 25 16.758 25H8.24592ZM11.128 18.0295L19.506 9.65147L17.7633 7.90885L11.128 14.5442L7.84377 11.2601L6.10115 13.0027L11.128 18.0295ZM8.24592 22.5536H16.758C18.3666 22.5536 19.735 21.9895 20.8632 20.8613C21.9914 19.733 22.5556 18.3646 22.5556 16.756V8.24397C22.5556 6.63539 21.9914 5.26698 20.8632 4.13874C19.735 3.0105 18.3666 2.44638 16.758 2.44638H8.24592C6.63734 2.44638 5.26893 3.0105 4.14069 4.13874C3.01245 5.26698 2.44833 6.63539 2.44833 8.24397V16.756C2.44833 18.3646 3.01245 19.733 4.14069 20.8613C5.26893 21.9895 6.63734 22.5536 8.24592 22.5536Z" fill="#FF5F55"/>
</svg>
