<svg width="18" height="18" viewBox="0 0 18 18" fill="none" xmlns="http://www.w3.org/2000/svg">
<path d="M8.35603 0.0208035C8.28916 0.0278435 8.08149 0.0524807 7.89846 0.0700798C5.10373 0.376305 2.53074 2.10805 1.09466 4.66343C0.577249 5.58562 0.197109 6.76476 0.0422377 7.91926C-0.0140792 8.3522 -0.0140792 9.66861 0.0422377 10.1015C0.313263 12.1501 1.16506 13.8959 2.5941 15.3425C4.03722 16.8033 5.82177 17.6832 7.89846 17.9578C8.33139 18.0141 9.6478 18.0141 10.0807 17.9578C12.1574 17.6832 13.942 16.8033 15.3851 15.3425C16.8141 13.8959 17.6659 12.1501 17.937 10.1015C17.9933 9.66861 17.9933 8.3522 17.937 7.91926C17.6659 5.87073 16.8141 4.1249 15.3851 2.67826C13.949 1.2281 12.1469 0.334066 10.1159 0.0700798C9.80619 0.0278435 8.57426 -0.00383568 8.35603 0.0208035ZM10.1863 1.09083C11.0311 1.22106 11.7386 1.44281 12.527 1.82999C14.6143 2.85425 16.163 4.75495 16.7508 7.02171C16.9268 7.69399 16.9901 8.22196 16.9901 9.0104C16.9901 9.79884 16.9268 10.3268 16.7508 10.9991C16.163 13.2659 14.6143 15.1666 12.527 16.1908C11.3479 16.7681 10.306 17.0109 8.9896 17.0109C7.67319 17.0109 6.63132 16.7681 5.45219 16.1908C3.36494 15.1666 1.81622 13.2659 1.22841 10.9991C1.05242 10.3268 0.989067 9.79884 0.989067 9.0104C0.989067 8.22196 1.05242 7.69399 1.22841 7.02171C1.81622 4.75495 3.36494 2.85425 5.45219 1.82999C6.95515 1.09435 8.56018 0.840919 10.1863 1.09083Z" fill="white"/>
<path d="M8.14467 6.12663C7.92996 6.21462 7.80325 6.44693 7.84549 6.67924C7.86661 6.79187 8.02148 6.96434 8.96479 7.90765L10.063 9.00935L8.96479 10.1075C8.02148 11.0544 7.86661 11.2268 7.84549 11.3395C7.78213 11.6879 8.10947 11.9977 8.4509 11.9132C8.56001 11.8886 11.1048 9.37893 11.1928 9.2135C11.2527 9.09735 11.2562 8.9284 11.1999 8.8228C11.1365 8.69961 8.71488 6.25334 8.57409 6.16886C8.43682 6.08439 8.28898 6.07031 8.14467 6.12663Z" fill="white"/>
</svg>
