<svg width="13" height="13" viewBox="0 0 13 13" fill="none" xmlns="http://www.w3.org/2000/svg">
<path d="M5.44282 1.01133C3.59638 1.18752 1.91672 2.2282 0.915981 3.82093C-0.228061 5.63918 -0.296187 7.99539 0.739794 9.87707C1.20493 10.7228 1.89793 11.4792 2.69665 12.0101C3.46247 12.5175 4.30817 12.8323 5.27838 12.9709C5.55323 13.0085 6.48115 13.0109 6.75835 12.9709C8.24067 12.7642 9.46459 12.1252 10.463 11.0423C11.2828 10.1543 11.8091 9.01728 11.9899 7.73934C12.0369 7.4128 12.0299 6.55771 11.9758 6.18889C11.9265 5.82477 11.7879 5.26567 11.6681 4.94148C11.5624 4.65253 11.2758 4.06289 11.1254 3.82798C10.665 3.10209 10.0213 2.44432 9.31894 1.97684C9.0065 1.76776 8.40042 1.46472 8.05039 1.34021C7.21174 1.04422 6.30731 0.929111 5.44282 1.01133ZM6.69257 1.63151C7.51713 1.73957 8.33229 2.04027 8.99006 2.47721C10.1905 3.27592 11.0385 4.52568 11.3134 5.89994C11.4073 6.36507 11.4285 6.63523 11.4144 7.15204C11.3932 7.99539 11.2382 8.62967 10.8694 9.38375C10.113 10.9295 8.64238 12.0313 6.93454 12.332C6.56337 12.3977 5.81399 12.4212 5.45457 12.3813C4.381 12.2591 3.36381 11.8292 2.56274 11.1597C1.50092 10.2717 0.83376 9.05487 0.650526 7.67356C0.605892 7.32588 0.605892 6.69396 0.648177 6.34158C0.906585 4.26962 2.33253 2.52419 4.30347 1.87113C4.66055 1.75132 4.97768 1.67849 5.32536 1.63151C5.65894 1.58923 6.35664 1.58923 6.69257 1.63151Z" fill="#FF3F33"/>
<path d="M4.95554 4.64315C4.82399 4.72537 4.77701 4.95324 4.87097 5.066C4.88742 5.08714 5.38309 5.52644 5.97038 6.0409C6.55767 6.55537 7.03925 6.98762 7.03925 6.99936C7.03925 7.01111 6.55767 7.44335 5.97038 7.95782C5.38309 8.47229 4.88742 8.91158 4.86862 8.93272C4.84983 8.95621 4.83104 9.02669 4.82399 9.09012C4.81459 9.20053 4.81694 9.21227 4.90856 9.30154C4.98843 9.38141 5.01662 9.39551 5.10354 9.39551C5.16462 9.39551 5.23509 9.37671 5.27738 9.35087C5.37369 9.2898 7.70641 7.24367 7.76514 7.1685C7.83092 7.08393 7.83092 6.91479 7.76514 6.83022C7.70641 6.75505 5.37369 4.70893 5.27738 4.64785C5.19046 4.59382 5.04011 4.59147 4.95554 4.64315Z" fill="#FF3F33"/>
</svg>
