<svg width="43" height="43" viewBox="0 0 43 43" fill="none" xmlns="http://www.w3.org/2000/svg">
<path d="M33.1189 0.511719C32.8552 0.643555 27.1248 10.6543 27.1248 10.9883C27.1248 11.1201 27.2214 11.3223 27.3445 11.4365C27.5466 11.6475 27.5994 11.6562 28.7595 11.6562H29.9548L29.9109 14.6182C29.8757 17.0352 29.8318 17.8174 29.6824 18.8193C28.9968 23.3105 27.3533 27.2568 24.7165 30.7637C21.0164 35.6768 15.8923 39.0342 9.89819 40.4756C7.80639 40.9854 6.61108 41.1084 3.57885 41.1611C0.836666 41.2139 0.810298 41.2139 0.60815 41.416C0.335689 41.6885 0.344478 42.1016 0.625728 42.374L0.836666 42.5938H21.4998H42.1628L42.3738 42.374L42.5935 42.1631V26.4219V10.6807L42.3738 10.4697C42.2419 10.3291 42.0574 10.25 41.8904 10.25C41.7234 10.25 41.5388 10.3291 41.407 10.4697L41.1872 10.6807V25.9385V41.1875H39.0779H36.9685V32.2666V23.3369L36.7488 23.126C36.4675 22.8359 36.0632 22.8359 35.782 23.126L35.5623 23.3369V32.2666V41.1875H33.4529H31.3435V36.4854V31.7744L31.1238 31.5635C30.8425 31.2734 30.4382 31.2734 30.157 31.5635L29.9373 31.7744V36.4854V41.1875H27.8279H25.7185V39.2979C25.7185 37.3994 25.7185 37.3994 25.4988 37.1885C25.2175 36.8984 24.8132 36.8984 24.532 37.1885C24.3123 37.3994 24.3123 37.3994 24.3123 39.2979V41.1875L18.4939 41.1787C15.2859 41.1787 12.7283 41.1523 12.7986 41.126C21.8337 37.9619 28.6013 30.3857 30.6755 21.1309C31.2029 18.7842 31.3435 17.2021 31.3435 13.4932C31.3435 10.0566 31.449 10.3115 30.0339 10.25L29.0583 10.2061L31.2292 6.40039C32.4246 4.31738 33.4265 2.60352 33.4529 2.60352C33.4792 2.60352 34.4724 4.31738 35.6765 6.40918L37.8474 10.2061L36.8718 10.25C35.4744 10.3115 35.5623 10.127 35.5623 13.0801V15.4443L35.782 15.6553C36.0632 15.9453 36.4675 15.9453 36.7488 15.6553C36.9685 15.4443 36.9685 15.4443 36.9685 13.5459V11.6562H38.155C39.3064 11.6562 39.3591 11.6475 39.5613 11.4365C39.6843 11.3223 39.781 11.1201 39.781 10.9883C39.781 10.8477 38.6824 8.82617 36.8806 5.68848C33.7078 0.133789 33.7605 0.204102 33.1189 0.511719Z" fill="#24ABF5"/>
<path d="M24.532 16.0947L24.3123 16.3057V21.5V26.6943L24.532 26.9053C24.6638 27.0459 24.8484 27.125 25.0154 27.125C25.1824 27.125 25.3669 27.0459 25.4988 26.9053L25.7185 26.6943V21.9834V17.2812H26.905C28.0564 17.2812 28.1091 17.2725 28.3113 17.0615C28.4519 16.9297 28.531 16.7451 28.531 16.5781C28.531 16.4111 28.4519 16.2266 28.3113 16.0947C28.1003 15.875 28.0828 15.875 26.4216 15.875C24.7605 15.875 24.7429 15.875 24.532 16.0947Z" fill="#24ABF5"/>
<path d="M35.782 17.501C35.6414 17.6328 35.5623 17.8174 35.5623 17.9844C35.5623 18.1514 35.6414 18.3359 35.782 18.4678C35.9138 18.6084 36.0984 18.6875 36.2654 18.6875C36.4324 18.6875 36.6169 18.6084 36.7488 18.4678C36.8894 18.3359 36.9685 18.1514 36.9685 17.9844C36.9685 17.8174 36.8894 17.6328 36.7488 17.501C36.6169 17.3604 36.4324 17.2812 36.2654 17.2812C36.0984 17.2812 35.9138 17.3604 35.782 17.501Z" fill="#24ABF5"/>
<path d="M13.282 21.7197L13.0623 21.9307V29.5859V37.2412L13.282 37.4521C13.4138 37.5928 13.5984 37.6719 13.7654 37.6719C13.9324 37.6719 14.1169 37.5928 14.2488 37.4521L14.4685 37.2412V30.0693V22.9062H16.5779H18.6873V28.3115V33.7256L18.907 33.9365C19.1882 34.2266 19.5925 34.2266 19.8738 33.9365L20.0935 33.7256V27.8281V21.9307L19.8738 21.7197L19.6628 21.5H16.5779H13.4929L13.282 21.7197Z" fill="#24ABF5"/>
<path d="M2.03198 27.3447L1.81226 27.5557V33.4531V39.3506L2.03198 39.5615C2.31323 39.8516 2.71753 39.8516 2.99878 39.5615L3.21851 39.3506V33.9365V28.5312H5.32788H7.43726V33.585V38.6475L7.65698 38.8584C7.93823 39.1484 8.34253 39.1484 8.62378 38.8584L8.84351 38.6475V33.1016V27.5557L8.62378 27.3447L8.41284 27.125H5.32788H2.24292L2.03198 27.3447Z" fill="#24ABF5"/>
</svg>
