<svg width="50" height="50" viewBox="0 0 50 50" fill="none" xmlns="http://www.w3.org/2000/svg">
<path d="M25.5566 0.136702C24.6387 0.468733 24.0137 1.34764 24.0137 2.31444C24.0137 2.62694 24.0625 3.0078 24.1211 3.16405C24.2285 3.45701 24.2188 3.46678 20.4297 7.25584L16.6406 11.0449L16.123 10.791C14.6191 10.0293 12.793 10.3418 11.5625 11.5625C10.3418 12.7929 10.0293 14.6191 10.791 16.123L11.0449 16.6406L7.25586 20.4297C4.07227 23.6133 3.4375 24.209 3.27148 24.1406C3.16406 24.1015 2.74414 24.0722 2.33398 24.0722C1.67969 24.0722 1.54297 24.1113 1.11328 24.3652C0.820312 24.5508 0.527344 24.8437 0.341797 25.1367C0.0878906 25.5664 0.0488281 25.7031 0.0488281 26.3574C0.0488281 26.9922 0.0878906 27.1679 0.322266 27.5683C1.39648 29.3847 4.04297 29.0527 4.6875 27.0117C4.79492 26.6699 4.77539 26.0937 4.63867 25.4883C4.58984 25.2734 4.83398 24.9902 6.79688 23.0469C8.01758 21.8359 8.97461 20.9375 8.93555 21.0449C8.88672 21.1523 8.62305 21.9238 8.33984 22.7539C7.40234 25.4687 7.07031 27.7734 7.1582 30.8008C7.28516 35.1855 8.57422 39.2578 10.9863 42.8613L11.6895 43.9258L11.0645 44.5508C10.3223 45.2734 10.1172 45.625 10.2051 45.9863C10.2832 46.2988 13.6816 49.7461 14.0723 49.9121C14.2285 49.9707 14.4531 50 14.5703 49.9707C14.6973 49.9316 15.6445 49.0625 16.6797 48.0176C18.3887 46.2988 18.5547 46.1035 18.5547 45.791C18.5547 45.4883 18.3887 45.2929 16.6211 43.5254C14.3164 41.2207 14.4043 41.2597 13.4375 42.1875L12.8223 42.7832L12.2461 41.9238C10.6543 39.5312 9.50195 36.6406 8.97461 33.6914C8.68164 32.0508 8.61328 29.1699 8.83789 27.4414C9.22852 24.3554 10.332 21.2304 11.9238 18.7109L12.4316 17.8906L12.8809 18.0957C13.2422 18.2617 13.5254 18.3008 14.3555 18.3105C15.3027 18.3105 15.4297 18.291 16.0254 18.0078C17.5391 17.2851 18.3594 15.9863 18.3594 14.3164C18.3496 13.8867 18.2812 13.4179 18.1641 13.0859C18.0566 12.7929 17.9785 12.5195 17.9688 12.4902C17.9688 12.3828 19.0625 11.6992 20.166 11.123C24.9512 8.61326 30.6836 8.01756 35.8887 9.4824C37.9492 10.0683 40.1855 11.0937 41.9238 12.2461L42.7832 12.8222L42.1875 13.4375C41.2598 14.4043 41.2207 14.3262 43.5352 16.6308C45.293 18.3789 45.4883 18.5547 45.8008 18.5547C46.1035 18.5547 46.2988 18.3887 48.0176 16.6699C49.0625 15.6445 49.9316 14.6972 49.9707 14.5703C50 14.4531 49.9707 14.2285 49.9121 14.0722C49.7461 13.6816 46.2988 10.2832 45.9863 10.2051C45.625 10.1172 45.2734 10.3222 44.5508 11.0644L43.9258 11.6894L42.8418 10.9668C40.8496 9.63865 38.1543 8.42772 35.9277 7.86131C33.5547 7.25584 31.9824 7.08983 29.4238 7.15819C26.6602 7.22655 24.0625 7.73436 21.8262 8.6328C21.3477 8.82811 20.9473 8.97459 20.9375 8.95506C20.918 8.93553 21.8848 7.9492 23.0859 6.74803L25.2637 4.5703L25.8203 4.69725C27.373 5.03905 28.7305 3.93553 28.7207 2.3242C28.7207 1.03514 27.6758 0.00974846 26.3672 0.00974846C26.123 0.00974846 25.7617 0.0683422 25.5566 0.136702ZM26.9043 1.78709C27.4609 2.26561 27.0996 3.22264 26.3574 3.22264C25.9375 3.22264 25.5859 2.84178 25.5859 2.39256C25.5859 1.6699 26.3672 1.31834 26.9043 1.78709ZM15.0977 12.0605C16.8262 12.5781 17.3828 14.8242 16.1035 16.1035C15.6348 16.5722 15.0977 16.7969 14.4043 16.7969C13.291 16.7969 12.3633 16.123 12.0605 15.0976C11.875 14.4824 11.875 14.3164 12.0703 13.6719C12.2754 12.9687 12.8711 12.3535 13.5742 12.1094C14.2285 11.8847 14.4727 11.875 15.0977 12.0605ZM46.9727 13.2324L48.0957 14.3554L46.9434 15.5078L45.8008 16.6504L44.6582 15.5078L43.5059 14.3554L44.6289 13.2324C45.2441 12.6172 45.7715 12.1094 45.8008 12.1094C45.8301 12.1094 46.3574 12.6172 46.9727 13.2324ZM2.97852 25.8301C3.4668 26.3086 3.125 27.1484 2.44141 27.1484C1.78711 27.1484 1.39648 26.2402 1.85547 25.7812C2.13867 25.498 2.67578 25.5176 2.97852 25.8301ZM15.5273 46.9238L14.3555 48.0957L13.2129 46.9433L12.0605 45.8008L13.2324 44.6289L14.4043 43.457L15.5469 44.5996L16.6992 45.7519L15.5273 46.9238Z" fill="#FF4E43"/>
<path d="M20.0196 16.7676C19.7852 16.8555 16.8848 19.7559 16.7872 20.0098C16.709 20.2051 17.3536 21.8848 20.8008 30.5176C23.0665 36.1719 24.961 40.8692 25.0294 40.9473C25.0977 41.0352 27.0801 41.8457 29.4434 42.7539L33.7403 44.4043L35.1075 47.0801C36.5333 49.8731 36.6993 50.0977 37.2169 49.9707C37.3536 49.9317 40.0879 47.2657 43.7305 43.6328C50.4004 36.9434 50.2442 37.1387 49.8243 36.6211C49.7266 36.5039 48.4669 35.8106 47.0215 35.0782L44.4044 33.7403L42.754 29.4434C41.8458 27.0801 41.0352 25.0977 40.9473 25.0293C40.8008 24.9121 20.3028 16.6895 20.2149 16.709C20.1856 16.709 20.0977 16.7383 20.0196 16.7676ZM30.2247 22.3633C35.4883 24.4629 39.8145 26.2305 39.8438 26.2793C39.8731 26.3282 40.5762 28.125 41.4063 30.2735L42.9102 34.1895L38.545 38.545L34.1895 42.9102L30.2735 41.4063C28.1251 40.5762 26.3282 39.8731 26.2794 39.8438C26.2305 39.8145 24.4434 35.4297 22.3145 30.0977L18.4278 20.3907L18.6426 20.1856L18.8477 19.9707L23.8868 25.0098L28.9258 30.0489L28.6817 30.4785C28.1641 31.3672 27.9786 32.8028 28.2618 33.8379C28.8672 36.1231 31.1426 37.6172 33.4278 37.2266C35.3711 36.8848 36.8848 35.3711 37.2266 33.4278C37.6172 31.1426 36.1231 28.8672 33.8477 28.2618C32.8028 27.9785 31.3672 28.1543 30.4786 28.6817L30.0489 28.9258L25.0196 23.8965L19.9805 18.8575L20.1661 18.6524C20.2735 18.5352 20.42 18.4668 20.5079 18.4864C20.586 18.5059 24.961 20.2539 30.2247 22.3633ZM33.7305 29.8438C34.3555 30.0586 35.1661 30.8203 35.459 31.4649C35.7618 32.1582 35.7715 33.2422 35.4786 33.8965C35.1856 34.541 34.6387 35.1075 34.004 35.42C33.2618 35.7813 32.2266 35.8008 31.4649 35.459C30.8204 35.166 30.0587 34.3555 29.8438 33.7305C29.668 33.2032 29.6387 32.3535 29.7852 31.8164C30.0196 30.9766 30.9473 30.0293 31.7774 29.795C32.2657 29.6485 33.2325 29.6778 33.7305 29.8438ZM46.2891 36.5137C47.0704 36.9043 47.7344 37.2559 47.7735 37.295C47.8126 37.334 45.4786 39.7266 42.5782 42.627C39.6876 45.5176 37.295 47.8711 37.2754 47.8516C37.2461 47.8223 36.8067 46.9532 36.2794 45.9082L35.3321 44.0137L39.6583 39.6875L43.9747 35.3711L44.4239 35.586C44.668 35.7032 45.5079 36.1231 46.2891 36.5137Z" fill="#FF4E43"/>
</svg>
