<svg width="191" height="190" viewBox="0 0 191 190" fill="none" xmlns="http://www.w3.org/2000/svg">
<mask id="mask0_562_3" style="mask-type:alpha" maskUnits="userSpaceOnUse" x="0" y="0" width="191" height="190">
<rect width="191" height="190" fill="#D9D9D9"/>
</mask>
<g mask="url(#mask0_562_3)">
<path d="M1.28771 88.1136L2.13728 88.1408L5.91523 91.7994C6.65208 92.5147 7.26282 93.0955 7.74746 93.5419C8.23174 93.9996 8.67433 94.3426 9.07524 94.5709C9.47615 94.7992 9.91448 94.9209 10.3902 94.9361C11.1492 94.9604 11.7396 94.7582 12.1615 94.3294C12.5835 93.9007 12.8062 93.3182 12.8298 92.5819C12.854 91.823 12.6593 91.1761 12.2455 90.6412C11.8314 90.1177 11.2421 89.753 10.4776 89.5472L10.7891 88.3155C11.4754 88.4848 12.0616 88.7701 12.5477 89.1711C13.0337 89.5722 13.4035 90.066 13.6569 90.6524C13.9216 91.2391 14.0425 91.8893 14.0197 92.603C13.9954 93.3619 13.8213 94.0197 13.4973 94.5763C13.1734 95.1329 12.7401 95.5612 12.1976 95.8614C11.6547 96.1728 11.0377 96.3175 10.3468 96.2954C9.871 96.2802 9.41549 96.1636 8.98024 95.9455C8.54463 95.7388 8.07829 95.4291 7.58123 95.0163C7.08418 94.6036 6.50579 94.0748 5.84606 93.4301L2.4146 90.1056L2.21404 96.3754L1.02464 96.3374L1.28771 88.1136Z" fill="black"/>
<path d="M1.73932 107.625C1.65309 106.974 1.68515 106.352 1.83552 105.76C1.98737 105.18 2.24364 104.655 2.60434 104.184C2.96504 103.713 3.41776 103.333 3.96252 103.044L4.60415 104.005C3.9867 104.35 3.52563 104.839 3.22094 105.474C2.92897 106.119 2.82834 106.784 2.91904 107.469C2.99189 108.02 3.18578 108.491 3.50069 108.884C3.81709 109.288 4.21074 109.585 4.68163 109.774C5.16375 109.961 5.68008 110.019 6.23061 109.946C6.80362 109.87 7.29211 109.674 7.6961 109.358C8.10156 109.053 8.39964 108.67 8.59032 108.21C8.79223 107.749 8.8575 107.249 8.78614 106.71C8.71328 106.159 8.51642 105.665 8.19556 105.227C7.88742 104.8 7.53946 104.503 7.15168 104.337L7.21341 103.248L14.1469 103.291L14.9878 109.645L13.808 109.801L13.0319 103.936L13.5561 104.398L8.09644 104.349L8.26325 103.795C8.79841 104.125 9.20205 104.54 9.47417 105.041C9.75752 105.541 9.93562 106.066 10.0085 106.617C10.1155 107.426 10.0189 108.164 9.71872 108.833C9.42972 109.5 8.99368 110.049 8.41059 110.481C7.84023 110.922 7.17304 111.193 6.40903 111.294C5.63379 111.397 4.90705 111.304 4.2288 111.017C3.56328 110.739 3.00837 110.304 2.56409 109.711C2.1213 109.129 1.84637 108.434 1.73932 107.625Z" fill="black"/>
<path d="M5.03652 122.019L8.50098 120.966L7.44779 117.501L8.66767 117.131L9.72085 120.595L13.169 119.547L13.5399 120.767L10.0917 121.815L11.1399 125.263L9.92005 125.634L8.87181 122.186L5.40736 123.239L5.03652 122.019Z" fill="black"/>
<path d="M10.2829 143.78C10.1879 143.626 10.1044 143.458 10.0325 143.276C9.9568 143.11 9.90042 142.931 9.86336 142.741L10.877 142.118C10.9267 142.22 10.9865 142.35 11.0562 142.507C11.1222 142.679 11.2027 142.842 11.2977 142.997C11.5886 143.47 11.9126 143.769 12.2697 143.896C12.6172 144.028 13.1451 144.043 13.8534 143.94L15.3147 143.72L14.3411 144.278L20.5448 135.933L21.2661 137.106L16.1309 143.976L15.9439 143.672L24.3829 142.174L25.1221 143.376L14.1938 145.207C13.7223 145.284 13.2434 145.306 12.7571 145.272C12.2767 145.249 11.8253 145.12 11.403 144.888C10.9709 144.661 10.5976 144.292 10.2829 143.78Z" fill="black"/>
<path d="M23.9372 156.854C23.3835 156.209 23.0362 155.492 22.8955 154.701C22.7707 153.912 22.8542 153.131 23.1462 152.357C23.4381 151.584 23.9323 150.898 24.6288 150.3C25.3253 149.702 26.0657 149.321 26.8498 149.155C27.6425 148.982 28.4078 149.013 29.1455 149.246C29.8907 149.487 30.5327 149.922 31.0717 150.549C31.4998 151.048 31.7855 151.572 31.9285 152.122C32.0875 152.672 32.1261 153.222 32.0442 153.77C31.9709 154.311 31.7992 154.824 31.5291 155.31C31.2677 155.788 30.9306 156.205 30.5178 156.559C30.4319 156.633 30.3293 156.714 30.2101 156.801C30.0995 156.881 29.981 156.96 29.8544 157.039L24.8379 151.196L25.7408 150.421L30.2811 155.709L29.4955 155.577C30.0349 155.249 30.4083 154.831 30.6156 154.324C30.8389 153.819 30.9104 153.302 30.8301 152.773C30.7583 152.237 30.5379 151.755 30.1688 151.325C29.7996 150.895 29.3446 150.591 28.8035 150.413C28.2699 150.244 27.7124 150.23 27.1311 150.37C26.5583 150.503 26.0153 150.828 25.5018 151.343C24.9146 151.773 24.5069 152.272 24.2787 152.841C24.0665 153.412 24.011 153.982 24.1123 154.553C24.221 155.132 24.4635 155.64 24.8401 156.079C25.2756 156.586 25.7615 156.909 26.2975 157.046C26.8336 157.183 27.3745 157.204 27.9202 157.109L28.1904 158.311C27.7627 158.439 27.2938 158.476 26.7836 158.421C26.282 158.359 25.7797 158.2 25.2767 157.945C24.7897 157.691 24.3432 157.327 23.9372 156.854Z" fill="black"/>
<path d="M33.7765 166.649C33.3336 166.278 33.0076 165.864 32.7986 165.408C32.5969 164.943 32.52 164.479 32.5678 164.016C32.6157 163.554 32.7998 163.131 33.1202 162.749C33.4261 162.384 33.7809 162.12 34.1848 161.956C34.596 161.783 35.054 161.731 35.5588 161.799C36.0635 161.867 36.6085 162.073 37.1937 162.415L40.3116 164.253L39.5688 165.139L36.7182 163.459C36.1417 163.123 35.6422 162.978 35.2198 163.023C34.8061 163.076 34.4645 163.263 34.1951 163.584C33.9329 163.896 33.8324 164.263 33.8935 164.684C33.9633 165.113 34.1936 165.491 34.5844 165.818C35.062 166.219 35.5626 166.468 36.0861 166.567C36.617 166.657 37.1279 166.613 37.6189 166.433C38.1099 166.253 38.5338 165.95 38.8907 165.525L40.3762 163.753C40.7258 163.336 40.8578 162.87 40.7723 162.355C40.6868 161.839 40.4009 161.378 39.9146 160.97C39.4891 160.613 39.0246 160.408 38.5213 160.356C38.0252 160.295 37.557 160.368 37.1166 160.576L36.635 159.351C37.0129 159.165 37.4427 159.067 37.9245 159.057C38.415 159.054 38.9008 159.136 39.3821 159.303C39.8706 159.461 40.3103 159.704 40.7011 160.032C41.2134 160.462 41.5813 160.94 41.8046 161.468C42.0366 162.002 42.1118 162.539 42.0304 163.077C41.9649 163.613 41.7391 164.112 41.3532 164.572L37.3335 169.366L36.3565 168.547L37.5253 167.153L37.5484 167.416C37.2084 167.575 36.8171 167.653 36.3745 167.652C35.9479 167.649 35.5063 167.567 35.0497 167.406C34.609 167.244 34.1846 166.992 33.7765 166.649Z" fill="black"/>
<path d="M44.0733 174.124L48.7984 166.333L49.8886 166.994L49.1128 168.273L49.0821 167.996C49.4895 167.739 49.942 167.616 50.4395 167.626C50.9468 167.642 51.4669 167.812 51.9998 168.135L52.4941 168.435L51.8329 169.525L51.1497 169.111C50.5877 168.77 50.0313 168.671 49.4805 168.814C48.9298 168.957 48.4605 169.349 48.0726 169.988L45.1635 174.785L44.0733 174.124Z" fill="black"/>
<path d="M58.5713 181.973C57.7687 181.63 57.1518 181.127 56.7208 180.462C56.2897 179.798 56.0877 179.058 56.1148 178.244L57.3001 178.196C57.3218 178.809 57.4818 179.358 57.7802 179.842C58.0889 180.331 58.5039 180.687 59.0251 180.91C59.5254 181.123 59.9987 181.184 60.445 181.091C60.8958 180.987 61.2057 180.738 61.3748 180.341C61.4993 180.05 61.5138 179.785 61.4182 179.547C61.3271 179.298 61.1921 179.081 61.0132 178.893C60.8344 178.706 60.6705 178.556 60.5215 178.443L59.4644 177.585C58.7865 177.037 58.3601 176.492 58.1852 175.949C58.0103 175.406 58.034 174.874 58.2565 174.353C58.4656 173.863 58.7731 173.489 59.179 173.231C59.5848 172.973 60.0437 172.836 60.5556 172.82C61.0675 172.804 61.5841 172.908 62.1052 173.13C62.814 173.433 63.375 173.894 63.7881 174.514C64.2161 175.128 64.4099 175.815 64.3693 176.574L63.1684 176.615C63.1602 176.057 63.0136 175.564 62.7288 175.134C62.4588 174.698 62.084 174.378 61.6045 174.174C61.1355 173.973 60.7091 173.933 60.3253 174.053C59.9415 174.172 59.6718 174.414 59.5161 174.779C59.3959 175.061 59.3733 175.316 59.448 175.545C59.5227 175.774 59.6361 175.97 59.7882 176.134C59.9506 176.302 60.0959 176.438 60.224 176.542L61.4421 177.542C62.0351 178.029 62.4302 178.562 62.6275 179.139C62.8352 179.72 62.8189 180.292 62.5787 180.855C62.3829 181.314 62.0769 181.67 61.6606 181.924C61.2547 182.182 60.7832 182.319 60.246 182.336C59.7132 182.343 59.155 182.222 58.5713 181.973Z" fill="black"/>
<path d="M81.3699 188.344C80.5185 188.213 79.7766 187.892 79.1442 187.382C78.5135 186.861 78.0451 186.215 77.7392 185.446C77.4463 184.667 77.3696 183.824 77.5092 182.916C77.647 182.02 77.9719 181.25 78.4837 180.607C78.9955 179.963 79.6241 179.492 80.3694 179.194C81.1277 178.886 81.9437 178.8 82.8174 178.934C83.6911 179.069 84.4386 179.39 85.0599 179.898C85.6923 180.408 86.1503 181.047 86.4338 181.813C86.7285 182.58 86.806 183.418 86.6664 184.325C86.5251 185.244 86.1921 186.03 85.6674 186.683C85.1443 187.325 84.5046 187.794 83.748 188.09C83.0027 188.388 82.21 188.473 81.3699 188.344ZM81.5637 187.083C82.1686 187.176 82.7351 187.109 83.2633 186.88C83.8027 186.654 84.2529 186.299 84.614 185.815C84.9862 185.334 85.2223 184.768 85.3223 184.118C85.4222 183.469 85.3662 182.864 85.1542 182.304C84.9535 181.745 84.6299 181.277 84.1836 180.899C83.7484 180.522 83.2284 180.287 82.6235 180.194C82.0186 180.101 81.4465 180.168 80.9071 180.395C80.3789 180.623 79.9296 180.972 79.5591 181.443C79.1885 181.913 78.9533 182.473 78.8534 183.123C78.7534 183.773 78.8086 184.383 79.0188 184.955C79.2291 185.526 79.5517 186 79.9869 186.376C80.4332 186.755 80.9588 186.99 81.5637 187.083Z" fill="black"/>
<path d="M93.3583 189.139L93.401 181.302L91.5821 181.292L91.589 180.017L93.408 180.027L93.4124 179.211C93.4159 178.577 93.5605 178.045 93.8461 177.616C94.1319 177.175 94.5077 176.843 94.9736 176.619C95.4395 176.395 95.9388 176.284 96.4714 176.287C96.5848 176.288 96.715 176.3 96.8622 176.323C97.0095 176.335 97.1284 176.353 97.219 176.376L97.2127 177.532C97.1334 177.509 97.0258 177.497 96.8898 177.496C96.7539 177.484 96.6576 177.478 96.6009 177.478C96.057 177.475 95.6029 177.603 95.2388 177.861C94.8747 178.12 94.6909 178.572 94.6874 179.218L94.683 180.034L96.9099 180.046L96.903 181.321L94.676 181.309L94.6333 189.146L93.3583 189.139Z" fill="black"/>
<path d="M117.954 186.545C117.129 186.747 116.332 186.732 115.563 186.5C114.803 186.254 114.144 185.826 113.587 185.216C113.029 184.605 112.641 183.854 112.423 182.963C112.205 182.071 112.2 181.238 112.407 180.464C112.612 179.679 112.985 179.01 113.526 178.458C114.079 177.902 114.757 177.527 115.561 177.33C116.199 177.174 116.796 177.156 117.35 177.277C117.913 177.385 118.421 177.599 118.873 177.92C119.322 178.23 119.702 178.616 120.013 179.076C120.321 179.526 120.54 180.015 120.669 180.543C120.696 180.653 120.722 180.781 120.746 180.927C120.767 181.062 120.784 181.204 120.797 181.352L113.317 183.182L113.034 182.026L119.804 180.37L119.331 181.011C119.282 180.381 119.078 179.859 118.721 179.445C118.371 179.017 117.942 178.719 117.435 178.552C116.924 178.373 116.394 178.351 115.843 178.486C115.293 178.621 114.816 178.889 114.413 179.291C114.02 179.69 113.755 180.181 113.618 180.763C113.477 181.334 113.521 181.965 113.748 182.656C113.865 183.374 114.126 183.964 114.531 184.425C114.943 184.872 115.427 185.18 115.981 185.348C116.547 185.513 117.11 185.526 117.672 185.389C118.321 185.23 118.828 184.943 119.193 184.527C119.558 184.111 119.822 183.638 119.984 183.108L121.178 183.411C121.099 183.851 120.92 184.286 120.64 184.716C120.357 185.135 119.988 185.511 119.533 185.844C119.086 186.163 118.56 186.397 117.954 186.545Z" fill="black"/>
<path d="M127.587 183.472L128.767 178.033L124.071 175.065L125.513 174.459L129.702 177.142L128.903 177.478L129.901 172.614L131.343 172.008L130.178 177.44L134.874 180.408L133.432 181.014L129.259 178.324L130.058 177.988L129.044 182.859L127.587 183.472Z" fill="black"/>
<path d="M143.413 179.819L136.809 169.192L137.892 168.519L138.968 170.252L138.607 170.056C138.61 169.374 138.776 168.73 139.107 168.124C139.447 167.512 139.95 167 140.614 166.587C141.345 166.132 142.106 165.907 142.895 165.91C143.688 165.897 144.437 166.093 145.141 166.496C145.855 166.893 146.454 167.481 146.938 168.261C147.417 169.031 147.679 169.829 147.725 170.654C147.775 171.464 147.621 172.226 147.265 172.941C146.913 173.641 146.371 174.218 145.639 174.673C144.975 175.085 144.28 175.31 143.556 175.347C142.835 175.368 142.166 175.183 141.55 174.792L141.624 174.526L144.496 179.146L143.413 179.819ZM144.908 173.626C145.428 173.303 145.809 172.885 146.052 172.374C146.304 171.857 146.409 171.305 146.364 170.719C146.324 170.117 146.13 169.537 145.783 168.979C145.43 168.411 144.996 167.98 144.48 167.687C143.974 167.388 143.433 167.237 142.858 167.234C142.292 167.225 141.749 167.383 141.229 167.706C140.709 168.029 140.318 168.452 140.056 168.975C139.804 169.492 139.693 170.055 139.724 170.663C139.759 171.255 139.949 171.83 140.296 172.389C140.643 172.947 141.078 173.377 141.6 173.68C142.125 173.968 142.676 174.113 143.251 174.115C143.836 174.112 144.388 173.949 144.908 173.626Z" fill="black"/>
<path d="M157.57 165.689C156.931 166.25 156.217 166.604 155.428 166.753C154.64 166.886 153.858 166.81 153.082 166.526C152.305 166.242 151.615 165.755 151.009 165.064C150.404 164.374 150.015 163.638 149.842 162.855C149.661 162.064 149.683 161.299 149.909 160.559C150.143 159.811 150.571 159.165 151.193 158.619C151.687 158.186 152.209 157.895 152.757 157.747C153.305 157.582 153.854 157.538 154.404 157.614C154.945 157.682 155.46 157.848 155.949 158.114C156.43 158.37 156.85 158.703 157.208 159.112C157.283 159.197 157.365 159.299 157.453 159.417C157.534 159.527 157.615 159.645 157.695 159.771L151.903 164.846L151.119 163.951L156.361 159.357L156.237 160.144C155.903 159.608 155.481 159.239 154.972 159.037C154.465 158.819 153.947 158.753 153.419 158.838C152.884 158.916 152.404 159.141 151.977 159.514C151.551 159.888 151.252 160.346 151.08 160.889C150.916 161.424 150.907 161.982 151.054 162.562C151.193 163.133 151.523 163.673 152.043 164.181C152.479 164.764 152.982 165.166 153.554 165.389C154.127 165.595 154.698 165.645 155.267 165.538C155.845 165.423 156.351 165.175 156.786 164.794C157.289 164.354 157.606 163.865 157.738 163.327C157.869 162.79 157.885 162.249 157.784 161.704L158.984 161.422C159.116 161.848 159.158 162.316 159.108 162.827C159.051 163.329 158.897 163.833 158.647 164.339C158.398 164.828 158.039 165.279 157.57 165.689Z" fill="black"/>
<path d="M165.391 157.654L158.414 151.794L159.234 150.817L160.379 151.779L160.101 151.768C159.909 151.326 159.857 150.86 159.943 150.369C160.036 149.871 160.283 149.383 160.684 148.905L161.056 148.463L162.032 149.283L161.518 149.894C161.095 150.398 160.913 150.933 160.97 151.499C161.027 152.065 161.342 152.588 161.915 153.07L166.211 156.677L165.391 157.654Z" fill="black"/>
<path d="M173.46 147.123L165.832 142.14L166.529 141.073L174.158 146.055L173.46 147.123ZM164.423 141.22L162.857 140.197L163.554 139.13L165.12 140.152L164.423 141.22Z" fill="black"/>
<path d="M180.255 135.512C179.887 136.278 179.37 136.884 178.703 137.331C178.03 137.762 177.281 138 176.456 138.043C175.63 138.087 174.804 137.91 173.976 137.513C173.149 137.115 172.502 136.591 172.035 135.939C171.558 135.283 171.278 134.57 171.195 133.801C171.117 133.021 171.257 132.259 171.615 131.513C171.9 130.92 172.265 130.448 172.71 130.096C173.15 129.729 173.638 129.473 174.173 129.328C174.698 129.178 175.237 129.129 175.79 129.181C176.333 129.228 176.85 129.369 177.341 129.605C177.443 129.654 177.558 129.715 177.686 129.789C177.803 129.858 177.924 129.935 178.047 130.019L174.713 136.961L173.64 136.446L176.658 130.163L176.852 130.935C176.335 130.574 175.802 130.4 175.255 130.413C174.702 130.412 174.2 130.554 173.749 130.84C173.287 131.121 172.933 131.517 172.688 132.028C172.442 132.539 172.347 133.078 172.402 133.644C172.461 134.201 172.672 134.717 173.034 135.193C173.387 135.664 173.902 136.031 174.58 136.294C175.21 136.659 175.831 136.832 176.444 136.812C177.052 136.777 177.596 136.598 178.078 136.276C178.564 135.944 178.932 135.518 179.183 134.997C179.472 134.394 179.572 133.82 179.482 133.273C179.392 132.727 179.194 132.224 178.888 131.762L179.88 131.032C180.169 131.372 180.391 131.786 180.546 132.276C180.691 132.76 180.747 133.284 180.716 133.847C180.679 134.395 180.525 134.95 180.255 135.512Z" fill="black"/>
<path d="M184.335 125.037L175.589 122.482L175.947 121.258L177.644 121.754L177.497 122.012C176.995 121.629 176.652 121.145 176.469 120.56C176.289 119.965 176.294 119.34 176.485 118.688C176.666 118.068 176.969 117.554 177.395 117.147C177.824 116.729 178.33 116.452 178.913 116.316C179.489 116.165 180.086 116.18 180.707 116.361L186.385 118.02L186.028 119.244L180.822 117.723C180.289 117.568 179.809 117.534 179.382 117.621C178.958 117.698 178.597 117.882 178.3 118.173C177.995 118.45 177.777 118.811 177.647 119.257C177.516 119.703 177.504 120.131 177.609 120.539C177.703 120.944 177.912 121.301 178.235 121.608C178.548 121.912 178.965 122.14 179.488 122.292L184.693 123.813L184.335 125.037Z" fill="black"/>
<path d="M188.721 106.016C188.608 106.905 188.301 107.66 187.8 108.282C187.298 108.903 186.669 109.361 185.912 109.653C185.144 109.944 184.31 110.033 183.411 109.919C182.511 109.804 181.732 109.511 181.072 109.039C180.412 108.567 179.922 107.968 179.603 107.242C179.273 106.515 179.164 105.707 179.276 104.819C179.348 104.257 179.516 103.741 179.781 103.272C180.046 102.803 180.377 102.4 180.774 102.061C181.16 101.722 181.59 101.485 182.064 101.351L182.509 102.573C181.997 102.736 181.56 103.029 181.198 103.452C180.836 103.874 180.617 104.383 180.541 104.979C180.466 105.575 180.549 106.134 180.791 106.656C181.024 107.165 181.386 107.594 181.879 107.942C182.362 108.278 182.935 108.487 183.599 108.571C184.251 108.654 184.858 108.594 185.421 108.391C185.974 108.176 186.432 107.851 186.795 107.417C187.16 106.972 187.38 106.452 187.456 105.856C187.531 105.26 187.446 104.718 187.199 104.23C186.954 103.73 186.594 103.331 186.118 103.03L186.887 101.963C187.301 102.209 187.659 102.546 187.959 102.972C188.259 103.399 188.479 103.872 188.618 104.393C188.758 104.913 188.792 105.454 188.721 106.016Z" fill="black"/>
<path d="M189.284 91.662C189.312 92.5116 189.132 93.2884 188.747 93.9924C188.349 94.6854 187.794 95.2418 187.082 95.6615C186.37 96.0811 185.555 96.3056 184.637 96.335C183.72 96.3643 182.904 96.1977 182.189 95.835C181.463 95.4727 180.886 94.9695 180.457 94.3256C180.028 93.6703 179.8 92.9292 179.774 92.1023C179.753 91.4453 179.859 90.858 180.091 90.3402C180.313 89.8116 180.627 89.3593 181.035 88.9834C181.431 88.6079 181.886 88.3155 182.401 88.1063C182.905 87.8974 183.428 87.7842 183.972 87.7669C184.085 87.7632 184.216 87.7647 184.363 87.7713C184.5 87.7783 184.642 87.7908 184.79 87.8087L185.036 95.5058L183.847 95.5438L183.624 88.5774L184.153 89.1728C183.527 89.0908 182.974 89.1821 182.495 89.4469C182.004 89.7008 181.625 90.0587 181.356 90.5209C181.076 90.9834 180.945 91.4979 180.963 92.0643C180.981 92.6306 181.145 93.1527 181.455 93.6303C181.765 94.0967 182.19 94.4572 182.732 94.7121C183.261 94.9673 183.888 95.0549 184.611 94.9751C185.338 95.0086 185.968 94.875 186.503 94.5744C187.026 94.2629 187.427 93.8532 187.705 93.3453C187.984 92.8262 188.113 92.2777 188.095 91.7C188.074 91.0317 187.897 90.4761 187.565 90.0331C187.234 89.5902 186.826 89.2347 186.341 88.9667L186.884 87.8608C187.297 88.029 187.686 88.2944 188.049 88.657C188.4 89.0199 188.692 89.4585 188.924 89.9726C189.144 90.4759 189.264 91.039 189.284 91.662Z" fill="black"/>
</g>
</svg>
