<svg width="61" height="50" viewBox="0 0 61 50" fill="none" xmlns="http://www.w3.org/2000/svg">
<circle cx="36" cy="25" r="25" fill="#FFE3E1"/>
<path d="M15.7 43.6257L22.7 36.6257H40V43.6257H15.7ZM3 40.6257H5.2L27.35 18.4757L25.15 16.2757L3 38.4257V40.6257ZM33.7 16.3257L27.3 9.92571L29.4 7.82571C29.9667 7.25905 30.675 6.98405 31.525 7.00071C32.375 7.01738 33.0833 7.30905 33.65 7.87571L35.8 10.0257C36.3667 10.5924 36.65 11.2924 36.65 12.1257C36.65 12.959 36.3667 13.659 35.8 14.2257L33.7 16.3257ZM31.6 18.4257L6.4 43.6257H0V37.2257L25.2 12.0257L31.6 18.4257ZM26.25 17.3757L25.15 16.2757L27.35 18.4757L26.25 17.3757Z" fill="#FF5F55"/>
</svg>
