<svg width="51" height="50" viewBox="0 0 51 50" fill="none" xmlns="http://www.w3.org/2000/svg">
<path d="M18.2165 0.136518C16.4685 0.575972 15.0525 1.94316 14.5251 3.68144C14.1833 4.81425 14.4372 6.533 15.1013 7.61699C15.3064 7.93925 15.4529 8.24199 15.4333 8.29082C15.4138 8.33964 13.949 10.1072 12.1716 12.2264C10.3845 14.3357 8.84154 16.1717 8.73412 16.2986L8.54857 16.5428L7.95287 16.2791C7.23021 15.9568 6.1267 15.8006 5.33568 15.9178C4.17357 16.0838 3.36302 16.4939 2.52318 17.3143C-0.123304 19.9217 0.882555 24.3162 4.39818 25.5467C6.1267 26.1424 8.18724 25.6834 9.44701 24.4236C10.0232 23.8377 10.4138 23.2713 10.6872 22.5779C10.863 22.1092 10.9021 21.826 10.9021 20.8494C10.9119 19.5408 10.7556 18.9939 10.1306 18.0857L9.80834 17.617L13.2849 13.4861C15.7947 10.4978 16.8005 9.3748 16.9079 9.41386C16.9958 9.44316 17.3962 9.57988 17.7966 9.72636C18.4607 9.96074 18.6267 9.98027 19.5544 9.93144C20.7556 9.88261 21.6345 9.57011 22.4255 8.91582C22.5818 8.78886 22.7673 8.70097 22.8357 8.73027C22.904 8.75957 24.1443 9.66777 25.5896 10.7518L28.2263 12.7244L28.0505 13.1443C27.738 13.8768 27.6111 14.9119 27.7478 15.7322C28.1091 17.9881 29.8474 19.658 32.113 19.9412C32.8943 20.0389 33.0603 20.0291 33.7927 19.8436C35.531 19.4041 36.6443 18.408 37.3572 16.699C37.6208 16.0545 37.6892 14.5799 37.4841 13.7791C37.3767 13.3592 37.3572 13.115 37.4255 13.0467C37.4744 12.9978 38.5876 12.285 39.8865 11.4646L42.2595 9.98027L42.6013 10.3025C43.5193 11.1619 44.6814 11.6209 45.9607 11.6209C47.1814 11.6209 48.0212 11.3377 49.0076 10.615C50.9802 9.15996 51.5564 6.40605 50.3357 4.22832C49.6228 2.94902 48.197 1.97246 46.7126 1.74785C44.2126 1.37675 41.8298 2.94902 41.1755 5.41972C40.9997 6.07402 40.9997 7.24589 41.1853 7.94902C41.2634 8.26152 41.3122 8.54472 41.2829 8.58379C41.2244 8.68144 36.7419 11.4939 36.5076 11.5818C36.4001 11.6209 36.2048 11.5135 35.9216 11.2498C35.0525 10.449 33.9685 10.0584 32.5915 10.0584C31.5271 10.0584 30.6287 10.3416 29.779 10.9373C29.4177 11.1912 29.1736 11.3084 29.0857 11.2596C29.0173 11.2205 27.7869 10.3025 26.3611 9.23808L23.7732 7.29472L23.949 6.89433C25.0427 4.31621 23.6365 1.2205 20.9314 0.273237C20.2283 0.0290966 18.8904 -0.0392628 18.2165 0.136518ZM20.6775 1.99199C22.5525 2.85136 23.2165 5.12675 22.0837 6.82597C20.9119 8.58379 18.4997 8.81816 17.0056 7.33379C15.5408 5.85918 15.7556 3.4666 17.4548 2.28496C18.4119 1.63066 19.6423 1.51347 20.6775 1.99199ZM47.4451 3.7205C48.7927 4.36503 49.5349 5.84941 49.2419 7.28496C49.0857 8.04668 48.8318 8.52519 48.324 9.02324C47.6794 9.63847 47.0837 9.89238 46.1658 9.94121C45.0915 9.99004 44.4177 9.73613 43.6658 8.99394C42.9333 8.26152 42.6697 7.56816 42.7185 6.54277C42.8357 4.11113 45.2576 2.66582 47.4451 3.7205ZM33.8806 11.9236C34.6521 12.2068 35.4626 13.0271 35.7556 13.8279C36.3415 15.3709 35.6287 17.2264 34.1638 17.9588C31.9763 19.0428 29.3982 17.5096 29.3787 15.0975C29.3787 14.2381 29.5251 13.7303 29.9353 13.1248C30.2771 12.6365 31.1072 12.0018 31.615 11.8357C32.1619 11.66 33.2751 11.699 33.8806 11.9236ZM7.05443 17.6951C8.78295 18.242 9.74974 20.283 9.09545 22.0213C8.79271 22.8221 8.0017 23.6131 7.20092 23.9158C6.40013 24.2186 5.26732 24.1795 4.57396 23.8279C3.90013 23.4861 3.27513 22.8416 2.9724 22.1873C2.61107 21.3963 2.61107 20.2928 2.96263 19.5311C3.71459 17.9197 5.38451 17.1678 7.05443 17.6951Z" fill="#FDBE0C"/>
<path d="M43.0802 22.5585C42.8361 22.5975 42.4943 22.705 42.3381 22.7928C41.9181 23.0077 41.2541 23.7889 41.1369 24.2089C41.0295 24.5897 40.9904 49.2772 41.0978 49.5604C41.2638 49.9803 41.4787 49.9999 46.0685 49.9999H50.4338L50.717 49.7167L51.0002 49.4335V37.0409C51.0002 23.4178 51.0295 24.1698 50.4142 23.4178C50.2482 23.2225 49.8674 22.9393 49.5549 22.7831L48.9982 22.5096L46.2638 22.4901C44.7599 22.4803 43.3244 22.5096 43.0802 22.5585ZM48.9006 24.2772C49.3498 24.453 49.34 24.1405 49.34 36.621V48.3397H46.0197H42.6994V36.5038V24.6678L42.9142 24.4432L43.1193 24.2186H45.9318C47.4748 24.2186 48.8127 24.2479 48.9006 24.2772Z" fill="#FDBE0C"/>
<path d="M16.4592 24.2186C16.1759 24.2577 15.7951 24.3944 15.6095 24.5116C15.131 24.7948 14.5939 25.4491 14.4767 25.869C14.3693 26.2499 14.3302 49.287 14.4377 49.5604C14.6037 49.9803 14.8185 49.9999 19.4084 49.9999H23.7736L24.0568 49.7167L24.34 49.4237L24.3205 37.7245L24.2912 26.0253L24.047 25.5468C23.7736 24.9999 23.4025 24.6581 22.7775 24.3749C22.3674 24.1893 22.1427 24.1698 19.6525 24.1503C18.1779 24.1405 16.7424 24.1698 16.4592 24.2186ZM22.2404 25.9374C22.6896 26.1132 22.6799 25.8593 22.6799 37.451V48.3397H19.3595H16.0392V37.3339V26.328L16.2541 26.1034L16.4592 25.8788H19.2717C20.8146 25.8788 22.1525 25.9081 22.2404 25.9374Z" fill="#FDBE0C"/>
<path d="M29.3105 29.3358C28.7637 29.5311 28.3047 29.9315 27.9922 30.4882L27.709 31.0057L27.6797 40.2147L27.6602 49.4237L27.9434 49.7167L28.2266 49.9999H32.5918C37.1816 49.9999 37.3965 49.9803 37.5625 49.5604C37.5918 49.4725 37.6211 45.2831 37.6211 40.2538C37.6211 31.2596 37.6113 31.0936 37.416 30.6639C37.1523 30.078 36.791 29.7069 36.2051 29.4335C35.7266 29.2089 35.668 29.1991 32.6895 29.2089C30.4824 29.2089 29.5645 29.2382 29.3105 29.3358ZM35.7168 31.1034L35.9609 31.3378V39.8436V48.3397H32.6406H29.3203V39.9315C29.3203 33.7303 29.3496 31.4745 29.4375 31.3182C29.6719 30.869 29.7207 30.869 32.6699 30.8593H35.4824L35.7168 31.1034Z" fill="#FDBE0C"/>
<path d="M2.5625 36.0448C2.02539 36.2889 1.53711 36.7382 1.26367 37.2557C1.04883 37.6464 1.04883 37.7147 1.01953 43.535L0.990234 49.4237L1.2832 49.7069L1.56641 49.9999H5.93164C10.5215 49.9999 10.7363 49.9803 10.9023 49.5604C10.9316 49.4725 10.9609 46.7772 10.9609 43.5643V37.7343L10.707 37.2264C10.5703 36.9432 10.2969 36.5917 10.1016 36.4257C9.4375 35.8788 9.16406 35.8397 5.94141 35.8397C3.19727 35.8397 2.97266 35.8593 2.5625 36.0448ZM8.90039 37.6464C9.05664 37.7245 9.20312 37.8612 9.24219 37.9393C9.27148 38.0272 9.30078 40.41 9.30078 43.2225V48.3397H5.98047H2.65039L2.67969 43.1542L2.70898 37.9686L2.98242 37.7343L3.25586 37.4999H5.94141C8.10938 37.4999 8.67578 37.5292 8.90039 37.6464Z" fill="#FDBE0C"/>
</svg>
