<svg width="51" height="50" viewBox="0 0 51 50" fill="none" xmlns="http://www.w3.org/2000/svg">
<path d="M24.5402 0.039238C24.1474 0.186527 23.8332 0.706951 22.6156 3.20106C21.889 4.68378 21.29 5.91119 21.2704 5.92101C21.2606 5.93083 19.9939 6.12722 18.4522 6.34324C16.9106 6.56909 15.4966 6.79493 15.2904 6.84403C15.094 6.90294 14.7995 7.09933 14.6325 7.2859C14.387 7.57066 14.3281 7.72777 14.3281 8.08126C14.3281 8.32674 14.3772 8.62133 14.4361 8.73916C14.4951 8.85699 15.5261 9.90766 16.724 11.0762L18.8941 13.1971L18.4031 16.0349C18.138 17.5962 17.922 19.0593 17.922 19.2851C17.9416 19.9725 18.5799 20.5911 19.2771 20.5911C19.4244 20.5911 20.1412 20.2769 20.8678 19.9037C21.6042 19.5208 22.2229 19.2164 22.2327 19.2164C22.2523 19.2164 22.2818 19.835 22.3014 20.6009C22.3309 21.9167 22.3407 21.9952 22.5665 22.172C22.8611 22.4175 23.1753 22.4077 23.4896 22.1622L23.7449 21.956L23.7743 19.02C23.8038 16.2411 23.8136 16.0742 24.01 15.8091C24.118 15.6618 24.3733 15.4556 24.5697 15.3574C25.2374 15.0235 26.0328 15.4458 26.2193 16.2411C26.2684 16.4473 26.3077 19.4226 26.3077 22.8593C26.3077 28.7804 26.3175 29.1143 26.4844 29.2615C26.7299 29.4776 27.3191 29.4776 27.5155 29.2517C27.6333 29.1143 27.6726 28.7411 27.702 27.2191C27.7315 25.5793 27.7511 25.324 27.9181 25.0785C28.301 24.5188 29.0375 24.3617 29.6266 24.7152C30.1863 25.0589 30.2354 25.324 30.2354 27.8574V30.1256L30.4809 30.3613C30.746 30.6363 30.8933 30.6559 31.2468 30.4988C31.6494 30.3122 31.7083 30.0275 31.7083 28.1421V26.3845L32.0324 26.031C32.6019 25.4026 33.5249 25.4909 33.9668 26.2176C34.1435 26.5121 34.1632 26.7282 34.1632 29.0161V31.5004L34.4086 31.736C34.713 32.0502 35.0862 32.0502 35.3906 31.736C35.6361 31.5004 35.6361 31.4807 35.6361 29.6936C35.6361 27.9752 35.6459 27.8672 35.8619 27.553C36.1761 27.0817 36.7555 26.8853 37.2661 27.0817C37.4919 27.17 37.7374 27.3664 37.8749 27.5628L38.1007 27.8967L38.0516 34.9764C38.032 38.8648 37.9829 42.2722 37.9436 42.5373C37.8945 42.9497 37.9141 43.0577 38.0614 43.1952C38.3855 43.4897 38.7193 43.5094 39.0139 43.2541C39.5245 42.8024 39.5638 42.2427 39.5638 34.6425C39.5638 26.7969 39.6031 27.1995 38.7291 26.3157C38.3462 25.9426 38.0811 25.7757 37.6981 25.6579C36.9126 25.4222 36.51 25.4615 35.6361 25.8346C35.528 25.8739 35.4299 25.7855 35.2924 25.54C35.0076 25.0196 34.3104 24.4403 33.7409 24.2733C33.0634 24.0769 32.6019 24.0868 31.9342 24.3322C31.4727 24.509 31.3647 24.5188 31.3352 24.4108C31.3057 24.3322 31.0799 24.0671 30.8246 23.8216C30.0881 23.095 29.1749 22.8986 27.9573 23.203L27.6824 23.2619V21.1901C27.6824 20.051 27.702 19.1182 27.7315 19.1182C27.761 19.1182 28.4189 19.452 29.2044 19.8546C29.9801 20.2572 30.7362 20.5911 30.8737 20.5911C31.5905 20.5911 32.2189 19.9921 32.2386 19.2851C32.2386 19.0593 32.0324 17.606 31.7574 16.0546L31.2763 13.2462L31.6887 12.7945C31.9833 12.4705 32.1011 12.2643 32.1011 12.0483C32.1011 11.6555 31.7967 11.3609 31.3843 11.3609C31.1192 11.3609 30.9621 11.4689 30.5006 11.9304C30.1962 12.2447 29.9016 12.6374 29.8525 12.8142C29.7739 13.0597 29.8721 13.7863 30.2452 15.9564C30.5104 17.5078 30.7166 18.8236 30.7068 18.8825C30.6871 18.9316 29.9998 18.6272 29.1848 18.1952L27.6824 17.3998V16.6143C27.6824 15.6618 27.4271 15.0333 26.8183 14.4835C26.2586 13.9729 25.7873 13.7961 25.0214 13.7863C24.2555 13.7863 23.6859 14.022 23.1164 14.5718C22.5862 15.0923 22.3603 15.6618 22.3014 16.6732L22.2523 17.5373L20.8678 18.2639C20.1117 18.6567 19.4735 18.9414 19.4538 18.8825C19.444 18.8236 19.6502 17.5078 19.9153 15.9564C20.2983 13.747 20.3866 13.0597 20.3081 12.8044C20.2394 12.5589 19.6698 11.9304 18.0595 10.3397C16.2233 8.53295 15.9385 8.20891 16.1251 8.16964C16.2429 8.15 17.5783 7.95361 19.0905 7.73759C21.1133 7.443 21.8988 7.29572 22.0854 7.15825C22.2425 7.05023 22.812 6.02902 23.7056 4.26154L25.0803 1.5416L26.455 4.26154C27.3289 5.99957 27.9181 7.05023 28.0752 7.15825C28.2519 7.2859 29.0669 7.443 31.0701 7.72777C32.5822 7.95361 33.9275 8.15 34.0551 8.17945C34.281 8.22855 34.2614 8.26783 33.6329 8.84717C33.0143 9.42651 32.975 9.48542 33.0045 9.83892C33.0438 10.3201 33.4169 10.6343 33.8293 10.5361C34.1337 10.4575 35.4789 9.19085 35.695 8.78825C35.7735 8.64096 35.8324 8.32674 35.8324 8.08126C35.8324 7.72777 35.7735 7.57066 35.5379 7.29572C35.3709 7.10915 35.096 6.91276 34.9192 6.85385C34.7425 6.80475 33.3285 6.56909 31.7574 6.35306C30.1962 6.12722 28.9 5.93083 28.8902 5.92101C28.8705 5.91119 28.2716 4.68378 27.5449 3.20106C26.8183 1.71834 26.1113 0.402554 25.9738 0.274902C25.7873 0.0981522 25.5909 0.0294189 25.2079 0.00978088C24.9232 -0.00986099 24.6188 -3.8147e-05 24.5402 0.039238Z" fill="#4346F0"/>
<path d="M7.60184 7.95371C7.43492 8.03226 7.25817 8.1501 7.18943 8.22865C7.13052 8.30721 6.64937 9.23022 6.12895 10.2809C5.60852 11.3316 5.16665 12.2055 5.14701 12.2251C5.12737 12.2448 4.21418 12.392 3.11441 12.5492C0.67922 12.8928 0.757774 12.8732 0.394459 13.1874C0.0704217 13.4525 -0.0670488 13.9337 0.0311444 14.3755C0.0802411 14.5523 0.669401 15.2004 1.72007 16.2216L3.35008 17.7927L2.99658 19.8056C2.80019 20.9152 2.64309 21.9855 2.64309 22.1819C2.64309 22.6434 3.01622 23.1049 3.517 23.2522C3.96869 23.3897 4.02761 23.3602 6.37443 22.1328C7.25817 21.6615 8.02408 21.2785 8.07317 21.2785C8.12227 21.2785 9.00601 21.7302 10.0469 22.2801C11.559 23.0853 12.0009 23.2817 12.3151 23.2817C12.8355 23.2719 13.1989 23.0264 13.3854 22.555C13.5229 22.2015 13.5131 22.0641 13.1596 20.002L12.7766 17.8123L14.4361 16.1823C16.0857 14.5621 16.0956 14.5523 16.0956 14.1301C16.0956 13.6587 15.8894 13.2365 15.5653 13.0303C15.4573 12.9616 14.3968 12.7554 13.2087 12.5786C12.0304 12.4019 11.0386 12.2251 10.9993 12.1957C10.9699 12.1564 10.4985 11.2628 9.95848 10.2023C9.3595 9.02402 8.87836 8.20901 8.73107 8.101C8.38739 7.85552 7.94552 7.80642 7.60184 7.95371ZM10.1254 13.4624C10.312 13.5998 10.9208 13.7275 12.2758 13.9239C13.3167 14.081 14.2102 14.2184 14.2593 14.2381C14.3084 14.2479 13.7095 14.8763 12.9141 15.6226C11.8438 16.6438 11.451 17.0759 11.3725 17.341C11.2841 17.6356 11.3234 18.0382 11.6081 19.6289C11.7947 20.6992 11.9322 21.5731 11.9125 21.5731C11.9027 21.5731 11.0681 21.1509 10.0665 20.6403C9.07474 20.1297 8.16155 19.7074 8.05353 19.7074C7.94552 19.7074 7.03232 20.1297 6.03075 20.6501C5.02918 21.1607 4.21418 21.5437 4.21418 21.5044C4.21418 21.4651 4.35165 20.601 4.51858 19.5994C4.71496 18.4506 4.80334 17.6552 4.76406 17.4294C4.71496 17.1544 4.42038 16.8107 3.28134 15.6815C2.4958 14.9156 1.86736 14.2675 1.887 14.2479C1.90664 14.2283 2.78056 14.081 3.83122 13.9337C4.88189 13.7766 5.84418 13.59 5.97184 13.5114C6.10931 13.4231 6.54136 12.6768 7.13052 11.5083L8.06335 9.65245L8.96673 11.4592C9.55589 12.667 9.94866 13.3347 10.1254 13.4624Z" fill="#4346F0"/>
<path d="M41.8722 7.89468C41.4696 7.99287 41.1947 8.4151 40.252 10.2906C39.4861 11.8224 39.2308 12.2348 39.0541 12.2741C38.9264 12.3036 37.9936 12.4508 36.9626 12.5981C35.9414 12.7356 34.9594 12.9222 34.8023 12.9909C34.3997 13.1775 34.1641 13.5997 34.1641 14.1299C34.1641 14.5522 34.1739 14.562 35.8235 16.1822L37.483 17.8122L37.1 19.9921C36.7465 22.064 36.7367 22.2014 36.8742 22.5549C37.0608 23.0263 37.4241 23.2717 37.9445 23.2816C38.2587 23.2816 38.7006 23.0852 40.2226 22.28C41.2634 21.7301 42.157 21.2784 42.2061 21.2784C42.265 21.2784 43.0996 21.7006 44.0718 22.2113C45.0439 22.7317 45.9767 23.203 46.1338 23.2521C46.7917 23.4779 47.6165 22.879 47.6165 22.1818C47.6165 21.9854 47.4594 20.9151 47.263 19.8055L46.9095 17.7926L48.5396 16.2215C49.6 15.2003 50.1794 14.5522 50.2285 14.3754C50.3267 13.9336 50.1892 13.4524 49.8652 13.1873C49.5018 12.8731 49.5804 12.8927 47.1452 12.549C46.0454 12.3919 45.1322 12.2446 45.1126 12.225C45.093 12.2054 44.6413 11.3118 44.111 10.2415C43.5317 9.073 43.0407 8.20889 42.8934 8.10088C42.6283 7.9045 42.1766 7.81612 41.8722 7.89468ZM43.1389 11.5278C43.7084 12.6767 44.1503 13.423 44.2878 13.5113C44.4056 13.5801 45.3679 13.7765 46.4284 13.9336C47.4791 14.0907 48.3628 14.2281 48.3824 14.2478C48.4021 14.2674 47.7736 14.9155 46.9881 15.6814C45.8294 16.8204 45.5447 17.1445 45.4956 17.4292C45.4465 17.6551 45.5447 18.4406 45.741 19.5993C45.908 20.6009 46.0454 21.465 46.0454 21.5043C46.0454 21.5435 45.2304 21.1606 44.2289 20.6402C43.2371 20.1296 42.3239 19.7073 42.2159 19.7073C42.0981 19.7073 41.1947 20.1296 40.2029 20.6402C39.2014 21.1508 38.3766 21.573 38.3569 21.573C38.3373 21.573 38.4649 20.6991 38.6515 19.6288C38.9363 18.0282 38.9755 17.6354 38.8872 17.3409C38.8086 17.0659 38.4256 16.6437 37.3455 15.6225C36.5502 14.8762 35.9512 14.2478 35.9905 14.238C36.0396 14.2183 36.9331 14.0809 37.974 13.9237C39.329 13.7274 39.9476 13.5899 40.1342 13.4622C40.311 13.3346 40.6939 12.6767 41.2831 11.4885C41.774 10.4968 42.1766 9.69161 42.1865 9.69161C42.2061 9.69161 42.6283 10.5164 43.1389 11.5278Z" fill="#4346F0"/>
<path d="M22.5663 24.2145L22.3307 24.401L22.2816 27.6021L22.2325 30.7934L20.8676 29.3107C19.7384 28.0931 19.4045 27.7887 18.9528 27.5825C17.4996 26.9148 15.7616 27.5923 15.1037 29.0848C14.8484 29.6642 14.8189 30.6756 15.0349 31.196C15.1135 31.3826 16.3311 33.4544 17.7451 35.7914L20.3079 40.0432L20.6221 41.5848C20.9952 43.4603 21.3487 44.4619 22.0066 45.5322C23.2537 47.555 25.3059 49.1064 27.6331 49.7742C28.3106 49.9705 28.6445 50 30.0879 50C31.5314 50 31.8554 49.9705 32.533 49.7742C34.1531 49.3028 35.4984 48.5369 36.6473 47.4077C37.9336 46.1606 38.2576 45.5027 37.7961 45.0412C37.4917 44.7368 37.04 44.7859 36.7356 45.1591C34.7227 47.5746 32.7686 48.5762 30.0683 48.5762C26.9654 48.5762 24.2945 46.9069 22.8904 44.0986C22.5172 43.3523 22.3601 42.8024 21.987 40.9662L21.6924 39.4933L19.1198 35.2317C17.7058 32.8947 16.498 30.8032 16.4194 30.5872C16.2427 30.057 16.39 29.5365 16.822 29.1536C17.2344 28.7903 17.6272 28.6921 18.1378 28.8394C18.4717 28.9277 18.7761 29.2027 20.1311 30.6854C22.3503 33.1108 22.3994 33.1599 22.8216 33.1599C23.0868 33.1599 23.2537 33.0813 23.4697 32.8751L23.7545 32.5903V28.5055V24.4305L23.4992 24.2341C23.1751 23.9788 22.8609 23.969 22.5663 24.2145Z" fill="#4346F0"/>
</svg>
