<svg width="59" height="50" viewBox="0 0 59 50" fill="none" xmlns="http://www.w3.org/2000/svg">
<circle cx="34" cy="25" r="25" fill="#FFECEB"/>
<path d="M34.6246 15.842L32.8935 12.1065L29.158 10.3754L32.8935 8.68993L34.6246 5L36.3101 8.68993L40 10.3754L36.3101 12.1065L34.6246 15.842ZM12.1661 15.842L10.435 12.1065L6.74512 10.3754L10.435 8.68993L12.1661 5L13.8516 8.68993L17.5871 10.3754L13.8516 12.1065L12.1661 15.842ZM34.6246 38.2549L32.8935 34.565L29.158 32.8339L32.8935 31.1484L34.6246 27.4129L36.3101 31.1484L40 32.8339L36.3101 34.565L34.6246 38.2549ZM5.5607 44.4048L0.595247 39.4393C0.23081 39.0749 0.0334067 38.6497 0.00303697 38.1638C-0.0273328 37.6779 0.170071 37.2223 0.595247 36.7971L21.8693 15.5231C22.2641 15.1283 22.7424 14.9309 23.3042 14.9309C23.8661 14.9309 24.3444 15.1283 24.7392 15.5231L29.4769 20.2608C29.8717 20.6556 30.0691 21.1339 30.0691 21.6958C30.0691 22.2576 29.8717 22.7359 29.4769 23.1307L8.20287 44.4048C7.80806 44.7996 7.3677 44.997 6.88179 44.997C6.39587 44.997 5.95551 44.7996 5.5607 44.4048ZM6.65401 41.1248L21.0948 26.7296L18.2249 23.8596L3.82963 38.3004L6.65401 41.1248Z" fill="#FF5F55"/>
</svg>
