<svg width="88" height="62" viewBox="0 0 88 62" fill="none" xmlns="http://www.w3.org/2000/svg">
<rect x="26" width="62" height="62" rx="31" fill="#FFEDE8"/>
<path d="M67.4177 46.9103H6.58525M67.4177 46.9103V7.83671C67.4177 6.26886 66.1473 5 64.581 5H9.42196C7.85557 5 6.58525 6.27032 6.58525 7.83671V46.9103M67.4177 46.9103L71.6997 54.3397C71.8965 54.681 72.0001 55.068 72 55.4619C71.9999 55.8558 71.8961 56.2428 71.6991 56.5839C71.5021 56.925 71.2188 57.2083 70.8776 57.4052C70.5365 57.6021 70.151 57.7058 69.757 57.7059H4.24442C3.8505 57.7058 3.46353 57.6021 3.12237 57.4052C2.78122 57.2083 2.4979 56.925 2.30089 56.5839C2.10388 56.2428 2.0001 55.8558 2 55.4619C1.9999 55.068 2.10346 54.681 2.30029 54.3397L6.58525 46.9103M37.9743 52.3081H36.0287" stroke="#F29A15" stroke-width="2.5" stroke-miterlimit="10" stroke-linecap="round" stroke-linejoin="round"/>
<path d="M31.79 37.8839L20.8019 26.8959L31.79 15.9078M42.2121 37.8839L53.2002 26.8959L42.2121 15.9078" stroke="#F29A15" stroke-width="2.5" stroke-miterlimit="10" stroke-linecap="round" stroke-linejoin="round"/>
<path d="M67.4177 46.9103H6.58525M67.4177 46.9103V7.83671C67.4177 6.26886 66.1473 5 64.581 5H9.42196C7.85557 5 6.58525 6.27032 6.58525 7.83671V46.9103M67.4177 46.9103L71.6997 54.3397C71.8965 54.681 72.0001 55.068 72 55.4619C71.9999 55.8558 71.8961 56.2428 71.6991 56.5839C71.5021 56.925 71.2188 57.2083 70.8776 57.4052C70.5365 57.6021 70.151 57.7058 69.757 57.7059H4.24442C3.8505 57.7058 3.46353 57.6021 3.12237 57.4052C2.78122 57.2083 2.4979 56.925 2.30089 56.5839C2.10388 56.2428 2.0001 55.8558 2 55.4619C1.9999 55.068 2.10346 54.681 2.30029 54.3397L6.58525 46.9103M37.9743 52.3081H36.0287" stroke="#F29A15" stroke-width="2.5" stroke-miterlimit="10" stroke-linecap="round" stroke-linejoin="round"/>
<path d="M31.79 37.8839L20.8019 26.8959L31.79 15.9078M42.2121 37.8839L53.2002 26.8959L42.2121 15.9078" stroke="#F29A15" stroke-width="2.5" stroke-miterlimit="10" stroke-linecap="round" stroke-linejoin="round"/>
</svg>
