<svg width="30" height="30" viewBox="0 0 30 30" fill="none" xmlns="http://www.w3.org/2000/svg">
<rect x="0.5" y="0.5" width="29" height="29" rx="4.5" stroke="#FE574C" stroke-dasharray="2 2"/>
<path d="M15.06 15.1C15.9667 15.1 16.76 14.94 17.44 14.62C18.12 14.3 18.6533 13.8667 19.04 13.32C19.4267 12.7733 19.62 12.1733 19.62 11.52C19.62 10.8533 19.46 10.24 19.14 9.68C18.8333 9.12 18.3867 8.66667 17.8 8.32C17.2267 7.97333 16.54 7.8 15.74 7.8C14.98 7.8 14.3 7.96 13.7 8.28C13.1133 8.58667 12.6467 9.01333 12.3 9.56C11.9667 10.1067 11.8 10.7467 11.8 11.48H13.42C13.42 10.8667 13.6467 10.36 14.1 9.96C14.5533 9.54667 15.1067 9.34 15.76 9.34C16.2267 9.34 16.6133 9.43333 16.92 9.62C17.24 9.80667 17.48 10.0733 17.64 10.42C17.8 10.7533 17.88 11.14 17.88 11.58C17.88 11.9133 17.8133 12.2267 17.68 12.52C17.56 12.8133 17.38 13.0733 17.14 13.3C16.9 13.5133 16.6067 13.6867 16.26 13.82C15.9133 13.94 15.5133 14 15.06 14V15.1ZM15.66 22.2C16.5 22.2 17.2467 22.04 17.9 21.72C18.5533 21.4 19.0667 20.9467 19.44 20.36C19.8267 19.7733 20.02 19.0867 20.02 18.3C20.02 17.6067 19.8867 17.0133 19.62 16.52C19.3667 16.0267 19.0067 15.6267 18.54 15.32C18.0867 15 17.56 14.7667 16.96 14.62C16.3733 14.4733 15.74 14.4 15.06 14.4V15.5C15.5133 15.5 15.9333 15.5533 16.32 15.66C16.7067 15.7667 17.0467 15.9333 17.34 16.16C17.6333 16.3733 17.86 16.6467 18.02 16.98C18.1933 17.3 18.28 17.6733 18.28 18.1C18.28 18.6067 18.1733 19.0467 17.96 19.42C17.7467 19.7933 17.44 20.0867 17.04 20.3C16.6533 20.5 16.1933 20.6 15.66 20.6C15.1267 20.6 14.6533 20.5 14.24 20.3C13.8267 20.1 13.5 19.8267 13.26 19.48C13.0333 19.1333 12.92 18.74 12.92 18.3H11.2C11.2 18.8467 11.3067 19.36 11.52 19.84C11.7333 20.3067 12.0333 20.72 12.42 21.08C12.8067 21.4267 13.2733 21.7 13.82 21.9C14.3667 22.1 14.98 22.2 15.66 22.2Z" fill="#FE574C"/>
</svg>
