<svg width="30" height="30" viewBox="0 0 30 30" fill="none" xmlns="http://www.w3.org/2000/svg">
<rect x="0.5" y="0.5" width="29" height="29" rx="4.5" stroke="#FE574C" stroke-dasharray="2 2"/>
<path d="M10.4 22H20.28V20.4H13.9L18.36 15.86C18.9067 15.3 19.3533 14.6667 19.7 13.96C20.0467 13.2533 20.22 12.54 20.22 11.82C20.22 11.3933 20.1333 10.9467 19.96 10.48C19.7867 10.0133 19.52 9.58 19.16 9.18C18.8 8.76667 18.34 8.43333 17.78 8.18C17.22 7.91333 16.5533 7.78 15.78 7.78C14.82 7.78 13.9933 7.99333 13.3 8.42C12.62 8.83333 12.1 9.42 11.74 10.18C11.38 10.9267 11.2 11.8 11.2 12.8H12.9C12.9 12.0933 13.0133 11.4867 13.24 10.98C13.4667 10.46 13.7933 10.0667 14.22 9.8C14.66 9.52 15.18 9.38 15.78 9.38C16.2067 9.38 16.5867 9.45333 16.92 9.6C17.2533 9.74667 17.5333 9.94 17.76 10.18C18 10.42 18.18 10.6867 18.3 10.98C18.42 11.2733 18.48 11.5733 18.48 11.88C18.48 12.2533 18.42 12.6133 18.3 12.96C18.1933 13.2933 18.0267 13.6267 17.8 13.96C17.5867 14.28 17.3267 14.6067 17.02 14.94L10.4 22Z" fill="#FE574C"/>
</svg>
