<svg width="196" height="52" viewBox="0 0 196 52" fill="none" xmlns="http://www.w3.org/2000/svg">
<rect x="0.000488281" width="196" height="52" rx="26" fill="#0E1552"/>
<path d="M59.4485 32V30.538H62.7295C63.6022 30.538 64.3672 30.351 65.0245 29.977C65.6818 29.5917 66.1918 29.0647 66.5545 28.396C66.9285 27.7273 67.1155 26.9567 67.1155 26.084C67.1155 25.2227 66.9285 24.4577 66.5545 23.789C66.1805 23.1203 65.6648 22.599 65.0075 22.225C64.3502 21.851 63.5908 21.664 62.7295 21.664H59.4655V20.202H62.7635C63.6248 20.202 64.4182 20.3493 65.1435 20.644C65.8802 20.9387 66.5148 21.3523 67.0475 21.885C67.5915 22.4177 68.0108 23.041 68.3055 23.755C68.6115 24.469 68.7645 25.251 68.7645 26.101C68.7645 26.9397 68.6115 27.7217 68.3055 28.447C68.0108 29.161 67.5972 29.7843 67.0645 30.317C66.5318 30.8497 65.8972 31.2633 65.1605 31.558C64.4352 31.8527 63.6475 32 62.7975 32H59.4485ZM58.3945 32V20.202H59.9925V32H58.3945ZM74.3955 32.17C73.6021 32.17 72.8881 31.983 72.2535 31.609C71.6188 31.235 71.1145 30.7307 70.7405 30.096C70.3665 29.45 70.1795 28.7303 70.1795 27.937C70.1795 27.155 70.3665 26.4523 70.7405 25.829C71.1145 25.1943 71.6188 24.69 72.2535 24.316C72.8881 23.942 73.6021 23.755 74.3955 23.755C75.1775 23.755 75.8858 23.942 76.5205 24.316C77.1665 24.6787 77.6765 25.1773 78.0505 25.812C78.4245 26.4467 78.6115 27.155 78.6115 27.937C78.6115 28.7303 78.4245 29.45 78.0505 30.096C77.6765 30.7307 77.1665 31.235 76.5205 31.609C75.8858 31.983 75.1775 32.17 74.3955 32.17ZM74.3955 30.691C74.9055 30.691 75.3588 30.572 75.7555 30.334C76.1521 30.096 76.4638 29.773 76.6905 29.365C76.9171 28.9457 77.0305 28.4697 77.0305 27.937C77.0305 27.4157 76.9115 26.951 76.6735 26.543C76.4468 26.135 76.1351 25.8177 75.7385 25.591C75.3531 25.353 74.9055 25.234 74.3955 25.234C73.8855 25.234 73.4321 25.353 73.0355 25.591C72.6388 25.8177 72.3271 26.135 72.1005 26.543C71.8738 26.951 71.7605 27.4157 71.7605 27.937C71.7605 28.4697 71.8738 28.9457 72.1005 29.365C72.3271 29.773 72.6388 30.096 73.0355 30.334C73.4321 30.572 73.8855 30.691 74.3955 30.691ZM82.415 32L79.219 23.925H80.817L83.129 30.215H82.619L84.914 23.925H85.798L88.093 30.215H87.583L89.895 23.925H91.493L88.314 32H87.413L85.084 25.897H85.645L83.299 32H82.415ZM98.565 32V27.291C98.565 26.679 98.3723 26.1747 97.987 25.778C97.6016 25.3813 97.103 25.183 96.491 25.183C96.083 25.183 95.7203 25.2737 95.403 25.455C95.0856 25.6363 94.8363 25.8857 94.655 26.203C94.4736 26.5203 94.383 26.883 94.383 27.291L93.754 26.934C93.754 26.322 93.89 25.778 94.162 25.302C94.434 24.826 94.8136 24.452 95.301 24.18C95.7883 23.8967 96.338 23.755 96.95 23.755C97.562 23.755 98.1003 23.908 98.565 24.214C99.041 24.52 99.415 24.9223 99.687 25.421C99.959 25.9083 100.095 26.4297 100.095 26.985V32H98.565ZM92.853 32V23.925H94.383V32H92.853ZM102.166 32V19.862H103.696V32H102.166ZM109.624 32.17C108.831 32.17 108.117 31.983 107.482 31.609C106.847 31.235 106.343 30.7307 105.969 30.096C105.595 29.45 105.408 28.7303 105.408 27.937C105.408 27.155 105.595 26.4523 105.969 25.829C106.343 25.1943 106.847 24.69 107.482 24.316C108.117 23.942 108.831 23.755 109.624 23.755C110.406 23.755 111.114 23.942 111.749 24.316C112.395 24.6787 112.905 25.1773 113.279 25.812C113.653 26.4467 113.84 27.155 113.84 27.937C113.84 28.7303 113.653 29.45 113.279 30.096C112.905 30.7307 112.395 31.235 111.749 31.609C111.114 31.983 110.406 32.17 109.624 32.17ZM109.624 30.691C110.134 30.691 110.587 30.572 110.984 30.334C111.381 30.096 111.692 29.773 111.919 29.365C112.146 28.9457 112.259 28.4697 112.259 27.937C112.259 27.4157 112.14 26.951 111.902 26.543C111.675 26.135 111.364 25.8177 110.967 25.591C110.582 25.353 110.134 25.234 109.624 25.234C109.114 25.234 108.661 25.353 108.264 25.591C107.867 25.8177 107.556 26.135 107.329 26.543C107.102 26.951 106.989 27.4157 106.989 27.937C106.989 28.4697 107.102 28.9457 107.329 29.365C107.556 29.773 107.867 30.096 108.264 30.334C108.661 30.572 109.114 30.691 109.624 30.691ZM118.998 32.17C118.261 32.17 117.593 31.9887 116.992 31.626C116.391 31.252 115.915 30.7477 115.564 30.113C115.224 29.4783 115.054 28.7643 115.054 27.971C115.054 27.1777 115.224 26.4637 115.564 25.829C115.915 25.1943 116.386 24.69 116.975 24.316C117.576 23.942 118.25 23.755 118.998 23.755C119.61 23.755 120.154 23.8853 120.63 24.146C121.117 24.3953 121.508 24.7467 121.803 25.2C122.098 25.642 122.262 26.1577 122.296 26.747V29.178C122.262 29.756 122.098 30.2717 121.803 30.725C121.52 31.1783 121.134 31.5353 120.647 31.796C120.171 32.0453 119.621 32.17 118.998 32.17ZM119.253 30.725C120.012 30.725 120.624 30.47 121.089 29.96C121.554 29.4387 121.786 28.7757 121.786 27.971C121.786 27.4157 121.678 26.934 121.463 26.526C121.259 26.1067 120.964 25.7837 120.579 25.557C120.194 25.319 119.746 25.2 119.236 25.2C118.726 25.2 118.273 25.319 117.876 25.557C117.491 25.795 117.185 26.1237 116.958 26.543C116.743 26.951 116.635 27.4213 116.635 27.954C116.635 28.498 116.743 28.9797 116.958 29.399C117.185 29.807 117.496 30.13 117.893 30.368C118.29 30.606 118.743 30.725 119.253 30.725ZM121.684 32V29.824L121.973 27.852L121.684 25.897V23.925H123.231V32H121.684ZM128.875 32.17C128.127 32.17 127.459 31.9887 126.869 31.626C126.28 31.252 125.81 30.7477 125.458 30.113C125.118 29.4783 124.948 28.7643 124.948 27.971C124.948 27.1777 125.118 26.4637 125.458 25.829C125.81 25.1943 126.28 24.69 126.869 24.316C127.459 23.942 128.127 23.755 128.875 23.755C129.476 23.755 130.02 23.8853 130.507 24.146C130.995 24.3953 131.386 24.7467 131.68 25.2C131.986 25.642 132.156 26.1577 132.19 26.747V29.178C132.156 29.756 131.992 30.2717 131.697 30.725C131.403 31.1783 131.012 31.5353 130.524 31.796C130.037 32.0453 129.487 32.17 128.875 32.17ZM129.13 30.725C129.64 30.725 130.082 30.606 130.456 30.368C130.842 30.13 131.142 29.807 131.357 29.399C131.573 28.9797 131.68 28.5037 131.68 27.971C131.68 27.4157 131.567 26.934 131.34 26.526C131.125 26.118 130.825 25.795 130.439 25.557C130.065 25.319 129.623 25.2 129.113 25.2C128.603 25.2 128.156 25.319 127.77 25.557C127.385 25.795 127.079 26.1237 126.852 26.543C126.637 26.951 126.529 27.4213 126.529 27.954C126.529 28.498 126.637 28.9797 126.852 29.399C127.079 29.807 127.385 30.13 127.77 30.368C128.167 30.606 128.62 30.725 129.13 30.725ZM133.125 32H131.578V29.824L131.867 27.852L131.578 25.897V19.862H133.125V32ZM137.813 32L142.641 20.202H143.797L148.608 32H146.874L142.913 22.021H143.508L139.513 32H137.813ZM140.108 29.331V27.937H146.313V29.331H140.108ZM154.495 32.17C153.883 32.17 153.327 32.0453 152.829 31.796C152.341 31.5353 151.95 31.1783 151.656 30.725C151.361 30.2717 151.197 29.756 151.163 29.178V26.747C151.197 26.1577 151.361 25.642 151.656 25.2C151.962 24.7467 152.358 24.3953 152.846 24.146C153.344 23.8853 153.894 23.755 154.495 23.755C155.231 23.755 155.894 23.942 156.484 24.316C157.084 24.69 157.555 25.1943 157.895 25.829C158.235 26.4637 158.405 27.1777 158.405 27.971C158.405 28.7643 158.235 29.4783 157.895 30.113C157.555 30.7477 157.084 31.252 156.484 31.626C155.894 31.9887 155.231 32.17 154.495 32.17ZM154.24 30.725C154.75 30.725 155.197 30.606 155.583 30.368C155.968 30.13 156.274 29.807 156.501 29.399C156.727 28.9797 156.841 28.498 156.841 27.954C156.841 27.4213 156.727 26.9453 156.501 26.526C156.274 26.1067 155.968 25.7837 155.583 25.557C155.197 25.319 154.755 25.2 154.257 25.2C153.747 25.2 153.299 25.319 152.914 25.557C152.528 25.7837 152.228 26.1067 152.013 26.526C151.797 26.9453 151.69 27.427 151.69 27.971C151.69 28.5037 151.792 28.9797 151.996 29.399C152.211 29.807 152.511 30.13 152.897 30.368C153.293 30.606 153.741 30.725 154.24 30.725ZM150.245 35.383V23.925H151.775V26.05L151.486 28.005L151.775 29.977V35.383H150.245ZM164.389 32.17C163.777 32.17 163.222 32.0453 162.723 31.796C162.236 31.5353 161.845 31.1783 161.55 30.725C161.255 30.2717 161.091 29.756 161.057 29.178V26.747C161.091 26.1577 161.255 25.642 161.55 25.2C161.856 24.7467 162.253 24.3953 162.74 24.146C163.239 23.8853 163.788 23.755 164.389 23.755C165.126 23.755 165.789 23.942 166.378 24.316C166.979 24.69 167.449 25.1943 167.789 25.829C168.129 26.4637 168.299 27.1777 168.299 27.971C168.299 28.7643 168.129 29.4783 167.789 30.113C167.449 30.7477 166.979 31.252 166.378 31.626C165.789 31.9887 165.126 32.17 164.389 32.17ZM164.134 30.725C164.644 30.725 165.092 30.606 165.477 30.368C165.862 30.13 166.168 29.807 166.395 29.399C166.622 28.9797 166.735 28.498 166.735 27.954C166.735 27.4213 166.622 26.9453 166.395 26.526C166.168 26.1067 165.862 25.7837 165.477 25.557C165.092 25.319 164.65 25.2 164.151 25.2C163.641 25.2 163.193 25.319 162.808 25.557C162.423 25.7837 162.122 26.1067 161.907 26.526C161.692 26.9453 161.584 27.427 161.584 27.971C161.584 28.5037 161.686 28.9797 161.89 29.399C162.105 29.807 162.406 30.13 162.791 30.368C163.188 30.606 163.635 30.725 164.134 30.725ZM160.139 35.383V23.925H161.669V26.05L161.38 28.005L161.669 29.977V35.383H160.139Z" fill="white"/>
<path d="M33.1429 17.85C33.1639 17.85 33.1849 17.85 33.2059 17.85C34.0986 17.85 34.9389 18.1867 35.6846 18.4813C36.2413 18.7023 36.7192 18.8916 37.092 18.8916C37.4229 18.8916 37.8955 18.7023 38.4522 18.4866C39.2504 18.1709 40.2482 17.7764 41.288 17.7764C41.4246 17.7764 41.5559 17.7816 41.6819 17.7974C42.5694 17.8342 44.7698 18.1499 46.2087 20.2542C46.235 20.3015 46.2508 20.3541 46.2403 20.4067C46.2245 20.4593 46.193 20.5067 46.151 20.533L46.13 20.5488C45.7151 20.8065 43.6355 22.2322 43.6617 24.9257C43.688 28.2399 46.4241 29.4604 46.7391 29.5867L46.7549 29.5919C46.8442 29.634 46.8914 29.7392 46.8599 29.8392L46.8547 29.8602C46.6814 30.4021 46.1825 31.8278 45.1794 33.2955C44.2184 34.7001 43.1313 36.2888 41.3563 36.3257C40.5318 36.3414 39.9699 36.0942 39.4237 35.8575C38.8723 35.6207 38.2999 35.3735 37.4071 35.3735C36.4671 35.3735 35.8684 35.626 35.2855 35.8732C34.7708 36.0942 34.2352 36.3257 33.4947 36.352C33.4667 36.3555 33.4369 36.3572 33.4054 36.3572C31.8352 36.3572 30.6851 34.879 29.5508 33.2376C27.2769 29.9497 25.9692 24.5259 28.0278 20.9538C29.1097 19.0705 31.0685 17.8816 33.1429 17.85Z" fill="white"/>
<path d="M41.8916 12.1791C42.0387 13.5101 41.5555 14.9936 40.605 16.151C39.6965 17.2504 38.3731 17.9291 37.1442 17.9291C37.0567 17.9291 36.9709 17.9256 36.8869 17.9186C36.7924 17.9133 36.7189 17.8396 36.7031 17.745C36.5088 16.2562 37.2545 14.7726 38.0212 13.8836C38.9193 12.8262 40.4317 12.0529 41.6868 12.0002C41.7866 11.995 41.8811 12.0739 41.8916 12.1791Z" fill="white"/>
</svg>
