<svg width="61" height="50" viewBox="0 0 61 50" fill="none" xmlns="http://www.w3.org/2000/svg">
<circle cx="36" cy="25" r="25" fill="#E5FFE1"/>
<path d="M15.4 45L14.4 38.7C13.7667 38.4667 13.1 38.15 12.4 37.75C11.7 37.35 11.0833 36.9333 10.55 36.5L4.65 39.2L0 31L5.4 27.05C5.33333 26.75 5.29167 26.4083 5.275 26.025C5.25833 25.6417 5.25 25.3 5.25 25C5.25 24.7 5.25833 24.3583 5.275 23.975C5.29167 23.5917 5.33333 23.25 5.4 22.95L0 19L4.65 10.8L10.55 13.5C11.0833 13.0667 11.7 12.65 12.4 12.25C13.1 11.85 13.7667 11.55 14.4 11.35L15.4 5H24.6L25.6 11.3C26.2333 11.5333 26.9083 11.8417 27.625 12.225C28.3417 12.6083 28.95 13.0333 29.45 13.5L35.35 10.8L40 19L34.6 22.85C34.6667 23.1833 34.7083 23.5417 34.725 23.925C34.7417 24.3083 34.75 24.6667 34.75 25C34.75 25.3333 34.7417 25.6833 34.725 26.05C34.7083 26.4167 34.6667 26.7667 34.6 27.1L40 31L35.35 39.2L29.45 36.5C28.9167 36.9333 28.3083 37.3583 27.625 37.775C26.9417 38.1917 26.2667 38.5 25.6 38.7L24.6 45H15.4ZM20 31.5C21.8 31.5 23.3333 30.8667 24.6 29.6C25.8667 28.3333 26.5 26.8 26.5 25C26.5 23.2 25.8667 21.6667 24.6 20.4C23.3333 19.1333 21.8 18.5 20 18.5C18.2 18.5 16.6667 19.1333 15.4 20.4C14.1333 21.6667 13.5 23.2 13.5 25C13.5 26.8 14.1333 28.3333 15.4 29.6C16.6667 30.8667 18.2 31.5 20 31.5ZM20 28.5C19.0333 28.5 18.2083 28.1583 17.525 27.475C16.8417 26.7917 16.5 25.9667 16.5 25C16.5 24.0333 16.8417 23.2083 17.525 22.525C18.2083 21.8417 19.0333 21.5 20 21.5C20.9667 21.5 21.7917 21.8417 22.475 22.525C23.1583 23.2083 23.5 24.0333 23.5 25C23.5 25.9667 23.1583 26.7917 22.475 27.475C21.7917 28.1583 20.9667 28.5 20 28.5ZM17.8 42H22.2L22.9 36.4C24 36.1333 25.0417 35.7167 26.025 35.15C27.0083 34.5833 27.9 33.9 28.7 33.1L34 35.4L36 31.8L31.3 28.35C31.4333 27.7833 31.5417 27.225 31.625 26.675C31.7083 26.125 31.75 25.5667 31.75 25C31.75 24.4333 31.7167 23.875 31.65 23.325C31.5833 22.775 31.4667 22.2167 31.3 21.65L36 18.2L34 14.6L28.7 16.9C27.9333 16.0333 27.0667 15.3083 26.1 14.725C25.1333 14.1417 24.0667 13.7667 22.9 13.6L22.2 8H17.8L17.1 13.6C15.9667 13.8333 14.9083 14.2333 13.925 14.8C12.9417 15.3667 12.0667 16.0667 11.3 16.9L6 14.6L4 18.2L8.7 21.65C8.56667 22.2167 8.45833 22.775 8.375 23.325C8.29167 23.875 8.25 24.4333 8.25 25C8.25 25.5667 8.29167 26.125 8.375 26.675C8.45833 27.225 8.56667 27.7833 8.7 28.35L4 31.8L6 35.4L11.3 33.1C12.1 33.9 12.9917 34.5833 13.975 35.15C14.9583 35.7167 16 36.1333 17.1 36.4L17.8 42Z" fill="#27B724"/>
</svg>
