<svg width="50" height="50" viewBox="0 0 50 50" fill="none" xmlns="http://www.w3.org/2000/svg">
<path d="M8.05235 16.8798V0H5.89439V16.8798C2.5599 17.4156 0 20.393 0 23.9745C0 27.5561 2.5599 30.5335 5.89439 31.0692V50H8.05235V31.0692C11.3867 30.5335 13.9462 27.5561 13.9462 23.9745C13.9462 20.393 11.3867 17.4156 8.05235 16.8798ZM6.97337 28.9334C4.31806 28.9334 2.15796 26.7089 2.15796 23.9746C2.15796 21.2403 4.31806 19.0159 6.97337 19.0159C9.62816 19.0159 11.7883 21.2404 11.7883 23.9746C11.7883 26.7089 9.62816 28.9334 6.97337 28.9334Z" fill="#06D6A0"/>
<path d="M26.0792 7.98449V0H23.9212V7.98449C20.5869 8.5201 18.0273 11.4966 18.0273 15.0782C18.0273 18.6596 20.5869 21.637 23.9212 22.1729V50H26.0792V22.1729C29.4136 21.637 31.9736 18.6596 31.9736 15.0782C31.9736 11.4964 29.4137 8.52 26.0792 7.98449ZM25.0002 20.0369C22.3455 20.0369 20.1853 17.8125 20.1853 15.0782C20.1853 12.3449 22.3454 10.1205 25.0002 10.1205C27.6556 10.1205 29.8156 12.3449 29.8156 15.0782C29.8156 17.8125 27.6556 20.0369 25.0002 20.0369Z" fill="#06D6A0"/>
<path d="M50.0004 28.4222C50.0004 24.8408 47.4408 21.8643 44.1065 21.3287V0H41.9486V21.3287C38.6142 21.8643 36.0547 24.8408 36.0547 28.4222C36.0547 32.0039 38.6142 34.9812 41.9486 35.5169V50H44.1065V35.5169C47.4408 34.9812 50.0004 32.0039 50.0004 28.4222ZM43.0275 33.381C40.3727 33.381 38.2126 31.1566 38.2126 28.4222C38.2126 25.6891 40.3726 23.4646 43.0275 23.4646C45.6822 23.4646 47.8424 25.6891 47.8424 28.4222C47.8424 31.1566 45.6823 33.381 43.0275 33.381Z" fill="#06D6A0"/>
</svg>
