<svg width="40" height="40" viewBox="0 0 40 40" fill="none" xmlns="http://www.w3.org/2000/svg">
<circle cx="20" cy="20" r="19.5" stroke="#1764EF" stroke-dasharray="2 2"/>
<path d="M21.2227 10.0574C20.0414 10.242 19.2129 10.6439 18.532 11.3617C17.9578 11.9688 17.601 12.6783 17.4 13.6094C17.3221 13.9621 17.3139 14.1754 17.2975 15.8324L17.2811 17.6699H15.6609H14.0449V19.5361V21.4023L15.6568 21.4105L17.2646 21.4229L17.277 26.2094L17.2852 31H19.2129H21.1406V26.2012V21.4023H22.7402C23.6221 21.4023 24.3398 21.3982 24.3398 21.39C24.4506 20.6436 24.8156 17.7232 24.8033 17.6986C24.7951 17.6822 23.9666 17.6699 22.9617 17.6699H21.1365L21.1488 16.14C21.1611 14.6471 21.1652 14.6102 21.2596 14.3723C21.4523 13.8924 21.8543 13.6053 22.4613 13.5273C22.6254 13.5068 23.2529 13.4863 23.86 13.4863H24.9551L24.9469 11.8129L24.9346 10.1436L24.4014 10.0943C23.5277 10.0164 21.6328 9.9918 21.2227 10.0574Z" fill="#1764EF"/>
</svg>
