<svg width="64" height="59" viewBox="0 0 64 59" fill="none" xmlns="http://www.w3.org/2000/svg">
<rect x="5" width="59" height="59" rx="29.5" fill="#FFEFFA"/>
<path d="M5.15937 14.3699C4.74102 14.7227 4.67539 14.9852 4.67539 16.3223V17.5117H3.35469C2.55078 17.5117 1.89453 17.5527 1.68945 17.6102C1.24648 17.7414 0.639453 18.3484 0.508203 18.7914C0.360547 19.2836 0.360547 45.9273 0.508203 46.4195C0.639453 46.8625 1.24648 47.4695 1.68945 47.6008C1.94375 47.6746 3.42852 47.6992 7.48906 47.6992H12.9523L12.6652 48.1668C12.3617 48.6754 12.3125 49.0445 12.5012 49.4055C12.6898 49.7664 14.4535 51.4563 14.7078 51.5137C15.0934 51.6121 15.4379 51.4891 16.2828 50.923C17.0129 50.4391 17.1195 50.3898 17.3082 50.4719C17.423 50.5211 17.8496 50.6934 18.2516 50.8574C18.6617 51.0215 19.0473 51.1773 19.1129 51.2184C19.1867 51.2594 19.3016 51.6285 19.4164 52.1945C19.7445 53.827 19.7691 53.8516 21.7379 53.8516C23.7066 53.8516 23.7312 53.827 24.0594 52.1945C24.1742 51.6285 24.2891 51.2594 24.3629 51.2184C24.4285 51.1773 24.8223 51.0215 25.2242 50.8574C25.6344 50.6934 26.0527 50.5211 26.1676 50.4719C26.3562 50.3898 26.4629 50.4391 27.193 50.923C28.0379 51.4891 28.3824 51.6121 28.768 51.5137C29.0223 51.4563 30.7859 49.7664 30.9746 49.4055C31.1633 49.0445 31.1141 48.6754 30.8105 48.1668L30.5234 47.6992H35.2484C38.7266 47.6992 40.0555 47.6746 40.3098 47.6008C40.7527 47.4695 41.3598 46.8625 41.491 46.4195C41.6387 45.9273 41.6387 19.2836 41.491 18.7914C41.3598 18.3484 40.7527 17.7414 40.3098 17.6102C40.0473 17.5363 37.2664 17.5117 28.3578 17.5117H16.7504L15.5445 15.9203C14.8883 15.0508 14.2566 14.2961 14.1418 14.2387C13.9941 14.173 12.6898 14.1484 9.6793 14.1484H5.43008L5.15937 14.3699ZM15.0277 16.6258L16.291 18.291L28.1855 18.332C39.35 18.373 40.0883 18.3813 40.2852 18.5207C40.7281 18.8242 40.7281 18.7914 40.7281 22.8766V26.6582L39.0711 26.6828L37.4059 26.6992V25.3621C37.4059 24.0824 37.3977 24.0086 37.1926 23.5984C36.9301 23.0734 36.4379 22.7125 35.8391 22.5977C35.2566 22.4828 6.74258 22.4828 6.16016 22.5977C5.56133 22.7125 5.06914 23.0734 4.80664 23.5984C4.60156 24.0086 4.59336 24.0824 4.59336 25.3621V26.6992L2.93633 26.6828L1.27109 26.6582V22.8766C1.27109 18.7914 1.27109 18.8242 1.71406 18.5207C1.89453 18.3977 2.16523 18.373 3.60898 18.3484C4.61797 18.332 5.33164 18.2828 5.38906 18.2336C5.47109 18.168 5.4957 17.7742 5.4957 16.7652C5.4957 16.0105 5.52852 15.2969 5.57773 15.182L5.65977 14.9688H9.71211H13.7727L15.0277 16.6258ZM36.0031 23.5246C36.1098 23.5738 36.282 23.7297 36.3723 23.8527C36.5281 24.066 36.5445 24.1973 36.5445 25.3703V26.6582H20.9996H5.45469V25.3703C5.45469 24.1973 5.47109 24.066 5.62695 23.8527C5.71719 23.7297 5.88945 23.5738 5.99609 23.5246C6.15195 23.4426 9.40859 23.418 20.9996 23.418C32.5906 23.418 35.8473 23.4426 36.0031 23.5246ZM40.7527 36.8465C40.7281 45.3859 40.7199 46.198 40.5887 46.3703C40.2441 46.8625 40.5312 46.8379 35.0105 46.8625C31.4832 46.8789 29.941 46.8543 29.941 46.7969C29.941 46.7477 30.0477 46.5016 30.1789 46.2391C30.302 45.9848 30.4906 45.5336 30.5891 45.2383L30.7695 44.7051L31.7211 44.5164C33.4109 44.1801 33.4273 44.1637 33.4273 42.2031C33.4273 40.2426 33.4027 40.2016 31.7785 39.8652C31.2453 39.7504 30.7941 39.6602 30.7859 39.6602C30.7777 39.6602 30.7285 39.5207 30.6793 39.3484C30.6219 39.1844 30.4332 38.7086 30.2527 38.2984L29.9328 37.5438L30.5152 36.6578C31.0812 35.7965 31.1059 35.7473 31.0648 35.3617C31.032 34.968 30.9992 34.927 29.9656 33.9098L28.8992 32.8516H28.5055C28.1445 32.8516 28.0133 32.909 27.2176 33.434L26.3398 34.0164L25.8887 33.7949C25.6426 33.6719 25.175 33.475 24.8469 33.352L24.248 33.1387L24.0348 32.0969C23.7148 30.5465 23.6164 30.4727 21.7379 30.4727C19.8594 30.4727 19.7609 30.5465 19.441 32.0969L19.2277 33.1305L18.4484 33.4258C18.0219 33.5898 17.5543 33.7867 17.4066 33.8688L17.1277 34.0082L16.25 33.434C14.9129 32.548 14.7078 32.5891 13.3215 34.0082C12.4848 34.8777 12.3863 35.0254 12.3863 35.4438C12.3863 35.7309 12.4766 35.9359 12.9687 36.666L13.5512 37.552L13.2641 38.1754C13.1082 38.5199 12.9195 38.9957 12.8457 39.2336C12.7391 39.5371 12.6488 39.6684 12.5258 39.7012C12.4273 39.7258 11.9762 39.816 11.525 39.9063C10.1305 40.1852 10.0074 40.3656 10.0074 42.1867C10.0074 44.0652 10.073 44.1555 11.6727 44.5L12.6652 44.7051L12.9277 45.3859C13.0672 45.7551 13.2641 46.2063 13.3625 46.3867C13.4609 46.5672 13.5348 46.7559 13.5348 46.8051C13.5348 46.8543 11.5414 46.8789 7.73516 46.8625C1.39414 46.8379 1.75508 46.8625 1.41055 46.3703C1.2793 46.198 1.27109 45.3859 1.24648 36.8465L1.23008 27.5195H20.9996H40.7691L40.7527 36.8465ZM22.952 31.3586C23.0012 31.3996 23.1488 31.9246 23.2637 32.5316C23.3949 33.1797 23.5344 33.6883 23.6164 33.7621C23.6902 33.8359 24.0184 33.9754 24.3465 34.0738C24.6664 34.1723 25.2242 34.3938 25.5687 34.5742C25.9133 34.7547 26.2742 34.9023 26.3645 34.9023C26.4629 34.9023 26.9551 34.6234 27.4555 34.2871C27.9641 33.9508 28.4234 33.6719 28.4809 33.6719C28.5465 33.6719 28.973 34.0574 29.4406 34.525C30.023 35.1156 30.2773 35.4191 30.2445 35.5094C30.2199 35.575 29.9328 36.0262 29.6129 36.4938C29.3012 36.9695 29.0387 37.4453 29.0387 37.5438C29.0387 37.6504 29.1781 38.0195 29.3586 38.3641C29.5309 38.7086 29.7523 39.2664 29.859 39.5945C29.9656 39.9227 30.0969 40.2426 30.1461 40.3082C30.2035 40.3656 30.6875 40.5051 31.2207 40.6117C31.7621 40.7184 32.2789 40.825 32.3855 40.8496C32.566 40.8906 32.566 40.9152 32.566 42.1621C32.566 42.8512 32.5332 43.4418 32.4922 43.4746C32.4512 43.4992 31.959 43.6141 31.4012 43.7207C30.8434 43.8355 30.3348 43.9504 30.2609 43.9668C30.1789 43.9996 30.023 44.3113 29.859 44.7625C29.7195 45.1809 29.4734 45.7633 29.3176 46.075C29.1617 46.3785 29.0387 46.7148 29.0387 46.8133C29.0387 46.9199 29.3176 47.4203 29.6539 47.9207C29.9902 48.4293 30.2691 48.8887 30.2691 48.9379C30.2691 49.0527 28.8254 50.5457 28.6039 50.6688C28.4809 50.7344 28.2594 50.6195 27.4473 50.0863C26.8977 49.7172 26.4137 49.4219 26.3645 49.4219C26.3234 49.4219 25.9625 49.5859 25.577 49.7828C25.1914 49.9879 24.6008 50.2258 24.2645 50.3242C23.9363 50.4227 23.6328 50.5293 23.6 50.5703C23.559 50.6031 23.4195 51.1445 23.2883 51.7598C23.157 52.3832 23.0258 52.9164 23.0012 52.9574C22.9766 52.9984 22.4023 53.0313 21.7297 53.0313C20.2941 53.0313 20.4418 53.1543 20.1793 51.7598C19.9414 50.5211 19.9578 50.5375 19.3426 50.3734C19.0637 50.2914 18.432 50.0371 17.948 49.8156L17.0621 49.3973L16.0531 50.0699C15.5035 50.4309 15.0113 50.7344 14.9785 50.7344C14.8637 50.7344 13.2066 49.0773 13.2066 48.9625C13.2066 48.9051 13.4855 48.4457 13.8219 47.9371C14.1582 47.4203 14.4371 46.9199 14.4371 46.8297C14.4371 46.7313 14.2895 46.3621 14.1172 46.0094C13.9367 45.6484 13.707 45.0988 13.6086 44.7871C13.5102 44.4672 13.3707 44.1555 13.2969 44.0734C13.2148 43.9914 12.7555 43.8602 12.1074 43.7289C11.525 43.6141 11 43.4746 10.9426 43.4254C10.8523 43.3516 10.8277 43.0563 10.8277 42.2113C10.8277 41.5961 10.8605 41.0465 10.9016 40.9809C10.9426 40.9234 11.4594 40.7758 12.0992 40.6445C12.7145 40.5215 13.2559 40.382 13.3051 40.3328C13.3461 40.2918 13.4937 39.9391 13.625 39.5453C13.7562 39.1598 13.9859 38.5855 14.15 38.2656C14.3059 37.9539 14.4371 37.6258 14.4371 37.5355C14.4371 37.4535 14.1746 36.9777 13.8547 36.4938C13.5348 36.0098 13.2559 35.5586 13.2312 35.493C13.182 35.3699 14.8145 33.6719 14.9949 33.6719C15.0523 33.6719 15.5117 33.9508 16.0203 34.2871C16.5207 34.6234 17.0047 34.9023 17.0867 34.9023C17.1687 34.9023 17.5707 34.7383 17.9891 34.5414C18.4074 34.3445 18.9652 34.1148 19.2359 34.041C19.5066 33.9672 19.7855 33.8441 19.8594 33.7621C19.9414 33.6883 20.0809 33.1797 20.2121 32.5316C20.327 31.9246 20.4746 31.3996 20.5238 31.3586C20.5812 31.3258 21.1309 31.293 21.7379 31.293C22.3449 31.293 22.8945 31.3258 22.952 31.3586Z" fill="#FF77D9"/>
<path d="M20.8517 37.2074C20.6056 37.2484 20.1462 37.3961 19.8263 37.5273C17.6361 38.4461 16.3564 40.7348 16.7665 43.0152C17.0537 44.6148 18.1037 46.0176 19.5228 46.6984C20.3513 47.0922 20.8599 47.207 21.7376 47.207C22.6154 47.207 23.1322 47.0922 23.9443 46.6984C25.2158 46.0914 26.2576 44.8199 26.6185 43.4336C26.9056 42.3508 26.7498 40.8906 26.2494 39.9062C25.6423 38.7168 24.4365 37.716 23.1322 37.3305C22.5744 37.1664 21.4341 37.1008 20.8517 37.2074ZM22.8861 38.159C23.608 38.3559 24.1248 38.6676 24.6908 39.2418C25.5603 40.1195 25.9212 40.9973 25.9212 42.2031C25.9212 44.902 23.329 46.9281 20.7205 46.2555C19.2357 45.8699 18.0626 44.7133 17.6689 43.2285C17.6033 42.9988 17.554 42.5148 17.554 42.1539C17.554 39.3895 20.1873 37.4125 22.8861 38.159Z" fill="#FF77D9"/>
</svg>
