<svg width="65" height="59" viewBox="0 0 65 59" fill="none" xmlns="http://www.w3.org/2000/svg">
<rect x="6" width="59" height="59" rx="29.5" fill="#9748E7" fill-opacity="0.12"/>
<path d="M28.531 13.1041C28.4541 13.1639 28.0779 14.0019 27.6931 14.9681C27.3083 15.9343 26.9834 16.7295 26.9748 16.7466C26.9577 16.7552 26.7269 16.6355 26.4532 16.473C24.8543 15.5068 22.8706 16.131 22.0668 17.8582C21.8787 18.2601 21.8359 18.4653 21.8359 19.0724C21.8359 19.7308 21.8616 19.859 22.1181 20.3721C22.5542 21.2613 23.3579 21.877 24.2985 22.0565C24.5294 22.0993 24.726 22.1506 24.7602 22.1762C24.7859 22.2019 24.4952 23.0142 24.1104 23.9719C23.7256 24.9295 23.4178 25.776 23.4178 25.8444C23.4178 25.9214 23.4862 26.0582 23.5717 26.1522C23.7598 26.3746 28.1463 28.136 28.5139 28.136C28.9244 28.136 29.1039 27.888 29.0184 27.4348C28.7876 26.2292 29.0697 25.4768 29.9162 25.0321C31.1048 24.4079 32.49 25.1347 32.6268 26.443C32.7037 27.2382 32.3617 27.888 31.6092 28.3583C31.4297 28.4695 31.2672 28.6576 31.233 28.7773C31.1219 29.2305 31.31 29.3502 33.8495 30.3506C35.2432 30.9064 36.3206 31.2826 36.4147 31.2569C36.4916 31.2313 36.6199 31.1458 36.6968 31.0603C36.9192 30.8123 41.3056 19.6624 41.3484 19.2348C41.4253 18.5508 41.0747 17.8667 40.5104 17.5675C39.9204 17.2682 29.0612 13.0015 28.8731 13.0015C28.7619 13.0015 28.5994 13.0528 28.531 13.1041ZM34.6019 16.473C37.5006 17.6273 39.9461 18.6277 40.023 18.7047C40.1085 18.7817 40.1769 18.9356 40.1769 19.0553C40.1769 19.3631 35.9957 29.8461 35.876 29.8461C35.7905 29.8461 33.1826 28.8371 33.097 28.7773C33.0799 28.7602 33.1911 28.5635 33.3365 28.3412C34.0291 27.2467 33.9949 25.9299 33.251 24.8526C32.9175 24.3566 32.1394 23.835 31.5323 23.6897C30.9594 23.5529 30.0616 23.6213 29.5486 23.8521C28.6935 24.2284 27.9581 25.1604 27.7786 26.1009C27.7273 26.3404 27.676 26.5541 27.6589 26.5712C27.6418 26.5883 26.9919 26.3489 26.2138 26.0411L24.7944 25.4682L24.9569 25.0749C26.4789 21.2271 26.4276 21.381 26.325 21.116C26.1882 20.7996 25.9231 20.7312 25.3246 20.868C24.7004 21.0048 24.1531 20.868 23.6743 20.4576C22.9903 19.8761 22.8193 19.0638 23.1955 18.2515C23.8197 16.9176 25.6495 16.8321 26.4618 18.0976C26.8124 18.6363 27.0774 18.756 27.4109 18.4995C27.5819 18.3798 27.8299 17.8496 28.4113 16.3533C28.8389 15.2674 29.2151 14.3696 29.2578 14.3696C29.292 14.3696 31.6948 15.3187 34.6019 16.473Z" fill="#9748E7"/>
<path d="M1.35695 19.3531C0.91232 19.4984 0.219724 20.2252 0.091465 20.6955C0.00595923 20.9948 -0.0111419 24.5946 0.00595923 36.8646L0.031611 52.649L0.288128 53.068C0.450589 53.3245 0.707106 53.581 0.963624 53.7435L1.3826 54H17.3893H33.396L33.8149 53.7435C34.0715 53.581 34.328 53.3245 34.4904 53.068L34.7469 52.649L34.7726 44.5089C34.7897 36.5226 34.7897 36.3687 34.6272 36.2234C34.4733 36.078 34.2339 36.0694 31.8483 36.078C30.4033 36.0865 29.2318 36.078 29.2318 36.0609C29.2318 36.0352 29.2917 35.8642 29.3515 35.6676C30.2322 33.1879 28.1203 30.4859 25.5038 30.7253C22.9643 30.9647 21.4081 33.5299 22.3486 35.9412C22.4085 36.078 22.2802 36.0865 20.2024 36.0694L17.9878 36.0438L17.9707 33.1366C17.9451 30.2893 17.9451 30.2294 17.7655 30.0755C17.4919 29.8532 17.2952 29.8959 16.7309 30.2722C16.0981 30.6911 15.6621 30.8194 14.9951 30.7595C14.0888 30.6911 13.3278 30.1695 12.8917 29.3316C12.6181 28.8015 12.6095 27.7583 12.8746 27.1854C13.5757 25.6463 15.474 25.2359 16.8762 26.3047C17.2268 26.5698 17.5346 26.5954 17.7741 26.3816C17.9365 26.2363 17.9451 26.0995 17.9451 22.9016C17.9451 19.6951 17.9365 19.5754 17.7741 19.4129C17.603 19.2419 17.4919 19.2419 9.63391 19.2505C4.07603 19.259 1.56216 19.2847 1.35695 19.3531ZM16.8335 22.6194C16.8335 23.8165 16.7993 24.7998 16.7565 24.7998C16.7138 24.7998 16.5342 24.7485 16.3547 24.6801C14.6702 24.0986 12.6181 24.9793 11.84 26.6211C10.5146 29.4342 13.0627 32.6065 16.0639 31.8626C16.3205 31.8027 16.6026 31.7172 16.6881 31.683C16.8249 31.6231 16.8335 31.7429 16.8164 33.8292L16.7907 36.0438L13.9006 36.0523C11.2671 36.0694 10.9934 36.078 10.8395 36.2148C10.6087 36.4286 10.6343 36.8219 10.8908 37.1297C11.4808 37.8309 11.686 38.8313 11.4124 39.6607C11.1046 40.5756 10.1726 41.2853 9.17218 41.3708C7.91524 41.4649 6.84642 40.6868 6.5215 39.4213C6.31628 38.6175 6.5215 37.7796 7.08584 37.1468C7.22265 36.9844 7.34235 36.7535 7.34235 36.6423C7.34235 36.42 7.07729 36.0865 6.89772 36.078C6.83787 36.078 5.52963 36.078 3.99053 36.0865L1.18594 36.0951V28.562C1.18594 23.5771 1.21159 20.9691 1.27144 20.8665C1.50231 20.439 1.28855 20.4475 9.33464 20.439H16.8335V22.6194ZM26.8975 32.1618C28.3768 32.8801 28.8129 34.7356 27.8124 36.0523C27.4619 36.5141 27.4191 36.7962 27.6756 37.0442C27.8381 37.2152 27.9407 37.2152 30.7196 37.2067L33.5926 37.1896V44.7483C33.5926 52.2386 33.5926 52.3155 33.4216 52.5293C33.319 52.6576 33.0967 52.7944 32.9257 52.8457C32.7205 52.897 30.0527 52.9312 25.3242 52.9312H18.0306V50.708C18.0306 49.4853 18.0477 48.4849 18.0648 48.4849C18.0819 48.4849 18.2529 48.5362 18.441 48.6046C19.031 48.8184 19.6552 48.8526 20.3221 48.7072C22.7163 48.2027 23.9989 45.6632 22.9557 43.4742C22.1434 41.7556 20.1426 40.892 18.3897 41.5076L18.0306 41.6359V39.4213V37.1981H20.9121C23.4687 37.1981 23.8022 37.181 23.9476 37.0528C24.187 36.839 24.1357 36.4799 23.8022 36.0438C23.1011 35.1203 23.084 33.8719 23.7509 32.957C24.4692 31.9908 25.8287 31.6402 26.8975 32.1618ZM5.54673 37.2494C5.54673 37.2751 5.48688 37.5145 5.40992 37.771C5.30732 38.113 5.28166 38.4807 5.30732 39.0365C5.33297 39.7376 5.37572 39.9001 5.65789 40.473C7.05163 43.2861 11.0106 43.2434 12.3615 40.4046C12.8147 39.4469 12.8404 38.3011 12.4299 37.3435C12.3701 37.2067 12.4898 37.1981 14.5761 37.2152L16.7907 37.2409L16.8164 40.1395C16.8335 42.6961 16.8506 43.0638 16.9789 43.2006C17.1926 43.44 17.5517 43.3887 17.9793 43.0638C19.6466 41.7983 21.9724 42.8244 22.1092 44.8936C22.2289 46.6209 20.5872 47.9889 18.954 47.5101C18.6975 47.4417 18.3555 47.2792 18.193 47.1681C18.0306 47.0484 17.8168 46.8859 17.7142 46.809C17.4748 46.638 17.0387 46.7149 16.919 46.9543C16.8591 47.0569 16.8164 48.2284 16.8078 50.0069L16.7907 52.8884L9.60826 52.9141C5.65789 52.9312 2.25476 52.9141 2.04955 52.8884C1.79303 52.8457 1.58782 52.7516 1.42535 52.5892L1.18594 52.3497V44.7739V37.1981H3.36634C4.56342 37.1981 5.54673 37.2238 5.54673 37.2494Z" fill="#9748E7"/>
</svg>
