<svg width="61" height="59" viewBox="0 0 61 59" fill="none" xmlns="http://www.w3.org/2000/svg">
<rect x="2" width="59" height="59" rx="29.5" fill="#E6E6FC"/>
<path d="M8.45215 17.1721C4.27207 19.4623 0.772656 21.4082 0.68457 21.4963C0.524414 21.6484 0.524414 21.7605 0.524414 27.9586C0.524414 34.7572 0.532422 34.9414 0.964844 37.1035C2.2541 43.5418 6.44219 49.1713 12.2559 52.2623C13.3209 52.8309 15.9875 54 16.2117 54C16.476 53.992 19.9514 52.4625 20.9363 51.91C22.9703 50.7729 24.4838 49.6117 26.1094 47.9461C29.4807 44.4947 31.5227 40.3227 32.2434 35.4219C32.3635 34.6291 32.3875 33.5961 32.4115 28.1188L32.4436 21.7445L32.2193 21.5043C31.9391 21.208 16.532 13 16.2518 13C16.1477 13 12.6402 14.8738 8.45215 17.1721ZM23.627 18.5574L30.874 22.4252V28.343C30.866 34.0766 30.866 34.2928 30.6898 35.4139C29.9932 39.8422 28.1354 43.6379 25.1564 46.7289C22.9703 48.9951 20.9443 50.3564 17.6131 51.7898L16.2037 52.3984L15.0506 51.8859C12.9926 50.9811 11.7594 50.2924 10.398 49.2754C6.19395 46.1443 3.2791 41.4518 2.37422 36.3828C2.06992 34.6531 2.0459 34.1326 2.0459 28.2309V22.4332L9.09277 18.5654C12.9686 16.4354 16.1957 14.6896 16.2598 14.6896C16.3238 14.6896 19.6391 16.4273 23.627 18.5574Z" fill="#8A8AFF"/>
<path d="M22.4098 29.6803C21.9533 30.0486 19.9193 31.7063 17.8773 33.3639L14.1697 36.3828L12.4801 34.4049C10.4541 32.0186 10.4221 31.9785 10.0457 31.9785C9.66133 31.9785 9.46113 32.0986 9.325 32.427C9.22891 32.6592 9.22891 32.7393 9.325 32.9555C9.46914 33.3078 13.4891 37.9924 13.7613 38.1365C13.9055 38.2166 14.0416 38.2246 14.2338 38.1766C14.5061 38.1045 24.0514 30.385 24.1955 30.1287C24.4437 29.6563 24.0514 29.0156 23.5148 29.0156C23.2746 29.0156 23.0904 29.1277 22.4098 29.6803Z" fill="#8A8AFF"/>
</svg>
