<svg width="65" height="59" viewBox="0 0 65 59" fill="none" xmlns="http://www.w3.org/2000/svg">
<rect x="6" width="59" height="59" rx="29.5" fill="#EEF9FF"/>
<path d="M4.08218 13.1397C2.12273 13.5569 0.444504 15.2715 0.0997866 17.2037C0.0272145 17.5756 0 22.7192 0 33.5324C0 46.7315 0.0272145 49.4257 0.127001 49.9246C0.453575 51.4305 1.53308 52.8003 2.92103 53.4444C3.33832 53.6439 3.91889 53.8435 4.20918 53.8979C4.97119 54.034 41.4749 54.034 42.2369 53.8979C44.1964 53.5442 45.9018 51.8841 46.3191 49.9246C46.4189 49.4257 46.4461 46.7315 46.4461 33.5324C46.4461 22.7192 46.4189 17.5756 46.3463 17.2037C46.0833 15.7522 44.9584 14.2464 43.6249 13.5932C42.3277 12.9582 43.6793 12.9945 23.1777 13.0036C7.66542 13.0036 4.57204 13.0308 4.08218 13.1397ZM41.9104 14.6274C43.0897 14.8542 44.0512 15.598 44.5683 16.6957L44.8586 17.3035L44.8858 20.542L44.913 23.7896H23.2231H1.53308L1.5603 20.542L1.58751 17.3035L1.8778 16.6957C2.37674 15.6343 3.35646 14.8542 4.46318 14.6365C5.03469 14.5185 41.3207 14.5185 41.9104 14.6274ZM44.904 37.288C44.904 50.4871 44.9312 49.8158 44.3325 50.7592C43.9333 51.3761 43.4616 51.7843 42.7268 52.129L42.1372 52.4102H23.2231H4.30897L3.71932 52.129C2.98453 51.7843 2.51281 51.3761 2.11366 50.7592C1.51494 49.8158 1.54216 50.4871 1.54216 37.288V25.3318H23.2231H44.904V37.288Z" fill="#24ABF5"/>
<path d="M5.17949 16.8136C3.65548 17.1039 2.81183 18.7912 3.48312 20.2064C4.19977 21.7213 6.20457 22.0479 7.3748 20.8414C7.7558 20.4513 8.0733 19.6802 8.0733 19.1632C8.0733 18.5735 7.7558 17.8659 7.29315 17.4396C6.66722 16.859 5.98686 16.6594 5.17949 16.8136ZM6.28622 18.6279C6.54929 18.9092 6.59465 19.1994 6.43136 19.5623C6.29529 19.8617 5.78728 20.0975 5.45164 20.025C4.68056 19.8526 4.54449 18.7731 5.25206 18.4193C5.65121 18.2197 5.95964 18.2832 6.28622 18.6279Z" fill="#24ABF5"/>
<path d="M12.1555 16.9951C11.2575 17.3942 10.7041 18.2469 10.7041 19.2085C10.7132 21.3494 13.2804 22.4017 14.7954 20.8867C16.3103 19.3718 15.2489 16.8046 13.1081 16.8046C12.7543 16.8046 12.4186 16.8771 12.1555 16.9951ZM13.734 18.6279C14.0606 19.018 14.0515 19.4534 13.7068 19.8072C13.5072 19.9977 13.353 20.0703 13.1081 20.0703C12.3551 20.0703 11.956 19.1178 12.4821 18.5826C12.845 18.2288 13.4165 18.2469 13.734 18.6279Z" fill="#24ABF5"/>
<path d="M19.6941 16.9587C19.4583 17.0404 19.1045 17.2853 18.8686 17.5212C17.3537 19.0361 18.406 21.6034 20.5469 21.6124C21.8894 21.6124 22.9508 20.5511 22.9508 19.2085C22.9508 17.5302 21.2907 16.3963 19.6941 16.9587ZM21.1456 18.6098C21.4994 18.9726 21.5175 19.4897 21.1728 19.8344C20.6376 20.3606 19.6851 19.9614 19.6851 19.2085C19.6851 18.7458 20.0842 18.3467 20.5469 18.3467C20.7918 18.3467 20.946 18.4193 21.1456 18.6098Z" fill="#24ABF5"/>
<path d="M24.0848 29.9763C23.8671 30.1759 23.7491 30.6658 22.2614 37.7325C20.819 44.5815 20.683 45.3072 20.7918 45.534C21.0458 46.0601 21.7171 46.1236 22.0527 45.6428C22.1616 45.5067 22.7513 42.8488 23.7582 38.0681C24.6109 34.0222 25.3094 30.6476 25.3094 30.566C25.3094 30.3029 25.1098 29.9763 24.8831 29.8765C24.5565 29.7314 24.3478 29.7586 24.0848 29.9763Z" fill="#24ABF5"/>
<path d="M17.8705 33.0152C17.3716 33.369 12.7814 37.3332 12.6998 37.4875C12.5274 37.805 12.6 38.1043 12.9084 38.4128C13.3983 38.9026 17.7798 42.6038 18.0247 42.7308C18.2969 42.8759 18.823 42.7308 18.9591 42.4768C19.1224 42.1684 19.0589 41.7692 18.8049 41.488C18.6597 41.3429 17.671 40.4811 16.6005 39.5739C15.5301 38.6577 14.6411 37.8866 14.6229 37.8503C14.6139 37.814 15.521 36.9976 16.6459 36.0451C17.7707 35.0835 18.7777 34.2126 18.8684 34.1038C19.1224 33.8316 19.1043 33.3599 18.823 33.0878C18.56 32.8247 18.188 32.7975 17.8705 33.0152Z" fill="#24ABF5"/>
<path d="M27.623 33.0878C27.3418 33.3599 27.3237 33.8316 27.5777 34.1038C27.6684 34.2126 28.6753 35.0835 29.8002 36.0451C30.9251 36.9976 31.8322 37.814 31.8231 37.8503C31.805 37.8866 30.916 38.6577 29.8455 39.5739C28.7751 40.4811 27.7863 41.3429 27.6502 41.488C27.3872 41.7692 27.3237 42.1684 27.4869 42.4768C27.623 42.7308 28.1492 42.8759 28.4213 42.7308C28.6662 42.6038 33.0478 38.9026 33.5376 38.4128C33.8461 38.1043 33.9186 37.805 33.7463 37.4875C33.6646 37.3332 29.0745 33.369 28.5755 33.0152C28.258 32.7975 27.8861 32.8247 27.623 33.0878Z" fill="#24ABF5"/>
</svg>
