<svg width="65" height="59" viewBox="0 0 65 59" fill="none" xmlns="http://www.w3.org/2000/svg">
<rect x="6" width="59" height="59" rx="29.5" fill="#FFF0C6"/>
<path d="M18.1773 13.0881C15.0782 13.4325 11.8111 14.6416 9.17648 16.3953C7.87121 17.2682 7.11847 17.8848 6.00539 19.0059C2.53 22.4733 0.520036 26.8295 0.071598 31.8264C-0.200668 34.8694 0.335856 38.3528 1.49699 41.1875C2.58605 43.8381 3.93937 45.8561 6.04543 47.9541C7.90324 49.82 9.36867 50.861 11.6429 51.966C15.7349 53.936 20.1552 54.4725 24.7277 53.5516C27.8747 52.919 31.3501 51.2293 33.7364 49.1793C34.2089 48.7629 34.329 48.5387 34.2329 48.2184C34.1689 48.0022 26.0089 39.7862 25.6886 39.618C25.3603 39.4418 25.2402 39.4739 24.5435 39.8983C23.2622 40.683 22.029 41.0354 20.5316 41.0434C18.4415 41.0514 16.6478 40.3067 15.1663 38.8332C13.6689 37.3358 12.9482 35.542 12.9562 33.3799C12.9642 31.7143 13.4767 30.2088 14.4857 28.8715C15.6388 27.35 17.0081 26.5172 19.2743 25.9727C19.8909 25.8205 19.8589 26.1809 19.8589 19.4463V13.4645L19.6267 13.2323C19.3704 12.976 19.2663 12.968 18.1773 13.0881ZM18.4976 19.5985V24.7555L17.8409 24.9637C14.6218 26.0047 12.2995 28.6793 11.723 32.0106C11.6269 32.5391 11.6028 33.0356 11.6349 33.8203C11.6829 35.2057 11.9232 36.1746 12.5237 37.3838C13.4527 39.2577 14.7499 40.5549 16.6157 41.4758C17.8249 42.0684 18.8019 42.3086 20.1792 42.3647C21.8368 42.4287 23.0861 42.1645 24.5595 41.4278L25.2962 41.0594L28.9478 44.711L32.5993 48.3625L32.255 48.6508C30.9577 49.7159 28.5234 51.0131 26.6896 51.6217C24.3353 52.4065 23.1181 52.5987 20.4995 52.5987C17.913 52.5987 16.3995 52.3504 14.1734 51.5817C8.84816 49.7399 4.35578 45.2955 2.48996 40.0264C1.73722 37.9043 1.44894 36.3108 1.38488 34.0205C1.28078 30.2008 2.17765 26.7334 4.0675 23.6264C6.62199 19.4223 10.6419 16.3473 15.2945 15.026C16.1353 14.7858 17.7929 14.4575 18.2013 14.4494L18.4976 14.4414V19.5985Z" fill="#FDBE0C"/>
<path d="M21.4287 13.1842L21.2205 13.3924V19.5104C21.2205 26.5893 21.1003 25.7965 22.2374 26.0848C23.7509 26.4771 24.824 27.0777 25.865 28.1268C26.93 29.1998 27.4986 30.2088 27.899 31.7543C28.0351 32.2588 28.1472 32.5391 28.2673 32.6352C28.4355 32.7713 28.8279 32.7793 34.4894 32.7793H40.5353L40.7675 32.5471C41.0398 32.2748 41.0398 32.2508 40.8796 30.9375C40.4392 27.358 39.1099 24.0828 36.9478 21.2C36.5874 20.7115 36.091 20.1029 35.8587 19.8547C35.4904 19.4783 35.3863 19.4063 35.146 19.4063C34.7777 19.4063 34.5134 19.6705 34.5134 20.0549C34.5134 20.2871 34.6175 20.4553 35.1621 21.0879C37.3722 23.6664 38.8376 26.8215 39.4382 30.2969C39.5023 30.6732 39.5583 31.0736 39.5583 31.2018V31.418L34.3933 31.402L29.2203 31.3779L28.988 30.6813C28.5156 29.2799 27.8509 28.1988 26.8259 27.1738C25.7769 26.1248 24.5837 25.4041 23.1984 24.9717L22.5017 24.7555V19.5984V14.4414H22.766C22.9021 14.4414 23.3505 14.4975 23.7429 14.5695C26.3214 15.01 28.7878 15.9789 30.982 17.4043C31.5345 17.7566 32.031 18.0449 32.0871 18.0449C32.2712 18.0449 32.6476 17.8207 32.7037 17.6846C32.7757 17.4924 32.7597 17.1721 32.6716 17.0119C32.4874 16.6596 29.997 15.1861 28.5876 14.5936C26.6337 13.7768 24.3035 13.2002 22.3255 13.04C21.6529 12.984 21.6288 12.992 21.4287 13.1842Z" fill="#FDBE0C"/>
<path d="M28.2754 34.2768C28.1552 34.3809 28.0431 34.6611 27.907 35.1977C27.7148 35.9984 27.2824 37.0074 26.842 37.6961C26.3695 38.4408 26.0892 38.0805 30.8058 42.8051C33.1281 45.1273 35.13 47.0732 35.2582 47.1213C35.6265 47.2734 35.8508 47.1373 36.4593 46.3926C38.9097 43.3977 40.4873 39.618 40.9117 35.7262C41.0318 34.6451 41.0238 34.557 40.7996 34.3408L40.6074 34.1406H34.5295C28.8519 34.1406 28.4355 34.1486 28.2754 34.2768ZM39.5263 35.9824C39.2701 38.7852 37.8447 42.3086 35.9468 44.8791L35.4584 45.5357L31.7908 41.8682L28.1232 38.2006L28.4756 37.4879C28.6758 37.0955 28.932 36.4709 29.0521 36.1025L29.2603 35.4219H34.4254H39.5824L39.5263 35.9824Z" fill="#FDBE0C"/>
</svg>
