<svg width="66" height="59" viewBox="0 0 66 59" fill="none" xmlns="http://www.w3.org/2000/svg">
<rect x="7" width="59" height="59" rx="29.5" fill="#DFFFF9"/>
<path d="M10.0104 12.9743C8.5911 13.3522 7.48251 14.486 7.10458 15.9221C7.0038 16.3 6.9786 16.9803 6.9786 19.0715V21.7422H4.8538C2.30067 21.7422 2.04872 21.7926 1.42723 22.4141C0.74696 23.0944 0.755358 23.0524 0.780553 28.0495C0.805749 32.887 0.780553 32.677 1.43563 33.3321C2.04032 33.9368 2.1327 33.962 4.69422 33.9871L6.9786 34.0123V42.3016C6.9786 51.3215 6.9618 51.036 7.44891 51.9934C7.75126 52.5897 8.48192 53.3287 9.06981 53.6479C10.0692 54.177 9.78368 54.1602 18.1065 54.1518C24.9681 54.1518 25.7155 54.135 26.2194 54.009C27.9579 53.5471 29.2345 51.8842 29.2345 50.0618V49.6586L29.9735 49.8098C30.8638 49.9946 31.6196 50.003 32.4511 49.8434C33.3833 49.6586 35.8272 48.8944 36.4991 48.5668C38.1788 47.7606 39.4722 46.2153 39.9845 44.418C40.228 43.5614 40.2952 42.2092 40.1272 41.4198C39.9425 40.5799 37.8429 33.7352 37.6413 33.3573C36.9526 32.0219 35.0378 31.7364 33.9712 32.8114L33.7108 33.0717L33.3917 32.7442C32.955 32.2907 32.3671 32.0555 31.7036 32.0639C30.8638 32.0723 30.1667 32.4502 29.772 33.1305C29.5872 33.4496 29.5368 33.4832 29.394 33.4161C29.2345 33.3321 29.2345 33.1053 29.2261 24.8664C29.2261 17.1483 29.2093 16.3588 29.0833 15.8549C28.7054 14.402 27.4204 13.201 25.9675 12.9239C25.6819 12.8735 22.7845 12.8399 17.989 12.8483C11.6985 12.8483 10.3884 12.8735 10.0104 12.9743ZM26.3958 14.1164C27.0593 14.4272 27.5884 14.9395 27.9075 15.5946C28.1595 16.0985 28.1763 16.2161 28.2098 17.1735L28.2434 18.2149H18.1065H7.96962L8.00321 17.1819C8.0284 16.2748 8.062 16.0985 8.26356 15.6534C8.64989 14.8219 9.30497 14.2508 10.212 13.9653C10.4807 13.8813 12.1772 13.8561 18.2325 13.8729L25.9171 13.8897L26.3958 14.1164ZM28.2266 26.143V33.0633L27.8067 33.1557C27.3112 33.2649 27.0005 33.4077 26.6393 33.7184C26.4462 33.878 26.3706 33.9032 26.337 33.8192C26.3118 33.7604 25.8247 32.1731 25.2536 30.2918C24.6741 28.4106 24.145 26.7393 24.0694 26.5797C23.3723 25.1184 21.2895 24.8664 20.2229 26.1178C19.8702 26.5293 19.6602 27.0836 19.6602 27.6127C19.6602 28.0662 21.869 35.3897 22.0706 35.6164C22.1462 35.7004 22.2973 35.7676 22.4065 35.7676C22.5997 35.7676 22.9356 35.5073 22.9356 35.3477C22.9356 35.2973 22.4233 33.5924 21.8018 31.56C21.1804 29.5192 20.6681 27.7471 20.6681 27.6127C20.6681 26.9829 21.172 26.4202 21.8186 26.311C22.2722 26.2438 22.86 26.5125 23.0868 26.8905C23.1792 27.0416 24.145 30.1071 25.2452 33.71C26.3454 37.3129 27.3028 40.328 27.37 40.4036C27.6136 40.6891 28.2266 40.4959 28.2266 40.1432C28.2266 40.0676 27.9243 39.001 27.5464 37.7748C26.8073 35.3813 26.7905 35.2553 27.1348 34.6926C27.3196 34.3987 27.8739 34.0879 28.2266 34.0879C28.5458 34.0879 29.1169 34.3819 29.2848 34.6254C29.3604 34.7514 29.7384 35.8516 30.1163 37.0778C30.5026 38.3123 30.8638 39.3454 30.9225 39.3873C31.1577 39.5301 31.4936 39.4713 31.6364 39.253C31.7708 39.0514 31.7456 38.959 31.0905 36.8174C30.7126 35.5996 30.4102 34.4827 30.4102 34.3399C30.4102 33.962 30.6958 33.458 31.0233 33.2565C31.3593 33.0465 31.9807 33.0213 32.3251 33.1977C32.8038 33.4496 32.9046 33.668 33.61 35.9692C34.1643 37.758 34.3491 38.2452 34.5003 38.3459C34.727 38.4971 34.9874 38.4299 35.1554 38.1696C35.2729 37.9932 35.2393 37.8504 34.7774 36.3135C34.5003 35.4065 34.2735 34.533 34.2735 34.3903C34.2735 34.2475 34.3575 33.9787 34.4667 33.8024C34.9034 33.0381 35.9868 32.9373 36.5999 33.6008C36.7259 33.7352 37.129 34.9194 37.9268 37.4977C38.5483 39.5385 39.1026 41.403 39.1446 41.6465C39.4638 43.3514 38.8591 45.283 37.6077 46.5428C37.2718 46.8704 36.7763 47.2735 36.5075 47.433C35.6425 47.9454 32.6778 48.8524 31.628 48.928C29.4276 49.0875 27.202 47.7942 26.2614 45.8037C26.1018 45.4762 25.514 43.7041 24.9513 41.8565C24.3886 40.0088 23.8931 38.4299 23.8511 38.3543C23.6663 38.01 23.07 38.1024 22.9692 38.4887C22.944 38.6063 23.0784 39.169 23.3052 39.9164C23.5151 40.5967 23.6915 41.1846 23.6915 41.2182C23.6915 41.2518 23.3388 41.2854 22.9188 41.2854C22.3057 41.2854 22.0286 41.3274 21.6507 41.4702C21.0292 41.7137 20.3657 42.2512 20.0466 42.7635C19.845 43.0995 19.8198 43.1918 19.8954 43.3598C19.9458 43.4774 20.5505 43.9141 21.4155 44.46C22.205 44.9555 22.8516 45.3754 22.8516 45.3922C22.8516 45.409 19.5091 45.4258 15.419 45.4258H7.98641V39.7149V34.0039H8.32235C8.64149 34.0039 8.65829 34.0123 8.65829 34.2727C8.65829 34.7766 8.90184 35.7172 9.17899 36.2715C9.6577 37.2625 10.9847 38.3627 11.8665 38.5055C12.0848 38.5475 12.1856 38.5139 12.3032 38.3795C12.4544 38.2116 12.4628 38.1528 12.3704 37.5481C12.152 36.1539 12.2948 35.0454 12.7483 34.4995C13.1011 34.0795 13.395 34.0039 14.6044 34.0039C15.9985 34.0039 16.4268 33.8864 16.9727 33.3321C17.6446 32.6686 17.6446 32.6938 17.6446 27.8731C17.6446 23.0524 17.6446 23.0776 16.9727 22.4141C16.3848 21.8178 16.0489 21.7422 14.1005 21.7422C12.6307 21.7422 12.5132 21.7506 12.3536 21.9102C12.152 22.1118 12.1436 22.3217 12.3032 22.5485C12.4124 22.6912 12.5636 22.708 14.1425 22.75C16.8384 22.8172 16.6368 22.4057 16.6368 27.8563C16.6368 32.4418 16.6452 32.383 16.0993 32.7694C15.8641 32.9373 15.713 32.9625 14.4952 32.9961C12.9331 33.0549 12.614 33.1557 12.0513 33.7688C11.5306 34.3315 11.3374 34.9362 11.2786 36.1204C11.2618 36.6662 11.2114 37.1114 11.1778 37.1114C11.1442 37.1114 10.9259 36.9014 10.6823 36.6495C10.002 35.9356 9.6661 35.037 9.6661 33.9536C9.6661 33.6092 9.62411 33.458 9.46454 33.2733L9.26297 33.0381L5.912 32.9961C2.61981 32.9541 2.56942 32.9541 2.30907 32.7694C1.76317 32.383 1.77157 32.4418 1.77157 27.8731C1.77157 23.3043 1.76317 23.3631 2.30907 22.9768C2.56942 22.792 2.61981 22.792 5.99598 22.75C9.27137 22.708 9.43094 22.6996 9.54852 22.5485C9.70809 22.3217 9.69969 22.1118 9.49813 21.9102C9.35536 21.7674 9.22098 21.7422 8.65829 21.7422H7.98641V20.4825V19.2227H18.1065H28.2266V26.143ZM23.8007 42.4696L24.1366 42.6123L24.5733 44.0401C24.8169 44.8295 25.0016 45.4762 24.9932 45.493C24.9681 45.5182 21.2727 43.1918 21.1468 43.0743C21.0376 42.9735 21.6339 42.562 22.121 42.3856C22.6249 42.2092 23.2716 42.2344 23.8007 42.4696ZM25.2284 46.8704C25.6063 47.1055 26.1858 47.5674 26.505 47.895C26.8325 48.2309 27.3532 48.6676 27.6723 48.8692L28.2434 49.2387L28.2098 50.0618C28.1763 50.7588 28.1343 50.952 27.9075 51.4139C27.5884 52.0606 27.0509 52.5813 26.3958 52.8836L25.9171 53.1104H18.1065H10.296L9.79208 52.8752C9.137 52.5729 8.5659 52.0018 8.26356 51.3551L8.0284 50.8428L8.00321 48.634L7.97801 46.4336H16.2589H24.5313L25.2284 46.8704Z" fill="#14BEA0"/>
<path d="M9.24609 16.1152C9.15371 16.2076 9.07812 16.3588 9.07812 16.4512C9.07812 16.6947 9.38047 16.9551 9.66602 16.9551C9.95156 16.9551 10.2539 16.6947 10.2539 16.4512C10.2539 16.2076 9.95156 15.9473 9.66602 15.9473C9.52324 15.9473 9.33848 16.0229 9.24609 16.1152Z" fill="#14BEA0"/>
<path d="M11.0938 16.1152C11.0014 16.2076 10.9258 16.3588 10.9258 16.4512C10.9258 16.5436 11.0014 16.6947 11.0938 16.7871C11.2533 16.9467 11.3709 16.9551 15.293 16.9551C19.215 16.9551 19.3326 16.9467 19.4922 16.7871C19.5846 16.6947 19.6602 16.5436 19.6602 16.4512C19.6602 16.3588 19.5846 16.2076 19.4922 16.1152C19.3326 15.9557 19.215 15.9473 15.293 15.9473C11.3709 15.9473 11.2533 15.9557 11.0938 16.1152Z" fill="#14BEA0"/>
<path d="M3.51042 25.5047C3.32566 25.7062 3.33406 26.0506 3.51882 26.2186C3.6532 26.3445 3.93874 26.3613 5.778 26.3613C7.70124 26.3613 7.88601 26.3529 8.01199 26.2102C8.19675 26.0086 8.18835 25.6643 8.00359 25.4963C7.86921 25.3703 7.58367 25.3535 5.74441 25.3535C3.82117 25.3535 3.6364 25.3619 3.51042 25.5047Z" fill="#14BEA0"/>
<path d="M9.45586 25.4711C9.36348 25.5383 9.30469 25.6895 9.30469 25.8574C9.30469 26.3529 9.33828 26.3613 12.1854 26.3613C14.5789 26.3613 14.7721 26.3529 14.898 26.2102C15.0828 26.0086 15.0744 25.6643 14.8896 25.4963C14.7553 25.3703 14.4361 25.3535 12.177 25.3535C10.1529 25.3535 9.58184 25.3787 9.45586 25.4711Z" fill="#14BEA0"/>
<path d="M3.51042 27.6883C3.32566 27.8898 3.33406 28.2342 3.51882 28.4021C3.6616 28.5281 4.07312 28.5449 7.65925 28.5449C12.0516 28.5449 12.018 28.5449 12.018 28.041C12.018 27.5287 12.0516 27.5371 7.64245 27.5371C3.87995 27.5371 3.6364 27.5455 3.51042 27.6883Z" fill="#14BEA0"/>
<path d="M13.2773 27.7051C13.185 27.7975 13.1094 27.9486 13.1094 28.041C13.1094 28.4021 13.3949 28.5449 14.1004 28.5449C14.8311 28.5449 15.041 28.4273 15.041 28.0242C15.041 27.6547 14.8059 27.5371 14.092 27.5371C13.5545 27.5371 13.4201 27.5623 13.2773 27.7051Z" fill="#14BEA0"/>
<path d="M3.51042 29.8719C3.32566 30.0734 3.33406 30.4178 3.51882 30.5857C3.6532 30.7117 3.94714 30.7285 5.94597 30.7285C8.03718 30.7285 8.22195 30.7201 8.34792 30.5773C8.53269 30.3758 8.52429 30.0314 8.33953 29.8635C8.20515 29.7375 7.9112 29.7207 5.91238 29.7207C3.82117 29.7207 3.6364 29.7291 3.51042 29.8719Z" fill="#14BEA0"/>
<path d="M9.80925 29.8719C9.62449 30.0734 9.63288 30.4178 9.81765 30.5857C9.95202 30.7117 10.2544 30.7285 12.3708 30.7285C14.5796 30.7285 14.7727 30.7201 14.8987 30.5773C15.0835 30.3758 15.0751 30.0314 14.8903 29.8635C14.7559 29.7375 14.4536 29.7207 12.3372 29.7207C10.1284 29.7207 9.93523 29.7291 9.80925 29.8719Z" fill="#14BEA0"/>
<path d="M17.7702 48.2729C16.6448 48.55 16.3508 50.0618 17.2831 50.7504C17.5602 50.952 18.3077 51.0276 18.652 50.8848C18.9879 50.7504 19.2987 50.3725 19.4163 49.961C19.7018 49.012 18.7444 48.0377 17.7702 48.2729ZM18.3245 49.3647C18.5008 49.4991 18.5092 49.5495 18.4168 49.7426C18.3413 49.9022 18.2573 49.961 18.0725 49.961C17.7198 49.961 17.577 49.4739 17.8793 49.2975C18.0725 49.1799 18.0977 49.1799 18.3245 49.3647Z" fill="#14BEA0"/>
</svg>
