<svg width="114" height="24" viewBox="0 0 114 24" fill="none" xmlns="http://www.w3.org/2000/svg">
<path d="M11.5245 1.4634C11.6741 1.00275 12.3259 1.00275 12.4755 1.4634L14.5819 7.94618C14.6488 8.15219 14.8408 8.29167 15.0574 8.29167H21.8738C22.3582 8.29167 22.5596 8.91148 22.1677 9.19618L16.6531 13.2028C16.4779 13.3301 16.4046 13.5558 16.4715 13.7618L18.5779 20.2446C18.7276 20.7052 18.2003 21.0883 17.8085 20.8036L12.2939 16.797C12.1186 16.6697 11.8814 16.6697 11.7061 16.797L6.19153 20.8036C5.79967 21.0883 5.27243 20.7052 5.42211 20.2446L7.52849 13.7618C7.59543 13.5558 7.5221 13.3301 7.34685 13.2028L1.83227 9.19618C1.44041 8.91148 1.6418 8.29167 2.12616 8.29167H8.94256C9.15917 8.29167 9.35115 8.15219 9.41809 7.94618L11.5245 1.4634Z" fill="#EFA30F"/>
<path d="M34.5245 1.4634C34.6741 1.00275 35.3259 1.00275 35.4755 1.4634L37.5819 7.94618C37.6488 8.15219 37.8408 8.29167 38.0574 8.29167H44.8738C45.3582 8.29167 45.5596 8.91148 45.1677 9.19618L39.6531 13.2028C39.4779 13.3301 39.4046 13.5558 39.4715 13.7618L41.5779 20.2446C41.7276 20.7052 41.2003 21.0883 40.8085 20.8036L35.2939 16.797C35.1186 16.6697 34.8814 16.6697 34.7061 16.797L29.1915 20.8036C28.7997 21.0883 28.2724 20.7052 28.4221 20.2446L30.5285 13.7618C30.5954 13.5558 30.5221 13.3301 30.3469 13.2028L24.8323 9.19618C24.4404 8.91148 24.6418 8.29167 25.1262 8.29167H31.9426C32.1592 8.29167 32.3512 8.15219 32.4181 7.94618L34.5245 1.4634Z" fill="#EFA30F"/>
<path d="M57.5245 1.4634C57.6741 1.00275 58.3259 1.00275 58.4755 1.4634L60.5819 7.94618C60.6488 8.15219 60.8408 8.29167 61.0574 8.29167H67.8738C68.3582 8.29167 68.5596 8.91148 68.1677 9.19618L62.6531 13.2028C62.4779 13.3301 62.4046 13.5558 62.4715 13.7618L64.5779 20.2446C64.7276 20.7052 64.2003 21.0883 63.8085 20.8036L58.2939 16.797C58.1186 16.6697 57.8814 16.6697 57.7061 16.797L52.1915 20.8036C51.7997 21.0883 51.2724 20.7052 51.4221 20.2446L53.5285 13.7618C53.5954 13.5558 53.5221 13.3301 53.3469 13.2028L47.8323 9.19618C47.4404 8.91148 47.6418 8.29167 48.1262 8.29167H54.9426C55.1592 8.29167 55.3512 8.15219 55.4181 7.94618L57.5245 1.4634Z" fill="#EFA30F"/>
<path d="M79.5245 1.4634C79.6741 1.00275 80.3259 1.00275 80.4755 1.4634L82.5819 7.94618C82.6488 8.15219 82.8408 8.29167 83.0574 8.29167H89.8738C90.3582 8.29167 90.5596 8.91148 90.1677 9.19618L84.6531 13.2028C84.4779 13.3301 84.4046 13.5558 84.4715 13.7618L86.5779 20.2446C86.7276 20.7052 86.2003 21.0883 85.8085 20.8036L80.2939 16.797C80.1186 16.6697 79.8814 16.6697 79.7061 16.797L74.1915 20.8036C73.7997 21.0883 73.2724 20.7052 73.4221 20.2446L75.5285 13.7618C75.5954 13.5558 75.5221 13.3301 75.3469 13.2028L69.8323 9.19618C69.4404 8.91148 69.6418 8.29167 70.1262 8.29167H76.9426C77.1592 8.29167 77.3512 8.15219 77.4181 7.94618L79.5245 1.4634Z" fill="#EFA30F"/>
<path d="M101.524 1.4634C101.674 1.00275 102.326 1.00275 102.476 1.4634L104.582 7.94618C104.649 8.15219 104.841 8.29167 105.057 8.29167H111.874C112.358 8.29167 112.56 8.91148 112.168 9.19618L106.653 13.2028C106.478 13.3301 106.405 13.5558 106.472 13.7618L108.578 20.2446C108.728 20.7052 108.2 21.0883 107.808 20.8036L102.294 16.797C102.119 16.6697 101.881 16.6697 101.706 16.797L96.1915 20.8036C95.7997 21.0883 95.2724 20.7052 95.4221 20.2446L97.5285 13.7618C97.5954 13.5558 97.5221 13.3301 97.3469 13.2028L91.8323 9.19618C91.4404 8.91148 91.6418 8.29167 92.1262 8.29167H98.9426C99.1592 8.29167 99.3512 8.15219 99.4181 7.94618L101.524 1.4634Z" fill="#EFA30F"/>
</svg>
