<svg width="25" height="25" viewBox="0 0 25 25" fill="none" xmlns="http://www.w3.org/2000/svg">
<path d="M12.3307 25C10.8924 25 9.58529 24.5947 8.40949 23.7842C7.23369 22.9737 6.28049 21.9292 5.5499 20.6507L2.12524 22.6027L1.09784 20.8562L4.69373 18.7671C4.57958 18.379 4.47684 17.9909 4.38551 17.6027C4.29419 17.2146 4.2257 16.8265 4.18004 16.4384H0.00195312V14.3836H4.18004C4.2257 13.9954 4.29419 13.6073 4.38551 13.2192C4.47684 12.831 4.57958 12.4429 4.69373 12.0548L1.09784 9.93151L2.12524 8.18493L5.51565 10.1712C5.72113 9.80594 5.94944 9.46918 6.20058 9.16096C6.45173 8.85274 6.71428 8.55023 6.98826 8.25342C6.94259 8.07078 6.90835 7.89384 6.88551 7.7226C6.86268 7.55137 6.85127 7.37443 6.85127 7.19178C6.85127 6.55251 6.97113 5.93037 7.21086 5.32534C7.45058 4.72032 7.78734 4.17808 8.22113 3.69863L5.96086 1.4726L7.39921 0L9.83072 2.39726C10.2188 2.16895 10.6184 1.99772 11.0294 1.88356C11.4403 1.76941 11.8741 1.71233 12.3307 1.71233C12.7873 1.71233 13.2211 1.76941 13.6321 1.88356C14.043 1.99772 14.4426 2.16895 14.8307 2.39726L17.2622 0L18.7006 1.4726L16.4403 3.73288C16.8513 4.21233 17.1766 4.74886 17.4163 5.34247C17.6561 5.93607 17.7759 6.55251 17.7759 7.19178C17.7759 7.37443 17.7702 7.54566 17.7588 7.70548C17.7474 7.8653 17.7188 8.03653 17.6732 8.21918C17.9472 8.51598 18.204 8.81849 18.4437 9.12671C18.6835 9.43493 18.9061 9.77169 19.1115 10.137L22.5362 8.21918L23.5636 9.96575L19.9677 12.0205C20.1047 12.4087 20.2131 12.7968 20.293 13.1849C20.373 13.5731 20.4357 13.9726 20.4814 14.3836H24.6595V16.4384H20.4814C20.4357 16.8265 20.373 17.2203 20.293 17.6199C20.2131 18.0194 20.1047 18.4132 19.9677 18.8014L23.5636 20.8904L22.5362 22.637L19.1115 20.6507C18.3809 21.9292 17.4278 22.9737 16.252 23.7842C15.0762 24.5947 13.7691 25 12.3307 25ZM8.94031 6.71233C9.46542 6.41553 10.0134 6.19292 10.5841 6.04452C11.1549 5.89612 11.7371 5.82192 12.3307 5.82192C12.9243 5.82192 13.5008 5.89612 14.0602 6.04452C14.6195 6.19292 15.1618 6.40411 15.6869 6.67808C15.5499 5.92466 15.1504 5.25114 14.4883 4.65753C13.8262 4.06393 13.107 3.76712 12.3307 3.76712C11.5545 3.76712 10.8296 4.06393 10.1561 4.65753C9.48255 5.25114 9.0773 5.93607 8.94031 6.71233ZM12.3307 22.9452C14.0887 22.9452 15.5556 22.1575 16.7314 20.5822C17.9072 19.0068 18.4951 17.2831 18.4951 15.411C18.4951 13.6986 17.9415 12.0148 16.8341 10.3596C15.7268 8.70434 14.2257 7.87671 12.3307 7.87671C10.4357 7.87671 8.9346 8.70434 7.8273 10.3596C6.71999 12.0148 6.16634 13.6986 6.16634 15.411C6.16634 17.2831 6.75424 19.0068 7.93004 20.5822C9.10584 22.1575 10.5727 22.9452 12.3307 22.9452ZM11.3033 19.5205V11.3014H13.3581V19.5205H11.3033Z" fill="#FF3F33"/>
</svg>
