<svg width="55" height="50" viewBox="0 0 55 50" fill="none" xmlns="http://www.w3.org/2000/svg">
<path d="M16.8559 0.13678C14.9819 0.658535 13.5551 2.02148 12.9694 3.79971C12.7777 4.4173 12.7458 4.83257 12.6926 7.23903L12.65 9.96493L8.58241 10.0075C4.77041 10.0501 4.48291 10.0714 3.82273 10.2844C2.47043 10.7316 1.22461 11.7857 0.61767 12.989C-0.0212129 14.2454 8.31879e-05 13.8941 8.31879e-05 24.9893C8.31879e-05 36.2124 -0.0212129 35.861 0.67091 37.1813C1.09683 37.9799 2.09775 38.9809 2.87506 39.3748C4.02505 39.9498 4.48291 40.0137 7.81575 40.0137H10.8611V44.5604C10.8611 48.6919 10.8824 49.1497 11.0528 49.4905C11.2764 49.9484 11.6703 50.1081 12.1069 49.9271C12.2986 49.8525 14.1833 47.8613 16.8666 44.9118L21.3068 40.0244L29.3142 39.9818C36.9595 39.9498 37.3428 39.9392 37.9071 39.7369C39.7918 39.0554 41.0696 37.7776 41.5701 36.0526C41.6659 35.7226 41.7404 35.286 41.7404 35.0837C41.7404 34.8707 41.783 34.6791 41.8256 34.6471C41.8789 34.6152 42.8904 35.68 44.0937 37.0003C45.2862 38.3207 46.4256 39.5346 46.6172 39.7049C47.0538 40.0989 47.5117 40.1096 47.8631 39.7475L48.1293 39.492V34.7429V30.0046H49.0131C51.6005 30.0046 53.7727 28.3009 54.3584 25.8305C54.6033 24.7977 54.5926 5.15201 54.3477 4.20433C53.8686 2.34093 52.5589 0.935383 50.738 0.317799L49.9927 0.0728912L33.7012 0.0196533C19.518 -0.0229416 17.3351 -0.00164413 16.8559 0.13678ZM50.2695 2.05343C51.3769 2.43676 52.3565 3.55481 52.6015 4.7048C52.676 5.07748 52.7079 8.4955 52.6866 15.3635L52.6547 25.4791L52.3778 26.0754C52.0158 26.8421 51.3556 27.5023 50.589 27.8537C50.0566 28.1092 49.833 28.1411 48.4274 28.1944C46.17 28.2689 46.383 27.8004 46.3191 32.7092L46.2659 36.6915L44.083 34.2851L41.9002 31.8786L41.8469 23.1472C41.783 14.6075 41.783 14.3945 41.5594 13.8195C41.4423 13.4894 41.2293 13.0103 41.1016 12.7547C40.7608 12.0945 39.5682 10.9445 38.8655 10.6038C37.5664 9.96493 38.0349 9.98623 25.8003 9.98623H14.5879V7.32421C14.5879 4.91775 14.6092 4.61961 14.8009 4.08721C15.1949 3.0437 16.1745 2.19185 17.3245 1.89371C17.58 1.82982 23.5962 1.80853 33.765 1.84047C47.7246 1.88306 49.8543 1.915 50.2695 2.05343ZM37.3215 11.9455C38.4076 12.233 39.3233 13.0422 39.7067 14.0751C39.9303 14.682 39.9303 14.6927 39.909 25.1384L39.877 35.5948L39.6108 36.1165C39.2594 36.8087 38.6738 37.3837 37.9923 37.735C37.4919 38.0012 37.2683 38.0332 35.884 38.1077C35.0322 38.1503 31.2734 38.1929 27.5146 38.1929L20.6892 38.2036L20.3592 38.4378C20.1781 38.5762 18.3893 40.5035 16.3768 42.7183L12.7245 46.7646L12.6713 42.6651C12.6393 40.4183 12.5967 38.5656 12.5861 38.5549C12.3199 38.2887 11.862 38.2568 8.30556 38.2036L4.5255 38.1503L3.91857 37.8628C3.1732 37.5221 2.50238 36.8406 2.14034 36.0739L1.86349 35.4883V25.0532V14.6181L2.14034 14.0218C2.52367 13.2126 3.09867 12.6056 3.81209 12.2543C4.39773 11.9668 4.48291 11.9561 6.60187 11.9029C7.8051 11.8603 15.0884 11.8283 22.7869 11.8177C34.2123 11.807 36.8849 11.8283 37.3215 11.9455Z" fill="#EC7D10"/>
<path d="M8.77441 19.1436C8.18876 19.3779 8.02904 20.1552 8.46561 20.5811L8.72117 20.8473H14.9822C19.9549 20.8366 21.2859 20.8153 21.4243 20.6982C21.7331 20.4746 21.8609 20.0061 21.7118 19.6547C21.4562 19.0265 21.5414 19.0371 14.9929 19.0478C11.692 19.0478 8.89153 19.0904 8.77441 19.1436Z" fill="#EC7D10"/>
<path d="M8.87005 24.5421C8.5506 24.606 8.19922 25.0638 8.19922 25.4365C8.19922 25.5962 8.31635 25.8731 8.45477 26.0328L8.71033 26.331L20.6042 26.3629C28.8671 26.3842 32.6258 26.3523 32.9133 26.2777C33.2541 26.1819 33.3819 26.0861 33.499 25.7879C33.6268 25.4791 33.6268 25.3726 33.499 25.0638C33.3819 24.7763 33.2541 24.6699 32.9346 24.5847C32.5407 24.4676 9.42374 24.4356 8.87005 24.5421Z" fill="#EC7D10"/>
<path d="M8.46588 30.2708C8.12515 30.6009 8.12515 31.0694 8.45524 31.4634L8.71079 31.7615L20.626 31.7935C29.1231 31.8148 32.6476 31.7935 32.9351 31.7083C33.2439 31.6124 33.3823 31.506 33.4994 31.2291C33.6592 30.8245 33.6166 30.6009 33.2971 30.2389L33.0842 30.0046H20.9028H8.72144L8.46588 30.2708Z" fill="#EC7D10"/>
</svg>
