<svg width="169" height="52" viewBox="0 0 169 52" fill="none" xmlns="http://www.w3.org/2000/svg">
<rect x="0.5" y="0.5" width="168" height="51" rx="25.5" stroke="white"/>
<path fill-rule="evenodd" clip-rule="evenodd" d="M59.7504 17.7409H56.2102L55.433 19.4576H54.9539L57.7594 13.3667H58.2065L61.012 19.4576H60.5329L59.7504 17.7409ZM59.5853 17.3689L57.983 13.8504L56.3859 17.3689H59.5853Z" fill="white"/>
<path d="M65.4093 14.9131L63.3491 19.4574H62.9072L60.8577 14.9131H61.3208L63.1308 18.979L64.9621 14.9131H65.4093Z" fill="white"/>
<path fill-rule="evenodd" clip-rule="evenodd" d="M69.0506 15.3119C69.3558 15.5989 69.5085 16.0205 69.5085 16.5768V19.4575H69.0879V18.6497C68.9424 18.9154 68.7294 19.1227 68.4491 19.2715C68.1722 19.4203 67.8386 19.4947 67.4482 19.4947C66.9443 19.4947 66.545 19.376 66.2504 19.1386C65.9559 18.8977 65.8086 18.5841 65.8086 18.1979C65.8086 17.8187 65.9435 17.5123 66.2132 17.2784C66.4829 17.0445 66.9159 16.9276 67.5121 16.9276H69.0719V16.5609C69.0719 16.1357 68.9566 15.8132 68.7259 15.5936C68.4952 15.3739 68.1598 15.264 67.7197 15.264C67.4181 15.264 67.1288 15.3154 66.852 15.4182C66.5752 15.5245 66.3409 15.6644 66.1493 15.838L65.931 15.5245C66.1582 15.3189 66.4314 15.1613 66.7509 15.0514C67.0703 14.938 67.4039 14.8813 67.7517 14.8813C68.316 14.8813 68.749 15.0249 69.0506 15.3119ZM68.4757 18.8729C68.7383 18.6993 68.9371 18.4477 69.0719 18.1182V17.2624H67.5175C67.0703 17.2624 66.7473 17.3439 66.5486 17.5069C66.3463 17.6699 66.2451 17.8932 66.2451 18.1766C66.2451 18.4743 66.3551 18.7081 66.5752 18.8782C66.7988 19.0518 67.1111 19.1386 67.5121 19.1386C67.8883 19.1386 68.2095 19.05 68.4757 18.8729Z" fill="white"/>
<path d="M71.2652 13.7065C71.1978 13.6392 71.1641 13.5577 71.1641 13.462C71.1641 13.3628 71.1978 13.2778 71.2652 13.2069C71.3362 13.136 71.4214 13.1006 71.5207 13.1006C71.6201 13.1006 71.7035 13.1342 71.7709 13.2016C71.8419 13.2689 71.8774 13.3522 71.8774 13.4514C71.8774 13.5506 71.8419 13.6339 71.7709 13.7012C71.7035 13.772 71.6201 13.8075 71.5207 13.8075C71.4214 13.8075 71.3362 13.7738 71.2652 13.7065ZM71.3025 14.913H71.739V19.4573H71.3025V14.913Z" fill="white"/>
<path d="M73.5811 13H74.0123V19.4577H73.5811V13Z" fill="white"/>
<path fill-rule="evenodd" clip-rule="evenodd" d="M78.6863 15.3119C78.9879 15.5989 79.1388 16.0205 79.1388 16.5768V19.4575H78.7235V18.6497C78.578 18.9154 78.3651 19.1227 78.0847 19.2715C77.8079 19.4203 77.4743 19.4947 77.0839 19.4947C76.5764 19.4947 76.1771 19.376 75.8861 19.1386C75.5915 18.8977 75.4442 18.5841 75.4442 18.1979C75.4442 17.8187 75.5791 17.5123 75.8488 17.2784C76.1185 17.0445 76.5497 16.9276 77.1424 16.9276H78.7075V16.5609C78.7075 16.1357 78.5922 15.8132 78.3615 15.5936C78.1308 15.3739 77.7954 15.264 77.3554 15.264C77.0537 15.264 76.7645 15.3154 76.4876 15.4182C76.2108 15.5245 75.9766 15.6644 75.7849 15.838L75.5667 15.5245C75.7938 15.3189 76.0671 15.1613 76.3865 15.0514C76.7059 14.938 77.0395 14.8813 77.3873 14.8813C77.9516 14.8813 78.3846 15.0249 78.6863 15.3119ZM78.106 18.8729C78.3722 18.6993 78.5727 18.4477 78.7075 18.1182V17.2624H77.1531C76.7059 17.2624 76.3812 17.3439 76.1789 17.5069C75.9801 17.6699 75.8807 17.8932 75.8807 18.1766C75.8807 18.4743 75.9908 18.7081 76.2108 18.8782C76.4308 19.0518 76.7414 19.1386 77.1424 19.1386C77.5222 19.1386 77.8434 19.05 78.106 18.8729Z" fill="white"/>
<path fill-rule="evenodd" clip-rule="evenodd" d="M84.3718 15.1685C84.7161 15.3634 84.9858 15.6362 85.181 15.987C85.3762 16.3413 85.4738 16.7417 85.4738 17.1882C85.4738 17.6346 85.3762 18.0315 85.181 18.3787C84.9858 18.726 84.7161 18.9988 84.3718 19.1972C84.0311 19.3957 83.6478 19.4949 83.2219 19.4949C82.8138 19.4949 82.4464 19.3974 82.1199 19.2026C81.7899 19.0077 81.5361 18.7366 81.3587 18.3894V19.4577H80.9381V13H81.3746V15.9498C81.5556 15.6132 81.8076 15.351 82.1306 15.1632C82.4571 14.9754 82.8209 14.8815 83.2219 14.8815C83.6478 14.8815 84.0311 14.9772 84.3718 15.1685ZM84.1376 18.8571C84.4179 18.6941 84.638 18.4673 84.7977 18.1768C84.9574 17.8862 85.0372 17.5567 85.0372 17.1882C85.0372 16.8161 84.9574 16.4848 84.7977 16.1943C84.638 15.9037 84.4179 15.677 84.1376 15.514C83.8572 15.351 83.5431 15.2695 83.1953 15.2695C82.8475 15.2695 82.5352 15.351 82.2584 15.514C81.9815 15.677 81.7633 15.9037 81.6036 16.1943C81.4438 16.4848 81.364 16.8161 81.364 17.1882C81.364 17.5567 81.4438 17.8862 81.6036 18.1768C81.7633 18.4673 81.9815 18.6941 82.2584 18.8571C82.5352 19.0201 82.8475 19.1016 83.1953 19.1016C83.5431 19.1016 83.8572 19.0201 84.1376 18.8571Z" fill="white"/>
<path d="M86.8207 13H87.2572V19.4577H86.8207V13Z" fill="white"/>
<path fill-rule="evenodd" clip-rule="evenodd" d="M92.9427 17.289H89.0299C89.0405 17.6434 89.131 17.9587 89.3014 18.2351C89.4682 18.5115 89.6953 18.7241 89.9828 18.8729C90.2703 19.0252 90.595 19.1014 90.957 19.1014C91.2516 19.1014 91.5266 19.0483 91.7822 18.942C92.0341 18.8321 92.2435 18.6727 92.4103 18.4636L92.6659 18.7506C92.4671 18.9916 92.2187 19.1758 91.9206 19.3034C91.6189 19.431 91.2942 19.4947 90.9464 19.4947C90.4921 19.4947 90.0893 19.3955 89.7379 19.1971C89.383 18.9987 89.1044 18.7258 88.9021 18.3786C88.7034 18.0313 88.604 17.6345 88.604 17.188C88.604 16.7451 88.6981 16.3483 88.8862 15.9975C89.0743 15.6467 89.3333 15.3721 89.6634 15.1737C89.997 14.9788 90.3696 14.8813 90.7813 14.8813C91.193 14.8813 91.5639 14.977 91.894 15.1684C92.2205 15.3632 92.4795 15.6361 92.6712 15.9869C92.8593 16.3341 92.9533 16.7274 92.9533 17.1668L92.9427 17.289ZM89.9189 15.4766C89.6598 15.6184 89.454 15.8186 89.3014 16.0772C89.1488 16.3359 89.0601 16.6264 89.0352 16.9489H92.5221C92.5044 16.6264 92.4174 16.3376 92.2613 16.0825C92.1051 15.8274 91.8993 15.6272 91.6437 15.4819C91.3882 15.3367 91.1007 15.264 90.7813 15.264C90.4619 15.264 90.1744 15.3349 89.9189 15.4766Z" fill="white"/>
<path fill-rule="evenodd" clip-rule="evenodd" d="M97.159 19.1971C96.8147 18.9987 96.5432 18.7241 96.3445 18.3733C96.1458 18.0225 96.0464 17.6274 96.0464 17.188C96.0464 16.7451 96.1458 16.3483 96.3445 15.9975C96.5432 15.6467 96.8147 15.3721 97.159 15.1737C97.5068 14.9788 97.8954 14.8813 98.3249 14.8813C98.7543 14.8813 99.1411 14.9788 99.4854 15.1737C99.8332 15.3721 100.106 15.6467 100.305 15.9975C100.5 16.3483 100.598 16.7451 100.598 17.188C100.598 17.6274 100.5 18.0225 100.305 18.3733C100.106 18.7241 99.8332 18.9987 99.4854 19.1971C99.1411 19.3955 98.7543 19.4947 98.3249 19.4947C97.8954 19.4947 97.5068 19.3955 97.159 19.1971ZM99.2618 18.8569C99.5386 18.6939 99.7569 18.4672 99.9166 18.1766C100.076 17.8861 100.156 17.5565 100.156 17.188C100.156 16.816 100.076 16.4847 99.9166 16.1941C99.7569 15.9036 99.5386 15.6768 99.2618 15.5138C98.985 15.3508 98.6727 15.2693 98.3249 15.2693C97.9771 15.2693 97.6647 15.3508 97.3879 15.5138C97.1111 15.6768 96.8928 15.9036 96.7331 16.1941C96.5734 16.4847 96.4936 16.816 96.4936 17.188C96.4936 17.5565 96.5734 17.8861 96.7331 18.1766C96.8928 18.4672 97.1111 18.6939 97.3879 18.8569C97.6647 19.0199 97.9771 19.1014 98.3249 19.1014C98.6727 19.1014 98.985 19.0199 99.2618 18.8569Z" fill="white"/>
<path d="M105.528 15.3756C105.858 15.7052 106.023 16.1817 106.023 16.8054V19.4575H105.586V16.8373C105.586 16.327 105.457 15.939 105.198 15.6733C104.938 15.404 104.576 15.2693 104.112 15.2693C103.579 15.2693 103.159 15.4288 102.85 15.7477C102.541 16.0666 102.387 16.4971 102.387 17.0392V19.4575H101.95V14.9132H102.371V15.8965C102.527 15.5776 102.761 15.3278 103.073 15.1471C103.382 14.9699 103.75 14.8813 104.175 14.8813C104.743 14.8813 105.194 15.0461 105.528 15.3756Z" fill="white"/>
<path d="M112.32 19.1706C112.21 19.2769 112.072 19.3566 111.905 19.4098C111.738 19.4665 111.564 19.4948 111.383 19.4948C110.99 19.4948 110.684 19.385 110.468 19.1653C110.255 18.9492 110.148 18.6462 110.148 18.2564V15.2907H109.313V14.9133H110.148V13.9194H110.585V14.9133H112.033V15.2907H110.585V18.2139C110.585 18.508 110.656 18.733 110.798 18.8889C110.94 19.0413 111.151 19.1175 111.431 19.1175C111.715 19.1175 111.95 19.0342 112.134 18.8677L112.32 19.1706Z" fill="white"/>
<path d="M117.106 15.3758C117.436 15.7053 117.601 16.1819 117.601 16.8055V19.4577H117.165V16.8374C117.165 16.3272 117.035 15.9392 116.776 15.6734C116.521 15.4041 116.16 15.2695 115.695 15.2695C115.16 15.2695 114.737 15.4289 114.428 15.7478C114.12 16.0667 113.965 16.4972 113.965 17.0394V19.4577H113.529V13H113.965V15.8648C114.122 15.5494 114.354 15.3067 114.663 15.1366C114.971 14.9665 115.335 14.8815 115.754 14.8815C116.322 14.8815 116.773 15.0463 117.106 15.3758Z" fill="white"/>
<path fill-rule="evenodd" clip-rule="evenodd" d="M123.255 17.289H119.337C119.348 17.6434 119.438 17.9587 119.608 18.2351C119.775 18.5115 120.002 18.7241 120.29 18.8729C120.581 19.0252 120.906 19.1014 121.264 19.1014C121.562 19.1014 121.837 19.0483 122.089 18.942C122.341 18.8321 122.552 18.6727 122.723 18.4636L122.973 18.7506C122.774 18.9916 122.526 19.1758 122.228 19.3034C121.929 19.431 121.605 19.4947 121.253 19.4947C120.803 19.4947 120.4 19.3955 120.045 19.1971C119.69 18.9987 119.411 18.7258 119.209 18.3786C119.01 18.0313 118.911 17.6345 118.911 17.188C118.911 16.7451 119.005 16.3483 119.193 15.9975C119.381 15.6467 119.642 15.3721 119.976 15.1737C120.306 14.9788 120.677 14.8813 121.088 14.8813C121.504 14.8813 121.874 14.977 122.201 15.1684C122.531 15.3632 122.79 15.6361 122.978 15.9869C123.166 16.3341 123.26 16.7274 123.26 17.1668L123.255 17.289ZM120.231 15.4766C119.976 15.6184 119.77 15.8186 119.614 16.0772C119.461 16.3359 119.372 16.6264 119.348 16.9489H122.84C122.822 16.6264 122.733 16.3376 122.574 16.0825C122.417 15.8274 122.212 15.6272 121.956 15.4819C121.701 15.3367 121.413 15.264 121.094 15.264C120.774 15.264 120.487 15.3349 120.231 15.4766Z" fill="white"/>
<path d="M61.9011 30.1354H63.6898V34.1907C63.1646 34.6088 62.5524 34.9295 61.8532 35.1527C61.1541 35.3759 60.4372 35.4876 59.7025 35.4876C58.6626 35.4876 57.7257 35.2608 56.8917 34.8072C56.0541 34.3572 55.3975 33.7354 54.922 32.9417C54.4464 32.148 54.2086 31.2515 54.2086 30.2523C54.2086 29.2531 54.4464 28.3567 54.922 27.563C55.3975 26.7657 56.0559 26.1421 56.897 25.6921C57.7381 25.2421 58.6822 25.0171 59.7291 25.0171C60.5844 25.0171 61.3617 25.1571 62.0608 25.437C62.76 25.7204 63.3474 26.1332 63.8229 26.6754L62.6251 27.8393C61.8515 27.0633 60.9145 26.6754 59.8143 26.6754C59.0974 26.6754 58.4604 26.8259 57.9032 27.1271C57.3424 27.4283 56.9059 27.85 56.5936 28.3921C56.2777 28.9342 56.1198 29.5543 56.1198 30.2523C56.1198 30.9291 56.2777 31.5403 56.5936 32.086C56.9059 32.6281 57.3424 33.0533 57.9032 33.3616C58.4604 33.6734 59.0939 33.8293 59.8037 33.8293C60.5986 33.8293 61.2978 33.6539 61.9011 33.3031V30.1354Z" fill="white"/>
<path fill-rule="evenodd" clip-rule="evenodd" d="M67.3737 34.9345C66.7419 34.5944 66.2504 34.1214 65.8991 33.5154C65.5442 32.9095 65.3667 32.2239 65.3667 31.4586C65.3667 30.6932 65.5442 30.0093 65.8991 29.407C66.2504 28.8082 66.7419 28.3387 67.3737 27.9985C68.0054 27.6584 68.7152 27.4883 69.5031 27.4883C70.2981 27.4883 71.0114 27.6584 71.6432 27.9985C72.2713 28.3387 72.7629 28.8082 73.1178 29.407C73.4727 30.0093 73.6501 30.6932 73.6501 31.4586C73.6501 32.2239 73.4727 32.9095 73.1178 33.5154C72.7629 34.1214 72.2713 34.5944 71.6432 34.9345C71.0114 35.2712 70.2981 35.4395 69.5031 35.4395C68.7152 35.4395 68.0054 35.2712 67.3737 34.9345ZM71.1587 33.2178C71.5952 32.7714 71.8135 32.1849 71.8135 31.4586C71.8135 30.7322 71.5952 30.1458 71.1587 29.6993C70.7222 29.2528 70.1703 29.0296 69.5031 29.0296C68.8323 29.0296 68.2805 29.2528 67.8475 29.6993C67.4145 30.1458 67.198 30.7322 67.198 31.4586C67.198 32.1849 67.4145 32.7714 67.8475 33.2178C68.2805 33.6643 68.8323 33.8875 69.5031 33.8875C70.1703 33.8875 70.7222 33.6643 71.1587 33.2178Z" fill="white"/>
<path fill-rule="evenodd" clip-rule="evenodd" d="M76.7699 34.9345C76.1381 34.5944 75.6448 34.1214 75.2899 33.5154C74.935 32.9095 74.7576 32.2239 74.7576 31.4586C74.7576 30.6932 74.935 30.0093 75.2899 29.407C75.6448 28.8082 76.1381 28.3387 76.7699 27.9985C77.398 27.6584 78.1061 27.4883 78.894 27.4883C79.6889 27.4883 80.4023 27.6584 81.034 27.9985C81.6658 28.3387 82.1591 28.8082 82.514 29.407C82.8689 30.0093 83.0463 30.6932 83.0463 31.4586C83.0463 32.2239 82.8689 32.9095 82.514 33.5154C82.1591 34.1214 81.6658 34.5944 81.034 34.9345C80.4023 35.2712 79.6889 35.4395 78.894 35.4395C78.1061 35.4395 77.398 35.2712 76.7699 34.9345ZM80.5549 33.2178C80.9914 32.7714 81.2097 32.1849 81.2097 31.4586C81.2097 30.7322 80.9914 30.1458 80.5549 29.6993C80.1184 29.2528 79.5647 29.0296 78.894 29.0296C78.2232 29.0296 77.6713 29.2528 77.2383 29.6993C76.8089 30.1458 76.5942 30.7322 76.5942 31.4586C76.5942 32.1849 76.8089 32.7714 77.2383 33.2178C77.6713 33.6643 78.2232 33.8875 78.894 33.8875C79.5647 33.8875 80.1184 33.6643 80.5549 33.2178Z" fill="white"/>
<path fill-rule="evenodd" clip-rule="evenodd" d="M92.5115 27.5786V34.1639C92.5115 36.8958 91.1132 38.2617 88.3165 38.2617C87.5677 38.2617 86.8579 38.1678 86.1871 37.98C85.5199 37.7887 84.968 37.5141 84.5315 37.1562L85.346 35.7903C85.6831 36.0702 86.1126 36.2952 86.6343 36.4653C87.1524 36.6353 87.6795 36.7204 88.2154 36.7204C89.0671 36.7204 89.6918 36.5273 90.0893 36.141C90.4903 35.7513 90.6908 35.1595 90.6908 34.3658V33.9566C90.3785 34.2967 89.9988 34.5536 89.5516 34.7273C89.1044 34.9044 88.6146 34.993 88.0823 34.993C87.3441 34.993 86.6769 34.8353 86.0806 34.52C85.4844 34.2046 85.0142 33.7599 84.6699 33.1859C84.3221 32.6154 84.1482 31.9617 84.1482 31.2247C84.1482 30.4877 84.3221 29.8357 84.6699 29.2688C85.0142 28.7019 85.4844 28.2643 86.0806 27.956C86.6769 27.6442 87.3441 27.4883 88.0823 27.4883C88.6466 27.4883 89.1594 27.5804 89.6208 27.7647C90.0786 27.9489 90.4637 28.2306 90.776 28.6097V27.5786H92.5115ZM90.0573 32.8298C90.501 32.4188 90.7228 31.8838 90.7228 31.2247C90.7228 30.5763 90.501 30.0483 90.0573 29.6408C89.6172 29.2334 89.0512 29.0296 88.3591 29.0296C87.66 29.0296 87.0903 29.2334 86.6503 29.6408C86.2102 30.0483 85.9901 30.5763 85.9901 31.2247C85.9901 31.8838 86.2102 32.4188 86.6503 32.8298C87.0903 33.2444 87.66 33.4517 88.3591 33.4517C89.0512 33.4517 89.6172 33.2444 90.0573 32.8298Z" fill="white"/>
<path d="M94.8965 24.5547H96.7171V35.3387H94.8965V24.5547Z" fill="white"/>
<path fill-rule="evenodd" clip-rule="evenodd" d="M106.385 32.0379H100.284C100.39 32.6119 100.671 33.0654 101.125 33.3985C101.576 33.7316 102.135 33.8981 102.802 33.8981C103.657 33.8981 104.362 33.6182 104.915 33.0584L105.89 34.1745C105.542 34.5926 105.1 34.908 104.564 35.1206C104.032 35.3332 103.43 35.4395 102.759 35.4395C101.908 35.4395 101.155 35.2712 100.502 34.9345C99.8527 34.5944 99.3505 34.1214 98.9956 33.5154C98.6407 32.9095 98.4633 32.2239 98.4633 31.4586C98.4633 30.7038 98.6354 30.0235 98.9796 29.4176C99.3239 28.8117 99.803 28.3387 100.417 27.9985C101.027 27.6584 101.716 27.4883 102.483 27.4883C103.242 27.4883 103.92 27.6548 104.516 27.9879C105.112 28.3245 105.579 28.7958 105.916 29.4017C106.25 30.0076 106.417 30.7074 106.417 31.5011C106.417 31.6286 106.406 31.8076 106.385 32.0379ZM101.008 29.4601C100.603 29.8038 100.357 30.2609 100.268 30.8314H104.681C104.603 30.2715 104.365 29.8162 103.968 29.4654C103.57 29.1182 103.075 28.9446 102.483 28.9446C101.9 28.9446 101.409 29.1164 101.008 29.4601Z" fill="white"/>
<path fill-rule="evenodd" clip-rule="evenodd" d="M118.858 25.5965C119.514 25.8906 120.016 26.3087 120.364 26.8508C120.716 27.3929 120.891 28.0378 120.891 28.7854C120.891 29.5189 120.716 30.1603 120.364 30.7095C120.016 31.2587 119.514 31.6786 118.858 31.9691C118.205 32.2597 117.436 32.4049 116.553 32.4049H114.253V35.3388H112.358V25.1606H116.553C117.436 25.1606 118.205 25.3059 118.858 25.5965ZM118.341 30.279C118.771 29.9317 118.985 29.4339 118.985 28.7854C118.985 28.1335 118.771 27.6339 118.341 27.2866C117.915 26.9358 117.289 26.7604 116.462 26.7604H114.253V30.8051H116.462C117.289 30.8051 117.915 30.6297 118.341 30.279Z" fill="white"/>
<path d="M122.755 24.5547H124.575V35.3387H122.755V24.5547Z" fill="white"/>
<path fill-rule="evenodd" clip-rule="evenodd" d="M132.561 28.3121C133.167 28.8578 133.471 29.6834 133.471 30.7889V35.3385H131.757V34.3924C131.533 34.7326 131.214 34.993 130.798 35.1737C130.387 35.3509 129.89 35.4395 129.308 35.4395C128.726 35.4395 128.217 35.3403 127.78 35.1418C127.343 34.9434 127.006 34.667 126.769 34.3127C126.531 33.9619 126.412 33.5633 126.412 33.1168C126.412 32.4188 126.671 31.859 127.189 31.4373C127.707 31.0156 128.525 30.8048 129.643 30.8048H131.65V30.6879C131.65 30.1458 131.489 29.7294 131.166 29.4389C130.839 29.1483 130.357 29.003 129.718 29.003C129.278 29.003 128.847 29.0704 128.424 29.205C128.002 29.3397 127.645 29.5292 127.354 29.7737L126.641 28.4503C127.049 28.1385 127.54 27.9011 128.115 27.7381C128.687 27.5715 129.294 27.4883 129.936 27.4883C131.079 27.4883 131.954 27.7629 132.561 28.3121ZM130.9 33.8078C131.255 33.5987 131.505 33.2993 131.65 32.9095V32.0113H129.771C128.724 32.0113 128.201 32.355 128.201 33.0424C128.201 33.3719 128.332 33.6341 128.595 33.829C128.857 34.0204 129.221 34.116 129.686 34.116C130.144 34.1196 130.548 34.0168 130.9 33.8078Z" fill="white"/>
<path d="M142.936 27.5786L139.3 35.9656C138.959 36.8089 138.546 37.4024 138.06 37.7461C137.574 38.0898 136.986 38.2617 136.298 38.2617C135.911 38.2617 135.528 38.1997 135.148 38.0757C134.768 37.9481 134.458 37.7727 134.216 37.5495L134.946 36.2101C135.119 36.3766 135.325 36.5077 135.563 36.6034C135.801 36.7026 136.04 36.7522 136.282 36.7522C136.605 36.7522 136.869 36.669 137.075 36.5024C137.284 36.3394 137.476 36.0631 137.65 35.6733L137.783 35.3703L134.392 27.5786H136.282L138.731 33.3188L141.19 27.5786H142.936Z" fill="white"/>
<path d="M51.1743 26.3778C51.1743 26.7126 50.9986 27.0103 50.7111 27.175L45.4728 30.1939L41.7942 26.6435L45.8188 22.7583L50.7111 25.5805C50.9986 25.7453 51.1743 26.0429 51.1743 26.3778Z" fill="white"/>
<path d="M41.1287 26.0057L27.8038 13.1382L39.6008 19.176L44.9882 22.2799L41.1287 26.0057Z" fill="white"/>
<path d="M41.1287 27.2866L44.6422 30.6723L39.6221 33.5636L27.9955 39.9575L41.1287 27.2866Z" fill="white"/>
<path d="M40.4686 26.6431L27 39.6382L27.016 13.6587L40.4686 26.6431Z" fill="white"/>
</svg>
