<svg width="180" height="52" viewBox="0 0 180 52" fill="none" xmlns="http://www.w3.org/2000/svg">
<rect width="180" height="52" rx="26" fill="#0E1552"/>
<path fill-rule="evenodd" clip-rule="evenodd" d="M64.7506 17.7409H61.2105L60.4332 19.4576H59.9541L62.7596 13.3667H63.2068L66.0123 19.4576H65.5332L64.7506 17.7409ZM64.5856 17.3689L62.9832 13.8504L61.3861 17.3689H64.5856Z" fill="white"/>
<path d="M70.4095 14.9131L68.3493 19.4574H67.9075L65.8579 14.9131H66.3211L68.1311 18.979L69.9624 14.9131H70.4095Z" fill="white"/>
<path fill-rule="evenodd" clip-rule="evenodd" d="M74.0506 15.3119C74.3558 15.5989 74.5085 16.0205 74.5085 16.5768V19.4575H74.0879V18.6497C73.9424 18.9154 73.7294 19.1227 73.4491 19.2715C73.1722 19.4203 72.8386 19.4947 72.4482 19.4947C71.9443 19.4947 71.545 19.376 71.2504 19.1386C70.9559 18.8977 70.8086 18.5841 70.8086 18.1979C70.8086 17.8187 70.9435 17.5123 71.2132 17.2784C71.4829 17.0445 71.9159 16.9276 72.5121 16.9276H74.0719V16.5609C74.0719 16.1357 73.9566 15.8132 73.7259 15.5936C73.4952 15.3739 73.1598 15.264 72.7197 15.264C72.4181 15.264 72.1288 15.3154 71.852 15.4182C71.5752 15.5245 71.3409 15.6644 71.1493 15.838L70.931 15.5245C71.1582 15.3189 71.4314 15.1613 71.7509 15.0514C72.0703 14.938 72.4039 14.8813 72.7517 14.8813C73.316 14.8813 73.749 15.0249 74.0506 15.3119ZM73.4757 18.8729C73.7383 18.6993 73.9371 18.4477 74.0719 18.1182V17.2624H72.5175C72.0703 17.2624 71.7473 17.3439 71.5486 17.5069C71.3463 17.6699 71.2451 17.8932 71.2451 18.1766C71.2451 18.4743 71.3551 18.7081 71.5752 18.8782C71.7988 19.0518 72.1111 19.1386 72.5121 19.1386C72.8883 19.1386 73.2095 19.05 73.4757 18.8729Z" fill="white"/>
<path d="M76.2652 13.7065C76.1978 13.6392 76.1641 13.5577 76.1641 13.462C76.1641 13.3628 76.1978 13.2778 76.2652 13.2069C76.3362 13.136 76.4214 13.1006 76.5207 13.1006C76.6201 13.1006 76.7035 13.1342 76.7709 13.2016C76.8419 13.2689 76.8774 13.3522 76.8774 13.4514C76.8774 13.5506 76.8419 13.6339 76.7709 13.7012C76.7035 13.772 76.6201 13.8075 76.5207 13.8075C76.4214 13.8075 76.3362 13.7738 76.2652 13.7065ZM76.3025 14.913H76.739V19.4573H76.3025V14.913Z" fill="white"/>
<path d="M78.5811 13H79.0123V19.4577H78.5811V13Z" fill="white"/>
<path fill-rule="evenodd" clip-rule="evenodd" d="M83.6864 15.3119C83.988 15.5989 84.1389 16.0205 84.1389 16.5768V19.4575H83.7236V18.6497C83.5781 18.9154 83.3652 19.1227 83.0848 19.2715C82.808 19.4203 82.4744 19.4947 82.084 19.4947C81.5765 19.4947 81.1772 19.376 80.8862 19.1386C80.5916 18.8977 80.4443 18.5841 80.4443 18.1979C80.4443 17.8187 80.5792 17.5123 80.8489 17.2784C81.1187 17.0445 81.5499 16.9276 82.1425 16.9276H83.7077V16.5609C83.7077 16.1357 83.5923 15.8132 83.3616 15.5936C83.1309 15.3739 82.7956 15.264 82.3555 15.264C82.0538 15.264 81.7646 15.3154 81.4878 15.4182C81.2109 15.5245 80.9767 15.6644 80.785 15.838L80.5668 15.5245C80.7939 15.3189 81.0672 15.1613 81.3866 15.0514C81.706 14.938 82.0396 14.8813 82.3874 14.8813C82.9517 14.8813 83.3847 15.0249 83.6864 15.3119ZM83.1061 18.8729C83.3723 18.6993 83.5728 18.4477 83.7077 18.1182V17.2624H82.1532C81.706 17.2624 81.3813 17.3439 81.179 17.5069C80.9802 17.6699 80.8809 17.8932 80.8809 18.1766C80.8809 18.4743 80.9909 18.7081 81.2109 18.8782C81.431 19.0518 81.7415 19.1386 82.1425 19.1386C82.5223 19.1386 82.8435 19.05 83.1061 18.8729Z" fill="white"/>
<path fill-rule="evenodd" clip-rule="evenodd" d="M89.3717 15.1685C89.7159 15.3634 89.9857 15.6362 90.1808 15.987C90.376 16.3413 90.4736 16.7417 90.4736 17.1882C90.4736 17.6346 90.376 18.0315 90.1808 18.3787C89.9857 18.726 89.7159 18.9988 89.3717 19.1972C89.031 19.3957 88.6477 19.4949 88.2218 19.4949C87.8137 19.4949 87.4463 19.3974 87.1198 19.2026C86.7898 19.0077 86.536 18.7366 86.3585 18.3894V19.4577H85.938V13H86.3745V15.9498C86.5555 15.6132 86.8075 15.351 87.1305 15.1632C87.457 14.9754 87.8207 14.8815 88.2218 14.8815C88.6477 14.8815 89.031 14.9772 89.3717 15.1685ZM89.1374 18.8571C89.4178 18.6941 89.6379 18.4673 89.7976 18.1768C89.9573 17.8862 90.0371 17.5567 90.0371 17.1882C90.0371 16.8161 89.9573 16.4848 89.7976 16.1943C89.6379 15.9037 89.4178 15.677 89.1374 15.514C88.8571 15.351 88.543 15.2695 88.1952 15.2695C87.8474 15.2695 87.5351 15.351 87.2582 15.514C86.9814 15.677 86.7631 15.9037 86.6034 16.1943C86.4437 16.4848 86.3639 16.8161 86.3639 17.1882C86.3639 17.5567 86.4437 17.8862 86.6034 18.1768C86.7631 18.4673 86.9814 18.6941 87.2582 18.8571C87.5351 19.0201 87.8474 19.1016 88.1952 19.1016C88.543 19.1016 88.8571 19.0201 89.1374 18.8571Z" fill="white"/>
<path d="M91.8208 13H92.2573V19.4577H91.8208V13Z" fill="white"/>
<path fill-rule="evenodd" clip-rule="evenodd" d="M97.9427 17.289H94.0299C94.0405 17.6434 94.131 17.9587 94.3014 18.2351C94.4682 18.5115 94.6953 18.7241 94.9828 18.8729C95.2703 19.0252 95.595 19.1014 95.957 19.1014C96.2516 19.1014 96.5266 19.0483 96.7822 18.942C97.0341 18.8321 97.2435 18.6727 97.4103 18.4636L97.6659 18.7506C97.4671 18.9916 97.2187 19.1758 96.9206 19.3034C96.6189 19.431 96.2942 19.4947 95.9464 19.4947C95.4921 19.4947 95.0893 19.3955 94.7379 19.1971C94.383 18.9987 94.1044 18.7258 93.9021 18.3786C93.7034 18.0313 93.604 17.6345 93.604 17.188C93.604 16.7451 93.6981 16.3483 93.8862 15.9975C94.0743 15.6467 94.3333 15.3721 94.6634 15.1737C94.997 14.9788 95.3696 14.8813 95.7813 14.8813C96.193 14.8813 96.5639 14.977 96.894 15.1684C97.2205 15.3632 97.4795 15.6361 97.6712 15.9869C97.8593 16.3341 97.9533 16.7274 97.9533 17.1668L97.9427 17.289ZM94.9189 15.4766C94.6598 15.6184 94.454 15.8186 94.3014 16.0772C94.1488 16.3359 94.0601 16.6264 94.0352 16.9489H97.5221C97.5044 16.6264 97.4174 16.3376 97.2613 16.0825C97.1051 15.8274 96.8993 15.6272 96.6437 15.4819C96.3882 15.3367 96.1007 15.264 95.7813 15.264C95.4619 15.264 95.1744 15.3349 94.9189 15.4766Z" fill="white"/>
<path fill-rule="evenodd" clip-rule="evenodd" d="M102.159 19.1971C101.815 18.9987 101.543 18.7241 101.345 18.3733C101.146 18.0225 101.046 17.6274 101.046 17.188C101.046 16.7451 101.146 16.3483 101.345 15.9975C101.543 15.6467 101.815 15.3721 102.159 15.1737C102.507 14.9788 102.895 14.8813 103.325 14.8813C103.754 14.8813 104.141 14.9788 104.485 15.1737C104.833 15.3721 105.106 15.6467 105.305 15.9975C105.5 16.3483 105.598 16.7451 105.598 17.188C105.598 17.6274 105.5 18.0225 105.305 18.3733C105.106 18.7241 104.833 18.9987 104.485 19.1971C104.141 19.3955 103.754 19.4947 103.325 19.4947C102.895 19.4947 102.507 19.3955 102.159 19.1971ZM104.262 18.8569C104.539 18.6939 104.757 18.4672 104.917 18.1766C105.076 17.8861 105.156 17.5565 105.156 17.188C105.156 16.816 105.076 16.4847 104.917 16.1941C104.757 15.9036 104.539 15.6768 104.262 15.5138C103.985 15.3508 103.673 15.2693 103.325 15.2693C102.977 15.2693 102.665 15.3508 102.388 15.5138C102.111 15.6768 101.893 15.9036 101.733 16.1941C101.573 16.4847 101.494 16.816 101.494 17.188C101.494 17.5565 101.573 17.8861 101.733 18.1766C101.893 18.4672 102.111 18.6939 102.388 18.8569C102.665 19.0199 102.977 19.1014 103.325 19.1014C103.673 19.1014 103.985 19.0199 104.262 18.8569Z" fill="white"/>
<path d="M110.528 15.3756C110.858 15.7052 111.023 16.1817 111.023 16.8054V19.4575H110.586V16.8373C110.586 16.327 110.457 15.939 110.198 15.6733C109.938 15.404 109.576 15.2693 109.112 15.2693C108.579 15.2693 108.159 15.4288 107.85 15.7477C107.541 16.0666 107.387 16.4971 107.387 17.0392V19.4575H106.95V14.9132H107.371V15.8965C107.527 15.5776 107.761 15.3278 108.073 15.1471C108.382 14.9699 108.75 14.8813 109.175 14.8813C109.743 14.8813 110.194 15.0461 110.528 15.3756Z" fill="white"/>
<path d="M117.32 19.1706C117.21 19.2769 117.072 19.3566 116.905 19.4098C116.738 19.4665 116.564 19.4948 116.383 19.4948C115.989 19.4948 115.684 19.385 115.468 19.1653C115.255 18.9492 115.148 18.6462 115.148 18.2564V15.2907H114.312V14.9133H115.148V13.9194H115.585V14.9133H117.033V15.2907H115.585V18.2139C115.585 18.508 115.656 18.733 115.798 18.8889C115.94 19.0413 116.151 19.1175 116.431 19.1175C116.715 19.1175 116.949 19.0342 117.134 18.8677L117.32 19.1706Z" fill="white"/>
<path d="M122.106 15.3758C122.436 15.7053 122.601 16.1819 122.601 16.8055V19.4577H122.165V16.8374C122.165 16.3272 122.035 15.9392 121.776 15.6734C121.521 15.4041 121.16 15.2695 120.695 15.2695C120.16 15.2695 119.737 15.4289 119.428 15.7478C119.12 16.0667 118.965 16.4972 118.965 17.0394V19.4577H118.529V13H118.965V15.8648C119.122 15.5494 119.354 15.3067 119.663 15.1366C119.971 14.9665 120.335 14.8815 120.754 14.8815C121.322 14.8815 121.773 15.0463 122.106 15.3758Z" fill="white"/>
<path fill-rule="evenodd" clip-rule="evenodd" d="M128.255 17.289H124.337C124.348 17.6434 124.438 17.9587 124.609 18.2351C124.775 18.5115 125.002 18.7241 125.29 18.8729C125.581 19.0252 125.906 19.1014 126.264 19.1014C126.562 19.1014 126.837 19.0483 127.089 18.942C127.341 18.8321 127.552 18.6727 127.723 18.4636L127.973 18.7506C127.774 18.9916 127.526 19.1758 127.228 19.3034C126.93 19.431 126.605 19.4947 126.253 19.4947C125.803 19.4947 125.4 19.3955 125.045 19.1971C124.69 18.9987 124.412 18.7258 124.209 18.3786C124.011 18.0313 123.911 17.6345 123.911 17.188C123.911 16.7451 124.005 16.3483 124.193 15.9975C124.381 15.6467 124.642 15.3721 124.976 15.1737C125.306 14.9788 125.677 14.8813 126.088 14.8813C126.504 14.8813 126.875 14.977 127.201 15.1684C127.531 15.3632 127.79 15.6361 127.978 15.9869C128.166 16.3341 128.26 16.7274 128.26 17.1668L128.255 17.289ZM125.231 15.4766C124.976 15.6184 124.77 15.8186 124.614 16.0772C124.461 16.3359 124.373 16.6264 124.348 16.9489H127.84C127.822 16.6264 127.733 16.3376 127.574 16.0825C127.418 15.8274 127.212 15.6272 126.956 15.4819C126.701 15.3367 126.413 15.264 126.094 15.264C125.774 15.264 125.487 15.3349 125.231 15.4766Z" fill="white"/>
<path d="M66.901 30.1354H68.6897V34.1907C68.1645 34.6088 67.5523 34.9295 66.8531 35.1527C66.1539 35.3759 65.437 35.4876 64.7024 35.4876C63.6625 35.4876 62.7256 35.2608 61.8916 34.8072C61.054 34.3572 60.3974 33.7354 59.9219 32.9417C59.4463 32.148 59.2085 31.2515 59.2085 30.2523C59.2085 29.2531 59.4463 28.3567 59.9219 27.563C60.3974 26.7657 61.0558 26.1421 61.8969 25.6921C62.738 25.2421 63.682 25.0171 64.729 25.0171C65.5843 25.0171 66.3616 25.1571 67.0607 25.437C67.7599 25.7204 68.3472 26.1332 68.8228 26.6754L67.625 27.8393C66.8513 27.0633 65.9144 26.6754 64.8142 26.6754C64.0973 26.6754 63.4602 26.8259 62.903 27.1271C62.3423 27.4283 61.9058 27.85 61.5934 28.3921C61.2776 28.9342 61.1196 29.5543 61.1196 30.2523C61.1196 30.9291 61.2776 31.5403 61.5934 32.086C61.9058 32.6281 62.3423 33.0533 62.903 33.3616C63.4602 33.6734 64.0937 33.8293 64.8035 33.8293C65.5985 33.8293 66.2977 33.6539 66.901 33.3031V30.1354Z" fill="white"/>
<path fill-rule="evenodd" clip-rule="evenodd" d="M72.3737 34.9345C71.7419 34.5944 71.2504 34.1214 70.8991 33.5154C70.5442 32.9095 70.3667 32.2239 70.3667 31.4586C70.3667 30.6932 70.5442 30.0093 70.8991 29.407C71.2504 28.8082 71.7419 28.3387 72.3737 27.9985C73.0054 27.6584 73.7152 27.4883 74.5031 27.4883C75.2981 27.4883 76.0114 27.6584 76.6432 27.9985C77.2713 28.3387 77.7629 28.8082 78.1178 29.407C78.4727 30.0093 78.6501 30.6932 78.6501 31.4586C78.6501 32.2239 78.4727 32.9095 78.1178 33.5154C77.7629 34.1214 77.2713 34.5944 76.6432 34.9345C76.0114 35.2712 75.2981 35.4395 74.5031 35.4395C73.7152 35.4395 73.0054 35.2712 72.3737 34.9345ZM76.1587 33.2178C76.5952 32.7714 76.8135 32.1849 76.8135 31.4586C76.8135 30.7322 76.5952 30.1458 76.1587 29.6993C75.7222 29.2528 75.1703 29.0296 74.5031 29.0296C73.8323 29.0296 73.2805 29.2528 72.8475 29.6993C72.4145 30.1458 72.198 30.7322 72.198 31.4586C72.198 32.1849 72.4145 32.7714 72.8475 33.2178C73.2805 33.6643 73.8323 33.8875 74.5031 33.8875C75.1703 33.8875 75.7222 33.6643 76.1587 33.2178Z" fill="white"/>
<path fill-rule="evenodd" clip-rule="evenodd" d="M81.7696 34.9345C81.1379 34.5944 80.6446 34.1214 80.2897 33.5154C79.9348 32.9095 79.7573 32.2239 79.7573 31.4586C79.7573 30.6932 79.9348 30.0093 80.2897 29.407C80.6446 28.8082 81.1379 28.3387 81.7696 27.9985C82.3978 27.6584 83.1058 27.4883 83.8937 27.4883C84.6887 27.4883 85.4021 27.6584 86.0338 27.9985C86.6655 28.3387 87.1588 28.8082 87.5137 29.407C87.8686 30.0093 88.0461 30.6932 88.0461 31.4586C88.0461 32.2239 87.8686 32.9095 87.5137 33.5154C87.1588 34.1214 86.6655 34.5944 86.0338 34.9345C85.4021 35.2712 84.6887 35.4395 83.8937 35.4395C83.1058 35.4395 82.3978 35.2712 81.7696 34.9345ZM85.5547 33.2178C85.9912 32.7714 86.2095 32.1849 86.2095 31.4586C86.2095 30.7322 85.9912 30.1458 85.5547 29.6993C85.1181 29.2528 84.5645 29.0296 83.8937 29.0296C83.2229 29.0296 82.6711 29.2528 82.2381 29.6993C81.8087 30.1458 81.5939 30.7322 81.5939 31.4586C81.5939 32.1849 81.8087 32.7714 82.2381 33.2178C82.6711 33.6643 83.2229 33.8875 83.8937 33.8875C84.5645 33.8875 85.1181 33.6643 85.5547 33.2178Z" fill="white"/>
<path fill-rule="evenodd" clip-rule="evenodd" d="M97.5117 27.5786V34.1639C97.5117 36.8958 96.1134 38.2617 93.3168 38.2617C92.5679 38.2617 91.8581 38.1678 91.1874 37.98C90.5201 37.7887 89.9683 37.5141 89.5317 37.1562L90.3462 35.7903C90.6834 36.0702 91.1128 36.2952 91.6345 36.4653C92.1527 36.6353 92.6797 36.7204 93.2156 36.7204C94.0674 36.7204 94.692 36.5273 95.0895 36.141C95.4906 35.7513 95.6911 35.1595 95.6911 34.3658V33.9566C95.3788 34.2967 94.999 34.5536 94.5518 34.7273C94.1047 34.9044 93.6149 34.993 93.0825 34.993C92.3443 34.993 91.6771 34.8353 91.0809 34.52C90.4846 34.2046 90.0144 33.7599 89.6701 33.1859C89.3223 32.6154 89.1484 31.9617 89.1484 31.2247C89.1484 30.4877 89.3223 29.8357 89.6701 29.2688C90.0144 28.7019 90.4846 28.2643 91.0809 27.956C91.6771 27.6442 92.3443 27.4883 93.0825 27.4883C93.6468 27.4883 94.1597 27.5804 94.621 27.7647C95.0789 27.9489 95.4639 28.2306 95.7762 28.6097V27.5786H97.5117ZM95.0576 32.8298C95.5012 32.4188 95.723 31.8838 95.723 31.2247C95.723 30.5763 95.5012 30.0483 95.0576 29.6408C94.6175 29.2334 94.0514 29.0296 93.3594 29.0296C92.6602 29.0296 92.0906 29.2334 91.6505 29.6408C91.2104 30.0483 90.9904 30.5763 90.9904 31.2247C90.9904 31.8838 91.2104 32.4188 91.6505 32.8298C92.0906 33.2444 92.6602 33.4517 93.3594 33.4517C94.0514 33.4517 94.6175 33.2444 95.0576 32.8298Z" fill="white"/>
<path d="M99.8965 24.5547H101.717V35.3387H99.8965V24.5547Z" fill="white"/>
<path fill-rule="evenodd" clip-rule="evenodd" d="M111.385 32.0379H105.284C105.391 32.6119 105.671 33.0654 106.125 33.3985C106.576 33.7316 107.135 33.8981 107.802 33.8981C108.657 33.8981 109.362 33.6182 109.916 33.0584L110.89 34.1745C110.542 34.5926 110.1 34.908 109.564 35.1206C109.032 35.3332 108.43 35.4395 107.759 35.4395C106.908 35.4395 106.155 35.2712 105.502 34.9345C104.853 34.5944 104.351 34.1214 103.996 33.5154C103.641 32.9095 103.463 32.2239 103.463 31.4586C103.463 30.7038 103.636 30.0235 103.98 29.4176C104.324 28.8117 104.803 28.3387 105.417 27.9985C106.028 27.6584 106.716 27.4883 107.483 27.4883C108.242 27.4883 108.92 27.6548 109.516 27.9879C110.112 28.3245 110.579 28.7958 110.916 29.4017C111.25 30.0076 111.417 30.7074 111.417 31.5011C111.417 31.6286 111.406 31.8076 111.385 32.0379ZM106.008 29.4601C105.603 29.8038 105.357 30.2609 105.268 30.8314H109.681C109.603 30.2715 109.365 29.8162 108.968 29.4654C108.57 29.1182 108.075 28.9446 107.483 28.9446C106.901 28.9446 106.409 29.1164 106.008 29.4601Z" fill="white"/>
<path fill-rule="evenodd" clip-rule="evenodd" d="M123.857 25.5965C124.514 25.8906 125.016 26.3087 125.364 26.8508C125.715 27.3929 125.891 28.0378 125.891 28.7854C125.891 29.5189 125.715 30.1603 125.364 30.7095C125.016 31.2587 124.514 31.6786 123.857 31.9691C123.204 32.2597 122.436 32.4049 121.552 32.4049H119.253V35.3388H117.357V25.1606H121.552C122.436 25.1606 123.204 25.3059 123.857 25.5965ZM123.341 30.279C123.771 29.9317 123.985 29.4339 123.985 28.7854C123.985 28.1335 123.771 27.6339 123.341 27.2866C122.915 26.9358 122.289 26.7604 121.462 26.7604H119.253V30.8051H121.462C122.289 30.8051 122.915 30.6297 123.341 30.279Z" fill="white"/>
<path d="M127.754 24.5547H129.575V35.3387H127.754V24.5547Z" fill="white"/>
<path fill-rule="evenodd" clip-rule="evenodd" d="M137.561 28.3121C138.168 28.8578 138.471 29.6834 138.471 30.7889V35.3385H136.757V34.3924C136.533 34.7326 136.214 34.993 135.799 35.1737C135.387 35.3509 134.89 35.4395 134.308 35.4395C133.726 35.4395 133.217 35.3403 132.78 35.1418C132.344 34.9434 132.007 34.667 131.769 34.3127C131.531 33.9619 131.412 33.5633 131.412 33.1168C131.412 32.4188 131.671 31.859 132.189 31.4373C132.708 31.0156 133.526 30.8048 134.644 30.8048H136.65V30.6879C136.65 30.1458 136.489 29.7294 136.166 29.4389C135.84 29.1483 135.357 29.003 134.718 29.003C134.278 29.003 133.847 29.0704 133.424 29.205C133.002 29.3397 132.645 29.5292 132.354 29.7737L131.641 28.4503C132.049 28.1385 132.541 27.9011 133.116 27.7381C133.687 27.5715 134.294 27.4883 134.936 27.4883C136.079 27.4883 136.954 27.7629 137.561 28.3121ZM135.9 33.8078C136.255 33.5987 136.505 33.2993 136.65 32.9095V32.0113H134.771C133.724 32.0113 133.201 32.355 133.201 33.0424C133.201 33.3719 133.332 33.6341 133.595 33.829C133.857 34.0204 134.221 34.116 134.686 34.116C135.144 34.1196 135.549 34.0168 135.9 33.8078Z" fill="white"/>
<path d="M147.936 27.5786L144.3 35.9656C143.96 36.8089 143.546 37.4024 143.06 37.7461C142.574 38.0898 141.986 38.2617 141.298 38.2617C140.911 38.2617 140.528 38.1997 140.148 38.0757C139.768 37.9481 139.458 37.7727 139.216 37.5495L139.946 36.2101C140.12 36.3766 140.325 36.5077 140.563 36.6034C140.801 36.7026 141.041 36.7522 141.282 36.7522C141.605 36.7522 141.869 36.669 142.075 36.5024C142.284 36.3394 142.476 36.0631 142.65 35.6733L142.783 35.3703L139.392 27.5786H141.282L143.731 33.3188L146.19 27.5786H147.936Z" fill="white"/>
<path d="M56.174 26.3778C56.174 26.7126 55.9984 27.0103 55.7109 27.175L50.4725 30.1939L46.7939 26.6435L50.8185 22.7583L55.7109 25.5805C55.9984 25.7453 56.174 26.0429 56.174 26.3778Z" fill="white"/>
<path d="M46.1285 26.0057L32.8037 13.1382L44.6007 19.176L49.9881 22.2799L46.1285 26.0057Z" fill="white"/>
<path d="M46.1288 27.2866L49.6423 30.6723L44.6222 33.5636L32.9956 39.9575L46.1288 27.2866Z" fill="white"/>
<path d="M45.4686 26.6431L32 39.6382L32.016 13.6587L45.4686 26.6431Z" fill="white"/>
</svg>
