<svg width="92" height="66" viewBox="0 0 92 66" fill="none" xmlns="http://www.w3.org/2000/svg">
<rect x="30" y="2" width="62" height="62" rx="31" fill="#FDEEFF"/>
<path d="M41.411 46.481H41.561V46.331V42.5436C41.561 40.1613 39.7355 38.3358 37.3532 38.3358H26.3969C24.0146 38.3358 22.189 40.1613 22.189 42.5436V46.331V46.481H22.339H41.411ZM16.1169 57.7078H16.2082C25.72 63.8021 37.9365 63.7946 47.4417 57.6853C47.751 57.5003 48.0868 57.4414 48.3706 57.4862C48.6551 57.5311 48.8778 57.6774 48.9869 57.8954L48.9865 57.8956L48.9924 57.9055C49.3626 58.5226 49.2321 59.237 48.6381 59.5934L48.638 59.5933L48.6336 59.5962C38.6724 66.0575 25.7493 66.327 15.3835 59.9998L15.1342 59.8476L15.1557 60.1389L15.4263 63.791L15.4256 63.791L15.4279 63.8046C15.549 64.531 15.0711 65.1178 14.3585 65.1178H14.3577H14.3569H14.3561H14.3553H14.3546H14.3538H14.353H14.3522H14.3515H14.3507H14.35H14.3492H14.3484H14.3477H14.3469H14.3462H14.3455H14.3447H14.344H14.3432H14.3425H14.3418H14.3411H14.3403H14.3396H14.3389H14.3382H14.3375H14.3368H14.3361H14.3354H14.3347H14.334H14.3333H14.3326H14.3319H14.3312H14.3305H14.3299H14.3292H14.3285H14.3279H14.3272H14.3265H14.3259H14.3252H14.3246H14.3239H14.3232H14.3226H14.322H14.3213H14.3207H14.32H14.3194H14.3188H14.3182H14.3175H14.3169H14.3163H14.3157H14.3151H14.3144H14.3138H14.3132H14.3126H14.312H14.3114H14.3108H14.3102H14.3097H14.3091H14.3085H14.3079H14.3073H14.3068H14.3062H14.3056H14.305H14.3045H14.3039H14.3033H14.3028H14.3022H14.3017H14.3011H14.3006H14.3H14.2995H14.299H14.2984H14.2979H14.2974H14.2968H14.2963H14.2958H14.2953H14.2947H14.2942H14.2937H14.2932H14.2927H14.2922H14.2917H14.2912H14.2907H14.2902H14.2897H14.2892H14.2887H14.2882H14.2877H14.2872H14.2868H14.2863H14.2858H14.2853H14.2849H14.2844H14.2839H14.2835H14.283H14.2825H14.2821H14.2816H14.2812H14.2807H14.2803H14.2798H14.2794H14.279H14.2785H14.2781H14.2777H14.2772H14.2768H14.2764H14.2759H14.2755H14.2751H14.2747H14.2743H14.2739H14.2734H14.273H14.2726H14.2722H14.2718H14.2714H14.271H14.2706H14.2702H14.2699H14.2695H14.2691H14.2687H14.2683H14.2679H14.2676H14.2672H14.2668H14.2664H14.2661H14.2657H14.2653H14.265H14.2646H14.2642H14.2639H14.2635H14.2632H14.2628H14.2625H14.2621H14.2618H14.2615H14.2611H14.2608H14.2604H14.2601H14.2598H14.2594H14.2591H14.2588H14.2585H14.2581H14.2578H14.2575H14.2572H14.2569H14.2566H14.2562H14.2559H14.2556H14.2553H14.255H14.2547H14.2544H14.2541H14.2538H14.2535H14.2532H14.253H14.2527H14.2524H14.2521H14.2518H14.2515H14.2513H14.251H14.2507H14.2504H14.2502H14.2499H14.2496H14.2494H14.2491H14.2488H14.2486H14.2483H14.2481H14.2478H14.2475H14.2473H14.247H14.2468H14.2466H14.2463H14.2461H14.2458H14.2456H14.2453H14.2451H14.2449H14.2446H14.2444H14.2442H14.244H14.2437H14.2435H14.2433H14.2431H14.2428H14.2426H14.2424H14.2422H14.242H14.2418H14.2416H14.2413H14.2411H14.2409H14.2407H14.2405H14.2403H14.2401H14.2399H14.2397H14.2395H14.2394H14.2392H14.239H14.2388H14.2386H14.2384H14.2382H14.238H14.2379H14.2377H14.2375H14.2373H14.2372H14.237H14.2368H14.2366H14.2365H14.2363H14.2361H14.236H14.2358H14.2356H14.2355H14.2353H14.2352H14.235H14.2349H14.2347H14.2346H14.2344H14.2342H14.2341H14.234H14.2338H14.2337H14.2335H14.2334H14.2332H14.2331H14.233H14.2328H14.2327H14.2326H14.2324H14.2323H14.2322H14.232H14.2319H14.2318H14.2317H14.2315H14.2314H14.2313H14.2312H14.231H14.2309H14.2308H14.2307H14.2306H14.2305H14.2304H14.2302H14.2301H14.23H14.2299H14.2298H14.2297H14.2296H14.2295H14.2294H14.2293H14.2292H14.2291H14.229H14.2289H14.2288H14.2287H14.2286H14.2285H14.2284H14.2284H14.2283H14.2282H14.2281H14.228H14.2279H14.2278H14.2278H14.2277H14.2276H14.2275H14.2274H14.2274H14.2273H14.2272H14.2271H14.227H14.227H14.2269H14.2268H14.2268H14.2267H14.2266H14.2266H14.2265H14.2264H14.2264H14.2263H14.2262H14.2262H14.2261H14.226H14.226H14.2259H14.2258H14.2257H14.2256H14.2255H14.2254H14.2253H14.2252H14.2251H14.225H14.2249H14.2248H14.2248H14.2247H14.2246H14.2245H14.2245H14.2244H14.2243H14.2243H14.2242H14.2241H14.2241H14.224H14.2239H14.2238H14.2238H14.2237H14.2236H14.2236H14.2235H14.2235H14.2234H14.2233H14.2233H14.2232C13.9237 65.1178 13.6198 64.9972 13.3915 64.7994C13.1637 64.6019 13.0206 64.3365 13.0206 64.0504H13.021L13.0202 64.0399L12.4792 56.33L12.4771 56.3001L12.4637 56.2734C12.4185 56.1829 12.4126 56.0559 12.4563 55.9101C12.4996 55.766 12.5876 55.6183 12.7061 55.4997C12.8325 55.3733 12.953 55.2844 13.0837 55.2263C13.2137 55.1685 13.3615 55.1378 13.5469 55.1378V55.1382L13.5574 55.1375L21.2674 54.5964L21.2745 54.5959L21.2815 54.5947C21.6465 54.5339 21.9388 54.6253 22.1562 54.8137C22.3771 55.0052 22.5334 55.3081 22.5968 55.6888C22.7179 56.4153 22.24 57.002 21.5274 57.002V57.0016L21.5162 57.0024L16.1057 57.4082L16.1169 57.7078ZM7.47482 17.2503V17.2495V16.8768L7.24122 17.2379L7.17557 17.2346L7.16316 17.3587C4.19433 21.9717 2.71115 27.3898 2.71115 32.94C2.71115 38.5116 4.20575 43.9499 7.19745 48.5745C7.56616 49.1911 7.4352 49.9043 6.84186 50.2603C6.22477 50.6305 5.51039 50.4999 5.15398 49.9059L5.15368 49.9054C2.05572 44.7871 0.305897 38.9974 0.305897 32.94C0.305897 27.1518 1.92121 21.4971 4.88376 16.5146L5.00216 16.3155L4.77202 16.2889L1.25901 15.8836C0.510192 15.757 0.0535004 15.1448 0.167722 14.5737L0.167798 14.5737L0.168594 14.5689C0.23204 14.1882 0.388343 13.8853 0.609202 13.6939C0.826642 13.5054 1.11891 13.414 1.48386 13.4749L1.48382 13.4751L1.49254 13.476L9.06029 14.2869C9.65974 14.4104 10.1463 15.0171 10.1506 15.6183L9.34068 22.9074C9.21417 23.5267 8.7239 23.9979 8.1364 23.9979H8.01383C7.26995 23.8683 6.81706 23.2584 6.93086 22.6894L6.9323 22.6822L6.93303 22.6749L7.46205 17.3848H7.47482V17.3848V17.3847V17.3847V17.3847V17.3847V17.3847V17.3847V17.3846V17.3846V17.3846V17.3846V17.3846V17.3845V17.3845V17.3845V17.3845V17.3844V17.3844V17.3844V17.3844V17.3844V17.3844V17.3843V17.3843V17.3843V17.3843V17.3843V17.3842V17.3842V17.3842V17.3842V17.3842V17.3841V17.3841V17.3841V17.3841V17.384V17.384V17.384V17.384V17.3839V17.3839V17.3839V17.3839V17.3838V17.3838V17.3838V17.3837V17.3837V17.3837V17.3836V17.3836V17.3836V17.3835V17.3835V17.3835V17.3834V17.3834V17.3834V17.3833V17.3833V17.3832V17.3832V17.3832V17.3831V17.3831V17.383V17.383V17.3829V17.3829V17.3829V17.3828V17.3828V17.3827V17.3827V17.3826V17.3826V17.3825V17.3825V17.3824V17.3824V17.3823V17.3822V17.3822V17.3821V17.3821V17.382V17.382V17.3819V17.3818V17.3818V17.3817V17.3816V17.3816V17.3815V17.3814V17.3814V17.3813V17.3812V17.3812V17.3811V17.381V17.381V17.3809V17.3808V17.3807V17.3806V17.3806V17.3805V17.3804V17.3803V17.3803V17.3802V17.3801V17.38V17.3799V17.3798V17.3797V17.3796V17.3796V17.3795V17.3794V17.3793V17.3792V17.3791V17.379V17.3789V17.3788V17.3787V17.3786V17.3785V17.3784V17.3783V17.3782V17.3781V17.378V17.3779V17.3778V17.3776V17.3775V17.3774V17.3773V17.3772V17.3771V17.377V17.3768V17.3767V17.3766V17.3765V17.3763V17.3762V17.3761V17.376V17.3758V17.3757V17.3756V17.3754V17.3753V17.3752V17.375V17.3749V17.3748V17.3746V17.3745V17.3743V17.3742V17.374V17.3739V17.3738V17.3736V17.3735V17.3733V17.3731V17.373V17.3728V17.3727V17.3725V17.3724V17.3722V17.372V17.3719V17.3717V17.3715V17.3714V17.3712V17.371V17.3708V17.3707V17.3705V17.3703V17.3701V17.37V17.3698V17.3696V17.3694V17.3692V17.369V17.3688V17.3687V17.3685V17.3683V17.3681V17.3679V17.3677V17.3675V17.3673V17.3671V17.3669V17.3667V17.3664V17.3662V17.366V17.3658V17.3656V17.3654V17.3652V17.3649V17.3647V17.3645V17.3643V17.364V17.3638V17.3636V17.3634V17.3631V17.3629V17.3627V17.3624V17.3622V17.3619V17.3617V17.3614V17.3612V17.361V17.3607V17.3605V17.3602V17.3599V17.3597V17.3594V17.3592V17.3589V17.3586V17.3584V17.3581V17.3578V17.3576V17.3573V17.357V17.3567V17.3565V17.3562V17.3559V17.3556V17.3553V17.355V17.3548V17.3545V17.3542V17.3539V17.3536V17.3533V17.353V17.3527V17.3524V17.3521V17.3518V17.3514V17.3511V17.3508V17.3505V17.3502V17.3499V17.3495V17.3492V17.3489V17.3486V17.3482V17.3479V17.3476V17.3472V17.3469V17.3465V17.3462V17.3459V17.3455V17.3452V17.3448V17.3445V17.3441V17.3438V17.3434V17.343V17.3427V17.3423V17.3419V17.3416V17.3412V17.3408V17.3404V17.3401V17.3397V17.3393V17.3389V17.3385V17.3381V17.3378V17.3374V17.337V17.3366V17.3362V17.3358V17.3354V17.335V17.3346V17.3341V17.3337V17.3333V17.3329V17.3325V17.3321V17.3316V17.3312V17.3308V17.3303V17.3299V17.3295V17.329V17.3286V17.3282V17.3277V17.3273V17.3268V17.3264V17.3259V17.3255V17.325V17.3245V17.3241V17.3236V17.3231V17.3227V17.3222V17.3217V17.3212V17.3208V17.3203V17.3198V17.3193V17.3188V17.3183V17.3178V17.3173V17.3168V17.3163V17.3158V17.3153V17.3148V17.3143V17.3138V17.3133V17.3127V17.3122V17.3117V17.3112V17.3106V17.3101V17.3096V17.309V17.3085V17.308V17.3074V17.3069V17.3063V17.3058V17.3052V17.3047V17.3041V17.3035V17.303V17.3024V17.3018V17.3013V17.3007V17.3001V17.2995V17.2989V17.2983V17.2978V17.2972V17.2966V17.296V17.2954V17.2948V17.2942V17.2936V17.2929V17.2923V17.2917V17.2911V17.2905V17.2898V17.2892V17.2886V17.288V17.2873V17.2867V17.286V17.2854V17.2848V17.2841V17.2835V17.2828V17.2821V17.2815V17.2808V17.2801V17.2795V17.2788V17.2781V17.2775V17.2768V17.2761V17.2754V17.2747V17.274V17.2733V17.2726V17.2719V17.2712V17.2705V17.2698V17.2691V17.2684V17.2677V17.2669V17.2662V17.2655V17.2648V17.264V17.2633V17.2625V17.2618V17.2611V17.2603V17.2596V17.2588V17.258V17.2573V17.2565V17.2558V17.255V17.2542V17.2534V17.2527V17.2519V17.2511V17.2503ZM50.1913 1.0474L50.1909 1.04747L50.1937 1.05745L52.2226 8.4969L52.2249 8.50518L52.228 8.51314C52.3418 8.79764 52.2883 9.11984 52.121 9.39369C51.9531 9.66837 51.6817 9.87537 51.3911 9.9335L51.391 9.9333L51.3835 9.93522L43.9622 11.8243H43.962H43.9612H43.9604H43.9596H43.9588H43.958H43.9573H43.9565H43.9557H43.9549H43.9541H43.9533H43.9525H43.9517H43.9509H43.9501H43.9493H43.9485H43.9477H43.947H43.9462H43.9454H43.9446H43.9438H43.943H43.9422H43.9414H43.9406H43.9398H43.939H43.9382H43.9374H43.9366H43.9359H43.9351H43.9343H43.9335H43.9327H43.9319H43.9311H43.9303H43.9295H43.9287H43.9279H43.9271H43.9263H43.9256H43.9248H43.924H43.9232H43.9224H43.9216H43.9208H43.92H43.9192H43.9184H43.9176H43.9168H43.916H43.9152H43.9145H43.9137H43.9129H43.9121H43.9113H43.9105H43.9097H43.9089H43.9081H43.9073H43.9065H43.9057H43.9049H43.9042H43.9034H43.9026H43.9018H43.901H43.9002H43.8994H43.8986H43.8978H43.897H43.8962H43.8954H43.8946H43.8938H43.8931H43.8923H43.8915H43.8907H43.8899H43.8891H43.8883H43.8875H43.8867H43.8859H43.8851H43.8843H43.8835H43.8828H43.882H43.8812H43.8804H43.8796H43.8788H43.878H43.8772H43.8764H43.8756H43.8748H43.874H43.8732H43.8725H43.8717H43.8709H43.8701H43.8693H43.8685H43.8677H43.8669H43.8661H43.8653H43.8645H43.8637H43.8629H43.8621H43.8614H43.8606H43.8598H43.859H43.8582H43.8574H43.8566H43.8558H43.855H43.8542H43.8534H43.8526H43.8518H43.8511H43.8503H43.8495H43.8487H43.8479H43.8471H43.8463H43.8455H43.8447H43.8439H43.8431H43.8423H43.8415H43.8407H43.84H43.8392H43.8384H43.8376H43.8368H43.836H43.8352H43.8344H43.8336H43.8328H43.832H43.8312H43.8304H43.8297H43.8289H43.8281H43.8273H43.8265H43.8257H43.8249H43.8241H43.8233H43.8225H43.8217H43.8209H43.8201H43.8193H43.8186H43.8178H43.817H43.8162H43.8154H43.8146H43.8138H43.813H43.8122H43.8114H43.8106H43.8098H43.809H43.8083H43.8075H43.8067H43.8059H43.8051H43.8043H43.8035H43.8027H43.8019H43.8011H43.8003H43.7995H43.7987H43.798H43.7972H43.7964H43.7956H43.7948H43.794H43.7932H43.7924H43.7916H43.7908H43.79H43.7892H43.7884H43.7876H43.7869H43.7861H43.7853H43.7845H43.7837H43.7829H43.7821H43.7813H43.7805H43.7797H43.7789H43.7781H43.7773H43.7766H43.7758H43.775H43.7742H43.7734H43.7726H43.7718H43.771H43.7702H43.7694H43.7686H43.7678H43.767H43.7662H43.7655H43.7647H43.7639H43.7631H43.7623H43.7615H43.7607H43.7599H43.7591H43.7583H43.7575H43.7567H43.7559H43.7551H43.7544H43.7536H43.7528H43.752H43.7512H43.7504H43.7496H43.7488H43.748H43.7472H43.7464H43.7456H43.7448H43.7441H43.7433H43.7425H43.7417H43.7409H43.7401H43.7393H43.7385H43.7377H43.7369H43.7361H43.7353H43.7345H43.7337H43.733H43.7322H43.7314H43.7306H43.7298H43.729H43.7282H43.7274H43.7266H43.7258H43.725H43.7242H43.7234H43.7227H43.7219H43.7211H43.7203H43.7195H43.7187H43.7179H43.7171H43.7163H43.7155H43.7147H43.7139H43.7131H43.7124H43.7116H43.7108H43.71H43.7092H43.7084H43.7076H43.7068H43.706H43.7052H43.7044H43.7036H43.7028H43.702H43.7013H43.7005H43.6997H43.6989H43.6981H43.6973H43.6965H43.6957H43.6949H43.6941H43.6933H43.6925H43.6917H43.691H43.6902H43.6894H43.6886H43.6878H43.687H43.6862H43.6854H43.6846H43.6838H43.683H43.6822H43.6814H43.6806H43.6799H43.6791H43.6783H43.6775H43.6767H43.6759H43.6751H43.6743H43.6735H43.6727H43.6719H43.6711H43.6703H43.6696H43.6688H43.668H43.6672H43.6664H43.6656H43.6648H43.664H43.6632H43.6624H43.6616H43.6608H43.66H43.6592H43.6585H43.6577H43.6569H43.6561H43.6553H43.6545H43.6537H43.6529H43.6521H43.6513H43.6505H43.6497H43.6489H43.6482H43.6474H43.6466H43.6458H43.645H43.6442H43.6434H43.6426H43.6418H43.641H43.6402H43.6394H43.6386H43.6379H43.6371H43.6363H43.6355H43.6347H43.6339H43.6331H43.6323H43.6315H43.6307H43.6299H43.6291H43.6283H43.6275H43.6268H43.626H43.6252H43.6244H43.6236H43.6228H43.622H43.6212H43.6204H43.6196H43.6188H43.618H43.6172H43.6165H43.6157H43.6149H43.6141H43.6133H43.6125H43.6117H43.6109H43.6101H43.6093H43.6085H43.6077H43.6069H43.6061H43.6054H43.6046H43.6038H43.603H43.6022H43.6014H43.6006H43.5998H43.599H43.5982H43.5974H43.5966H43.5958H43.5951H43.5943H43.5935H43.5927H43.5919H43.5911H43.5903H43.5895H43.5887H43.5879H43.5871H43.5863H43.5855H43.5848H43.584H43.5832H43.5824H43.5816H43.5808H43.58H43.5792H43.5784H43.5776H43.5768H43.576H43.5752C43.2552 11.8243 42.982 11.76 42.7771 11.6283C42.5765 11.4993 42.4298 11.2986 42.3697 10.998C42.252 10.4096 42.5981 9.80029 43.3468 9.54838L47.6695 8.46769L47.6331 8.17217H47.5404C42.9267 5.33153 37.5029 3.7085 31.9426 3.7085C26.3711 3.7085 20.9327 5.2031 16.3081 8.19482C15.6915 8.5635 14.9784 8.43254 14.6224 7.83921C14.2521 7.22212 14.3827 6.50774 14.9767 6.15133L14.9767 6.15136L14.9796 6.14953C20.0967 2.91769 25.8854 1.16798 31.9426 1.16798C37.8666 1.16798 43.655 2.78347 48.7704 6.01426L49.0903 6.21629L48.9957 5.84996L47.9136 1.65681L47.9112 1.64751L47.9077 1.63859C47.7939 1.35409 47.8474 1.03189 48.0147 0.758043C48.1826 0.483365 48.454 0.276365 48.7446 0.21823L48.7581 0.215529L48.7709 0.210414C49.0554 0.0966158 49.3776 0.150137 49.6515 0.31749C49.9262 0.485348 50.1332 0.756724 50.1913 1.0474ZM62.7671 50.2676L62.7748 50.2684H62.7826C63.338 50.2684 63.8443 50.8314 63.8499 51.7266C63.7207 52.3419 63.2322 52.8089 62.6473 52.8089H62.52L54.9695 51.9999C54.5936 51.8735 54.3527 51.7508 54.1136 51.517C53.9844 51.2583 53.8716 51.0203 53.87 50.6671L54.6802 42.9697C54.8018 42.253 55.3936 41.887 56.007 41.8821C56.7507 42.0119 57.2035 42.6216 57.0897 43.1905L57.0891 43.1904L57.0877 43.2038L56.5466 48.2086L56.8233 48.3035C59.6786 43.6807 61.1741 38.3781 61.1741 32.94C61.1741 27.3684 59.6795 21.93 56.6878 17.3055C56.3191 16.6889 56.4501 15.9757 57.0434 15.6197C57.6605 15.2495 58.3749 15.38 58.7313 15.9741L58.7316 15.9746C61.8296 21.0929 63.5794 26.8826 63.5794 32.94C63.5794 38.8621 61.8296 44.6511 58.7325 49.6334L58.6059 49.8371L58.8445 49.8618L62.7671 50.2676ZM19.7837 47.6836V42.5436C19.7837 38.9724 22.6943 35.9305 26.3969 35.9305H37.3532C41.0577 35.9305 43.9663 38.8391 43.9663 42.5436V47.6836C43.9663 48.0553 43.843 48.3534 43.6383 48.5582C43.4335 48.763 43.1354 48.8863 42.7637 48.8863H20.9864C20.6147 48.8863 20.3166 48.763 20.1118 48.5582C19.907 48.3534 19.7837 48.0553 19.7837 47.6836ZM38.9616 26.0416C38.9616 27.8274 38.1997 29.7206 36.9358 31.1674C35.6728 32.6133 33.9193 33.6016 31.9426 33.6016C29.8975 33.6016 28.1445 32.6125 26.8994 31.1682C25.653 29.7224 24.9237 27.8292 24.9237 26.0416C24.9237 22.2055 28.0991 19.1579 31.9426 19.1579C35.7843 19.1579 38.9616 22.3389 38.9616 26.0416ZM36.5563 26.0416C36.5563 23.5181 34.4541 21.5632 31.9426 21.5632C29.2929 21.5632 27.329 23.521 27.329 26.0416C27.329 27.2295 27.8167 28.5138 28.6313 29.5017C29.4467 30.4906 30.6019 31.1963 31.9426 31.1963C33.2834 31.1963 34.4386 30.4906 35.254 29.5017C36.0686 28.5138 36.5563 27.2295 36.5563 26.0416Z" fill="#CF63CB" stroke="white" stroke-width="0.3"/>
</svg>
