<svg width="53" height="50" viewBox="0 0 53 50" fill="none" xmlns="http://www.w3.org/2000/svg">
<path d="M40.6649 0.255159C40.2873 0.622507 40.318 1.13271 40.7261 1.46945C41.022 1.71434 41.1037 1.73475 42.1139 1.73475H43.1853L42.9098 2.06128C42.4812 2.58169 39.971 4.91842 38.6343 6.05108C31.92 11.6837 23.6037 16.0001 14.5629 18.5205C12.8384 19.0001 11.471 19.3266 9.13429 19.796C7.42 20.1429 7.1751 20.2143 6.97102 20.4592C6.83837 20.6021 6.73633 20.8368 6.73633 20.9796C6.73633 21.3164 7.25674 21.8368 7.58327 21.8368C7.98123 21.8368 11.7057 21.0613 13.522 20.5919C18.6445 19.296 23.1241 17.6225 27.7057 15.3062C33.4404 12.4082 38.022 9.17353 42.8384 4.6123L44.3894 3.14292V3.97965C44.3894 4.76536 44.4098 4.82659 44.6853 5.1123C45.0731 5.48985 45.522 5.51026 45.869 5.15312C46.1241 4.90822 46.1241 4.90822 46.1241 2.70414C46.1241 0.500057 46.1241 0.500057 45.869 0.255159L45.6241 5.72205e-05H43.2669H40.9098L40.6649 0.255159Z" fill="#02C39A"/>
<path d="M37.135 14.1531C36.9819 14.1735 36.6146 14.3367 36.3186 14.5204C35.6758 14.9082 35.2574 15.5204 35.1043 16.3163C35.0431 16.6735 35.0023 21.5102 35.0023 29.9592V43.0612H33.3697H31.737V32.8265C31.737 23.1429 31.7268 22.5816 31.5431 22.1939C31.2982 21.6531 30.7778 21.1429 30.2064 20.8776C29.7676 20.6735 29.5839 20.6633 26.1248 20.6633C22.6656 20.6633 22.4819 20.6735 22.0431 20.8776C21.4717 21.1429 20.9513 21.6531 20.7064 22.1939C20.5227 22.5816 20.5125 23.0918 20.5125 31.2959C20.5125 39.8265 20.5125 40 20.7166 40.2041C21.1758 40.6633 21.8594 40.5408 22.0941 39.949C22.2268 39.6531 22.2472 38.3163 22.2472 31.2449V22.8878L22.5125 22.6429L22.7778 22.398H26.1248H29.4717L29.737 22.6429L30.0023 22.8878V32.9796V43.0612H23.6248H17.2574L17.2268 36.1429C17.1962 29.7755 17.186 29.2041 17.0125 28.8367C16.7268 28.1837 16.3901 27.8265 15.8084 27.5L15.2574 27.1939H11.5839C8.07373 27.1939 7.89006 27.2041 7.45128 27.4082C6.87986 27.6735 6.35945 28.1837 6.11455 28.7245C5.94108 29.102 5.92067 29.5306 5.92067 34.7551C5.92067 41.051 5.89006 40.7551 6.64516 40.8776C6.94108 40.9286 7.06353 40.8878 7.30843 40.6837L7.60435 40.4286L7.63496 34.9184L7.65537 29.4184L7.92067 29.1735L8.18598 28.9286H11.5329H14.8799L15.1452 29.1735L15.4003 29.4184L15.4309 36.8571L15.4615 44.3061L15.7472 44.551L16.0329 44.7959H32.9717H49.9207L50.2166 45.0918C50.5023 45.3878 50.5125 45.4184 50.5125 46.4796C50.5125 47.602 50.3901 48.0714 50.0533 48.2041C49.8288 48.2857 2.42067 48.2857 2.19618 48.2041C1.85945 48.0714 1.737 47.602 1.737 46.4796C1.737 45.4184 1.7472 45.3878 2.03292 45.0918L2.32884 44.7959H7.08394H11.8288L12.1043 44.551C12.4921 44.2245 12.4921 43.6327 12.0941 43.2857L11.8186 43.051L6.85945 43.0816C1.9921 43.1122 1.87986 43.1122 1.4819 43.3367C1.00231 43.5918 0.502306 44.0918 0.247204 44.5918C-0.0283063 45.102 -0.0895308 47.5306 0.145163 48.2347C0.369653 48.9082 0.818632 49.4184 1.45129 49.7347L1.9819 50H26.1248H50.2676L50.7982 49.7347C51.4309 49.4184 51.8799 48.9082 52.1043 48.2347C52.2268 47.8571 52.2574 47.4388 52.2268 46.3469C52.186 44.7959 52.0737 44.4286 51.4105 43.8163C50.6248 43.0714 51.1146 43.1122 43.6043 43.0816L36.839 43.051V29.7041V16.3571L37.1043 16.1122L37.3697 15.8673H40.7166H44.0635L44.3288 16.1122L44.5941 16.3571L44.6146 27.8673L44.6452 39.3673L44.8901 39.6327C45.1962 39.9592 45.686 39.9796 46.0635 39.6837L46.3288 39.4796V27.7755C46.3288 16.5918 46.3186 16.051 46.135 15.6633C45.8799 15.1224 45.3594 14.6122 44.7982 14.3469C44.3594 14.1429 44.1656 14.1327 40.8697 14.1224C38.9615 14.1122 37.2778 14.1224 37.135 14.1531Z" fill="#02C39A"/>
</svg>
