<svg width="49" height="50" viewBox="0 0 49 50" fill="none" xmlns="http://www.w3.org/2000/svg">
<path d="M23.9267 0.0717545C23.7899 0.110836 23.399 0.296486 23.057 0.472366L22.4219 0.804585L21.6793 0.540764C20.7901 0.228088 20.6533 0.218319 20.2332 0.472366C19.5785 0.872982 19.344 2.07483 19.6762 3.35484C19.8521 4.02904 20.6045 5.64127 21.2592 6.75517C21.6207 7.38052 21.6793 7.54663 21.5718 7.61503C21.3569 7.75182 21.2885 7.72251 20.8488 7.3219C19.901 6.45227 18.875 6.1396 16.9892 6.14936C15.416 6.15914 14.908 6.05165 13.9113 5.54356C13.0319 5.09409 12.8658 5.08432 12.5433 5.40676C12.0255 5.92463 12.3284 6.42295 13.5009 6.97013C14.605 7.49778 15.2304 7.61503 17.0087 7.63457C18.4842 7.65411 18.6405 7.67365 19.09 7.89839C19.5492 8.12312 20.5068 8.91458 20.5068 9.07092C20.5068 9.11 20.1453 9.16863 19.7056 9.19794C17.3312 9.36405 15.3476 10.1848 14.1263 11.5039C13.4325 12.2563 13.2176 12.7058 13.3739 13.0771C13.5009 13.3897 13.9406 13.6145 14.2435 13.5168C14.351 13.4874 14.6637 13.1748 14.9275 12.8328C15.6896 11.8752 16.6277 11.3085 18.1129 10.9274C18.5428 10.8199 19.2561 10.7027 19.7153 10.6734L20.5556 10.6245L20.3016 10.8493C20.1648 10.9763 19.5492 11.4941 18.9434 12.0022C14.6637 15.6078 11.4978 20.2295 10.296 24.646C9.88561 26.1508 9.74882 27.1083 9.69019 28.828L9.63157 30.4598L8.93782 30.411C7.70666 30.323 7.60895 30.2937 7.60895 30.0201C7.60895 29.0723 6.88589 28.0561 6.05535 27.8314C5.78176 27.763 4.9219 27.7337 3.56372 27.7532C1.50202 27.7825 1.50202 27.7825 1.03301 28.0561C0.778964 28.2027 0.446747 28.5154 0.300181 28.7303L0.0363617 29.1407L0.00704846 38.179C-0.0124937 44.5204 0.00704846 47.3345 0.0852171 47.5983C0.222012 48.0771 0.720338 48.634 1.20889 48.849C1.55088 49.0053 1.8831 49.0346 3.808 49.0346C5.92833 49.0346 6.03581 49.0249 6.44619 48.8099C6.9836 48.5265 7.47216 47.823 7.56987 47.2172C7.61872 46.8655 7.66758 46.7775 7.7946 46.8166C7.88254 46.8361 9.68042 47.5006 11.791 48.292C14.5562 49.318 15.8753 49.7675 16.5006 49.875C17.2432 50.002 18.3669 50.0118 23.8485 49.9922C30.1997 49.9531 30.3463 49.9531 31.1084 49.7382C31.5383 49.6209 32.2419 49.3473 32.6718 49.1421C33.1017 48.9369 35.8278 47.2661 38.7299 45.4193C41.6319 43.5824 44.7098 41.6282 45.5696 41.0908C47.3382 39.9768 47.7779 39.6153 48.1394 38.9216C48.3641 38.5014 48.4032 38.3158 48.4032 37.5536C48.4032 36.7915 48.3641 36.6058 48.1394 36.1857C47.8365 35.5994 47.2795 35.0229 46.7421 34.7395C46.4295 34.5637 46.1852 34.5246 45.4719 34.5246C44.7 34.5246 44.4948 34.5637 43.8108 34.8568C43.3809 35.0327 42.9705 35.1988 42.9119 35.2281C42.8337 35.2574 42.8826 35.062 43.0291 34.7395C43.3809 33.9383 43.7326 32.6583 43.9183 31.476C44.1333 30.0885 44.0649 27.4503 43.7717 26.0237C43.078 22.6527 41.4267 19.3012 38.9546 16.2722C37.9873 15.0899 37.5964 14.7381 37.2446 14.7381C36.844 14.7381 36.5314 15.0313 36.5314 15.4123C36.5314 15.6273 36.7072 15.9009 37.2251 16.5067C39.8731 19.5748 41.5928 22.8286 42.2963 26.1312C42.5894 27.5089 42.6676 30.0787 42.4526 31.3978C42.1888 33.0003 41.329 35.2379 40.6548 36.1075C40.557 36.2345 38.7494 37.0748 36.0233 38.2767C33.561 39.3613 31.5286 40.2407 31.4993 40.2407C31.4699 40.2407 31.4504 39.9866 31.4406 39.6739C31.4211 37.5048 29.8675 35.5799 27.796 35.1695C27.5224 35.1109 25.4119 34.847 23.0961 34.5832C17.9272 33.9872 17.9077 33.9774 15.3379 32.4922C14.0676 31.7691 13.4911 31.5053 12.2502 31.0949C11.322 30.792 11.2731 30.7627 11.1949 30.45C11.0484 29.9322 11.1949 27.3135 11.4197 26.2192C12.4554 21.2848 15.631 16.5751 20.7511 12.3931C21.4448 11.8264 21.4937 11.8068 21.6989 11.9436C22.6271 12.5299 26.5062 12.8816 28.9099 12.5885C29.9847 12.4517 31.128 12.1488 31.597 11.8557L31.978 11.6309L32.9454 12.4322C34.4306 13.6438 34.5967 13.761 34.8312 13.761C35.1439 13.761 35.4468 13.4679 35.5152 13.0966C35.5738 12.7937 35.5347 12.7351 35.0168 12.2563C34.7042 11.9632 34.069 11.4258 33.5903 11.0642L32.7304 10.39L32.7206 9.75489C32.7109 9.06115 32.5252 8.53351 32.1051 8.03518L31.8412 7.72251L32.3689 6.8822C33.3948 5.25043 34.0984 3.59911 34.2352 2.50475C34.3524 1.56673 33.9518 0.638477 33.3167 0.374657C32.9942 0.247631 32.7206 0.296486 31.8315 0.628704L31.382 0.804585L30.6101 0.423512C29.9359 0.0912933 29.7502 0.0424385 29.1542 0.0424385C28.5582 0.0326691 28.3725 0.0815239 27.7472 0.403969C27.3465 0.599392 26.9557 0.765499 26.8678 0.765499C26.7896 0.765499 26.3987 0.599392 25.9981 0.403969C25.236 0.0326691 24.4445 -0.0943565 23.9267 0.0717545ZM25.5193 1.811C26.1056 2.11391 26.3303 2.17253 26.8678 2.17253C27.4345 2.18231 27.6006 2.13345 28.2162 1.811C28.607 1.61559 29.0272 1.44947 29.164 1.44947C29.291 1.44947 29.7111 1.61559 30.0922 1.811C30.6687 2.11391 30.8739 2.17253 31.382 2.16277C31.724 2.16277 32.1539 2.09437 32.3689 1.99665C32.5838 1.90872 32.7695 1.85986 32.7988 1.88918C32.9161 2.00643 32.6034 3.17896 32.2321 4.01927C31.8901 4.79118 30.9228 6.51089 30.5319 7.03853C30.444 7.15579 29.9945 7.28281 28.9979 7.46846C27.7374 7.70297 27.4443 7.72251 26.2229 7.66388C24.767 7.60526 23.4772 7.39029 23.272 7.19487C22.9984 6.91151 21.6598 4.47851 21.3764 3.75545C21.0833 2.98354 20.8976 2.18231 20.966 1.96734C20.9953 1.88918 21.1126 1.89894 21.3666 2.00643C21.5621 2.09437 21.992 2.16277 22.3144 2.17253C22.8128 2.18231 23.018 2.12368 23.6335 1.82078C24.0341 1.61559 24.4641 1.44947 24.5911 1.44947C24.7083 1.44947 25.1285 1.61559 25.5193 1.811ZM23.7312 8.8755C25.5487 9.25657 27.9328 9.23703 29.76 8.81687C30.102 8.7387 30.4928 8.70939 30.6296 8.7387C31.1573 8.8755 31.4406 9.86238 31.0986 10.39C30.9032 10.6831 30.3756 10.859 28.9392 11.0838C26.9362 11.3964 23.1157 11.1228 22.3242 10.605C21.7868 10.2532 21.7966 9.30542 22.334 8.8755C22.6369 8.64099 22.588 8.64099 23.7312 8.8755ZM5.89901 29.4436L6.14329 29.6781V31.8962C6.14329 34.0458 6.15306 34.124 6.35825 34.3487C6.6123 34.6223 7.01292 34.6418 7.32559 34.3878C7.55032 34.2119 7.5601 34.124 7.58941 32.971L7.62849 31.7398L7.98025 31.7887C8.17567 31.8082 8.68377 31.8571 9.10393 31.8864C10.8041 32.0134 12.3968 32.5704 14.7809 33.8797C16.6277 34.8861 17.6048 35.2965 18.6307 35.5017C19.0509 35.5799 21.1614 35.8437 23.3404 36.088C25.5193 36.3322 27.5224 36.5961 27.7862 36.6742C28.5484 36.899 29.1933 37.4461 29.5939 38.2278C29.9066 38.8434 29.9359 38.9607 29.9359 39.7912V40.6804L25.9493 40.7292C22.1386 40.7781 21.9529 40.7878 21.8161 40.9637C21.6207 41.2373 21.65 41.6379 21.865 41.9115L22.0506 42.146L26.3499 42.1753C30.3756 42.1949 30.6785 42.1851 31.128 42.019C31.382 41.9115 33.0919 41.1689 34.9191 40.3677C44.8661 35.9805 44.7684 36.0196 45.3253 35.9707C45.7748 35.9316 45.9116 35.9609 46.195 36.1564C46.6835 36.4886 46.9082 36.8501 46.9571 37.3777C47.0157 37.9835 46.8203 38.4721 46.3904 38.8043C45.6478 39.3515 32.3787 47.696 31.8901 47.911C30.5417 48.5168 30.7566 48.4972 23.3893 48.4972C16.6863 48.4972 16.6472 48.4972 16.0121 48.2823C15.6603 48.165 13.6279 47.4126 11.4978 46.6212L7.60895 45.1751V41.1885C7.60895 36.7719 7.59918 36.7035 7.01292 36.5765C6.78818 36.5277 6.64161 36.557 6.44619 36.7035L6.19214 36.8892L6.14329 42.0581C6.11398 44.9015 6.08466 47.2368 6.06512 47.2465C6.05535 47.2563 5.97718 47.3345 5.88924 47.4126C5.76222 47.5494 5.43 47.569 3.74937 47.569C1.80493 47.569 1.75607 47.569 1.60951 47.354C1.47271 47.1586 1.45317 46.1424 1.45317 38.3646V29.6L1.66813 29.3948C1.86355 29.2091 2.00035 29.1993 3.76892 29.1993C5.65474 29.1993 5.66451 29.1993 5.89901 29.4436Z" fill="#E36414"/>
<path d="M26.497 15.2267C26.1843 15.3537 26.0768 15.6273 26.0768 16.3406V16.9855L25.6273 17.093C25.3831 17.1614 24.9238 17.3763 24.6112 17.5913C23.5656 18.285 22.9794 19.5162 23.0673 20.8353C23.1553 22.1251 23.8099 22.9556 25.3147 23.6982L26.067 24.0695L26.0768 26.9813V29.8931L25.6176 29.8345C25.3538 29.8051 24.7968 29.6 24.3669 29.385C23.9369 29.1798 23.4679 29.0039 23.3116 29.0039C22.7058 29.0039 22.4322 29.7856 22.9012 30.2155C23.3214 30.6064 24.406 31.0754 25.256 31.2317L26.0768 31.3881V32.0818C26.0768 32.6876 26.1061 32.8049 26.3016 32.9905C26.6045 33.2739 27.0051 33.2641 27.2982 32.9612C27.5132 32.756 27.5425 32.6388 27.5425 32.0036V31.2903L28.031 31.1633C28.6173 31.0168 29.526 30.4403 29.9559 29.9517C30.7474 29.0528 31.0992 28.0366 31.0405 26.825C30.9624 25.1053 30.0048 23.962 28.0603 23.2781L27.5425 23.1022V20.7767C27.5425 18.8615 27.562 18.4511 27.6793 18.4511C27.8845 18.4511 28.5098 18.7345 28.9007 18.9983C29.3404 19.3012 29.6433 19.2915 29.9364 18.9886C30.2295 18.7052 30.2491 18.3632 29.9852 18.031C29.7312 17.7085 28.5489 17.1125 27.9822 17.0246L27.5425 16.9659V16.3894C27.5425 15.7152 27.4155 15.383 27.0832 15.2365C26.8096 15.1094 26.7901 15.1094 26.497 15.2267ZM26.0768 20.5031V22.4671L25.8619 22.3498C24.8554 21.8222 24.5134 21.3629 24.5134 20.5519C24.5134 19.7898 24.8847 19.1351 25.5394 18.7345C26.0768 18.3925 26.0768 18.3827 26.0768 20.5031ZM28.2753 24.9587C29.184 25.3886 29.5944 26.0433 29.5944 27.0888C29.5944 28.1734 28.9007 29.2286 27.9138 29.639L27.5425 29.7856V27.2451C27.5425 25.5156 27.5718 24.7046 27.65 24.7046C27.6988 24.7046 27.9919 24.8121 28.2753 24.9587Z" fill="#E36414"/>
</svg>
