<svg width="25" height="29" viewBox="0 0 25 29" fill="none" xmlns="http://www.w3.org/2000/svg">
<path d="M12.2093 0.410742C12.0821 0.543945 12.076 0.604492 12.076 1.62168C12.076 2.61465 12.0882 2.70547 12.1971 2.81445C12.2637 2.88105 12.3969 2.93555 12.4999 2.93555C12.6028 2.93555 12.736 2.88105 12.8026 2.81445C12.9177 2.69941 12.9237 2.61465 12.9237 1.61563C12.9237 0.562109 12.9177 0.531836 12.7844 0.404688C12.6028 0.235156 12.3727 0.235156 12.2093 0.410742Z" fill="#FF4E43"/>
<path d="M4.14441 3.71055C3.96277 3.76504 3.84167 3.92852 3.84167 4.11621C3.84167 4.27969 3.95066 4.41289 4.61667 5.07285C5.10105 5.55117 5.44011 5.8418 5.51882 5.8418C5.73074 5.8418 5.96082 5.61172 5.96082 5.40586C5.96082 5.24844 5.84578 5.10313 5.25242 4.50371C4.57429 3.81348 4.33816 3.65 4.14441 3.71055Z" fill="#FF4E43"/>
<path d="M20.5768 3.75293C20.48 3.79531 20.0925 4.14043 19.7231 4.52187C19.1479 5.10918 19.0389 5.24843 19.0389 5.40585C19.0389 5.52089 19.0874 5.64199 19.1721 5.7207C19.4325 5.95683 19.5536 5.89628 20.3831 5.07285C21.0491 4.41289 21.1581 4.27968 21.1581 4.11621C21.1581 3.80136 20.8735 3.62578 20.5768 3.75293Z" fill="#FF4E43"/>
<path d="M11.8037 4.14648C10.7623 4.24336 9.83589 4.50371 8.83687 4.99414C6.57241 6.1082 4.94976 8.22129 4.40484 10.7461C4.32007 11.1518 4.29585 11.515 4.30191 12.4717C4.30796 13.6221 4.31401 13.7189 4.4896 14.3789C4.88921 15.8926 5.34937 16.6979 6.77827 18.375C7.19605 18.8715 7.67437 19.8221 7.83784 20.4941C7.92261 20.8393 7.9771 21.2873 7.99526 21.8564C8.01343 22.3227 8.03765 22.7889 8.05581 22.8918C8.09819 23.1945 8.41304 23.6123 8.71577 23.7697L8.98823 23.915V25.7254C8.98823 26.9061 9.01245 27.6145 9.05483 27.7658C9.15776 28.0988 9.44839 28.4197 9.79956 28.5832C10.1084 28.7285 10.1144 28.7285 12.5 28.7285C14.8855 28.7285 14.8916 28.7285 15.2003 28.5832C15.5515 28.4197 15.8421 28.0988 15.9451 27.7658C15.9875 27.6145 16.0117 26.9061 16.0117 25.7193V23.8969L16.1994 23.8242C16.4476 23.7152 16.7322 23.4246 16.8654 23.1279C16.9562 22.9342 16.9804 22.7283 16.9804 22.1229C16.9804 20.3609 17.3982 19.259 18.5486 17.9814C19.6748 16.7281 20.3771 15.2871 20.6435 13.6584C20.7707 12.9016 20.7404 11.4 20.583 10.6855C20.2197 9.03867 19.4386 7.64004 18.2337 6.46543C17.0955 5.36348 15.8664 4.68535 14.3527 4.32812C13.8986 4.21914 12.6876 4.07383 12.4091 4.09199C12.3425 4.09805 12.0701 4.12226 11.8037 4.14648ZM13.6564 5.05469C15.1095 5.26055 16.6171 6.02949 17.707 7.11934C19.1298 8.53613 19.8867 10.3707 19.8867 12.3809C19.8867 14.2639 19.2449 15.9107 17.9431 17.376C17.0531 18.3811 16.6171 19.1621 16.3326 20.2398C16.2115 20.7061 16.1751 21.033 16.1509 21.8201C16.1146 22.7586 16.1085 22.8252 15.9753 22.9584C15.8603 23.0674 15.7695 23.0977 15.497 23.0977H15.164V18.2539V13.4162L13.9834 11.0549C12.724 8.52402 12.7421 8.5543 12.3486 8.65117C12.2154 8.6875 12.0216 9.03262 11.0166 11.0549L9.83589 13.4162V18.2539V23.0977H9.50288C9.23042 23.0977 9.1396 23.0674 9.02456 22.9584C8.89741 22.8312 8.8853 22.7586 8.84898 21.8564C8.80659 20.6879 8.64312 19.9674 8.2314 19.1076C7.92261 18.4658 7.60171 17.9936 7.06284 17.3941C6.14253 16.3648 5.60972 15.3598 5.25249 13.9672C5.10718 13.3859 5.07691 11.8238 5.20405 11.1275C5.56734 9.09922 6.71167 7.34941 8.39487 6.22324C9.96909 5.17578 11.7189 4.78828 13.6564 5.05469ZM12.6998 10.3525C12.7906 10.5402 12.8632 10.7158 12.8632 10.7461C12.8632 10.7824 12.6998 10.8066 12.5 10.8066C12.3001 10.8066 12.1367 10.7824 12.1367 10.7461C12.1367 10.6613 12.4576 10.0195 12.5 10.0195C12.5181 10.0195 12.6089 10.1709 12.6998 10.3525ZM13.7412 12.4414C13.9591 12.8713 14.1347 13.2527 14.1347 13.2891C14.1347 13.4162 13.7835 13.3436 13.5595 13.168C13.4324 13.065 13.3052 12.9863 13.275 12.9863C13.1962 12.9863 12.9722 13.1074 12.8753 13.2104C12.6816 13.398 12.288 13.3799 12.0943 13.174C11.8945 12.9621 11.7007 12.9621 11.4464 13.1619C11.2164 13.3436 10.8652 13.4223 10.8652 13.2891C10.8652 13.2527 11.0408 12.8713 11.2587 12.4414L11.6523 11.6543H12.5H13.3476L13.7412 12.4414ZM11.3496 18.6293V23.0977H11.0166H10.6835V18.6596C10.6835 16.2135 10.6957 14.2033 10.7078 14.1912C10.7259 14.1791 10.8712 14.167 11.0408 14.167H11.3496V18.6293ZM12.8027 18.6293V23.0977H12.5H12.1972V18.6293V14.167H12.5H12.8027V18.6293ZM14.3042 18.6414L14.3164 23.0977H13.9834H13.6503V18.6293V14.167L13.9712 14.173L14.2861 14.1852L14.3042 18.6414ZM15.164 24.7324V25.5195H12.5H9.83589V24.7324V23.9453H12.5H15.164V24.7324ZM15.164 26.9484C15.164 27.5055 15.158 27.5357 14.9884 27.7053L14.8128 27.8809H12.5H10.1871L10.0115 27.7053C9.84194 27.5357 9.83589 27.5055 9.83589 26.9484V26.3672H12.5H15.164V26.9484Z" fill="#FF4E43"/>
<path d="M0.517705 12.1145C0.354229 12.3264 0.360283 12.4717 0.541924 12.6533C0.687236 12.8047 0.7054 12.8047 1.74075 12.8047C2.67923 12.8047 2.81243 12.7926 2.93958 12.6957C3.10911 12.5564 3.12122 12.2537 2.9638 12.0781C2.86087 11.9631 2.78216 11.957 1.74681 11.957H0.638799L0.517705 12.1145Z" fill="#FF4E43"/>
<path d="M22.0058 12.1205C21.8544 12.3143 21.8847 12.5383 22.0784 12.6957C22.1874 12.7926 22.3388 12.8047 23.2591 12.8047C24.2944 12.8047 24.3126 12.8047 24.4579 12.6533C24.6395 12.4717 24.6456 12.3264 24.4821 12.1145L24.361 11.957H23.247H22.1329L22.0058 12.1205Z" fill="#FF4E43"/>
<path d="M4.5864 19.6646C3.9446 20.3064 3.84167 20.4336 3.84167 20.6031C3.84167 20.8393 4.02332 21.0391 4.24734 21.0391C4.47742 21.0391 5.96082 19.5738 5.96082 19.3438C5.96082 19.0834 5.80339 18.9199 5.5491 18.9199C5.34929 18.9199 5.26453 18.9865 4.5864 19.6646Z" fill="#FF4E43"/>
<path d="M19.1419 19.0289C19.0813 19.0895 19.0389 19.2227 19.0389 19.3195C19.0389 19.4709 19.1661 19.6283 19.8139 20.2701C20.4194 20.8695 20.6313 21.0391 20.7524 21.0391C20.9764 21.0391 21.1581 20.8393 21.1581 20.6031C21.1581 20.4336 21.0552 20.3064 20.4134 19.6646C19.7413 18.9926 19.6505 18.9199 19.4567 18.9199C19.3235 18.9199 19.2024 18.9623 19.1419 19.0289Z" fill="#FF4E43"/>
</svg>
