<svg width="28" height="29" viewBox="0 0 28 29" fill="none" xmlns="http://www.w3.org/2000/svg">
<path d="M9.09169 0.674046C8.91611 0.730686 8.68388 0.832639 8.57626 0.900608C8.37236 1.02522 7.91923 1.48401 7.81728 1.66526C7.76064 1.76721 7.704 1.74455 6.99033 1.30842C6.08974 0.76467 5.78388 0.674046 5.26845 0.781663C4.88329 0.860959 4.5038 1.08752 4.2829 1.3594C4.19794 1.46701 3.22939 3.03596 2.13622 4.84279C0.83349 6.99514 0.119818 8.23557 0.0575131 8.43381C-0.106745 9.01154 0.0914975 9.75354 0.516302 10.1274C0.850482 10.4162 2.00029 11.1016 2.16454 11.1016C2.26083 11.1016 2.36845 11.0393 2.46474 10.9317C2.93486 10.3992 3.14443 10.218 3.35966 10.15C3.85243 10.0028 4.32255 10.0934 4.68505 10.4106C5.20615 10.8524 5.31943 11.5207 4.97958 12.1494C4.76435 12.5516 4.75868 12.6365 4.92861 12.8235C5.14384 13.0727 7.59638 14.5397 7.91923 14.6133C8.45732 14.7436 9.10302 14.5623 9.49951 14.1602C9.60712 14.0526 9.90732 13.6164 10.1622 13.1973C10.7173 12.291 10.7456 12.1551 10.4227 11.9115C10.0036 11.6 9.64111 11.1922 9.56747 10.9543C9.38622 10.3313 9.55615 9.6799 10.0093 9.27209C10.3378 8.9719 10.5927 8.87561 11.0401 8.86994C11.3686 8.86994 11.4706 8.89826 11.8218 9.07951C12.0427 9.19279 12.2749 9.28908 12.3315 9.28908C12.3938 9.28908 12.5184 9.22112 12.6091 9.13049C12.7847 8.96623 13.6966 7.5049 13.8438 7.15373C13.9628 6.8592 13.9628 6.32111 13.8382 5.95295C13.6909 5.52248 13.3454 5.19963 12.4731 4.67287C12.071 4.42932 11.7028 4.19709 11.6632 4.16311C11.6009 4.10647 11.6122 4.04416 11.7311 3.81194C12.6091 2.0674 10.9438 0.0849829 9.09169 0.674046ZM10.2132 1.33108C10.7399 1.48401 11.1874 2.01076 11.2837 2.5885C11.3403 2.93967 11.2214 3.39846 11.0005 3.71565C10.7796 4.02717 10.7456 4.28205 10.9042 4.4633C10.9552 4.52561 11.4083 4.8258 11.9067 5.126C13.0792 5.83967 13.1698 5.92463 13.2604 6.41174C13.3114 6.70061 13.2151 6.94416 12.6997 7.77678C12.3599 8.33186 12.2352 8.49045 12.1673 8.46213C11.5895 8.21858 11.4876 8.19592 11.0288 8.19592C10.6663 8.19592 10.4681 8.2299 10.2188 8.32053C9.76572 8.50178 9.27294 8.96623 9.03505 9.44768C8.85947 9.79885 8.84814 9.86115 8.84814 10.4219C8.84814 10.9826 8.85947 11.0449 9.03505 11.3961C9.154 11.6397 9.32392 11.8719 9.52783 12.0531C9.69775 12.2117 9.83935 12.359 9.83935 12.3817C9.83935 12.4043 9.6581 12.7102 9.44286 13.0613C9.18798 13.4692 8.97841 13.741 8.85947 13.8147C8.61591 13.9619 8.24775 14.0186 8.02685 13.9393C7.87958 13.8883 5.77822 12.6422 5.63095 12.5176C5.60829 12.4949 5.63661 12.3703 5.69892 12.2287C6.0331 11.4811 5.82353 10.5295 5.20615 9.96311C4.35654 9.1758 3.0538 9.22678 2.28915 10.0821L2.06826 10.3199L1.87568 10.218C1.77372 10.1613 1.51318 9.99709 1.30361 9.85549C0.70888 9.45901 0.52763 8.98889 0.771185 8.46779C0.918451 8.13928 4.73036 1.8635 4.8663 1.71623C4.93427 1.64826 5.09853 1.54631 5.2288 1.49533C5.63095 1.3424 5.85185 1.41604 6.8374 2.01076C7.31884 2.30529 7.77763 2.54885 7.8456 2.54885C8.06083 2.54885 8.17411 2.45823 8.35536 2.14104C8.78017 1.39338 9.44853 1.10451 10.2132 1.33108Z" fill="#95E158"/>
<path d="M18.3638 7.18771C17.871 7.31232 17.4179 7.68049 17.1913 8.14494C17.0894 8.35451 17.061 8.53576 17.044 8.99455C17.0157 9.64025 17.061 9.58361 16.5286 9.65725C15.9396 9.73654 15.2429 10.2916 14.9483 10.9203C14.8124 11.2035 14.7954 11.3112 14.7954 11.8379C14.7954 12.3647 14.8124 12.4723 14.9483 12.7555C15.2372 13.3785 15.9056 13.9223 16.5003 14.0186C16.6192 14.0356 16.7778 14.0639 16.8515 14.0809L16.9761 14.1035V15.7461V17.3887H15.5374H14.1044L14.0704 17.0149C14.0138 16.2502 13.521 15.5535 12.7903 15.1967C12.5071 15.0551 12.4108 15.0381 11.8784 15.0381C11.3177 15.0381 11.2554 15.0494 10.9099 15.2194C10.2358 15.5535 9.77139 16.1936 9.66943 16.9469C9.64111 17.1395 9.62979 17.3151 9.64111 17.3377C9.65811 17.3604 9.22764 17.3887 8.68955 17.4C7.75498 17.417 7.704 17.4227 7.39248 17.5756C7.01865 17.7569 6.75811 18.0287 6.57119 18.4422L6.44092 18.7367L6.45225 22.9451L6.46924 27.1592L6.63916 27.4651C6.82607 27.7992 7.07529 28.0315 7.46045 28.2184L7.71533 28.3487L17.0044 28.3883C27.1771 28.4279 26.622 28.4449 27.0978 28.0938C27.3753 27.8899 27.6472 27.482 27.7378 27.1309C27.7888 26.944 27.8058 24.5481 27.8114 17.6436L27.8228 8.41115L27.6925 8.14494C27.5226 7.8051 27.1884 7.47092 26.8429 7.30099L26.5767 7.16506L22.5552 7.15373C20.3462 7.14807 18.4601 7.16506 18.3638 7.18771ZM26.7013 7.99767C26.8372 8.0883 26.9788 8.24689 27.0524 8.39416C27.1714 8.64338 27.1714 8.67736 27.1714 13.0444V17.4453H25.8517C24.2487 17.4453 24.328 17.4057 24.2827 18.2043C24.2431 18.8047 24.1411 19.0653 23.7956 19.4051C23.2065 19.9998 22.136 19.9488 21.5923 19.3031C21.3147 18.9746 21.2241 18.7084 21.2241 18.193C21.2241 17.7795 21.2071 17.7059 21.0938 17.5926C20.9749 17.4737 20.9069 17.4623 19.978 17.4283C19.4343 17.4057 18.6866 17.3887 18.3241 17.3887H17.6558V15.4969C17.6558 13.9393 17.6388 13.5881 17.5765 13.5201C17.5255 13.4748 17.3159 13.4295 17.0497 13.4069C16.5229 13.3672 16.2624 13.2653 15.9452 12.982C15.2938 12.393 15.2769 11.3225 15.9056 10.7221C16.1888 10.4559 16.5683 10.3086 17.0894 10.269C17.7011 10.2237 17.7124 10.201 17.7124 9.32306C17.7124 8.751 17.7294 8.60939 17.8313 8.39982C17.956 8.14494 18.1769 7.95236 18.4374 7.87307C18.5224 7.84475 20.3632 7.82775 22.5325 7.83342L26.469 7.84475L26.7013 7.99767ZM12.5468 15.8367C13.1302 16.1256 13.4077 16.6297 13.4077 17.3944C13.4077 17.8022 13.419 17.8418 13.555 17.9494C13.7022 18.0627 13.7702 18.0684 15.3392 18.0684H16.9761V19.3315V20.5946L16.5569 20.6569C15.5601 20.7985 14.8521 21.4045 14.6198 22.3164C14.2743 23.6758 15.2372 25.0069 16.6362 25.1031L16.8911 25.1258V26.3945V27.669H12.3542H7.82295L7.58506 27.5104C7.45479 27.4254 7.29619 27.2555 7.23389 27.1309C7.12061 26.91 7.12061 26.8363 7.13193 22.8092L7.14893 18.7084L7.30752 18.5045C7.59639 18.125 7.69268 18.1024 8.97842 18.0684C10.3774 18.0344 10.3435 18.0514 10.3378 17.3377C10.3378 16.8279 10.4681 16.4598 10.7626 16.1483C11.2044 15.6838 11.969 15.5479 12.5468 15.8367ZM19.8478 18.1024L20.5331 18.142L20.5558 18.5215C20.6747 20.1584 22.5892 21.0533 23.9825 20.1244C24.5263 19.7676 24.8944 19.1332 24.9511 18.4875L24.9794 18.125H26.0782H27.1827L27.1431 22.526C27.1204 24.9502 27.0751 26.9949 27.0468 27.0686C26.9562 27.3235 26.7749 27.516 26.52 27.6406L26.2651 27.7653L21.9321 27.7199L17.5991 27.6803V26.2133V24.7406L17.4349 24.582C17.2819 24.4291 17.2423 24.4178 16.8458 24.4178C16.1661 24.4235 15.73 24.1799 15.4015 23.6192C15.2655 23.3983 15.2485 23.302 15.2485 22.8828C15.2485 22.3391 15.3505 22.0842 15.6847 21.7727C16.0302 21.4442 16.3247 21.3309 16.8515 21.3365C17.6331 21.3422 17.6501 21.3026 17.6558 19.3541V18.0684H18.4091C18.8282 18.0684 19.4739 18.0854 19.8478 18.1024Z" fill="#95E158"/>
<path d="M25.2286 9.27776C25.1437 9.37405 25.1323 9.60062 25.1323 11.3678C25.1323 13.2143 25.138 13.3559 25.2343 13.4409C25.3815 13.5768 25.6194 13.5598 25.7214 13.4125C25.8007 13.3049 25.812 13.0104 25.812 11.3451C25.812 9.47601 25.8063 9.39671 25.6987 9.28909C25.5571 9.14749 25.3476 9.14183 25.2286 9.27776Z" fill="#95E158"/>
<path d="M25.2456 14.6699C25.1493 14.7662 25.1323 14.8569 25.1323 15.2647C25.1323 15.6725 25.1493 15.7631 25.2456 15.8594C25.3759 15.9897 25.4325 15.9953 25.6024 15.9104C25.795 15.8084 25.812 15.7518 25.812 15.2647C25.812 14.7776 25.795 14.7209 25.6024 14.619C25.4325 14.534 25.3759 14.5397 25.2456 14.6699Z" fill="#95E158"/>
<path d="M25.3702 20.0112C25.2456 20.1414 25.2456 20.1698 25.2456 22.0672C25.2456 24.1912 25.2513 24.2422 25.5854 24.2422C25.931 24.2422 25.9253 24.2592 25.9253 22.0615V20.0565L25.8007 19.9715C25.6251 19.8469 25.5118 19.8582 25.3702 20.0112Z" fill="#95E158"/>
<path d="M25.3362 25.443C25.2739 25.5336 25.2456 25.7036 25.2456 26.0094C25.2456 26.3776 25.2626 26.4682 25.3589 26.5645C25.4948 26.7004 25.6308 26.7061 25.8007 26.5871C25.914 26.5078 25.9253 26.4512 25.9253 25.9981C25.9253 25.6186 25.9026 25.477 25.8347 25.409C25.7044 25.2731 25.4382 25.2957 25.3362 25.443Z" fill="#95E158"/>
</svg>
