<svg width="30" height="23" viewBox="0 0 30 23" fill="none" xmlns="http://www.w3.org/2000/svg">
<path d="M14.6031 0.0330381C13.8882 0.214679 13.4078 0.841632 13.4019 1.59163C13.3902 3.28499 15.6871 3.82405 16.4312 2.30062C16.8062 1.53304 16.5132 0.601398 15.7691 0.197101C15.4527 0.0271788 14.9253 -0.0489931 14.6031 0.0330381ZM15.5054 1.11702C15.9449 1.59749 15.6343 2.32405 14.9957 2.32405C14.3804 2.32405 14.0523 1.62093 14.4507 1.15218C14.6499 0.911944 14.7906 0.853351 15.0835 0.888507C15.2593 0.906085 15.3648 0.964679 15.5054 1.11702Z" fill="#24ABF5"/>
<path d="M0.974149 2.38851C0.856962 2.42367 0.628446 2.57015 0.470243 2.71078C-0.00436646 3.13851 -0.127413 3.72445 0.136259 4.29281C0.634305 5.36507 2.1636 5.33578 2.63235 4.24593C2.91946 3.57211 2.62649 2.79281 1.96438 2.4764C1.69485 2.3475 1.26126 2.31234 0.974149 2.38851ZM1.70071 3.37289C1.91751 3.59554 1.92923 3.85336 1.72415 4.05257C1.42532 4.35726 0.87454 4.14632 0.87454 3.73031C0.87454 3.49593 1.14993 3.20297 1.37259 3.20297C1.46634 3.20297 1.59524 3.27328 1.70071 3.37289Z" fill="#24ABF5"/>
<path d="M28.2378 2.39437C27.8159 2.51155 27.4175 2.90999 27.3003 3.32601C27.1011 4.01741 27.5112 4.81429 28.1733 5.01351C29.6089 5.44124 30.6284 3.70687 29.5269 2.71663C29.1343 2.35921 28.7124 2.2596 28.2378 2.39437ZM28.9526 3.37874C29.105 3.53694 29.1284 3.58968 29.0991 3.77718C29.0288 4.18733 28.5601 4.34554 28.2671 4.05257C28.062 3.85335 28.0737 3.59554 28.2905 3.37288C28.519 3.15023 28.7241 3.15023 28.9526 3.37874Z" fill="#24ABF5"/>
<path d="M14.7143 4.83187C14.6264 4.91976 13.5835 6.85336 12.3882 9.13265C11.1987 11.412 10.2026 13.2694 10.185 13.2635C10.1675 13.2577 8.56199 11.5643 6.62839 9.50179C4.68894 7.43929 3.03074 5.71664 2.9487 5.66976C2.81394 5.59945 2.76706 5.60531 2.59714 5.68734C2.47995 5.74008 2.3862 5.83383 2.36277 5.92758C2.33933 6.02719 3.01902 8.35336 4.65964 13.7909C6.92722 21.285 7.00339 21.5135 7.20847 21.7245C7.32566 21.8416 7.5073 21.953 7.61277 21.9705C7.71824 21.994 11.0639 22.0116 15.0483 22.0057C20.5034 22.0057 22.3374 21.9881 22.4897 21.9354C22.9175 21.783 22.8471 21.994 25.3374 13.7616C26.978 8.34164 27.6518 6.02719 27.6284 5.92758C27.605 5.83383 27.5112 5.74008 27.394 5.68734C27.2241 5.60531 27.1772 5.59945 27.0425 5.66976C26.9604 5.71664 25.3022 7.43929 23.3628 9.50179C21.4292 11.5643 19.8237 13.2577 19.8061 13.2635C19.7885 13.2694 18.7983 11.412 17.603 9.13265C16.4135 6.85336 15.3647 4.91976 15.2768 4.83187C15.1948 4.73812 15.0659 4.66781 14.9956 4.66781C14.9253 4.66781 14.7964 4.73812 14.7143 4.83187ZM17.1928 10.2459C19.4956 14.617 19.478 14.5877 19.8178 14.4588C19.894 14.4295 21.3647 12.912 23.0815 11.0897C24.7983 9.26742 26.2046 7.77328 26.2163 7.77328C26.2221 7.77328 25.9936 8.54672 25.7124 9.48422C25.4253 10.4276 24.646 13.0057 23.9721 15.2147L22.7593 19.2284L22.0737 19.2577C21.2827 19.2928 21.1479 19.3573 21.1479 19.6854C21.1479 20.0135 21.3061 20.1014 21.9331 20.1366L22.4721 20.1659L22.3315 20.6463L22.185 21.1327H14.9956H7.80613L7.65964 20.6463L7.51902 20.1659L13.6714 20.1366C17.0581 20.119 19.8706 20.0838 19.9292 20.0604C20.1577 19.9432 20.187 19.4803 19.9643 19.3338C19.9233 19.3104 17.0405 19.2752 13.56 19.2577L7.23191 19.2284L6.10105 15.5077C5.48581 13.4627 4.70066 10.8787 4.36667 9.77133L3.7573 7.7557L4.09128 8.1014C4.27878 8.2889 5.69089 9.7889 7.23191 11.4237C8.77292 13.0643 10.0971 14.4295 10.1733 14.4588C10.5132 14.5877 10.4956 14.617 12.7983 10.2459C13.9878 7.98422 14.978 6.13265 14.9956 6.13265C15.0132 6.13265 16.0034 7.98422 17.1928 10.2459Z" fill="#24ABF5"/>
</svg>
