<svg width="26" height="25" viewBox="0 0 26 25" fill="none" xmlns="http://www.w3.org/2000/svg">
<path d="M12.7822 0.0633717C12.3231 0.229427 12.0105 0.668989 12.0105 1.15251C12.0105 1.3088 12.0349 1.49927 12.0642 1.57742C12.118 1.72394 12.1131 1.72882 10.2181 3.62382L8.32309 5.51882L8.06424 5.39183C7.3121 5.01088 6.39879 5.16717 5.7834 5.77767C5.1729 6.39305 5.01661 7.30636 5.39756 8.0585L5.52455 8.31736L3.62955 10.2124C2.03736 11.8045 1.7199 12.1025 1.63687 12.0683C1.58315 12.0487 1.37313 12.0341 1.16801 12.0341C0.840777 12.0341 0.772401 12.0536 0.557504 12.1806C0.410984 12.2734 0.264463 12.4199 0.171667 12.5664C0.0446825 12.7813 0.0251465 12.8497 0.0251465 13.177C0.0251465 13.4944 0.0446825 13.5823 0.161899 13.7826C0.699141 14.691 2.02271 14.5249 2.34505 13.5042C2.39878 13.3332 2.38901 13.0451 2.32063 12.7423C2.29621 12.6348 2.41831 12.4932 3.4 11.5213C4.0105 10.9157 4.48914 10.4663 4.4696 10.52C4.44518 10.5738 4.31331 10.9596 4.17168 11.3747C3.70281 12.7325 3.53675 13.8851 3.58071 15.3992C3.6442 17.5921 4.28889 19.6287 5.49524 21.4309L5.84689 21.9633L5.53432 22.2759C5.16313 22.6373 5.06057 22.8131 5.10452 22.9938C5.14359 23.1501 6.84323 24.8742 7.03859 24.9572C7.11674 24.9865 7.22907 25.0012 7.28768 24.9865C7.35117 24.967 7.82492 24.5323 8.34262 24.0097C9.19733 23.1501 9.28036 23.0524 9.28036 22.8961C9.28036 22.7447 9.19733 22.6471 8.31332 21.7631C7.16069 20.6104 7.20465 20.63 6.72113 21.0939L6.41344 21.3919L6.12528 20.9621C5.32919 19.7655 4.75287 18.3198 4.48914 16.8448C4.34262 16.0243 4.30843 14.5835 4.42076 13.7191C4.61612 12.1757 5.16801 10.6128 5.96411 9.35277L6.21808 8.94251L6.44274 9.04507C6.62345 9.1281 6.76509 9.14764 7.18023 9.15252C7.65398 9.15252 7.71747 9.14275 8.0154 9.00112C8.77242 8.6397 9.18268 7.99013 9.18268 7.15496C9.17779 6.94006 9.1436 6.70563 9.085 6.53957C9.03127 6.39305 8.9922 6.2563 8.98731 6.24165C8.98731 6.18793 9.53432 5.84604 10.0862 5.55789C12.4794 4.30269 15.3463 4.00477 17.9495 4.73737C18.98 5.03041 20.0984 5.54324 20.9678 6.11955L21.3976 6.40771L21.0997 6.7154C20.6357 7.19892 20.6162 7.15984 21.7737 8.31247C22.6528 9.18671 22.7505 9.27462 22.9068 9.27462C23.0582 9.27462 23.1558 9.19159 24.0154 8.33201C24.538 7.81919 24.9727 7.34544 24.9922 7.28194C25.0069 7.22334 24.9922 7.111 24.9629 7.03286C24.8799 6.8375 23.1558 5.13786 22.9996 5.09879C22.8188 5.05483 22.643 5.1574 22.2816 5.52858L21.969 5.84116L21.4269 5.47974C20.4306 4.81552 19.0826 4.2099 17.969 3.92663C16.7822 3.62382 15.9959 3.54079 14.7163 3.57498C13.3341 3.60917 12.0349 3.86313 10.9165 4.31246C10.6772 4.41014 10.4769 4.4834 10.4721 4.47364C10.4623 4.46387 10.9458 3.97058 11.5465 3.36985L12.6357 2.28071L12.9141 2.34421C13.6906 2.51515 14.3695 1.96325 14.3646 1.15739C14.3646 0.512701 13.842 -0.000120163 13.1876 -0.000120163C13.0655 -0.000120163 12.8848 0.0291824 12.7822 0.0633717ZM13.4562 0.888769C13.7346 1.12809 13.5539 1.60672 13.1827 1.60672C12.9727 1.60672 12.7968 1.41624 12.7968 1.19158C12.7968 0.830162 13.1876 0.654337 13.4562 0.888769ZM7.55141 6.02675C8.41588 6.28561 8.69427 7.40893 8.05447 8.04873C7.82003 8.28317 7.55141 8.3955 7.20465 8.3955C6.64787 8.3955 6.18389 8.0585 6.03249 7.54568C5.93969 7.23799 5.93969 7.15496 6.03737 6.83261C6.13993 6.48097 6.43786 6.17327 6.78951 6.05117C7.11674 5.93884 7.23884 5.93396 7.55141 6.02675ZM23.4928 6.61283L24.0545 7.1745L23.4782 7.75081L22.9068 8.32224L22.3353 7.75081L21.759 7.1745L22.3207 6.61283C22.6284 6.30514 22.8921 6.05117 22.9068 6.05117C22.9214 6.05117 23.1851 6.30514 23.4928 6.61283ZM1.49035 12.9132C1.73455 13.1525 1.56361 13.5726 1.22173 13.5726C0.894501 13.5726 0.699141 13.1183 0.928689 12.8888C1.07033 12.7472 1.33895 12.7569 1.49035 12.9132ZM7.76631 23.4627L7.18023 24.0488L6.6088 23.4725L6.03249 22.901L6.61857 22.3149L7.20465 21.7289L7.77608 22.3003L8.35239 22.8766L7.76631 23.4627Z" fill="#FDBE0C"/>
<path d="M10.0129 8.38094C9.89572 8.42489 8.44517 9.87544 8.39633 10.0024C8.35726 10.1001 8.6796 10.9402 10.4037 15.2576C11.5368 18.0855 12.4843 20.4347 12.5184 20.4738C12.5526 20.5177 13.5441 20.9231 14.726 21.3773L16.875 22.2027L17.5587 23.5409C18.2718 24.9377 18.3548 25.0501 18.6137 24.9866C18.6821 24.967 20.0496 23.6337 21.8713 21.8169C25.2071 18.4713 25.129 18.569 24.919 18.3101C24.8701 18.2515 24.2401 17.9048 23.5172 17.5385L22.2083 16.8694L21.3829 14.7204C20.9287 13.5385 20.5233 12.547 20.4794 12.5128C20.4061 12.4542 10.1546 8.34186 10.1106 8.35163C10.096 8.35163 10.052 8.36628 10.0129 8.38094ZM15.1167 11.1795C17.7492 12.2295 19.9128 13.1135 19.9275 13.138C19.9421 13.1624 20.2938 14.061 20.7089 15.1355L21.4611 17.094L19.2779 19.2723L17.0996 21.4554L15.1412 20.7033C14.0667 20.2882 13.168 19.9365 13.1436 19.9219C13.1192 19.9072 12.2254 17.7143 11.1607 15.0476L9.21685 10.1929L9.32429 10.0903L9.42686 9.98289L11.947 12.503L14.4672 15.0232L14.3451 15.2381C14.0862 15.6825 13.9934 16.4005 14.135 16.9182C14.4379 18.0611 15.5758 18.8083 16.7187 18.6129C17.6906 18.442 18.4476 17.685 18.6186 16.7131C18.8139 15.5702 18.0667 14.4322 16.9287 14.1294C16.4061 13.9878 15.6882 14.0757 15.2437 14.3394L15.0288 14.4615L12.5136 11.9463L9.9934 9.42611L10.0862 9.32355C10.1399 9.26494 10.2132 9.23075 10.2571 9.24052C10.2962 9.25029 12.4843 10.1245 15.1167 11.1795ZM16.8701 14.9206C17.1827 15.0281 17.588 15.409 17.7346 15.7314C17.886 16.0781 17.8909 16.6203 17.7443 16.9475C17.5978 17.2698 17.3243 17.5531 17.0069 17.7094C16.6357 17.8901 16.118 17.8999 15.737 17.7289C15.4147 17.5824 15.0337 17.177 14.9263 16.8645C14.8383 16.6007 14.8237 16.1758 14.897 15.9072C15.0142 15.4872 15.4782 15.0134 15.8933 14.8962C16.1375 14.823 16.621 14.8376 16.8701 14.9206ZM23.1509 18.2564C23.5417 18.4518 23.8738 18.6276 23.8933 18.6471C23.9128 18.6667 22.7456 19.8633 21.295 21.3138C19.8493 22.7595 18.6528 23.9365 18.643 23.9268C18.6283 23.9121 18.4086 23.4774 18.1448 22.9548L17.6711 22.0073L19.8347 19.8437L21.9934 17.685L22.2181 17.7924C22.3402 17.851 22.7602 18.0611 23.1509 18.2564Z" fill="#FDBE0C"/>
</svg>
