<svg width="40" height="40" viewBox="0 0 40 40" fill="none" xmlns="http://www.w3.org/2000/svg">
<circle cx="20" cy="20" r="19.5" stroke="#1962F2" stroke-dasharray="2 2"/>
<path d="M16.045 12.0367C15.4905 12.1031 14.8364 12.3189 14.3383 12.6011C13.05 13.3416 12.2 14.6298 12.0374 16.0941C11.9875 16.5357 11.9875 24.4646 12.0374 24.9062C12.2731 27.0412 13.9598 28.7279 16.0948 28.9636C16.5364 29.0134 24.4653 29.0134 24.9069 28.9636C27.0418 28.7279 28.7286 27.0412 28.9643 24.9062C29.0141 24.4646 29.0141 16.5357 28.9643 16.0941C28.7286 13.9591 27.0418 12.2724 24.9069 12.0367C24.5151 11.9935 16.4268 11.9935 16.045 12.0367ZM25.6473 14.2646C26.1454 14.414 26.5272 14.8523 26.6102 15.3736C26.7098 15.9878 26.3346 16.6287 25.7436 16.8511C25.2389 17.0437 24.6379 16.9076 24.2727 16.5158C23.5057 15.6957 23.9805 14.3709 25.0995 14.2148C25.2323 14.1982 25.5012 14.2214 25.6473 14.2646ZM21.1118 15.9015C22.1377 16.0376 23.0276 16.4792 23.7747 17.2263C25.6008 19.0525 25.6008 21.9478 23.7747 23.774C21.9485 25.6001 19.0532 25.6001 17.227 23.774C15.4008 21.9478 15.4008 19.0525 17.227 17.2263C18.2729 16.1837 19.6641 15.7089 21.1118 15.9015Z" fill="white"/>
<path d="M25.1662 15.2109C25.0599 15.2374 24.9205 15.3902 24.8972 15.5064C24.8707 15.6591 24.9603 15.8318 25.1064 15.9015C25.2591 15.9745 25.4086 15.9447 25.5314 15.8185C25.6808 15.6624 25.6509 15.3868 25.4716 15.274C25.382 15.2175 25.2558 15.1909 25.1662 15.2109Z" fill="white"/>
<path d="M19.9489 16.8976C19.1752 17.0171 18.4846 17.3691 17.9268 17.9269C16.4958 19.3546 16.4958 21.6456 17.9268 23.0734C19.3545 24.5044 21.6456 24.5044 23.0733 23.0734C24.5043 21.6456 24.5043 19.3546 23.0733 17.9269C22.2465 17.1001 21.0911 16.7183 19.9489 16.8976Z" fill="white"/>
</svg>
