<svg width="40" height="40" viewBox="0 0 40 40" fill="none" xmlns="http://www.w3.org/2000/svg">
<circle cx="20" cy="20" r="19.5" stroke="#1764EF" stroke-dasharray="2 2"/>
<path d="M16.0441 12.0367C15.4896 12.1031 14.8355 12.3189 14.3375 12.6011C13.0492 13.3416 12.1992 14.6298 12.0365 16.0941C11.9867 16.5357 11.9867 24.4646 12.0365 24.9062C12.2722 27.0412 13.959 28.7279 16.0939 28.9636C16.5355 29.0134 24.4644 29.0134 24.906 28.9636C27.041 28.7279 28.7277 27.0412 28.9635 24.9062C29.0133 24.4646 29.0133 16.5357 28.9635 16.0941C28.7277 13.9591 27.041 12.2724 24.906 12.0367C24.5142 11.9935 16.426 11.9935 16.0441 12.0367ZM25.6465 14.2646C26.1445 14.414 26.5263 14.8523 26.6093 15.3736C26.709 15.9878 26.3338 16.6287 25.7427 16.8511C25.2381 17.0437 24.6371 16.9076 24.2719 16.5158C23.5049 15.6957 23.9797 14.3709 25.0986 14.2148C25.2314 14.1982 25.5004 14.2214 25.6465 14.2646ZM21.1109 15.9015C22.1369 16.0376 23.0267 16.4792 23.7738 17.2263C25.6 19.0525 25.6 21.9478 23.7738 23.774C21.9476 25.6001 19.0523 25.6001 17.2261 23.774C15.4 21.9478 15.4 19.0525 17.2261 17.2263C18.272 16.1837 19.6633 15.7089 21.1109 15.9015Z" fill="#1764EF"/>
<path d="M25.1651 15.2109C25.0588 15.2374 24.9194 15.3902 24.8961 15.5064C24.8696 15.6591 24.9592 15.8318 25.1053 15.9015C25.258 15.9745 25.4075 15.9447 25.5303 15.8185C25.6797 15.6624 25.6498 15.3868 25.4705 15.274C25.3809 15.2175 25.2547 15.1909 25.1651 15.2109Z" fill="#1764EF"/>
<path d="M19.9488 16.8977C19.1751 17.0172 18.4845 17.3691 17.9267 17.927C16.4956 19.3547 16.4956 21.6457 17.9267 23.0734C19.3544 24.5045 21.6454 24.5045 23.0732 23.0734C24.5042 21.6457 24.5042 19.3547 23.0732 17.927C22.2464 17.1002 21.0909 16.7184 19.9488 16.8977Z" fill="#1764EF"/>
</svg>
