<svg width="45" height="54" viewBox="0 0 45 54" fill="none" xmlns="http://www.w3.org/2000/svg">
<path d="M20.7469 0.0353415C20.5358 0.0617365 19.8759 0.154119 19.2952 0.233304C13.1848 1.03835 7.44383 4.77325 4.07847 10.1314C-0.606654 17.5748 -0.237123 27.3938 4.9627 34.3621C5.79414 35.4707 20.3378 52.4295 21.288 53.4061C21.7763 53.9076 21.9479 54 22.3834 54C22.7134 54 23.0169 53.8944 23.2017 53.736C23.492 53.4721 38.1677 36.4473 39.3554 34.9956C42.668 30.9307 44.4101 25.1634 43.935 19.9108C43.6578 16.915 43.0903 14.843 41.863 12.2694C38.7879 5.85545 32.9018 1.44748 25.8412 0.272897C24.693 0.074934 21.4728 -0.0702387 20.7469 0.0353415ZM26.2899 3.11036C31.3049 4.21896 35.6469 7.22799 38.392 11.5172C39.4346 13.1537 40.398 15.516 40.8863 17.6276C41.2295 19.1058 41.3615 22.5767 41.1503 24.1208C40.6884 27.3938 39.395 30.4952 37.4682 33.0027C36.4256 34.3621 22.5286 50.5027 22.3966 50.5027C22.2251 50.5027 7.44383 33.2535 6.71797 32.1977C5.42461 30.2973 4.35561 27.7633 3.82771 25.2954C3.48458 23.6985 3.49777 19.5017 3.84091 17.9048C5.29264 11.2136 9.91177 5.94783 16.273 3.74384C17.408 3.34792 18.8201 3.01798 20.219 2.80682C21.2352 2.66165 25.1285 2.84641 26.2899 3.11036Z" fill="#24ABF5"/>
<path d="M21.2079 12.2145C16.4436 12.8876 12.9727 16.8205 12.9727 21.598C12.9727 25.2801 14.9259 28.4211 18.2385 30.0444C19.7034 30.7703 20.7328 31.0078 22.3957 31.0078C24.0586 31.0078 25.088 30.7703 26.5529 30.0444C29.8655 28.4211 31.8187 25.2801 31.8055 21.598C31.8055 19.9351 31.568 18.9189 30.8553 17.4408C29.9183 15.5535 28.4401 14.0622 26.5265 13.0988C25.088 12.3861 22.7916 12.0034 21.2079 12.2145ZM24.0454 15.0652C27.0148 15.8439 29.1264 18.5494 29.1264 21.598C29.1264 25.3329 26.091 28.3287 22.3297 28.3287C18.6872 28.3287 15.665 25.2669 15.665 21.598C15.665 18.5889 17.7634 15.8703 20.6932 15.0784C21.6434 14.8277 23.082 14.8145 24.0454 15.0652Z" fill="#24ABF5"/>
</svg>
