<svg width="50" height="50" viewBox="0 0 50 50" fill="none" xmlns="http://www.w3.org/2000/svg">
<path d="M19.2538 2.9814C16.2235 4.62363 13.6526 6.03126 13.5549 6.12901C13.3887 6.27564 13.3789 6.59822 13.3789 12.522V18.7585L13.7015 18.9931C14.2684 19.4135 24.8061 25.0244 25.0211 25.0244C25.2362 25.0244 35.764 19.4135 36.331 18.9931L36.6438 18.7585V12.5122V6.26586L36.331 6.03126C35.7249 5.59137 25.2166 -2.38419e-05 24.9918 -2.38419e-05C24.8647 0.00975133 22.2841 1.34895 19.2538 2.9814ZM29.5373 4.2033C31.9908 5.52295 33.9947 6.62754 34.0045 6.66664C34.0045 6.69597 33.5451 6.96967 32.9879 7.2727C32.4307 7.57573 31.9224 7.88854 31.8442 7.97652C31.7758 8.06449 31.7171 8.28932 31.7171 8.47505C31.7171 8.88561 32.1081 9.28639 32.4991 9.28639C32.636 9.28639 33.2518 9.02246 33.8677 8.6901L34.982 8.09382L34.9625 12.9912L34.9332 17.8983L30.4366 20.3226L25.94 22.7468L25.8911 21.2707C25.8422 19.6676 25.7738 19.4526 25.3046 19.2571C24.9527 19.1104 24.4835 19.2571 24.2978 19.5894C24.2293 19.7165 24.1609 20.3812 24.1316 21.2707L24.0827 22.737L19.5666 20.303L15.0407 17.869V12.9814V8.09382L16.1551 8.6901C16.7709 9.02246 17.3867 9.28639 17.5236 9.28639C17.9244 9.28639 18.3056 8.88561 18.3056 8.46527C18.3056 8.00584 18.1492 7.85921 16.9664 7.2336C16.3603 6.91102 16.0378 6.68619 16.0964 6.62754C16.2137 6.51024 24.9429 1.77906 25.0211 1.79861C25.0505 1.79861 27.0837 2.88365 29.5373 4.2033Z" fill="#D8315B"/>
<path d="M21.1497 10.0978C20.7978 10.4008 20.7587 10.9385 21.0715 11.2513C21.179 11.3686 21.9024 11.7889 22.6746 12.2092L24.0822 12.9521L24.1311 14.1643C24.18 15.3275 24.1898 15.3764 24.4537 15.6012C24.6101 15.7283 24.8545 15.8358 25.0109 15.8358C25.1673 15.8358 25.4117 15.7283 25.5681 15.6012C25.832 15.3764 25.8418 15.3275 25.8906 14.1643L25.9395 12.9619L27.3471 12.2092C28.1194 11.7889 28.8427 11.3588 28.9503 11.2513C29.4586 10.7527 28.9796 9.78498 28.2953 9.90229C28.1292 9.93161 27.3374 10.3128 26.5358 10.743C25.7342 11.1828 25.0402 11.5347 25.0109 11.5347C24.9718 11.5347 24.2875 11.1828 23.4859 10.743C21.7851 9.82409 21.5407 9.75566 21.1497 10.0978Z" fill="#D8315B"/>
<path d="M3.59343 16.1193C3.2904 16.4223 3.24153 16.696 3.42726 17.0381C3.48591 17.1554 5.63644 20.4692 8.21709 24.4086C10.788 28.3382 12.8896 31.5836 12.8896 31.6129C12.8896 31.6422 12.2151 31.6716 11.4038 31.6716C9.06753 31.6716 8.09001 31.9746 7.07339 32.9912C6.38913 33.6755 0.230775 43.0401 0.0841471 43.6168C0.0157209 43.8905 -0.0136046 44.8192 0.00594575 46.1486C0.0352713 48.0743 0.0548216 48.2698 0.250325 48.6315C0.494704 49.0909 0.973688 49.5601 1.45267 49.8143C1.78503 49.9902 2.55726 50 25.0108 50H48.2269L48.6179 49.7849C49.0773 49.5406 49.5465 49.0616 49.8007 48.5826C49.9668 48.2796 49.9864 47.9961 49.9864 45.8944C49.9864 43.783 49.9668 43.5191 49.8007 43.2063C49.2142 42.131 43.3686 33.4018 42.9385 32.9814C41.961 31.9844 40.9444 31.6716 38.6276 31.6716C37.8065 31.6716 37.132 31.6422 37.132 31.6129C37.132 31.5836 39.2533 28.3187 41.8437 24.3597C44.4341 20.4008 46.5944 17.0283 46.6531 16.8817C46.9268 16.1584 45.871 15.523 45.3139 16.0704C45.2357 16.1486 42.0392 21.0068 38.2073 26.8719L31.2376 37.5367H25.0108H18.784L11.7655 26.7937C7.20047 19.8143 4.65893 16.0117 4.50252 15.9433C4.13107 15.7674 3.89646 15.8162 3.59343 16.1193ZM11.1985 33.4018C11.179 33.4506 10.0255 36.0899 8.63742 39.2669L6.10565 45.0635H4.24837C2.9385 45.0635 2.31289 45.0244 2.13693 44.9365C1.7948 44.7605 1.58952 44.3109 1.7166 43.998C1.76548 43.8612 3.24153 41.5836 4.98151 38.9541C8.39304 33.8123 8.45169 33.7341 9.44876 33.4702C9.94729 33.3333 11.2669 33.2845 11.1985 33.4018ZM15.7733 35.9922C16.7313 37.4585 17.6404 38.7781 17.7968 38.9247L18.0705 39.1984H25.0108H31.9512L32.2249 38.9247C32.3813 38.7781 33.2904 37.4585 34.2484 35.9922L35.9786 33.3333H36.8877H37.7968L38.1975 34.2326C38.5494 35.0342 38.5788 35.1515 38.4419 35.2395C37.7674 35.6598 37.5231 35.914 37.2689 36.4321C36.8388 37.3021 36.8779 37.7419 37.5622 39.7654C38.4028 42.2287 38.6374 42.4536 40.8368 42.8446L42.0392 43.0596L42.4693 44.0274C42.7039 44.5552 42.8994 45.0049 42.8994 45.0244C42.8994 45.044 35.0402 45.0635 25.4409 45.0635C8.86225 45.0635 7.98249 45.0538 8.03136 44.8974C8.08024 44.7116 12.8407 33.8025 12.9971 33.4995C13.0656 33.3822 13.2122 33.3333 13.5641 33.3333H14.0431L15.7733 35.9922ZM40.5338 33.4604C41.57 33.7341 41.6091 33.7732 45.0108 38.9247C46.741 41.5347 48.2171 43.7732 48.2757 43.8905C48.4517 44.2131 48.3051 44.6628 47.9532 44.8778C47.6697 45.044 47.484 45.0635 46.1839 45.044L44.7274 45.0147L44.0235 43.4115C43.6423 42.5318 43.2415 41.74 43.134 41.652C43.0069 41.5543 42.3813 41.3978 41.482 41.261C40.309 41.0655 39.9864 40.9775 39.8104 40.8113C39.6834 40.6843 39.3999 39.9902 39.0969 39.0811C38.481 37.1848 38.4908 37.1163 39.5074 36.608C39.8789 36.4223 40.2503 36.217 40.3188 36.1584C40.612 35.914 40.5631 35.5327 40.1135 34.4868C39.8691 33.9101 39.6736 33.4213 39.6736 33.392C39.6736 33.2942 39.9962 33.3236 40.5338 33.4604ZM25.0108 46.7253C38.7352 46.7253 47.8652 46.6862 48.0607 46.6373L48.3735 46.5396V47.175C48.3735 47.7517 48.3442 47.8397 48.09 48.1036L47.8065 48.3871H25.0108H2.21513L1.93165 48.1036C1.6775 47.8397 1.64817 47.7517 1.64817 47.175V46.5396L1.96098 46.6373C2.15648 46.6862 11.2865 46.7253 25.0108 46.7253Z" fill="#D8315B"/>
</svg>
