<svg width="59" height="50" viewBox="0 0 59 50" fill="none" xmlns="http://www.w3.org/2000/svg">
<circle cx="34" cy="25" r="25" fill="#DCFDFF"/>
<path d="M17.8 26.65C12.6 26.65 8.33333 25.8667 5 24.3C1.66667 22.7333 0 20.9167 0 18.85C0 16.7833 1.66667 14.9583 5 13.375C8.33333 11.7917 12.6 11 17.8 11C23 11 27.275 11.7917 30.625 13.375C33.975 14.9583 35.65 16.8 35.65 18.9C35.65 20.9333 33.9833 22.7333 30.65 24.3C27.3167 25.8667 23.0333 26.65 17.8 26.65ZM17.8 35.95C12.9667 35.95 8.79167 35.225 5.275 33.775C1.75833 32.325 0 30.5667 0 28.5V25.4C0.4 26.3333 1.16667 27.2 2.3 28C3.43333 28.8 4.79167 29.4833 6.375 30.05C7.95833 30.6167 9.73333 31.05 11.7 31.35C13.6667 31.65 15.7 31.8 17.8 31.8C19.9 31.8 21.9333 31.65 23.9 31.35C25.8667 31.05 27.6417 30.6167 29.225 30.05C30.8083 29.4833 32.1667 28.8083 33.3 28.025C34.4333 27.2417 35.2167 26.3667 35.65 25.4V28.5C35.65 30.5667 33.8833 32.325 30.35 33.775C26.8167 35.225 22.6333 35.95 17.8 35.95ZM17.8 45.25C12.9667 45.25 8.79167 44.525 5.275 43.075C1.75833 41.625 0 39.8667 0 37.8V34.7C0.4 35.6333 1.16667 36.5 2.3 37.3C3.43333 38.1 4.79167 38.7833 6.375 39.35C7.95833 39.9167 9.73333 40.35 11.7 40.65C13.6667 40.95 15.7 41.1 17.8 41.1C19.9 41.1 21.9333 40.95 23.9 40.65C25.8667 40.35 27.6417 39.9167 29.225 39.35C30.8083 38.7833 32.1667 38.1083 33.3 37.325C34.4333 36.5417 35.2167 35.6667 35.65 34.7V37.8C35.65 39.8667 33.8833 41.625 30.35 43.075C26.8167 44.525 22.6333 45.25 17.8 45.25Z" fill="#5FD8E0"/>
</svg>
