<svg width="26" height="25" viewBox="0 0 26 25" fill="none" xmlns="http://www.w3.org/2000/svg">
<path d="M13.4395 15.6875H15.3145V11.5625H19.4395V9.6875H15.3145V5.5625H13.4395V9.6875H9.31445V11.5625H13.4395V15.6875ZM5.62695 21.25C5.12695 21.25 4.68945 21.0625 4.31445 20.6875C3.93945 20.3125 3.75195 19.875 3.75195 19.375V1.875C3.75195 1.375 3.93945 0.9375 4.31445 0.5625C4.68945 0.1875 5.12695 0 5.62695 0H23.127C23.627 0 24.0645 0.1875 24.4395 0.5625C24.8145 0.9375 25.002 1.375 25.002 1.875V19.375C25.002 19.875 24.8145 20.3125 24.4395 20.6875C24.0645 21.0625 23.627 21.25 23.127 21.25H5.62695ZM5.62695 19.375H23.127V1.875H5.62695V19.375ZM1.87695 25C1.37695 25 0.939453 24.8125 0.564453 24.4375C0.189453 24.0625 0.00195312 23.625 0.00195312 23.125V3.75H1.87695V23.125H21.252V25H1.87695Z" fill="#FF3F33"/>
</svg>
