<svg width="80" height="70" viewBox="0 0 80 70" fill="none" xmlns="http://www.w3.org/2000/svg">
<path d="M79.0018 27.8414L53.8657 41.4638V70C58.4996 67.4495 72.7296 59.6299 77.4552 57.0293C78.4104 56.5074 79.0018 55.499 79.0018 54.4021V27.8414ZM50.9085 41.4609L25.7725 27.5377V54.0925C25.7725 55.1835 26.355 56.1801 27.2925 56.7079C31.9944 59.3557 46.2658 67.3906 50.9085 70V41.4609ZM27.0174 24.8634L52.3871 38.9074L78.0318 25.0108C78.0318 25.0108 58.4227 13.989 53.8243 11.4061C53.3778 11.1555 52.881 11.0287 52.3871 11.0287C51.8903 11.0287 51.3965 11.1555 50.9499 11.4061C46.3515 13.989 27.0174 24.8634 27.0174 24.8634Z" fill="#E4E4E4"/>
<path d="M34.4512 42.9362C39.2076 42.9362 43.0635 39.0915 43.0635 34.3489C43.0635 29.6064 39.2076 25.7617 34.4512 25.7617C29.6947 25.7617 25.8389 29.6064 25.8389 34.3489C25.8389 39.0915 29.6947 42.9362 34.4512 42.9362Z" stroke="#2757FF" stroke-width="3" stroke-linecap="round" stroke-linejoin="round"/>
<path d="M55.6953 42.9362C55.3131 43.7995 55.1992 44.7572 55.368 45.6858C55.5369 46.6143 55.9808 47.4711 56.6426 48.1457L56.8149 48.3175C57.3487 48.8492 57.7722 49.4805 58.0612 50.1755C58.3501 50.8705 58.4988 51.6155 58.4988 52.3678C58.4988 53.1201 58.3501 53.8651 58.0612 54.5601C57.7722 55.255 57.3487 55.8864 56.8149 56.4181C56.2817 56.9504 55.6484 57.3726 54.9514 57.6607C54.2544 57.9488 53.5073 58.0971 52.7527 58.0971C51.9982 58.0971 51.2511 57.9488 50.5541 57.6607C49.8571 57.3726 49.2238 56.9504 48.6906 56.4181L48.5184 56.2464C47.8418 55.5865 46.9824 55.1438 46.0512 54.9754C45.1199 54.8071 44.1594 54.9207 43.2935 55.3018C42.4445 55.6646 41.7203 56.2671 41.2102 57.0351C40.7002 57.803 40.4265 58.7029 40.4228 59.624V60.1106C40.4228 61.6289 39.8179 63.0851 38.7411 64.1587C37.6644 65.2323 36.204 65.8354 34.6812 65.8354C33.1585 65.8354 31.6981 65.2323 30.6213 64.1587C29.5446 63.0851 28.9397 61.6289 28.9397 60.1106V59.853C28.9175 58.9056 28.6099 57.9867 28.0569 57.2159C27.504 56.445 26.7313 55.8579 25.8392 55.5308C24.9734 55.1497 24.0129 55.0361 23.0816 55.2044C22.1503 55.3728 21.291 55.8155 20.6144 56.4753L20.4422 56.6471C19.9089 57.1794 19.2757 57.6016 18.5787 57.8897C17.8817 58.1778 17.1346 58.3261 16.38 58.3261C15.6255 58.3261 14.8784 58.1778 14.1814 57.8897C13.4844 57.6016 12.8511 57.1794 12.3179 56.6471C11.7841 56.1154 11.3606 55.484 11.0716 54.789C10.7827 54.0941 10.634 53.3491 10.634 52.5968C10.634 51.8445 10.7827 51.0995 11.0716 50.4045C11.3606 49.7095 11.7841 49.0782 12.3179 48.5465L12.4901 48.3747C13.152 47.7001 13.5959 46.8433 13.7648 45.9147C13.9336 44.9862 13.8196 44.0285 13.4375 43.1651C13.0736 42.3185 12.4693 41.5965 11.6991 41.0879C10.9289 40.5793 10.0264 40.3064 9.10263 40.3027H8.6146C7.09184 40.3027 5.63146 39.6996 4.55471 38.626C3.47796 37.5524 2.87305 36.0962 2.87305 34.5779C2.87305 33.0596 3.47796 31.6035 4.55471 30.5299C5.63146 29.4563 7.09184 28.8531 8.6146 28.8531H8.87296C9.82318 28.8309 10.7447 28.5243 11.5178 27.9729C12.2909 27.4216 12.8797 26.6512 13.2078 25.7617C13.59 24.8984 13.704 23.9407 13.5351 23.0121C13.3663 22.0836 12.9223 21.2267 12.2605 20.5521L12.0882 20.3804C11.5544 19.8487 11.1309 19.2173 10.842 18.5223C10.553 17.8273 10.4043 17.0824 10.4043 16.3301C10.4043 15.5777 10.553 14.8328 10.842 14.1378C11.1309 13.4428 11.5544 12.8114 12.0882 12.2798C12.6215 11.7475 13.2547 11.3252 13.9517 11.0371C14.6487 10.749 15.3958 10.6007 16.1504 10.6007C16.9049 10.6007 17.652 10.749 18.349 11.0371C19.0461 11.3252 19.6793 11.7475 20.2125 12.2798L20.3848 12.4515C21.0614 13.1114 21.9207 13.5541 22.8519 13.7224C23.7832 13.8908 24.7437 13.7771 25.6096 13.3961H25.8392C26.6883 13.0332 27.4125 12.4308 27.9225 11.6628C28.4326 10.8948 28.7063 9.99494 28.71 9.07385V8.58724C28.71 7.06893 29.3149 5.6128 30.3917 4.53919C31.4684 3.46558 32.9288 2.86243 34.4516 2.86243C35.9743 2.86243 37.4347 3.46558 38.5115 4.53919C39.5882 5.6128 40.1931 7.06893 40.1931 8.58724V8.84486C40.1968 9.76595 40.4705 10.6659 40.9806 11.4338C41.4907 12.2018 42.2148 12.8043 43.0639 13.1671C43.9298 13.5481 44.8903 13.6618 45.8215 13.4934C46.7528 13.3251 47.6121 12.8824 48.2887 12.2225L48.4609 12.0508C48.9942 11.5185 49.6274 11.0962 50.3244 10.8081C51.0214 10.52 51.7686 10.3717 52.5231 10.3717C53.2776 10.3717 54.0247 10.52 54.7218 10.8081C55.4188 11.0962 56.052 11.5185 56.5852 12.0508C57.1191 12.5824 57.5426 13.2138 57.8315 13.9088C58.1204 14.6038 58.2692 15.3487 58.2692 16.1011C58.2692 16.8534 58.1204 17.5984 57.8315 18.2933C57.5426 18.9883 57.1191 19.6197 56.5852 20.1514L56.413 20.3231C55.7512 20.9977 55.3072 21.8546 55.1384 22.7831C54.9695 23.7117 55.0835 24.6694 55.4656 25.5327V25.7617C55.8295 26.6083 56.4338 27.3303 57.204 27.8389C57.9742 28.3475 58.8767 28.6204 59.8005 28.6241H60.2885C61.8113 28.6241 63.2717 29.2273 64.3484 30.3009C65.4252 31.3745 66.0301 32.8306 66.0301 34.3489C66.0301 35.8672 65.4252 37.3234 64.3484 38.397C63.2717 39.4706 61.8113 40.0737 60.2885 40.0737H60.0302C59.1064 40.0774 58.2038 40.3503 57.4336 40.8589C56.6634 41.3675 56.0592 42.0895 55.6953 42.9362V42.9362Z" stroke="#2757FF" stroke-width="3" stroke-linecap="round" stroke-linejoin="round"/>
</svg>
