<svg width="25" height="17" viewBox="0 0 25 17" fill="none" xmlns="http://www.w3.org/2000/svg">
<path d="M0.953987 0.0636129C0.505618 0.206709 0.186037 0.531061 0.0810993 0.95558C0.0477102 1.10345 0.0334006 3.28328 0.0429403 8.27257L0.05725 15.3797L0.200346 15.6373C0.281434 15.7804 0.4293 15.9568 0.529468 16.0332C0.939677 16.3289 0.143107 16.3098 12.2443 16.3098C24.3455 16.3098 23.5489 16.3289 23.9591 16.0332C24.0593 15.9568 24.2119 15.7804 24.2882 15.6373L24.4313 15.3797V8.15332V0.92696L24.2882 0.669387C24.2119 0.526291 24.0593 0.349805 23.9591 0.273487C23.5489 -0.0222449 24.3502 -0.0031654 12.2252 0.00160448C3.25784 0.00160448 1.11616 0.0159141 0.953987 0.0636129ZM22.6426 1.01759C22.6045 1.05098 20.3769 2.7252 17.6963 4.73332C14.4289 7.18504 12.7642 8.40136 12.6402 8.43474C12.4065 8.50152 12.0821 8.50152 11.8484 8.43474C11.7244 8.40136 10.0597 7.18504 6.79232 4.73332C4.11164 2.7252 1.88411 1.05098 1.84595 1.01759C1.78871 0.960349 3.34369 0.95081 12.2443 0.95081C21.1449 0.95081 22.6999 0.960349 22.6426 1.01759ZM6.13884 5.41064C8.90537 7.48554 11.2617 9.22177 11.3762 9.2647C11.4906 9.3124 11.7291 9.37441 11.9104 9.40303C12.3111 9.46981 12.8024 9.40303 13.1744 9.23131C13.3032 9.16931 15.6786 7.41876 18.4451 5.34387L23.4773 1.56612L23.4917 4.83349C23.4964 6.63173 23.4964 9.57474 23.4917 11.3682L23.4773 14.6356L20.8301 11.3682C19.3752 9.56998 18.1494 8.077 18.1065 8.05315C17.9777 7.98638 17.7392 8.00069 17.6104 8.08654C17.4768 8.17717 17.3862 8.40613 17.4244 8.5683C17.4434 8.63508 18.6645 10.1853 20.1432 12.0122L22.8334 15.332L17.5388 15.3463C14.6245 15.3511 9.86412 15.3511 6.94972 15.3463L1.65516 15.332L4.34537 12.0122C5.82403 10.1853 7.04512 8.63508 7.0642 8.5683C7.10236 8.40613 7.01173 8.17717 6.87817 8.08654C6.75893 8.01023 6.53951 7.98638 6.40119 8.03884C6.36303 8.05792 5.14194 9.53182 3.69667 11.3205C2.25139 13.1045 1.04938 14.5879 1.0303 14.6117C1.00646 14.6404 0.987376 11.8261 0.987376 8.11039C0.987376 2.88738 1.00169 1.57089 1.04938 1.59951C1.078 1.62336 3.37231 3.33575 6.13884 5.41064Z" fill="#1962F2"/>
</svg>
