<svg width="65" height="43" viewBox="0 0 65 43" fill="none" xmlns="http://www.w3.org/2000/svg">
<path d="M2.40949 0.168622C1.22743 0.545874 0.384901 1.40098 0.108249 2.52016C0.0202239 2.90999 -0.0175014 8.6568 0.00764879 21.8103L0.045374 40.5472L0.422626 41.2263C0.636403 41.6035 1.02623 42.0688 1.29031 42.27C2.37176 43.0496 0.271724 42.9993 32.1747 42.9993C64.0777 42.9993 61.9776 43.0496 63.0591 42.27C63.3232 42.0688 63.7256 41.6035 63.9268 41.2263L64.304 40.5472V21.496V2.44471L63.9268 1.76566C63.7256 1.3884 63.3232 0.923126 63.0591 0.721925C61.9776 -0.0577298 64.0903 -0.00742953 32.1244 0.00514555C8.48325 0.00514555 2.83704 0.0428708 2.40949 0.168622ZM59.5884 2.68364C59.4878 2.77166 53.6152 7.18552 46.548 12.4796C37.9341 18.9432 33.5454 22.1499 33.2184 22.2379C32.6023 22.4139 31.7471 22.4139 31.131 22.2379C30.804 22.1499 26.4153 18.9432 17.8014 12.4796C10.7342 7.18552 4.86163 2.77166 4.76103 2.68364C4.61013 2.53274 8.7096 2.50759 32.1747 2.50759C55.6398 2.50759 59.7393 2.53274 59.5884 2.68364ZM16.0786 14.2653C23.3721 19.7354 29.5842 24.3128 29.886 24.426C30.1878 24.5517 30.8166 24.7152 31.2944 24.7906C32.3508 24.9667 33.646 24.7906 34.6268 24.3379C34.9664 24.1744 41.2288 19.5594 48.5223 14.0892L61.789 4.12977L61.8267 12.7437C61.8393 17.4845 61.8393 25.2433 61.8267 29.9716L61.789 38.5855L54.8098 29.9716C50.9744 25.2308 47.7427 21.2948 47.6295 21.2319C47.2899 21.0558 46.6612 21.0936 46.3217 21.3199C45.9696 21.5588 45.7306 22.1624 45.8312 22.59C45.8815 22.766 49.1008 26.8529 52.999 31.6692L60.0914 40.4215L46.133 40.4592C38.4497 40.4718 25.8997 40.4718 18.2164 40.4592L4.25803 40.4215L11.3504 31.6692C15.2486 26.8529 18.4679 22.766 18.5182 22.59C18.6188 22.1624 18.3798 21.5588 18.0277 21.3199C17.7134 21.1187 17.1349 21.0558 16.7702 21.1942C16.6696 21.2445 13.4504 25.1302 9.64016 29.8458C5.82991 34.5489 2.66099 38.4597 2.61069 38.5226C2.54781 38.5981 2.49751 31.1788 2.49751 21.3828C2.49751 7.61307 2.53524 4.14235 2.66099 4.2178C2.73644 4.28067 8.78505 8.79513 16.0786 14.2653Z" fill="#FF4E43"/>
</svg>
