<svg width="69" height="73" viewBox="0 0 69 73" fill="none" xmlns="http://www.w3.org/2000/svg">
<path d="M28.7311 50.8015C35.0517 56.4512 46.152 59.3495 43.7382 51.0169C40.8603 41.0818 16.4246 29.8237 22.5616 21.9143C27.6007 15.42 36.0844 24.0424 39.6081 27.6874" stroke="black" stroke-linecap="round"/>
<path d="M15.8931 45.0634L9.6276 37.2204L19.2624 40.721L15.8931 45.0634Z" fill="url(#paint0_linear_426_577)"/>
<path d="M55.2468 12.9893L13.5278 44.4715L26.3565 63.8669L55.2468 12.9893Z" fill="url(#paint1_linear_426_577)"/>
<path d="M24.8739 63.9586L12.3449 45.5412L11.4536 58.5147L24.8739 63.9586Z" fill="url(#paint2_linear_426_577)"/>
<path opacity="0.7" d="M29.5981 43.7721L10.2285 36.4449L55.1273 13.1443L29.5981 43.7721Z" fill="url(#paint3_linear_426_577)"/>
<path d="M43.9629 18.8921L55.2477 12.9894L49.4697 23.1649L43.9629 18.8921Z" fill="url(#paint4_linear_426_577)"/>
<defs>
<linearGradient id="paint0_linear_426_577" x1="12.0383" y1="42.0724" x2="15.4077" y2="37.73" gradientUnits="userSpaceOnUse">
<stop stop-color="#0B94E1"/>
<stop offset="1" stop-color="#3DD0FF"/>
</linearGradient>
<linearGradient id="paint1_linear_426_577" x1="17.5355" y1="57.2709" x2="47.0172" y2="19.2749" gradientUnits="userSpaceOnUse">
<stop stop-color="#EC3900"/>
<stop offset="0.959016" stop-color="#FFBE15"/>
</linearGradient>
<linearGradient id="paint2_linear_426_577" x1="14.0744" y1="60.5945" x2="19.571" y2="53.5105" gradientUnits="userSpaceOnUse">
<stop stop-color="#EC3900"/>
<stop offset="0.959016" stop-color="#FFBE15"/>
</linearGradient>
<linearGradient id="paint3_linear_426_577" x1="18.5988" y1="42.9396" x2="46.7569" y2="6.64963" gradientUnits="userSpaceOnUse">
<stop stop-color="#0B94E1"/>
<stop offset="1" stop-color="#3DD0FF"/>
</linearGradient>
<linearGradient id="paint4_linear_426_577" x1="46.4858" y1="21.0981" x2="55.4684" y2="12.7621" gradientUnits="userSpaceOnUse">
<stop stop-color="#707071"/>
<stop offset="1" stop-color="#292929"/>
</linearGradient>
</defs>
</svg>
