<svg width="30" height="30" viewBox="0 0 30 30" fill="none" xmlns="http://www.w3.org/2000/svg">
<rect x="0.5" y="0.5" width="29" height="29" rx="4.5" stroke="#24ABF5" stroke-dasharray="2 2"/>
<path d="M9.4 22H19.28V20.4H12.9L17.36 15.86C17.9067 15.3 18.3533 14.6667 18.7 13.96C19.0467 13.2533 19.22 12.54 19.22 11.82C19.22 11.3933 19.1333 10.9467 18.96 10.48C18.7867 10.0133 18.52 9.58 18.16 9.18C17.8 8.76667 17.34 8.43333 16.78 8.18C16.22 7.91333 15.5533 7.78 14.78 7.78C13.82 7.78 12.9933 7.99333 12.3 8.42C11.62 8.83333 11.1 9.42 10.74 10.18C10.38 10.9267 10.2 11.8 10.2 12.8H11.9C11.9 12.0933 12.0133 11.4867 12.24 10.98C12.4667 10.46 12.7933 10.0667 13.22 9.8C13.66 9.52 14.18 9.38 14.78 9.38C15.2067 9.38 15.5867 9.45333 15.92 9.6C16.2533 9.74667 16.5333 9.94 16.76 10.18C17 10.42 17.18 10.6867 17.3 10.98C17.42 11.2733 17.48 11.5733 17.48 11.88C17.48 12.2533 17.42 12.6133 17.3 12.96C17.1933 13.2933 17.0267 13.6267 16.8 13.96C16.5867 14.28 16.3267 14.6067 16.02 14.94L9.4 22Z" fill="#24ABF5"/>
</svg>
