<svg width="30" height="30" viewBox="0 0 30 30" fill="none" xmlns="http://www.w3.org/2000/svg">
<rect x="0.5" y="0.5" width="29" height="29" rx="4.5" stroke="#95E158" stroke-dasharray="2 2"/>
<path d="M14.06 15.1C14.9667 15.1 15.76 14.94 16.44 14.62C17.12 14.3 17.6533 13.8667 18.04 13.32C18.4267 12.7733 18.62 12.1733 18.62 11.52C18.62 10.8533 18.46 10.24 18.14 9.68C17.8333 9.12 17.3867 8.66667 16.8 8.32C16.2267 7.97333 15.54 7.8 14.74 7.8C13.98 7.8 13.3 7.96 12.7 8.28C12.1133 8.58667 11.6467 9.01333 11.3 9.56C10.9667 10.1067 10.8 10.7467 10.8 11.48H12.42C12.42 10.8667 12.6467 10.36 13.1 9.96C13.5533 9.54667 14.1067 9.34 14.76 9.34C15.2267 9.34 15.6133 9.43333 15.92 9.62C16.24 9.80667 16.48 10.0733 16.64 10.42C16.8 10.7533 16.88 11.14 16.88 11.58C16.88 11.9133 16.8133 12.2267 16.68 12.52C16.56 12.8133 16.38 13.0733 16.14 13.3C15.9 13.5133 15.6067 13.6867 15.26 13.82C14.9133 13.94 14.5133 14 14.06 14V15.1ZM14.66 22.2C15.5 22.2 16.2467 22.04 16.9 21.72C17.5533 21.4 18.0667 20.9467 18.44 20.36C18.8267 19.7733 19.02 19.0867 19.02 18.3C19.02 17.6067 18.8867 17.0133 18.62 16.52C18.3667 16.0267 18.0067 15.6267 17.54 15.32C17.0867 15 16.56 14.7667 15.96 14.62C15.3733 14.4733 14.74 14.4 14.06 14.4V15.5C14.5133 15.5 14.9333 15.5533 15.32 15.66C15.7067 15.7667 16.0467 15.9333 16.34 16.16C16.6333 16.3733 16.86 16.6467 17.02 16.98C17.1933 17.3 17.28 17.6733 17.28 18.1C17.28 18.6067 17.1733 19.0467 16.96 19.42C16.7467 19.7933 16.44 20.0867 16.04 20.3C15.6533 20.5 15.1933 20.6 14.66 20.6C14.1267 20.6 13.6533 20.5 13.24 20.3C12.8267 20.1 12.5 19.8267 12.26 19.48C12.0333 19.1333 11.92 18.74 11.92 18.3H10.2C10.2 18.8467 10.3067 19.36 10.52 19.84C10.7333 20.3067 11.0333 20.72 11.42 21.08C11.8067 21.4267 12.2733 21.7 12.82 21.9C13.3667 22.1 13.98 22.2 14.66 22.2Z" fill="#95E158"/>
</svg>
