<svg width="77" height="48" viewBox="0 0 77 48" fill="none" xmlns="http://www.w3.org/2000/svg">
<path d="M10.285 18.01L10.772 18.1233L10.7726 18.1208L10.285 18.01ZM12.17 13.135L12.5963 13.3963L12.5999 13.3903L12.17 13.135ZM15.095 9.95L14.8214 9.53151L14.8214 9.53151L15.095 9.95ZM22.7 9.95L22.9736 9.53151L22.9736 9.53151L22.7 9.95ZM25.625 13.135L25.195 13.3903L25.1987 13.3963L25.625 13.135ZM27.51 18.01L27.0224 18.1208L27.023 18.1233L27.51 18.01ZM27.51 30.555L27.997 30.6683L27.9976 30.6658L27.51 30.555ZM25.625 35.43L26.0513 35.6913L26.0549 35.6853L25.625 35.43ZM22.7 38.55L22.9736 38.9685L22.9736 38.9685L22.7 38.55ZM15.095 38.55L15.3686 38.1315L15.3686 38.1315L15.095 38.55ZM12.17 35.43L11.74 35.6853L11.7437 35.6913L12.17 35.43ZM10.285 30.555L9.79743 30.6658L9.798 30.6683L10.285 30.555ZM2.875 36.73L2.41599 36.9283L2.41809 36.9331L2.875 36.73ZM9.31 44.92L9.01933 45.3269L9.02674 45.332L9.31 44.92ZM28.55 44.92L28.8363 45.3299L28.8406 45.3269L28.55 44.92ZM34.92 36.73L34.461 36.5317L34.461 36.5317L34.92 36.73ZM34.92 11.77L34.461 11.9683L34.461 11.9683L34.92 11.77ZM28.55 3.645L28.2594 4.05189L28.2637 4.05492L28.55 3.645ZM9.31 3.645L9.5963 4.05492L9.59759 4.05401L9.31 3.645ZM2.875 11.77L2.41807 11.5669L2.41602 11.5717L2.875 11.77ZM10.135 24.25C10.135 21.9841 10.3488 19.9429 10.772 18.1233L9.798 17.8967C9.35451 19.8037 9.135 21.9225 9.135 24.25H10.135ZM10.7726 18.1208C11.1966 16.255 11.8074 14.6835 12.5963 13.3963L11.7437 12.8737C10.886 14.2732 10.2401 15.9517 9.79743 17.8992L10.7726 18.1208ZM12.5999 13.3903C13.3919 12.0564 14.3173 11.0559 15.3686 10.3685L14.8214 9.53151C13.6194 10.3174 12.5947 11.4403 11.7401 12.8797L12.5999 13.3903ZM15.3686 10.3685C16.4114 9.68667 17.5724 9.345 18.865 9.345V8.345C17.3842 8.345 16.0319 8.73999 14.8214 9.53151L15.3686 10.3685ZM18.865 9.345C20.2042 9.345 21.3862 9.68838 22.4264 10.3685L22.9736 9.53151C21.7605 8.73828 20.3858 8.345 18.865 8.345V9.345ZM22.4264 10.3685C23.4777 11.0559 24.4031 12.0564 25.1951 13.3903L26.0549 12.8797C25.2003 11.4403 24.1756 10.3174 22.9736 9.53151L22.4264 10.3685ZM25.1987 13.3963C25.9876 14.6835 26.5984 16.255 27.0224 18.1208L27.9976 17.8992C27.5549 15.9517 26.909 14.2732 26.0513 12.8737L25.1987 13.3963ZM27.023 18.1233C27.4462 19.9429 27.66 21.9841 27.66 24.25H28.66C28.66 21.9225 28.4405 19.8037 27.997 17.8967L27.023 18.1233ZM27.66 24.25C27.66 26.5157 27.4462 28.5795 27.0224 30.4442L27.9976 30.6658C28.4404 28.7171 28.66 26.5777 28.66 24.25H27.66ZM27.023 30.4417C26.5992 32.2641 25.9879 33.8395 25.1951 35.1747L26.0549 35.6853C26.9088 34.2471 27.5542 32.5725 27.997 30.6683L27.023 30.4417ZM25.1987 35.1687C24.4075 36.4597 23.4815 37.4417 22.4264 38.1315L22.9736 38.9685C24.1719 38.185 25.1959 37.087 26.0513 35.6913L25.1987 35.1687ZM22.4264 38.1315C21.3862 38.8116 20.2042 39.155 18.865 39.155V40.155C20.3858 40.155 21.7605 39.7617 22.9736 38.9685L22.4264 38.1315ZM18.865 39.155C17.5724 39.155 16.4114 38.8133 15.3686 38.1315L14.8214 38.9685C16.0319 39.76 17.3842 40.155 18.865 40.155V39.155ZM15.3686 38.1315C14.3135 37.4417 13.3875 36.4597 12.5963 35.1687L11.7437 35.6913C12.5991 37.087 13.6231 38.185 14.8214 38.9685L15.3686 38.1315ZM12.5999 35.1747C11.8071 33.8395 11.1958 32.2641 10.772 30.4417L9.798 30.6683C10.2409 32.5725 10.8862 34.2471 11.7401 35.6853L12.5999 35.1747ZM10.7726 30.4442C10.3488 28.5795 10.135 26.5157 10.135 24.25H9.135C9.135 26.5777 9.35455 28.7171 9.79743 30.6658L10.7726 30.4442ZM0.1 24.25C0.1 29.1112 0.866278 33.3418 2.41602 36.9283L3.33398 36.5317C1.85039 33.0982 1.1 29.0088 1.1 24.25H0.1ZM2.41809 36.9331C4.009 40.5126 6.20675 43.3178 9.01938 45.3269L9.60062 44.5131C6.95325 42.6222 4.861 39.9674 3.33191 36.5269L2.41809 36.9331ZM9.02674 45.332C11.8893 47.3 15.1745 48.28 18.865 48.28V47.28C15.3622 47.28 12.2774 46.3533 9.59327 44.508L9.02674 45.332ZM18.865 48.28C22.6814 48.28 26.0125 47.3021 28.8363 45.3299L28.2637 44.5101C25.6275 46.3512 22.502 47.28 18.865 47.28V48.28ZM28.8406 45.3269C31.6546 43.3169 33.8314 40.51 35.379 36.9283L34.461 36.5317C32.9753 39.97 30.9054 42.6231 28.2594 44.5131L28.8406 45.3269ZM35.379 36.9283C36.9287 33.3418 37.695 29.1112 37.695 24.25H36.695C36.695 29.0088 35.9446 33.0982 34.461 36.5317L35.379 36.9283ZM37.695 24.25C37.695 19.3888 36.9287 15.1582 35.379 11.5717L34.461 11.9683C35.9446 15.4018 36.695 19.4912 36.695 24.25H37.695ZM35.379 11.5717C33.8311 7.98937 31.6531 5.20239 28.8363 3.23508L28.2637 4.05492C30.9069 5.90094 32.9756 8.53062 34.461 11.9683L35.379 11.5717ZM28.8406 3.23813C26.0165 1.22089 22.6838 0.219999 18.865 0.219999V1.22C22.4995 1.22 25.6235 2.1691 28.2594 4.05186L28.8406 3.23813ZM18.865 0.219999C15.172 0.219999 11.8852 1.22307 9.02241 3.23598L9.59759 4.05401C12.2814 2.16693 15.3646 1.22 18.865 1.22V0.219999ZM9.02371 3.23508C6.20821 5.20145 4.0093 7.98672 2.41809 11.5669L3.33191 11.9731C4.8607 8.53327 6.95179 5.90187 9.5963 4.05492L9.02371 3.23508ZM2.41602 11.5717C0.866278 15.1582 0.1 19.3888 0.1 24.25H1.1C1.1 19.4912 1.85039 15.4018 3.33398 11.9683L2.41602 11.5717ZM57.1876 24.835H56.6876V25.335H57.1876V24.835ZM72.7226 19.505L73.0943 19.8395L73.0983 19.8349L72.7226 19.505ZM73.3076 6.895L73.731 6.62911L73.731 6.62911L73.3076 6.895ZM68.1726 2.41L67.9455 2.85546L67.949 2.85721L68.1726 2.41ZM52.2476 2.475L52.0172 2.03125L52.0172 2.03125L52.2476 2.475ZM46.9176 7.285L46.4961 7.01598L46.4946 7.01835L46.9176 7.285ZM45.0326 14.175H44.5326V14.675H45.0326V14.175ZM53.6776 14.175V14.675H54.1776V14.175H53.6776ZM55.4976 10.015L55.8306 10.388L55.8314 10.3873L55.4976 10.015ZM65.1826 10.86L65.625 10.6271L65.625 10.6271L65.1826 10.86ZM65.1826 16.255L64.74 16.0221L64.7354 16.0314L65.1826 16.255ZM63.4926 18.4L63.8104 18.786L63.817 18.7806L63.8234 18.7749L63.4926 18.4ZM60.7626 19.83L60.6102 19.3538L60.6045 19.3557L60.7626 19.83ZM57.1876 20.35V19.85H56.6876V20.35H57.1876ZM68.4976 46.285L68.6984 46.7429L68.7021 46.7413L68.4976 46.285ZM74.2826 41.605L73.8721 41.3194L73.8679 41.3256L74.2826 41.605ZM74.9326 28.865L74.4998 29.1155L74.5028 29.1205L74.9326 28.865ZM70.9026 24.835L70.6375 25.2591L70.6453 25.2637L70.9026 24.835ZM64.7926 22.495L64.691 22.9846L64.6928 22.9849L64.7926 22.495ZM57.1876 21.78V21.28H56.6876V21.78H57.1876ZM57.1876 26.72H56.6876V27.22H57.1876V26.72ZM61.4126 27.24L61.2752 27.7208L61.2852 27.7236L61.2953 27.726L61.4126 27.24ZM64.5326 28.605L64.2359 29.0076L64.2458 29.0146L64.5326 28.605ZM66.4826 30.88L66.0311 31.095L66.0354 31.1036L66.4826 30.88ZM66.2226 37.315L65.8007 37.0466L65.8007 37.0466L66.2226 37.315ZM63.6876 39.525L63.8959 39.9796L63.9039 39.9758L63.6876 39.525ZM56.1476 39.46L55.9307 39.9105L55.9375 39.9138L55.9445 39.9169L56.1476 39.46ZM53.3526 37.055L53.7686 36.7776L53.7686 36.7776L53.3526 37.055ZM52.3126 33.285H52.8126V32.785H52.3126V33.285ZM43.0826 33.285V32.785H42.5826V33.285H43.0826ZM44.2526 38.875L43.7947 39.076L43.7966 39.0802L44.2526 38.875ZM47.5676 43.555L47.2195 43.914L47.2252 43.9194L47.5676 43.555ZM52.7676 46.74L52.5888 47.2069L52.5888 47.2069L52.7676 46.74ZM57.1876 25.335C60.6545 25.335 63.7652 24.8743 66.513 23.9436L66.1922 22.9964C63.5666 23.8857 60.5673 24.335 57.1876 24.335V25.335ZM66.513 23.9436C69.2634 23.012 71.4657 21.6489 73.0942 19.8395L72.3509 19.1705C70.8595 20.8277 68.8151 22.108 66.1922 22.9964L66.513 23.9436ZM73.0983 19.8349C74.7422 17.9626 75.5626 15.7205 75.5626 13.135H74.5626C74.5626 15.4895 73.8229 17.494 72.3469 19.1751L73.0983 19.8349ZM75.5626 13.135C75.5626 10.7486 74.9533 8.5757 73.731 6.62911L72.8841 7.16088C74.0019 8.94096 74.5626 10.9281 74.5626 13.135H75.5626ZM73.731 6.62911C72.5056 4.67743 70.7194 3.12437 68.3962 1.96278L67.949 2.85721C70.1325 3.94896 71.7696 5.3859 72.8841 7.16088L73.731 6.62911ZM68.3997 1.96454C66.1027 0.793527 63.3337 0.219999 60.1126 0.219999V1.22C63.2181 1.22 65.8225 1.77314 67.9455 2.85545L68.3997 1.96454ZM60.1126 0.219999C57.0566 0.219999 54.3533 0.818252 52.0172 2.03125L52.478 2.91874C54.6485 1.79174 57.1886 1.22 60.1126 1.22V0.219999ZM52.0172 2.03125C49.69 3.23957 47.8458 4.90149 46.4961 7.01598L47.339 7.55402C48.5894 5.59517 50.2985 4.05042 52.478 2.91874L52.0172 2.03125ZM46.4946 7.01835C45.1825 9.09964 44.5326 11.4907 44.5326 14.175H45.5326C45.5326 11.6593 46.1393 9.45702 47.3405 7.55165L46.4946 7.01835ZM45.0326 14.675H53.6776V13.675H45.0326V14.675ZM54.1776 14.175C54.1776 12.6211 54.7281 11.3723 55.8306 10.388L55.1646 9.64203C53.8404 10.8244 53.1776 12.3489 53.1776 14.175H54.1776ZM55.8314 10.3873C56.9888 9.3496 58.4053 8.825 60.1126 8.825V7.825C58.1799 7.825 56.5197 8.42707 55.1638 9.64271L55.8314 10.3873ZM60.1126 8.825C61.3619 8.825 62.336 9.03392 63.0647 9.41746L63.5305 8.53254C62.6125 8.04941 61.4633 7.825 60.1126 7.825V8.825ZM63.0647 9.41746C63.7986 9.80372 64.3539 10.359 64.7401 11.0929L65.625 10.6271C65.1446 9.71435 64.4432 9.01294 63.5305 8.53254L63.0647 9.41746ZM64.7401 11.0929C65.1299 11.8334 65.3326 12.7044 65.3326 13.72H66.3326C66.3326 12.5689 66.1019 11.5332 65.625 10.6271L64.7401 11.0929ZM65.3326 13.72C65.3326 14.4996 65.1385 15.2652 64.7401 16.0221L65.625 16.4879C66.0933 15.5982 66.3326 14.6737 66.3326 13.72H65.3326ZM64.7354 16.0314C64.3775 16.7471 63.8563 17.4122 63.1618 18.0251L63.8234 18.7749C64.6021 18.0878 65.2077 17.3229 65.6298 16.4786L64.7354 16.0314ZM63.1747 18.014C62.4954 18.5735 61.6445 19.0228 60.6102 19.3538L60.915 20.3062C62.0473 19.9439 63.0164 19.4399 63.8104 18.786L63.1747 18.014ZM60.6045 19.3557C59.6254 19.682 58.4888 19.85 57.1876 19.85V20.85C58.573 20.85 59.8197 20.6713 60.9207 20.3043L60.6045 19.3557ZM56.6876 20.35V24.835H57.6876V20.35H56.6876ZM59.7226 48.41C63.1548 48.41 66.1512 47.8601 68.6984 46.7429L68.2967 45.8271C65.9039 46.8766 63.0504 47.41 59.7226 47.41V48.41ZM68.7021 46.7413C71.2879 45.5821 73.2945 43.9659 74.6972 41.8844L73.8679 41.3256C72.584 43.2307 70.7339 44.7346 68.2931 45.8287L68.7021 46.7413ZM74.693 41.8905C76.1422 39.8074 76.8626 37.4095 76.8626 34.715H75.8626C75.8626 37.2205 75.1963 39.416 73.8721 41.3195L74.693 41.8905ZM76.8626 34.715C76.8626 32.3491 76.3712 30.3061 75.3623 28.6095L74.5028 29.1205C75.4006 30.6305 75.8626 32.4876 75.8626 34.715H76.8626ZM75.3653 28.6145C74.3669 26.8899 72.9611 25.487 71.1598 24.4063L70.6453 25.2637C72.3107 26.263 73.5916 27.5468 74.4999 29.1155L75.3653 28.6145ZM71.1676 24.411C69.3758 23.2911 67.2813 22.4917 64.8924 22.0051L64.6928 22.9849C66.9839 23.4516 68.9627 24.2122 70.6376 25.259L71.1676 24.411ZM64.8942 22.0054C62.5587 21.5207 59.9891 21.28 57.1876 21.28V22.28C59.9328 22.28 62.4331 22.516 64.691 22.9846L64.8942 22.0054ZM56.6876 21.78V26.72H57.6876V21.78H56.6876ZM57.1876 27.22C58.7564 27.22 60.1167 27.3898 61.2752 27.7208L61.5499 26.7592C60.2818 26.3969 58.8255 26.22 57.1876 26.22V27.22ZM61.2953 27.726C62.5037 28.0177 63.4784 28.4493 64.236 29.0075L64.8292 28.2025C63.9401 27.5474 62.8348 27.0689 61.5299 26.754L61.2953 27.726ZM64.2458 29.0146C65.0454 29.5743 65.6368 30.2669 66.0311 31.095L66.934 30.665C66.4617 29.6731 65.7531 28.8491 64.8193 28.1954L64.2458 29.0146ZM66.0354 31.1036C66.4315 31.8958 66.6326 32.7718 66.6326 33.74H67.6326C67.6326 32.6282 67.4004 31.5975 66.9298 30.6564L66.0354 31.1036ZM66.6326 33.74C66.6326 35.1 66.3444 36.1923 65.8007 37.0466L66.6444 37.5834C67.3141 36.5311 67.6326 35.24 67.6326 33.74H66.6326ZM65.8007 37.0466C65.2474 37.9161 64.476 38.592 63.4712 39.0742L63.9039 39.9758C65.0659 39.418 65.9844 38.6206 66.6444 37.5834L65.8007 37.0466ZM63.4793 39.0705C62.5188 39.5107 61.3581 39.74 59.9826 39.74V40.74C61.467 40.74 62.7763 40.4927 63.8959 39.9795L63.4793 39.0705ZM59.9826 39.74C58.66 39.74 57.4516 39.4924 56.3506 39.0031L55.9445 39.9169C57.1836 40.4676 58.5318 40.74 59.9826 40.74V39.74ZM56.3645 39.0095C55.2719 38.4834 54.4103 37.7402 53.7686 36.7776L52.9366 37.3323C53.6815 38.4498 54.6833 39.3099 55.9307 39.9105L56.3645 39.0095ZM53.7686 36.7776C53.1392 35.8336 52.8126 34.6776 52.8126 33.285H51.8126C51.8126 34.839 52.1793 36.1964 52.9366 37.3323L53.7686 36.7776ZM52.3126 32.785H43.0826V33.785H52.3126V32.785ZM42.5826 33.285C42.5826 35.3038 42.9868 37.2356 43.7948 39.076L44.7104 38.674C43.9584 36.961 43.5826 35.1662 43.5826 33.285H42.5826ZM43.7966 39.0802C44.6038 40.8739 45.7464 42.4854 47.2195 43.914L47.9157 43.196C46.5288 41.8512 45.4614 40.3428 44.7085 38.6698L43.7966 39.0802ZM47.2252 43.9194C48.7076 45.3119 50.4982 46.4063 52.5888 47.2069L52.9464 46.2731C50.9636 45.5137 49.2876 44.4847 47.9099 43.1906L47.2252 43.9194ZM52.5888 47.2069C54.6923 48.0125 57.0729 48.41 59.7226 48.41V47.41C57.1722 47.41 54.9162 47.0275 52.9464 46.2731L52.5888 47.2069Z" fill="#A7A7A7"/>
</svg>
