<svg width="65" height="48" viewBox="0 0 65 48" fill="none" xmlns="http://www.w3.org/2000/svg">
<path d="M10.285 18.01L10.772 18.1233L10.7726 18.1208L10.285 18.01ZM12.17 13.135L12.5963 13.3963L12.5999 13.3903L12.17 13.135ZM15.095 9.95L14.8214 9.53151L14.8214 9.53151L15.095 9.95ZM22.7 9.95L22.9736 9.53151L22.9736 9.53151L22.7 9.95ZM25.625 13.135L25.195 13.3903L25.1987 13.3963L25.625 13.135ZM27.51 18.01L27.0224 18.1208L27.023 18.1233L27.51 18.01ZM27.51 30.555L27.997 30.6683L27.9976 30.6658L27.51 30.555ZM25.625 35.43L26.0513 35.6913L26.0549 35.6853L25.625 35.43ZM22.7 38.55L22.9736 38.9685L22.9736 38.9685L22.7 38.55ZM15.095 38.55L15.3686 38.1315L15.3686 38.1315L15.095 38.55ZM12.17 35.43L11.74 35.6853L11.7437 35.6913L12.17 35.43ZM10.285 30.555L9.79743 30.6658L9.798 30.6683L10.285 30.555ZM2.875 36.73L2.41599 36.9283L2.41809 36.9331L2.875 36.73ZM9.31 44.92L9.01933 45.3269L9.02674 45.332L9.31 44.92ZM28.55 44.92L28.8363 45.3299L28.8406 45.3269L28.55 44.92ZM34.92 36.73L34.461 36.5317L34.461 36.5317L34.92 36.73ZM34.92 11.77L34.461 11.9683L34.461 11.9683L34.92 11.77ZM28.55 3.645L28.2594 4.05189L28.2637 4.05492L28.55 3.645ZM9.31 3.645L9.5963 4.05492L9.59759 4.05401L9.31 3.645ZM2.875 11.77L2.41807 11.5669L2.41602 11.5717L2.875 11.77ZM10.135 24.25C10.135 21.9841 10.3488 19.9429 10.772 18.1233L9.798 17.8967C9.35451 19.8037 9.135 21.9225 9.135 24.25H10.135ZM10.7726 18.1208C11.1966 16.255 11.8074 14.6835 12.5963 13.3963L11.7437 12.8737C10.886 14.2732 10.2401 15.9517 9.79743 17.8992L10.7726 18.1208ZM12.5999 13.3903C13.3919 12.0564 14.3173 11.0559 15.3686 10.3685L14.8214 9.53151C13.6194 10.3174 12.5947 11.4403 11.7401 12.8797L12.5999 13.3903ZM15.3686 10.3685C16.4114 9.68667 17.5724 9.345 18.865 9.345V8.345C17.3842 8.345 16.0319 8.73999 14.8214 9.53151L15.3686 10.3685ZM18.865 9.345C20.2042 9.345 21.3862 9.68838 22.4264 10.3685L22.9736 9.53151C21.7605 8.73828 20.3858 8.345 18.865 8.345V9.345ZM22.4264 10.3685C23.4777 11.0559 24.4031 12.0564 25.1951 13.3903L26.0549 12.8797C25.2003 11.4403 24.1756 10.3174 22.9736 9.53151L22.4264 10.3685ZM25.1987 13.3963C25.9876 14.6835 26.5984 16.255 27.0224 18.1208L27.9976 17.8992C27.5549 15.9517 26.909 14.2732 26.0513 12.8737L25.1987 13.3963ZM27.023 18.1233C27.4462 19.9429 27.66 21.9841 27.66 24.25H28.66C28.66 21.9225 28.4405 19.8037 27.997 17.8967L27.023 18.1233ZM27.66 24.25C27.66 26.5157 27.4462 28.5795 27.0224 30.4442L27.9976 30.6658C28.4404 28.7171 28.66 26.5777 28.66 24.25H27.66ZM27.023 30.4417C26.5992 32.2641 25.9879 33.8395 25.1951 35.1747L26.0549 35.6853C26.9088 34.2471 27.5542 32.5725 27.997 30.6683L27.023 30.4417ZM25.1987 35.1687C24.4075 36.4597 23.4815 37.4417 22.4264 38.1315L22.9736 38.9685C24.1719 38.185 25.1959 37.087 26.0513 35.6913L25.1987 35.1687ZM22.4264 38.1315C21.3862 38.8116 20.2042 39.155 18.865 39.155V40.155C20.3858 40.155 21.7605 39.7617 22.9736 38.9685L22.4264 38.1315ZM18.865 39.155C17.5724 39.155 16.4114 38.8133 15.3686 38.1315L14.8214 38.9685C16.0319 39.76 17.3842 40.155 18.865 40.155V39.155ZM15.3686 38.1315C14.3135 37.4417 13.3875 36.4597 12.5963 35.1687L11.7437 35.6913C12.5991 37.087 13.6231 38.185 14.8214 38.9685L15.3686 38.1315ZM12.5999 35.1747C11.8071 33.8395 11.1958 32.2641 10.772 30.4417L9.798 30.6683C10.2409 32.5725 10.8862 34.2471 11.7401 35.6853L12.5999 35.1747ZM10.7726 30.4442C10.3488 28.5795 10.135 26.5157 10.135 24.25H9.135C9.135 26.5777 9.35455 28.7171 9.79743 30.6658L10.7726 30.4442ZM0.1 24.25C0.1 29.1112 0.866278 33.3418 2.41602 36.9283L3.33398 36.5317C1.85039 33.0982 1.1 29.0088 1.1 24.25H0.1ZM2.41809 36.9331C4.009 40.5126 6.20675 43.3178 9.01938 45.3269L9.60062 44.5131C6.95325 42.6222 4.861 39.9674 3.33191 36.5269L2.41809 36.9331ZM9.02674 45.332C11.8893 47.3 15.1745 48.28 18.865 48.28V47.28C15.3622 47.28 12.2774 46.3533 9.59327 44.508L9.02674 45.332ZM18.865 48.28C22.6814 48.28 26.0125 47.3021 28.8363 45.3299L28.2637 44.5101C25.6275 46.3512 22.502 47.28 18.865 47.28V48.28ZM28.8406 45.3269C31.6546 43.3169 33.8314 40.51 35.379 36.9283L34.461 36.5317C32.9753 39.97 30.9054 42.6231 28.2594 44.5131L28.8406 45.3269ZM35.379 36.9283C36.9287 33.3418 37.695 29.1112 37.695 24.25H36.695C36.695 29.0088 35.9446 33.0982 34.461 36.5317L35.379 36.9283ZM37.695 24.25C37.695 19.3888 36.9287 15.1582 35.379 11.5717L34.461 11.9683C35.9446 15.4018 36.695 19.4912 36.695 24.25H37.695ZM35.379 11.5717C33.8311 7.98937 31.6531 5.20239 28.8363 3.23508L28.2637 4.05492C30.9069 5.90094 32.9756 8.53062 34.461 11.9683L35.379 11.5717ZM28.8406 3.23813C26.0165 1.22089 22.6838 0.219999 18.865 0.219999V1.22C22.4995 1.22 25.6235 2.1691 28.2594 4.05186L28.8406 3.23813ZM18.865 0.219999C15.172 0.219999 11.8852 1.22307 9.02241 3.23598L9.59759 4.05401C12.2814 2.16693 15.3646 1.22 18.865 1.22V0.219999ZM9.02371 3.23508C6.20821 5.20145 4.0093 7.98672 2.41809 11.5669L3.33191 11.9731C4.8607 8.53327 6.95179 5.90187 9.5963 4.05492L9.02371 3.23508ZM2.41602 11.5717C0.866278 15.1582 0.1 19.3888 0.1 24.25H1.1C1.1 19.4912 1.85039 15.4018 3.33398 11.9683L2.41602 11.5717ZM44.3826 13.33H43.8826V13.9778L44.5093 13.8137L44.3826 13.33ZM55.3026 10.47H55.8026V9.82218L55.1759 9.98631L55.3026 10.47ZM55.3026 47H54.8026V47.5H55.3026V47ZM64.3376 47V47.5H64.8376V47H64.3376ZM64.3376 0.719999H64.8376V0.103052L64.234 0.230843L64.3376 0.719999ZM44.3826 4.945L44.279 4.45584L43.8826 4.53978V4.945H44.3826ZM44.5093 13.8137L55.4293 10.9537L55.1759 9.98631L44.2559 12.8463L44.5093 13.8137ZM54.8026 10.47V47H55.8026V10.47H54.8026ZM55.3026 47.5H64.3376V46.5H55.3026V47.5ZM64.8376 47V0.719999H63.8376V47H64.8376ZM64.234 0.230843L44.279 4.45584L44.4861 5.43416L64.4411 1.20916L64.234 0.230843ZM43.8826 4.945V13.33H44.8826V4.945H43.8826Z" fill="#A7A7A7"/>
</svg>
