<svg width="78" height="48" viewBox="0 0 78 48" fill="none" xmlns="http://www.w3.org/2000/svg">
<path d="M10.285 18.01L10.772 18.1233L10.7726 18.1208L10.285 18.01ZM12.17 13.135L12.5963 13.3963L12.5999 13.3903L12.17 13.135ZM15.095 9.95L14.8214 9.53151L14.8214 9.53151L15.095 9.95ZM22.7 9.95L22.9736 9.53151L22.9736 9.53151L22.7 9.95ZM25.625 13.135L25.195 13.3903L25.1987 13.3963L25.625 13.135ZM27.51 18.01L27.0224 18.1208L27.023 18.1233L27.51 18.01ZM27.51 30.555L27.997 30.6683L27.9976 30.6658L27.51 30.555ZM25.625 35.43L26.0513 35.6913L26.0549 35.6853L25.625 35.43ZM22.7 38.55L22.9736 38.9685L22.9736 38.9685L22.7 38.55ZM15.095 38.55L15.3686 38.1315L15.3686 38.1315L15.095 38.55ZM12.17 35.43L11.74 35.6853L11.7437 35.6913L12.17 35.43ZM10.285 30.555L9.79743 30.6658L9.798 30.6683L10.285 30.555ZM2.875 36.73L2.41599 36.9283L2.41809 36.9331L2.875 36.73ZM9.31 44.92L9.01933 45.3269L9.02674 45.332L9.31 44.92ZM28.55 44.92L28.8363 45.3299L28.8406 45.3269L28.55 44.92ZM34.92 36.73L34.461 36.5317L34.461 36.5317L34.92 36.73ZM34.92 11.77L34.461 11.9683L34.461 11.9683L34.92 11.77ZM28.55 3.645L28.2594 4.05189L28.2637 4.05492L28.55 3.645ZM9.31 3.645L9.5963 4.05492L9.59759 4.05401L9.31 3.645ZM2.875 11.77L2.41807 11.5669L2.41602 11.5717L2.875 11.77ZM10.135 24.25C10.135 21.9841 10.3488 19.9429 10.772 18.1233L9.798 17.8967C9.35451 19.8037 9.135 21.9225 9.135 24.25H10.135ZM10.7726 18.1208C11.1966 16.255 11.8074 14.6835 12.5963 13.3963L11.7437 12.8737C10.886 14.2732 10.2401 15.9517 9.79743 17.8992L10.7726 18.1208ZM12.5999 13.3903C13.3919 12.0564 14.3173 11.0559 15.3686 10.3685L14.8214 9.53151C13.6194 10.3174 12.5947 11.4403 11.7401 12.8797L12.5999 13.3903ZM15.3686 10.3685C16.4114 9.68667 17.5724 9.345 18.865 9.345V8.345C17.3842 8.345 16.0319 8.73999 14.8214 9.53151L15.3686 10.3685ZM18.865 9.345C20.2042 9.345 21.3862 9.68838 22.4264 10.3685L22.9736 9.53151C21.7605 8.73828 20.3858 8.345 18.865 8.345V9.345ZM22.4264 10.3685C23.4777 11.0559 24.4031 12.0564 25.1951 13.3903L26.0549 12.8797C25.2003 11.4403 24.1756 10.3174 22.9736 9.53151L22.4264 10.3685ZM25.1987 13.3963C25.9876 14.6835 26.5984 16.255 27.0224 18.1208L27.9976 17.8992C27.5549 15.9517 26.909 14.2732 26.0513 12.8737L25.1987 13.3963ZM27.023 18.1233C27.4462 19.9429 27.66 21.9841 27.66 24.25H28.66C28.66 21.9225 28.4405 19.8037 27.997 17.8967L27.023 18.1233ZM27.66 24.25C27.66 26.5157 27.4462 28.5795 27.0224 30.4442L27.9976 30.6658C28.4404 28.7171 28.66 26.5777 28.66 24.25H27.66ZM27.023 30.4417C26.5992 32.2641 25.9879 33.8395 25.1951 35.1747L26.0549 35.6853C26.9088 34.2471 27.5542 32.5725 27.997 30.6683L27.023 30.4417ZM25.1987 35.1687C24.4075 36.4597 23.4815 37.4417 22.4264 38.1315L22.9736 38.9685C24.1719 38.185 25.1959 37.087 26.0513 35.6913L25.1987 35.1687ZM22.4264 38.1315C21.3862 38.8116 20.2042 39.155 18.865 39.155V40.155C20.3858 40.155 21.7605 39.7617 22.9736 38.9685L22.4264 38.1315ZM18.865 39.155C17.5724 39.155 16.4114 38.8133 15.3686 38.1315L14.8214 38.9685C16.0319 39.76 17.3842 40.155 18.865 40.155V39.155ZM15.3686 38.1315C14.3135 37.4417 13.3875 36.4597 12.5963 35.1687L11.7437 35.6913C12.5991 37.087 13.6231 38.185 14.8214 38.9685L15.3686 38.1315ZM12.5999 35.1747C11.8071 33.8395 11.1958 32.2641 10.772 30.4417L9.798 30.6683C10.2409 32.5725 10.8862 34.2471 11.7401 35.6853L12.5999 35.1747ZM10.7726 30.4442C10.3488 28.5795 10.135 26.5157 10.135 24.25H9.135C9.135 26.5777 9.35455 28.7171 9.79743 30.6658L10.7726 30.4442ZM0.1 24.25C0.1 29.1112 0.866278 33.3418 2.41602 36.9283L3.33398 36.5317C1.85039 33.0982 1.1 29.0088 1.1 24.25H0.1ZM2.41809 36.9331C4.009 40.5126 6.20675 43.3178 9.01938 45.3269L9.60062 44.5131C6.95325 42.6222 4.861 39.9674 3.33191 36.5269L2.41809 36.9331ZM9.02674 45.332C11.8893 47.3 15.1745 48.28 18.865 48.28V47.28C15.3622 47.28 12.2774 46.3533 9.59327 44.508L9.02674 45.332ZM18.865 48.28C22.6814 48.28 26.0125 47.3021 28.8363 45.3299L28.2637 44.5101C25.6275 46.3512 22.502 47.28 18.865 47.28V48.28ZM28.8406 45.3269C31.6546 43.3169 33.8314 40.51 35.379 36.9283L34.461 36.5317C32.9753 39.97 30.9054 42.6231 28.2594 44.5131L28.8406 45.3269ZM35.379 36.9283C36.9287 33.3418 37.695 29.1112 37.695 24.25H36.695C36.695 29.0088 35.9446 33.0982 34.461 36.5317L35.379 36.9283ZM37.695 24.25C37.695 19.3888 36.9287 15.1582 35.379 11.5717L34.461 11.9683C35.9446 15.4018 36.695 19.4912 36.695 24.25H37.695ZM35.379 11.5717C33.8311 7.98937 31.6531 5.20239 28.8363 3.23508L28.2637 4.05492C30.9069 5.90094 32.9756 8.53062 34.461 11.9683L35.379 11.5717ZM28.8406 3.23813C26.0165 1.22089 22.6838 0.219999 18.865 0.219999V1.22C22.4995 1.22 25.6235 2.1691 28.2594 4.05186L28.8406 3.23813ZM18.865 0.219999C15.172 0.219999 11.8852 1.22307 9.02241 3.23598L9.59759 4.05401C12.2814 2.16693 15.3646 1.22 18.865 1.22V0.219999ZM9.02371 3.23508C6.20821 5.20145 4.0093 7.98672 2.41809 11.5669L3.33191 11.9731C4.8607 8.53327 6.95179 5.90187 9.5963 4.05492L9.02371 3.23508ZM2.41602 11.5717C0.866278 15.1582 0.1 19.3888 0.1 24.25H1.1C1.1 19.4912 1.85039 15.4018 3.33398 11.9683L2.41602 11.5717ZM41.0676 47L40.7065 46.6541L39.8963 47.5H41.0676V47ZM77.6626 47V47.5H78.1626V47H77.6626ZM77.6626 38.485H78.1626V37.985H77.6626V38.485ZM58.6176 38.485L58.2742 38.1216L57.3606 38.985H58.6176V38.485ZM70.4476 27.305L70.1112 26.935L70.1042 26.9416L70.4476 27.305ZM75.7776 9.755L75.3124 9.93863L75.3168 9.94903L75.7776 9.755ZM72.7226 5.27L72.3635 5.6179L72.369 5.6236L72.3747 5.62912L72.7226 5.27ZM67.5876 1.955L67.3917 2.41522L67.4036 2.4199L67.5876 1.955ZM51.0776 2.995L51.3359 3.4231L51.338 3.42182L51.0776 2.995ZM43.4076 17.945H42.9076V18.445H43.4076V17.945ZM52.5076 17.945V18.445H53.0076V17.945H52.5076ZM53.4176 13.135L52.9647 12.9227L52.9595 12.9346L53.4176 13.135ZM56.0826 9.95L56.3562 10.3685L56.3599 10.366L56.0826 9.95ZM63.2326 9.365L63.0274 9.82096L63.0371 9.8253L63.0469 9.82923L63.2326 9.365ZM64.7276 21.91L64.3295 21.6075L64.3295 21.6075L64.7276 21.91ZM61.7376 25.42L62.0987 25.7659L62.1035 25.7607L61.7376 25.42ZM41.0676 47.5H77.6626V46.5H41.0676V47.5ZM78.1626 47V38.485H77.1626V47H78.1626ZM77.6626 37.985H58.6176V38.985H77.6626V37.985ZM58.961 38.8484L70.791 27.6684L70.1042 26.9416L58.2742 38.1216L58.961 38.8484ZM70.7839 27.675C72.7287 25.907 74.3023 23.9358 75.5005 21.7613L74.6247 21.2787C73.4828 23.3509 71.9798 25.2364 70.1112 26.935L70.7839 27.675ZM75.5005 21.7613C76.7113 19.564 77.3176 17.206 77.3176 14.695H76.3176C76.3176 17.0374 75.7539 19.2293 74.6247 21.2787L75.5005 21.7613ZM77.3176 14.695C77.3176 12.9762 76.9554 11.2638 76.2384 9.56097L75.3168 9.94903C75.9865 11.5395 76.3176 13.1205 76.3176 14.695H77.3176ZM76.2427 9.57142C75.5642 7.85276 74.5036 6.29919 73.0705 4.91088L72.3747 5.62912C73.7149 6.92748 74.6909 8.3639 75.3125 9.93858L76.2427 9.57142ZM73.0817 4.9221C71.6817 3.47697 69.9072 2.33544 67.7716 1.4901L67.4036 2.4199C69.428 3.22123 71.0768 4.28969 72.3635 5.6179L73.0817 4.9221ZM67.7834 1.49492C65.6721 0.59653 63.2196 0.154996 60.4376 0.154996V1.155C63.1156 1.155 65.4297 1.58013 67.3918 2.41508L67.7834 1.49492ZM60.4376 0.154996C56.6834 0.154996 53.4685 0.950413 50.8171 2.56818L51.338 3.42182C53.8 1.91958 56.8251 1.155 60.4376 1.155V0.154996ZM50.8192 2.5669C48.2257 4.13197 46.2531 6.26085 44.9104 8.94639L45.8048 9.39361C47.062 6.87915 48.9028 4.89136 51.3359 3.42309L50.8192 2.5669ZM44.9104 8.94639C43.5717 11.6237 42.9076 14.6266 42.9076 17.945H43.9076C43.9076 14.7634 44.5434 11.9163 45.8048 9.39361L44.9104 8.94639ZM43.4076 18.445H52.5076V17.445H43.4076V18.445ZM53.0076 17.945C53.0076 16.1803 53.3016 14.6474 53.8757 13.3354L52.9595 12.9346C52.3202 14.3959 52.0076 16.0697 52.0076 17.945H53.0076ZM53.8703 13.3472C54.4865 12.0328 55.3175 11.0476 56.3562 10.3685L55.809 9.53151C54.5943 10.3257 53.6487 11.4639 52.9648 12.9228L53.8703 13.3472ZM56.3599 10.366C57.4367 9.64819 58.7237 9.28 60.2426 9.28V8.28C58.5548 8.28 57.0685 8.69181 55.8052 9.53397L56.3599 10.366ZM60.2426 9.28C61.3115 9.28 62.2361 9.46487 63.0274 9.82096L63.4378 8.90904C62.4957 8.48513 61.427 8.28 60.2426 8.28V9.28ZM63.0469 9.82923C63.8563 10.153 64.5343 10.5938 65.089 11.1486L65.7961 10.4414C65.1375 9.78282 64.3422 9.27034 63.4183 8.90076L63.0469 9.82923ZM65.089 11.1486C65.6479 11.7075 66.064 12.3425 66.3416 13.0562L67.2736 12.6938C66.9445 11.8475 66.4506 11.0959 65.7961 10.4414L65.089 11.1486ZM66.3416 13.0562C66.6228 13.7794 66.7626 14.5197 66.7626 15.28H67.7626C67.7626 14.3936 67.599 13.5306 67.2736 12.6938L66.3416 13.0562ZM66.7626 15.28C66.7626 16.3866 66.558 17.4502 66.1483 18.4743L67.0768 18.8457C67.5338 17.7031 67.7626 16.5134 67.7626 15.28H66.7626ZM66.1483 18.4743C65.7342 19.5096 65.13 20.5541 64.3295 21.6075L65.1257 22.2125C65.9718 21.0992 66.6243 19.977 67.0768 18.8457L66.1483 18.4743ZM64.3295 21.6075C63.5184 22.6746 62.5331 23.8318 61.3716 25.0793L62.1035 25.7607C63.2821 24.4948 64.2901 23.312 65.1257 22.2125L64.3295 21.6075ZM61.3765 25.0741L40.7065 46.6541L41.4287 47.3459L62.0987 25.7659L61.3765 25.0741Z" fill="#A7A7A7"/>
</svg>
