<svg width="71" height="72" viewBox="0 0 71 72" fill="none" xmlns="http://www.w3.org/2000/svg">
<path d="M66.5566 67.4951H30.3379C29.3546 67.4951 28.5566 68.2931 28.5566 69.2764C28.5566 70.2596 29.3546 71.0576 30.3379 71.0576H67.7441C69.0029 71.0576 70.1191 69.9437 70.1191 68.6826V31.2764C70.1191 30.2931 69.3211 29.4951 68.3379 29.4951C67.3546 29.4951 66.5566 30.2931 66.5566 31.2764V67.4951ZM64.1816 27.1201C64.1816 25.9849 63.2815 24.7451 61.8066 24.7451H26.1816C24.7091 24.7451 23.8066 25.9777 23.8066 27.1201V62.7451C23.8066 64.22 25.0416 65.1201 26.1816 65.1201H61.8066C62.9419 65.1201 64.1816 64.22 64.1816 62.7451V27.1201ZM60.6191 36.6201V61.5576H27.3691V36.6201H60.6191Z" fill="#E4DECE"/>
<path d="M56.4312 1.75L50.6812 7.5M28.8025 29.3787L40.6187 17.5625M40.6187 17.5625L49.2437 26.1875L59.3062 16.125L50.6812 7.5M40.6187 17.5625L50.6812 7.5M28.8025 29.3787C30.2869 30.8435 31.467 32.5874 32.2748 34.51C33.0825 36.4327 33.5019 38.4961 33.5089 40.5816C33.5159 42.667 33.1103 44.7332 32.3155 46.6612C31.5206 48.5893 30.3523 50.341 28.8776 51.8157C27.403 53.2903 25.6512 54.4587 23.7232 55.2535C21.7952 56.0483 19.729 56.4539 17.6435 56.447C15.5581 56.44 13.4946 56.0205 11.572 55.2128C9.64932 54.4051 7.90543 53.225 6.44071 51.7405C3.56033 48.7582 1.96652 44.764 2.00255 40.618C2.03858 36.472 3.70156 32.506 6.63333 29.5742C9.56509 26.6425 13.5311 24.9795 17.6771 24.9435C21.823 24.9074 25.8173 26.5013 28.7996 29.3816L28.8025 29.3787Z" stroke="#060815" stroke-width="3" stroke-linecap="round" stroke-linejoin="round"/>
</svg>
