<svg width="21" height="20" viewBox="0 0 21 20" fill="none" xmlns="http://www.w3.org/2000/svg">
<path d="M5.20316 0.0506001C4.53604 0.304937 3.29354 1.53076 2.1386 3.06512C1.67996 3.67803 1.32139 4.2284 1.13376 4.62033L0.979492 4.92887L1.02953 5.34999C1.41312 8.66471 4.1733 12.9968 7.87578 16.0905C10.49 18.2712 13.3086 19.6846 15.631 19.9681C16.0146 20.0182 16.0354 20.014 16.2773 19.9181C17.2612 19.5137 19.5878 17.6457 20.4676 16.5492C21.0263 15.8529 21.1097 15.5151 20.8512 14.9898C20.676 14.6312 20.4884 14.4686 19.4961 13.8015C17.4822 12.4422 16.0396 11.7084 15.3933 11.7084C14.9138 11.7084 14.6428 11.9086 13.859 12.83C13.5838 13.1511 13.3336 13.4179 13.3044 13.4179C13.2127 13.4179 12.5372 13.1427 12.1328 12.9426C10.7027 12.2213 9.50188 11.1622 8.61795 9.83216C8.28856 9.34017 7.82158 8.41871 7.67148 7.97258L7.57141 7.67655L7.73402 7.53062C7.82158 7.4514 8.0926 7.21791 8.33443 7.00943C9.08076 6.37568 9.25588 6.12968 9.28506 5.67104C9.29757 5.47924 9.28089 5.33748 9.21001 5.1165C9.08076 4.7204 8.63046 3.80312 8.20934 3.09848C7.73402 2.29794 6.70834 0.755239 6.47485 0.496733C6.13712 0.121481 5.55339 -0.0828228 5.20316 0.0506001Z" fill="#FF3F33"/>
</svg>
