<svg width="49" height="31" viewBox="0 0 49 31" fill="none" xmlns="http://www.w3.org/2000/svg">
<path d="M1.10066 0.905257C0.641284 1.06795 0.124487 1.6326 0.0479248 2.04412C0.0192139 2.20682 0.00964355 8.3701 0.0192139 15.7488L0.0479248 29.1568L0.315894 29.5014C0.459448 29.6928 0.717847 29.932 0.890112 30.0277C1.17722 30.1808 2.5075 30.1904 24.2991 30.2191C39.6499 30.2287 47.5167 30.2096 47.7559 30.1426C48.2344 30.0181 48.579 29.731 48.8087 29.2717C49.0001 28.908 49.0001 28.6974 48.9809 15.3756L48.9522 1.84315L48.6843 1.49862C48.5407 1.30721 48.2823 1.06795 48.11 0.972249C47.8229 0.819124 46.4927 0.809554 24.6436 0.790413C4.92878 0.771273 1.42605 0.790413 1.10066 0.905257ZM47.3253 15.5V28.5635H24.5001H1.67488L1.64617 15.5957C1.6366 8.4658 1.64617 2.57049 1.67488 2.5035C1.70359 2.4078 6.32605 2.38866 24.5192 2.4078L47.3253 2.43651V15.5Z" fill="#1962F2"/>
<path d="M8.9476 4.29326C8.46909 4.58994 8.31596 4.8292 8.06713 5.70967C7.94272 6.16904 7.73217 6.72412 7.60776 6.93467C7.06225 7.86299 5.93295 8.66689 4.83237 8.89658C4.25815 9.01143 3.79877 9.28896 3.50209 9.69092C3.30112 9.95889 3.30112 10.0546 3.27241 15.2417C3.25327 19.089 3.27241 20.6394 3.35854 20.936C3.49252 21.4337 3.96147 21.8644 4.51655 22.0175C5.86596 22.3812 6.36362 22.6396 7.0144 23.3095C7.54077 23.8454 7.79917 24.3335 8.06713 25.2905C8.31596 26.1614 8.53608 26.506 9.01459 26.7548C9.39741 26.9558 39.6013 26.9558 39.9841 26.7548C40.4626 26.506 40.6828 26.1614 40.9316 25.2905C41.056 24.8312 41.2665 24.2665 41.391 24.056C41.9269 23.1276 43.0658 22.3333 44.1664 22.1036C44.8458 21.9601 45.2669 21.6729 45.5349 21.1466L45.7455 20.7255V15.5001V10.2747L45.5349 9.85361C45.2669 9.32725 44.8458 9.04014 44.1664 8.89658C43.0658 8.66689 41.9269 7.87256 41.391 6.94424C41.2665 6.73369 41.056 6.16904 40.9316 5.70967C40.788 5.20244 40.5966 4.76221 40.4722 4.61865C39.965 4.08271 40.9986 4.11143 24.4802 4.11143C9.80893 4.11143 9.22514 4.121 8.9476 4.29326ZM39.2759 5.85322C39.6683 7.34619 40.1468 8.20752 41.0273 9.05928C41.6302 9.6335 42.7787 10.2556 43.5921 10.4374L44.1185 10.5522V15.5001V20.4479L43.5921 20.5628C42.7787 20.7446 41.6302 21.3667 41.0273 21.9409C40.1468 22.7927 39.6683 23.654 39.2759 25.1374C39.2281 25.3192 9.77065 25.3192 9.7228 25.1374C9.32084 23.6444 8.86147 22.8022 7.96186 21.9409C7.34936 21.3571 6.22006 20.7446 5.40659 20.5628L4.88022 20.4479V15.5001V10.5522L5.40659 10.4374C6.22006 10.2556 7.34936 9.64307 7.96186 9.05928C8.86147 8.19795 9.32084 7.35576 9.7228 5.85322C9.75151 5.76709 12.7853 5.73838 24.4994 5.73838C36.2134 5.73838 39.2472 5.76709 39.2759 5.85322Z" fill="#1962F2"/>
<path d="M22.808 7.51836C21.2193 7.86289 19.9082 8.59023 18.7119 9.79609C17.152 11.3656 16.3672 13.2797 16.3672 15.5C16.3672 19.998 19.9752 23.6348 24.4541 23.6348C26.7414 23.6348 28.6459 22.85 30.2537 21.2518C31.8424 19.6535 32.6367 17.7395 32.6367 15.5096C32.6367 13.8061 32.2061 12.3801 31.2873 11.002C30.0719 9.19316 28.2439 7.94902 26.1289 7.49922C25.3537 7.33652 23.5928 7.34609 22.808 7.51836ZM26.5596 9.31758C28.5215 9.9875 29.9666 11.4135 30.6652 13.385C30.9428 14.1506 30.9619 14.2941 30.9619 15.5C30.9619 16.6676 30.9332 16.8686 30.6939 17.5576C29.9953 19.5387 28.5789 20.9646 26.617 21.6633C25.8514 21.9408 25.6982 21.96 24.502 21.96C23.3057 21.96 23.1525 21.9408 22.3869 21.6633C19.7838 20.735 18.1377 18.5146 18.0133 15.7775C17.975 14.9641 18.0133 14.6195 18.1664 13.9783C18.7789 11.5666 20.5016 9.8248 22.9133 9.17402C23.9277 8.90605 25.526 8.96348 26.5596 9.31758Z" fill="#1962F2"/>
<path d="M24.0013 10.8105C23.8673 10.9158 23.7333 11.1168 23.7046 11.2699C23.6664 11.4805 23.5228 11.624 23.207 11.8154C22.3839 12.2939 21.9054 13.3945 22.116 14.342C22.3456 15.4043 23.0826 16.0838 24.2214 16.2752C24.9679 16.4092 25.2646 16.6389 25.2646 17.0982C25.2646 17.5385 25.1306 17.7586 24.7861 17.883C24.4033 18.0074 24.0587 17.883 23.7238 17.4811C23.3888 17.0791 22.8529 17.06 22.5275 17.4523C22.0873 17.95 22.3361 18.6199 23.1687 19.1559C23.5037 19.376 23.6664 19.5482 23.7046 19.7301C23.7716 20.0746 24.1544 20.3809 24.499 20.3809C24.8435 20.3809 25.2263 20.065 25.2933 19.7301C25.3316 19.5195 25.4751 19.376 25.791 19.1846C26.614 18.7061 27.0925 17.6055 26.882 16.658C26.6523 15.5957 25.9154 14.9162 24.7765 14.7248C24.0205 14.5908 23.7333 14.3611 23.7333 13.8826C23.7429 13.4807 23.896 13.251 24.2406 13.117C24.5851 12.983 24.9105 13.117 25.3029 13.5381C25.6953 13.9496 26.1164 13.9879 26.4609 13.6338C26.9394 13.1648 26.6714 12.3896 25.8292 11.8441C25.4943 11.624 25.3316 11.4518 25.2933 11.2699C25.2263 10.9254 24.8435 10.6191 24.499 10.6191C24.3554 10.6191 24.1257 10.7053 24.0013 10.8105Z" fill="#1962F2"/>
<path d="M8.83358 12.3801C6.98651 12.983 6.03905 15.0693 6.83339 16.8111C7.14921 17.5098 7.81913 18.1893 8.49862 18.4955C8.85272 18.6582 9.13026 18.7061 9.80975 18.7061C10.5562 18.7061 10.7381 18.6678 11.207 18.4381C12.5086 17.8064 13.2264 16.4092 12.9967 14.9641C12.8435 13.9496 12.1545 13.0213 11.2262 12.5619C10.5945 12.2557 9.47479 12.1695 8.83358 12.3801ZM10.5754 14.0932C11.14 14.409 11.3889 14.8396 11.3889 15.5C11.3889 17.4141 8.72831 17.7299 8.23065 15.8828C8.09667 15.3947 8.23065 14.8588 8.58475 14.4377C9.08241 13.8539 9.89589 13.7104 10.5754 14.0932Z" fill="#1962F2"/>
<path d="M38.2146 12.3801C36.6738 12.8777 35.7455 14.4186 36.0039 16.0359C36.1666 17.06 36.8461 17.9787 37.7936 18.4381C38.2625 18.6678 38.4443 18.7061 39.1908 18.7061C40.2244 18.7061 40.7125 18.5146 41.4207 17.8543C42.7893 16.5719 42.7893 14.4281 41.4207 13.1457C41.1623 12.9064 40.7508 12.6193 40.502 12.5141C39.9373 12.2557 38.7889 12.1887 38.2146 12.3801ZM39.8416 14.007C40.5307 14.2941 40.9613 15.165 40.7699 15.8828C40.3967 17.2609 38.6357 17.5576 37.8318 16.3709C37.5734 15.9881 37.5352 15.165 37.7457 14.7535C38.1285 14.007 39.0568 13.6721 39.8416 14.007Z" fill="#1962F2"/>
</svg>
