<svg width="42" height="28" viewBox="0 0 42 28" fill="none" xmlns="http://www.w3.org/2000/svg">
<path d="M8.08008 0.423829C7.875 0.620704 7.875 0.620704 7.875 2.39258V4.15625H6.11133C3.74883 4.15625 3.9375 3.96758 3.9375 6.33008V8.09375H2.17383C0.401953 8.09375 0.401953 8.09375 0.205078 8.29883L0 8.4957V17.9375V27.3793L0.205078 27.5762L0.401953 27.7812H17.0625H33.723L33.9199 27.5762C34.125 27.3793 34.125 27.3793 34.125 25.6074V23.8438H35.8887C37.6605 23.8438 37.6605 23.8438 37.8574 23.6387C38.0625 23.4418 38.0625 23.4418 38.0625 21.6699V19.9063H39.8262C41.598 19.9063 41.598 19.9063 41.7949 19.7012L42 19.5043V10.0625V0.620704L41.7949 0.423829L41.598 0.218751H24.9375H8.27695L8.08008 0.423829ZM40.6875 10.0625V18.5938H24.9375H9.1875V10.0625V1.53125H24.9375H40.6875V10.0625ZM7.875 12.4824V19.5043L8.08008 19.7012L8.27695 19.9063H22.5176H36.75V21.2188V22.5313H25.5937H14.4375V23.1875V23.8438H23.625H32.8125V25.1563V26.4688H17.0625H1.3125V17.9375V9.40625H2.625H3.9375V16.4199V23.4418L4.14258 23.6387L4.33945 23.8438H7.42383H10.5V23.1875V22.5313H7.875H5.25V14V5.46875H6.5625H7.875V12.4824Z" fill="white"/>
<path d="M13.3301 3.04883C13.1988 3.17188 13.125 3.33594 13.125 3.5082C13.125 4.50898 12.1652 5.46875 11.1645 5.46875C10.9922 5.46875 10.8281 5.54258 10.7051 5.67383L10.5 5.8707V10.0625V14.2543L10.7051 14.4512C10.8281 14.5824 10.9922 14.6563 11.1645 14.6563C12.1652 14.6563 13.125 15.616 13.125 16.6168C13.125 16.7891 13.1988 16.9531 13.3301 17.0762L13.527 17.2812H24.9375H36.348L36.5449 17.0762C36.6762 16.9531 36.75 16.7891 36.75 16.6168C36.75 15.616 37.7098 14.6563 38.7105 14.6563C38.8828 14.6563 39.0469 14.5824 39.1699 14.4512L39.375 14.2543V10.0625V5.8707L39.1699 5.67383C39.0469 5.54258 38.8828 5.46875 38.7105 5.46875C37.7098 5.46875 36.75 4.50898 36.75 3.5082C36.75 3.33594 36.6762 3.17188 36.5449 3.04883L36.348 2.84375H24.9375H13.527L13.3301 3.04883ZM20.3109 4.53359C18.9902 5.6 18.0551 7.29805 17.7926 9.07813C17.448 11.4652 18.4324 14.0246 20.2863 15.5668L20.7621 15.9688H17.5629C15.0527 15.9688 14.3555 15.9441 14.3555 15.8621C14.3555 15.6324 13.8469 14.7219 13.527 14.3773C13.207 14.0246 12.1898 13.4258 11.9273 13.4258C11.8289 13.4258 11.8125 12.8516 11.8125 10.0625C11.8125 7.4293 11.8371 6.69922 11.9191 6.69922C12.1488 6.69922 13.0594 6.19063 13.4039 5.8707C13.7566 5.55078 14.3555 4.53359 14.3555 4.27109C14.3555 4.17266 14.9051 4.15625 17.5629 4.15625H20.7703L20.3109 4.53359ZM26.7012 4.43516C27.6281 4.73047 28.3254 5.16523 29.0801 5.91992C30.1547 6.99453 30.7125 8.19219 30.8191 9.64414C31.0652 13.2043 28.1121 16.1738 24.5437 15.9359C23.666 15.8867 22.6734 15.5832 21.9187 15.1402C21.2871 14.7629 20.2125 13.6719 19.827 13.0156C19.6547 12.7203 19.425 12.1871 19.302 11.8262C19.1215 11.2684 19.0887 11.0223 19.0805 10.1445C19.0723 8.93047 19.1953 8.38086 19.7039 7.35547C20.3027 6.14961 21.6234 4.97656 22.8867 4.51719C24.0598 4.09883 25.5445 4.06602 26.7012 4.43516ZM35.5195 4.25469C35.5195 4.49258 36.0281 5.40313 36.348 5.74766C36.668 6.10039 37.6852 6.69922 37.9477 6.69922C38.0461 6.69922 38.0625 7.27344 38.0625 10.0625C38.0625 12.8516 38.0461 13.4258 37.9477 13.4258C37.6852 13.4258 36.668 14.0246 36.348 14.3773C36.0281 14.7219 35.5195 15.6324 35.5195 15.8621C35.5195 15.9441 34.8223 15.9688 32.3121 15.9688H29.1129L29.5887 15.5668C30.7207 14.6316 31.5246 13.3438 31.9348 11.8262C32.1727 10.9484 32.1809 9.23398 31.9594 8.38906C31.541 6.82227 30.7289 5.50156 29.5887 4.5582L29.1129 4.15625H32.3121C34.8223 4.15625 35.5195 4.18086 35.5195 4.25469Z" fill="white"/>
<path d="M24.2812 6.45313C24.2812 6.69922 24.2484 6.78125 24.15 6.78125C23.2641 6.78125 22.3125 7.80664 22.3125 8.75C22.3125 9.2668 22.5012 9.68516 22.9277 10.1035C23.4445 10.6285 23.748 10.7188 24.9293 10.7188C25.7906 10.7188 25.8562 10.727 26.0449 10.9238C26.1762 11.0469 26.25 11.2191 26.25 11.375C26.25 11.5309 26.1762 11.7031 26.0449 11.8262C25.8562 12.023 25.7906 12.0313 24.9375 12.0313C24.0844 12.0313 24.0187 12.023 23.8301 11.8262C23.7152 11.7195 23.625 11.5719 23.625 11.498C23.625 11.3996 23.502 11.375 22.9687 11.375C22.4191 11.375 22.3125 11.3996 22.3125 11.5063C22.3125 12.3266 23.3297 13.3438 24.15 13.3438C24.2484 13.3438 24.2812 13.4258 24.2812 13.6719V14H24.9375H25.5937V13.6719C25.5937 13.4094 25.6266 13.3438 25.7414 13.3438C26.1352 13.3438 26.6684 13.0648 27.0129 12.6875C27.7758 11.8426 27.7512 10.8172 26.9473 10.0215C26.4305 9.49648 26.127 9.40625 24.9457 9.40625C24.0844 9.40625 24.0187 9.39805 23.8301 9.20117C23.5594 8.93867 23.5594 8.56133 23.8301 8.29883C24.0187 8.10195 24.0844 8.09375 24.9375 8.09375C25.7906 8.09375 25.8562 8.10195 26.0449 8.29883C26.1598 8.40547 26.25 8.55313 26.25 8.62695C26.25 8.72539 26.373 8.75 26.9062 8.75C27.4559 8.75 27.5625 8.72539 27.5625 8.61875C27.5625 7.99531 26.9062 7.12578 26.2746 6.9125C26.0613 6.83867 25.8234 6.78125 25.7414 6.78125C25.6266 6.78125 25.5937 6.71563 25.5937 6.45313V6.125H24.9375H24.2812V6.45313Z" fill="white"/>
<path d="M11.8125 23.1875V23.8438H12.4687H13.125V23.1875V22.5313H12.4687H11.8125V23.1875Z" fill="white"/>
</svg>
