<svg width="28" height="35" viewBox="0 0 28 35" fill="none" xmlns="http://www.w3.org/2000/svg">
<path d="M10.3979 0.990269C10.1444 1.1837 10.1377 1.34379 10.3578 1.80403C10.5646 2.23759 10.8781 3.11805 10.8781 3.26479C10.8781 3.32483 10.6046 3.3315 9.73085 3.30482C8.38348 3.25812 7.60974 3.11805 6.54251 2.71784C5.95554 2.49773 5.80212 2.46437 5.65538 2.51774C5.32854 2.64447 5.29519 2.85124 5.46195 3.665C5.7621 5.13911 6.34908 6.56653 7.09614 7.65376L7.45633 8.18071L7.23621 8.21406C6.46247 8.34079 5.8755 9.03449 5.8755 9.82157C5.8755 10.4152 6.36242 11.0689 6.94939 11.2623C7.08947 11.309 7.20953 11.369 7.20953 11.3891C7.20286 11.5225 6.18899 12.7965 5.06841 14.0771C3.05402 16.3783 2.46037 17.1721 1.74666 18.5328C0.719459 20.4938 0.305909 22.2347 0.312579 24.5693C0.319249 25.9367 0.419302 26.597 0.779491 27.7043C2.0068 31.4929 5.79545 34.161 10.9248 34.8414C13.7596 35.2216 16.9079 34.8947 19.3959 33.9676C23.2913 32.5201 25.6859 29.8454 26.3196 26.2368C26.3863 25.8566 26.4263 25.2363 26.4263 24.5359C26.4263 21.8145 25.7192 19.5 24.1851 17.1988C23.6181 16.345 23.2446 15.8847 21.9106 14.3706C20.8834 13.2033 20.0896 12.2562 20.0829 12.1895C20.0829 12.1695 21.0968 12.3829 22.3375 12.6764C26.5463 13.6502 26.4196 13.6236 26.8532 13.4968C28.3073 13.0766 28.4006 11.0555 26.9932 10.5353C26.8065 10.4686 26.2062 10.3152 25.6525 10.1884L24.6587 9.96831L25.3124 9.7682C26.0527 9.53475 26.3929 9.29462 26.613 8.84105C26.7931 8.47419 26.7998 7.86721 26.6264 7.49368C26.3796 6.94673 25.6992 6.54652 25.1056 6.60655C24.9255 6.62656 23.7382 6.93338 22.4642 7.2869L20.143 7.93391L19.8895 7.64709L19.6294 7.36028L20.0563 6.50649C21.3636 3.9118 22.084 1.79736 21.8772 1.19704C21.7572 0.850195 21.5971 0.823515 20.6699 0.983599C19.2892 1.22372 18.3754 1.32378 17.0147 1.3638C15.2671 1.42383 12.8258 1.25041 11.285 0.950248C10.638 0.830185 10.598 0.830185 10.3979 0.990269ZM20.8167 2.0108C20.8167 2.02414 20.7166 2.34431 20.5899 2.73118C20.2897 3.65833 19.7694 4.8723 19.1558 6.08627L18.6489 7.08013L18.282 7.20686C17.8885 7.34026 17.4749 7.69378 17.3415 8.00061L17.2681 8.19405H16.5478H15.8341L15.5339 7.50702C14.8735 6.02624 14.52 4.8723 14.44 3.95849C14.3666 3.05135 14.2199 2.93129 13.3928 3.0847C13.106 3.14473 12.6524 3.20476 12.3856 3.23144L11.9053 3.27146L11.7586 2.69116C11.6719 2.37099 11.6185 2.09085 11.6385 2.07751C11.6519 2.05749 12.0387 2.09085 12.4923 2.15088C15.1137 2.47772 17.635 2.47105 19.8562 2.13087C20.7566 1.99079 20.8167 1.98412 20.8167 2.0108ZM8.45018 4.23197C9.49073 4.38538 11.4584 4.38538 12.5723 4.2253C13.4261 4.10524 13.4795 4.11858 13.4795 4.44541C13.4795 4.95235 14.1665 7.06012 14.6201 7.93391L14.7468 8.19405H11.7519H8.75701L8.41683 7.76049C7.50969 6.60655 6.84267 5.2525 6.58253 4.01185L6.53584 3.80508L7.08947 3.95849C7.39629 4.03853 8.00995 4.16527 8.45018 4.23197ZM25.6392 7.80051C25.6992 7.88055 25.7526 8.04063 25.7526 8.16069C25.7526 8.57425 25.6325 8.63428 24.085 9.07451L22.651 9.47472L22.1173 9.36799C21.1969 9.1879 20.3431 8.97445 20.3764 8.9411C20.3964 8.92109 21.457 8.61427 22.731 8.25408C25.179 7.56038 25.4124 7.52703 25.6392 7.80051ZM19.0091 8.2274C19.1158 8.28076 19.2158 8.37414 19.2425 8.4275C19.2625 8.48753 19.2825 9.11453 19.2825 9.8149C19.2825 11.0289 19.2759 11.0956 19.1358 11.2423C18.929 11.4624 18.5555 11.4491 18.342 11.2223C18.182 11.0555 18.182 11.0355 18.182 9.7682C18.182 8.40749 18.202 8.32078 18.5155 8.19405C18.7089 8.10733 18.8023 8.114 19.0091 8.2274ZM17.1481 9.76153V10.3218L14.4867 10.3418C11.9787 10.3618 11.8186 10.3685 11.6852 10.4886C11.5051 10.6553 11.4984 11.0155 11.6785 11.1956C11.8053 11.3224 11.8987 11.329 14.5067 11.329H17.1948L17.4015 11.6559C17.6884 12.1228 18.0619 12.3496 18.5755 12.3829L18.9824 12.4096L19.3626 12.9232C19.5693 13.2033 20.2564 14.0171 20.89 14.7308C22.8577 16.9586 23.4514 17.7724 24.1451 19.1331C25.0189 20.8473 25.4257 22.5349 25.4257 24.4692C25.4257 26.4903 24.9588 28.0311 23.8983 29.5386C20.7233 34.0409 12.1121 35.415 6.209 32.36C2.26027 30.3256 0.606067 26.6637 1.54656 22.0346C1.83338 20.6272 2.50039 19.0731 3.38753 17.7524C3.93448 16.9453 4.36804 16.405 5.60869 14.9976C7.26956 13.1033 7.55638 12.7498 8.07665 11.8693L8.38348 11.3624L9.12387 11.3424C9.75753 11.329 9.87759 11.309 9.97765 11.1956C10.1444 11.0089 10.1311 10.6887 9.95097 10.5086C9.81756 10.3685 9.74419 10.3618 8.51688 10.3418C7.34293 10.3218 7.2162 10.3085 7.0828 10.1884C6.79598 9.92162 6.85601 9.46138 7.20953 9.28128C7.33626 9.21458 8.45685 9.19457 12.2655 9.19457H17.1481V9.76153ZM23.4847 10.7287C25.1189 11.0956 26.553 11.4424 26.6731 11.4958C26.8865 11.5958 27.0199 11.8093 27.0199 12.0694C27.0199 12.2829 26.7264 12.5297 26.473 12.5297C26.3529 12.5297 24.9055 12.2228 23.2646 11.8493L20.2697 11.1623L20.3097 10.9288C20.3297 10.8021 20.3498 10.5419 20.3498 10.3485C20.3498 10.1017 20.3764 10.0083 20.4365 10.0283C20.4765 10.0417 21.8505 10.3552 23.4847 10.7287Z" fill="#1962F2"/>
<path d="M12.8468 13.6901C12.74 13.7435 12.58 13.8435 12.4932 13.9236C12.1664 14.2371 12.113 14.3971 12.0797 15.1242L12.0463 15.8179L11.6995 15.938C10.7723 16.2514 9.8852 16.9518 9.42496 17.7389C8.45112 19.4064 8.71793 21.4608 10.0986 22.8082C10.9658 23.6553 11.9263 23.9955 13.4471 24.0022C14.2075 24.0022 14.5076 24.1089 14.8611 24.4758C15.4281 25.0761 15.4081 25.9365 14.8145 26.5435C14.4209 26.9571 14.1674 27.0171 13.0402 26.9904C12.2665 26.9704 12.133 26.9504 11.9663 26.8303C11.6661 26.6102 11.4994 26.3034 11.446 25.8898C11.386 25.4029 11.1992 25.0561 10.859 24.8226C10.6323 24.6625 10.5255 24.6358 10.1453 24.6358C9.77181 24.6358 9.65842 24.6625 9.42496 24.8226C9.01808 25.0894 8.84466 25.4563 8.858 26.0499C8.88468 27.1171 9.33825 28.0376 10.192 28.7513C10.5456 29.0448 11.3193 29.4717 11.4994 29.4717C11.5461 29.4717 11.6928 29.5051 11.8329 29.5451L12.0797 29.6118V30.1788C12.0797 30.9992 12.2531 31.3527 12.7801 31.6195C13.1002 31.7863 13.6338 31.7996 13.914 31.6529C14.1408 31.5395 14.4209 31.2526 14.5543 31.0059C14.601 30.9125 14.661 30.5389 14.6811 30.1721L14.7144 29.5117L14.9946 29.4317C15.9617 29.1515 16.9222 28.3511 17.3958 27.4306C18.3897 25.503 17.8094 23.2284 16.0284 22.0612C15.2547 21.5542 14.3809 21.3408 13.0602 21.3341C12.3398 21.3341 11.8662 21.0606 11.6061 20.5003C11.446 20.1535 11.446 19.5799 11.6061 19.2263C11.7795 18.8461 12.2198 18.486 12.64 18.3926C12.8267 18.3526 13.327 18.3325 13.7539 18.3459C14.4476 18.3659 14.5476 18.3859 14.7678 18.5326C15.1546 18.7928 15.2814 19.1263 15.2814 19.8733C15.2814 20.5804 15.3948 20.9006 15.7349 21.2274C16.3219 21.781 17.3891 21.5809 17.7427 20.8539C17.8627 20.6004 17.8827 20.4336 17.8827 19.7733C17.8827 19.273 17.8427 18.8395 17.776 18.5727C17.6426 18.0524 17.2757 17.352 16.9289 16.9585C16.4687 16.4315 15.5882 15.9246 14.9545 15.8246L14.6811 15.7779V15.2176C14.6811 14.4038 14.4809 14.0036 13.934 13.7235C13.6472 13.5767 13.1402 13.5634 12.8468 13.6901ZM13.6138 14.724C13.6472 14.7974 13.6805 15.1976 13.6805 15.6178C13.6805 16.605 13.7072 16.645 14.4676 16.7651C16.0218 17.0185 16.8822 18.0724 16.8822 19.7266C16.8822 20.407 16.8355 20.5337 16.582 20.5337C16.3353 20.5337 16.2819 20.407 16.2819 19.7666C16.2819 18.6527 15.9417 18.019 15.1213 17.5988L14.661 17.3654H13.5204C12.3865 17.3654 12.3798 17.3654 11.9463 17.5721C11.4127 17.8256 10.9124 18.3059 10.6856 18.7995C10.5322 19.1196 10.5122 19.253 10.5122 19.8667C10.5122 20.507 10.5255 20.6004 10.699 20.9339C11.2459 21.9811 12.0864 22.4013 13.6538 22.4013C14.6277 22.4013 15.3547 22.6882 15.9751 23.3218C16.3819 23.7354 16.6021 24.1289 16.7555 24.6959C17.2291 26.4368 16.1685 28.1377 14.3609 28.5579C13.7005 28.7113 13.6805 28.7447 13.6805 29.7385C13.6805 30.6457 13.6472 30.739 13.3337 30.739C13.1069 30.739 13.0869 30.679 13.0669 29.6918C13.0402 28.7713 12.9868 28.6913 12.3398 28.6046C11.5661 28.5045 11.0525 28.2444 10.5589 27.7108C9.87853 26.9704 9.61173 25.603 10.1387 25.603C10.3254 25.603 10.4121 25.7498 10.4788 26.1633C10.5989 26.917 10.9925 27.4707 11.6528 27.8042C11.9663 27.9643 12.033 27.9709 13.1803 27.9709H14.3809L14.8145 27.7642C15.3681 27.504 15.7816 27.0905 16.0418 26.5368C16.2219 26.15 16.2485 26.0366 16.2485 25.503C16.2485 24.9894 16.2219 24.8493 16.0684 24.5225C15.8283 24.0022 15.5815 23.7087 15.1613 23.4285C14.6811 23.1084 14.3275 23.0217 13.2803 22.9816C12.2931 22.9416 11.8329 22.8216 11.2859 22.468C9.95191 21.6143 9.47165 19.8333 10.1987 18.4259C10.6323 17.5855 11.4527 16.9785 12.3932 16.7984C13.0068 16.6783 13.0402 16.6183 13.0669 15.6044C13.0802 15.1442 13.1202 14.724 13.1603 14.6773C13.267 14.5506 13.5338 14.5839 13.6138 14.724Z" fill="#1962F2"/>
</svg>
