<svg width="26" height="25" viewBox="0 0 26 25" fill="none" xmlns="http://www.w3.org/2000/svg">
<path d="M12.502 18.5096C14.1846 18.5096 15.6069 17.9287 16.7688 16.7668C17.9306 15.605 18.5116 14.1827 18.5116 12.5C18.5116 10.8173 17.9306 9.39503 16.7688 8.23317C15.6069 7.07131 14.1846 6.49039 12.502 6.49039C10.8193 6.49039 9.39699 7.07131 8.23513 8.23317C7.07327 9.39503 6.49234 10.8173 6.49234 12.5C6.49234 14.1827 7.07327 15.605 8.23513 16.7668C9.39699 17.9287 10.8193 18.5096 12.502 18.5096ZM12.502 25C10.7792 25 9.16161 24.6695 7.64919 24.0084C6.13677 23.3474 4.81465 22.4509 3.68284 21.3191C2.55103 20.1873 1.6546 18.8602 0.99354 17.3377C0.332482 15.8153 0.00195312 14.2027 0.00195312 12.5C0.00195312 10.7772 0.332482 9.15465 0.99354 7.63221C1.6546 6.10978 2.55103 4.78265 3.68284 3.65084C4.81465 2.51903 6.14178 1.6276 7.66421 0.976562C9.18665 0.325521 10.7992 0 12.502 0C14.2247 0 15.8473 0.325521 17.3697 0.976562C18.8922 1.6276 20.2193 2.51903 21.3511 3.65084C22.4829 4.78265 23.3743 6.10978 24.0254 7.63221C24.6764 9.15465 25.002 10.7873 25.002 12.53C25.002 14.2328 24.6764 15.8403 24.0254 17.3528C23.3743 18.8652 22.4829 20.1873 21.3511 21.3191C20.2193 22.4509 18.8922 23.3474 17.3697 24.0084C15.8473 24.6695 14.2247 25 12.502 25ZM12.502 22.8065C15.3665 22.8065 17.8004 21.7999 19.8036 19.7867C21.8068 17.7734 22.8084 15.3446 22.8084 12.5C22.8084 9.63542 21.8068 7.20152 19.8036 5.19832C17.8004 3.19511 15.3665 2.19351 12.502 2.19351C9.6574 2.19351 7.22852 3.19511 5.21529 5.19832C3.20207 7.20152 2.19546 9.63542 2.19546 12.5C2.19546 15.3446 3.20207 17.7734 5.21529 19.7867C7.22852 21.7999 9.6574 22.8065 12.502 22.8065Z" fill="#FF5F55"/>
</svg>
