<svg width="59" height="50" viewBox="0 0 59 50" fill="none" xmlns="http://www.w3.org/2000/svg">
<circle cx="34" cy="25" r="25" fill="#EEFFEB"/>
<path d="M15 45.8814C13.8814 45.8814 12.9322 45.5085 12.1525 44.7627C11.3729 44.0169 10.9661 43.0847 10.9322 41.9661H19.0678C19.0339 43.0847 18.6271 44.0169 17.8475 44.7627C17.0678 45.5085 16.1186 45.8814 15 45.8814ZM6.86441 38.8136V35.8136H23.1356V38.8136H6.86441ZM7.16949 32.7119C4.9322 31.2542 3.17797 29.4322 1.90678 27.2458C0.635593 25.0593 0 22.6441 0 20C0 15.8983 1.47458 12.3729 4.42373 9.42373C7.37288 6.47458 10.8983 5 15 5C19.1017 5 22.6271 6.47458 25.5763 9.42373C28.5254 12.3729 30 15.8983 30 20C30 22.6441 29.3644 25.0593 28.0932 27.2458C26.822 29.4322 25.0678 31.2542 22.8305 32.7119H7.16949ZM8.18644 29.7119H21.8644C23.4576 28.6271 24.7203 27.2288 25.6525 25.517C26.5847 23.8051 27.0508 21.9661 27.0508 20C27.0508 16.678 25.8729 13.839 23.517 11.4831C21.161 9.12712 18.322 7.94915 15 7.94915C11.678 7.94915 8.83898 9.11864 6.48305 11.4576C4.12712 13.7966 2.94915 16.6441 2.94915 20C2.94915 21.9661 3.41525 23.8051 4.34746 25.517C5.27966 27.2288 6.55932 28.6271 8.18644 29.7119Z" fill="#62B174"/>
</svg>
