<svg width="213" height="52" viewBox="0 0 213 52" fill="none" xmlns="http://www.w3.org/2000/svg">
<path d="M75.64 38.245C74.0067 38.245 72.5367 37.965 71.23 37.405C69.9233 36.8217 68.8967 36.005 68.15 34.955C67.4033 33.905 67.03 32.68 67.03 31.28H71.3C71.3933 32.33 71.8017 33.1933 72.525 33.87C73.2717 34.5467 74.31 34.885 75.64 34.885C77.0167 34.885 78.09 34.5583 78.86 33.905C79.63 33.2283 80.015 32.365 80.015 31.315C80.015 30.4983 79.77 29.8333 79.28 29.32C78.8133 28.8067 78.2183 28.41 77.495 28.13C76.795 27.85 75.815 27.5467 74.555 27.22C72.9683 26.8 71.6733 26.38 70.67 25.96C69.69 25.5167 68.85 24.84 68.15 23.93C67.45 23.02 67.1 21.8067 67.1 20.29C67.1 18.89 67.45 17.665 68.15 16.615C68.85 15.565 69.83 14.76 71.09 14.2C72.35 13.64 73.8083 13.36 75.465 13.36C77.8217 13.36 79.7467 13.955 81.24 15.145C82.7567 16.3117 83.5967 17.9217 83.76 19.975H79.35C79.28 19.0883 78.86 18.33 78.09 17.7C77.32 17.07 76.305 16.755 75.045 16.755C73.9017 16.755 72.9683 17.0467 72.245 17.63C71.5217 18.2133 71.16 19.0533 71.16 20.15C71.16 20.8967 71.3817 21.515 71.825 22.005C72.2917 22.4717 72.875 22.845 73.575 23.125C74.275 23.405 75.2317 23.7083 76.445 24.035C78.055 24.4783 79.3617 24.9217 80.365 25.365C81.3917 25.8083 82.255 26.4967 82.955 27.43C83.6783 28.34 84.04 29.565 84.04 31.105C84.04 32.3417 83.7017 33.5083 83.025 34.605C82.3717 35.7017 81.4033 36.5883 80.12 37.265C78.86 37.9183 77.3667 38.245 75.64 38.245ZM87.418 28.27C87.418 26.3333 87.8147 24.6183 88.608 23.125C89.4247 21.6317 90.5214 20.4767 91.898 19.66C93.298 18.82 94.838 18.4 96.518 18.4C98.0347 18.4 99.353 18.7033 100.473 19.31C101.616 19.8933 102.526 20.6283 103.203 21.515V18.715H107.228V38H103.203V35.13C102.526 36.04 101.605 36.7983 100.438 37.405C99.2714 38.0117 97.9414 38.315 96.448 38.315C94.7914 38.315 93.2747 37.895 91.898 37.055C90.5214 36.1917 89.4247 35.0017 88.608 33.485C87.8147 31.945 87.418 30.2067 87.418 28.27ZM103.203 28.34C103.203 27.01 102.923 25.855 102.363 24.875C101.826 23.895 101.115 23.1483 100.228 22.635C99.3414 22.1217 98.3847 21.865 97.358 21.865C96.3314 21.865 95.3747 22.1217 94.488 22.635C93.6014 23.125 92.878 23.86 92.318 24.84C91.7814 25.7967 91.513 26.94 91.513 28.27C91.513 29.6 91.7814 30.7667 92.318 31.77C92.878 32.7733 93.6014 33.5433 94.488 34.08C95.398 34.5933 96.3547 34.85 97.358 34.85C98.3847 34.85 99.3414 34.5933 100.228 34.08C101.115 33.5667 101.826 32.82 102.363 31.84C102.923 30.8367 103.203 29.67 103.203 28.34ZM120.484 38.245C118.85 38.245 117.38 37.965 116.074 37.405C114.767 36.8217 113.74 36.005 112.994 34.955C112.247 33.905 111.874 32.68 111.874 31.28H116.144C116.237 32.33 116.645 33.1933 117.369 33.87C118.115 34.5467 119.154 34.885 120.484 34.885C121.86 34.885 122.934 34.5583 123.704 33.905C124.474 33.2283 124.859 32.365 124.859 31.315C124.859 30.4983 124.614 29.8333 124.124 29.32C123.657 28.8067 123.062 28.41 122.339 28.13C121.639 27.85 120.659 27.5467 119.399 27.22C117.812 26.8 116.517 26.38 115.514 25.96C114.534 25.5167 113.694 24.84 112.994 23.93C112.294 23.02 111.944 21.8067 111.944 20.29C111.944 18.89 112.294 17.665 112.994 16.615C113.694 15.565 114.674 14.76 115.934 14.2C117.194 13.64 118.652 13.36 120.309 13.36C122.665 13.36 124.59 13.955 126.084 15.145C127.6 16.3117 128.44 17.9217 128.604 19.975H124.194C124.124 19.0883 123.704 18.33 122.934 17.7C122.164 17.07 121.149 16.755 119.889 16.755C118.745 16.755 117.812 17.0467 117.089 17.63C116.365 18.2133 116.004 19.0533 116.004 20.15C116.004 20.8967 116.225 21.515 116.669 22.005C117.135 22.4717 117.719 22.845 118.419 23.125C119.119 23.405 120.075 23.7083 121.289 24.035C122.899 24.4783 124.205 24.9217 125.209 25.365C126.235 25.8083 127.099 26.4967 127.799 27.43C128.522 28.34 128.884 29.565 128.884 31.105C128.884 32.3417 128.545 33.5083 127.869 34.605C127.215 35.7017 126.247 36.5883 124.964 37.265C123.704 37.9183 122.21 38.245 120.484 38.245ZM138.247 21.97V32.645C138.247 33.3683 138.41 33.8933 138.737 34.22C139.087 34.5233 139.67 34.675 140.487 34.675H142.937V38H139.787C137.99 38 136.613 37.58 135.657 36.74C134.7 35.9 134.222 34.535 134.222 32.645V21.97H131.947V18.715H134.222V13.92H138.247V18.715H142.937V21.97H138.247ZM164.289 27.885C164.289 28.6083 164.243 29.2617 164.149 29.845H149.414C149.531 31.385 150.103 32.6217 151.129 33.555C152.156 34.4883 153.416 34.955 154.909 34.955C157.056 34.955 158.573 34.0567 159.459 32.26H163.764C163.181 34.0333 162.119 35.4917 160.579 36.635C159.063 37.755 157.173 38.315 154.909 38.315C153.066 38.315 151.409 37.9067 149.939 37.09C148.493 36.25 147.349 35.0833 146.509 33.59C145.693 32.0733 145.284 30.3233 145.284 28.34C145.284 26.3567 145.681 24.6183 146.474 23.125C147.291 21.6083 148.423 20.4417 149.869 19.625C151.339 18.8083 153.019 18.4 154.909 18.4C156.729 18.4 158.351 18.7967 159.774 19.59C161.198 20.3833 162.306 21.5033 163.099 22.95C163.893 24.3733 164.289 26.0183 164.289 27.885ZM160.124 26.625C160.101 25.155 159.576 23.9767 158.549 23.09C157.523 22.2033 156.251 21.76 154.734 21.76C153.358 21.76 152.179 22.2033 151.199 23.09C150.219 23.9533 149.636 25.1317 149.449 26.625H160.124ZM175.846 28.375L184.736 38H179.346L172.206 29.705V38H168.216V12.1H172.206V27.15L179.206 18.715H184.736L175.846 28.375Z" fill="black"/>
<mask id="path-2-inside-1_615_2" fill="white">
<path fill-rule="evenodd" clip-rule="evenodd" d="M46 2.5H6C4.067 2.5 2.5 4.067 2.5 6V46C2.5 47.933 4.067 49.5 6 49.5H46C47.933 49.5 49.5 47.933 49.5 46V6C49.5 4.067 47.933 2.5 46 2.5ZM6 0C2.68629 0 0 2.68629 0 6V46C0 49.3137 2.68629 52 6 52H46C49.3137 52 52 49.3137 52 46V6C52 2.68629 49.3137 0 46 0H6Z"/>
</mask>
<path d="M6 4.5H46V0.5H6V4.5ZM4.5 6C4.5 5.17157 5.17157 4.5 6 4.5V0.5C2.96243 0.5 0.5 2.96244 0.5 6H4.5ZM4.5 46V6H0.5V46H4.5ZM6 47.5C5.17157 47.5 4.5 46.8284 4.5 46H0.5C0.5 49.0376 2.96243 51.5 6 51.5V47.5ZM46 47.5H6V51.5H46V47.5ZM47.5 46C47.5 46.8284 46.8284 47.5 46 47.5V51.5C49.0376 51.5 51.5 49.0376 51.5 46H47.5ZM47.5 6V46H51.5V6H47.5ZM46 4.5C46.8284 4.5 47.5 5.17157 47.5 6H51.5C51.5 2.96243 49.0376 0.5 46 0.5V4.5ZM2 6C2 3.79086 3.79086 2 6 2V-2C1.58172 -2 -2 1.58172 -2 6H2ZM2 46V6H-2V46H2ZM6 50C3.79086 50 2 48.2091 2 46H-2C-2 50.4183 1.58172 54 6 54V50ZM46 50H6V54H46V50ZM50 46C50 48.2091 48.2091 50 46 50V54C50.4183 54 54 50.4183 54 46H50ZM50 6V46H54V6H50ZM46 2C48.2091 2 50 3.79086 50 6H54C54 1.58172 50.4183 -2 46 -2V2ZM6 2H46V-2H6V2Z" fill="url(#paint0_linear_615_2)" mask="url(#path-2-inside-1_615_2)"/>
<path d="M35.5082 9.48967C35.5719 11.8552 34.5906 13.385 32.5896 14.5678C30.1425 16.0077 27.619 17.499 25.1592 18.926C22.419 20.5201 21.7435 22.4485 23.7062 25.0069C23.069 26.421 20.8513 26.1511 19.6151 25.9454C18.2513 25.1097 17.8435 23.2713 17.92 21.7672C18.0347 19.6202 19.1562 17.589 20.6984 16.1362C25.6265 12.3908 30.5589 8.65402 35.4955 4.92578C35.4955 6.44279 35.4997 7.96409 35.5082 9.48967V9.48967Z" fill="url(#paint1_linear_615_2)"/>
<path d="M24.0624 29.4308C22.6859 30.1893 21.1692 31.0378 19.7418 31.8092C18.4418 32.5034 16.4026 32.1177 16.3516 30.3822C16.2496 26.7568 15.8163 21.91 18.0467 18.9017C18.7987 17.8861 19.6653 16.9348 20.6977 16.1377C17.5496 18.9917 20.583 22.2314 22.9153 24.327C23.3996 24.7641 23.7055 25.0083 23.7055 25.0083C25.1457 26.1782 26.1781 28.2866 24.0624 29.4308V29.4308Z" fill="#2872F8"/>
<path d="M16.4297 40.8325C16.3659 38.467 17.3473 36.9371 19.3483 35.7544C21.7954 34.3145 24.3189 32.8232 26.7787 31.3962C29.5189 29.8149 30.1944 27.8737 28.2316 25.3153C28.8689 23.914 31.0865 24.1711 32.3228 24.3768C33.6865 25.2125 34.0944 27.0509 34.0179 28.555C33.9032 30.702 32.7816 32.7332 31.2395 34.186C26.3114 37.9313 21.379 41.6682 16.4424 45.3964C16.4424 43.8794 16.4382 42.3581 16.4297 40.8325V40.8325Z" fill="url(#paint2_linear_615_2)"/>
<path d="M27.8735 20.8941C29.25 20.1356 30.7667 19.2871 32.1941 18.5157C33.4941 17.8215 35.5333 18.2072 35.5843 19.9427C35.6863 23.5681 36.1196 28.4148 33.8892 31.4231C33.1373 32.4388 32.2706 33.3901 31.2382 34.1872C34.3863 31.3331 31.3529 28.0934 29.0206 25.9979C28.5235 25.5608 28.2304 25.3165 28.2304 25.3165C26.7902 24.1466 25.7578 22.0383 27.8735 20.8941V20.8941Z" fill="#2872F8"/>
<defs>
<linearGradient id="paint0_linear_615_2" x1="-4.875" y1="-1.625" x2="53.625" y2="54.4375" gradientUnits="userSpaceOnUse">
<stop offset="0.214432" stop-color="#2872F8"/>
<stop offset="1" stop-color="#0848B9"/>
</linearGradient>
<linearGradient id="paint1_linear_615_2" x1="38.9996" y1="2.4375" x2="21.1246" y2="26.8125" gradientUnits="userSpaceOnUse">
<stop stop-color="#2872F8"/>
<stop offset="1" stop-color="#0240AD"/>
</linearGradient>
<linearGradient id="paint2_linear_615_2" x1="37.5153" y1="21.726" x2="19.644" y2="46.0998" gradientUnits="userSpaceOnUse">
<stop stop-color="#0240AD"/>
<stop offset="1" stop-color="#2872F8"/>
</linearGradient>
</defs>
</svg>
