<svg width="55" height="61" viewBox="0 0 55 61" fill="none" xmlns="http://www.w3.org/2000/svg">
<circle cx="27.5" cy="33.5" r="27.5" fill="white"/>
<path d="M30.282 0.111553C30.2003 0.175083 29.801 1.06449 29.3926 2.09004C28.9842 3.11558 28.6393 3.95962 28.6302 3.97777C28.6121 3.98684 28.367 3.85978 28.0766 3.68735C26.3795 2.6618 24.2739 3.32432 23.4208 5.1576C23.2212 5.58415 23.1758 5.80197 23.1758 6.44633C23.1758 7.14516 23.203 7.28129 23.4753 7.82583C23.9381 8.76969 24.7912 9.42314 25.7896 9.61373C26.0346 9.6591 26.2433 9.71356 26.2796 9.74078C26.3069 9.76801 25.9983 10.6302 25.5899 11.6467C25.1815 12.6631 24.8548 13.5616 24.8548 13.6342C24.8548 13.7159 24.9274 13.8611 25.0181 13.9609C25.2178 14.1969 29.8736 16.0665 30.2638 16.0665C30.6995 16.0665 30.8901 15.8033 30.7993 15.3223C30.5543 14.0426 30.8538 13.244 31.7522 12.772C33.0138 12.1095 34.484 12.8809 34.6292 14.2695C34.7109 15.1136 34.3479 15.8033 33.5492 16.3025C33.3586 16.4204 33.1862 16.6201 33.1499 16.7472C33.0319 17.2282 33.2316 17.3552 35.927 18.4171C37.4063 19.007 38.5499 19.4063 38.6497 19.3791C38.7314 19.3519 38.8675 19.2611 38.9492 19.1704C39.1852 18.9072 43.841 7.07255 43.8863 6.61877C43.968 5.89272 43.5959 5.16667 42.9969 4.84903C42.3707 4.53138 30.8447 0.0026474 30.645 0.0026474C30.527 0.0026474 30.3546 0.0571003 30.282 0.111553ZM36.7257 3.68735C39.8023 4.91256 42.3979 5.9744 42.4796 6.05608C42.5704 6.13776 42.643 6.30113 42.643 6.42818C42.643 6.75491 38.205 17.8816 38.0779 17.8816C37.9872 17.8816 35.2191 16.8107 35.1284 16.7472C35.1102 16.729 35.2282 16.5203 35.3825 16.2843C36.1176 15.1226 36.0813 13.725 35.2917 12.5815C34.9378 12.0551 34.1119 11.5015 33.4675 11.3472C32.8595 11.202 31.9065 11.2746 31.362 11.5196C30.4544 11.9189 29.6739 12.9082 29.4833 13.9065C29.4289 14.1606 29.3744 14.3875 29.3563 14.4057C29.3381 14.4238 28.6484 14.1697 27.8225 13.843L26.3159 13.2349L26.4884 12.8174C28.1038 8.73339 28.0494 8.89675 27.9405 8.61541C27.7953 8.27961 27.5139 8.207 26.8786 8.35221C26.2161 8.49743 25.6353 8.35221 25.127 7.91658C24.401 7.29944 24.2195 6.43726 24.6188 5.57508C25.2813 4.15928 27.2235 4.06852 28.0857 5.41171C28.4578 5.98348 28.7391 6.11054 29.0931 5.83827C29.2746 5.71121 29.5378 5.14852 30.1549 3.56029C30.6087 2.40769 31.008 1.45475 31.0534 1.45475C31.0897 1.45475 33.64 2.46214 36.7257 3.68735Z" fill="#FF5F55"/>
<path d="M1.44027 6.74517C0.968341 6.89946 0.233216 7.67089 0.0970813 8.17005C0.00632515 8.48769 -0.0118261 12.3085 0.00632515 25.332L0.033552 42.0856L0.305821 42.5303C0.478257 42.8026 0.750526 43.0749 1.02279 43.2473L1.4675 43.5196H18.4571H35.4466L35.8913 43.2473C36.1636 43.0749 36.4359 42.8026 36.6083 42.5303L36.8806 42.0856L36.9078 33.4456C36.9259 24.969 36.9259 24.8057 36.7535 24.6514C36.5901 24.4971 36.336 24.488 33.8039 24.4971C32.2701 24.5062 31.0268 24.4971 31.0268 24.4789C31.0268 24.4517 31.0903 24.2702 31.1538 24.0615C32.0886 21.4295 29.847 18.5616 27.0698 18.8157C24.3744 19.0699 22.7226 21.7925 23.7209 24.3519C23.7844 24.4971 23.6483 24.5062 21.4429 24.488L19.0924 24.4608L19.0742 21.3751C19.047 18.3529 19.047 18.2894 18.8564 18.126C18.566 17.89 18.3572 17.9354 17.7582 18.3347C17.0866 18.7794 16.6238 18.9156 15.9159 18.852C14.9539 18.7794 14.1461 18.2258 13.6833 17.3364C13.3929 16.7737 13.3838 15.6665 13.6651 15.0584C14.4093 13.4248 16.4241 12.9892 17.9125 14.1237C18.2846 14.405 18.6113 14.4322 18.8655 14.2053C19.0379 14.051 19.047 13.9058 19.047 10.5116C19.047 7.1082 19.0379 6.98114 18.8655 6.8087C18.6839 6.62719 18.566 6.62719 10.2255 6.63627C4.32632 6.64534 1.65809 6.67257 1.44027 6.74517ZM17.8671 10.2121C17.8671 11.4826 17.8308 12.5263 17.7855 12.5263C17.7401 12.5263 17.5495 12.4719 17.3589 12.3993C15.571 11.7821 13.3929 12.7169 12.567 14.4594C11.1603 17.4453 13.8648 20.8124 17.0503 20.0228C17.3226 19.9593 17.6221 19.8685 17.7129 19.8322C17.8581 19.7687 17.8671 19.8957 17.849 22.1102L17.8218 24.4608L14.7542 24.4699C11.9589 24.488 11.6685 24.4971 11.5051 24.6423C11.2601 24.8692 11.2873 25.2867 11.5596 25.6134C12.1858 26.3576 12.4036 27.4194 12.1132 28.2998C11.7865 29.2709 10.7972 30.0241 9.73539 30.1149C8.40127 30.2147 7.26682 29.3888 6.92195 28.0456C6.70413 27.1925 6.92195 26.3031 7.52094 25.6315C7.66615 25.4591 7.79321 25.2141 7.79321 25.0961C7.79321 24.8601 7.51186 24.5062 7.32127 24.4971C7.25774 24.4971 5.86917 24.4971 4.23556 24.5062L1.25876 24.5152V16.5196C1.25876 11.2285 1.28599 8.46047 1.34952 8.35156C1.59456 7.89778 1.36767 7.90685 9.90782 7.89778H17.8671V10.2121ZM28.5491 20.3405C30.1192 21.1028 30.5821 23.0722 29.5202 24.4699C29.1481 24.9599 29.1028 25.2594 29.375 25.5226C29.5475 25.7041 29.6564 25.7041 32.6059 25.6951L35.6553 25.6769V33.6998C35.6553 41.65 35.6553 41.7317 35.4738 41.9586C35.3649 42.0947 35.129 42.2399 34.9475 42.2944C34.7296 42.3488 31.898 42.3851 26.8792 42.3851H19.1377V40.0255C19.1377 38.7277 19.1559 37.6658 19.174 37.6658C19.1922 37.6658 19.3737 37.7203 19.5734 37.7929C20.1996 38.0198 20.8621 38.0561 21.57 37.9018C24.1112 37.3663 25.4725 34.6708 24.3653 32.3475C23.5031 30.5233 21.3794 29.6067 19.5189 30.2601L19.1377 30.3962V28.0456V25.686H22.1962C24.9098 25.686 25.2638 25.6678 25.4181 25.5317C25.6722 25.3048 25.6177 24.9236 25.2638 24.4608C24.5196 23.4806 24.5014 22.1556 25.2093 21.1845C25.9717 20.1589 27.4147 19.7868 28.5491 20.3405ZM5.88733 25.7404C5.88733 25.7677 5.8238 26.0218 5.74212 26.2941C5.63321 26.6571 5.60598 27.0473 5.63321 27.6372C5.66044 28.3814 5.70581 28.5539 6.00531 29.162C7.48463 32.1478 11.6866 32.1025 13.1206 29.0893C13.6016 28.0729 13.6288 26.8567 13.1932 25.8403C13.1297 25.6951 13.2567 25.686 15.4712 25.7041L17.8218 25.7314L17.849 28.808C17.8671 31.5216 17.8853 31.9119 18.0214 32.0571C18.2483 32.3112 18.6295 32.2567 19.0833 31.9119C20.853 30.5687 23.3216 31.6577 23.4668 33.854C23.5939 35.6873 21.8513 37.1394 20.1179 36.6312C19.8456 36.5586 19.4826 36.3861 19.3102 36.2682C19.1377 36.1411 18.9108 35.9687 18.8019 35.887C18.5478 35.7055 18.085 35.7872 17.9579 36.0413C17.8944 36.1502 17.849 37.3935 17.8399 39.2813L17.8218 42.3397L10.1982 42.367C6.00531 42.3851 2.39321 42.367 2.1754 42.3397C1.90313 42.2944 1.68531 42.1945 1.51288 42.0221L1.25876 41.768V33.727V25.686H3.57304C4.84363 25.686 5.88733 25.7132 5.88733 25.7404Z" fill="#FF5F55"/>
</svg>
