<svg width="55" height="62" viewBox="0 0 55 62" fill="none" xmlns="http://www.w3.org/2000/svg">
<circle cx="27.5" cy="34.4997" r="27.5" fill="white"/>
<path d="M15.8548 0.975479C14.1384 1.43251 12.7977 2.8036 12.3407 4.54032C12.2087 5.03798 12.1884 7.12001 12.1884 19.8661V34.6028L8.99931 37.0505L5.81025 39.5083L5.32275 39.2849C4.5915 38.9497 3.49462 38.9599 2.74306 39.3153C0.701652 40.2802 0.203996 42.9513 1.76806 44.5153C1.97118 44.7286 2.37743 45.013 2.67197 45.1653C3.11884 45.3989 3.33212 45.4395 4.06337 45.4395C4.77431 45.4497 5.01806 45.3989 5.43446 45.1958C6.91728 44.4645 7.63837 42.7989 7.13056 41.2856C6.93759 40.727 6.93759 40.6763 7.08993 40.5645C7.18134 40.5036 8.35947 39.5997 9.70009 38.5638L12.1376 36.695L12.1884 42.0372C12.2392 47.2067 12.2493 47.3997 12.4626 47.9075C13.1634 49.6239 14.4938 50.7716 16.1392 51.0864C16.8806 51.2286 35.1212 51.2286 35.8626 51.0864C37.7313 50.7309 39.3665 49.0958 39.7118 47.2372C39.7727 46.9325 39.8134 44.8911 39.8134 42.6059V38.5231L43.0024 36.0755L46.1915 33.6177L46.6892 33.8513C47.3899 34.1763 48.5985 34.1559 49.3095 33.8208C49.9595 33.5059 50.6298 32.8255 50.9142 32.2161C51.229 31.5458 51.229 30.2052 50.9142 29.5349C50.6298 28.9153 49.8884 28.1841 49.279 27.9099C48.5681 27.5849 47.2579 27.595 46.5673 27.9302C45.0946 28.6513 44.3634 30.3372 44.8712 31.8403C45.0642 32.3989 45.0642 32.4497 44.9118 32.5614C44.8204 32.6325 43.6423 33.5263 42.3017 34.5622L39.8642 36.4411L39.8134 20.5263L39.7626 4.62157L39.5392 4.09344C38.8688 2.43798 37.7009 1.38173 36.086 0.965321C35.2329 0.741882 16.6876 0.752041 15.8548 0.975479ZM26.0009 5.68798H32.0337L33.6587 4.07314L35.2938 2.46844L35.6798 2.5497C36.6345 2.76298 37.4368 3.42313 37.8735 4.35751L38.1376 4.92626L38.1681 21.3286L38.1884 37.7309L37.0509 38.6044L35.9032 39.4778L35.5681 39.1325C35.3853 38.9497 34.9993 38.6755 34.7048 38.5231C34.2477 38.2794 34.0548 38.2388 33.3134 38.2388C32.6126 38.2388 32.3688 38.2794 32.0134 38.4724L31.5767 38.7059L26.7829 35.0091L21.9892 31.3224L21.9079 30.6317C21.7759 29.3927 21.1157 28.4481 20.0087 27.9099C19.3384 27.5849 18.0181 27.595 17.3173 27.9302C16.1899 28.4786 15.5196 29.5145 15.4993 30.7231C15.4892 31.1091 15.5196 31.5458 15.5602 31.688C15.6415 31.9622 15.6009 32.0028 14.1892 33.0489L13.8134 33.3434L13.8337 19.0841L13.8642 4.8247L14.1384 4.29657C14.6259 3.38251 15.4079 2.76298 16.322 2.5497L16.7079 2.46844L18.3431 4.07314L19.9681 5.68798H26.0009ZM32.1454 3.25048L31.3329 4.06298H26.0009H20.6688L19.8563 3.25048L19.0438 2.43798H26.0009H32.9579L32.1454 3.25048ZM19.3282 29.3927C20.3743 29.8294 20.6282 31.1903 19.8157 32.0028C19.1556 32.663 18.2212 32.663 17.561 32.0028C16.3017 30.7536 17.6931 28.702 19.3282 29.3927ZM48.5782 29.3927C49.6243 29.8294 49.8782 31.1903 49.0657 32.0028C48.4056 32.663 47.4712 32.663 46.811 32.0028C45.5517 30.7536 46.9431 28.702 48.5782 29.3927ZM26.204 36.6138C28.5196 38.3911 30.429 39.8536 30.4392 39.8536C30.4493 39.8638 30.3579 40.138 30.2462 40.4731C29.7485 41.9559 30.3884 43.52 31.8102 44.2919C32.3993 44.6067 32.5212 44.6372 33.3134 44.6372C34.1056 44.6372 34.2274 44.6067 34.8165 44.2919C35.8423 43.7333 36.4212 42.8497 36.5329 41.6817C36.604 40.9606 36.5938 40.9708 37.8126 40.0669L38.1985 39.7825L38.1681 43.4794L38.1376 47.1763L37.8634 47.6942C37.4571 48.4661 37.1524 48.7809 36.4415 49.1567C35.8321 49.4817 35.7407 49.502 34.5626 49.5427L33.3134 49.5833V49.0044C33.3134 48.6794 33.2626 48.2325 33.1915 47.9989C33.029 47.4403 32.186 46.5974 31.6274 46.4349C31.0282 46.2622 20.9735 46.2622 20.3743 46.4349C19.8157 46.5974 18.9727 47.4403 18.8102 47.9989C18.7392 48.2325 18.6884 48.6794 18.6884 49.0044V49.5833L17.4493 49.5427C16.261 49.502 16.1696 49.4817 15.5602 49.1567C14.8696 48.7911 14.4532 48.3645 14.0977 47.6333C13.8642 47.1763 13.8642 47.1661 13.8337 41.2856L13.8134 35.395L14.3415 34.9888C14.636 34.7653 15.2556 34.288 15.7227 33.9325C16.4845 33.3434 16.5759 33.3028 16.7384 33.4349C17.236 33.8817 17.8149 34.0645 18.6884 34.0645C19.4298 34.0645 19.6227 34.0239 20.0798 33.7903C20.3743 33.638 20.7602 33.3638 20.9431 33.1809L21.2782 32.8356L21.6337 33.1099C21.8267 33.2622 23.8884 34.8364 26.204 36.6138ZM33.9532 39.9552C35.0095 40.3919 35.2532 41.7325 34.4306 42.5552C33.7603 43.2255 32.8462 43.2356 32.186 42.5653C30.9267 41.3161 32.3181 39.2645 33.9532 39.9552ZM4.70322 40.7677C5.74931 41.2044 6.00322 42.5653 5.19072 43.3778C4.53056 44.038 3.59618 44.038 2.93603 43.3778C1.67665 42.1286 3.06806 40.077 4.70322 40.7677ZM31.4345 48.1919C31.6477 48.395 31.6884 48.5372 31.6884 49.0044V49.563H26.0009H20.3134V49.0044C20.3134 48.5372 20.354 48.395 20.5673 48.1919L20.811 47.938H26.0009H31.1907L31.4345 48.1919Z" fill="#FF5F55"/>
<path d="M17.3164 13.2544L17.0625 13.4981V18.9419V24.3755H16.25H15.4375V25.188V26.0005H26H36.5625V25.188V24.3755H35.75H34.9375V19.7544V15.1231L34.6836 14.8794C34.4398 14.6255 34.4195 14.6255 32.5 14.6255C30.5805 14.6255 30.5602 14.6255 30.3164 14.8794L30.0625 15.1231V19.7544V24.3755H29.25H28.4375V20.5669V16.7481L28.1836 16.5044C27.9398 16.2505 27.9195 16.2505 26 16.2505C24.0805 16.2505 24.0602 16.2505 23.8164 16.5044L23.5625 16.7481V20.5669V24.3755H22.75H21.9375V18.9419V13.4981L21.6836 13.2544C21.4398 13.0005 21.4195 13.0005 19.5 13.0005C17.5805 13.0005 17.5602 13.0005 17.3164 13.2544ZM20.3125 19.5005V24.3755H19.5H18.6875V19.5005V14.6255H19.5H20.3125V19.5005ZM33.3125 20.313V24.3755H32.5H31.6875V20.313V16.2505H32.5H33.3125V20.313ZM26.8125 21.1255V24.3755H26H25.1875V21.1255V17.8755H26H26.8125V21.1255Z" fill="#FF5F55"/>
</svg>
