<svg width="55" height="62" viewBox="0 0 55 62" fill="none" xmlns="http://www.w3.org/2000/svg">
<circle cx="27.5" cy="34.5006" r="27.5" fill="white"/>
<path d="M6.5625 0.80513C5.56309 1.04869 4.77363 1.70377 4.31172 2.68638L4.04297 3.24908V19.5001V35.751L4.31172 36.3137C4.79043 37.3215 5.63027 38.0018 6.67168 38.2202C7.30156 38.3545 43.7004 38.3545 44.3303 38.2202C45.3717 38.0018 46.2115 37.3215 46.6902 36.3137L46.959 35.751V20.9278C46.959 9.48912 46.9338 6.02896 46.8582 5.76861C46.5727 4.84478 45.7748 3.98814 44.8426 3.61861L44.3555 3.41705L32.8076 3.37505C22.066 3.33306 21.243 3.32466 20.991 3.19029C20.8482 3.1063 20.3023 2.63599 19.7732 2.14048C18.7654 1.18306 18.3287 0.905914 17.6064 0.771538C16.9346 0.645561 7.1 0.670757 6.5625 0.80513ZM17.8584 2.14888C18.018 2.23286 18.5555 2.69478 19.051 3.17349C19.5465 3.6522 20.1176 4.12251 20.3107 4.2233C21.1338 4.64322 20.7559 4.63482 32.69 4.63482C45.2625 4.63482 44.4479 4.59283 45.1029 5.2563C45.3213 5.46626 45.5229 5.77701 45.5984 6.02056C45.7412 6.42369 45.8 7.4483 45.674 7.38951C45.6404 7.37271 45.4221 7.26353 45.1869 7.13755C44.3387 6.69244 42.8438 6.60005 42.533 6.98638C42.3398 7.22994 42.3398 7.49869 42.5498 7.75904C42.6926 7.9522 42.785 7.9774 43.4568 8.01099C44.3051 8.06138 44.6998 8.21255 45.1617 8.67447C45.7832 9.29595 45.7496 8.31334 45.7244 22.6915L45.6992 35.5831L45.4641 35.9778C45.3381 36.1961 45.1113 36.4733 44.9602 36.5825C44.3051 37.0864 45.6488 37.0528 25.501 37.0528C5.35313 37.0528 6.69688 37.0864 6.0418 36.5825C5.89063 36.4733 5.66387 36.1961 5.53789 35.9778L5.30273 35.5831V22.5655V9.5479L5.5043 9.14478C5.74785 8.64087 6.31895 8.20415 6.88164 8.07818C7.15039 8.01939 12.6766 7.99419 23.8717 7.99419C35.4027 7.99419 40.509 7.969 40.6266 7.90181C41.0297 7.69185 40.9961 7.01998 40.5678 6.82681C40.2738 6.70083 7.44434 6.69244 6.73047 6.82681C6.45332 6.8772 6.0418 7.01998 5.80664 7.13755C5.57988 7.26353 5.35313 7.38111 5.31953 7.38951C5.27754 7.4063 5.26074 6.52447 5.27754 5.42427L5.30273 3.41705L5.53789 3.02232C5.66387 2.80396 5.89063 2.52681 6.0502 2.40923C6.65488 1.94732 6.5457 1.95572 12.2734 1.97252C17.2789 1.98931 17.5813 1.99771 17.8584 2.14888Z" fill="#FF5F55"/>
<path d="M24.7443 10.8413C22.3004 11.1856 20.3183 12.9241 19.6969 15.2756C19.5541 15.8047 19.5121 16.2834 19.4785 17.7784L19.4281 19.6344L19.0418 19.794C18.5043 20.0124 17.8492 20.6926 17.6644 21.2385C17.3285 22.1791 17.4965 22.7754 18.0844 22.7754C18.4455 22.7754 18.6639 22.5487 18.731 22.0952C18.7982 21.6165 19.0418 21.2217 19.3861 21.0118C19.6549 20.8522 19.8228 20.8438 25.5086 20.8438H31.3539L31.631 21.037C31.7906 21.1377 31.9922 21.3561 32.0846 21.5157C32.2525 21.7928 32.2609 21.9356 32.2609 24.4131C32.2609 27.4114 32.2021 27.8313 31.5974 29.1163C30.7492 30.9135 29.1283 32.2657 27.1967 32.7864C26.2896 33.0299 24.7107 33.0299 23.8037 32.7864C21.8721 32.2657 20.2512 30.9135 19.4029 29.1163C18.9326 28.1168 18.773 27.361 18.7226 25.8493C18.6639 24.4383 18.6051 24.2872 18.0844 24.2872C17.6308 24.2872 17.4881 24.5223 17.4461 25.3118C17.4125 26.1852 17.5637 27.6213 17.782 28.4108C18.7898 32.1061 22.5775 34.6592 26.3568 34.2057C29.1283 33.8698 31.4799 32.2237 32.6808 29.7881C33.4283 28.268 33.5963 27.109 33.5459 23.8252C33.5123 21.9188 33.4871 21.5913 33.3443 21.2217C33.1428 20.6926 32.4709 20.004 31.9586 19.794L31.5639 19.6344L31.5219 17.7784C31.4883 16.2666 31.4463 15.8131 31.3035 15.2756C30.7576 13.2096 29.1283 11.5719 27.0791 11.026C26.3484 10.8329 25.3826 10.7573 24.7443 10.8413ZM26.1637 12.1178C28.0281 12.4202 29.3887 13.5623 30.0101 15.3596C30.2201 15.9895 30.2285 16.0903 30.2369 17.7784L30.2453 19.542L29.5566 19.5672L28.8596 19.5924V18.2655C28.8596 17.5348 28.826 16.7034 28.784 16.4178C28.3808 13.6631 25.0299 12.5209 23.1486 14.5114C22.334 15.3764 22.1492 16.0735 22.1408 18.2655V19.5924L21.4521 19.5672L20.7551 19.542L20.7635 17.7784C20.7719 16.0903 20.7803 15.9895 20.9902 15.3596C21.6033 13.5875 22.9723 12.4202 24.8031 12.1094C25.3826 12.017 25.559 12.017 26.1637 12.1178ZM26.2476 14.8977C26.6424 15.0153 27.1715 15.5276 27.3814 15.9727C27.5242 16.3002 27.5578 16.5606 27.583 17.9211L27.6166 19.5H25.5002H23.3838L23.4174 17.9211C23.4594 16.1827 23.5181 15.9139 24.0137 15.4016C24.6015 14.7885 25.3406 14.6206 26.2476 14.8977Z" fill="#FF5F55"/>
<path d="M24.7026 23.7748C23.2665 24.4299 23.1573 26.5295 24.5179 27.2686L24.8118 27.4198L24.8454 28.2932C24.879 29.2758 25.0134 29.5194 25.5005 29.5194C25.9876 29.5194 26.122 29.2758 26.1556 28.2932L26.1891 27.4198L26.4831 27.2686C27.8436 26.5295 27.7345 24.4299 26.2983 23.7748C25.8616 23.5733 25.1393 23.5733 24.7026 23.7748ZM25.9792 25.0598C26.1975 25.2614 26.2395 25.7485 26.0548 25.9836C25.8868 26.2104 25.5341 26.3112 25.2737 26.2104C24.9714 26.1012 24.837 25.8913 24.8286 25.5553C24.8286 24.9506 25.5341 24.6399 25.9792 25.0598Z" fill="#FF5F55"/>
</svg>
