<svg width="56" height="61" viewBox="0 0 56 61" fill="none" xmlns="http://www.w3.org/2000/svg">
<circle opacity="0.7" cx="28.5" cy="33.5" r="27.5" fill="white"/>
<path d="M16.2242 0.233597C15.5844 0.660156 15.5234 0.914062 15.5234 3.21953C15.5234 4.80391 15.493 5.28125 15.4016 5.28125C15.0461 5.28125 14.4672 5.525 14.1422 5.80938C13.5227 6.35781 13.35 6.81485 13.35 7.97266C13.35 9.48594 13.5836 9.86172 15.1477 10.6844L15.7266 10.9992V11.8219C15.7266 12.5227 15.6859 12.7359 15.4219 13.2945C15.0359 14.107 14.0609 15.0922 12.8625 15.8742C12.3852 16.1891 11.8875 16.5648 11.7758 16.7172C11.4914 17.0727 11.4914 17.8039 11.7656 18.2508C11.9688 18.5859 19.9617 29.575 20.5203 30.2859L20.825 30.6719H20.3781C20.1445 30.6719 19.5047 30.6008 18.9766 30.5195C12.5477 29.4836 7.175 24.9336 5.12344 18.7789C4.93047 18.2 4.67656 17.2859 4.575 16.7578L4.38203 15.793L4.75781 15.7422C5.21484 15.6711 5.61094 15.4273 5.84453 15.0617C5.99688 14.8281 6.02734 14.5438 6.02734 13.1523C6.02734 11.3344 5.97656 11.1516 5.33672 10.7656C5.05234 10.5828 4.81875 10.5625 3.4375 10.5625C2.05625 10.5625 1.82266 10.5828 1.53828 10.7656C0.898438 11.1516 0.847656 11.3344 0.847656 13.1523C0.847656 14.5539 0.878125 14.8281 1.03047 15.0617C1.31484 15.4883 1.79219 15.7422 2.34063 15.7422C2.75703 15.7422 2.82813 15.7727 2.86875 15.9656C2.89922 16.0977 3.01094 16.6766 3.13281 17.2453C4.27031 22.7906 8.08906 27.6656 13.3805 30.3063C15.8688 31.5656 18.2961 32.1242 21.9523 32.2969C25.3039 32.4492 27.0914 32.8859 29.6914 34.1758C31.5398 35.1 32.6875 35.943 34.4344 37.7C35.4906 38.7563 36.0086 39.2031 36.1711 39.2031C36.6891 39.2031 37.0547 38.6648 36.8617 38.157C36.7195 37.7914 34.5766 35.6078 33.6523 34.8867C30.6055 32.5203 27.5078 31.2711 23.7398 30.8648C23.1609 30.8039 22.6734 30.743 22.6531 30.7227C22.643 30.7125 24.5117 28.1227 26.807 24.9742C32.2 17.5906 31.875 18.0781 31.875 17.4789C31.875 16.8391 31.6719 16.5852 30.5648 15.8742C29.3969 15.1227 28.4117 14.1172 28.0156 13.2945C27.7516 12.7359 27.7109 12.5227 27.7109 11.8219V10.9992L28.3 10.6844C29.8539 9.86172 30.0875 9.48594 30.0875 7.97266C30.0875 6.81485 29.9148 6.35781 29.2953 5.80938C28.9703 5.525 28.3914 5.28125 28.0461 5.28125C27.9445 5.28125 27.9141 4.80391 27.9141 3.21953C27.9141 0.914062 27.8531 0.660156 27.2133 0.233597C26.8781 0.0101585 26.7969 0 24.2883 0H21.7086L21.4648 0.253906C21.3227 0.385941 21.2109 0.619534 21.2109 0.761719C21.2109 0.903908 21.3227 1.1375 21.4648 1.26953L21.7086 1.52344H24.0547H26.3906V3.40234V5.28125H25.1719H23.9531V4.95625C23.9531 3.93047 22.8563 2.94531 21.7188 2.94531C20.5813 2.94531 19.4844 3.93047 19.4844 4.95625V5.28125H18.2656H17.0469V3.40234V1.52344H17.9C18.9258 1.52344 19.2813 1.33047 19.2813 0.761719C19.2813 0.517971 19.2102 0.365627 19.0172 0.213284C18.7836 0.0304718 18.6008 0 17.6562 0C16.6914 0 16.5289 0.0304718 16.2242 0.233597ZM22.2266 4.67188C22.3891 4.83438 22.4297 5.00703 22.4297 5.62656C22.4297 6.32735 22.4094 6.39844 22.1656 6.59141C22.0133 6.71328 21.8203 6.80469 21.7188 6.80469C21.6172 6.80469 21.4242 6.71328 21.2719 6.59141C21.0281 6.39844 21.0078 6.32735 21.0078 5.62656C21.0078 4.76328 21.1906 4.46875 21.7188 4.46875C21.8914 4.46875 22.1148 4.56016 22.2266 4.67188ZM19.7992 7.21094C20.2359 7.98281 21.2211 8.42969 22.1148 8.27735C22.6734 8.18594 23.3539 7.7086 23.6383 7.21094L23.8617 6.80469H25.9641C28.5945 6.80469 28.5234 6.77422 28.5234 7.9625V8.79531L27.7922 9.22188C24.1766 11.2836 19.2609 11.2836 15.6555 9.22188L14.9141 8.79531V7.9625C14.9141 6.77422 14.843 6.80469 17.4734 6.80469H19.5758L19.7992 7.21094ZM19.6469 12.1367C21.5055 12.4109 23.75 12.2789 25.507 11.7914L26.1875 11.6086V12.1367C26.1875 12.8781 26.5227 13.8836 26.9898 14.5945C27.518 15.3867 28.6047 16.4125 29.5594 17.0422L30.3414 17.55L26.5734 22.7094C24.5117 25.5531 22.7547 27.95 22.6734 28.0312C22.5516 28.1531 22.5313 27.6352 22.5313 24.4055V20.6375L22.8258 20.5664C23.2422 20.475 24.0039 19.9062 24.3594 19.4289C24.7961 18.8398 24.9688 18.2609 24.9688 17.4281C24.9688 16.1992 24.3086 15.1328 23.1914 14.5438C22.7445 14.3 22.5719 14.2695 21.7188 14.2695C20.8656 14.2695 20.693 14.3 20.2461 14.5438C19.1289 15.1328 18.4688 16.1992 18.4688 17.4281C18.4688 18.2406 18.6414 18.8195 19.0477 19.3883C19.393 19.8656 20.1953 20.475 20.6016 20.5664L20.9063 20.6375V24.4055C20.9063 27.6352 20.8859 28.1531 20.7641 28.0312C20.6828 27.95 18.9258 25.5531 16.8641 22.7094L13.0961 17.55L13.8781 17.0422C14.8328 16.4125 15.9195 15.3867 16.4477 14.5945C16.9148 13.8836 17.25 12.8781 17.25 12.1367V11.6086L17.9305 11.7914C18.2961 11.893 19.068 12.0555 19.6469 12.1367ZM4.45313 13.1523V14.2188H3.4375H2.42188V13.1523V12.0859H3.4375H4.45313V13.1523ZM22.7141 16.0164C23.2117 16.382 23.4453 16.8391 23.4453 17.4383C23.4453 18.068 23.2727 18.4539 22.8359 18.8297C22.1758 19.3781 21.2617 19.3781 20.6016 18.8297C20.1648 18.4539 19.9922 18.068 19.9922 17.4688C19.9922 16.7172 20.368 16.118 21.0078 15.8539C21.4141 15.6813 22.3891 15.7727 22.7141 16.0164Z" fill="#FF5F55"/>
<path d="M37.7955 40.7266C37.3182 40.9195 37.2471 41.4172 37.6026 42.1281C38.0393 43.0117 38.5674 44.4234 38.8213 45.4492C39.1666 46.7797 39.1666 46.8203 38.7604 46.8203C38.3541 46.8203 37.8362 47.1148 37.5924 47.5008C37.4401 47.7344 37.4096 48.0086 37.4096 49.4102C37.4096 51.2281 37.4604 51.4109 38.1002 51.7969C38.3846 51.9797 38.6182 52 39.9791 52C41.6651 52 41.9291 51.9391 42.3252 51.4313C42.5182 51.1773 42.5385 51.0352 42.5385 49.4102C42.5385 47.7953 42.5182 47.643 42.3252 47.3891C42.0408 47.0234 41.7666 46.8914 41.1776 46.8203L40.6799 46.7695L40.4463 45.7031C39.9893 43.6719 38.9737 41.143 38.4557 40.7875C38.2018 40.6047 38.1205 40.5945 37.7955 40.7266ZM41.0151 49.4102V50.4766H39.9994H38.9838V49.4102V48.3438H39.9994H41.0151V49.4102Z" fill="#FF5F55"/>
</svg>
