<svg width="55" height="63" viewBox="0 0 55 63" fill="none" xmlns="http://www.w3.org/2000/svg">
<circle opacity="0.7" cx="27.5" cy="34.5141" r="27.5" fill="white"/>
<path d="M5.76816 0.912865C5.22783 1.04359 4.43475 1.50549 4.05128 1.92382C3.85955 2.13298 3.57195 2.56874 3.4238 2.8912L3.14491 3.47511L3.11877 5.97635L3.09262 8.4863H1.91608C0.783116 8.4863 0.730826 8.49502 0.530378 8.70418L0.3125 8.91334V19.9903V31.0672L0.530378 31.2763C0.730826 31.4855 0.783116 31.4942 1.91608 31.4942H3.09262L3.11877 36.4444L3.14491 41.3946L3.46737 42.0569C3.85955 42.85 4.36503 43.338 5.17553 43.7215L5.75945 44.0004H16.3483H26.9372L27.5211 43.7215C28.3316 43.338 28.8371 42.85 29.2293 42.0569L29.5517 41.3946L29.5779 36.4444L29.604 31.4942H30.7805C31.9135 31.4942 31.9658 31.4855 32.1662 31.2763L32.3841 31.0672V19.9903V8.91334L32.1662 8.70418C31.9658 8.49502 31.9135 8.4863 30.7805 8.4863H29.604L29.5779 5.97635L29.5517 3.47511L29.2728 2.8912C28.8894 2.08069 28.4013 1.57521 27.6082 1.18303L26.9459 0.860577L16.5313 0.843143C10.422 0.834431 5.96861 0.869289 5.76816 0.912865ZM26.7542 2.316C27.2335 2.45544 27.9568 3.17879 28.0963 3.65813C28.166 3.90215 28.2009 4.75623 28.2009 6.25523V8.4863H16.3483H4.49576V6.25523C4.49576 4.75623 4.53062 3.90215 4.60034 3.65813C4.73106 3.21366 5.46313 2.46416 5.89017 2.32471C6.35208 2.17656 26.2661 2.17656 26.7542 2.316ZM30.9897 11.9723V14.064H16.3483H1.70692V11.9723V9.88072H16.3483H30.9897V11.9723ZM30.9897 22.7791V30.0998H16.3483H1.70692V22.7791V15.4584H16.3483H30.9897V22.7791ZM28.2009 33.5858V35.6775H16.3483H4.49576V33.5858V31.4942H16.3483H28.2009V33.5858ZM28.2009 38.9543C28.2009 40.1832 28.166 40.9675 28.0963 41.2028C27.9568 41.6822 27.2335 42.4055 26.7542 42.545C26.2313 42.6931 6.46537 42.6931 5.94246 42.545C5.46313 42.4055 4.73978 41.6822 4.60034 41.2028C4.53062 40.9675 4.49576 40.1832 4.49576 38.9543V37.0719H16.3483H28.2009V38.9543Z" fill="#FF5F55"/>
<path d="M13.0812 3.8237C12.9417 3.95443 12.8633 4.13745 12.8633 4.30303C12.8633 4.46862 12.9417 4.65164 13.0812 4.78237L13.2903 5.00024H16.3493H19.4083L19.6175 4.78237C19.7569 4.65164 19.8354 4.46862 19.8354 4.30303C19.8354 4.13745 19.7569 3.95443 19.6175 3.8237L19.4083 3.60583H16.3493H13.2903L13.0812 3.8237Z" fill="#FF5F55"/>
<path d="M21.4483 3.8237C21.3089 3.95443 21.2305 4.13745 21.2305 4.30303C21.2305 4.46862 21.3089 4.65164 21.4483 4.78237C21.5791 4.92181 21.7621 5.00024 21.9277 5.00024C22.0933 5.00024 22.2763 4.92181 22.407 4.78237C22.5465 4.65164 22.6249 4.46862 22.6249 4.30303C22.6249 4.13745 22.5465 3.95443 22.407 3.8237C22.2763 3.68426 22.0933 3.60583 21.9277 3.60583C21.7621 3.60583 21.5791 3.68426 21.4483 3.8237Z" fill="#FF5F55"/>
<path d="M22.8429 11.493C22.7034 11.6237 22.625 11.8068 22.625 11.9723C22.625 12.1379 22.7034 12.321 22.8429 12.4517C22.9736 12.5911 23.1566 12.6696 23.3222 12.6696C23.4878 12.6696 23.6708 12.5911 23.8015 12.4517C23.941 12.321 24.0194 12.1379 24.0194 11.9723C24.0194 11.8068 23.941 11.6237 23.8015 11.493C23.6708 11.3536 23.4878 11.2751 23.3222 11.2751C23.1566 11.2751 22.9736 11.3536 22.8429 11.493Z" fill="#FF5F55"/>
<path d="M25.628 11.493C25.4886 11.6237 25.4102 11.8068 25.4102 11.9723C25.4102 12.1379 25.4886 12.321 25.628 12.4517C25.7588 12.5911 25.9418 12.6696 26.1074 12.6696C26.273 12.6696 26.456 12.5911 26.5867 12.4517C26.7261 12.321 26.8046 12.1379 26.8046 11.9723C26.8046 11.8068 26.7261 11.6237 26.5867 11.493C26.456 11.3536 26.273 11.2751 26.1074 11.2751C25.9418 11.2751 25.7588 11.3536 25.628 11.493Z" fill="#FF5F55"/>
<path d="M28.4171 11.493C28.2777 11.6237 28.1992 11.8068 28.1992 11.9723C28.1992 12.1379 28.2777 12.321 28.4171 12.4517C28.5478 12.5911 28.7308 12.6696 28.8964 12.6696C29.062 12.6696 29.245 12.5911 29.3758 12.4517C29.5152 12.321 29.5936 12.1379 29.5936 11.9723C29.5936 11.8068 29.5152 11.6237 29.3758 11.493C29.245 11.3536 29.062 11.2751 28.8964 11.2751C28.7308 11.2751 28.5478 11.3536 28.4171 11.493Z" fill="#FF5F55"/>
<path d="M18.0207 17.0009C17.8116 17.184 13.5586 27.0843 13.5586 27.3807C13.5586 27.8774 14.2907 28.1824 14.6741 27.8513C14.8833 27.677 19.1363 17.7766 19.1363 17.4803C19.1363 16.9835 18.4042 16.6785 18.0207 17.0009Z" fill="#FF5F55"/>
<path d="M8.88097 20.1904C7.10309 21.9596 6.9375 22.1513 6.9375 22.4302C6.9375 22.7004 7.10309 22.8921 8.81997 24.6177C9.90935 25.7071 10.807 26.535 10.929 26.5699C11.4171 26.6919 11.9138 26.1951 11.7744 25.7245C11.7395 25.6112 11.0249 24.8269 10.1795 23.9728L8.63695 22.4302L10.1795 20.8789C11.0249 20.0335 11.7395 19.2492 11.7744 19.1359C11.9051 18.7001 11.5129 18.2469 11.0075 18.2469C10.8767 18.2469 10.2231 18.8483 8.88097 20.1904Z" fill="#FF5F55"/>
<path d="M21.2624 18.3518C21.0532 18.4477 20.8789 18.7701 20.8789 19.049C20.8789 19.1797 21.4018 19.7637 22.4651 20.8356L24.0512 22.4305L22.4651 24.0253C21.0619 25.4372 20.8789 25.6551 20.8789 25.9078C20.8789 26.2826 21.2101 26.6137 21.5935 26.6137C21.8463 26.6137 22.0816 26.4133 23.8159 24.6703C25.6025 22.8924 25.7594 22.7094 25.7594 22.4305C25.7594 22.1516 25.6025 21.9686 23.8159 20.1907C21.794 18.1688 21.733 18.1165 21.2624 18.3518Z" fill="#FF5F55"/>
<path d="M15.6499 37.8827C15.2228 38.0222 14.4908 38.7717 14.36 39.2161C14.116 40.0354 14.2903 40.689 14.9091 41.2991C15.7893 42.188 16.9048 42.188 17.7851 41.2991C18.2383 40.8546 18.4387 40.4101 18.4387 39.8611C18.4387 39.312 18.2383 38.8675 17.7851 38.4231C17.175 37.8043 16.4604 37.63 15.6499 37.8827ZM16.8264 39.3817C17.2622 39.8088 16.9571 40.5583 16.3471 40.5583C16.1815 40.5583 15.9985 40.4798 15.8677 40.3404C15.432 39.9133 15.737 39.1638 16.3471 39.1638C16.5127 39.1638 16.6957 39.2423 16.8264 39.3817Z" fill="#FF5F55"/>
<path d="M7.50303 39.3814C7.36359 39.5121 7.28516 39.6951 7.28516 39.8607C7.28516 40.0263 7.36359 40.2093 7.50303 40.34C7.7122 40.5579 7.72963 40.5579 9.37678 40.5579C11.0239 40.5579 11.0414 40.5579 11.2505 40.34C11.39 40.2093 11.4684 40.0263 11.4684 39.8607C11.4684 39.6951 11.39 39.5121 11.2505 39.3814C11.0414 39.1635 11.0239 39.1635 9.37678 39.1635C7.72963 39.1635 7.7122 39.1635 7.50303 39.3814Z" fill="#FF5F55"/>
<path d="M21.4483 39.3814C21.3089 39.5121 21.2305 39.6951 21.2305 39.8607C21.2305 40.0263 21.3089 40.2093 21.4483 40.34C21.6575 40.5579 21.6749 40.5579 23.3221 40.5579C24.9693 40.5579 24.9867 40.5579 25.1958 40.34C25.3353 40.2093 25.4137 40.0263 25.4137 39.8607C25.4137 39.6951 25.3353 39.5121 25.1958 39.3814C24.9867 39.1635 24.9693 39.1635 23.3221 39.1635C21.6749 39.1635 21.6575 39.1635 21.4483 39.3814Z" fill="#FF5F55"/>
</svg>
