<svg width="55" height="62" viewBox="0 0 55 62" fill="none" xmlns="http://www.w3.org/2000/svg">
<circle cx="27.5" cy="33.5049" r="27.5" fill="white"/>
<path d="M26.8721 0.0592537C26.413 0.174036 25.7434 0.604477 25.4182 0.996655C24.8634 1.66623 24.8347 1.89579 24.8347 5.30105V8.39065L14.6285 8.40978L4.41276 8.43847L3.86754 8.69674C3.16927 9.02196 2.55709 9.63414 2.20318 10.3611L1.92578 10.9255V20.2516V29.5778L2.17448 30.1039C2.54753 30.8883 3.03536 31.3952 3.77189 31.7492L4.41276 32.0648H17.852H31.2913L31.7409 31.8448C32.4583 31.4813 33.0226 30.9265 33.367 30.2187L33.6826 29.5874L33.7113 27.0239L33.74 24.47L36.4375 24.4413C38.9914 24.4126 39.154 24.403 39.5271 24.2021C40.0627 23.9152 40.5123 23.4465 40.7705 22.8725L41.0001 22.3751L40.981 12.1116C40.9523 2.49841 40.9427 1.81927 40.7801 1.53231C40.4932 1.00622 40.034 0.547085 39.5271 0.279255L39.0392 0.0209923L33.1087 0.00186157C29.847 -0.00770569 27.0443 0.0209923 26.8721 0.0592537ZM38.8001 1.74275C39.4123 2.0584 39.374 1.32187 39.374 12.2455V22.1838L39.0488 22.5091L38.7236 22.8343L32.8792 22.8152L27.0347 22.7865L26.7765 22.5186L26.5087 22.2604L26.48 12.3603C26.4513 1.3984 26.4226 2.02014 27.0634 1.74275C27.5321 1.53231 38.3983 1.53231 38.8001 1.74275ZM24.8347 16.1194C24.8347 23.1212 24.806 22.8152 25.6382 23.6569C26.4034 24.4221 26.6139 24.4604 29.5887 24.4604H32.1044V26.7561C32.1044 29.5587 32.0278 29.8457 31.1287 30.3048C30.7844 30.477 30.3443 30.4865 17.8425 30.4865H4.9006L4.47972 30.2857C4.23102 30.1613 3.96319 29.9222 3.81015 29.6926L3.55189 29.3004V20.2516V11.2029L3.81015 10.8107C3.95363 10.5907 4.23102 10.342 4.47972 10.2176L4.89103 10.0168H14.8677H24.8347V16.1194Z" fill="#FF5F55"/>
<path d="M29.8008 20.4336C29.6382 20.6058 29.5234 20.8162 29.5234 20.9693C29.5234 21.1223 29.6382 21.3327 29.8008 21.5049L30.0782 21.7823H32.9478H35.8079L36.0661 21.5336C36.4009 21.1893 36.3913 20.7971 36.0374 20.4336L35.76 20.1562H32.9191H30.0782L29.8008 20.4336Z" fill="#FF5F55"/>
<path d="M0.493035 34.5521C0.253902 34.7816 0.186944 35.1738 0.311294 35.5086C0.483469 35.9582 -0.224365 35.939 17.8541 35.939C29.2942 35.939 34.8612 35.9103 34.9856 35.8434C35.2534 35.6999 35.4734 35.2216 35.3969 34.9347C35.3682 34.8008 35.2247 34.6095 35.1004 34.5042C34.8612 34.3129 34.6604 34.3129 17.7871 34.3129H0.722602L0.493035 34.5521Z" fill="#FF5F55"/>
</svg>
