<svg width="106" height="106" viewBox="0 0 106 106" fill="none" xmlns="http://www.w3.org/2000/svg">
<path d="M53 106C82.2711 106 106 82.2711 106 53C106 23.7289 82.2711 0 53 0C23.7289 0 0 23.7289 0 53C0 82.2711 23.7289 106 53 106Z" fill="#FFD05B"/>
<path d="M59.1762 18.9465H34.5542V65.5198H71.4455V31.2158L59.1762 18.9465Z" fill="white"/>
<path d="M59.1763 31.2158H71.4456L59.1763 18.9465V31.2158Z" fill="#E6E9EE"/>
<path d="M66.4376 35.3054H39.4785V37.3086H66.4376V35.3054Z" fill="#4CDBC4"/>
<path d="M66.4376 42.4834H39.4785V44.4865H66.4376V42.4834Z" fill="#4CDBC4"/>
<path d="M62.7662 50.7463L59.511 59.5936H46.4906L43.2355 50.7463H21.5347V77.7054H84.4669V50.7463H62.7662Z" fill="#FF7058"/>
</svg>
