<svg width="59" height="50" viewBox="0 0 59 50" fill="none" xmlns="http://www.w3.org/2000/svg">
<circle cx="34" cy="25" r="25" fill="#EBF4FF"/>
<path d="M3.01212 40.6C2.16364 40.6 1.4495 40.3101 0.869697 39.7303C0.289899 39.1505 0 38.4364 0 37.5879V13.4485C0 12.6283 0.289899 11.9212 0.869697 11.3273C1.4495 10.7333 2.16364 10.4364 3.01212 10.4364H11.2C11.3131 9.53131 11.7303 8.73232 12.4515 8.03939C13.1727 7.34646 14.0566 7 15.103 7C16.1495 7 17.0404 7.34646 17.7758 8.03939C18.5111 8.73232 18.9212 9.53131 19.0061 10.4364H27.1939C28.0424 10.4364 28.7566 10.7333 29.3364 11.3273C29.9162 11.9212 30.2061 12.6283 30.2061 13.4485V37.5879C30.2061 38.4364 29.9162 39.1505 29.3364 39.7303C28.7566 40.3101 28.0424 40.6 27.1939 40.6H3.01212ZM3.01212 38.1394H27.1939C27.3354 38.1394 27.4626 38.0828 27.5758 37.9697C27.6889 37.8566 27.7455 37.7293 27.7455 37.5879V13.4485C27.7455 13.3071 27.6889 13.1798 27.5758 13.0667C27.4626 12.9535 27.3354 12.897 27.1939 12.897H3.01212C2.87071 12.897 2.74344 12.9535 2.6303 13.0667C2.51717 13.1798 2.46061 13.3071 2.46061 13.4485V37.5879C2.46061 37.7293 2.51717 37.8566 2.6303 37.9697C2.74344 38.0828 2.87071 38.1394 3.01212 38.1394ZM6.70303 33.8545H18.1576V31.3939H6.70303V33.8545ZM6.70303 26.7697H23.503V24.2667H6.70303V26.7697ZM6.70303 19.6848H23.503V17.2242H6.70303V19.6848ZM15.103 12.0909C15.4707 12.0909 15.803 11.9566 16.1 11.6879C16.397 11.4192 16.5455 11.0727 16.5455 10.6485C16.5455 10.2525 16.397 9.91313 16.1 9.6303C15.803 9.34747 15.4707 9.20606 15.103 9.20606C14.7071 9.20606 14.3748 9.34747 14.1061 9.6303C13.8374 9.91313 13.703 10.2525 13.703 10.6485C13.703 11.0727 13.8374 11.4192 14.1061 11.6879C14.3748 11.9566 14.7071 12.0909 15.103 12.0909Z" fill="#1683E8"/>
</svg>
