<svg width="87" height="62" viewBox="0 0 87 62" fill="none" xmlns="http://www.w3.org/2000/svg">
<rect x="25" width="62" height="62" rx="31" fill="#FFEDE8"/>
<path d="M44.8436 30.9994C45.5198 32.1231 45.877 33.4098 45.877 34.7212C45.8741 36.4601 45.2512 38.141 44.1203 39.462C42.9895 40.7829 41.4246 41.6574 39.7069 41.9283C39.4219 41.9753 39.1632 42.123 38.9779 42.3445C38.7925 42.566 38.6926 42.8466 38.6965 43.1355C38.6965 43.2043 38.7061 43.3009 38.7098 43.2441C38.7027 44.4382 38.222 45.5806 37.3731 46.4204C36.5243 47.2602 35.3768 47.7286 34.1827 47.7229C33.8625 47.7229 33.5555 47.8501 33.3291 48.0764C33.1027 48.3028 32.9755 48.6099 32.9755 48.9301C32.9672 50.1233 32.4859 51.2645 31.6372 52.1032C30.7885 52.942 29.6417 53.4098 28.4485 53.404C27.6831 53.404 25.3544 53.404 25.3544 48.9301V13.4175C25.3544 11.6454 25.795 7.52394 29.8814 7.52394C31.3104 7.51922 32.693 8.03032 33.7753 8.96335C34.8576 9.89638 35.5668 11.1886 35.7726 12.6027C33.5416 13.2314 31.6065 14.6321 30.3124 16.5551L32.3176 17.9048C33.3206 16.4213 34.8243 15.3487 36.5535 14.8832C38.2826 14.4177 40.1216 14.5903 41.7338 15.3696L42.7865 13.1966C41.4465 12.5483 39.975 12.2178 38.4864 12.2309V12.2176C38.4333 12.2176 38.3814 12.226 38.3283 12.2272C38.2752 12.2284 38.2257 12.2212 38.1726 12.2272C37.8736 10.2437 36.8718 8.4337 35.3499 7.12698C33.8281 5.82026 31.8873 5.10385 29.8814 5.10831C28.7246 5.06215 27.5775 5.33561 26.5659 5.89868C25.5543 6.46175 24.7175 7.29266 24.1472 8.30018C23.577 7.29257 22.7401 6.46159 21.7285 5.8985C20.717 5.33542 19.5697 5.06201 18.4129 5.10831C16.4095 5.10453 14.4712 5.81972 12.9504 7.12388C11.4296 8.42804 10.4272 10.2346 10.1254 12.2152C10.0675 12.2152 10.0047 12.2152 9.95278 12.2152C9.90087 12.2152 9.85983 12.2067 9.81154 12.2067V12.2176C7.9353 12.1953 6.0929 12.7179 4.50777 13.7219C2.92264 14.726 1.66289 16.1684 0.881284 17.8742C0.0996796 19.58 -0.170194 21.476 0.104392 23.3322C0.378978 25.1883 1.18623 26.925 2.42824 28.3314C1.33367 29.5697 0.574459 31.0676 0.222965 32.6824C-0.128529 34.2973 -0.0605915 35.9753 0.420302 37.5564C0.901194 39.1376 1.77902 40.5692 2.97011 41.7149C4.16119 42.8606 5.62585 43.6821 7.22449 44.1012C7.41781 45.5816 8.08407 46.9599 9.12406 48.031C10.164 49.1021 11.5221 49.8087 12.9962 50.0455C13.2731 51.661 14.113 53.1262 15.367 54.1815C16.621 55.2369 18.2081 55.8142 19.8471 55.8112C20.6904 55.8507 21.5296 55.6714 22.2831 55.2906C23.0366 54.9099 23.6788 54.3406 24.1472 53.6382C24.6158 54.3406 25.2582 54.9099 26.0119 55.2906C26.7656 55.6714 27.605 55.8507 28.4485 55.8112C30.0879 55.8143 31.6754 55.2365 32.9293 54.1803C34.1833 53.1242 35.0225 51.658 35.2982 50.0419C36.7717 49.8053 38.1294 49.0992 39.1693 48.0288C40.2092 46.9584 40.8758 45.5809 41.0699 44.1012C42.5236 43.7196 43.8686 43.0047 44.9982 42.0132C46.1278 41.0216 47.011 39.7807 47.5778 38.3886C48.1446 36.9965 48.3795 35.4916 48.2639 33.993C48.1482 32.4944 47.6852 31.0434 46.9116 29.7547L44.8436 30.9994ZM22.94 48.9301C22.94 53.404 20.6125 53.404 19.8471 53.404C18.6539 53.4098 17.5071 52.942 16.6584 52.1032C15.8097 51.2645 15.3283 50.1233 15.32 48.9301C15.32 48.6099 15.1929 48.3028 14.9665 48.0764C14.7401 47.8501 14.433 47.7229 14.1128 47.7229C12.9296 47.7285 11.7916 47.2685 10.9446 46.4423C10.0976 45.6161 9.60955 44.4899 9.58579 43.3069C9.59183 43.2489 9.59787 43.1801 9.59787 43.1403C9.60177 42.8516 9.50211 42.5711 9.31695 42.3497C9.1318 42.1282 8.87341 41.9804 8.58864 41.9331C7.21456 41.7238 5.92923 41.1252 4.88486 40.208C3.84049 39.2909 3.08081 38.0937 2.69581 36.7581C2.3108 35.4226 2.31658 34.0047 2.71246 32.6724C3.10835 31.34 3.87776 30.1491 4.92958 29.2405L4.93682 29.232C5.73111 28.5411 6.66305 28.0268 7.67098 27.7231C8.67891 27.4193 9.73986 27.3331 10.7836 27.47C11.8274 27.607 12.8302 27.964 13.7256 28.5175C14.6211 29.071 15.3888 29.8083 15.978 30.6807L17.9832 29.3346C17.2562 28.2563 16.3228 27.3326 15.2369 26.617C14.1509 25.9014 12.934 25.408 11.6563 25.1654C10.3787 24.9227 9.06558 24.9356 7.7929 25.2032C6.52023 25.4708 5.31318 25.9879 4.24147 26.7246C3.07176 25.4049 2.42325 23.704 2.41737 21.9405C2.44343 20.3635 2.97143 18.8358 3.92472 17.5793C4.87801 16.3228 6.20697 15.4028 7.71866 14.9529C9.23035 14.503 10.8461 14.5466 12.3313 15.0774C13.8165 15.6083 15.0939 16.5986 15.978 17.9048L17.9832 16.5587C16.6912 14.6407 14.762 13.2418 12.5374 12.6099C12.7406 11.1973 13.4468 9.90541 14.5262 8.97172C15.6056 8.03803 16.9857 7.52523 18.4129 7.52756C22.4993 7.52756 22.94 11.649 22.94 13.4212V48.9301Z" fill="#FF4E43"/>
<path d="M69.6187 3.14912C69.0209 2.23132 68.1312 1.54188 67.0932 1.19223C66.5867 1.01849 66.0475 0.961478 65.5159 1.02545C64.9843 1.08941 64.474 1.27271 64.0232 1.56164L32.0273 22.9293C31.9126 23.0104 31.8129 23.1109 31.7328 23.2263C31.7104 23.2564 31.6899 23.2879 31.6712 23.3204C31.6531 23.3518 31.6277 23.3784 31.612 23.4122L26.7868 33.5986C26.6998 33.7823 26.6606 33.9849 26.6728 34.1877C26.685 34.3906 26.7482 34.5871 26.8566 34.759C26.9649 34.9309 27.1149 35.0727 27.2926 35.1712C27.4704 35.2697 27.6701 35.3217 27.8733 35.3225C27.9569 35.3226 28.0403 35.3137 28.122 35.2959L38.2988 33.1459C38.3181 33.1459 38.335 33.1314 38.3543 33.1266C38.3925 33.1161 38.43 33.1032 38.4666 33.088C38.5335 33.0634 38.5981 33.0332 38.6597 32.9974C38.6791 32.9853 38.7008 32.9817 38.7201 32.9684L70.7221 11.6008C71.1617 11.2953 71.5265 10.8944 71.7893 10.428C72.0521 9.96159 72.206 9.4418 72.2395 8.90752C72.3157 7.81473 72.0205 6.72826 71.4017 5.8243L69.6187 3.14912ZM30.0089 32.4312L32.8724 26.3771L36.0618 31.1528L30.0089 32.4312ZM38.3881 30.2909L34.3657 24.2669L60.4692 6.83836L64.4916 12.8611L38.3881 30.2909ZM69.3857 9.59322L66.4992 11.5248L62.478 5.50077L65.3632 3.56923C65.5133 3.4844 65.6801 3.43342 65.8519 3.41987C66.0238 3.40631 66.1965 3.43051 66.358 3.49076C66.8745 3.67596 67.3152 4.02703 67.6111 4.48913L69.399 7.16551C69.7116 7.61589 69.8661 8.15717 69.8384 8.70471C69.8327 8.87695 69.7892 9.04583 69.711 9.19939C69.6328 9.35294 69.5217 9.48739 69.3857 9.59322ZM67.8404 51.3881C63.4341 50.1712 62.6567 49.3938 61.4422 44.9899C61.372 44.7351 61.2201 44.5105 61.0099 44.3504C60.7996 44.1903 60.5427 44.1036 60.2785 44.1036C60.0142 44.1036 59.7573 44.1903 59.5471 44.3504C59.3369 44.5105 59.185 44.7351 59.1147 44.9899C57.8979 49.3974 57.1204 50.1809 52.7165 51.3881C52.4618 51.4583 52.2372 51.6102 52.0771 51.8204C51.917 52.0307 51.8303 52.2876 51.8303 52.5518C51.8303 52.8161 51.917 53.073 52.0771 53.2832C52.2372 53.4934 52.4618 53.6453 52.7165 53.7156C57.1228 54.9324 57.9003 55.7099 59.1147 60.1138C59.185 60.3685 59.3369 60.5931 59.5471 60.7532C59.7573 60.9133 60.0142 61 60.2785 61C60.5427 61 60.7996 60.9133 61.0099 60.7532C61.2201 60.5931 61.372 60.3685 61.4422 60.1138C62.6591 55.7063 63.4365 54.9228 67.8404 53.7156C68.0952 53.6453 68.3198 53.4934 68.4799 53.2832C68.64 53.073 68.7267 52.8161 68.7267 52.5518C68.7267 52.2876 68.64 52.0307 68.4799 51.8204C68.3198 51.6102 68.0952 51.4583 67.8404 51.3881ZM60.2761 56.159C59.5676 54.5475 58.2804 53.2603 56.6689 52.5518C58.2804 51.8433 59.5676 50.5562 60.2761 48.9447C60.9846 50.5562 62.2717 51.8433 63.8832 52.5518C62.2717 53.2603 60.9846 54.5475 60.2761 56.159Z" fill="#FF4E43"/>
</svg>
