<svg width="32" height="42" viewBox="0 0 32 42" fill="none" xmlns="http://www.w3.org/2000/svg">
<path d="M3.53169 5.40586V10.8117L2.99028 11.3613C1.80903 12.5672 1.11177 14.0848 0.939502 15.8074L0.88208 16.4063H1.49731H2.11255L2.20278 15.7172C2.38325 14.3555 2.87544 13.3055 3.80239 12.3375C4.77856 11.3039 5.99263 10.6887 7.41997 10.5C9.8727 10.1719 12.3583 11.5418 13.4575 13.8223C13.8758 14.7082 14.0317 15.3809 14.0317 16.3816C14.0317 18.293 13.2524 19.8926 11.7594 21.0738L11.0786 21.607L9.63481 24.2156C8.83911 25.6512 8.15825 26.8406 8.13364 26.857C8.10083 26.8816 7.40356 25.684 6.58325 24.2074C5.1313 21.5906 5.08208 21.5168 4.63911 21.2051C3.77778 20.6145 2.96567 19.5809 2.58833 18.5965C2.5063 18.3832 2.42427 18.2109 2.40786 18.2109C2.38325 18.2109 2.11255 18.2848 1.80903 18.3832L1.24302 18.5555L1.35786 18.859C1.66958 19.7531 2.30942 20.7375 3.0313 21.4512L3.53169 21.9352V31.9676V42H17.3129H31.0942V21V0H26.8286H22.5629V0.615234V1.23047H26.2133H29.8637V3.24023V5.25H17.3129H4.76216V3.24023V1.23047H12.6782H20.5942V0.615234V0H12.0629H3.53169V5.40586ZM29.8637 21V35.5195H27.1977H24.5317V36.1348V36.75H27.1977H29.8637V38.7598V40.7695H17.3129H4.76216V38.7598V36.75H13.6625H22.5629V36.1348V35.5195H13.6625H4.76216V29.5477C4.77036 24.4043 4.78677 23.6086 4.8852 23.7398C4.94263 23.8219 5.68911 25.1426 6.53403 26.6684C7.37895 28.1941 8.09263 29.4492 8.11724 29.4492C8.14185 29.441 9.03599 27.8742 10.0942 25.9465C11.9481 22.5832 12.0383 22.4438 12.4813 22.1074C15.8282 19.5234 16.2383 14.5523 13.3508 11.509C12.35 10.459 11.2426 9.78633 9.88911 9.42539C9.37231 9.28594 9.00317 9.24492 8.12544 9.24492C6.92778 9.24492 6.16489 9.39258 5.27075 9.80273C5.02466 9.91758 4.81138 10.0078 4.79497 10.0078C4.77856 10.0078 4.76216 9.21211 4.76216 8.24414V6.48047H17.3129H29.8637V21Z" fill="#24ABF5"/>
<path d="M24.5317 8.49023V9.10547L25.8688 9.12188L27.1978 9.14648L27.2224 10.4754L27.2388 11.8125H27.854H28.4692V9.84375V7.875H26.5005H24.5317V8.49023Z" fill="#24ABF5"/>
<path d="M18.7075 9.1876V9.85205L19.3063 9.82744L19.897 9.80283L19.9216 9.16299L19.9462 8.53135H19.3228H18.7075V9.1876Z" fill="#24ABF5"/>
<path d="M18.7075 11.8125V12.4688H19.3228H19.938V11.8125V11.1562H19.3228H18.7075V11.8125Z" fill="#24ABF5"/>
<path d="M27.2388 13.7812V14.4375H27.854H28.4692V13.7812V13.125H27.854H27.2388V13.7812Z" fill="#24ABF5"/>
<path d="M18.7075 14.4375V15.0938H19.3228H19.938V14.4375V13.7812H19.3228H18.7075V14.4375Z" fill="#24ABF5"/>
<path d="M18.7075 20.3438V23.625H21.6606H24.6138L24.5974 27.2508L24.5728 30.8848L23.572 30.9094L22.563 30.934V29.6133V28.3008H19.2817H16.0005V28.916V29.5312H18.6665H21.3325V30.8438V32.1562H23.5884H25.8442L25.8278 27.2508L25.8032 22.3535L22.8747 22.3289L19.938 22.3125V19.6875V17.0625H19.3228H18.7075V20.3438Z" fill="#24ABF5"/>
<path d="M10.7505 28.916V29.5312H11.4067H12.063V28.916V28.3008H11.4067H10.7505V28.916Z" fill="#24ABF5"/>
<path d="M13.3755 28.916V29.5312H14.0317H14.688V28.916V28.3008H14.0317H13.3755V28.916Z" fill="#24ABF5"/>
<path d="M6.15674 30.8848V31.5H6.81299H7.46924V30.8848V30.2695H6.81299H6.15674V30.8848Z" fill="#24ABF5"/>
<path d="M6.15674 33.5098V34.125H6.81299H7.46924V33.5098V32.8945H6.81299H6.15674V33.5098Z" fill="#24ABF5"/>
<path d="M8.78174 33.5098V34.125H9.43799H10.0942V33.5098V32.8945H9.43799H8.78174V33.5098Z" fill="#24ABF5"/>
<path d="M16.6567 38.7598V39.375H17.313H17.9692V38.7598V38.1445H17.313H16.6567V38.7598Z" fill="#24ABF5"/>
<path d="M11.4067 3.24023V3.85547H14.688H17.9692V3.24023V2.625H14.688H11.4067V3.24023Z" fill="#24ABF5"/>
<path d="M19.2817 3.24023V3.85547H19.938H20.5942V3.24023V2.625H19.938H19.2817V3.24023Z" fill="#24ABF5"/>
<path d="M21.9067 3.24023V3.85547H22.563H23.2192V3.24023V2.625H22.563H21.9067V3.24023Z" fill="#24ABF5"/>
<path d="M7.46912 13.2152C5.81209 13.5434 4.63904 15.225 4.90975 16.8738C5.09022 17.932 5.71365 18.7934 6.68983 19.302C7.1574 19.548 7.23123 19.5645 8.08436 19.5645C8.93748 19.5645 9.01951 19.548 9.52811 19.302C10.1844 18.982 10.7586 18.3914 11.0621 17.7352C11.259 17.325 11.2836 17.1691 11.2836 16.4063C11.2836 15.6434 11.259 15.4957 11.0621 15.0691C10.6191 14.134 9.73318 13.4285 8.716 13.2152C8.22381 13.1168 7.99412 13.1086 7.46912 13.2152ZM8.91287 14.5605C10.3484 15.1512 10.4961 17.2594 9.15897 18.0797C8.60936 18.4242 7.81365 18.4734 7.27225 18.2191C6.24686 17.7188 5.82029 16.4965 6.32068 15.4957C6.59959 14.9543 7.12459 14.577 7.83826 14.4129C8.05975 14.3555 8.60115 14.4293 8.91287 14.5605Z" fill="#24ABF5"/>
</svg>
