<svg width="35" height="38" viewBox="0 0 35 38" fill="none" xmlns="http://www.w3.org/2000/svg">
<path d="M6.79781 1.19512C6.14742 1.52754 5.87281 2.06231 5.86558 3.00176V3.44258L4.44195 3.47149C3.19176 3.49316 2.96051 3.52207 2.62808 3.65215C1.87652 3.95567 1.25504 4.58438 1.00933 5.28535C0.893709 5.63945 0.886483 6.45606 0.879256 20.6996C0.879256 37.299 0.843123 36.0994 1.33453 36.8221C1.65972 37.2918 2.19449 37.682 2.75094 37.8555C3.19898 38 3.45191 38 17.5003 38C31.5488 38 31.8017 38 32.2498 37.8555C32.8062 37.682 33.341 37.2918 33.6662 36.8221C34.1576 36.0994 34.1214 37.299 34.1214 20.7285C34.1214 4.01348 34.1648 5.33594 33.6156 4.59883C33.3048 4.18692 32.6906 3.73164 32.257 3.59434C32.1052 3.54375 31.3681 3.49316 30.566 3.47871L29.1351 3.44258V3.00176C29.1351 2.75606 29.099 2.42363 29.0628 2.27188C28.781 1.05782 27.1045 0.56641 26.1578 1.41914C25.7314 1.80215 25.5941 2.1418 25.5941 2.85723V3.45703H17.5003H9.4066V2.85723C9.4066 2.1418 9.26929 1.80215 8.84293 1.41914C8.31539 0.942188 7.47711 0.855473 6.79781 1.19512ZM8.13472 2.23574C8.30816 2.37305 8.32261 2.42363 8.32261 2.92227V3.45703H7.63609H6.94957V3.02344C6.94957 2.58262 7.07965 2.19961 7.25308 2.13457C7.49156 2.04063 7.94683 2.09121 8.13472 2.23574ZM27.7693 2.17793C27.9716 2.32969 28.0511 2.56816 28.0511 3.01621V3.45703H27.3646H26.6781V2.92227C26.6781 2.42363 26.6925 2.37305 26.866 2.23574C27.0828 2.06231 27.5814 2.0334 27.7693 2.17793ZM5.88004 5.56719C5.90172 6.46328 5.9234 6.64395 6.0607 6.9041C6.34254 7.42442 6.92789 7.79297 7.48433 7.79297C7.76617 7.79297 7.93238 7.68457 8.0191 7.43887C8.14918 7.07031 7.93961 6.83184 7.34703 6.6584C7.02183 6.56446 6.94957 6.34766 6.94957 5.38652V4.54102H16.2718H25.5941V5.53106C25.5941 6.34043 25.623 6.57891 25.7314 6.81738C26.1 7.61953 27.1334 8.06035 27.5814 7.61231C27.6826 7.51836 27.7621 7.35215 27.7621 7.25098C27.7621 7.0125 27.4658 6.70899 27.2345 6.70899C27.1406 6.70899 26.9744 6.64395 26.866 6.55723C26.6781 6.4127 26.6781 6.39824 26.6781 5.47324V4.54102H29.1062C30.631 4.54102 31.6427 4.56992 31.8451 4.62051C32.2425 4.72168 32.7267 5.12637 32.9002 5.50938C33.023 5.77676 33.0375 6.03691 33.0375 8.49395V11.1895L21.3955 11.2039L9.75347 11.2256L9.58004 11.4279C9.37047 11.6736 9.36324 11.8326 9.55836 12.0855L9.70289 12.2734H21.3738H33.0375V19.4639C33.0375 27.2975 33.0591 26.8422 32.6255 27.2396C32.2714 27.5648 32.0691 27.5938 29.8505 27.5938C27.8994 27.5938 27.7404 27.601 27.3502 27.7455C26.8587 27.9334 26.3529 28.4104 26.1 28.9307C25.9265 29.2848 25.9193 29.3354 25.8832 31.6045C25.8615 33.2232 25.8181 33.9604 25.7603 34.0688C25.6086 34.3289 25.175 34.6686 24.9293 34.7119C24.7992 34.7336 19.8273 34.7408 13.8871 34.7336L3.08336 34.7119L2.73648 34.5096C2.49801 34.3723 2.33179 34.1916 2.18004 33.9314L1.96324 33.5557V22.9109V12.2734H4.9984C7.93961 12.2734 8.04078 12.2662 8.17808 12.1289C8.35875 11.9482 8.36597 11.6158 8.18531 11.399L8.04801 11.2256L5.00562 11.2039L1.96324 11.1822V8.49395C1.96324 6.03691 1.97769 5.77676 2.10055 5.50938C2.26676 5.14805 2.75094 4.72168 3.10504 4.62774C3.25679 4.58438 3.92886 4.55547 4.61539 4.54824L5.85113 4.54102L5.88004 5.56719ZM32.3148 28.6271C32.3148 28.6344 31.1007 29.8557 29.6265 31.3371L26.931 34.0254L26.9671 31.7635C27.0177 28.5332 26.8298 28.7283 29.93 28.6777C31.1007 28.6561 32.1197 28.6271 32.1919 28.6199C32.257 28.6127 32.3148 28.6127 32.3148 28.6271ZM32.8351 36.0777C32.6906 36.3234 32.5099 36.5186 32.2787 36.6631L31.9318 36.8799L17.5726 36.9016L3.21344 36.916L2.8232 36.7137C2.51969 36.5619 2.38238 36.4246 2.20172 36.1211C2.07164 35.9043 1.96324 35.6369 1.96324 35.5213V35.3117L2.20172 35.4563C2.83765 35.8537 2.26676 35.8393 14.7253 35.8176L26.2084 35.7959L26.6781 35.5646C27.09 35.3623 27.5091 34.9721 30.0746 32.3994L33.0013 29.4727L33.023 32.5873L33.0375 35.7092L32.8351 36.0777Z" fill="#95E158"/>
<path d="M4.96216 14.5064C4.61528 14.5932 4.42017 14.7232 4.27563 14.9689C4.14556 15.1785 4.1311 15.3447 4.1311 16.8262C4.1311 18.6184 4.15278 18.6979 4.60806 19.0014C4.79595 19.1242 4.96938 19.1387 6.4436 19.1387C7.94673 19.1387 8.08403 19.1242 8.30806 18.9941C8.7561 18.7195 8.82837 18.4232 8.82837 16.8262C8.82837 15.5037 8.82114 15.3881 8.66938 15.0918C8.38032 14.5281 8.22134 14.4775 6.58813 14.4631C5.81489 14.4559 5.08501 14.4775 4.96216 14.5064ZM7.72993 16.8045L7.74438 18.0547H6.47974H5.21509V16.79V15.5254L6.46528 15.5398L7.70825 15.5615L7.72993 16.8045Z" fill="#95E158"/>
<path d="M12.3333 14.5064C11.9864 14.5931 11.7913 14.7232 11.6467 14.9689C11.5167 15.1785 11.5022 15.3447 11.5022 16.8117C11.5022 18.5966 11.5311 18.734 11.9575 18.9941C12.167 19.1242 12.326 19.1386 13.8147 19.1386C16.1995 19.1386 16.1633 19.1748 16.1633 16.8261C16.1633 15.3953 16.1489 15.2507 16.0188 15.0195C15.7297 14.5281 15.5418 14.4775 13.9592 14.4631C13.186 14.4558 12.4561 14.4775 12.3333 14.5064ZM15.101 16.8045L15.1155 18.0547H13.8508H12.5862V16.79V15.5254L13.8364 15.5398L15.0793 15.5615L15.101 16.8045Z" fill="#95E158"/>
<path d="M19.6899 14.5065C19.3503 14.5932 19.1118 14.7667 18.9673 15.0413C18.8516 15.2436 18.8372 15.4749 18.8372 16.8262C18.8372 19.1749 18.8011 19.1387 21.1858 19.1387C23.5706 19.1387 23.4983 19.2038 23.4983 16.8118C23.4983 14.4704 23.5128 14.4848 21.3304 14.4632C20.5571 14.4559 19.8128 14.4776 19.6899 14.5065ZM22.4143 16.7901V18.0548H21.1497H19.885V16.8407C19.885 16.1686 19.9067 15.5977 19.9356 15.576C19.9573 15.5471 20.5282 15.5255 21.2003 15.5255H22.4143V16.7901Z" fill="#95E158"/>
<path d="M27.061 14.5064C26.7214 14.5931 26.4829 14.7666 26.3384 15.0412C26.2227 15.2435 26.2083 15.4748 26.2083 16.8261C26.2083 19.1748 26.1722 19.1386 28.5569 19.1386C30.0311 19.1386 30.2046 19.1242 30.3925 19.0013C30.8477 18.6978 30.8694 18.6183 30.8694 16.8261C30.8694 14.4631 30.8911 14.4847 28.7014 14.4631C27.9282 14.4558 27.1839 14.4775 27.061 14.5064ZM29.7854 16.79V18.0547H28.5208H27.2561V16.8406C27.2561 16.1685 27.2778 15.5976 27.3067 15.5759C27.3284 15.547 27.8993 15.5254 28.5714 15.5254H29.7854V16.79Z" fill="#95E158"/>
<path d="M4.89009 21.2127C4.65162 21.2777 4.35533 21.5234 4.23248 21.7475C4.14576 21.9281 4.12408 22.2389 4.14576 23.6191C4.16744 25.2668 4.16744 25.2668 4.3481 25.4619C4.7022 25.8377 4.80338 25.8594 6.45826 25.8594C8.19263 25.8594 8.36607 25.816 8.64791 25.3463C8.77799 25.1223 8.79244 24.9705 8.79244 23.4963C8.79244 21.9932 8.78521 21.8848 8.64068 21.6969C8.27935 21.2055 8.24322 21.1982 6.56666 21.1838C5.72115 21.1838 4.96959 21.191 4.89009 21.2127ZM7.73013 23.5252L7.74459 24.7754H6.47994H5.21529V23.5107V22.2461L6.46549 22.2605L7.70845 22.2822L7.73013 23.5252Z" fill="#95E158"/>
<path d="M12.1959 21.2343C12.0875 21.2704 11.9286 21.3571 11.8491 21.4294C11.5239 21.7184 11.5022 21.8702 11.5022 23.5468C11.5022 25.2884 11.5167 25.3751 11.9213 25.6786C12.102 25.8087 12.2465 25.8231 13.7208 25.8448C15.5418 25.8665 15.7081 25.8376 15.9971 25.3606C16.1561 25.1149 16.1633 25.0354 16.1633 23.5468C16.1633 22.1231 16.1489 21.9714 16.0188 21.7474C15.9393 21.61 15.7803 21.4366 15.6719 21.3499C15.4768 21.2054 15.3684 21.1981 13.9375 21.1837C13.092 21.1765 12.3116 21.1981 12.1959 21.2343ZM15.101 23.5251L15.1155 24.7753H13.8508H12.5862V23.5106V22.246L13.8364 22.2604L15.0793 22.2821L15.101 23.5251Z" fill="#95E158"/>
<path d="M19.4805 21.2633C19.1914 21.3934 18.9674 21.6824 18.8662 22.051C18.8156 22.2316 18.8012 22.8748 18.8156 23.7203C18.8373 25.0066 18.8517 25.1223 19.0035 25.3607C19.2853 25.8232 19.4588 25.8594 21.1859 25.8594C22.8986 25.8594 23.0865 25.816 23.3539 25.3896C23.484 25.1729 23.4984 25.0355 23.4984 23.5396C23.4984 22.0654 23.484 21.8992 23.3539 21.6896C23.0721 21.2199 22.9853 21.1982 21.2582 21.1838C20.0658 21.1693 19.6539 21.1838 19.4805 21.2633ZM22.4144 23.5107V24.7754H21.1498H19.8851V23.5613C19.8851 22.8893 19.9068 22.3184 19.9357 22.2967C19.9574 22.2678 20.5283 22.2461 21.2004 22.2461H22.4144V23.5107Z" fill="#95E158"/>
<path d="M27.061 21.3716C26.7214 21.4584 26.4829 21.6318 26.3384 21.9064C26.2227 22.1088 26.2083 22.34 26.2083 23.6914C26.2083 26.04 26.1722 26.0039 28.5569 26.0039C30.0311 26.0039 30.2046 25.9894 30.3925 25.8666C30.8477 25.5631 30.8694 25.4836 30.8694 23.6914C30.8694 21.3283 30.8911 21.35 28.7014 21.3283C27.9282 21.3211 27.1839 21.3427 27.061 21.3716ZM29.7854 23.6552V24.9199H28.5208H27.2561V23.7058C27.2561 23.0338 27.2778 22.4629 27.3067 22.4412C27.3284 22.4123 27.8993 22.3906 28.5714 22.3906H29.7854V23.6552Z" fill="#95E158"/>
<path d="M4.70923 28.0129C4.57192 28.0779 4.38403 28.2441 4.29731 28.3814C4.13833 28.6199 4.1311 28.685 4.1311 30.2314C4.1311 31.7779 4.13833 31.843 4.29731 32.0814C4.60083 32.5367 4.77427 32.5801 6.48696 32.5801C7.94673 32.5801 8.01899 32.5729 8.25024 32.4139C8.78501 32.0525 8.79224 32.0309 8.79224 30.2314C8.79224 28.432 8.78501 28.4104 8.25024 28.0418C8.01899 27.89 7.94673 27.8828 6.48696 27.8828C5.17896 27.8828 4.92603 27.9045 4.70923 28.0129ZM7.74438 30.2314V31.4961H6.47974H5.21509V30.2314V28.9668H6.47974H7.74438V30.2314Z" fill="#95E158"/>
<path d="M12.1165 27.9839C12.0008 28.0345 11.8202 28.1718 11.719 28.2802L11.5383 28.4753V30.2314V31.9947L11.7551 32.2187C12.0803 32.5511 12.3188 32.5945 13.9737 32.5656C15.6069 32.5439 15.6502 32.5294 16.0116 32.0452C16.1561 31.8574 16.1633 31.749 16.1633 30.2314C16.1633 28.432 16.1561 28.4103 15.6213 28.0417C15.3901 27.89 15.325 27.8827 13.8581 27.8827C12.7524 27.89 12.2754 27.9117 12.1165 27.9839ZM15.1155 30.2314V31.496H13.8508H12.5862V30.2314V28.9667H13.8508H15.1155V30.2314Z" fill="#95E158"/>
<path d="M19.3792 28.0418C18.9239 28.3525 18.8372 28.5477 18.8372 29.2559C18.8372 30.0146 18.9383 30.1953 19.3792 30.1953C19.7766 30.1953 19.885 30.0291 19.885 29.451V28.9668H21.1497H22.4143V30.2314V31.4961H21.1641H19.9139L19.8344 31.2793C19.6899 30.8891 19.0829 30.8963 18.9167 31.2937C18.7938 31.5756 18.8733 31.9514 19.1045 32.1971C19.4153 32.5439 19.6249 32.5801 21.1858 32.5801C22.754 32.5801 22.9491 32.5439 23.2815 32.1826L23.4622 31.9875V30.2314V28.4754L23.2815 28.2803C22.9491 27.9189 22.7612 27.8828 21.128 27.8828C19.6827 27.8828 19.6104 27.89 19.3792 28.0418Z" fill="#95E158"/>
</svg>
