<svg width="36" height="44" viewBox="0 0 36 44" fill="none" xmlns="http://www.w3.org/2000/svg">
<path d="M4.15561 0.16328C2.91811 0.558594 2.1017 1.54688 1.92982 2.86172C1.87826 3.23125 1.84389 10.9656 1.84389 21.8711L1.83529 40.2617L1.43139 40.5195C0.847011 40.8977 0.623574 41.3789 0.657949 42.1695C0.692324 42.9516 0.975917 43.407 1.66342 43.7594L2.11889 44H13.4798H24.8408L25.3134 43.768C25.9923 43.4156 26.2845 42.9602 26.3189 42.1695C26.3533 41.3789 26.1298 40.8977 25.5455 40.5195L25.1415 40.2617V33.1891C25.133 29.3047 25.1587 26.125 25.2017 26.125C25.365 26.125 25.9064 26.5805 26.0869 26.8727L26.2931 27.1992L26.3447 32.8711C26.3876 38.4055 26.3962 38.5602 26.5767 39.1102C27.0751 40.6227 28.347 41.7914 29.8767 42.1523C32.1369 42.6852 34.44 41.3617 35.2134 39.1102L35.4025 38.543L35.4283 24.5781C35.4455 16.4312 35.4197 10.3383 35.3767 9.95156C35.222 8.71406 35.1361 8.60234 32.197 5.64609C29.3697 2.81015 29.0775 2.57812 28.3212 2.57812C26.8259 2.57812 25.8892 4.27969 26.6798 5.54297C26.7744 5.68047 27.8915 6.84063 29.172 8.12109L31.4923 10.4414V11.3609V12.2891H31.1915C30.2806 12.2891 29.5415 12.7102 29.1462 13.4406C28.9572 13.7844 28.9572 13.8617 28.9314 17.4281C28.897 21.45 28.94 22.0172 29.3181 22.55C29.6619 23.0398 30.3408 23.375 30.9853 23.375H31.4923V30.7227V38.0617L31.3033 38.2422C31.0798 38.4484 30.7447 38.4656 30.504 38.2766C30.3322 38.1562 30.3322 38.0187 30.2806 32.5875C30.229 26.3742 30.2548 26.6234 29.5845 25.2656C29.3095 24.6898 29.0861 24.3891 28.5361 23.8391C27.4876 22.7992 26.3447 22.2492 24.9439 22.1117C24.222 22.0516 23.9642 22.1547 23.8439 22.593C23.8009 22.7648 23.758 23.882 23.758 25.068V27.2422H13.4884H3.21889V16.8438V6.44531H13.4884H23.758V13.2172C23.758 17.2906 23.7923 20.0922 23.8439 20.2727C24.0673 21.0633 24.9697 20.9344 25.09 20.0922C25.1158 19.8859 25.133 15.8727 25.1158 11.1719L25.09 2.62109L24.9009 2.15703C24.4798 1.12578 23.8009 0.472656 22.8384 0.171875C22.2884 0 22.0736 0 13.454 0.00859451C5.22982 0.00859451 4.60248 0.0171852 4.15561 0.16328ZM22.7353 1.52969C23.0275 1.67578 23.2939 1.90781 23.4572 2.13984C23.715 2.50078 23.715 2.51797 23.7408 3.83281L23.7665 5.15625H13.4884H3.21029L3.23607 3.83281C3.26186 2.51797 3.26186 2.50078 3.51967 2.13984C3.68295 1.90781 3.94936 1.67578 4.24154 1.52969L4.69701 1.28906H13.4884H22.2798L22.7353 1.52969ZM31.1572 6.41953C32.7642 8.03516 33.7783 9.11797 33.89 9.3414C34.0533 9.65937 34.0705 9.85703 34.0705 11V12.2891H33.4775H32.8845L32.8501 11.1289L32.8244 9.96875L30.315 7.45937C28.9314 6.07578 27.7712 4.84687 27.7283 4.72656C27.565 4.29688 27.883 3.86719 28.347 3.86719C28.5705 3.86719 28.94 4.20234 31.1572 6.41953ZM34.0705 17.832V22.0859H32.3689C30.7705 22.0859 30.6501 22.0773 30.4783 21.9141L30.2892 21.7336V17.8406C30.2892 14.2398 30.2978 13.9391 30.4439 13.8187C30.6845 13.6039 30.779 13.5953 32.4634 13.5867L34.0705 13.5781V17.832ZM34.0705 30.8945C34.0705 38.2336 34.0705 38.4141 33.8986 38.8781C33.5376 39.832 32.8244 40.5109 31.8447 40.8203C31.1572 41.0352 30.6244 41.0352 29.9369 40.8203C28.9572 40.5109 28.2439 39.832 27.883 38.8781C27.7197 38.4227 27.7111 38.225 27.7111 33.275C27.7111 30.4562 27.6681 27.8609 27.6251 27.5172C27.4705 26.3227 26.6798 25.2914 25.6314 24.9047L25.133 24.7242V24.0883V23.4438L25.4595 23.4953C26.0095 23.5984 26.9634 24.1055 27.4705 24.5609C28.0634 25.1109 28.433 25.6781 28.708 26.443L28.9142 27.0273V32.2695C28.9142 35.2773 28.9486 37.7352 29.0001 38.0273C29.1119 38.7062 29.4298 39.1531 30.0228 39.4625C30.633 39.7805 31.1486 39.7805 31.7587 39.4625C32.3517 39.1531 32.6697 38.7062 32.7814 38.0273C32.833 37.718 32.8673 34.6586 32.8673 30.4391V23.375H33.4689H34.0705V30.8945ZM23.758 34.332V40.1328H13.4884H3.21889V34.332V28.5312H13.4884H23.758V34.332ZM24.858 41.5938C25.1158 41.8344 25.1158 42.2984 24.858 42.5391C24.6689 42.7109 24.6259 42.7109 13.4884 42.7109C2.35092 42.7109 2.30795 42.7109 2.11889 42.5391C1.99857 42.4187 1.92982 42.2555 1.92982 42.0664C1.92982 41.8773 1.99857 41.7141 2.11889 41.5938C2.30795 41.4219 2.35092 41.4219 13.4884 41.4219C24.6259 41.4219 24.6689 41.4219 24.858 41.5938Z" fill="#FDBE0C"/>
<path d="M4.73989 7.8548C4.65396 7.92355 4.55083 8.10402 4.50786 8.25871C4.39614 8.64542 4.39614 19.8861 4.50786 20.2728C4.66255 20.8228 4.06958 20.7884 13.4883 20.7884C22.9071 20.7884 22.3141 20.8228 22.4688 20.2728C22.5805 19.8861 22.5805 8.64542 22.4688 8.25871C22.3141 7.70871 22.9071 7.74308 13.4883 7.74308C6.38989 7.74308 4.8688 7.76027 4.73989 7.8548ZM21.1797 14.2657V19.5079H13.4883H5.79692V14.2657V9.02355H13.4883H21.1797V14.2657Z" fill="#FDBE0C"/>
<path d="M7.31821 22.2062C7.07759 22.3953 7.00024 22.8164 7.00024 24.0195C7.00024 25.2226 7.07759 25.6437 7.31821 25.8328C7.55024 26.0046 19.4268 26.0046 19.6588 25.8328C19.8995 25.6437 19.9768 25.2226 19.9768 24.0195C19.9768 22.8164 19.8995 22.3953 19.6588 22.2062C19.4268 22.0343 7.55024 22.0343 7.31821 22.2062ZM10.8674 24.0195V24.664H9.62134H8.37524V24.0195V23.375H9.62134H10.8674V24.0195ZM14.7346 24.0195V24.664H13.4885H12.2424V24.0195V23.375H13.4885H14.7346V24.0195ZM18.6018 24.0195V24.664H17.3557H16.1096V24.0195V23.375H17.3557H18.6018V24.0195Z" fill="#FDBE0C"/>
</svg>
