<svg width="28" height="32" viewBox="0 0 28 32" fill="none" xmlns="http://www.w3.org/2000/svg">
<path d="M13.2128 0.11895C12.7267 0.269196 12.5058 0.401766 12.0904 0.772963C11.5424 1.26789 11.2949 1.84236 11.2331 2.76151L11.1801 3.53925L10.5172 3.7602C7.42391 4.80308 4.85206 7.38378 3.80033 10.5036C3.36727 11.8116 3.34076 12.0237 3.27006 16.3013C3.20819 19.9867 3.18168 20.4463 3.00492 21.2417C2.64256 22.9298 1.92668 24.4499 0.839609 25.8463C0.123732 26.7743 0 27.0218 0 27.5874C0.00883799 28.4624 0.556793 29.1959 1.36105 29.4169C1.62619 29.4964 5.08184 29.5141 14.185 29.4964L26.6465 29.4699L27.0619 29.2224C27.5657 28.9308 27.9104 28.3828 27.9899 27.773C28.0518 27.2251 27.8308 26.6948 27.2829 26.0408C26.4521 25.0686 25.7185 23.7341 25.2855 22.4437C24.8347 21.065 24.8171 20.8617 24.7464 16.5223C24.6668 12.006 24.6491 11.8204 24.0482 10.1501C22.9788 7.20702 20.4158 4.75006 17.3666 3.72485L16.8364 3.53925L16.7745 2.8057C16.7215 2.23123 16.6508 1.94841 16.421 1.49768C15.82 0.322224 14.4501 -0.26992 13.2128 0.11895ZM14.7594 1.25021C15.3162 1.53303 15.6432 2.04563 15.7051 2.69964L15.7493 3.22108H14.017H12.2848V2.79686C12.2848 1.48 13.5928 0.666906 14.7594 1.25021ZM16.3945 4.53794C18.0914 4.97984 19.7176 5.92551 20.9284 7.18934C22.2541 8.56807 23.0318 10.0175 23.4825 11.9265C23.5886 12.3772 23.6328 13.4113 23.6858 16.5664C23.7477 20.1547 23.7742 20.7291 23.9333 21.4273C24.3752 23.4247 25.2148 25.1658 26.5051 26.7655C26.7703 27.0925 26.9559 27.4195 26.9559 27.5432C26.9559 27.8614 26.7084 28.2768 26.4609 28.3652C26.3195 28.4182 21.547 28.4535 13.911 28.4535H1.57316L1.31686 28.1972C0.927989 27.7995 0.954503 27.3841 1.42292 26.8185C2.40393 25.6431 3.18168 24.2201 3.66776 22.7707C4.19804 21.1534 4.25107 20.6054 4.32178 16.2129C4.38364 12.5717 4.41016 12.174 4.57808 11.5553C5.55026 7.9936 8.21933 5.36872 11.7457 4.50259C12.7355 4.25513 12.8328 4.24629 14.2292 4.28164C15.2544 4.29932 15.6874 4.35235 16.3945 4.53794Z" fill="#FF77D9"/>
<rect x="11" y="30.9998" width="6" height="1" fill="#FF77D9"/>
</svg>
