<svg width="29" height="37" viewBox="0 0 29 37" fill="none" xmlns="http://www.w3.org/2000/svg">
<path d="M1.47157 0.931816C1.29402 1.03834 1.07209 1.24252 0.983319 1.40231C0.823528 1.66863 0.81465 2.14801 0.788018 18.3669L0.770264 35.0562L0.965564 35.4557C1.11648 35.7486 1.27627 35.9084 1.56922 36.0593L1.95982 36.2546H14.8852H27.8106L28.2012 36.0505C28.4941 35.9084 28.6539 35.7486 28.8048 35.4557L29.0001 35.0651V22.5925V10.111L24.3218 5.43261L19.6345 0.745392H10.7129C1.82666 0.745392 1.79115 0.754269 1.47157 0.931816ZM18.9688 6.10729C18.9688 9.9778 18.9865 10.5104 19.1108 10.6347C19.2351 10.759 19.7677 10.7768 23.6382 10.7768H28.0236V22.9209C28.0236 32.251 27.997 35.0917 27.9171 35.1716C27.7662 35.3225 2.00421 35.3225 1.8533 35.1716C1.70238 35.0207 1.70238 1.97934 1.8533 1.82842C1.93319 1.74853 3.9661 1.7219 10.4643 1.7219H18.9688V6.10729ZM23.7447 9.87127C21.7296 9.88015 20.0251 9.87127 19.9719 9.84464C19.8831 9.818 19.8565 8.97466 19.8565 6.05402V2.29892L23.6293 6.07178L27.4022 9.84464L23.7447 9.87127Z" fill="#8A8AFF"/>
<path d="M4.05434 10.0574C3.92118 10.306 3.94781 10.4658 4.12536 10.6256C4.27627 10.7587 4.81779 10.7765 10.082 10.7765C13.9082 10.7765 15.9322 10.741 16.0476 10.6877C16.2429 10.5812 16.2784 10.164 16.1097 9.99529C16.0298 9.91539 14.5651 9.88876 10.0732 9.88876C4.31178 9.88876 4.14311 9.89764 4.05434 10.0574Z" fill="#8A8AFF"/>
<path d="M4.05434 13.254C3.92118 13.5026 3.94781 13.6624 4.12536 13.8222C4.27627 13.9553 4.71126 13.9731 8.50187 13.9731C13.1625 13.9731 13.0559 13.982 13.0027 13.4404L12.976 13.1297L8.56401 13.1031C4.26739 13.0853 4.15199 13.0853 4.05434 13.254Z" fill="#8A8AFF"/>
<path d="M18.7201 15.8898C18.5248 16.0229 18.5248 16.0407 18.5248 18.4198V20.8078H16.3588C14.6721 20.8078 14.1749 20.8344 14.095 20.9232C14.0418 21.0031 13.9885 21.6689 13.9796 22.7253L13.953 24.4031L11.8313 24.4297C10.4642 24.4386 9.66526 24.483 9.59424 24.5451C9.50547 24.6162 9.46996 25.0778 9.45221 26.3472L9.42557 28.0428L7.25063 28.0694C5.33313 28.0872 5.06682 28.105 4.96916 28.2381C4.88039 28.3446 4.85376 28.9128 4.85376 30.3243C4.85376 32.1441 4.86264 32.2684 5.03131 32.4371C5.20885 32.6146 5.32426 32.6146 14.4057 32.6146C20.5666 32.6146 23.6559 32.588 23.7713 32.5259C23.94 32.4371 23.94 32.2507 23.94 24.1812C23.94 16.1117 23.94 15.9253 23.7713 15.8365C23.6648 15.7832 22.6972 15.7477 21.259 15.7477C19.2883 15.7477 18.8888 15.7655 18.7201 15.8898ZM23.0522 24.1812V31.6381H21.2324H19.4125V24.1812V16.7242H21.2324H23.0522V24.1812ZM18.5248 26.6668V31.6381H16.705H14.8851V26.6668V21.6955H16.705H18.5248V26.6668ZM13.9974 28.4867V31.6381H12.1775H10.3577V28.4867V25.3352H12.1775H13.9974V28.4867ZM9.46996 30.3065V31.6381H7.65011H5.83026V30.3065V28.9749H7.65011H9.46996V30.3065Z" fill="#8A8AFF"/>
<path d="M4.16975 16.3253C3.9123 16.5117 3.90343 16.8491 4.16087 17.0266C4.32954 17.1509 4.72902 17.1686 6.71753 17.1686C8.54626 17.1686 9.11441 17.142 9.23869 17.0532C9.42511 16.9201 9.46062 16.5028 9.30083 16.3431C9.22094 16.2632 8.48412 16.2276 6.77968 16.2099C4.68463 16.1921 4.33841 16.201 4.16975 16.3253Z" fill="#8A8AFF"/>
</svg>
