<svg width="25" height="38" viewBox="0 0 25 38" fill="none" xmlns="http://www.w3.org/2000/svg">
<path d="M2.14647 1.0307C1.58896 1.20447 1.19074 1.55201 0.944567 2.0878C0.618751 2.76839 0.770798 3.55759 1.32107 4.10786C1.69756 4.4916 2.14647 4.65813 2.7619 4.65813H3.2108L3.25424 5.90347C3.34837 8.50276 3.85519 10.5807 4.94125 12.7673C5.81009 14.5123 6.57033 15.5838 8.13425 17.2419C9.1841 18.3569 9.38683 18.7117 9.38683 19.5009C9.38683 20.2828 9.1841 20.6448 8.17045 21.7237C6.55585 23.4324 5.81009 24.4822 4.94125 26.2344C3.85519 28.421 3.34837 30.499 3.25424 33.0983L3.2108 34.3436H2.7619C2.14647 34.3436 1.69756 34.5101 1.32107 34.8939C0.423261 35.7844 0.669433 37.2253 1.82065 37.848L2.11027 38H12.5002H22.8901L23.1797 37.848C24.3309 37.2253 24.5771 35.7844 23.6793 34.8939C23.3028 34.5101 22.8539 34.3436 22.2385 34.3436H21.7896L21.7461 33.0983C21.652 30.499 21.1452 28.421 20.0591 26.2344C19.1903 24.4822 18.4445 23.4324 16.8299 21.7237C15.8163 20.6448 15.6135 20.2828 15.6135 19.5009C15.6135 18.7189 15.8163 18.3569 16.8299 17.2781C18.4445 15.5694 19.1903 14.5195 20.0591 12.7673C21.1452 10.5807 21.652 8.50276 21.7461 5.90347L21.7896 4.65813H22.2385C22.8539 4.65813 23.3028 4.4916 23.6793 4.10786C24.5771 3.21729 24.3309 1.77646 23.1797 1.15379L22.8901 1.00174L12.6088 0.987263C6.95407 0.980022 2.24783 1.00174 2.14647 1.0307ZM22.7887 2.40637C23.0784 2.69599 23.0494 3.07973 22.7163 3.33314C22.5498 3.46347 2.45056 3.46347 2.28403 3.33314C1.95098 3.07973 1.92202 2.69599 2.21163 2.40637L2.4216 2.1964H12.5002H22.5788L22.7887 2.40637ZM20.537 5.36044C20.537 7.67012 19.994 10.0667 19.0238 12.0795C18.2346 13.7158 17.4888 14.7729 16.0769 16.2499C14.6433 17.7632 14.4261 18.1904 14.4261 19.5009C14.4261 20.8114 14.6433 21.2386 16.0769 22.7518C17.4888 24.2288 18.2346 25.2859 19.0238 26.9222C19.994 28.9351 20.537 31.3316 20.537 33.6341V34.3436H12.5002H4.46338V33.6341C4.46338 31.3316 5.00641 28.9351 5.97662 26.9222C6.76582 25.2787 7.43917 24.3302 9.02481 22.6142C10.0674 21.4847 10.2991 21.1517 10.5091 20.4132C10.6756 19.8412 10.6322 18.8275 10.4077 18.2628C10.176 17.6546 9.89366 17.2708 8.92345 16.2499C7.51158 14.7729 6.76582 13.7158 5.97662 12.0795C5.00641 10.0812 4.46338 7.65564 4.46338 5.36768V4.65813H12.5002H20.537V5.36044ZM22.7163 35.6686C23.0494 35.922 23.0784 36.3058 22.7887 36.5954L22.5788 36.8053H12.5002H2.4216L2.21163 36.5954C1.92202 36.3058 1.95098 35.922 2.28403 35.6686C2.45056 35.5383 22.5498 35.5383 22.7163 35.6686Z" fill="#95E158"/>
<path d="M9.53195 9.32105C8.66311 9.51654 8.01147 10.0668 7.70014 10.8705C7.50465 11.3628 7.54085 11.5873 7.92459 12.2462C8.49658 13.2453 9.11925 14.0635 10.0967 15.0989C11.1176 16.1849 11.4434 16.6917 11.6968 17.6185C11.7837 17.9154 11.8489 18.3208 11.8489 18.5236C11.8489 19.2041 12.2254 19.6241 12.7032 19.4576C12.9639 19.3707 13.1521 18.9797 13.1521 18.5236C13.1521 18.0312 13.3983 17.1913 13.7169 16.5687C13.9341 16.1415 14.2237 15.8157 15.5994 14.4328C17.6918 12.3403 17.9815 11.9059 17.6846 11.3339C17.4891 10.9501 17.2429 10.8777 15.9107 10.8053C13.9268 10.704 12.7829 10.4361 11.7547 9.83512C10.828 9.28485 10.2487 9.15453 9.53195 9.32105ZM10.7701 10.704C12.3412 11.58 13.4997 11.9131 15.3822 12.0217L16.2003 12.0652L14.6219 13.6653C13.4779 14.8165 12.9711 15.3885 12.7901 15.7143C12.6525 15.9605 12.5222 16.1632 12.5005 16.1632C12.4788 16.1632 12.3485 15.9677 12.2109 15.7215C12.0733 15.4754 11.5737 14.8672 11.0959 14.3676C10.0967 13.3105 9.74192 12.8616 9.20613 11.9927C8.84411 11.4063 8.82239 11.3484 8.91652 11.1818C9.01788 10.9791 9.26406 10.7329 9.49575 10.6098C9.76364 10.4578 10.4225 10.5085 10.7701 10.704Z" fill="#95E158"/>
<path d="M12.2107 20.8258C11.9645 20.9489 11.8486 21.2095 11.8486 21.6584C11.8486 22.1363 11.9934 22.4332 12.2831 22.5273C12.5365 22.6214 12.6885 22.5852 12.9202 22.3752C13.0578 22.2449 13.0795 22.158 13.0795 21.6802C13.0723 21.1082 13.0143 20.9634 12.7392 20.8186C12.5437 20.71 12.4351 20.71 12.2107 20.8258Z" fill="#95E158"/>
<path d="M12.0731 24.0188C11.769 24.3374 11.7763 25.228 12.0804 25.5103C12.3048 25.7131 12.6813 25.6986 12.8985 25.4741C13.0578 25.3221 13.0795 25.2352 13.0795 24.7501C13.0795 24.265 13.0578 24.1781 12.8985 24.0261C12.6596 23.7799 12.2976 23.7799 12.0731 24.0188Z" fill="#95E158"/>
<path d="M10.5089 26.9584C9.95139 27.0381 9.4518 27.2046 8.95222 27.487C8.44539 27.7621 7.03352 29.1957 6.55566 29.9125C6.13572 30.5352 5.8461 31.3895 5.78818 32.1643C5.75198 32.6928 5.75922 32.7218 5.94747 32.8955L6.14296 33.0765H12.5H18.857L19.0525 32.8955C19.2408 32.7218 19.248 32.6928 19.2118 32.1643C19.1466 31.3823 18.8643 30.5352 18.4371 29.9053C18.2416 29.6084 17.6913 28.9785 17.228 28.5079C16.3229 27.5956 15.8812 27.2987 15.0341 27.0598C14.5707 26.9222 11.2547 26.8498 10.5089 26.9584ZM14.2956 28.1893C15.2513 28.3269 15.9247 28.8047 17.0759 30.1514C17.409 30.5352 17.7999 31.2664 17.9013 31.6791L17.9447 31.8819H12.5H7.05524L7.09868 31.6791C7.27245 30.9624 7.74308 30.2745 8.78569 29.2174C9.37216 28.631 9.98759 28.2834 10.6392 28.1893C11.1822 28.1096 13.7598 28.1096 14.2956 28.1893Z" fill="#95E158"/>
</svg>
