<svg width="33" height="33" viewBox="0 0 33 33" fill="none" xmlns="http://www.w3.org/2000/svg">
<path d="M24.8855 0.109576C24.763 0.206256 24.7244 0.302936 24.7244 0.483405C24.7244 0.80567 24.9177 0.966803 25.3238 0.966803C25.4849 0.966803 25.8265 0.99903 26.0714 1.03126C28.7205 1.41153 30.8667 3.20333 31.6982 5.73633C31.8722 6.25196 32.0333 7.18653 32.0333 7.6377C32.0333 8.08243 32.1816 8.27579 32.5167 8.27579C32.6972 8.27579 32.7939 8.23712 32.8906 8.11465C33.0066 7.97286 33.013 7.90196 32.9744 7.33477C32.723 3.42891 29.5841 0.277154 25.7041 0.0257874C25.0982 -0.0128841 25.0273 -0.00643921 24.8855 0.109576Z" fill="#24ABF5"/>
<path d="M18.5949 2.21074C18.4209 2.25586 18.1244 2.37187 17.9439 2.475C17.699 2.6039 15.5914 4.68574 9.78413 10.493C2.85542 17.4346 1.90796 18.4078 1.55347 18.9363C0.580227 20.4123 0.103274 21.8883 0.0194846 23.6543C-0.0514139 25.2656 0.264406 26.7029 1.00562 28.1725C2.25601 30.6281 4.49253 32.2846 7.31558 32.8453C8.09546 33 9.79058 33.0064 10.6091 32.8518C11.8144 32.6326 12.9939 32.1492 14.0638 31.4467C14.5923 31.0922 15.572 30.1447 22.5136 23.2096C29.4101 16.326 30.3834 15.327 30.5574 14.9853C30.8023 14.4826 30.8861 13.9734 30.8023 13.4578C30.6798 12.7037 30.5187 12.5039 28.308 10.2932C26.0908 8.07598 26.0843 8.07598 25.7492 8.41113C25.414 8.73984 25.4205 8.74629 27.6441 10.9828C29.2683 12.6264 29.713 13.1033 29.7775 13.3096C29.9 13.677 29.8742 14.199 29.7195 14.5213C29.5197 14.9402 14.2572 30.1512 13.5804 30.6088C12.1496 31.5756 10.6736 32.0332 8.95913 32.0332C6.74195 32.0332 4.78902 31.2146 3.2357 29.642C2.38491 28.7848 1.76616 27.76 1.38589 26.5805C0.722024 24.5566 0.883156 22.2879 1.81773 20.3994C2.3978 19.2393 2.28179 19.3617 10.4673 11.1633C15.7396 5.88457 18.2919 3.3709 18.466 3.28711C18.872 3.09375 19.1556 3.06797 19.5746 3.19043C19.9355 3.29355 20.0064 3.35801 22.0173 5.35605C23.5062 6.83848 24.125 7.41211 24.2281 7.41211C24.415 7.41211 24.7501 7.07695 24.7501 6.89004C24.7501 6.78047 24.2087 6.20039 22.7714 4.75019C21.6757 3.65449 20.6703 2.68125 20.5285 2.58457C19.9742 2.2043 19.2136 2.05605 18.5949 2.21074Z" fill="#24ABF5"/>
<path d="M24.2346 2.9004C24.0735 3.06153 24.067 3.35802 24.2217 3.54493C24.3184 3.66739 24.4344 3.69962 24.8856 3.73829C25.5623 3.80275 25.962 3.89943 26.4647 4.12501C27.4702 4.57618 28.3016 5.36896 28.7657 6.33575C29.0944 7.01251 29.1911 7.34767 29.262 8.11466C29.3006 8.56583 29.3329 8.68185 29.4553 8.77853C29.6422 8.93321 29.9387 8.92677 30.0998 8.76564C30.3641 8.50138 30.2223 7.27677 29.8098 6.2713C29.2555 4.88556 28.0373 3.69962 26.6194 3.13888C25.6977 2.77794 24.4795 2.65548 24.2346 2.9004Z" fill="#24ABF5"/>
<path d="M17.7377 6.48397C16.8353 6.9287 16.4679 8.01151 16.9127 8.91385C17.4541 10.0224 18.9172 10.2803 19.8066 9.42303C20.2256 9.02342 20.3351 8.75272 20.3351 8.12108C20.3351 7.50878 20.2256 7.23163 19.8388 6.83846C19.3168 6.3035 18.408 6.14882 17.7377 6.48397ZM19.0396 7.41854C19.6906 7.92772 19.3877 8.95897 18.582 8.95897C18.1759 8.95897 17.931 8.81073 17.7763 8.46913C17.5894 8.03729 17.7248 7.58612 18.105 7.37987C18.3629 7.23807 18.8334 7.25741 19.0396 7.41854Z" fill="#24ABF5"/>
<path d="M20.8958 9.67441C20.4768 9.88066 20.1803 10.1965 20.0063 10.609C19.8645 10.9506 19.871 11.6467 20.0321 12.0012C20.5542 13.1871 22.0881 13.49 22.9905 12.5877C23.345 12.2332 23.4803 11.9109 23.5126 11.3631C23.5319 10.9764 23.5126 10.8475 23.3836 10.5574C22.9325 9.58417 21.8497 9.19746 20.8958 9.67441ZM22.346 10.7185C22.52 10.9184 22.5586 11.0021 22.5586 11.2535C22.5586 11.4146 22.5135 11.6273 22.4555 11.7305C22.0559 12.4008 20.9602 12.1816 20.8764 11.4082C20.8442 11.0795 20.8958 10.9248 21.1407 10.6863C21.392 10.435 21.4114 10.4285 21.7659 10.4543C22.0817 10.4801 22.1526 10.5123 22.346 10.7185Z" fill="#24ABF5"/>
<path d="M14.6568 9.64218C14.0509 9.86132 13.5611 10.5123 13.4902 11.1826C13.3484 12.5232 14.7857 13.5674 16.0232 13.026C17.4218 12.4072 17.525 10.5316 16.1972 9.75175C15.8298 9.53905 15.0757 9.48105 14.6568 9.64218ZM15.7783 10.6348C16.1585 10.8668 16.281 11.3953 16.049 11.7756C15.875 12.0656 15.6494 12.1945 15.3078 12.1945C14.6632 12.1945 14.2636 11.5693 14.5408 10.9892C14.7535 10.5316 15.3335 10.3641 15.7783 10.6348Z" fill="#24ABF5"/>
<path d="M24.2088 12.7617C23.0679 13.2193 22.7006 14.7211 23.4998 15.6492C24.009 16.2422 24.9113 16.442 25.6332 16.1197C27.0189 15.5074 27.0511 13.5094 25.6912 12.8133C25.3109 12.6135 24.6213 12.5941 24.2088 12.7617ZM25.2658 13.6963C25.7041 13.9219 25.8588 14.4955 25.5945 14.9273C25.472 15.1271 25.1176 15.3398 24.8984 15.3398C24.6599 15.3334 24.241 15.0949 24.1443 14.8951C23.7511 14.1475 24.5246 13.316 25.2658 13.6963Z" fill="#24ABF5"/>
<path d="M17.8988 12.7875C17.2736 13.0131 16.8224 13.5223 16.6935 14.1539C16.5195 14.9789 16.932 15.7781 17.7247 16.1842C17.9439 16.2938 18.1243 16.3324 18.4659 16.3324C19.2329 16.3324 19.7679 16.0037 20.103 15.327C20.4704 14.5986 20.3415 13.8188 19.7614 13.2387C19.2587 12.7359 18.5368 12.5619 17.8988 12.7875ZM18.93 13.793C19.5488 14.1668 19.4198 15.1078 18.7109 15.3463C18.0921 15.5461 17.454 14.908 17.6603 14.2828C17.7312 14.0701 17.9954 13.7736 18.1759 13.7092C18.3822 13.6318 18.7366 13.6705 18.93 13.793Z" fill="#24ABF5"/>
<path d="M12.214 15.082C11.4728 15.1916 10.4351 15.6041 10.3513 15.8232C10.2804 16.0102 10.3062 16.1584 10.448 16.3324C10.6155 16.5451 10.8282 16.5516 11.2987 16.3453C12.4138 15.849 13.6255 15.8877 14.7599 16.442C15.7267 16.919 16.5388 17.8922 16.8482 18.9428C17.2929 20.451 16.745 22.2106 15.5269 23.1967C14.7534 23.8154 13.9349 24.1055 12.923 24.1055C11.7821 24.1055 10.8991 23.7381 10.0806 22.9195C9.25558 22.0945 8.89464 21.2244 8.89464 20.0578C8.89464 19.3746 9.00421 18.8654 9.2878 18.2725C9.51339 17.7955 9.51339 17.7311 9.33936 17.5055C9.16534 17.2863 8.84308 17.2734 8.64972 17.4861C8.44991 17.6924 8.20499 18.2789 8.0503 18.8912C7.8505 19.6647 7.89561 20.8828 8.14698 21.624C8.70772 23.2805 10.0355 24.518 11.6983 24.9434C12.388 25.1174 13.4579 25.1174 14.154 24.9434C15.9523 24.4793 17.2864 23.1773 17.8021 21.3598C17.9116 20.9602 17.9439 20.6895 17.9439 20.0772C17.9439 18.9492 17.6925 18.1113 17.0931 17.2283C16.7773 16.7578 15.9974 16.0295 15.5075 15.733C14.5665 15.1723 13.3097 14.9209 12.214 15.082Z" fill="#24ABF5"/>
<path d="M21.0698 15.9586C20.6573 16.081 20.161 16.5387 19.9806 16.964C19.6647 17.6924 19.8516 18.5109 20.4446 19.0459C21.347 19.858 22.7134 19.5873 23.3128 18.4787C23.3966 18.324 23.4288 18.1242 23.4288 17.6924C23.4288 17.1767 23.4095 17.0801 23.2548 16.8094C22.7907 16.023 21.9335 15.6879 21.0698 15.9586ZM22.0108 16.9125C22.6554 17.1832 22.6425 18.208 21.9979 18.4787C21.405 18.7236 20.8056 18.324 20.8056 17.6924C20.8056 17.3508 20.9345 17.1252 21.2245 16.9512C21.4694 16.7965 21.7079 16.79 22.0108 16.9125Z" fill="#24ABF5"/>
<path d="M12.2786 17.7439C11.8016 17.9051 11.4922 18.1049 11.1635 18.4594C9.93247 19.8064 10.6157 21.9721 12.401 22.4104C12.7813 22.5006 12.9102 22.507 13.2905 22.4426C13.8512 22.3459 14.1735 22.1783 14.6053 21.7787C15.8364 20.6057 15.4497 18.5432 13.8577 17.8406C13.4903 17.673 12.6395 17.6279 12.2786 17.7439ZM13.587 18.7945C14.1799 19.091 14.4893 19.7807 14.3153 20.4316C14.0704 21.3469 13.0004 21.7852 12.2077 21.3018C11.7501 21.0182 11.5051 20.5928 11.5051 20.0836C11.518 18.975 12.6008 18.3047 13.587 18.7945Z" fill="#24ABF5"/>
</svg>
