<svg width="43" height="29" viewBox="0 0 43 29" fill="none" xmlns="http://www.w3.org/2000/svg">
<path d="M1.62093 0.256302C0.831475 0.508255 0.26878 1.07935 0.0840146 1.82681C0.0252255 2.08716 3.02261e-05 5.92525 0.0168271 14.71L0.0420224 27.2237L0.293976 27.6772C0.436749 27.9292 0.697101 28.2399 0.873468 28.3743C1.59573 28.895 0.193193 28.8614 21.5 28.8614C42.8069 28.8614 41.4043 28.895 42.1266 28.3743C42.303 28.2399 42.5717 27.9292 42.7061 27.6772L42.958 27.2237V14.5001V1.77642L42.7061 1.3229C42.5717 1.07095 42.303 0.760208 42.1266 0.625834C41.4043 0.105129 42.8153 0.138723 21.4664 0.147121C5.67737 0.147121 1.90648 0.172318 1.62093 0.256302ZM39.8086 1.93599C39.7414 1.99478 35.8194 4.94263 31.0994 8.47837C25.3465 12.7952 22.4155 14.9368 22.1971 14.9956C21.7856 15.1131 21.2145 15.1131 20.803 14.9956C20.5846 14.9368 17.6535 12.7952 11.9006 8.47837C7.18069 4.94263 3.25862 1.99478 3.19144 1.93599C3.09066 1.83521 5.82854 1.81841 21.5 1.81841C37.1715 1.81841 39.9094 1.83521 39.8086 1.93599ZM10.75 9.67095C15.6211 13.3243 19.77 16.3813 19.9715 16.4569C20.1731 16.5409 20.593 16.6501 20.9121 16.7004C21.6176 16.818 22.4826 16.7004 23.1377 16.3981C23.3645 16.2889 27.5469 13.2067 32.418 9.55337L41.2784 2.90181L41.3035 8.65474C41.3119 11.8209 41.3119 17.0028 41.3035 20.1606L41.2784 25.9135L36.6172 20.1606C34.0557 16.9944 31.8973 14.3657 31.8217 14.3237C31.5949 14.2061 31.175 14.2313 30.9483 14.3825C30.7131 14.542 30.5535 14.9452 30.6207 15.2307C30.6543 15.3483 32.8043 18.0778 35.4078 21.2944L40.1446 27.1397L30.8223 27.1649C25.6908 27.1733 17.3092 27.1733 12.1778 27.1649L2.8555 27.1397L7.59222 21.2944C10.1957 18.0778 12.3457 15.3483 12.3793 15.2307C12.4465 14.9452 12.2869 14.542 12.0518 14.3825C11.8418 14.2481 11.4555 14.2061 11.2119 14.2985C11.1448 14.3321 8.99476 16.9272 6.45003 20.0766C3.9053 23.2176 1.7889 25.8295 1.7553 25.8715C1.71331 25.9219 1.67972 20.9668 1.67972 14.4245C1.67972 5.22818 1.70491 2.91021 1.7889 2.9606C1.83929 3.00259 5.87894 6.01763 10.75 9.67095Z" fill="#FDBE0C"/>
</svg>
