<svg width="35" height="33" viewBox="0 0 35 33" fill="none" xmlns="http://www.w3.org/2000/svg">
<path d="M28.581 0.237309C27.0498 0.408207 25.8125 0.777348 24.4384 1.46094C23.2968 2.02832 22.4423 2.62989 21.5058 3.51172C19.9951 4.94043 9.96676 14.6475 9.23532 15.3926C7.1777 17.4844 5.81735 19.7129 4.93551 22.4473C4.55953 23.6025 4.36813 24.5801 4.03317 26.959C3.87594 28.0664 3.74606 28.9756 3.73922 28.9824C3.73239 28.9893 2.93942 29.584 1.98239 30.3018C1.02536 31.0195 0.184535 31.6963 0.123012 31.7988C-0.0478868 32.0586 -0.027379 32.3115 0.170863 32.5508C0.369105 32.79 0.649379 32.8721 0.895473 32.7764C1.04586 32.7217 3.26754 31.0811 4.25875 30.3018L4.59371 30.0352H8.16891C12.1201 30.0352 12.6875 29.9941 14.1845 29.6182C15.0937 29.3926 16.3037 28.9277 17.0898 28.5176C17.8281 28.1279 19.0244 27.3145 19.6191 26.8018C20.0976 26.3984 23.2421 23.4043 26.6123 20.1709L28.0273 18.8105V18.5098C28.0273 18.0039 27.5556 17.6689 27.1386 17.874C27.0361 17.9287 26.1748 18.708 25.2246 19.6104C24.0966 20.6904 23.4267 21.2783 23.2627 21.3398C22.8867 21.4697 21.6357 21.6816 20.6718 21.7705C19.6806 21.8594 18.2588 21.8184 17.1855 21.6611C16.3857 21.5518 15.1757 21.2852 15.1757 21.2168C15.1757 21.1963 15.6132 20.7793 16.1464 20.2939C19.872 16.8897 24.2129 12.5557 27.8086 8.65235C28.6699 7.72266 28.7109 7.66114 28.7109 7.3877C28.7109 7.03223 28.5742 6.82715 28.2734 6.72461C28.0957 6.66993 27.9931 6.66993 27.8359 6.73829C27.7197 6.78614 27.1728 7.31934 26.6191 7.9209C23.8574 10.9356 17.9375 16.9102 17.7187 16.9102C17.6435 16.9102 17.4931 16.3223 17.3496 15.4746C17.2334 14.7363 17.247 12.9111 17.3838 12.125C17.6025 10.8672 17.999 9.69825 18.6074 8.57032C18.9423 7.95508 19.038 7.83887 20.7402 6.15723C21.7246 5.18653 22.7568 4.20215 23.0371 3.97657C24.8418 2.50684 26.9199 1.70704 29.292 1.56348C30.6728 1.48145 31.582 1.80274 32.4775 2.69141C33.3867 3.60059 33.6875 4.46192 33.6054 6.00684C33.4824 8.61133 32.6826 11.127 31.3291 13.2119C30.9052 13.8613 30.8505 14.1279 31.0761 14.4287C31.247 14.6611 31.6093 14.7637 31.8759 14.6611C32.2451 14.5176 33.3525 12.5967 33.9404 11.0654C34.6308 9.28809 34.9521 7.59278 34.9589 5.69922C34.9658 4.44141 34.9658 4.43457 34.7402 3.78516C34.1386 2.05567 32.874 0.845707 31.1582 0.367191C30.5634 0.203129 29.415 0.141605 28.581 0.237309ZM16.208 11.0381C15.9619 12.125 15.9004 12.6924 15.9072 13.9365C15.9072 15.2764 16.0371 16.1787 16.3789 17.375C16.5361 17.915 16.5429 18.0176 16.4677 18.1201C16.3584 18.25 13.8017 20.5879 12.5986 21.6475L11.7646 22.3789L11.6894 22.126C11.5869 21.75 11.4297 20.7246 11.3818 20.0547C11.2929 18.9336 11.5459 17.1768 11.9765 15.96C12.1953 15.3174 12.7422 14.1963 13.0703 13.7041C13.248 13.4307 16.2763 10.4023 16.3242 10.4502C16.331 10.457 16.2832 10.7236 16.208 11.0381ZM10.3359 16.7529C10.0898 17.8125 10.0214 18.4209 10.0283 19.5762C10.0283 20.793 10.1377 21.6201 10.4248 22.6934C10.5205 23.042 10.5957 23.3359 10.5957 23.3496C10.5957 23.4658 5.37301 27.7314 5.34567 27.6426C5.29782 27.5127 5.74899 24.7031 5.94039 23.917C6.45309 21.8184 7.38961 19.8428 8.68844 18.0996C9.16696 17.4639 10.3974 16.0762 10.4453 16.124C10.4589 16.1377 10.4111 16.418 10.3359 16.7529ZM14.5263 22.4814C15.2031 22.6934 16.5019 22.96 17.3632 23.0693C18.1152 23.165 20.2207 23.1856 21.0341 23.1104L21.6015 23.0625L20.3164 24.2861C18.7304 25.8037 18.4638 26.0361 17.582 26.624C16.3037 27.4854 14.8476 28.0869 13.2343 28.4424C12.4277 28.6133 12.3388 28.6201 9.3652 28.6475L6.33004 28.6816L7.24606 27.9365C8.69528 26.7744 11.2656 24.6143 12.6464 23.4111C13.3437 22.8096 13.9248 22.3106 13.9453 22.3106C13.9658 22.3106 14.2255 22.3857 14.5263 22.4814Z" fill="#FF3F33"/>
<path d="M29.3944 15.7275C29.039 15.8643 28.8271 16.3359 28.9843 16.6436C29.3056 17.2725 30.1669 17.1426 30.2626 16.459C30.29 16.2197 30.2694 16.1445 30.1054 15.96C29.9071 15.748 29.5995 15.6455 29.3944 15.7275Z" fill="#FF3F33"/>
</svg>
