<svg width="45" height="53" viewBox="0 0 45 53" fill="none" xmlns="http://www.w3.org/2000/svg">
<path d="M42.7363 7.23115L23.1351 0.158224C22.8426 0.0527194 22.5412 -0.00012207 22.2347 -0.00012207C21.9267 -0.00012207 21.6211 0.0532532 21.3271 0.159826L1.79625 7.23276C0.74067 7.61563 0 8.61856 0 9.74157V26.4998C0 30.2412 1.20592 33.9832 3.50729 37.6214C5.27134 40.4099 7.7266 43.1445 10.7667 45.7497C15.8498 50.1055 20.8934 52.6181 21.1053 52.7229C21.4782 52.9074 21.8885 52.9999 22.2939 52.9999C22.6934 52.9999 23.0955 52.9102 23.4641 52.7309C23.676 52.6277 28.7173 50.1543 33.8052 45.8158C36.8483 43.221 39.2667 40.4864 41.032 37.6881C43.3325 34.0421 44.4792 30.2779 44.4792 26.4998V9.74157C44.4793 8.61678 43.7944 7.61261 42.7363 7.23115ZM4.27002 26.4873V11.7369C4.27002 11.1754 4.61411 10.6739 5.14199 10.4824L21.7438 4.44265C21.8918 4.3891 22.0618 4.3496 22.2397 4.3496V26.5H40.3358C40.3369 26.5 40.3381 26.524 40.3381 26.5393C40.3346 31.366 37.9035 36.1497 33.1135 40.8074C29.3727 44.4449 25.1228 47.0409 22.9368 48.2655C22.7341 48.3792 22.4178 48.4327 22.2399 48.4327C22.2399 48.0177 22.2399 26.73 22.2399 26.493L4.27002 26.4873Z" fill="#02C39A"/>
</svg>
