<svg width="40" height="40" viewBox="0 0 40 40" fill="none" xmlns="http://www.w3.org/2000/svg">
<circle cx="20" cy="20" r="19.5" stroke="#1764EF" stroke-dasharray="2 2"/>
<path d="M23.1523 11.9377C21.5586 12.2268 20.2969 13.3909 19.8789 14.969C19.8047 15.2385 19.7891 15.3987 19.7891 15.9377C19.7852 16.2932 19.7969 16.6565 19.8164 16.7502L19.8438 16.9221L19.582 16.8948C17.8594 16.7385 16.4688 16.344 15.082 15.6213C13.8008 14.9534 12.4688 13.9026 11.6523 12.9221C11.5273 12.7737 11.4102 12.6604 11.3906 12.6682C11.3672 12.676 11.2852 12.8323 11.2031 13.0198C10.6406 14.2893 10.7461 15.7541 11.4766 16.8948C11.6914 17.2268 12.043 17.6213 12.3281 17.8479L12.6211 18.0862H12.4609C12.1172 18.0862 11.4023 17.8909 11.0156 17.6956C10.9336 17.6526 10.8477 17.6174 10.832 17.6174C10.7773 17.6174 10.8477 18.3323 10.9375 18.676C11.293 20.0237 12.293 21.0901 13.625 21.5354C13.8438 21.6096 14 21.6799 13.9688 21.6916C13.793 21.7581 13.2148 21.8049 12.7656 21.7893L12.2578 21.7659L12.2852 21.8674C12.3281 22.0393 12.6172 22.5862 12.7969 22.8362C13.4844 23.8049 14.6133 24.469 15.7148 24.5588C15.8789 24.5706 16.0156 24.594 16.0156 24.6135C16.0156 24.676 15.1406 25.219 14.6055 25.4846C13.3867 26.0901 12.1797 26.3518 10.7617 26.3206L10.0391 26.3049L10.2422 26.4338C10.543 26.6213 11.4492 27.0784 11.8555 27.2463C14.0469 28.1565 16.6055 28.3635 19.0195 27.8284C22.5703 27.0393 25.4961 24.5706 26.9727 21.1135C27.6016 19.637 27.918 18.1838 27.9531 16.6213L27.9648 15.9182L28.25 15.6916C28.6094 15.3987 29.0156 15.012 29.3242 14.6682C29.5859 14.3713 29.9688 13.8596 29.9453 13.8401C29.9375 13.8323 29.8203 13.8713 29.6836 13.926C29.1641 14.137 27.9648 14.4416 27.7852 14.4065C27.7422 14.3987 27.7734 14.3596 27.8867 14.2854C28.1836 14.0901 28.7109 13.5471 28.9336 13.2112C29.1289 12.9221 29.4141 12.3479 29.4141 12.2463C29.4141 12.2229 29.1758 12.3245 28.8828 12.469C28.3516 12.7268 27.6602 12.9768 27.1211 13.1057L26.8359 13.1721L26.5977 12.9534C25.6836 12.1057 24.3672 11.719 23.1523 11.9377Z" fill="#1764EF"/>
</svg>
