<svg width="40" height="40" viewBox="0 0 40 40" fill="none" xmlns="http://www.w3.org/2000/svg">
<circle cx="20" cy="20" r="19.5" stroke="#1764EF" stroke-dasharray="2 2"/>
<path d="M17.624 13.8426C15.9764 13.9243 13.349 14.1581 12.8369 14.2694C12.1393 14.4215 11.475 15.0858 11.3006 15.8057C11.1707 16.3438 11 18.9971 11 20.5C11 22.003 11.1707 24.6563 11.3006 25.1944C11.475 25.9143 12.1393 26.5749 12.8369 26.7307C13.1004 26.7864 14.5625 26.9422 15.6572 27.0313C18.767 27.2799 22.1885 27.2799 25.3539 27.0313C26.4375 26.9459 27.8922 26.7901 28.1631 26.7307C28.8645 26.5749 29.525 25.9143 29.6994 25.1944C29.8293 24.6563 30 22.003 30 20.5C30 18.9971 29.8293 16.3438 29.6994 15.8057C29.525 15.0858 28.8607 14.4252 28.1631 14.2694C27.6213 14.1506 25.0719 13.928 23.2646 13.8389C21.873 13.7721 19.0119 13.7721 17.624 13.8426ZM21.3127 18.9229C22.6004 19.7801 23.6506 20.4889 23.6506 20.5C23.6506 20.5186 19.0008 23.6247 18.9377 23.6469C18.9191 23.6543 18.9043 22.3555 18.9043 20.5C18.9043 18.6446 18.9191 17.3458 18.9377 17.3532C18.9562 17.3569 20.025 18.0657 21.3127 18.9229Z" fill="#1764EF"/>
</svg>
